  0
SECTION
  2
HEADER
  9
$ANGBASE
  50
0.0
  9
$ANGDIR
  70
  1
  9
$MEASUREMENT
  70
0
  0
ENDSEC
  0
SECTION
  2
TABLES
  0
TABLE
  2
LTYPE
  70
4
  0
LTYPE
  5
40F
  2
CONTINUOUS
  70
0
  3
Solid line
  72
65
  73
0
  40
0.0
  0
LTYPE
  5
410
  2
DASHDOT
 70
0
  3
Dash Dot ____ _ ____ _
 72
65
 73
4
 40
2.0
 49
1.25
 49
-0.25
 49
0.25
 49
-0.25
  0
LTYPE
  5
411
  2
DASHED
 70
0
  3
Dashed __ __ __ __ __
 72
65
 73
2
 40
0.75
 49
0.5
 49
-0.25
  0
LTYPE
  5
43B
  2
DOTTED
 70
0
  3
Dotted .  .  .  .
 72
65
 73
2
 40
0.2
 49
0.0
 49
-0.2
  0
ENDTAB
  0
TABLE
  2
STYLE
  70
4
  0
STYLE
  2
KICAD
  70
0
  40
0
  41
1
  42
1
  50
0
  71
0
  3
isocp.shx
  0
STYLE
  2
KICADB
  70
0
  40
0
  41
1
  42
1
  50
0
  71
0
  3
isocp.shx
  0
STYLE
  2
KICADI
  70
0
  40
0
  41
1
  42
1
  50
15
  71
0
  3
isocp.shx
  0
STYLE
  2
KICADBI
  70
0
  40
0
  41
1
  42
1
  50
15
  71
0
  3
isocp.shx
  0
ENDTAB
  0
TABLE
  2
LAYER
  70
30
  0
LAYER
  2
BLACK
  70
0
  62
7
  6
CONTINUOUS
  0
LAYER
  2
GRAY1
  70
0
  62
251
  6
CONTINUOUS
  0
LAYER
  2
GRAY2
  70
0
  62
8
  6
CONTINUOUS
  0
LAYER
  2
GRAY3
  70
0
  62
9
  6
CONTINUOUS
  0
LAYER
  2
WHITE
  70
0
  62
7
  6
CONTINUOUS
  0
LAYER
  2
LYELLOW
  70
0
  62
51
  6
CONTINUOUS
  0
LAYER
  2
BLUE1
  70
0
  62
178
  6
CONTINUOUS
  0
LAYER
  2
GREEN1
  70
0
  62
98
  6
CONTINUOUS
  0
LAYER
  2
CYAN1
  70
0
  62
138
  6
CONTINUOUS
  0
LAYER
  2
RED1
  70
0
  62
18
  6
CONTINUOUS
  0
LAYER
  2
MAGENTA1
  70
0
  62
228
  6
CONTINUOUS
  0
LAYER
  2
BROWN1
  70
0
  62
58
  6
CONTINUOUS
  0
LAYER
  2
BLUE2
  70
0
  62
5
  6
CONTINUOUS
  0
LAYER
  2
GREEN2
  70
0
  62
3
  6
CONTINUOUS
  0
LAYER
  2
CYAN2
  70
0
  62
4
  6
CONTINUOUS
  0
LAYER
  2
RED2
  70
0
  62
1
  6
CONTINUOUS
  0
LAYER
  2
MAGENTA2
  70
0
  62
6
  6
CONTINUOUS
  0
LAYER
  2
BROWN2
  70
0
  62
54
  6
CONTINUOUS
  0
LAYER
  2
BLUE3
  70
0
  62
171
  6
CONTINUOUS
  0
LAYER
  2
GREEN3
  70
0
  62
91
  6
CONTINUOUS
  0
LAYER
  2
CYAN3
  70
0
  62
131
  6
CONTINUOUS
  0
LAYER
  2
RED3
  70
0
  62
11
  6
CONTINUOUS
  0
LAYER
  2
MAGENTA3
  70
0
  62
221
  6
CONTINUOUS
  0
LAYER
  2
YELLOW3
  70
0
  62
2
  6
CONTINUOUS
  0
LAYER
  2
BLUE4
  70
0
  62
5
  6
CONTINUOUS
  0
LAYER
  2
GREEN4
  70
0
  62
3
  6
CONTINUOUS
  0
LAYER
  2
CYAN4
  70
0
  62
4
  6
CONTINUOUS
  0
LAYER
  2
RED4
  70
0
  62
1
  6
CONTINUOUS
  0
LAYER
  2
MAGENTA4
  70
0
  62
6
  6
CONTINUOUS
  0
LAYER
  2
YELLOW4
  70
0
  62
2
  6
CONTINUOUS
  0
ENDTAB
  0
ENDSEC
  0
SECTION
  2
ENTITIES
0
LINE
8
BLACK
6
CONTINUOUS
10
122.816
20
-59.488
11
122.822
21
-59.488
0
LINE
8
BLACK
6
CONTINUOUS
10
122.822
20
-59.488
11
122.828
21
-59.4903
0
LINE
8
BLACK
6
CONTINUOUS
10
122.828
20
-59.4903
11
122.835
21
-59.4914
0
LINE
8
BLACK
6
CONTINUOUS
10
122.835
20
-59.4914
11
122.841
21
-59.4948
0
LINE
8
BLACK
6
CONTINUOUS
10
122.841
20
-59.4948
11
122.847
21
-59.497
0
LINE
8
BLACK
6
CONTINUOUS
10
122.847
20
-59.497
11
122.852
21
-59.5013
0
LINE
8
BLACK
6
CONTINUOUS
10
122.852
20
-59.5013
11
122.858
21
-59.5047
0
LINE
8
BLACK
6
CONTINUOUS
10
122.858
20
-59.5047
11
122.862
21
-59.5098
0
LINE
8
BLACK
6
CONTINUOUS
10
122.862
20
-59.5098
11
122.867
21
-59.514
0
LINE
8
BLACK
6
CONTINUOUS
10
122.867
20
-59.514
11
122.871
21
-59.5198
0
LINE
8
BLACK
6
CONTINUOUS
10
122.871
20
-59.5198
11
122.875
21
-59.5249
0
LINE
8
BLACK
6
CONTINUOUS
10
122.875
20
-59.5249
11
122.877
21
-59.5312
0
LINE
8
BLACK
6
CONTINUOUS
10
122.877
20
-59.5312
11
122.881
21
-59.537
0
LINE
8
BLACK
6
CONTINUOUS
10
122.881
20
-59.537
11
122.882
21
-59.5435
0
LINE
8
BLACK
6
CONTINUOUS
10
122.882
20
-59.5435
11
122.884
21
-59.5498
0
LINE
8
BLACK
6
CONTINUOUS
10
122.884
20
-59.5498
11
122.884
21
-59.5564
0
LINE
8
BLACK
6
CONTINUOUS
10
122.884
20
-59.5564
11
122.884
21
-59.5564
0
LINE
8
BLACK
6
CONTINUOUS
10
122.884
20
-59.5564
11
122.884
21
-104.528
0
LINE
8
BLACK
6
CONTINUOUS
10
122.884
20
-104.528
11
122.884
21
-104.528
0
LINE
8
BLACK
6
CONTINUOUS
10
122.884
20
-104.528
11
122.884
21
-104.534
0
LINE
8
BLACK
6
CONTINUOUS
10
122.884
20
-104.534
11
122.882
21
-104.54
0
LINE
8
BLACK
6
CONTINUOUS
10
122.882
20
-104.54
11
122.881
21
-104.547
0
LINE
8
BLACK
6
CONTINUOUS
10
122.881
20
-104.547
11
122.877
21
-104.553
0
LINE
8
BLACK
6
CONTINUOUS
10
122.877
20
-104.553
11
122.875
21
-104.559
0
LINE
8
BLACK
6
CONTINUOUS
10
122.875
20
-104.559
11
122.871
21
-104.564
0
LINE
8
BLACK
6
CONTINUOUS
10
122.871
20
-104.564
11
122.867
21
-104.57
0
LINE
8
BLACK
6
CONTINUOUS
10
122.867
20
-104.57
11
122.862
21
-104.574
0
LINE
8
BLACK
6
CONTINUOUS
10
122.862
20
-104.574
11
122.858
21
-104.579
0
LINE
8
BLACK
6
CONTINUOUS
10
122.858
20
-104.579
11
122.852
21
-104.583
0
LINE
8
BLACK
6
CONTINUOUS
10
122.852
20
-104.583
11
122.847
21
-104.587
0
LINE
8
BLACK
6
CONTINUOUS
10
122.847
20
-104.587
11
122.841
21
-104.589
0
LINE
8
BLACK
6
CONTINUOUS
10
122.841
20
-104.589
11
122.835
21
-104.593
0
LINE
8
BLACK
6
CONTINUOUS
10
122.835
20
-104.593
11
122.828
21
-104.594
0
LINE
8
BLACK
6
CONTINUOUS
10
122.828
20
-104.594
11
122.822
21
-104.596
0
LINE
8
BLACK
6
CONTINUOUS
10
122.822
20
-104.596
11
122.816
21
-104.596
0
LINE
8
BLACK
6
CONTINUOUS
10
122.816
20
-104.596
11
122.816
21
-104.596
0
LINE
8
BLACK
6
CONTINUOUS
10
122.816
20
-104.596
11
85.8454
21
-104.596
0
LINE
8
BLACK
6
CONTINUOUS
10
85.8454
20
-104.596
11
85.8454
21
-104.596
0
LINE
8
BLACK
6
CONTINUOUS
10
85.8454
20
-104.596
11
85.8388
21
-104.596
0
LINE
8
BLACK
6
CONTINUOUS
10
85.8388
20
-104.596
11
85.8325
21
-104.594
0
LINE
8
BLACK
6
CONTINUOUS
10
85.8325
20
-104.594
11
85.826
21
-104.593
0
LINE
8
BLACK
6
CONTINUOUS
10
85.826
20
-104.593
11
85.8202
21
-104.589
0
LINE
8
BLACK
6
CONTINUOUS
10
85.8202
20
-104.589
11
85.8139
21
-104.587
0
LINE
8
BLACK
6
CONTINUOUS
10
85.8139
20
-104.587
11
85.8088
21
-104.583
0
LINE
8
BLACK
6
CONTINUOUS
10
85.8088
20
-104.583
11
85.803
21
-104.579
0
LINE
8
BLACK
6
CONTINUOUS
10
85.803
20
-104.579
11
85.7988
21
-104.574
0
LINE
8
BLACK
6
CONTINUOUS
10
85.7988
20
-104.574
11
85.7937
21
-104.57
0
LINE
8
BLACK
6
CONTINUOUS
10
85.7937
20
-104.57
11
85.7903
21
-104.564
0
LINE
8
BLACK
6
CONTINUOUS
10
85.7903
20
-104.564
11
85.786
21
-104.559
0
LINE
8
BLACK
6
CONTINUOUS
10
85.786
20
-104.559
11
85.7838
21
-104.553
0
LINE
8
BLACK
6
CONTINUOUS
10
85.7838
20
-104.553
11
85.7804
21
-104.547
0
LINE
8
BLACK
6
CONTINUOUS
10
85.7804
20
-104.547
11
85.7793
21
-104.54
0
LINE
8
BLACK
6
CONTINUOUS
10
85.7793
20
-104.54
11
85.777
21
-104.534
0
LINE
8
BLACK
6
CONTINUOUS
10
85.777
20
-104.534
11
85.777
21
-104.528
0
LINE
8
BLACK
6
CONTINUOUS
10
85.777
20
-104.528
11
85.777
21
-104.528
0
LINE
8
BLACK
6
CONTINUOUS
10
85.777
20
-104.528
11
85.777
21
-54.8574
0
LINE
8
BLACK
6
CONTINUOUS
10
85.777
20
-54.8574
11
85.777
21
-54.8508
0
LINE
8
BLACK
6
CONTINUOUS
10
85.777
20
-54.8508
11
85.7793
21
-54.8445
0
LINE
8
BLACK
6
CONTINUOUS
10
85.7793
20
-54.8445
11
85.7804
21
-54.838
0
LINE
8
BLACK
6
CONTINUOUS
10
85.7804
20
-54.838
11
85.7838
21
-54.8322
0
LINE
8
BLACK
6
CONTINUOUS
10
85.7838
20
-54.8322
11
85.786
21
-54.8259
0
LINE
8
BLACK
6
CONTINUOUS
10
85.786
20
-54.8259
11
85.7903
21
-54.8208
0
LINE
8
BLACK
6
CONTINUOUS
10
85.7903
20
-54.8208
11
85.7937
21
-54.815
0
LINE
8
BLACK
6
CONTINUOUS
10
85.7937
20
-54.815
11
85.7988
21
-54.8108
0
LINE
8
BLACK
6
CONTINUOUS
10
85.7988
20
-54.8108
11
85.803
21
-54.8057
0
LINE
8
BLACK
6
CONTINUOUS
10
85.803
20
-54.8057
11
85.8088
21
-54.8023
0
LINE
8
BLACK
6
CONTINUOUS
10
85.8088
20
-54.8023
11
85.8139
21
-54.798
0
LINE
8
BLACK
6
CONTINUOUS
10
85.8139
20
-54.798
11
85.8202
21
-54.7958
0
LINE
8
BLACK
6
CONTINUOUS
10
85.8202
20
-54.7958
11
85.826
21
-54.7924
0
LINE
8
BLACK
6
CONTINUOUS
10
85.826
20
-54.7924
11
85.8325
21
-54.7913
0
LINE
8
BLACK
6
CONTINUOUS
10
85.8325
20
-54.7913
11
85.8388
21
-54.789
0
LINE
8
BLACK
6
CONTINUOUS
10
85.8388
20
-54.789
11
85.8454
21
-54.789
0
LINE
8
BLACK
6
CONTINUOUS
10
85.8454
20
-54.789
11
85.8454
21
-54.789
0
LINE
8
BLACK
6
CONTINUOUS
10
85.8454
20
-54.789
11
94.8756
21
-54.789
0
LINE
8
BLACK
6
CONTINUOUS
10
94.8756
20
-54.789
11
94.8756
21
-54.789
0
LINE
8
BLACK
6
CONTINUOUS
10
94.8756
20
-54.789
11
94.8822
21
-54.789
0
LINE
8
BLACK
6
CONTINUOUS
10
94.8822
20
-54.789
11
94.8885
21
-54.7913
0
LINE
8
BLACK
6
CONTINUOUS
10
94.8885
20
-54.7913
11
94.895
21
-54.7924
0
LINE
8
BLACK
6
CONTINUOUS
10
94.895
20
-54.7924
11
94.9008
21
-54.7958
0
LINE
8
BLACK
6
CONTINUOUS
10
94.9008
20
-54.7958
11
94.9071
21
-54.798
0
LINE
8
BLACK
6
CONTINUOUS
10
94.9071
20
-54.798
11
94.9122
21
-54.8023
0
LINE
8
BLACK
6
CONTINUOUS
10
94.9122
20
-54.8023
11
94.918
21
-54.8057
0
LINE
8
BLACK
6
CONTINUOUS
10
94.918
20
-54.8057
11
94.9222
21
-54.8108
0
LINE
8
BLACK
6
CONTINUOUS
10
94.9222
20
-54.8108
11
94.9273
21
-54.815
0
LINE
8
BLACK
6
CONTINUOUS
10
94.9273
20
-54.815
11
94.9307
21
-54.8208
0
LINE
8
BLACK
6
CONTINUOUS
10
94.9307
20
-54.8208
11
94.935
21
-54.8259
0
LINE
8
BLACK
6
CONTINUOUS
10
94.935
20
-54.8259
11
94.9372
21
-54.8322
0
LINE
8
BLACK
6
CONTINUOUS
10
94.9372
20
-54.8322
11
94.9406
21
-54.838
0
LINE
8
BLACK
6
CONTINUOUS
10
94.9406
20
-54.838
11
94.9417
21
-54.8445
0
LINE
8
BLACK
6
CONTINUOUS
10
94.9417
20
-54.8445
11
94.944
21
-54.8508
0
LINE
8
BLACK
6
CONTINUOUS
10
94.944
20
-54.8508
11
94.944
21
-54.8574
0
LINE
8
BLACK
6
CONTINUOUS
10
94.944
20
-54.8574
11
94.944
21
-54.8574
0
LINE
8
BLACK
6
CONTINUOUS
10
94.944
20
-54.8574
11
94.944
21
-55.4953
0
LINE
8
BLACK
6
CONTINUOUS
10
94.944
20
-55.4953
11
95.0693
21
-56.7478
0
LINE
8
BLACK
6
CONTINUOUS
10
95.0693
20
-56.7478
11
95.3141
21
-57.2376
0
LINE
8
BLACK
6
CONTINUOUS
10
95.3141
20
-57.2376
11
95.5681
21
-57.7454
0
LINE
8
BLACK
6
CONTINUOUS
10
95.5681
20
-57.7454
11
95.9373
21
-58.2377
0
LINE
8
BLACK
6
CONTINUOUS
10
95.9373
20
-58.2377
11
96.2973
21
-58.4778
0
LINE
8
BLACK
6
CONTINUOUS
10
96.2973
20
-58.4778
11
96.2982
21
-58.478
0
LINE
8
BLACK
6
CONTINUOUS
10
96.2982
20
-58.478
11
96.3082
21
-58.485
0
LINE
8
BLACK
6
CONTINUOUS
10
96.3082
20
-58.485
11
96.3131
21
-58.4882
0
LINE
8
BLACK
6
CONTINUOUS
10
96.3131
20
-58.4882
11
96.3137
21
-58.4888
0
LINE
8
BLACK
6
CONTINUOUS
10
96.3137
20
-58.4888
11
96.3144
21
-58.4893
0
LINE
8
BLACK
6
CONTINUOUS
10
96.3144
20
-58.4893
11
96.3184
21
-58.4934
0
LINE
8
BLACK
6
CONTINUOUS
10
96.3184
20
-58.4934
11
96.3274
21
-58.5019
0
LINE
8
BLACK
6
CONTINUOUS
10
96.3274
20
-58.5019
11
96.3278
21
-58.5027
0
LINE
8
BLACK
6
CONTINUOUS
10
96.3278
20
-58.5027
11
96.6914
21
-58.8664
0
LINE
8
BLACK
6
CONTINUOUS
10
96.6914
20
-58.8664
11
97.1838
21
-59.1125
0
LINE
8
BLACK
6
CONTINUOUS
10
97.1838
20
-59.1125
11
97.5659
21
-59.2399
0
LINE
8
BLACK
6
CONTINUOUS
10
97.5659
20
-59.2399
11
97.5659
21
-59.2399
0
LINE
8
BLACK
6
CONTINUOUS
10
97.5659
20
-59.2399
11
97.938
21
-59.3639
0
LINE
8
BLACK
6
CONTINUOUS
10
97.938
20
-59.3639
11
98.4342
21
-59.488
0
LINE
8
BLACK
6
CONTINUOUS
10
98.4342
20
-59.488
11
122.816
21
-59.488
0
LINE
8
BLACK
6
CONTINUOUS
10
122.816
20
-59.488
11
122.816
21
-59.488
0
LINE
8
BLACK
6
CONTINUOUS
10
98.4329
20
-59.6387
11
98.4224
21
-59.638
0
LINE
8
BLACK
6
CONTINUOUS
10
98.4224
20
-59.638
11
98.4184
21
-59.638
0
LINE
8
BLACK
6
CONTINUOUS
10
98.4184
20
-59.638
11
98.4158
21
-59.6375
0
LINE
8
BLACK
6
CONTINUOUS
10
98.4158
20
-59.6375
11
98.4132
21
-59.6373
0
LINE
8
BLACK
6
CONTINUOUS
10
98.4132
20
-59.6373
11
98.4094
21
-59.6364
0
LINE
8
BLACK
6
CONTINUOUS
10
98.4094
20
-59.6364
11
98.399
21
-59.6346
0
LINE
8
BLACK
6
CONTINUOUS
10
98.399
20
-59.6346
11
98.3966
21
-59.6332
0
LINE
8
BLACK
6
CONTINUOUS
10
98.3966
20
-59.6332
11
97.9024
21
-59.5096
0
LINE
8
BLACK
6
CONTINUOUS
10
97.9024
20
-59.5096
11
97.8995
21
-59.5092
0
LINE
8
BLACK
6
CONTINUOUS
10
97.8995
20
-59.5092
11
97.896
21
-59.5081
0
LINE
8
BLACK
6
CONTINUOUS
10
97.896
20
-59.5081
11
97.8924
21
-59.5072
0
LINE
8
BLACK
6
CONTINUOUS
10
97.8924
20
-59.5072
11
97.8898
21
-59.506
0
LINE
8
BLACK
6
CONTINUOUS
10
97.8898
20
-59.506
11
97.5061
21
-59.3781
0
LINE
8
BLACK
6
CONTINUOUS
10
97.5061
20
-59.3781
11
97.1324
21
-59.2535
0
LINE
8
BLACK
6
CONTINUOUS
10
97.1324
20
-59.2535
11
97.1273
21
-59.252
0
LINE
8
BLACK
6
CONTINUOUS
10
97.1273
20
-59.252
11
97.1262
21
-59.2515
0
LINE
8
BLACK
6
CONTINUOUS
10
97.1262
20
-59.2515
11
97.1251
21
-59.2511
0
LINE
8
BLACK
6
CONTINUOUS
10
97.1251
20
-59.2511
11
97.1204
21
-59.2485
0
LINE
8
BLACK
6
CONTINUOUS
10
97.1204
20
-59.2485
11
96.6202
21
-58.9985
0
LINE
8
BLACK
6
CONTINUOUS
10
96.6202
20
-58.9985
11
96.6148
21
-58.997
0
LINE
8
BLACK
6
CONTINUOUS
10
96.6148
20
-58.997
11
96.6085
21
-58.9926
0
LINE
8
BLACK
6
CONTINUOUS
10
96.6085
20
-58.9926
11
96.6076
21
-58.9921
0
LINE
8
BLACK
6
CONTINUOUS
10
96.6076
20
-58.9921
11
96.6032
21
-58.9889
0
LINE
8
BLACK
6
CONTINUOUS
10
96.6032
20
-58.9889
11
96.5986
21
-58.9857
0
LINE
8
BLACK
6
CONTINUOUS
10
96.5986
20
-58.9857
11
96.5979
21
-58.9849
0
LINE
8
BLACK
6
CONTINUOUS
10
96.5979
20
-58.9849
11
96.5917
21
-58.9804
0
LINE
8
BLACK
6
CONTINUOUS
10
96.5917
20
-58.9804
11
96.5886
21
-58.9757
0
LINE
8
BLACK
6
CONTINUOUS
10
96.5886
20
-58.9757
11
96.2182
21
-58.6053
0
LINE
8
BLACK
6
CONTINUOUS
10
96.2182
20
-58.6053
11
95.8492
21
-58.3592
0
LINE
8
BLACK
6
CONTINUOUS
10
95.8492
20
-58.3592
11
95.8434
21
-58.3568
0
LINE
8
BLACK
6
CONTINUOUS
10
95.8434
20
-58.3568
11
95.8382
21
-58.352
0
LINE
8
BLACK
6
CONTINUOUS
10
95.8382
20
-58.352
11
95.8379
21
-58.3518
0
LINE
8
BLACK
6
CONTINUOUS
10
95.8379
20
-58.3518
11
95.8335
21
-58.3475
0
LINE
8
BLACK
6
CONTINUOUS
10
95.8335
20
-58.3475
11
95.8289
21
-58.3432
0
LINE
8
BLACK
6
CONTINUOUS
10
95.8289
20
-58.3432
11
95.8287
21
-58.3429
0
LINE
8
BLACK
6
CONTINUOUS
10
95.8287
20
-58.3429
11
95.8236
21
-58.3381
0
LINE
8
BLACK
6
CONTINUOUS
10
95.8236
20
-58.3381
11
95.8208
21
-58.3325
0
LINE
8
BLACK
6
CONTINUOUS
10
95.8208
20
-58.3325
11
95.4518
21
-57.8404
0
LINE
8
BLACK
6
CONTINUOUS
10
95.4518
20
-57.8404
11
95.4516
21
-57.8403
0
LINE
8
BLACK
6
CONTINUOUS
10
95.4516
20
-57.8403
11
95.4439
21
-57.8299
0
LINE
8
BLACK
6
CONTINUOUS
10
95.4439
20
-57.8299
11
95.4401
21
-57.8248
0
LINE
8
BLACK
6
CONTINUOUS
10
95.4401
20
-57.8248
11
95.44
21
-57.8246
0
LINE
8
BLACK
6
CONTINUOUS
10
95.44
20
-57.8246
11
95.4398
21
-57.8244
0
LINE
8
BLACK
6
CONTINUOUS
10
95.4398
20
-57.8244
11
95.4368
21
-57.8184
0
LINE
8
BLACK
6
CONTINUOUS
10
95.4368
20
-57.8184
11
95.4311
21
-57.8071
0
LINE
8
BLACK
6
CONTINUOUS
10
95.4311
20
-57.8071
11
95.4311
21
-57.8069
0
LINE
8
BLACK
6
CONTINUOUS
10
95.4311
20
-57.8069
11
95.1859
21
-57.3164
0
LINE
8
BLACK
6
CONTINUOUS
10
95.1859
20
-57.3164
11
95.1858
21
-57.3164
0
LINE
8
BLACK
6
CONTINUOUS
10
95.1858
20
-57.3164
11
94.9316
21
-56.8079
0
LINE
8
BLACK
6
CONTINUOUS
10
94.9316
20
-56.8079
11
94.9274
21
-56.802
0
LINE
8
BLACK
6
CONTINUOUS
10
94.9274
20
-56.802
11
94.9239
21
-56.7898
0
LINE
8
BLACK
6
CONTINUOUS
10
94.9239
20
-56.7898
11
94.9203
21
-56.7777
0
LINE
8
BLACK
6
CONTINUOUS
10
94.9203
20
-56.7777
11
94.9208
21
-56.7705
0
LINE
8
BLACK
6
CONTINUOUS
10
94.9208
20
-56.7705
11
94.7946
21
-55.5092
0
LINE
8
BLACK
6
CONTINUOUS
10
94.7946
20
-55.5092
11
94.794
21
-55.5056
0
LINE
8
BLACK
6
CONTINUOUS
10
94.794
20
-55.5056
11
94.794
21
-55.5027
0
LINE
8
BLACK
6
CONTINUOUS
10
94.794
20
-55.5027
11
94.7937
21
-55.4999
0
LINE
8
BLACK
6
CONTINUOUS
10
94.7937
20
-55.4999
11
94.794
21
-55.4962
0
LINE
8
BLACK
6
CONTINUOUS
10
94.794
20
-55.4962
11
94.794
21
-54.939
0
LINE
8
BLACK
6
CONTINUOUS
10
94.794
20
-54.939
11
85.927
21
-54.939
0
LINE
8
BLACK
6
CONTINUOUS
10
85.927
20
-54.939
11
85.927
21
-104.446
0
LINE
8
BLACK
6
CONTINUOUS
10
85.927
20
-104.446
11
122.734
21
-104.446
0
LINE
8
BLACK
6
CONTINUOUS
10
122.734
20
-104.446
11
122.734
21
-59.638
0
LINE
8
BLACK
6
CONTINUOUS
10
122.734
20
-59.638
11
98.4355
21
-59.638
0
LINE
8
BLACK
6
CONTINUOUS
10
98.4355
20
-59.638
11
98.4329
21
-59.6387
  0
ENDSEC
  0
EOF
