M48
INCH,TZ
T1C0.0120
T2C0.0180
T3C0.0315
T4C0.0394
T5C0.0433
T6C0.0472
T7C0.0591
T8C0.0787
%
G90
G05
T1
X34308Y-37484
X35250Y-34850
X35660Y-25640
X35660Y-26750
X35914Y-32339
X35914Y-32801
X36376Y-32339
X36376Y-32801
X36980Y-28320
X37110Y-35680
X38787Y-35038
X39059Y-36655
X39110Y-29390
X39356Y-38867
X39726Y-34912
X39862Y-38241
X40274Y-30390
X40849Y-30496
X40859Y-40320
X40872Y-29396
X42266Y-27556
X42326Y-37970
X43030Y-36046
X43188Y-24600
X43486Y-32988
X44502Y-38962
X44600Y-29924
X45202Y-40022
X46118Y-34901
X46118Y-35363
X46580Y-34901
X46580Y-35363
X47362Y-31336
X47602Y-38034
X47868Y-34214
X47926Y-30854
T2
X38268Y-35454
X40096Y-35450
T3
X34590Y-22120
X36560Y-22910
T4
X42680Y-39654
X42680Y-40654
X42575Y-29975
X43575Y-29975
T5
X38407Y-25961
X41603Y-25961
T6
X44235Y-23875
X44235Y-24840
X45235Y-23875
X45235Y-24840
T7
X41497Y-33387
X38617Y-33387
T8
X47180Y-39980
X34980Y-39980
X34980Y-24620
X47190Y-24620
T0
M30
