G04 #@! TF.GenerationSoftware,KiCad,Pcbnew,(5.0.1)-4*
G04 #@! TF.CreationDate,2018-12-06T20:38:25-05:00*
G04 #@! TF.ProjectId,TrafMasterV1,547261664D617374657256312E6B6963,V1*
G04 #@! TF.SameCoordinates,Original*
G04 #@! TF.FileFunction,Legend,Bot*
G04 #@! TF.FilePolarity,Positive*
%FSLAX46Y46*%
G04 Gerber Fmt 4.6, Leading zero omitted, Abs format (unit mm)*
G04 Created by KiCad (PCBNEW (5.0.1)-4) date 12/6/2018 8:38:25 PM*
%MOMM*%
%LPD*%
G01*
G04 APERTURE LIST*
%ADD10C,0.254000*%
%ADD11C,0.150000*%
%ADD12C,0.100000*%
%ADD13C,0.125000*%
%ADD14C,0.127000*%
%ADD15C,0.107950*%
G04 APERTURE END LIST*
D10*
X106659921Y-95387885D02*
X106611540Y-95291123D01*
X106611540Y-95097600D01*
X106659921Y-95000838D01*
X106756683Y-94952457D01*
X106805064Y-94952457D01*
X106901826Y-95000838D01*
X106950207Y-95097600D01*
X106950207Y-95242742D01*
X106998588Y-95339504D01*
X107095350Y-95387885D01*
X107143731Y-95387885D01*
X107240493Y-95339504D01*
X107288874Y-95242742D01*
X107288874Y-95097600D01*
X107240493Y-95000838D01*
X106659921Y-94129980D02*
X106611540Y-94226742D01*
X106611540Y-94420266D01*
X106659921Y-94517028D01*
X106756683Y-94565409D01*
X107143731Y-94565409D01*
X107240493Y-94517028D01*
X107288874Y-94420266D01*
X107288874Y-94226742D01*
X107240493Y-94129980D01*
X107143731Y-94081600D01*
X107046969Y-94081600D01*
X106950207Y-94565409D01*
X107288874Y-93646171D02*
X106611540Y-93646171D01*
X107192112Y-93646171D02*
X107240493Y-93597790D01*
X107288874Y-93501028D01*
X107288874Y-93355885D01*
X107240493Y-93259123D01*
X107143731Y-93210742D01*
X106611540Y-93210742D01*
X106659921Y-92775314D02*
X106611540Y-92678552D01*
X106611540Y-92485028D01*
X106659921Y-92388266D01*
X106756683Y-92339885D01*
X106805064Y-92339885D01*
X106901826Y-92388266D01*
X106950207Y-92485028D01*
X106950207Y-92630171D01*
X106998588Y-92726933D01*
X107095350Y-92775314D01*
X107143731Y-92775314D01*
X107240493Y-92726933D01*
X107288874Y-92630171D01*
X107288874Y-92485028D01*
X107240493Y-92388266D01*
X106611540Y-91759314D02*
X106659921Y-91856076D01*
X106708302Y-91904457D01*
X106805064Y-91952838D01*
X107095350Y-91952838D01*
X107192112Y-91904457D01*
X107240493Y-91856076D01*
X107288874Y-91759314D01*
X107288874Y-91614171D01*
X107240493Y-91517409D01*
X107192112Y-91469028D01*
X107095350Y-91420647D01*
X106805064Y-91420647D01*
X106708302Y-91469028D01*
X106659921Y-91517409D01*
X106611540Y-91614171D01*
X106611540Y-91759314D01*
X106611540Y-90985219D02*
X107288874Y-90985219D01*
X107095350Y-90985219D02*
X107192112Y-90936838D01*
X107240493Y-90888457D01*
X107288874Y-90791695D01*
X107288874Y-90694933D01*
X106611540Y-89920838D02*
X107143731Y-89920838D01*
X107240493Y-89969219D01*
X107288874Y-90065980D01*
X107288874Y-90259504D01*
X107240493Y-90356266D01*
X106659921Y-89920838D02*
X106611540Y-90017600D01*
X106611540Y-90259504D01*
X106659921Y-90356266D01*
X106756683Y-90404647D01*
X106853445Y-90404647D01*
X106950207Y-90356266D01*
X106998588Y-90259504D01*
X106998588Y-90017600D01*
X107046969Y-89920838D01*
X106611540Y-89437028D02*
X107627540Y-89437028D01*
X107240493Y-89437028D02*
X107288874Y-89340266D01*
X107288874Y-89146742D01*
X107240493Y-89049980D01*
X107192112Y-89001600D01*
X107095350Y-88953219D01*
X106805064Y-88953219D01*
X106708302Y-89001600D01*
X106659921Y-89049980D01*
X106611540Y-89146742D01*
X106611540Y-89340266D01*
X106659921Y-89437028D01*
X106611540Y-88372647D02*
X106659921Y-88469409D01*
X106756683Y-88517790D01*
X107627540Y-88517790D01*
X106659921Y-87598552D02*
X106611540Y-87695314D01*
X106611540Y-87888838D01*
X106659921Y-87985600D01*
X106756683Y-88033980D01*
X107143731Y-88033980D01*
X107240493Y-87985600D01*
X107288874Y-87888838D01*
X107288874Y-87695314D01*
X107240493Y-87598552D01*
X107143731Y-87550171D01*
X107046969Y-87550171D01*
X106950207Y-88033980D01*
X106708302Y-87114742D02*
X106659921Y-87066361D01*
X106611540Y-87114742D01*
X106659921Y-87163123D01*
X106708302Y-87114742D01*
X106611540Y-87114742D01*
X106611540Y-86630933D02*
X107288874Y-86630933D01*
X107627540Y-86630933D02*
X107579160Y-86679314D01*
X107530779Y-86630933D01*
X107579160Y-86582552D01*
X107627540Y-86630933D01*
X107530779Y-86630933D01*
X106611540Y-86001980D02*
X106659921Y-86098742D01*
X106708302Y-86147123D01*
X106805064Y-86195504D01*
X107095350Y-86195504D01*
X107192112Y-86147123D01*
X107240493Y-86098742D01*
X107288874Y-86001980D01*
X107288874Y-85856838D01*
X107240493Y-85760076D01*
X107192112Y-85711695D01*
X107095350Y-85663314D01*
X106805064Y-85663314D01*
X106708302Y-85711695D01*
X106659921Y-85760076D01*
X106611540Y-85856838D01*
X106611540Y-86001980D01*
X104833540Y-93718742D02*
X104833540Y-94299314D01*
X104833540Y-94009028D02*
X105849540Y-94009028D01*
X105704398Y-94105790D01*
X105607636Y-94202552D01*
X105559255Y-94299314D01*
X105414112Y-93138171D02*
X105462493Y-93234933D01*
X105510874Y-93283314D01*
X105607636Y-93331695D01*
X105656017Y-93331695D01*
X105752779Y-93283314D01*
X105801160Y-93234933D01*
X105849540Y-93138171D01*
X105849540Y-92944647D01*
X105801160Y-92847885D01*
X105752779Y-92799504D01*
X105656017Y-92751123D01*
X105607636Y-92751123D01*
X105510874Y-92799504D01*
X105462493Y-92847885D01*
X105414112Y-92944647D01*
X105414112Y-93138171D01*
X105365731Y-93234933D01*
X105317350Y-93283314D01*
X105220588Y-93331695D01*
X105027064Y-93331695D01*
X104930302Y-93283314D01*
X104881921Y-93234933D01*
X104833540Y-93138171D01*
X104833540Y-92944647D01*
X104881921Y-92847885D01*
X104930302Y-92799504D01*
X105027064Y-92751123D01*
X105220588Y-92751123D01*
X105317350Y-92799504D01*
X105365731Y-92847885D01*
X105414112Y-92944647D01*
X105897921Y-91589980D02*
X104591636Y-92460838D01*
X104833540Y-90719123D02*
X104833540Y-91299695D01*
X104833540Y-91009409D02*
X105849540Y-91009409D01*
X105704398Y-91106171D01*
X105607636Y-91202933D01*
X105559255Y-91299695D01*
X105752779Y-90332076D02*
X105801160Y-90283695D01*
X105849540Y-90186933D01*
X105849540Y-89945028D01*
X105801160Y-89848266D01*
X105752779Y-89799885D01*
X105656017Y-89751504D01*
X105559255Y-89751504D01*
X105414112Y-89799885D01*
X104833540Y-90380457D01*
X104833540Y-89751504D01*
X105897921Y-88590361D02*
X104591636Y-89461219D01*
X105849540Y-88058171D02*
X105849540Y-87961409D01*
X105801160Y-87864647D01*
X105752779Y-87816266D01*
X105656017Y-87767885D01*
X105462493Y-87719504D01*
X105220588Y-87719504D01*
X105027064Y-87767885D01*
X104930302Y-87816266D01*
X104881921Y-87864647D01*
X104833540Y-87961409D01*
X104833540Y-88058171D01*
X104881921Y-88154933D01*
X104930302Y-88203314D01*
X105027064Y-88251695D01*
X105220588Y-88300076D01*
X105462493Y-88300076D01*
X105656017Y-88251695D01*
X105752779Y-88203314D01*
X105801160Y-88154933D01*
X105849540Y-88058171D01*
X105849540Y-86800266D02*
X105849540Y-87284076D01*
X105365731Y-87332457D01*
X105414112Y-87284076D01*
X105462493Y-87187314D01*
X105462493Y-86945409D01*
X105414112Y-86848647D01*
X105365731Y-86800266D01*
X105268969Y-86751885D01*
X105027064Y-86751885D01*
X104930302Y-86800266D01*
X104881921Y-86848647D01*
X104833540Y-86945409D01*
X104833540Y-87187314D01*
X104881921Y-87284076D01*
X104930302Y-87332457D01*
D11*
G04 #@! TO.C,C14*
X114818760Y-91487559D02*
X114818760Y-92987560D01*
X111718760Y-91487560D02*
X114818760Y-91487559D01*
X111718760Y-92987561D02*
X111718760Y-91487560D01*
X114818760Y-92987560D02*
X111718760Y-92987561D01*
G04 #@! TO.C,U2*
X120251460Y-91310280D02*
X120251460Y-92710280D01*
X115151460Y-91310280D02*
X115151460Y-87160280D01*
X120301460Y-91310280D02*
X120301460Y-87160280D01*
X115151460Y-91310280D02*
X115296460Y-91310280D01*
X115151460Y-87160280D02*
X115296460Y-87160280D01*
X120301460Y-87160280D02*
X120156460Y-87160280D01*
X120301460Y-91310280D02*
X120251460Y-91310280D01*
G04 #@! TO.C,D1*
X115415060Y-75013820D02*
X115415060Y-76735940D01*
X115150500Y-77482500D02*
X115150500Y-74232500D01*
X121500500Y-77532500D02*
X115145820Y-77533500D01*
X121500500Y-74282500D02*
X121500500Y-77532500D01*
X115150500Y-74232500D02*
X121500500Y-74282500D01*
G04 #@! TO.C,C19*
X112313000Y-79107000D02*
X112313000Y-79907000D01*
X111913000Y-79507000D02*
X112713000Y-79507000D01*
X113813000Y-77807000D02*
X120213000Y-77807000D01*
X113113000Y-78507000D02*
X113813000Y-77807000D01*
X113113000Y-84207000D02*
X113113000Y-78507000D01*
X113813000Y-84907000D02*
X113113000Y-84207000D01*
X120213000Y-84907000D02*
X113813000Y-84907000D01*
X120213000Y-77907000D02*
X120213000Y-84907000D01*
G04 #@! TO.C,P9*
X105612700Y-61621900D02*
X107112700Y-66121900D01*
X104112700Y-66121900D02*
X105612700Y-61621900D01*
X97612700Y-61621900D02*
X99112700Y-66121900D01*
X96112700Y-66121900D02*
X97612700Y-61621900D01*
X94362700Y-60871900D02*
X94362700Y-74121900D01*
X93612700Y-60871900D02*
X94362700Y-60871900D01*
X93612700Y-58871900D02*
X93612700Y-60871900D01*
X109612700Y-58871900D02*
X93612700Y-58871900D01*
X109612700Y-60871900D02*
X109612700Y-58871900D01*
X108862700Y-60871900D02*
X109612700Y-60871900D01*
X108862700Y-74121900D02*
X108862700Y-60871900D01*
X94362700Y-74121900D02*
X108862700Y-74121900D01*
G04 #@! TO.C,C16*
X120783920Y-83214880D02*
X122283920Y-83214880D01*
X120783920Y-86314880D02*
X120783920Y-83214880D01*
X122283920Y-86314880D02*
X120783920Y-86314880D01*
X122283920Y-83214880D02*
X122283920Y-86314880D01*
G04 #@! TO.C,C13*
X117042600Y-95243080D02*
X117042600Y-93743080D01*
X120142600Y-95243080D02*
X117042600Y-95243080D01*
X120142600Y-93743080D02*
X120142600Y-95243080D01*
X117042600Y-93743080D02*
X120142600Y-93743080D01*
G04 #@! TO.C,C12*
X120702640Y-88074880D02*
X122202640Y-88074880D01*
X120702640Y-91174880D02*
X120702640Y-88074880D01*
X122202640Y-91174880D02*
X120702640Y-91174880D01*
X122202640Y-88074880D02*
X122202640Y-91174880D01*
G04 #@! TO.C,C17*
X112950560Y-86044440D02*
X114450560Y-86044440D01*
X112950560Y-89144440D02*
X112950560Y-86044440D01*
X114450560Y-89144440D02*
X112950560Y-89144440D01*
X114450560Y-86044440D02*
X114450560Y-89144440D01*
G04 #@! TO.C,R9*
X114193920Y-89531760D02*
X114193920Y-91031760D01*
X111093920Y-89531760D02*
X114193920Y-89531760D01*
X111093920Y-91031760D02*
X111093920Y-89531760D01*
X114193920Y-91031760D02*
X111093920Y-91031760D01*
G04 #@! TO.C,L2*
X109836960Y-93549160D02*
G75*
G03X109836960Y-93549160I-200000J0D01*
G01*
X110036960Y-93349160D02*
X115636960Y-93349160D01*
X110036960Y-98949160D02*
X110036960Y-93349160D01*
X115636960Y-98949160D02*
X110036960Y-98949160D01*
X115636960Y-93349160D02*
X115636960Y-98949160D01*
G04 #@! TO.C,R8*
X112332200Y-89058080D02*
X110832200Y-89058080D01*
X112332200Y-85958080D02*
X112332200Y-89058080D01*
X110832200Y-85958080D02*
X112332200Y-85958080D01*
X110832200Y-89058080D02*
X110832200Y-85958080D01*
G04 #@! TO.C,C18*
X115694440Y-101343640D02*
X110294440Y-101343640D01*
X110294440Y-101343640D02*
X110294440Y-99143640D01*
X110294440Y-99143640D02*
X115694440Y-99143640D01*
X115694440Y-99143640D02*
X115694440Y-101293640D01*
G04 #@! TO.C,C15*
X115735080Y-103964920D02*
X110335080Y-103964920D01*
X110335080Y-103964920D02*
X110335080Y-101764920D01*
X110335080Y-101764920D02*
X115735080Y-101764920D01*
X115735080Y-101764920D02*
X115735080Y-103914920D01*
G04 #@! TO.C,C11*
X86200000Y-91686200D02*
X91600000Y-91686200D01*
X91600000Y-91686200D02*
X91600000Y-93886200D01*
X91600000Y-93886200D02*
X86200000Y-93886200D01*
X86200000Y-93886200D02*
X86200000Y-91736200D01*
G04 #@! TO.C,U1*
X89283300Y-80652800D02*
X89283300Y-79252800D01*
X94383300Y-80652800D02*
X94383300Y-84802800D01*
X89233300Y-80652800D02*
X89233300Y-84802800D01*
X94383300Y-80652800D02*
X94238300Y-80652800D01*
X94383300Y-84802800D02*
X94238300Y-84802800D01*
X89233300Y-84802800D02*
X89378300Y-84802800D01*
X89233300Y-80652800D02*
X89283300Y-80652800D01*
G04 #@! TO.C,C5*
X94751888Y-77771023D02*
X93523159Y-78631388D01*
X92973801Y-75231652D02*
X94751888Y-77771023D01*
X91745072Y-76092017D02*
X92973801Y-75231652D01*
X93523159Y-78631388D02*
X91745072Y-76092017D01*
G04 #@! TO.C,R1*
X103566180Y-97819700D02*
X103566180Y-99319700D01*
X100466180Y-97819700D02*
X103566180Y-97819700D01*
X100466180Y-99319700D02*
X100466180Y-97819700D01*
X103566180Y-99319700D02*
X100466180Y-99319700D01*
G04 #@! TO.C,P1*
X105142800Y-77928000D02*
X105142800Y-81828000D01*
X105142800Y-81828000D02*
X98192800Y-81828000D01*
X98192800Y-81828000D02*
X98092800Y-81828000D01*
X98092800Y-81828000D02*
X98092800Y-77928000D01*
X98092800Y-77928000D02*
X98842800Y-77928000D01*
X98842800Y-77928000D02*
X98842800Y-79128000D01*
X98842800Y-79128000D02*
X104442800Y-79128000D01*
X104442800Y-79128000D02*
X104442800Y-77878000D01*
X104442800Y-77878000D02*
X105142800Y-77878000D01*
G04 #@! TO.C,C1*
X94566180Y-103174700D02*
X94566180Y-97774700D01*
X94566180Y-97774700D02*
X96766180Y-97774700D01*
X96766180Y-97774700D02*
X96766180Y-103174700D01*
X96766180Y-103174700D02*
X94616180Y-103174700D01*
G04 #@! TO.C,C2*
X86733200Y-90457000D02*
X86733200Y-85057000D01*
X86733200Y-85057000D02*
X88933200Y-85057000D01*
X88933200Y-85057000D02*
X88933200Y-90457000D01*
X88933200Y-90457000D02*
X86783200Y-90457000D01*
G04 #@! TO.C,Q1*
X99184120Y-93405360D02*
X99184120Y-96505360D01*
X99184120Y-96505360D02*
X96284120Y-96505360D01*
X96284120Y-96505360D02*
X96284120Y-93405360D01*
X96284120Y-93405360D02*
X99184120Y-93405360D01*
X98184120Y-96405360D02*
X98184120Y-96055360D01*
G04 #@! TO.C,Q2*
X103210580Y-103067700D02*
X100110580Y-103067700D01*
X100110580Y-103067700D02*
X100110580Y-100167700D01*
X100110580Y-100167700D02*
X103210580Y-100167700D01*
X103210580Y-100167700D02*
X103210580Y-103067700D01*
X100210580Y-102067700D02*
X100560580Y-102067700D01*
G04 #@! TO.C,Q3*
X102754980Y-93997100D02*
X102754980Y-97097100D01*
X102754980Y-97097100D02*
X99854980Y-97097100D01*
X99854980Y-97097100D02*
X99854980Y-93997100D01*
X99854980Y-93997100D02*
X102754980Y-93997100D01*
X101754980Y-96997100D02*
X101754980Y-96647100D01*
G04 #@! TO.C,R2*
X93920880Y-94263880D02*
X95420880Y-94263880D01*
X93920880Y-97363880D02*
X93920880Y-94263880D01*
X95420880Y-97363880D02*
X93920880Y-97363880D01*
X95420880Y-94263880D02*
X95420880Y-97363880D01*
G04 #@! TO.C,R3*
X104314180Y-99813700D02*
X105814180Y-99813700D01*
X104314180Y-102913700D02*
X104314180Y-99813700D01*
X105814180Y-102913700D02*
X104314180Y-102913700D01*
X105814180Y-99813700D02*
X105814180Y-102913700D01*
G04 #@! TO.C,P8*
X110026900Y-59693600D02*
X110026900Y-60693600D01*
X110026900Y-60693600D02*
X110226900Y-60493600D01*
X110026900Y-60693600D02*
X109826900Y-60493600D01*
X117226900Y-60693600D02*
X117426900Y-60493600D01*
X117226900Y-60693600D02*
X117026900Y-60493600D01*
X117226900Y-59693600D02*
X117226900Y-60693600D01*
X116826900Y-59693600D02*
X110426900Y-59693600D01*
X116826900Y-66493600D02*
X116826900Y-59693600D01*
X110426900Y-66493600D02*
X116826900Y-66493600D01*
X110426900Y-59693600D02*
X110426900Y-66493600D01*
G04 #@! TO.C,C6*
X91498400Y-70340400D02*
X86098400Y-70340400D01*
X86098400Y-70340400D02*
X86098400Y-68140400D01*
X86098400Y-68140400D02*
X91498400Y-68140400D01*
X91498400Y-68140400D02*
X91498400Y-70290400D01*
G04 #@! TO.C,C9*
X91498400Y-67724200D02*
X86098400Y-67724200D01*
X86098400Y-67724200D02*
X86098400Y-65524200D01*
X86098400Y-65524200D02*
X91498400Y-65524200D01*
X91498400Y-65524200D02*
X91498400Y-67674200D01*
G04 #@! TO.C,C10*
X99598280Y-97736600D02*
X99598280Y-103136600D01*
X99598280Y-103136600D02*
X97398280Y-103136600D01*
X97398280Y-103136600D02*
X97398280Y-97736600D01*
X97398280Y-97736600D02*
X99548280Y-97736600D01*
G04 #@! TO.C,L1*
X91369800Y-70647600D02*
G75*
G03X91369800Y-70647600I-200000J0D01*
G01*
X91369800Y-71047600D02*
X91369800Y-76647600D01*
X85769800Y-71047600D02*
X91369800Y-71047600D01*
X85769800Y-76647600D02*
X85769800Y-71047600D01*
X91369800Y-76647600D02*
X85769800Y-76647600D01*
G04 #@! TO.C,R4*
X93294800Y-87667400D02*
X93294800Y-89167400D01*
X90194800Y-87667400D02*
X93294800Y-87667400D01*
X90194800Y-89167400D02*
X90194800Y-87667400D01*
X93294800Y-89167400D02*
X90194800Y-89167400D01*
G04 #@! TO.C,R5*
X95339600Y-89992800D02*
X93839600Y-89992800D01*
X95339600Y-86892800D02*
X95339600Y-89992800D01*
X93839600Y-86892800D02*
X95339600Y-86892800D01*
X93839600Y-89992800D02*
X93839600Y-86892800D01*
G04 #@! TO.C,C3*
X88545100Y-84582600D02*
X87045100Y-84582600D01*
X88545100Y-81482600D02*
X88545100Y-84582600D01*
X87045100Y-81482600D02*
X88545100Y-81482600D01*
X87045100Y-84582600D02*
X87045100Y-81482600D01*
G04 #@! TO.C,C4*
X87032400Y-77469400D02*
X88532400Y-77469400D01*
X87032400Y-80569400D02*
X87032400Y-77469400D01*
X88532400Y-80569400D02*
X87032400Y-80569400D01*
X88532400Y-77469400D02*
X88532400Y-80569400D01*
G04 #@! TO.C,C7*
X90305000Y-91275600D02*
X90305000Y-89775600D01*
X93405000Y-91275600D02*
X90305000Y-91275600D01*
X93405000Y-89775600D02*
X93405000Y-91275600D01*
X90305000Y-89775600D02*
X93405000Y-89775600D01*
G04 #@! TO.C,C8*
X96584200Y-84303200D02*
X95084200Y-84303200D01*
X96584200Y-81203200D02*
X96584200Y-84303200D01*
X95084200Y-81203200D02*
X96584200Y-81203200D01*
X95084200Y-84303200D02*
X95084200Y-81203200D01*
G04 #@! TO.C,R6*
X96609600Y-80505900D02*
X95109600Y-80505900D01*
X96609600Y-77405900D02*
X96609600Y-80505900D01*
X95109600Y-77405900D02*
X96609600Y-77405900D01*
X95109600Y-80505900D02*
X95109600Y-77405900D01*
G04 #@! TO.C,F1*
X118500000Y-73400000D02*
X118500000Y-66000000D01*
X118500000Y-66000000D02*
X122350000Y-66000000D01*
X122350000Y-66000000D02*
X122350000Y-73400000D01*
X122350000Y-73400000D02*
X118500000Y-73400000D01*
G04 #@! TO.C,L3*
X111800000Y-73600000D02*
G75*
G03X111800000Y-73600000I-200000J0D01*
G01*
X111400000Y-73200000D02*
X111400000Y-67600000D01*
X117000000Y-73200000D02*
X111400000Y-73200000D01*
X117000000Y-67600000D02*
X117000000Y-73200000D01*
X111400000Y-67600000D02*
X117000000Y-67600000D01*
G04 #@! TO.C,R10*
X93416720Y-56574120D02*
X90316720Y-56574120D01*
X90316720Y-56574120D02*
X90316720Y-55074120D01*
X90316720Y-55074120D02*
X93416720Y-55074120D01*
X93416720Y-55074120D02*
X93416720Y-56574120D01*
G04 #@! TO.C,C20*
X109689200Y-79731560D02*
X111189200Y-79731560D01*
X109689200Y-82831560D02*
X109689200Y-79731560D01*
X111189200Y-82831560D02*
X109689200Y-82831560D01*
X111189200Y-79731560D02*
X111189200Y-82831560D01*
G04 #@! TO.C,C14*
D12*
X110857148Y-92659971D02*
X110880958Y-92683780D01*
X110952386Y-92707590D01*
X111000005Y-92707590D01*
X111071434Y-92683780D01*
X111119053Y-92636161D01*
X111142862Y-92588542D01*
X111166672Y-92493304D01*
X111166672Y-92421876D01*
X111142862Y-92326638D01*
X111119053Y-92279019D01*
X111071434Y-92231400D01*
X111000005Y-92207590D01*
X110952386Y-92207590D01*
X110880958Y-92231400D01*
X110857148Y-92255209D01*
X110380958Y-92707590D02*
X110666672Y-92707590D01*
X110523815Y-92707590D02*
X110523815Y-92207590D01*
X110571434Y-92279019D01*
X110619053Y-92326638D01*
X110666672Y-92350447D01*
X109952386Y-92374257D02*
X109952386Y-92707590D01*
X110071434Y-92183780D02*
X110190481Y-92540923D01*
X109880958Y-92540923D01*
G04 #@! TO.C,U2*
D11*
X122051984Y-91740740D02*
X122051984Y-92550264D01*
X122004365Y-92645502D01*
X121956746Y-92693121D01*
X121861508Y-92740740D01*
X121671032Y-92740740D01*
X121575794Y-92693121D01*
X121528175Y-92645502D01*
X121480556Y-92550264D01*
X121480556Y-91740740D01*
X121051984Y-91835979D02*
X121004365Y-91788360D01*
X120909127Y-91740740D01*
X120671032Y-91740740D01*
X120575794Y-91788360D01*
X120528175Y-91835979D01*
X120480556Y-91931217D01*
X120480556Y-92026455D01*
X120528175Y-92169312D01*
X121099603Y-92740740D01*
X120480556Y-92740740D01*
G04 #@! TO.C,D1*
D12*
X114846230Y-75134992D02*
X114346230Y-75134992D01*
X114346230Y-75254040D01*
X114370040Y-75325468D01*
X114417659Y-75373087D01*
X114465278Y-75396897D01*
X114560516Y-75420706D01*
X114631944Y-75420706D01*
X114727182Y-75396897D01*
X114774801Y-75373087D01*
X114822420Y-75325468D01*
X114846230Y-75254040D01*
X114846230Y-75134992D01*
X114846230Y-75896897D02*
X114846230Y-75611182D01*
X114846230Y-75754040D02*
X114346230Y-75754040D01*
X114417659Y-75706420D01*
X114465278Y-75658801D01*
X114489087Y-75611182D01*
G04 #@! TO.C,C19*
D13*
X112680251Y-82853411D02*
X112704060Y-82829601D01*
X112727870Y-82758173D01*
X112727870Y-82710554D01*
X112704060Y-82639125D01*
X112656441Y-82591506D01*
X112608822Y-82567697D01*
X112513584Y-82543887D01*
X112442156Y-82543887D01*
X112346918Y-82567697D01*
X112299299Y-82591506D01*
X112251680Y-82639125D01*
X112227870Y-82710554D01*
X112227870Y-82758173D01*
X112251680Y-82829601D01*
X112275489Y-82853411D01*
X112727870Y-83329601D02*
X112727870Y-83043887D01*
X112727870Y-83186744D02*
X112227870Y-83186744D01*
X112299299Y-83139125D01*
X112346918Y-83091506D01*
X112370727Y-83043887D01*
X112727870Y-83567697D02*
X112727870Y-83662935D01*
X112704060Y-83710554D01*
X112680251Y-83734363D01*
X112608822Y-83781982D01*
X112513584Y-83805792D01*
X112323108Y-83805792D01*
X112275489Y-83781982D01*
X112251680Y-83758173D01*
X112227870Y-83710554D01*
X112227870Y-83615316D01*
X112251680Y-83567697D01*
X112275489Y-83543887D01*
X112323108Y-83520078D01*
X112442156Y-83520078D01*
X112489775Y-83543887D01*
X112513584Y-83567697D01*
X112537394Y-83615316D01*
X112537394Y-83710554D01*
X112513584Y-83758173D01*
X112489775Y-83781982D01*
X112442156Y-83805792D01*
G04 #@! TO.C,P9*
D12*
X93341271Y-64314757D02*
X93941271Y-64314757D01*
X93941271Y-64086185D01*
X93912700Y-64029042D01*
X93884128Y-64000471D01*
X93826985Y-63971900D01*
X93741271Y-63971900D01*
X93684128Y-64000471D01*
X93655557Y-64029042D01*
X93626985Y-64086185D01*
X93626985Y-64314757D01*
X93341271Y-63686185D02*
X93341271Y-63571900D01*
X93369842Y-63514757D01*
X93398414Y-63486185D01*
X93484128Y-63429042D01*
X93598414Y-63400471D01*
X93826985Y-63400471D01*
X93884128Y-63429042D01*
X93912700Y-63457614D01*
X93941271Y-63514757D01*
X93941271Y-63629042D01*
X93912700Y-63686185D01*
X93884128Y-63714757D01*
X93826985Y-63743328D01*
X93684128Y-63743328D01*
X93626985Y-63714757D01*
X93598414Y-63686185D01*
X93569842Y-63629042D01*
X93569842Y-63514757D01*
X93598414Y-63457614D01*
X93626985Y-63429042D01*
X93684128Y-63400471D01*
G04 #@! TO.C,C16*
X121586108Y-87031331D02*
X121609918Y-87055140D01*
X121681346Y-87078950D01*
X121728965Y-87078950D01*
X121800394Y-87055140D01*
X121848013Y-87007521D01*
X121871822Y-86959902D01*
X121895632Y-86864664D01*
X121895632Y-86793236D01*
X121871822Y-86697998D01*
X121848013Y-86650379D01*
X121800394Y-86602760D01*
X121728965Y-86578950D01*
X121681346Y-86578950D01*
X121609918Y-86602760D01*
X121586108Y-86626569D01*
X121109918Y-87078950D02*
X121395632Y-87078950D01*
X121252775Y-87078950D02*
X121252775Y-86578950D01*
X121300394Y-86650379D01*
X121348013Y-86697998D01*
X121395632Y-86721807D01*
X120681346Y-86578950D02*
X120776584Y-86578950D01*
X120824203Y-86602760D01*
X120848013Y-86626569D01*
X120895632Y-86697998D01*
X120919441Y-86793236D01*
X120919441Y-86983712D01*
X120895632Y-87031331D01*
X120871822Y-87055140D01*
X120824203Y-87078950D01*
X120728965Y-87078950D01*
X120681346Y-87055140D01*
X120657537Y-87031331D01*
X120633727Y-86983712D01*
X120633727Y-86864664D01*
X120657537Y-86817045D01*
X120681346Y-86793236D01*
X120728965Y-86769426D01*
X120824203Y-86769426D01*
X120871822Y-86793236D01*
X120895632Y-86817045D01*
X120919441Y-86864664D01*
G04 #@! TO.C,C13*
X118919108Y-96215971D02*
X118942918Y-96239780D01*
X119014346Y-96263590D01*
X119061965Y-96263590D01*
X119133394Y-96239780D01*
X119181013Y-96192161D01*
X119204822Y-96144542D01*
X119228632Y-96049304D01*
X119228632Y-95977876D01*
X119204822Y-95882638D01*
X119181013Y-95835019D01*
X119133394Y-95787400D01*
X119061965Y-95763590D01*
X119014346Y-95763590D01*
X118942918Y-95787400D01*
X118919108Y-95811209D01*
X118442918Y-96263590D02*
X118728632Y-96263590D01*
X118585775Y-96263590D02*
X118585775Y-95763590D01*
X118633394Y-95835019D01*
X118681013Y-95882638D01*
X118728632Y-95906447D01*
X118276251Y-95763590D02*
X117966727Y-95763590D01*
X118133394Y-95954066D01*
X118061965Y-95954066D01*
X118014346Y-95977876D01*
X117990537Y-96001685D01*
X117966727Y-96049304D01*
X117966727Y-96168352D01*
X117990537Y-96215971D01*
X118014346Y-96239780D01*
X118061965Y-96263590D01*
X118204822Y-96263590D01*
X118252441Y-96239780D01*
X118276251Y-96215971D01*
G04 #@! TO.C,C12*
X123188231Y-89290751D02*
X123212040Y-89266941D01*
X123235850Y-89195513D01*
X123235850Y-89147894D01*
X123212040Y-89076465D01*
X123164421Y-89028846D01*
X123116802Y-89005037D01*
X123021564Y-88981227D01*
X122950136Y-88981227D01*
X122854898Y-89005037D01*
X122807279Y-89028846D01*
X122759660Y-89076465D01*
X122735850Y-89147894D01*
X122735850Y-89195513D01*
X122759660Y-89266941D01*
X122783469Y-89290751D01*
X123235850Y-89766941D02*
X123235850Y-89481227D01*
X123235850Y-89624084D02*
X122735850Y-89624084D01*
X122807279Y-89576465D01*
X122854898Y-89528846D01*
X122878707Y-89481227D01*
X122783469Y-89957418D02*
X122759660Y-89981227D01*
X122735850Y-90028846D01*
X122735850Y-90147894D01*
X122759660Y-90195513D01*
X122783469Y-90219322D01*
X122831088Y-90243132D01*
X122878707Y-90243132D01*
X122950136Y-90219322D01*
X123235850Y-89933608D01*
X123235850Y-90243132D01*
G04 #@! TO.C,C17*
X113879748Y-85807051D02*
X113903558Y-85830860D01*
X113974986Y-85854670D01*
X114022605Y-85854670D01*
X114094034Y-85830860D01*
X114141653Y-85783241D01*
X114165462Y-85735622D01*
X114189272Y-85640384D01*
X114189272Y-85568956D01*
X114165462Y-85473718D01*
X114141653Y-85426099D01*
X114094034Y-85378480D01*
X114022605Y-85354670D01*
X113974986Y-85354670D01*
X113903558Y-85378480D01*
X113879748Y-85402289D01*
X113403558Y-85854670D02*
X113689272Y-85854670D01*
X113546415Y-85854670D02*
X113546415Y-85354670D01*
X113594034Y-85426099D01*
X113641653Y-85473718D01*
X113689272Y-85497527D01*
X113236891Y-85354670D02*
X112903558Y-85354670D01*
X113117843Y-85854670D01*
G04 #@! TO.C,R9*
X110339653Y-90563830D02*
X110506320Y-90325735D01*
X110625367Y-90563830D02*
X110625367Y-90063830D01*
X110434891Y-90063830D01*
X110387272Y-90087640D01*
X110363462Y-90111449D01*
X110339653Y-90159068D01*
X110339653Y-90230497D01*
X110363462Y-90278116D01*
X110387272Y-90301925D01*
X110434891Y-90325735D01*
X110625367Y-90325735D01*
X110101558Y-90563830D02*
X110006320Y-90563830D01*
X109958700Y-90540020D01*
X109934891Y-90516211D01*
X109887272Y-90444782D01*
X109863462Y-90349544D01*
X109863462Y-90159068D01*
X109887272Y-90111449D01*
X109911081Y-90087640D01*
X109958700Y-90063830D01*
X110053939Y-90063830D01*
X110101558Y-90087640D01*
X110125367Y-90111449D01*
X110149177Y-90159068D01*
X110149177Y-90278116D01*
X110125367Y-90325735D01*
X110101558Y-90349544D01*
X110053939Y-90373354D01*
X109958700Y-90373354D01*
X109911081Y-90349544D01*
X109887272Y-90325735D01*
X109863462Y-90278116D01*
G04 #@! TO.C,L2*
D13*
X109354750Y-97653326D02*
X109354750Y-97415231D01*
X108854750Y-97415231D01*
X108902369Y-97796183D02*
X108878560Y-97819993D01*
X108854750Y-97867612D01*
X108854750Y-97986660D01*
X108878560Y-98034279D01*
X108902369Y-98058088D01*
X108949988Y-98081898D01*
X108997607Y-98081898D01*
X109069036Y-98058088D01*
X109354750Y-97772374D01*
X109354750Y-98081898D01*
G04 #@! TO.C,R8*
D12*
X110124109Y-87566013D02*
X110362204Y-87732680D01*
X110124109Y-87851727D02*
X110624109Y-87851727D01*
X110624109Y-87661251D01*
X110600300Y-87613632D01*
X110576490Y-87589822D01*
X110528871Y-87566013D01*
X110457442Y-87566013D01*
X110409823Y-87589822D01*
X110386014Y-87613632D01*
X110362204Y-87661251D01*
X110362204Y-87851727D01*
X110409823Y-87280299D02*
X110433633Y-87327918D01*
X110457442Y-87351727D01*
X110505061Y-87375537D01*
X110528871Y-87375537D01*
X110576490Y-87351727D01*
X110600300Y-87327918D01*
X110624109Y-87280299D01*
X110624109Y-87185060D01*
X110600300Y-87137441D01*
X110576490Y-87113632D01*
X110528871Y-87089822D01*
X110505061Y-87089822D01*
X110457442Y-87113632D01*
X110433633Y-87137441D01*
X110409823Y-87185060D01*
X110409823Y-87280299D01*
X110386014Y-87327918D01*
X110362204Y-87351727D01*
X110314585Y-87375537D01*
X110219347Y-87375537D01*
X110171728Y-87351727D01*
X110147919Y-87327918D01*
X110124109Y-87280299D01*
X110124109Y-87185060D01*
X110147919Y-87137441D01*
X110171728Y-87113632D01*
X110219347Y-87089822D01*
X110314585Y-87089822D01*
X110362204Y-87113632D01*
X110386014Y-87137441D01*
X110409823Y-87185060D01*
G04 #@! TO.C,C18*
D14*
X117072228Y-99962788D02*
X117096419Y-99938598D01*
X117120609Y-99866026D01*
X117120609Y-99817645D01*
X117096419Y-99745074D01*
X117048038Y-99696693D01*
X116999657Y-99672502D01*
X116902895Y-99648312D01*
X116830323Y-99648312D01*
X116733561Y-99672502D01*
X116685180Y-99696693D01*
X116636800Y-99745074D01*
X116612609Y-99817645D01*
X116612609Y-99866026D01*
X116636800Y-99938598D01*
X116660990Y-99962788D01*
X117120609Y-100446598D02*
X117120609Y-100156312D01*
X117120609Y-100301455D02*
X116612609Y-100301455D01*
X116685180Y-100253074D01*
X116733561Y-100204693D01*
X116757752Y-100156312D01*
X116830323Y-100736883D02*
X116806133Y-100688502D01*
X116781942Y-100664312D01*
X116733561Y-100640121D01*
X116709371Y-100640121D01*
X116660990Y-100664312D01*
X116636800Y-100688502D01*
X116612609Y-100736883D01*
X116612609Y-100833645D01*
X116636800Y-100882026D01*
X116660990Y-100906217D01*
X116709371Y-100930407D01*
X116733561Y-100930407D01*
X116781942Y-100906217D01*
X116806133Y-100882026D01*
X116830323Y-100833645D01*
X116830323Y-100736883D01*
X116854514Y-100688502D01*
X116878704Y-100664312D01*
X116927085Y-100640121D01*
X117023847Y-100640121D01*
X117072228Y-100664312D01*
X117096419Y-100688502D01*
X117120609Y-100736883D01*
X117120609Y-100833645D01*
X117096419Y-100882026D01*
X117072228Y-100906217D01*
X117023847Y-100930407D01*
X116927085Y-100930407D01*
X116878704Y-100906217D01*
X116854514Y-100882026D01*
X116830323Y-100833645D01*
G04 #@! TO.C,C15*
X116731868Y-102253868D02*
X116756059Y-102229678D01*
X116780249Y-102157106D01*
X116780249Y-102108725D01*
X116756059Y-102036154D01*
X116707678Y-101987773D01*
X116659297Y-101963582D01*
X116562535Y-101939392D01*
X116489963Y-101939392D01*
X116393201Y-101963582D01*
X116344820Y-101987773D01*
X116296440Y-102036154D01*
X116272249Y-102108725D01*
X116272249Y-102157106D01*
X116296440Y-102229678D01*
X116320630Y-102253868D01*
X116780249Y-102737678D02*
X116780249Y-102447392D01*
X116780249Y-102592535D02*
X116272249Y-102592535D01*
X116344820Y-102544154D01*
X116393201Y-102495773D01*
X116417392Y-102447392D01*
X116272249Y-103197297D02*
X116272249Y-102955392D01*
X116514154Y-102931201D01*
X116489963Y-102955392D01*
X116465773Y-103003773D01*
X116465773Y-103124725D01*
X116489963Y-103173106D01*
X116514154Y-103197297D01*
X116562535Y-103221487D01*
X116683487Y-103221487D01*
X116731868Y-103197297D01*
X116756059Y-103173106D01*
X116780249Y-103124725D01*
X116780249Y-103003773D01*
X116756059Y-102955392D01*
X116731868Y-102931201D01*
G04 #@! TO.C,C11*
X92777491Y-93628028D02*
X92801681Y-93652219D01*
X92874253Y-93676409D01*
X92922634Y-93676409D01*
X92995205Y-93652219D01*
X93043586Y-93603838D01*
X93067777Y-93555457D01*
X93091967Y-93458695D01*
X93091967Y-93386123D01*
X93067777Y-93289361D01*
X93043586Y-93240980D01*
X92995205Y-93192600D01*
X92922634Y-93168409D01*
X92874253Y-93168409D01*
X92801681Y-93192600D01*
X92777491Y-93216790D01*
X92293681Y-93676409D02*
X92583967Y-93676409D01*
X92438824Y-93676409D02*
X92438824Y-93168409D01*
X92487205Y-93240980D01*
X92535586Y-93289361D01*
X92583967Y-93313552D01*
X91809872Y-93676409D02*
X92100158Y-93676409D01*
X91955015Y-93676409D02*
X91955015Y-93168409D01*
X92003396Y-93240980D01*
X92051777Y-93289361D01*
X92100158Y-93313552D01*
G04 #@! TO.C,U1*
D11*
X96022064Y-84781140D02*
X96022064Y-85590664D01*
X95974445Y-85685902D01*
X95926826Y-85733521D01*
X95831588Y-85781140D01*
X95641112Y-85781140D01*
X95545874Y-85733521D01*
X95498255Y-85685902D01*
X95450636Y-85590664D01*
X95450636Y-84781140D01*
X94450636Y-85781140D02*
X95022064Y-85781140D01*
X94736350Y-85781140D02*
X94736350Y-84781140D01*
X94831588Y-84923998D01*
X94926826Y-85019236D01*
X95022064Y-85066855D01*
G04 #@! TO.C,C5*
D12*
X92248933Y-77733141D02*
X92243086Y-77766301D01*
X92264552Y-77838468D01*
X92291866Y-77877475D01*
X92352339Y-77922330D01*
X92418659Y-77934024D01*
X92471323Y-77926214D01*
X92562994Y-77891092D01*
X92621505Y-77850122D01*
X92685863Y-77775992D01*
X92711214Y-77729175D01*
X92722908Y-77662855D01*
X92701442Y-77590687D01*
X92674128Y-77551680D01*
X92613655Y-77506826D01*
X92580495Y-77500979D01*
X92360027Y-77103097D02*
X92496593Y-77298133D01*
X92315213Y-77454202D01*
X92321060Y-77421042D01*
X92313251Y-77368378D01*
X92244968Y-77270860D01*
X92198151Y-77245510D01*
X92164991Y-77239663D01*
X92112327Y-77247472D01*
X92014809Y-77315755D01*
X91989458Y-77362572D01*
X91983611Y-77395732D01*
X91991421Y-77448396D01*
X92059704Y-77545914D01*
X92106521Y-77571265D01*
X92139681Y-77577112D01*
G04 #@! TO.C,R1*
X104503350Y-98412786D02*
X104265255Y-98246120D01*
X104503350Y-98127072D02*
X104003350Y-98127072D01*
X104003350Y-98317548D01*
X104027160Y-98365167D01*
X104050969Y-98388977D01*
X104098588Y-98412786D01*
X104170017Y-98412786D01*
X104217636Y-98388977D01*
X104241445Y-98365167D01*
X104265255Y-98317548D01*
X104265255Y-98127072D01*
X104503350Y-98888977D02*
X104503350Y-98603262D01*
X104503350Y-98746120D02*
X104003350Y-98746120D01*
X104074779Y-98698500D01*
X104122398Y-98650881D01*
X104146207Y-98603262D01*
G04 #@! TO.C,P1*
D14*
X102017752Y-82607809D02*
X102017752Y-82099809D01*
X101824228Y-82099809D01*
X101775847Y-82124000D01*
X101751657Y-82148190D01*
X101727466Y-82196571D01*
X101727466Y-82269142D01*
X101751657Y-82317523D01*
X101775847Y-82341714D01*
X101824228Y-82365904D01*
X102017752Y-82365904D01*
X101243657Y-82607809D02*
X101533942Y-82607809D01*
X101388800Y-82607809D02*
X101388800Y-82099809D01*
X101437180Y-82172380D01*
X101485561Y-82220761D01*
X101533942Y-82244952D01*
G04 #@! TO.C,C1*
X95469891Y-103960506D02*
X95445700Y-103984697D01*
X95421510Y-104057268D01*
X95421510Y-104105649D01*
X95445700Y-104178220D01*
X95494081Y-104226601D01*
X95542462Y-104250792D01*
X95639224Y-104274982D01*
X95711796Y-104274982D01*
X95808558Y-104250792D01*
X95856939Y-104226601D01*
X95905320Y-104178220D01*
X95929510Y-104105649D01*
X95929510Y-104057268D01*
X95905320Y-103984697D01*
X95881129Y-103960506D01*
X95421510Y-103476697D02*
X95421510Y-103766982D01*
X95421510Y-103621840D02*
X95929510Y-103621840D01*
X95856939Y-103670220D01*
X95808558Y-103718601D01*
X95784367Y-103766982D01*
G04 #@! TO.C,C2*
X86051771Y-87841666D02*
X86027580Y-87865857D01*
X86003390Y-87938428D01*
X86003390Y-87986809D01*
X86027580Y-88059380D01*
X86075961Y-88107761D01*
X86124342Y-88131952D01*
X86221104Y-88156142D01*
X86293676Y-88156142D01*
X86390438Y-88131952D01*
X86438819Y-88107761D01*
X86487200Y-88059380D01*
X86511390Y-87986809D01*
X86511390Y-87938428D01*
X86487200Y-87865857D01*
X86463009Y-87841666D01*
X86463009Y-87648142D02*
X86487200Y-87623952D01*
X86511390Y-87575571D01*
X86511390Y-87454619D01*
X86487200Y-87406238D01*
X86463009Y-87382047D01*
X86414628Y-87357857D01*
X86366247Y-87357857D01*
X86293676Y-87382047D01*
X86003390Y-87672333D01*
X86003390Y-87357857D01*
G04 #@! TO.C,Q1*
D12*
X96107929Y-94657740D02*
X96084120Y-94610121D01*
X96036500Y-94562502D01*
X95965072Y-94491074D01*
X95941262Y-94443455D01*
X95941262Y-94395836D01*
X96060310Y-94419645D02*
X96036500Y-94372026D01*
X95988881Y-94324407D01*
X95893643Y-94300598D01*
X95726977Y-94300598D01*
X95631739Y-94324407D01*
X95584120Y-94372026D01*
X95560310Y-94419645D01*
X95560310Y-94514883D01*
X95584120Y-94562502D01*
X95631739Y-94610121D01*
X95726977Y-94633931D01*
X95893643Y-94633931D01*
X95988881Y-94610121D01*
X96036500Y-94562502D01*
X96060310Y-94514883D01*
X96060310Y-94419645D01*
X96060310Y-95110121D02*
X96060310Y-94824407D01*
X96060310Y-94967264D02*
X95560310Y-94967264D01*
X95631739Y-94919645D01*
X95679358Y-94872026D01*
X95703167Y-94824407D01*
G04 #@! TO.C,Q2*
X101779699Y-104220769D02*
X101827318Y-104196960D01*
X101874937Y-104149340D01*
X101946365Y-104077912D01*
X101993984Y-104054102D01*
X102041603Y-104054102D01*
X102017794Y-104173150D02*
X102065413Y-104149340D01*
X102113032Y-104101721D01*
X102136841Y-104006483D01*
X102136841Y-103839817D01*
X102113032Y-103744579D01*
X102065413Y-103696960D01*
X102017794Y-103673150D01*
X101922556Y-103673150D01*
X101874937Y-103696960D01*
X101827318Y-103744579D01*
X101803508Y-103839817D01*
X101803508Y-104006483D01*
X101827318Y-104101721D01*
X101874937Y-104149340D01*
X101922556Y-104173150D01*
X102017794Y-104173150D01*
X101613032Y-103720769D02*
X101589222Y-103696960D01*
X101541603Y-103673150D01*
X101422556Y-103673150D01*
X101374937Y-103696960D01*
X101351127Y-103720769D01*
X101327318Y-103768388D01*
X101327318Y-103816007D01*
X101351127Y-103887436D01*
X101636841Y-104173150D01*
X101327318Y-104173150D01*
G04 #@! TO.C,Q3*
X103575609Y-95334460D02*
X103551800Y-95286841D01*
X103504180Y-95239222D01*
X103432752Y-95167794D01*
X103408942Y-95120175D01*
X103408942Y-95072556D01*
X103527990Y-95096365D02*
X103504180Y-95048746D01*
X103456561Y-95001127D01*
X103361323Y-94977318D01*
X103194657Y-94977318D01*
X103099419Y-95001127D01*
X103051800Y-95048746D01*
X103027990Y-95096365D01*
X103027990Y-95191603D01*
X103051800Y-95239222D01*
X103099419Y-95286841D01*
X103194657Y-95310651D01*
X103361323Y-95310651D01*
X103456561Y-95286841D01*
X103504180Y-95239222D01*
X103527990Y-95191603D01*
X103527990Y-95096365D01*
X103027990Y-95477318D02*
X103027990Y-95786841D01*
X103218466Y-95620175D01*
X103218466Y-95691603D01*
X103242276Y-95739222D01*
X103266085Y-95763032D01*
X103313704Y-95786841D01*
X103432752Y-95786841D01*
X103480371Y-95763032D01*
X103504180Y-95739222D01*
X103527990Y-95691603D01*
X103527990Y-95548746D01*
X103504180Y-95501127D01*
X103480371Y-95477318D01*
G04 #@! TO.C,R2*
X93718890Y-95768726D02*
X93480795Y-95602060D01*
X93718890Y-95483012D02*
X93218890Y-95483012D01*
X93218890Y-95673488D01*
X93242700Y-95721107D01*
X93266509Y-95744917D01*
X93314128Y-95768726D01*
X93385557Y-95768726D01*
X93433176Y-95744917D01*
X93456985Y-95721107D01*
X93480795Y-95673488D01*
X93480795Y-95483012D01*
X93266509Y-95959202D02*
X93242700Y-95983012D01*
X93218890Y-96030631D01*
X93218890Y-96149679D01*
X93242700Y-96197298D01*
X93266509Y-96221107D01*
X93314128Y-96244917D01*
X93361747Y-96244917D01*
X93433176Y-96221107D01*
X93718890Y-95935393D01*
X93718890Y-96244917D01*
G04 #@! TO.C,R3*
X106390370Y-101280366D02*
X106152275Y-101113700D01*
X106390370Y-100994652D02*
X105890370Y-100994652D01*
X105890370Y-101185128D01*
X105914180Y-101232747D01*
X105937989Y-101256557D01*
X105985608Y-101280366D01*
X106057037Y-101280366D01*
X106104656Y-101256557D01*
X106128465Y-101232747D01*
X106152275Y-101185128D01*
X106152275Y-100994652D01*
X105890370Y-101447033D02*
X105890370Y-101756557D01*
X106080846Y-101589890D01*
X106080846Y-101661319D01*
X106104656Y-101708938D01*
X106128465Y-101732747D01*
X106176084Y-101756557D01*
X106295132Y-101756557D01*
X106342751Y-101732747D01*
X106366560Y-101708938D01*
X106390370Y-101661319D01*
X106390370Y-101518461D01*
X106366560Y-101470842D01*
X106342751Y-101447033D01*
G04 #@! TO.C,P8*
X110275914Y-64664771D02*
X109513914Y-64664771D01*
X109513914Y-64955057D01*
X109550200Y-65027628D01*
X109586485Y-65063914D01*
X109659057Y-65100200D01*
X109767914Y-65100200D01*
X109840485Y-65063914D01*
X109876771Y-65027628D01*
X109913057Y-64955057D01*
X109913057Y-64664771D01*
X109840485Y-65535628D02*
X109804200Y-65463057D01*
X109767914Y-65426771D01*
X109695342Y-65390485D01*
X109659057Y-65390485D01*
X109586485Y-65426771D01*
X109550200Y-65463057D01*
X109513914Y-65535628D01*
X109513914Y-65680771D01*
X109550200Y-65753342D01*
X109586485Y-65789628D01*
X109659057Y-65825914D01*
X109695342Y-65825914D01*
X109767914Y-65789628D01*
X109804200Y-65753342D01*
X109840485Y-65680771D01*
X109840485Y-65535628D01*
X109876771Y-65463057D01*
X109913057Y-65426771D01*
X109985628Y-65390485D01*
X110130771Y-65390485D01*
X110203342Y-65426771D01*
X110239628Y-65463057D01*
X110275914Y-65535628D01*
X110275914Y-65680771D01*
X110239628Y-65753342D01*
X110203342Y-65789628D01*
X110130771Y-65825914D01*
X109985628Y-65825914D01*
X109913057Y-65789628D01*
X109876771Y-65753342D01*
X109840485Y-65680771D01*
G04 #@! TO.C,C6*
D14*
X92276506Y-68517588D02*
X92300697Y-68541779D01*
X92373268Y-68565969D01*
X92421649Y-68565969D01*
X92494220Y-68541779D01*
X92542601Y-68493398D01*
X92566792Y-68445017D01*
X92590982Y-68348255D01*
X92590982Y-68275683D01*
X92566792Y-68178921D01*
X92542601Y-68130540D01*
X92494220Y-68082160D01*
X92421649Y-68057969D01*
X92373268Y-68057969D01*
X92300697Y-68082160D01*
X92276506Y-68106350D01*
X91841078Y-68057969D02*
X91937840Y-68057969D01*
X91986220Y-68082160D01*
X92010411Y-68106350D01*
X92058792Y-68178921D01*
X92082982Y-68275683D01*
X92082982Y-68469207D01*
X92058792Y-68517588D01*
X92034601Y-68541779D01*
X91986220Y-68565969D01*
X91889459Y-68565969D01*
X91841078Y-68541779D01*
X91816887Y-68517588D01*
X91792697Y-68469207D01*
X91792697Y-68348255D01*
X91816887Y-68299874D01*
X91841078Y-68275683D01*
X91889459Y-68251493D01*
X91986220Y-68251493D01*
X92034601Y-68275683D01*
X92058792Y-68299874D01*
X92082982Y-68348255D01*
G04 #@! TO.C,C9*
X86912026Y-65169868D02*
X86936217Y-65194059D01*
X87008788Y-65218249D01*
X87057169Y-65218249D01*
X87129740Y-65194059D01*
X87178121Y-65145678D01*
X87202312Y-65097297D01*
X87226502Y-65000535D01*
X87226502Y-64927963D01*
X87202312Y-64831201D01*
X87178121Y-64782820D01*
X87129740Y-64734440D01*
X87057169Y-64710249D01*
X87008788Y-64710249D01*
X86936217Y-64734440D01*
X86912026Y-64758630D01*
X86670121Y-65218249D02*
X86573360Y-65218249D01*
X86524979Y-65194059D01*
X86500788Y-65169868D01*
X86452407Y-65097297D01*
X86428217Y-65000535D01*
X86428217Y-64807011D01*
X86452407Y-64758630D01*
X86476598Y-64734440D01*
X86524979Y-64710249D01*
X86621740Y-64710249D01*
X86670121Y-64734440D01*
X86694312Y-64758630D01*
X86718502Y-64807011D01*
X86718502Y-64927963D01*
X86694312Y-64976344D01*
X86670121Y-65000535D01*
X86621740Y-65024725D01*
X86524979Y-65024725D01*
X86476598Y-65000535D01*
X86452407Y-64976344D01*
X86428217Y-64927963D01*
G04 #@! TO.C,C10*
D15*
X98477614Y-103669374D02*
X98498176Y-103648812D01*
X98518738Y-103587126D01*
X98518738Y-103546002D01*
X98498176Y-103484317D01*
X98457052Y-103443193D01*
X98415928Y-103422631D01*
X98333680Y-103402069D01*
X98271995Y-103402069D01*
X98189747Y-103422631D01*
X98148623Y-103443193D01*
X98107500Y-103484317D01*
X98086938Y-103546002D01*
X98086938Y-103587126D01*
X98107500Y-103648812D01*
X98128061Y-103669374D01*
X98518738Y-104080612D02*
X98518738Y-103833869D01*
X98518738Y-103957240D02*
X98086938Y-103957240D01*
X98148623Y-103916117D01*
X98189747Y-103874993D01*
X98210309Y-103833869D01*
X98086938Y-104347917D02*
X98086938Y-104389040D01*
X98107500Y-104430164D01*
X98128061Y-104450726D01*
X98169185Y-104471288D01*
X98251433Y-104491850D01*
X98354242Y-104491850D01*
X98436490Y-104471288D01*
X98477614Y-104450726D01*
X98498176Y-104430164D01*
X98518738Y-104389040D01*
X98518738Y-104347917D01*
X98498176Y-104306793D01*
X98477614Y-104286231D01*
X98436490Y-104265669D01*
X98354242Y-104245107D01*
X98251433Y-104245107D01*
X98169185Y-104265669D01*
X98128061Y-104286231D01*
X98107500Y-104306793D01*
X98086938Y-104347917D01*
G04 #@! TO.C,L1*
D13*
X92056733Y-72590790D02*
X92294828Y-72590790D01*
X92294828Y-72090790D01*
X91628161Y-72590790D02*
X91913876Y-72590790D01*
X91771019Y-72590790D02*
X91771019Y-72090790D01*
X91818638Y-72162219D01*
X91866257Y-72209838D01*
X91913876Y-72233647D01*
G04 #@! TO.C,R4*
D12*
X93225133Y-87287230D02*
X93391800Y-87049135D01*
X93510847Y-87287230D02*
X93510847Y-86787230D01*
X93320371Y-86787230D01*
X93272752Y-86811040D01*
X93248942Y-86834849D01*
X93225133Y-86882468D01*
X93225133Y-86953897D01*
X93248942Y-87001516D01*
X93272752Y-87025325D01*
X93320371Y-87049135D01*
X93510847Y-87049135D01*
X92796561Y-86953897D02*
X92796561Y-87287230D01*
X92915609Y-86763420D02*
X93034657Y-87120563D01*
X92725133Y-87120563D01*
G04 #@! TO.C,R5*
X95740089Y-88480413D02*
X95978184Y-88647080D01*
X95740089Y-88766127D02*
X96240089Y-88766127D01*
X96240089Y-88575651D01*
X96216280Y-88528032D01*
X96192470Y-88504222D01*
X96144851Y-88480413D01*
X96073422Y-88480413D01*
X96025803Y-88504222D01*
X96001994Y-88528032D01*
X95978184Y-88575651D01*
X95978184Y-88766127D01*
X96240089Y-88028032D02*
X96240089Y-88266127D01*
X96001994Y-88289937D01*
X96025803Y-88266127D01*
X96049613Y-88218508D01*
X96049613Y-88099460D01*
X96025803Y-88051841D01*
X96001994Y-88028032D01*
X95954375Y-88004222D01*
X95835327Y-88004222D01*
X95787708Y-88028032D01*
X95763899Y-88051841D01*
X95740089Y-88099460D01*
X95740089Y-88218508D01*
X95763899Y-88266127D01*
X95787708Y-88289937D01*
G04 #@! TO.C,C3*
X86333828Y-83128633D02*
X86310019Y-83152442D01*
X86286209Y-83223871D01*
X86286209Y-83271490D01*
X86310019Y-83342919D01*
X86357638Y-83390538D01*
X86405257Y-83414347D01*
X86500495Y-83438157D01*
X86571923Y-83438157D01*
X86667161Y-83414347D01*
X86714780Y-83390538D01*
X86762400Y-83342919D01*
X86786209Y-83271490D01*
X86786209Y-83223871D01*
X86762400Y-83152442D01*
X86738590Y-83128633D01*
X86786209Y-82961966D02*
X86786209Y-82652442D01*
X86595733Y-82819109D01*
X86595733Y-82747680D01*
X86571923Y-82700061D01*
X86548114Y-82676252D01*
X86500495Y-82652442D01*
X86381447Y-82652442D01*
X86333828Y-82676252D01*
X86310019Y-82700061D01*
X86286209Y-82747680D01*
X86286209Y-82890538D01*
X86310019Y-82938157D01*
X86333828Y-82961966D01*
G04 #@! TO.C,C4*
X86703671Y-79812366D02*
X86727480Y-79788557D01*
X86751290Y-79717128D01*
X86751290Y-79669509D01*
X86727480Y-79598080D01*
X86679861Y-79550461D01*
X86632242Y-79526652D01*
X86537004Y-79502842D01*
X86465576Y-79502842D01*
X86370338Y-79526652D01*
X86322719Y-79550461D01*
X86275100Y-79598080D01*
X86251290Y-79669509D01*
X86251290Y-79717128D01*
X86275100Y-79788557D01*
X86298909Y-79812366D01*
X86417957Y-80240938D02*
X86751290Y-80240938D01*
X86227480Y-80121890D02*
X86584623Y-80002842D01*
X86584623Y-80312366D01*
G04 #@! TO.C,C7*
X94088733Y-91552531D02*
X94112542Y-91576340D01*
X94183971Y-91600150D01*
X94231590Y-91600150D01*
X94303019Y-91576340D01*
X94350638Y-91528721D01*
X94374447Y-91481102D01*
X94398257Y-91385864D01*
X94398257Y-91314436D01*
X94374447Y-91219198D01*
X94350638Y-91171579D01*
X94303019Y-91123960D01*
X94231590Y-91100150D01*
X94183971Y-91100150D01*
X94112542Y-91123960D01*
X94088733Y-91147769D01*
X93922066Y-91100150D02*
X93588733Y-91100150D01*
X93803019Y-91600150D01*
G04 #@! TO.C,C8*
X96951028Y-82595233D02*
X96927219Y-82619042D01*
X96903409Y-82690471D01*
X96903409Y-82738090D01*
X96927219Y-82809519D01*
X96974838Y-82857138D01*
X97022457Y-82880947D01*
X97117695Y-82904757D01*
X97189123Y-82904757D01*
X97284361Y-82880947D01*
X97331980Y-82857138D01*
X97379600Y-82809519D01*
X97403409Y-82738090D01*
X97403409Y-82690471D01*
X97379600Y-82619042D01*
X97355790Y-82595233D01*
X97189123Y-82309519D02*
X97212933Y-82357138D01*
X97236742Y-82380947D01*
X97284361Y-82404757D01*
X97308171Y-82404757D01*
X97355790Y-82380947D01*
X97379600Y-82357138D01*
X97403409Y-82309519D01*
X97403409Y-82214280D01*
X97379600Y-82166661D01*
X97355790Y-82142852D01*
X97308171Y-82119042D01*
X97284361Y-82119042D01*
X97236742Y-82142852D01*
X97212933Y-82166661D01*
X97189123Y-82214280D01*
X97189123Y-82309519D01*
X97165314Y-82357138D01*
X97141504Y-82380947D01*
X97093885Y-82404757D01*
X96998647Y-82404757D01*
X96951028Y-82380947D01*
X96927219Y-82357138D01*
X96903409Y-82309519D01*
X96903409Y-82214280D01*
X96927219Y-82166661D01*
X96951028Y-82142852D01*
X96998647Y-82119042D01*
X97093885Y-82119042D01*
X97141504Y-82142852D01*
X97165314Y-82166661D01*
X97189123Y-82214280D01*
G04 #@! TO.C,R6*
X94388809Y-79026533D02*
X94626904Y-79193200D01*
X94388809Y-79312247D02*
X94888809Y-79312247D01*
X94888809Y-79121771D01*
X94865000Y-79074152D01*
X94841190Y-79050342D01*
X94793571Y-79026533D01*
X94722142Y-79026533D01*
X94674523Y-79050342D01*
X94650714Y-79074152D01*
X94626904Y-79121771D01*
X94626904Y-79312247D01*
X94888809Y-78597961D02*
X94888809Y-78693200D01*
X94865000Y-78740819D01*
X94841190Y-78764628D01*
X94769761Y-78812247D01*
X94674523Y-78836057D01*
X94484047Y-78836057D01*
X94436428Y-78812247D01*
X94412619Y-78788438D01*
X94388809Y-78740819D01*
X94388809Y-78645580D01*
X94412619Y-78597961D01*
X94436428Y-78574152D01*
X94484047Y-78550342D01*
X94603095Y-78550342D01*
X94650714Y-78574152D01*
X94674523Y-78597961D01*
X94698333Y-78645580D01*
X94698333Y-78740819D01*
X94674523Y-78788438D01*
X94650714Y-78812247D01*
X94603095Y-78836057D01*
G04 #@! TO.C,F1*
D14*
X117786285Y-70019333D02*
X117786285Y-70188666D01*
X117520190Y-70188666D02*
X118028190Y-70188666D01*
X118028190Y-69946761D01*
X117520190Y-69487142D02*
X117520190Y-69777428D01*
X117520190Y-69632285D02*
X118028190Y-69632285D01*
X117955619Y-69680666D01*
X117907238Y-69729047D01*
X117883047Y-69777428D01*
G04 #@! TO.C,L3*
D13*
X110867973Y-68272790D02*
X111106068Y-68272790D01*
X111106068Y-67772790D01*
X110748925Y-67772790D02*
X110439401Y-67772790D01*
X110606068Y-67963266D01*
X110534640Y-67963266D01*
X110487020Y-67987076D01*
X110463211Y-68010885D01*
X110439401Y-68058504D01*
X110439401Y-68177552D01*
X110463211Y-68225171D01*
X110487020Y-68248980D01*
X110534640Y-68272790D01*
X110677497Y-68272790D01*
X110725116Y-68248980D01*
X110748925Y-68225171D01*
G04 #@! TO.C,R10*
D12*
X92188148Y-57150310D02*
X92354815Y-56912215D01*
X92473862Y-57150310D02*
X92473862Y-56650310D01*
X92283386Y-56650310D01*
X92235767Y-56674120D01*
X92211958Y-56697929D01*
X92188148Y-56745548D01*
X92188148Y-56816977D01*
X92211958Y-56864596D01*
X92235767Y-56888405D01*
X92283386Y-56912215D01*
X92473862Y-56912215D01*
X91711958Y-57150310D02*
X91997672Y-57150310D01*
X91854815Y-57150310D02*
X91854815Y-56650310D01*
X91902434Y-56721739D01*
X91950053Y-56769358D01*
X91997672Y-56793167D01*
X91402434Y-56650310D02*
X91354815Y-56650310D01*
X91307196Y-56674120D01*
X91283386Y-56697929D01*
X91259577Y-56745548D01*
X91235767Y-56840786D01*
X91235767Y-56959834D01*
X91259577Y-57055072D01*
X91283386Y-57102691D01*
X91307196Y-57126500D01*
X91354815Y-57150310D01*
X91402434Y-57150310D01*
X91450053Y-57126500D01*
X91473862Y-57102691D01*
X91497672Y-57055072D01*
X91521481Y-56959834D01*
X91521481Y-56840786D01*
X91497672Y-56745548D01*
X91473862Y-56697929D01*
X91450053Y-56674120D01*
X91402434Y-56650310D01*
G04 #@! TO.C,C20*
X111717771Y-80960131D02*
X111741580Y-80936321D01*
X111765390Y-80864893D01*
X111765390Y-80817274D01*
X111741580Y-80745845D01*
X111693961Y-80698226D01*
X111646342Y-80674417D01*
X111551104Y-80650607D01*
X111479676Y-80650607D01*
X111384438Y-80674417D01*
X111336819Y-80698226D01*
X111289200Y-80745845D01*
X111265390Y-80817274D01*
X111265390Y-80864893D01*
X111289200Y-80936321D01*
X111313009Y-80960131D01*
X111313009Y-81150607D02*
X111289200Y-81174417D01*
X111265390Y-81222036D01*
X111265390Y-81341083D01*
X111289200Y-81388702D01*
X111313009Y-81412512D01*
X111360628Y-81436321D01*
X111408247Y-81436321D01*
X111479676Y-81412512D01*
X111765390Y-81126798D01*
X111765390Y-81436321D01*
X111265390Y-81745845D02*
X111265390Y-81793464D01*
X111289200Y-81841083D01*
X111313009Y-81864893D01*
X111360628Y-81888702D01*
X111455866Y-81912512D01*
X111574914Y-81912512D01*
X111670152Y-81888702D01*
X111717771Y-81864893D01*
X111741580Y-81841083D01*
X111765390Y-81793464D01*
X111765390Y-81745845D01*
X111741580Y-81698226D01*
X111717771Y-81674417D01*
X111670152Y-81650607D01*
X111574914Y-81626798D01*
X111455866Y-81626798D01*
X111360628Y-81650607D01*
X111313009Y-81674417D01*
X111289200Y-81698226D01*
X111265390Y-81745845D01*
G04 #@! TD*
M02*
