G04 #@! TF.GenerationSoftware,KiCad,Pcbnew,(5.0.1)-4*
G04 #@! TF.CreationDate,2018-12-06T20:38:25-05:00*
G04 #@! TF.ProjectId,TrafMasterV1,547261664D617374657256312E6B6963,V1*
G04 #@! TF.SameCoordinates,Original*
G04 #@! TF.FileFunction,Soldermask,Bot*
G04 #@! TF.FilePolarity,Negative*
%FSLAX46Y46*%
G04 Gerber Fmt 4.6, Leading zero omitted, Abs format (unit mm)*
G04 Created by KiCad (PCBNEW (5.0.1)-4) date 12/6/2018 8:38:25 PM*
%MOMM*%
%LPD*%
G01*
G04 APERTURE LIST*
%ADD10C,0.150000*%
G04 APERTURE END LIST*
D10*
G36*
X109507200Y-104061160D02*
X107307200Y-104061160D01*
X107307200Y-102461160D01*
X109507200Y-102461160D01*
X109507200Y-104061160D01*
X109507200Y-104061160D01*
G37*
G36*
X115575080Y-103817420D02*
X114051080Y-103817420D01*
X114051080Y-101912420D01*
X115575080Y-101912420D01*
X115575080Y-103817420D01*
X115575080Y-103817420D01*
G37*
G36*
X112019080Y-103817420D02*
X110495080Y-103817420D01*
X110495080Y-101912420D01*
X112019080Y-101912420D01*
X112019080Y-103817420D01*
X112019080Y-103817420D01*
G37*
G36*
X96618680Y-103014700D02*
X94713680Y-103014700D01*
X94713680Y-101490700D01*
X96618680Y-101490700D01*
X96618680Y-103014700D01*
X96618680Y-103014700D01*
G37*
G36*
X99450780Y-102976600D02*
X97545780Y-102976600D01*
X97545780Y-101452600D01*
X99450780Y-101452600D01*
X99450780Y-102976600D01*
X99450780Y-102976600D01*
G37*
G36*
X101110580Y-102967700D02*
X100210580Y-102967700D01*
X100210580Y-102167700D01*
X101110580Y-102167700D01*
X101110580Y-102967700D01*
X101110580Y-102967700D01*
G37*
G36*
X105689180Y-102863700D02*
X104439180Y-102863700D01*
X104439180Y-101963700D01*
X105689180Y-101963700D01*
X105689180Y-102863700D01*
X105689180Y-102863700D01*
G37*
G36*
X89140889Y-100587629D02*
X89322878Y-100663011D01*
X89486663Y-100772449D01*
X89625951Y-100911737D01*
X89735389Y-101075522D01*
X89810771Y-101257511D01*
X89849200Y-101450709D01*
X89849200Y-101647691D01*
X89810771Y-101840889D01*
X89735389Y-102022878D01*
X89625951Y-102186663D01*
X89486663Y-102325951D01*
X89322878Y-102435389D01*
X89140889Y-102510771D01*
X88947691Y-102549200D01*
X88750709Y-102549200D01*
X88557511Y-102510771D01*
X88375522Y-102435389D01*
X88211737Y-102325951D01*
X88072449Y-102186663D01*
X87963011Y-102022878D01*
X87887629Y-101840889D01*
X87849200Y-101647691D01*
X87849200Y-101450709D01*
X87887629Y-101257511D01*
X87963011Y-101075522D01*
X88072449Y-100911737D01*
X88211737Y-100772449D01*
X88375522Y-100663011D01*
X88557511Y-100587629D01*
X88750709Y-100549200D01*
X88947691Y-100549200D01*
X89140889Y-100587629D01*
X89140889Y-100587629D01*
G37*
G36*
X120128889Y-100587629D02*
X120310878Y-100663011D01*
X120474663Y-100772449D01*
X120613951Y-100911737D01*
X120723389Y-101075522D01*
X120798771Y-101257511D01*
X120837200Y-101450709D01*
X120837200Y-101647691D01*
X120798771Y-101840889D01*
X120723389Y-102022878D01*
X120613951Y-102186663D01*
X120474663Y-102325951D01*
X120310878Y-102435389D01*
X120128889Y-102510771D01*
X119935691Y-102549200D01*
X119738709Y-102549200D01*
X119545511Y-102510771D01*
X119363522Y-102435389D01*
X119199737Y-102325951D01*
X119060449Y-102186663D01*
X118951011Y-102022878D01*
X118875629Y-101840889D01*
X118837200Y-101647691D01*
X118837200Y-101450709D01*
X118875629Y-101257511D01*
X118951011Y-101075522D01*
X119060449Y-100911737D01*
X119199737Y-100772449D01*
X119363522Y-100663011D01*
X119545511Y-100587629D01*
X119738709Y-100549200D01*
X119935691Y-100549200D01*
X120128889Y-100587629D01*
X120128889Y-100587629D01*
G37*
G36*
X103110580Y-102017700D02*
X102210580Y-102017700D01*
X102210580Y-101217700D01*
X103110580Y-101217700D01*
X103110580Y-102017700D01*
X103110580Y-102017700D01*
G37*
G36*
X109507200Y-101521160D02*
X107307200Y-101521160D01*
X107307200Y-99921160D01*
X109507200Y-99921160D01*
X109507200Y-101521160D01*
X109507200Y-101521160D01*
G37*
G36*
X115534440Y-101196140D02*
X114010440Y-101196140D01*
X114010440Y-99291140D01*
X115534440Y-99291140D01*
X115534440Y-101196140D01*
X115534440Y-101196140D01*
G37*
G36*
X111978440Y-101196140D02*
X110454440Y-101196140D01*
X110454440Y-99291140D01*
X111978440Y-99291140D01*
X111978440Y-101196140D01*
X111978440Y-101196140D01*
G37*
G36*
X101110580Y-101067700D02*
X100210580Y-101067700D01*
X100210580Y-100267700D01*
X101110580Y-100267700D01*
X101110580Y-101067700D01*
X101110580Y-101067700D01*
G37*
G36*
X105689180Y-100763700D02*
X104439180Y-100763700D01*
X104439180Y-99863700D01*
X105689180Y-99863700D01*
X105689180Y-100763700D01*
X105689180Y-100763700D01*
G37*
G36*
X96618680Y-99458700D02*
X94713680Y-99458700D01*
X94713680Y-97934700D01*
X96618680Y-97934700D01*
X96618680Y-99458700D01*
X96618680Y-99458700D01*
G37*
G36*
X99450780Y-99420600D02*
X97545780Y-99420600D01*
X97545780Y-97896600D01*
X99450780Y-97896600D01*
X99450780Y-99420600D01*
X99450780Y-99420600D01*
G37*
G36*
X103516180Y-99194700D02*
X102616180Y-99194700D01*
X102616180Y-97944700D01*
X103516180Y-97944700D01*
X103516180Y-99194700D01*
X103516180Y-99194700D01*
G37*
G36*
X101416180Y-99194700D02*
X100516180Y-99194700D01*
X100516180Y-97944700D01*
X101416180Y-97944700D01*
X101416180Y-99194700D01*
X101416180Y-99194700D01*
G37*
G36*
X115986960Y-98199160D02*
X114086960Y-98199160D01*
X114086960Y-94099160D01*
X115986960Y-94099160D01*
X115986960Y-98199160D01*
X115986960Y-98199160D01*
G37*
G36*
X111586960Y-98199160D02*
X109686960Y-98199160D01*
X109686960Y-94099160D01*
X111586960Y-94099160D01*
X111586960Y-98199160D01*
X111586960Y-98199160D01*
G37*
G36*
X95295880Y-97313880D02*
X94045880Y-97313880D01*
X94045880Y-96413880D01*
X95295880Y-96413880D01*
X95295880Y-97313880D01*
X95295880Y-97313880D01*
G37*
G36*
X100754980Y-96997100D02*
X99954980Y-96997100D01*
X99954980Y-96097100D01*
X100754980Y-96097100D01*
X100754980Y-96997100D01*
X100754980Y-96997100D01*
G37*
G36*
X102654980Y-96997100D02*
X101854980Y-96997100D01*
X101854980Y-96097100D01*
X102654980Y-96097100D01*
X102654980Y-96997100D01*
X102654980Y-96997100D01*
G37*
G36*
X99084120Y-96405360D02*
X98284120Y-96405360D01*
X98284120Y-95505360D01*
X99084120Y-95505360D01*
X99084120Y-96405360D01*
X99084120Y-96405360D01*
G37*
G36*
X97184120Y-96405360D02*
X96384120Y-96405360D01*
X96384120Y-95505360D01*
X97184120Y-95505360D01*
X97184120Y-96405360D01*
X97184120Y-96405360D01*
G37*
G36*
X95295880Y-95213880D02*
X94045880Y-95213880D01*
X94045880Y-94313880D01*
X95295880Y-94313880D01*
X95295880Y-95213880D01*
X95295880Y-95213880D01*
G37*
G36*
X117992600Y-95118080D02*
X117092600Y-95118080D01*
X117092600Y-93868080D01*
X117992600Y-93868080D01*
X117992600Y-95118080D01*
X117992600Y-95118080D01*
G37*
G36*
X120092600Y-95118080D02*
X119192600Y-95118080D01*
X119192600Y-93868080D01*
X120092600Y-93868080D01*
X120092600Y-95118080D01*
X120092600Y-95118080D01*
G37*
G36*
X101704980Y-94997100D02*
X100904980Y-94997100D01*
X100904980Y-94097100D01*
X101704980Y-94097100D01*
X101704980Y-94997100D01*
X101704980Y-94997100D01*
G37*
G36*
X98134120Y-94405360D02*
X97334120Y-94405360D01*
X97334120Y-93505360D01*
X98134120Y-93505360D01*
X98134120Y-94405360D01*
X98134120Y-94405360D01*
G37*
G36*
X91440000Y-93738700D02*
X89916000Y-93738700D01*
X89916000Y-91833700D01*
X91440000Y-91833700D01*
X91440000Y-93738700D01*
X91440000Y-93738700D01*
G37*
G36*
X87884000Y-93738700D02*
X86360000Y-93738700D01*
X86360000Y-91833700D01*
X87884000Y-91833700D01*
X87884000Y-93738700D01*
X87884000Y-93738700D01*
G37*
G36*
X114768760Y-92862560D02*
X113868760Y-92862560D01*
X113868760Y-91612560D01*
X114768760Y-91612560D01*
X114768760Y-92862560D01*
X114768760Y-92862560D01*
G37*
G36*
X112668760Y-92862560D02*
X111768760Y-92862560D01*
X111768760Y-91612560D01*
X112668760Y-91612560D01*
X112668760Y-92862560D01*
X112668760Y-92862560D01*
G37*
G36*
X116121460Y-92710280D02*
X115521460Y-92710280D01*
X115521460Y-91160280D01*
X116121460Y-91160280D01*
X116121460Y-92710280D01*
X116121460Y-92710280D01*
G37*
G36*
X119931460Y-92710280D02*
X119331460Y-92710280D01*
X119331460Y-91160280D01*
X119931460Y-91160280D01*
X119931460Y-92710280D01*
X119931460Y-92710280D01*
G37*
G36*
X118661460Y-92710280D02*
X118061460Y-92710280D01*
X118061460Y-91160280D01*
X118661460Y-91160280D01*
X118661460Y-92710280D01*
X118661460Y-92710280D01*
G37*
G36*
X117391460Y-92710280D02*
X116791460Y-92710280D01*
X116791460Y-91160280D01*
X117391460Y-91160280D01*
X117391460Y-92710280D01*
X117391460Y-92710280D01*
G37*
G36*
X93355000Y-91150600D02*
X92455000Y-91150600D01*
X92455000Y-89900600D01*
X93355000Y-89900600D01*
X93355000Y-91150600D01*
X93355000Y-91150600D01*
G37*
G36*
X91255000Y-91150600D02*
X90355000Y-91150600D01*
X90355000Y-89900600D01*
X91255000Y-89900600D01*
X91255000Y-91150600D01*
X91255000Y-91150600D01*
G37*
G36*
X122077640Y-91124880D02*
X120827640Y-91124880D01*
X120827640Y-90224880D01*
X122077640Y-90224880D01*
X122077640Y-91124880D01*
X122077640Y-91124880D01*
G37*
G36*
X114143920Y-90906760D02*
X113243920Y-90906760D01*
X113243920Y-89656760D01*
X114143920Y-89656760D01*
X114143920Y-90906760D01*
X114143920Y-90906760D01*
G37*
G36*
X112043920Y-90906760D02*
X111143920Y-90906760D01*
X111143920Y-89656760D01*
X112043920Y-89656760D01*
X112043920Y-90906760D01*
X112043920Y-90906760D01*
G37*
G36*
X118901460Y-90410280D02*
X116551460Y-90410280D01*
X116551460Y-88060280D01*
X118901460Y-88060280D01*
X118901460Y-90410280D01*
X118901460Y-90410280D01*
G37*
G36*
X88785700Y-90297000D02*
X86880700Y-90297000D01*
X86880700Y-88773000D01*
X88785700Y-88773000D01*
X88785700Y-90297000D01*
X88785700Y-90297000D01*
G37*
G36*
X95214600Y-89942800D02*
X93964600Y-89942800D01*
X93964600Y-89042800D01*
X95214600Y-89042800D01*
X95214600Y-89942800D01*
X95214600Y-89942800D01*
G37*
G36*
X114325560Y-89094440D02*
X113075560Y-89094440D01*
X113075560Y-88194440D01*
X114325560Y-88194440D01*
X114325560Y-89094440D01*
X114325560Y-89094440D01*
G37*
G36*
X91144800Y-89042400D02*
X90244800Y-89042400D01*
X90244800Y-87792400D01*
X91144800Y-87792400D01*
X91144800Y-89042400D01*
X91144800Y-89042400D01*
G37*
G36*
X93244800Y-89042400D02*
X92344800Y-89042400D01*
X92344800Y-87792400D01*
X93244800Y-87792400D01*
X93244800Y-89042400D01*
X93244800Y-89042400D01*
G37*
G36*
X122077640Y-89024880D02*
X120827640Y-89024880D01*
X120827640Y-88124880D01*
X122077640Y-88124880D01*
X122077640Y-89024880D01*
X122077640Y-89024880D01*
G37*
G36*
X112207200Y-89008080D02*
X110957200Y-89008080D01*
X110957200Y-88108080D01*
X112207200Y-88108080D01*
X112207200Y-89008080D01*
X112207200Y-89008080D01*
G37*
G36*
X95214600Y-87842800D02*
X93964600Y-87842800D01*
X93964600Y-86942800D01*
X95214600Y-86942800D01*
X95214600Y-87842800D01*
X95214600Y-87842800D01*
G37*
G36*
X119931460Y-87310280D02*
X119331460Y-87310280D01*
X119331460Y-85760280D01*
X119931460Y-85760280D01*
X119931460Y-87310280D01*
X119931460Y-87310280D01*
G37*
G36*
X118661460Y-87310280D02*
X118061460Y-87310280D01*
X118061460Y-85760280D01*
X118661460Y-85760280D01*
X118661460Y-87310280D01*
X118661460Y-87310280D01*
G37*
G36*
X117391460Y-87310280D02*
X116791460Y-87310280D01*
X116791460Y-85760280D01*
X117391460Y-85760280D01*
X117391460Y-87310280D01*
X117391460Y-87310280D01*
G37*
G36*
X116121460Y-87310280D02*
X115521460Y-87310280D01*
X115521460Y-85760280D01*
X116121460Y-85760280D01*
X116121460Y-87310280D01*
X116121460Y-87310280D01*
G37*
G36*
X114325560Y-86994440D02*
X113075560Y-86994440D01*
X113075560Y-86094440D01*
X114325560Y-86094440D01*
X114325560Y-86994440D01*
X114325560Y-86994440D01*
G37*
G36*
X112207200Y-86908080D02*
X110957200Y-86908080D01*
X110957200Y-86008080D01*
X112207200Y-86008080D01*
X112207200Y-86908080D01*
X112207200Y-86908080D01*
G37*
G36*
X88785700Y-86741000D02*
X86880700Y-86741000D01*
X86880700Y-85217000D01*
X88785700Y-85217000D01*
X88785700Y-86741000D01*
X88785700Y-86741000D01*
G37*
G36*
X122158920Y-86264880D02*
X120908920Y-86264880D01*
X120908920Y-85364880D01*
X122158920Y-85364880D01*
X122158920Y-86264880D01*
X122158920Y-86264880D01*
G37*
G36*
X94013300Y-86202800D02*
X93413300Y-86202800D01*
X93413300Y-84652800D01*
X94013300Y-84652800D01*
X94013300Y-86202800D01*
X94013300Y-86202800D01*
G37*
G36*
X92743300Y-86202800D02*
X92143300Y-86202800D01*
X92143300Y-84652800D01*
X92743300Y-84652800D01*
X92743300Y-86202800D01*
X92743300Y-86202800D01*
G37*
G36*
X91473300Y-86202800D02*
X90873300Y-86202800D01*
X90873300Y-84652800D01*
X91473300Y-84652800D01*
X91473300Y-86202800D01*
X91473300Y-86202800D01*
G37*
G36*
X90203300Y-86202800D02*
X89603300Y-86202800D01*
X89603300Y-84652800D01*
X90203300Y-84652800D01*
X90203300Y-86202800D01*
X90203300Y-86202800D01*
G37*
G36*
X98305568Y-84082822D02*
X98442056Y-84139357D01*
X98564898Y-84221438D01*
X98669362Y-84325902D01*
X98751443Y-84448744D01*
X98807978Y-84585232D01*
X98836800Y-84730131D01*
X98836800Y-84877869D01*
X98807978Y-85022768D01*
X98751443Y-85159256D01*
X98669362Y-85282098D01*
X98564898Y-85386562D01*
X98442056Y-85468643D01*
X98305568Y-85525178D01*
X98160669Y-85554000D01*
X98012931Y-85554000D01*
X97868032Y-85525178D01*
X97731544Y-85468643D01*
X97608702Y-85386562D01*
X97504238Y-85282098D01*
X97422157Y-85159256D01*
X97365622Y-85022768D01*
X97336800Y-84877869D01*
X97336800Y-84730131D01*
X97365622Y-84585232D01*
X97422157Y-84448744D01*
X97504238Y-84325902D01*
X97608702Y-84221438D01*
X97731544Y-84139357D01*
X97868032Y-84082822D01*
X98012931Y-84054000D01*
X98160669Y-84054000D01*
X98305568Y-84082822D01*
X98305568Y-84082822D01*
G37*
G36*
X105620768Y-84082822D02*
X105757256Y-84139357D01*
X105880098Y-84221438D01*
X105984562Y-84325902D01*
X106066643Y-84448744D01*
X106123178Y-84585232D01*
X106152000Y-84730131D01*
X106152000Y-84877869D01*
X106123178Y-85022768D01*
X106066643Y-85159256D01*
X105984562Y-85282098D01*
X105880098Y-85386562D01*
X105757256Y-85468643D01*
X105620768Y-85525178D01*
X105475869Y-85554000D01*
X105328131Y-85554000D01*
X105183232Y-85525178D01*
X105046744Y-85468643D01*
X104923902Y-85386562D01*
X104819438Y-85282098D01*
X104737357Y-85159256D01*
X104680822Y-85022768D01*
X104652000Y-84877869D01*
X104652000Y-84730131D01*
X104680822Y-84585232D01*
X104737357Y-84448744D01*
X104819438Y-84325902D01*
X104923902Y-84221438D01*
X105046744Y-84139357D01*
X105183232Y-84082822D01*
X105328131Y-84054000D01*
X105475869Y-84054000D01*
X105620768Y-84082822D01*
X105620768Y-84082822D01*
G37*
G36*
X88420100Y-84532600D02*
X87170100Y-84532600D01*
X87170100Y-83632600D01*
X88420100Y-83632600D01*
X88420100Y-84532600D01*
X88420100Y-84532600D01*
G37*
G36*
X96459200Y-84253200D02*
X95209200Y-84253200D01*
X95209200Y-83353200D01*
X96459200Y-83353200D01*
X96459200Y-84253200D01*
X96459200Y-84253200D01*
G37*
G36*
X122158920Y-84164880D02*
X120908920Y-84164880D01*
X120908920Y-83264880D01*
X122158920Y-83264880D01*
X122158920Y-84164880D01*
X122158920Y-84164880D01*
G37*
G36*
X92983300Y-83902800D02*
X90633300Y-83902800D01*
X90633300Y-81552800D01*
X92983300Y-81552800D01*
X92983300Y-83902800D01*
X92983300Y-83902800D01*
G37*
G36*
X111064200Y-82781560D02*
X109814200Y-82781560D01*
X109814200Y-81881560D01*
X111064200Y-81881560D01*
X111064200Y-82781560D01*
X111064200Y-82781560D01*
G37*
G36*
X88420100Y-82432600D02*
X87170100Y-82432600D01*
X87170100Y-81532600D01*
X88420100Y-81532600D01*
X88420100Y-82432600D01*
X88420100Y-82432600D01*
G37*
G36*
X96459200Y-82153200D02*
X95209200Y-82153200D01*
X95209200Y-81253200D01*
X96459200Y-81253200D01*
X96459200Y-82153200D01*
X96459200Y-82153200D01*
G37*
G36*
X121513000Y-82007000D02*
X117913000Y-82007000D01*
X117913000Y-80807000D01*
X121513000Y-80807000D01*
X121513000Y-82007000D01*
X121513000Y-82007000D01*
G37*
G36*
X115513000Y-82007000D02*
X111913000Y-82007000D01*
X111913000Y-80807000D01*
X115513000Y-80807000D01*
X115513000Y-82007000D01*
X115513000Y-82007000D01*
G37*
G36*
X104832800Y-81578000D02*
X104532800Y-81578000D01*
X104532800Y-80578000D01*
X104832800Y-80578000D01*
X104832800Y-81578000D01*
X104832800Y-81578000D01*
G37*
G36*
X98752800Y-81578000D02*
X98452800Y-81578000D01*
X98452800Y-80578000D01*
X98752800Y-80578000D01*
X98752800Y-81578000D01*
X98752800Y-81578000D01*
G37*
G36*
X91473300Y-80802800D02*
X90873300Y-80802800D01*
X90873300Y-79252800D01*
X91473300Y-79252800D01*
X91473300Y-80802800D01*
X91473300Y-80802800D01*
G37*
G36*
X94013300Y-80802800D02*
X93413300Y-80802800D01*
X93413300Y-79252800D01*
X94013300Y-79252800D01*
X94013300Y-80802800D01*
X94013300Y-80802800D01*
G37*
G36*
X92743300Y-80802800D02*
X92143300Y-80802800D01*
X92143300Y-79252800D01*
X92743300Y-79252800D01*
X92743300Y-80802800D01*
X92743300Y-80802800D01*
G37*
G36*
X90203300Y-80802800D02*
X89603300Y-80802800D01*
X89603300Y-79252800D01*
X90203300Y-79252800D01*
X90203300Y-80802800D01*
X90203300Y-80802800D01*
G37*
G36*
X111064200Y-80681560D02*
X109814200Y-80681560D01*
X109814200Y-79781560D01*
X111064200Y-79781560D01*
X111064200Y-80681560D01*
X111064200Y-80681560D01*
G37*
G36*
X88407400Y-80519400D02*
X87157400Y-80519400D01*
X87157400Y-79619400D01*
X88407400Y-79619400D01*
X88407400Y-80519400D01*
X88407400Y-80519400D01*
G37*
G36*
X96484600Y-80455900D02*
X95234600Y-80455900D01*
X95234600Y-79555900D01*
X96484600Y-79555900D01*
X96484600Y-80455900D01*
X96484600Y-80455900D01*
G37*
G36*
X103042800Y-78778000D02*
X102742800Y-78778000D01*
X102742800Y-77878000D01*
X103042800Y-77878000D01*
X103042800Y-78778000D01*
X103042800Y-78778000D01*
G37*
G36*
X101042800Y-78778000D02*
X100742800Y-78778000D01*
X100742800Y-77878000D01*
X101042800Y-77878000D01*
X101042800Y-78778000D01*
X101042800Y-78778000D01*
G37*
G36*
X100542800Y-78778000D02*
X100242800Y-78778000D01*
X100242800Y-77878000D01*
X100542800Y-77878000D01*
X100542800Y-78778000D01*
X100542800Y-78778000D01*
G37*
G36*
X100042800Y-78778000D02*
X99742800Y-78778000D01*
X99742800Y-77878000D01*
X100042800Y-77878000D01*
X100042800Y-78778000D01*
X100042800Y-78778000D01*
G37*
G36*
X104042800Y-78778000D02*
X103742800Y-78778000D01*
X103742800Y-77878000D01*
X104042800Y-77878000D01*
X104042800Y-78778000D01*
X104042800Y-78778000D01*
G37*
G36*
X103542800Y-78778000D02*
X103242800Y-78778000D01*
X103242800Y-77878000D01*
X103542800Y-77878000D01*
X103542800Y-78778000D01*
X103542800Y-78778000D01*
G37*
G36*
X99542800Y-78778000D02*
X99242800Y-78778000D01*
X99242800Y-77878000D01*
X99542800Y-77878000D01*
X99542800Y-78778000D01*
X99542800Y-78778000D01*
G37*
G36*
X102542800Y-78778000D02*
X102242800Y-78778000D01*
X102242800Y-77878000D01*
X102542800Y-77878000D01*
X102542800Y-78778000D01*
X102542800Y-78778000D01*
G37*
G36*
X102042800Y-78778000D02*
X101742800Y-78778000D01*
X101742800Y-77878000D01*
X102042800Y-77878000D01*
X102042800Y-78778000D01*
X102042800Y-78778000D01*
G37*
G36*
X101542800Y-78778000D02*
X101242800Y-78778000D01*
X101242800Y-77878000D01*
X101542800Y-77878000D01*
X101542800Y-78778000D01*
X101542800Y-78778000D01*
G37*
G36*
X94620814Y-77801763D02*
X93596874Y-78518734D01*
X93080656Y-77781497D01*
X94104596Y-77064526D01*
X94620814Y-77801763D01*
X94620814Y-77801763D01*
G37*
G36*
X88407400Y-78419400D02*
X87157400Y-78419400D01*
X87157400Y-77519400D01*
X88407400Y-77519400D01*
X88407400Y-78419400D01*
X88407400Y-78419400D01*
G37*
G36*
X96484600Y-78355900D02*
X95234600Y-78355900D01*
X95234600Y-77455900D01*
X96484600Y-77455900D01*
X96484600Y-78355900D01*
X96484600Y-78355900D01*
G37*
G36*
X108940500Y-77236500D02*
X107340500Y-77236500D01*
X107340500Y-75036500D01*
X108940500Y-75036500D01*
X108940500Y-77236500D01*
X108940500Y-77236500D01*
G37*
G36*
X111480500Y-77236500D02*
X109880500Y-77236500D01*
X109880500Y-75036500D01*
X111480500Y-75036500D01*
X111480500Y-77236500D01*
X111480500Y-77236500D01*
G37*
G36*
X90619800Y-76997600D02*
X86519800Y-76997600D01*
X86519800Y-75097600D01*
X90619800Y-75097600D01*
X90619800Y-76997600D01*
X90619800Y-76997600D01*
G37*
G36*
X117062500Y-76882500D02*
X115538500Y-76882500D01*
X115538500Y-74882500D01*
X117062500Y-74882500D01*
X117062500Y-76882500D01*
X117062500Y-76882500D01*
G37*
G36*
X121062500Y-76882500D02*
X119538500Y-76882500D01*
X119538500Y-74882500D01*
X121062500Y-74882500D01*
X121062500Y-76882500D01*
X121062500Y-76882500D01*
G37*
G36*
X93416304Y-76081543D02*
X92392364Y-76798514D01*
X91876146Y-76061277D01*
X92900086Y-75344306D01*
X93416304Y-76081543D01*
X93416304Y-76081543D01*
G37*
G36*
X98672700Y-75316900D02*
X97552700Y-75316900D01*
X97552700Y-71926900D01*
X98672700Y-71926900D01*
X98672700Y-75316900D01*
X98672700Y-75316900D01*
G37*
G36*
X101172700Y-75316900D02*
X100052700Y-75316900D01*
X100052700Y-71926900D01*
X101172700Y-71926900D01*
X101172700Y-75316900D01*
X101172700Y-75316900D01*
G37*
G36*
X103172700Y-75316900D02*
X102052700Y-75316900D01*
X102052700Y-71926900D01*
X103172700Y-71926900D01*
X103172700Y-75316900D01*
X103172700Y-75316900D01*
G37*
G36*
X105672700Y-75316900D02*
X104552700Y-75316900D01*
X104552700Y-71926900D01*
X105672700Y-71926900D01*
X105672700Y-75316900D01*
X105672700Y-75316900D01*
G37*
G36*
X116250000Y-73550000D02*
X112150000Y-73550000D01*
X112150000Y-71650000D01*
X116250000Y-71650000D01*
X116250000Y-73550000D01*
X116250000Y-73550000D01*
G37*
G36*
X122178000Y-73256000D02*
X118622000Y-73256000D01*
X118622000Y-70716000D01*
X122178000Y-70716000D01*
X122178000Y-73256000D01*
X122178000Y-73256000D01*
G37*
G36*
X90619800Y-72597600D02*
X86519800Y-72597600D01*
X86519800Y-70697600D01*
X90619800Y-70697600D01*
X90619800Y-72597600D01*
X90619800Y-72597600D01*
G37*
G36*
X110502700Y-71051900D02*
X108062700Y-71051900D01*
X108062700Y-68831900D01*
X110502700Y-68831900D01*
X110502700Y-71051900D01*
X110502700Y-71051900D01*
G37*
G36*
X95162700Y-71051900D02*
X92722700Y-71051900D01*
X92722700Y-68831900D01*
X95162700Y-68831900D01*
X95162700Y-71051900D01*
X95162700Y-71051900D01*
G37*
G36*
X87782400Y-70192900D02*
X86258400Y-70192900D01*
X86258400Y-68287900D01*
X87782400Y-68287900D01*
X87782400Y-70192900D01*
X87782400Y-70192900D01*
G37*
G36*
X91338400Y-70192900D02*
X89814400Y-70192900D01*
X89814400Y-68287900D01*
X91338400Y-68287900D01*
X91338400Y-70192900D01*
X91338400Y-70192900D01*
G37*
G36*
X116250000Y-69150000D02*
X112150000Y-69150000D01*
X112150000Y-67250000D01*
X116250000Y-67250000D01*
X116250000Y-69150000D01*
X116250000Y-69150000D01*
G37*
G36*
X122178000Y-68684000D02*
X118622000Y-68684000D01*
X118622000Y-66144000D01*
X122178000Y-66144000D01*
X122178000Y-68684000D01*
X122178000Y-68684000D01*
G37*
G36*
X87782400Y-67576700D02*
X86258400Y-67576700D01*
X86258400Y-65671700D01*
X87782400Y-65671700D01*
X87782400Y-67576700D01*
X87782400Y-67576700D01*
G37*
G36*
X91338400Y-67576700D02*
X89814400Y-67576700D01*
X89814400Y-65671700D01*
X91338400Y-65671700D01*
X91338400Y-67576700D01*
X91338400Y-67576700D01*
G37*
G36*
X105964389Y-64980329D02*
X106146378Y-65055711D01*
X106310163Y-65165149D01*
X106449451Y-65304437D01*
X106558889Y-65468222D01*
X106634271Y-65650211D01*
X106672700Y-65843409D01*
X106672700Y-66040391D01*
X106634271Y-66233589D01*
X106558889Y-66415578D01*
X106449451Y-66579363D01*
X106310163Y-66718651D01*
X106146378Y-66828089D01*
X105964389Y-66903471D01*
X105771191Y-66941900D01*
X105574209Y-66941900D01*
X105381011Y-66903471D01*
X105199022Y-66828089D01*
X105035237Y-66718651D01*
X104895949Y-66579363D01*
X104786511Y-66415578D01*
X104711129Y-66233589D01*
X104672700Y-66040391D01*
X104672700Y-65843409D01*
X104711129Y-65650211D01*
X104786511Y-65468222D01*
X104895949Y-65304437D01*
X105035237Y-65165149D01*
X105199022Y-65055711D01*
X105381011Y-64980329D01*
X105574209Y-64941900D01*
X105771191Y-64941900D01*
X105964389Y-64980329D01*
X105964389Y-64980329D01*
G37*
G36*
X97844389Y-64980329D02*
X98026378Y-65055711D01*
X98190163Y-65165149D01*
X98329451Y-65304437D01*
X98438889Y-65468222D01*
X98514271Y-65650211D01*
X98552700Y-65843409D01*
X98552700Y-66040391D01*
X98514271Y-66233589D01*
X98438889Y-66415578D01*
X98329451Y-66579363D01*
X98190163Y-66718651D01*
X98026378Y-66828089D01*
X97844389Y-66903471D01*
X97651191Y-66941900D01*
X97454209Y-66941900D01*
X97261011Y-66903471D01*
X97079022Y-66828089D01*
X96915237Y-66718651D01*
X96775949Y-66579363D01*
X96666511Y-66415578D01*
X96591129Y-66233589D01*
X96552700Y-66040391D01*
X96552700Y-65843409D01*
X96591129Y-65650211D01*
X96666511Y-65468222D01*
X96775949Y-65304437D01*
X96915237Y-65165149D01*
X97079022Y-65055711D01*
X97261011Y-64980329D01*
X97454209Y-64941900D01*
X97651191Y-64941900D01*
X97844389Y-64980329D01*
X97844389Y-64980329D01*
G37*
G36*
X115746900Y-64443600D02*
X114046900Y-64443600D01*
X114046900Y-61743600D01*
X115746900Y-61743600D01*
X115746900Y-64443600D01*
X115746900Y-64443600D01*
G37*
G36*
X113206900Y-64443600D02*
X111506900Y-64443600D01*
X111506900Y-61743600D01*
X113206900Y-61743600D01*
X113206900Y-64443600D01*
X113206900Y-64443600D01*
G37*
G36*
X120154289Y-61573229D02*
X120336278Y-61648611D01*
X120500063Y-61758049D01*
X120639351Y-61897337D01*
X120748789Y-62061122D01*
X120824171Y-62243111D01*
X120862600Y-62436309D01*
X120862600Y-62633291D01*
X120824171Y-62826489D01*
X120748789Y-63008478D01*
X120639351Y-63172263D01*
X120500063Y-63311551D01*
X120336278Y-63420989D01*
X120154289Y-63496371D01*
X119961091Y-63534800D01*
X119764109Y-63534800D01*
X119570911Y-63496371D01*
X119388922Y-63420989D01*
X119225137Y-63311551D01*
X119085849Y-63172263D01*
X118976411Y-63008478D01*
X118901029Y-62826489D01*
X118862600Y-62633291D01*
X118862600Y-62436309D01*
X118901029Y-62243111D01*
X118976411Y-62061122D01*
X119085849Y-61897337D01*
X119225137Y-61758049D01*
X119388922Y-61648611D01*
X119570911Y-61573229D01*
X119764109Y-61534800D01*
X119961091Y-61534800D01*
X120154289Y-61573229D01*
X120154289Y-61573229D01*
G37*
G36*
X89140889Y-61573229D02*
X89322878Y-61648611D01*
X89486663Y-61758049D01*
X89625951Y-61897337D01*
X89735389Y-62061122D01*
X89810771Y-62243111D01*
X89849200Y-62436309D01*
X89849200Y-62633291D01*
X89810771Y-62826489D01*
X89735389Y-63008478D01*
X89625951Y-63172263D01*
X89486663Y-63311551D01*
X89322878Y-63420989D01*
X89140889Y-63496371D01*
X88947691Y-63534800D01*
X88750709Y-63534800D01*
X88557511Y-63496371D01*
X88375522Y-63420989D01*
X88211737Y-63311551D01*
X88072449Y-63172263D01*
X87963011Y-63008478D01*
X87887629Y-62826489D01*
X87849200Y-62633291D01*
X87849200Y-62436309D01*
X87887629Y-62243111D01*
X87963011Y-62061122D01*
X88072449Y-61897337D01*
X88211737Y-61758049D01*
X88375522Y-61648611D01*
X88557511Y-61573229D01*
X88750709Y-61534800D01*
X88947691Y-61534800D01*
X89140889Y-61573229D01*
X89140889Y-61573229D01*
G37*
G36*
X112531915Y-60066658D02*
X112641104Y-60111885D01*
X112739379Y-60177551D01*
X112822949Y-60261121D01*
X112888615Y-60359396D01*
X112933842Y-60468585D01*
X112956900Y-60584506D01*
X112956900Y-60702694D01*
X112933842Y-60818615D01*
X112888615Y-60927804D01*
X112822949Y-61026079D01*
X112739379Y-61109649D01*
X112641104Y-61175315D01*
X112531915Y-61220542D01*
X112415995Y-61243600D01*
X112297805Y-61243600D01*
X112181885Y-61220542D01*
X112072696Y-61175315D01*
X111974421Y-61109649D01*
X111890851Y-61026079D01*
X111825185Y-60927804D01*
X111779958Y-60818615D01*
X111756900Y-60702694D01*
X111756900Y-60584506D01*
X111779958Y-60468585D01*
X111825185Y-60359396D01*
X111890851Y-60261121D01*
X111974421Y-60177551D01*
X112072696Y-60111885D01*
X112181885Y-60066658D01*
X112297805Y-60043600D01*
X112415995Y-60043600D01*
X112531915Y-60066658D01*
X112531915Y-60066658D01*
G37*
G36*
X115071915Y-60066658D02*
X115181104Y-60111885D01*
X115279379Y-60177551D01*
X115362949Y-60261121D01*
X115428615Y-60359396D01*
X115473842Y-60468585D01*
X115496900Y-60584506D01*
X115496900Y-60702694D01*
X115473842Y-60818615D01*
X115428615Y-60927804D01*
X115362949Y-61026079D01*
X115279379Y-61109649D01*
X115181104Y-61175315D01*
X115071915Y-61220542D01*
X114955995Y-61243600D01*
X114837805Y-61243600D01*
X114721885Y-61220542D01*
X114612696Y-61175315D01*
X114514421Y-61109649D01*
X114430851Y-61026079D01*
X114365185Y-60927804D01*
X114319958Y-60818615D01*
X114296900Y-60702694D01*
X114296900Y-60584506D01*
X114319958Y-60468585D01*
X114365185Y-60359396D01*
X114430851Y-60261121D01*
X114514421Y-60177551D01*
X114612696Y-60111885D01*
X114721885Y-60066658D01*
X114837805Y-60043600D01*
X114955995Y-60043600D01*
X115071915Y-60066658D01*
X115071915Y-60066658D01*
G37*
G36*
X93124921Y-57325986D02*
X93288708Y-57393829D01*
X93288710Y-57393830D01*
X93436117Y-57492324D01*
X93561476Y-57617683D01*
X93659970Y-57765090D01*
X93727814Y-57928880D01*
X93762400Y-58102758D01*
X93762400Y-58280042D01*
X93727814Y-58453920D01*
X93659970Y-58617710D01*
X93561476Y-58765117D01*
X93436117Y-58890476D01*
X93288710Y-58988970D01*
X93288709Y-58988971D01*
X93288708Y-58988971D01*
X93124921Y-59056814D01*
X92951043Y-59091400D01*
X92773757Y-59091400D01*
X92599879Y-59056814D01*
X92436092Y-58988971D01*
X92436091Y-58988971D01*
X92436090Y-58988970D01*
X92288683Y-58890476D01*
X92163324Y-58765117D01*
X92064830Y-58617710D01*
X91996986Y-58453920D01*
X91962400Y-58280042D01*
X91962400Y-58102758D01*
X91996986Y-57928880D01*
X92064830Y-57765090D01*
X92163324Y-57617683D01*
X92288683Y-57492324D01*
X92436090Y-57393830D01*
X92436092Y-57393829D01*
X92599879Y-57325986D01*
X92773757Y-57291400D01*
X92951043Y-57291400D01*
X93124921Y-57325986D01*
X93124921Y-57325986D01*
G37*
G36*
X88121121Y-55319386D02*
X88284908Y-55387229D01*
X88284910Y-55387230D01*
X88432317Y-55485724D01*
X88557675Y-55611082D01*
X88656171Y-55758492D01*
X88724014Y-55922279D01*
X88758600Y-56096157D01*
X88758600Y-56273443D01*
X88724014Y-56447321D01*
X88656171Y-56611108D01*
X88656170Y-56611110D01*
X88557676Y-56758517D01*
X88432317Y-56883876D01*
X88284910Y-56982370D01*
X88284909Y-56982371D01*
X88284908Y-56982371D01*
X88121121Y-57050214D01*
X87947243Y-57084800D01*
X87769957Y-57084800D01*
X87596079Y-57050214D01*
X87432292Y-56982371D01*
X87432291Y-56982371D01*
X87432290Y-56982370D01*
X87284883Y-56883876D01*
X87159524Y-56758517D01*
X87061030Y-56611110D01*
X87061029Y-56611108D01*
X86993186Y-56447321D01*
X86958600Y-56273443D01*
X86958600Y-56096157D01*
X86993186Y-55922279D01*
X87061029Y-55758492D01*
X87159525Y-55611082D01*
X87284883Y-55485724D01*
X87432290Y-55387230D01*
X87432292Y-55387229D01*
X87596079Y-55319386D01*
X87769957Y-55284800D01*
X87947243Y-55284800D01*
X88121121Y-55319386D01*
X88121121Y-55319386D01*
G37*
G36*
X91266720Y-56449120D02*
X90366720Y-56449120D01*
X90366720Y-55199120D01*
X91266720Y-55199120D01*
X91266720Y-56449120D01*
X91266720Y-56449120D01*
G37*
G36*
X93366720Y-56449120D02*
X92466720Y-56449120D01*
X92466720Y-55199120D01*
X93366720Y-55199120D01*
X93366720Y-56449120D01*
X93366720Y-56449120D01*
G37*
M02*
