  0
SECTION
  2
HEADER
  9
$ANGBASE
  50
0.0
  9
$ANGDIR
  70
  1
  9
$MEASUREMENT
  70
0
  0
ENDSEC
  0
SECTION
  2
TABLES
  0
TABLE
  2
LTYPE
  70
4
  0
LTYPE
  5
40F
  2
CONTINUOUS
  70
0
  3
Solid line
  72
65
  73
0
  40
0.0
  0
LTYPE
  5
410
  2
DASHDOT
 70
0
  3
Dash Dot ____ _ ____ _
 72
65
 73
4
 40
2.0
 49
1.25
 49
-0.25
 49
0.25
 49
-0.25
  0
LTYPE
  5
411
  2
DASHED
 70
0
  3
Dashed __ __ __ __ __
 72
65
 73
2
 40
0.75
 49
0.5
 49
-0.25
  0
LTYPE
  5
43B
  2
DOTTED
 70
0
  3
Dotted .  .  .  .
 72
65
 73
2
 40
0.2
 49
0.0
 49
-0.2
  0
ENDTAB
  0
TABLE
  2
STYLE
  70
4
  0
STYLE
  2
KICAD
  70
0
  40
0
  41
1
  42
1
  50
0
  71
0
  3
isocp.shx
  0
STYLE
  2
KICADB
  70
0
  40
0
  41
1
  42
1
  50
0
  71
0
  3
isocp.shx
  0
STYLE
  2
KICADI
  70
0
  40
0
  41
1
  42
1
  50
15
  71
0
  3
isocp.shx
  0
STYLE
  2
KICADBI
  70
0
  40
0
  41
1
  42
1
  50
15
  71
0
  3
isocp.shx
  0
ENDTAB
  0
TABLE
  2
LAYER
  70
30
  0
LAYER
  2
BLACK
  70
0
  62
7
  6
CONTINUOUS
  0
LAYER
  2
GRAY1
  70
0
  62
251
  6
CONTINUOUS
  0
LAYER
  2
GRAY2
  70
0
  62
8
  6
CONTINUOUS
  0
LAYER
  2
GRAY3
  70
0
  62
9
  6
CONTINUOUS
  0
LAYER
  2
WHITE
  70
0
  62
7
  6
CONTINUOUS
  0
LAYER
  2
LYELLOW
  70
0
  62
51
  6
CONTINUOUS
  0
LAYER
  2
BLUE1
  70
0
  62
178
  6
CONTINUOUS
  0
LAYER
  2
GREEN1
  70
0
  62
98
  6
CONTINUOUS
  0
LAYER
  2
CYAN1
  70
0
  62
138
  6
CONTINUOUS
  0
LAYER
  2
RED1
  70
0
  62
18
  6
CONTINUOUS
  0
LAYER
  2
MAGENTA1
  70
0
  62
228
  6
CONTINUOUS
  0
LAYER
  2
BROWN1
  70
0
  62
58
  6
CONTINUOUS
  0
LAYER
  2
BLUE2
  70
0
  62
5
  6
CONTINUOUS
  0
LAYER
  2
GREEN2
  70
0
  62
3
  6
CONTINUOUS
  0
LAYER
  2
CYAN2
  70
0
  62
4
  6
CONTINUOUS
  0
LAYER
  2
RED2
  70
0
  62
1
  6
CONTINUOUS
  0
LAYER
  2
MAGENTA2
  70
0
  62
6
  6
CONTINUOUS
  0
LAYER
  2
BROWN2
  70
0
  62
54
  6
CONTINUOUS
  0
LAYER
  2
BLUE3
  70
0
  62
171
  6
CONTINUOUS
  0
LAYER
  2
GREEN3
  70
0
  62
91
  6
CONTINUOUS
  0
LAYER
  2
CYAN3
  70
0
  62
131
  6
CONTINUOUS
  0
LAYER
  2
RED3
  70
0
  62
11
  6
CONTINUOUS
  0
LAYER
  2
MAGENTA3
  70
0
  62
221
  6
CONTINUOUS
  0
LAYER
  2
YELLOW3
  70
0
  62
2
  6
CONTINUOUS
  0
LAYER
  2
BLUE4
  70
0
  62
5
  6
CONTINUOUS
  0
LAYER
  2
GREEN4
  70
0
  62
3
  6
CONTINUOUS
  0
LAYER
  2
CYAN4
  70
0
  62
4
  6
CONTINUOUS
  0
LAYER
  2
RED4
  70
0
  62
1
  6
CONTINUOUS
  0
LAYER
  2
MAGENTA4
  70
0
  62
6
  6
CONTINUOUS
  0
LAYER
  2
YELLOW4
  70
0
  62
2
  6
CONTINUOUS
  0
ENDTAB
  0
ENDSEC
  0
SECTION
  2
ENTITIES
0
LINE
8
BLACK
6
CONTINUOUS
10
82.956
20
-56.1503
11
82.9649
21
-56.1503
0
LINE
8
BLACK
6
CONTINUOUS
10
82.9649
20
-56.1503
11
82.9732
21
-56.1534
0
LINE
8
BLACK
6
CONTINUOUS
10
82.9732
20
-56.1534
11
82.982
21
-56.1549
0
LINE
8
BLACK
6
CONTINUOUS
10
82.982
20
-56.1549
11
82.9896
21
-56.1593
0
LINE
8
BLACK
6
CONTINUOUS
10
82.9896
20
-56.1593
11
82.998
21
-56.1624
0
LINE
8
BLACK
6
CONTINUOUS
10
82.998
20
-56.1624
11
83.0048
21
-56.1681
0
LINE
8
BLACK
6
CONTINUOUS
10
83.0048
20
-56.1681
11
83.0125
21
-56.1725
0
LINE
8
BLACK
6
CONTINUOUS
10
83.0125
20
-56.1725
11
83.0182
21
-56.1793
0
LINE
8
BLACK
6
CONTINUOUS
10
83.0182
20
-56.1793
11
83.025
21
-56.1851
0
LINE
8
BLACK
6
CONTINUOUS
10
83.025
20
-56.1851
11
83.0294
21
-56.1927
0
LINE
8
BLACK
6
CONTINUOUS
10
83.0294
20
-56.1927
11
83.0352
21
-56.1995
0
LINE
8
BLACK
6
CONTINUOUS
10
83.0352
20
-56.1995
11
83.0382
21
-56.2079
0
LINE
8
BLACK
6
CONTINUOUS
10
83.0382
20
-56.2079
11
83.0426
21
-56.2156
0
LINE
8
BLACK
6
CONTINUOUS
10
83.0426
20
-56.2156
11
83.0442
21
-56.2243
0
LINE
8
BLACK
6
CONTINUOUS
10
83.0442
20
-56.2243
11
83.0472
21
-56.2327
0
LINE
8
BLACK
6
CONTINUOUS
10
83.0472
20
-56.2327
11
83.0472
21
-56.2416
0
LINE
8
BLACK
6
CONTINUOUS
10
83.0472
20
-56.2416
11
83.0472
21
-56.2416
0
LINE
8
BLACK
6
CONTINUOUS
10
83.0472
20
-56.2416
11
83.0472
21
-62.2591
0
LINE
8
BLACK
6
CONTINUOUS
10
83.0472
20
-62.2591
11
83.0472
21
-62.2591
0
LINE
8
BLACK
6
CONTINUOUS
10
83.0472
20
-62.2591
11
83.0472
21
-62.268
0
LINE
8
BLACK
6
CONTINUOUS
10
83.0472
20
-62.268
11
83.0442
21
-62.2763
0
LINE
8
BLACK
6
CONTINUOUS
10
83.0442
20
-62.2763
11
83.0426
21
-62.285
0
LINE
8
BLACK
6
CONTINUOUS
10
83.0426
20
-62.285
11
83.0382
21
-62.2927
0
LINE
8
BLACK
6
CONTINUOUS
10
83.0382
20
-62.2927
11
83.0352
21
-62.3011
0
LINE
8
BLACK
6
CONTINUOUS
10
83.0352
20
-62.3011
11
83.0294
21
-62.3079
0
LINE
8
BLACK
6
CONTINUOUS
10
83.0294
20
-62.3079
11
83.025
21
-62.3156
0
LINE
8
BLACK
6
CONTINUOUS
10
83.025
20
-62.3156
11
83.0182
21
-62.3213
0
LINE
8
BLACK
6
CONTINUOUS
10
83.0182
20
-62.3213
11
83.0125
21
-62.3281
0
LINE
8
BLACK
6
CONTINUOUS
10
83.0125
20
-62.3281
11
83.0048
21
-62.3325
0
LINE
8
BLACK
6
CONTINUOUS
10
83.0048
20
-62.3325
11
82.998
21
-62.3383
0
LINE
8
BLACK
6
CONTINUOUS
10
82.998
20
-62.3383
11
82.9896
21
-62.3413
0
LINE
8
BLACK
6
CONTINUOUS
10
82.9896
20
-62.3413
11
82.982
21
-62.3457
0
LINE
8
BLACK
6
CONTINUOUS
10
82.982
20
-62.3457
11
82.9732
21
-62.3473
0
LINE
8
BLACK
6
CONTINUOUS
10
82.9732
20
-62.3473
11
82.9649
21
-62.3503
0
LINE
8
BLACK
6
CONTINUOUS
10
82.9649
20
-62.3503
11
82.956
21
-62.3503
0
LINE
8
BLACK
6
CONTINUOUS
10
82.956
20
-62.3503
11
82.956
21
-62.3503
0
LINE
8
BLACK
6
CONTINUOUS
10
82.956
20
-62.3503
11
60.3885
21
-62.3503
0
LINE
8
BLACK
6
CONTINUOUS
10
60.3885
20
-62.3503
11
60.3885
21
-62.3503
0
LINE
8
BLACK
6
CONTINUOUS
10
60.3885
20
-62.3503
11
60.3796
21
-62.3503
0
LINE
8
BLACK
6
CONTINUOUS
10
60.3796
20
-62.3503
11
60.3712
21
-62.3473
0
LINE
8
BLACK
6
CONTINUOUS
10
60.3712
20
-62.3473
11
60.3625
21
-62.3457
0
LINE
8
BLACK
6
CONTINUOUS
10
60.3625
20
-62.3457
11
60.3548
21
-62.3413
0
LINE
8
BLACK
6
CONTINUOUS
10
60.3548
20
-62.3413
11
60.3465
21
-62.3383
0
LINE
8
BLACK
6
CONTINUOUS
10
60.3465
20
-62.3383
11
60.3396
21
-62.3326
0
LINE
8
BLACK
6
CONTINUOUS
10
60.3396
20
-62.3326
11
60.332
21
-62.3281
0
LINE
8
BLACK
6
CONTINUOUS
10
60.332
20
-62.3281
11
60.3262
21
-62.3213
0
LINE
8
BLACK
6
CONTINUOUS
10
60.3262
20
-62.3213
11
60.3194
21
-62.3156
0
LINE
8
BLACK
6
CONTINUOUS
10
60.3194
20
-62.3156
11
60.315
21
-62.3079
0
LINE
8
BLACK
6
CONTINUOUS
10
60.315
20
-62.3079
11
60.3093
21
-62.3011
0
LINE
8
BLACK
6
CONTINUOUS
10
60.3093
20
-62.3011
11
60.3062
21
-62.2927
0
LINE
8
BLACK
6
CONTINUOUS
10
60.3062
20
-62.2927
11
60.3018
21
-62.285
0
LINE
8
BLACK
6
CONTINUOUS
10
60.3018
20
-62.285
11
60.3003
21
-62.2763
0
LINE
8
BLACK
6
CONTINUOUS
10
60.3003
20
-62.2763
11
60.2972
21
-62.268
0
LINE
8
BLACK
6
CONTINUOUS
10
60.2972
20
-62.268
11
60.2972
21
-62.2327
0
LINE
8
BLACK
6
CONTINUOUS
10
60.2972
20
-62.2327
11
60.2972
21
-56.2416
0
LINE
8
BLACK
6
CONTINUOUS
10
60.2972
20
-56.2416
11
60.2972
21
-56.2416
0
LINE
8
BLACK
6
CONTINUOUS
10
60.2972
20
-56.2416
11
60.2972
21
-56.2327
0
LINE
8
BLACK
6
CONTINUOUS
10
60.2972
20
-56.2327
11
60.3003
21
-56.2243
0
LINE
8
BLACK
6
CONTINUOUS
10
60.3003
20
-56.2243
11
60.3018
21
-56.2156
0
LINE
8
BLACK
6
CONTINUOUS
10
60.3018
20
-56.2156
11
60.3062
21
-56.2079
0
LINE
8
BLACK
6
CONTINUOUS
10
60.3062
20
-56.2079
11
60.3093
21
-56.1995
0
LINE
8
BLACK
6
CONTINUOUS
10
60.3093
20
-56.1995
11
60.315
21
-56.1927
0
LINE
8
BLACK
6
CONTINUOUS
10
60.315
20
-56.1927
11
60.3194
21
-56.1851
0
LINE
8
BLACK
6
CONTINUOUS
10
60.3194
20
-56.1851
11
60.3262
21
-56.1793
0
LINE
8
BLACK
6
CONTINUOUS
10
60.3262
20
-56.1793
11
60.332
21
-56.1725
0
LINE
8
BLACK
6
CONTINUOUS
10
60.332
20
-56.1725
11
60.3396
21
-56.1681
0
LINE
8
BLACK
6
CONTINUOUS
10
60.3396
20
-56.1681
11
60.3465
21
-56.1624
0
LINE
8
BLACK
6
CONTINUOUS
10
60.3465
20
-56.1624
11
60.3548
21
-56.1593
0
LINE
8
BLACK
6
CONTINUOUS
10
60.3548
20
-56.1593
11
60.3625
21
-56.1549
0
LINE
8
BLACK
6
CONTINUOUS
10
60.3625
20
-56.1549
11
60.3712
21
-56.1534
0
LINE
8
BLACK
6
CONTINUOUS
10
60.3712
20
-56.1534
11
60.3796
21
-56.1503
0
LINE
8
BLACK
6
CONTINUOUS
10
60.3796
20
-56.1503
11
60.3885
21
-56.1503
0
LINE
8
BLACK
6
CONTINUOUS
10
60.3885
20
-56.1503
11
60.3885
21
-56.1503
0
LINE
8
BLACK
6
CONTINUOUS
10
60.3885
20
-56.1503
11
82.956
21
-56.1503
0
LINE
8
BLACK
6
CONTINUOUS
10
82.956
20
-56.1503
11
82.956
21
-56.1503
0
LINE
8
BLACK
6
CONTINUOUS
10
60.4972
20
-56.3503
11
60.4972
21
-62.1503
0
LINE
8
BLACK
6
CONTINUOUS
10
60.4972
20
-62.1503
11
82.8472
21
-62.1503
0
LINE
8
BLACK
6
CONTINUOUS
10
82.8472
20
-62.1503
11
82.8472
21
-56.3503
0
LINE
8
BLACK
6
CONTINUOUS
10
82.8472
20
-56.3503
11
60.4972
21
-56.3503
  0
ENDSEC
  0
EOF
