G04 #@! TF.GenerationSoftware,KiCad,Pcbnew,(5.0.1)-4*
G04 #@! TF.CreationDate,2018-12-06T20:41:24-05:00*
G04 #@! TF.ProjectId,USBxtendV1,5553427874656E6456312E6B69636164,V1*
G04 #@! TF.SameCoordinates,Original*
G04 #@! TF.FileFunction,Copper,L2,Bot,Signal*
G04 #@! TF.FilePolarity,Positive*
%FSLAX46Y46*%
G04 Gerber Fmt 4.6, Leading zero omitted, Abs format (unit mm)*
G04 Created by KiCad (PCBNEW (5.0.1)-4) date 12/6/2018 8:41:24 PM*
%MOMM*%
%LPD*%
G01*
G04 APERTURE LIST*
G04 #@! TA.AperFunction,ComponentPad*
%ADD10O,0.900000X0.700000*%
G04 #@! TD*
G04 #@! TA.AperFunction,ComponentPad*
%ADD11C,0.750000*%
G04 #@! TD*
G04 #@! TA.AperFunction,Conductor*
%ADD12C,0.750000*%
G04 #@! TD*
G04 #@! TA.AperFunction,ComponentPad*
%ADD13O,1.000000X0.800000*%
G04 #@! TD*
G04 #@! TA.AperFunction,ComponentPad*
%ADD14O,0.750000X0.900000*%
G04 #@! TD*
G04 #@! TA.AperFunction,ComponentPad*
%ADD15C,1.200000*%
G04 #@! TD*
G04 #@! TA.AperFunction,ComponentPad*
%ADD16C,0.800000*%
G04 #@! TD*
G04 #@! TA.AperFunction,SMDPad,CuDef*
%ADD17R,0.300000X0.900000*%
G04 #@! TD*
G04 #@! TA.AperFunction,SMDPad,CuDef*
%ADD18R,0.300000X1.000000*%
G04 #@! TD*
G04 #@! TA.AperFunction,ViaPad*
%ADD19C,0.635000*%
G04 #@! TD*
G04 #@! TA.AperFunction,Conductor*
%ADD20C,0.152400*%
G04 #@! TD*
G04 #@! TA.AperFunction,Conductor*
%ADD21C,0.254000*%
G04 #@! TD*
G04 #@! TA.AperFunction,Conductor*
%ADD22C,0.381000*%
G04 #@! TD*
G04 #@! TA.AperFunction,Conductor*
%ADD23C,0.508000*%
G04 #@! TD*
G04 APERTURE END LIST*
D10*
G04 #@! TO.P,P1,1*
G04 #@! TO.N,V_USB*
X65479000Y-59006500D03*
D11*
G04 #@! TO.P,P1,2*
G04 #@! TO.N,D-*
X66365036Y-58233627D03*
D12*
G04 #@! TD*
G04 #@! TO.N,D-*
G04 #@! TO.C,P1*
X66322018Y-58295063D02*
X66408054Y-58172191D01*
D13*
G04 #@! TO.P,P1,6*
G04 #@! TO.N,GND1*
X65279000Y-57396500D03*
D14*
G04 #@! TO.P,P1,3*
G04 #@! TO.N,D+*
X66929000Y-59156500D03*
D10*
G04 #@! TO.P,P1,5*
G04 #@! TO.N,GND1*
X68379000Y-59006500D03*
D11*
G04 #@! TO.P,P1,4*
G04 #@! TO.N,ID*
X67492964Y-58233627D03*
D12*
G04 #@! TD*
G04 #@! TO.N,ID*
G04 #@! TO.C,P1*
X67535982Y-58295063D02*
X67449946Y-58172191D01*
D13*
G04 #@! TO.P,P1,6*
G04 #@! TO.N,GND1*
X68579000Y-57396500D03*
D11*
X65322934Y-60002566D03*
D12*
G04 #@! TD*
G04 #@! TO.N,GND1*
G04 #@! TO.C,P1*
X65411322Y-59914178D02*
X65234546Y-60090954D01*
D11*
G04 #@! TO.P,P1,6*
G04 #@! TO.N,GND1*
X68535066Y-60002566D03*
D12*
G04 #@! TD*
G04 #@! TO.N,GND1*
G04 #@! TO.C,P1*
X68446678Y-59914178D02*
X68623454Y-60090954D01*
D15*
G04 #@! TO.P,P1,6*
G04 #@! TO.N,GND1*
X63604000Y-58356500D03*
X70254000Y-58356500D03*
D16*
G04 #@! TO.P,P1,*
G04 #@! TO.N,*
X64129000Y-59396500D03*
X69729000Y-59396500D03*
G04 #@! TD*
D17*
G04 #@! TO.P,P2,1*
G04 #@! TO.N,GND1*
X78881800Y-57318800D03*
G04 #@! TO.P,P2,2*
G04 #@! TO.N,D-*
X78381800Y-57318800D03*
D18*
G04 #@! TO.P,P2,~*
G04 #@! TO.N,N/C*
X79671800Y-60068800D03*
X73591800Y-60068800D03*
D17*
G04 #@! TO.P,P2,3*
G04 #@! TO.N,GND1*
X77881800Y-57318800D03*
G04 #@! TO.P,P2,4*
G04 #@! TO.N,D+*
X77381800Y-57318800D03*
G04 #@! TO.P,P2,5*
G04 #@! TO.N,GND1*
X76881800Y-57318800D03*
G04 #@! TO.P,P2,6*
G04 #@! TO.N,ID*
X76381800Y-57318800D03*
G04 #@! TO.P,P2,7*
G04 #@! TO.N,V_USB*
X75881800Y-57318800D03*
G04 #@! TO.P,P2,8*
X75381800Y-57318800D03*
G04 #@! TO.P,P2,9*
X74881800Y-57318800D03*
G04 #@! TO.P,P2,10*
G04 #@! TO.N,GND1*
X74381800Y-57318800D03*
G04 #@! TD*
D19*
G04 #@! TO.N,GND1*
X73319640Y-57398920D03*
X79969360Y-57439560D03*
X79476600Y-58775600D03*
G04 #@! TD*
D20*
G04 #@! TO.N,D-*
X72649080Y-61376560D02*
X72649080Y-61353700D01*
X66738500Y-60899040D02*
X66738500Y-60947300D01*
X72649080Y-61353700D02*
X72654569Y-61348211D01*
X66279000Y-60439540D02*
X66738500Y-60899040D01*
X66738500Y-60947300D02*
X67167760Y-61376560D01*
X72654569Y-61348211D02*
X72744438Y-61348210D01*
X66279000Y-58356500D02*
X66279000Y-60439540D01*
X72481440Y-61376560D02*
X72649080Y-61376560D01*
X67167760Y-61376560D02*
X72481440Y-61376560D01*
X74893706Y-61376560D02*
X77316866Y-58953400D01*
X73888600Y-61376560D02*
X74893706Y-61376560D01*
X73888600Y-61376560D02*
X74012588Y-61376560D01*
X72481440Y-61376560D02*
X73888600Y-61376560D01*
X77316866Y-58953400D02*
X77546200Y-58953400D01*
X77546200Y-58953400D02*
X77952600Y-58547000D01*
X77952600Y-58547000D02*
X78257400Y-58547000D01*
X78257400Y-58547000D02*
X78460600Y-58343800D01*
X78460600Y-57497600D02*
X78381800Y-57418800D01*
X78460600Y-58343800D02*
X78460600Y-57497600D01*
D21*
G04 #@! TO.N,GND1*
X68429000Y-59206500D02*
X68229000Y-59006500D01*
X68429000Y-59896500D02*
X68429000Y-59206500D01*
D22*
X69152140Y-60619640D02*
X68429000Y-59896500D01*
D23*
X67266820Y-60313781D02*
X67513830Y-60560791D01*
X67266820Y-59998760D02*
X67266820Y-60313781D01*
X68229000Y-59036580D02*
X67266820Y-59998760D01*
X68229000Y-59006500D02*
X68229000Y-59036580D01*
D22*
X67513830Y-60560791D02*
X69152140Y-60619640D01*
D20*
X74381800Y-57418800D02*
X73339520Y-57418800D01*
X73339520Y-57418800D02*
X73319640Y-57398920D01*
X78881800Y-57418800D02*
X79948600Y-57418800D01*
X79948600Y-57418800D02*
X79969360Y-57439560D01*
X76881800Y-56807318D02*
X77048919Y-56640199D01*
X76881800Y-57418800D02*
X76881800Y-56807318D01*
X77881800Y-56807318D02*
X77881800Y-57418800D01*
X77714681Y-56640199D02*
X77881800Y-56807318D01*
X77040001Y-56640199D02*
X77714681Y-56640199D01*
X76881800Y-57418800D02*
X76881800Y-56798400D01*
X76881800Y-56798400D02*
X77040001Y-56640199D01*
X78048919Y-56640199D02*
X78941399Y-56640199D01*
X77881800Y-56807318D02*
X78048919Y-56640199D01*
X78881800Y-56699798D02*
X78881800Y-57418800D01*
X78941399Y-56640199D02*
X78881800Y-56699798D01*
X78881800Y-57418800D02*
X78881800Y-58180800D01*
X78881800Y-58180800D02*
X79476600Y-58775600D01*
X76881800Y-57418800D02*
X76881800Y-58297000D01*
D21*
X76881800Y-58297000D02*
X76123800Y-59055000D01*
D22*
X76123800Y-59055000D02*
X75869800Y-59309000D01*
X75869800Y-59309000D02*
X75615800Y-59309000D01*
D20*
X62755472Y-58356500D02*
X62641172Y-58470800D01*
X63604000Y-58356500D02*
X62755472Y-58356500D01*
G04 #@! TO.N,D+*
X77343000Y-57457600D02*
X77381800Y-57418800D01*
X77343000Y-58496200D02*
X77343000Y-57457600D01*
X74795799Y-61043401D02*
X77343000Y-58496200D01*
X67265667Y-61043401D02*
X74795799Y-61043401D01*
X66929000Y-59443620D02*
X66583810Y-59788810D01*
X66929000Y-59006500D02*
X66929000Y-59443620D01*
X66583810Y-59788810D02*
X66583810Y-60313284D01*
X66583810Y-60313284D02*
X67043310Y-60772784D01*
X67043310Y-60772784D02*
X67043310Y-60821044D01*
X67043310Y-60821044D02*
X67265667Y-61043401D01*
G04 #@! TO.N,ID*
X69057610Y-58766832D02*
X68647278Y-58356500D01*
X68647278Y-58356500D02*
X67579000Y-58356500D01*
X75606672Y-58605410D02*
X73432169Y-58605410D01*
X76381800Y-57418800D02*
X76381800Y-57830282D01*
X76381800Y-57830282D02*
X75606672Y-58605410D01*
X69057610Y-59655440D02*
X69057610Y-59410600D01*
X69427271Y-60025101D02*
X69057610Y-59655440D01*
X70030729Y-60025101D02*
X69427271Y-60025101D01*
X73432169Y-58605410D02*
X72372979Y-59664600D01*
X69057610Y-59410600D02*
X69057610Y-58766832D01*
X72372979Y-59664600D02*
X70391230Y-59664600D01*
X70391230Y-59664600D02*
X70030729Y-60025101D01*
G04 #@! TD*
G04 #@! TO.N,V_USB*
G36*
X76297237Y-56639094D02*
X76231800Y-56639094D01*
X76196179Y-56642603D01*
X76164146Y-56621199D01*
X76113298Y-56600137D01*
X76059319Y-56589400D01*
X75952920Y-56589400D01*
X75883070Y-56659250D01*
X75883070Y-57317530D01*
X75903070Y-57317530D01*
X75903070Y-57320070D01*
X75883070Y-57320070D01*
X75883070Y-57340070D01*
X75880530Y-57340070D01*
X75880530Y-57320070D01*
X75383070Y-57320070D01*
X75383070Y-57978350D01*
X75452920Y-58048200D01*
X75559319Y-58048200D01*
X75613298Y-58037463D01*
X75631800Y-58029799D01*
X75650302Y-58037463D01*
X75704281Y-58048200D01*
X75732830Y-58048200D01*
X75480421Y-58300610D01*
X73447127Y-58300610D01*
X73432169Y-58299137D01*
X73417211Y-58300610D01*
X73417203Y-58300610D01*
X73377572Y-58304513D01*
X73372417Y-58305021D01*
X73314963Y-58322450D01*
X73262012Y-58350752D01*
X73215601Y-58388842D01*
X73206061Y-58400466D01*
X72472110Y-59134418D01*
X71991300Y-59140103D01*
X70480063Y-59156366D01*
X70495694Y-59153257D01*
X70646489Y-59090796D01*
X70782202Y-59000115D01*
X70897615Y-58884702D01*
X70988296Y-58748989D01*
X71050757Y-58598194D01*
X71082600Y-58438110D01*
X71082600Y-58274890D01*
X71050757Y-58114806D01*
X70988296Y-57964011D01*
X70897615Y-57828298D01*
X70782202Y-57712885D01*
X70646489Y-57622204D01*
X70495694Y-57559743D01*
X70335610Y-57527900D01*
X70172390Y-57527900D01*
X70012306Y-57559743D01*
X69861511Y-57622204D01*
X69725798Y-57712885D01*
X69610385Y-57828298D01*
X69519704Y-57964011D01*
X69457243Y-58114806D01*
X69425400Y-58274890D01*
X69425400Y-58438110D01*
X69457243Y-58598194D01*
X69519704Y-58748989D01*
X69548148Y-58791558D01*
X69545644Y-58792056D01*
X69431246Y-58839441D01*
X69362410Y-58885436D01*
X69362410Y-58781789D01*
X69363883Y-58766831D01*
X69362410Y-58751873D01*
X69362410Y-58751866D01*
X69357999Y-58707081D01*
X69340570Y-58649626D01*
X69312268Y-58596675D01*
X69274178Y-58550264D01*
X69262554Y-58540724D01*
X68873390Y-58151561D01*
X68863846Y-58139932D01*
X68817435Y-58101842D01*
X68764484Y-58073540D01*
X68707029Y-58056111D01*
X68662244Y-58051700D01*
X68662236Y-58051700D01*
X68647278Y-58050227D01*
X68632320Y-58051700D01*
X68091434Y-58051700D01*
X68091136Y-58050789D01*
X68047426Y-57973138D01*
X67927381Y-57801695D01*
X67869362Y-57734063D01*
X67775828Y-57660658D01*
X67669771Y-57606910D01*
X67555266Y-57574886D01*
X67436715Y-57565816D01*
X67318671Y-57580049D01*
X67205672Y-57617037D01*
X67102061Y-57675360D01*
X67011818Y-57752775D01*
X66938413Y-57846309D01*
X66929000Y-57864883D01*
X66919587Y-57846309D01*
X66846182Y-57752775D01*
X66755939Y-57675360D01*
X66652328Y-57617037D01*
X66539329Y-57580049D01*
X66421285Y-57565816D01*
X66302734Y-57574886D01*
X66188229Y-57606910D01*
X66082172Y-57660658D01*
X65988638Y-57734063D01*
X65930619Y-57801695D01*
X65810574Y-57973138D01*
X65766864Y-58050789D01*
X65729876Y-58163788D01*
X65715643Y-58281832D01*
X65724375Y-58395962D01*
X65703035Y-58389442D01*
X65580270Y-58377100D01*
X65480270Y-58377100D01*
X65480270Y-59005230D01*
X65500270Y-59005230D01*
X65500270Y-59007770D01*
X65480270Y-59007770D01*
X65480270Y-59027770D01*
X65477730Y-59027770D01*
X65477730Y-59007770D01*
X64819451Y-59007770D01*
X64757549Y-59106214D01*
X64761447Y-59128045D01*
X64795281Y-59240395D01*
X64738143Y-59236767D01*
X64733444Y-59213144D01*
X64686059Y-59098746D01*
X64617266Y-58995791D01*
X64529709Y-58908234D01*
X64527542Y-58906786D01*
X64757549Y-58906786D01*
X64819451Y-59005230D01*
X65477730Y-59005230D01*
X65477730Y-58377100D01*
X65377730Y-58377100D01*
X65254965Y-58389442D01*
X65136966Y-58425497D01*
X65028269Y-58483879D01*
X64933050Y-58562345D01*
X64854968Y-58657880D01*
X64797025Y-58766812D01*
X64761447Y-58884955D01*
X64757549Y-58906786D01*
X64527542Y-58906786D01*
X64426754Y-58839441D01*
X64312356Y-58792056D01*
X64309852Y-58791558D01*
X64338296Y-58748989D01*
X64400757Y-58598194D01*
X64432600Y-58438110D01*
X64432600Y-58274890D01*
X64400757Y-58114806D01*
X64338296Y-57964011D01*
X64247615Y-57828298D01*
X64132202Y-57712885D01*
X63996489Y-57622204D01*
X63845694Y-57559743D01*
X63685610Y-57527900D01*
X63522390Y-57527900D01*
X63362306Y-57559743D01*
X63211511Y-57622204D01*
X63115428Y-57686405D01*
X63114820Y-57396500D01*
X64547359Y-57396500D01*
X64559496Y-57519727D01*
X64595440Y-57638219D01*
X64653810Y-57747421D01*
X64732362Y-57843138D01*
X64828079Y-57921690D01*
X64937281Y-57980060D01*
X65055773Y-58016004D01*
X65148125Y-58025100D01*
X65409875Y-58025100D01*
X65502227Y-58016004D01*
X65620719Y-57980060D01*
X65729921Y-57921690D01*
X65825638Y-57843138D01*
X65904190Y-57747421D01*
X65962560Y-57638219D01*
X65998504Y-57519727D01*
X66010641Y-57396500D01*
X67847359Y-57396500D01*
X67859496Y-57519727D01*
X67895440Y-57638219D01*
X67953810Y-57747421D01*
X68032362Y-57843138D01*
X68128079Y-57921690D01*
X68237281Y-57980060D01*
X68355773Y-58016004D01*
X68448125Y-58025100D01*
X68709875Y-58025100D01*
X68802227Y-58016004D01*
X68920719Y-57980060D01*
X69029921Y-57921690D01*
X69125638Y-57843138D01*
X69204190Y-57747421D01*
X69262560Y-57638219D01*
X69298504Y-57519727D01*
X69310641Y-57396500D01*
X69305582Y-57345134D01*
X72773540Y-57345134D01*
X72773540Y-57452706D01*
X72794527Y-57558211D01*
X72835693Y-57657595D01*
X72895457Y-57747038D01*
X72971522Y-57823103D01*
X73060965Y-57882867D01*
X73160349Y-57924033D01*
X73265854Y-57945020D01*
X73373426Y-57945020D01*
X73478931Y-57924033D01*
X73578315Y-57882867D01*
X73667758Y-57823103D01*
X73743823Y-57747038D01*
X73759484Y-57723600D01*
X74002094Y-57723600D01*
X74002094Y-57768800D01*
X74006508Y-57813613D01*
X74019579Y-57856705D01*
X74040806Y-57896418D01*
X74069373Y-57931227D01*
X74104182Y-57959794D01*
X74143895Y-57981021D01*
X74186987Y-57994092D01*
X74231800Y-57998506D01*
X74531800Y-57998506D01*
X74567421Y-57994997D01*
X74599454Y-58016401D01*
X74650302Y-58037463D01*
X74704281Y-58048200D01*
X74810680Y-58048200D01*
X74880530Y-57978350D01*
X74880530Y-57320070D01*
X74883070Y-57320070D01*
X74883070Y-57978350D01*
X74952920Y-58048200D01*
X75059319Y-58048200D01*
X75113298Y-58037463D01*
X75131800Y-58029799D01*
X75150302Y-58037463D01*
X75204281Y-58048200D01*
X75310680Y-58048200D01*
X75380530Y-57978350D01*
X75380530Y-57320070D01*
X74883070Y-57320070D01*
X74880530Y-57320070D01*
X74860530Y-57320070D01*
X74860530Y-57317530D01*
X74880530Y-57317530D01*
X74880530Y-56659250D01*
X74883070Y-56659250D01*
X74883070Y-57317530D01*
X75380530Y-57317530D01*
X75380530Y-56659250D01*
X75383070Y-56659250D01*
X75383070Y-57317530D01*
X75880530Y-57317530D01*
X75880530Y-56659250D01*
X75810680Y-56589400D01*
X75704281Y-56589400D01*
X75650302Y-56600137D01*
X75631800Y-56607801D01*
X75613298Y-56600137D01*
X75559319Y-56589400D01*
X75452920Y-56589400D01*
X75383070Y-56659250D01*
X75380530Y-56659250D01*
X75310680Y-56589400D01*
X75204281Y-56589400D01*
X75150302Y-56600137D01*
X75131800Y-56607801D01*
X75113298Y-56600137D01*
X75059319Y-56589400D01*
X74952920Y-56589400D01*
X74883070Y-56659250D01*
X74880530Y-56659250D01*
X74810680Y-56589400D01*
X74704281Y-56589400D01*
X74650302Y-56600137D01*
X74599454Y-56621199D01*
X74567421Y-56642603D01*
X74531800Y-56639094D01*
X74231800Y-56639094D01*
X74186987Y-56643508D01*
X74143895Y-56656579D01*
X74104182Y-56677806D01*
X74069373Y-56706373D01*
X74040806Y-56741182D01*
X74019579Y-56780895D01*
X74006508Y-56823987D01*
X74002094Y-56868800D01*
X74002094Y-57114000D01*
X73786051Y-57114000D01*
X73743823Y-57050802D01*
X73667758Y-56974737D01*
X73578315Y-56914973D01*
X73478931Y-56873807D01*
X73373426Y-56852820D01*
X73265854Y-56852820D01*
X73160349Y-56873807D01*
X73060965Y-56914973D01*
X72971522Y-56974737D01*
X72895457Y-57050802D01*
X72835693Y-57140245D01*
X72794527Y-57239629D01*
X72773540Y-57345134D01*
X69305582Y-57345134D01*
X69298504Y-57273273D01*
X69262560Y-57154781D01*
X69204190Y-57045579D01*
X69125638Y-56949862D01*
X69029921Y-56871310D01*
X68920719Y-56812940D01*
X68802227Y-56776996D01*
X68709875Y-56767900D01*
X68448125Y-56767900D01*
X68355773Y-56776996D01*
X68237281Y-56812940D01*
X68128079Y-56871310D01*
X68032362Y-56949862D01*
X67953810Y-57045579D01*
X67895440Y-57154781D01*
X67859496Y-57273273D01*
X67847359Y-57396500D01*
X66010641Y-57396500D01*
X65998504Y-57273273D01*
X65962560Y-57154781D01*
X65904190Y-57045579D01*
X65825638Y-56949862D01*
X65729921Y-56871310D01*
X65620719Y-56812940D01*
X65502227Y-56776996D01*
X65409875Y-56767900D01*
X65148125Y-56767900D01*
X65055773Y-56776996D01*
X64937281Y-56812940D01*
X64828079Y-56871310D01*
X64732362Y-56949862D01*
X64653810Y-57045579D01*
X64595440Y-57154781D01*
X64559496Y-57273273D01*
X64547359Y-57396500D01*
X63114820Y-57396500D01*
X63113104Y-56578921D01*
X76296993Y-56578921D01*
X76297237Y-56639094D01*
X76297237Y-56639094D01*
G37*
X76297237Y-56639094D02*
X76231800Y-56639094D01*
X76196179Y-56642603D01*
X76164146Y-56621199D01*
X76113298Y-56600137D01*
X76059319Y-56589400D01*
X75952920Y-56589400D01*
X75883070Y-56659250D01*
X75883070Y-57317530D01*
X75903070Y-57317530D01*
X75903070Y-57320070D01*
X75883070Y-57320070D01*
X75883070Y-57340070D01*
X75880530Y-57340070D01*
X75880530Y-57320070D01*
X75383070Y-57320070D01*
X75383070Y-57978350D01*
X75452920Y-58048200D01*
X75559319Y-58048200D01*
X75613298Y-58037463D01*
X75631800Y-58029799D01*
X75650302Y-58037463D01*
X75704281Y-58048200D01*
X75732830Y-58048200D01*
X75480421Y-58300610D01*
X73447127Y-58300610D01*
X73432169Y-58299137D01*
X73417211Y-58300610D01*
X73417203Y-58300610D01*
X73377572Y-58304513D01*
X73372417Y-58305021D01*
X73314963Y-58322450D01*
X73262012Y-58350752D01*
X73215601Y-58388842D01*
X73206061Y-58400466D01*
X72472110Y-59134418D01*
X71991300Y-59140103D01*
X70480063Y-59156366D01*
X70495694Y-59153257D01*
X70646489Y-59090796D01*
X70782202Y-59000115D01*
X70897615Y-58884702D01*
X70988296Y-58748989D01*
X71050757Y-58598194D01*
X71082600Y-58438110D01*
X71082600Y-58274890D01*
X71050757Y-58114806D01*
X70988296Y-57964011D01*
X70897615Y-57828298D01*
X70782202Y-57712885D01*
X70646489Y-57622204D01*
X70495694Y-57559743D01*
X70335610Y-57527900D01*
X70172390Y-57527900D01*
X70012306Y-57559743D01*
X69861511Y-57622204D01*
X69725798Y-57712885D01*
X69610385Y-57828298D01*
X69519704Y-57964011D01*
X69457243Y-58114806D01*
X69425400Y-58274890D01*
X69425400Y-58438110D01*
X69457243Y-58598194D01*
X69519704Y-58748989D01*
X69548148Y-58791558D01*
X69545644Y-58792056D01*
X69431246Y-58839441D01*
X69362410Y-58885436D01*
X69362410Y-58781789D01*
X69363883Y-58766831D01*
X69362410Y-58751873D01*
X69362410Y-58751866D01*
X69357999Y-58707081D01*
X69340570Y-58649626D01*
X69312268Y-58596675D01*
X69274178Y-58550264D01*
X69262554Y-58540724D01*
X68873390Y-58151561D01*
X68863846Y-58139932D01*
X68817435Y-58101842D01*
X68764484Y-58073540D01*
X68707029Y-58056111D01*
X68662244Y-58051700D01*
X68662236Y-58051700D01*
X68647278Y-58050227D01*
X68632320Y-58051700D01*
X68091434Y-58051700D01*
X68091136Y-58050789D01*
X68047426Y-57973138D01*
X67927381Y-57801695D01*
X67869362Y-57734063D01*
X67775828Y-57660658D01*
X67669771Y-57606910D01*
X67555266Y-57574886D01*
X67436715Y-57565816D01*
X67318671Y-57580049D01*
X67205672Y-57617037D01*
X67102061Y-57675360D01*
X67011818Y-57752775D01*
X66938413Y-57846309D01*
X66929000Y-57864883D01*
X66919587Y-57846309D01*
X66846182Y-57752775D01*
X66755939Y-57675360D01*
X66652328Y-57617037D01*
X66539329Y-57580049D01*
X66421285Y-57565816D01*
X66302734Y-57574886D01*
X66188229Y-57606910D01*
X66082172Y-57660658D01*
X65988638Y-57734063D01*
X65930619Y-57801695D01*
X65810574Y-57973138D01*
X65766864Y-58050789D01*
X65729876Y-58163788D01*
X65715643Y-58281832D01*
X65724375Y-58395962D01*
X65703035Y-58389442D01*
X65580270Y-58377100D01*
X65480270Y-58377100D01*
X65480270Y-59005230D01*
X65500270Y-59005230D01*
X65500270Y-59007770D01*
X65480270Y-59007770D01*
X65480270Y-59027770D01*
X65477730Y-59027770D01*
X65477730Y-59007770D01*
X64819451Y-59007770D01*
X64757549Y-59106214D01*
X64761447Y-59128045D01*
X64795281Y-59240395D01*
X64738143Y-59236767D01*
X64733444Y-59213144D01*
X64686059Y-59098746D01*
X64617266Y-58995791D01*
X64529709Y-58908234D01*
X64527542Y-58906786D01*
X64757549Y-58906786D01*
X64819451Y-59005230D01*
X65477730Y-59005230D01*
X65477730Y-58377100D01*
X65377730Y-58377100D01*
X65254965Y-58389442D01*
X65136966Y-58425497D01*
X65028269Y-58483879D01*
X64933050Y-58562345D01*
X64854968Y-58657880D01*
X64797025Y-58766812D01*
X64761447Y-58884955D01*
X64757549Y-58906786D01*
X64527542Y-58906786D01*
X64426754Y-58839441D01*
X64312356Y-58792056D01*
X64309852Y-58791558D01*
X64338296Y-58748989D01*
X64400757Y-58598194D01*
X64432600Y-58438110D01*
X64432600Y-58274890D01*
X64400757Y-58114806D01*
X64338296Y-57964011D01*
X64247615Y-57828298D01*
X64132202Y-57712885D01*
X63996489Y-57622204D01*
X63845694Y-57559743D01*
X63685610Y-57527900D01*
X63522390Y-57527900D01*
X63362306Y-57559743D01*
X63211511Y-57622204D01*
X63115428Y-57686405D01*
X63114820Y-57396500D01*
X64547359Y-57396500D01*
X64559496Y-57519727D01*
X64595440Y-57638219D01*
X64653810Y-57747421D01*
X64732362Y-57843138D01*
X64828079Y-57921690D01*
X64937281Y-57980060D01*
X65055773Y-58016004D01*
X65148125Y-58025100D01*
X65409875Y-58025100D01*
X65502227Y-58016004D01*
X65620719Y-57980060D01*
X65729921Y-57921690D01*
X65825638Y-57843138D01*
X65904190Y-57747421D01*
X65962560Y-57638219D01*
X65998504Y-57519727D01*
X66010641Y-57396500D01*
X67847359Y-57396500D01*
X67859496Y-57519727D01*
X67895440Y-57638219D01*
X67953810Y-57747421D01*
X68032362Y-57843138D01*
X68128079Y-57921690D01*
X68237281Y-57980060D01*
X68355773Y-58016004D01*
X68448125Y-58025100D01*
X68709875Y-58025100D01*
X68802227Y-58016004D01*
X68920719Y-57980060D01*
X69029921Y-57921690D01*
X69125638Y-57843138D01*
X69204190Y-57747421D01*
X69262560Y-57638219D01*
X69298504Y-57519727D01*
X69310641Y-57396500D01*
X69305582Y-57345134D01*
X72773540Y-57345134D01*
X72773540Y-57452706D01*
X72794527Y-57558211D01*
X72835693Y-57657595D01*
X72895457Y-57747038D01*
X72971522Y-57823103D01*
X73060965Y-57882867D01*
X73160349Y-57924033D01*
X73265854Y-57945020D01*
X73373426Y-57945020D01*
X73478931Y-57924033D01*
X73578315Y-57882867D01*
X73667758Y-57823103D01*
X73743823Y-57747038D01*
X73759484Y-57723600D01*
X74002094Y-57723600D01*
X74002094Y-57768800D01*
X74006508Y-57813613D01*
X74019579Y-57856705D01*
X74040806Y-57896418D01*
X74069373Y-57931227D01*
X74104182Y-57959794D01*
X74143895Y-57981021D01*
X74186987Y-57994092D01*
X74231800Y-57998506D01*
X74531800Y-57998506D01*
X74567421Y-57994997D01*
X74599454Y-58016401D01*
X74650302Y-58037463D01*
X74704281Y-58048200D01*
X74810680Y-58048200D01*
X74880530Y-57978350D01*
X74880530Y-57320070D01*
X74883070Y-57320070D01*
X74883070Y-57978350D01*
X74952920Y-58048200D01*
X75059319Y-58048200D01*
X75113298Y-58037463D01*
X75131800Y-58029799D01*
X75150302Y-58037463D01*
X75204281Y-58048200D01*
X75310680Y-58048200D01*
X75380530Y-57978350D01*
X75380530Y-57320070D01*
X74883070Y-57320070D01*
X74880530Y-57320070D01*
X74860530Y-57320070D01*
X74860530Y-57317530D01*
X74880530Y-57317530D01*
X74880530Y-56659250D01*
X74883070Y-56659250D01*
X74883070Y-57317530D01*
X75380530Y-57317530D01*
X75380530Y-56659250D01*
X75383070Y-56659250D01*
X75383070Y-57317530D01*
X75880530Y-57317530D01*
X75880530Y-56659250D01*
X75810680Y-56589400D01*
X75704281Y-56589400D01*
X75650302Y-56600137D01*
X75631800Y-56607801D01*
X75613298Y-56600137D01*
X75559319Y-56589400D01*
X75452920Y-56589400D01*
X75383070Y-56659250D01*
X75380530Y-56659250D01*
X75310680Y-56589400D01*
X75204281Y-56589400D01*
X75150302Y-56600137D01*
X75131800Y-56607801D01*
X75113298Y-56600137D01*
X75059319Y-56589400D01*
X74952920Y-56589400D01*
X74883070Y-56659250D01*
X74880530Y-56659250D01*
X74810680Y-56589400D01*
X74704281Y-56589400D01*
X74650302Y-56600137D01*
X74599454Y-56621199D01*
X74567421Y-56642603D01*
X74531800Y-56639094D01*
X74231800Y-56639094D01*
X74186987Y-56643508D01*
X74143895Y-56656579D01*
X74104182Y-56677806D01*
X74069373Y-56706373D01*
X74040806Y-56741182D01*
X74019579Y-56780895D01*
X74006508Y-56823987D01*
X74002094Y-56868800D01*
X74002094Y-57114000D01*
X73786051Y-57114000D01*
X73743823Y-57050802D01*
X73667758Y-56974737D01*
X73578315Y-56914973D01*
X73478931Y-56873807D01*
X73373426Y-56852820D01*
X73265854Y-56852820D01*
X73160349Y-56873807D01*
X73060965Y-56914973D01*
X72971522Y-56974737D01*
X72895457Y-57050802D01*
X72835693Y-57140245D01*
X72794527Y-57239629D01*
X72773540Y-57345134D01*
X69305582Y-57345134D01*
X69298504Y-57273273D01*
X69262560Y-57154781D01*
X69204190Y-57045579D01*
X69125638Y-56949862D01*
X69029921Y-56871310D01*
X68920719Y-56812940D01*
X68802227Y-56776996D01*
X68709875Y-56767900D01*
X68448125Y-56767900D01*
X68355773Y-56776996D01*
X68237281Y-56812940D01*
X68128079Y-56871310D01*
X68032362Y-56949862D01*
X67953810Y-57045579D01*
X67895440Y-57154781D01*
X67859496Y-57273273D01*
X67847359Y-57396500D01*
X66010641Y-57396500D01*
X65998504Y-57273273D01*
X65962560Y-57154781D01*
X65904190Y-57045579D01*
X65825638Y-56949862D01*
X65729921Y-56871310D01*
X65620719Y-56812940D01*
X65502227Y-56776996D01*
X65409875Y-56767900D01*
X65148125Y-56767900D01*
X65055773Y-56776996D01*
X64937281Y-56812940D01*
X64828079Y-56871310D01*
X64732362Y-56949862D01*
X64653810Y-57045579D01*
X64595440Y-57154781D01*
X64559496Y-57273273D01*
X64547359Y-57396500D01*
X63114820Y-57396500D01*
X63113104Y-56578921D01*
X76296993Y-56578921D01*
X76297237Y-56639094D01*
G04 #@! TO.N,GND1*
G36*
X82618623Y-61921721D02*
X77779880Y-61921721D01*
X77779880Y-59979560D01*
X77774080Y-59950400D01*
X77757562Y-59925678D01*
X77525880Y-59693996D01*
X77525880Y-59568800D01*
X79292094Y-59568800D01*
X79292094Y-60568800D01*
X79296508Y-60613613D01*
X79309579Y-60656705D01*
X79330806Y-60696418D01*
X79359373Y-60731227D01*
X79394182Y-60759794D01*
X79433895Y-60781021D01*
X79476987Y-60794092D01*
X79521800Y-60798506D01*
X79821800Y-60798506D01*
X79866613Y-60794092D01*
X79909705Y-60781021D01*
X79949418Y-60759794D01*
X79984227Y-60731227D01*
X80012794Y-60696418D01*
X80034021Y-60656705D01*
X80047092Y-60613613D01*
X80051506Y-60568800D01*
X80051506Y-59568800D01*
X80047092Y-59523987D01*
X80034021Y-59480895D01*
X80012794Y-59441182D01*
X79984227Y-59406373D01*
X79949418Y-59377806D01*
X79909705Y-59356579D01*
X79866613Y-59343508D01*
X79821800Y-59339094D01*
X79521800Y-59339094D01*
X79476987Y-59343508D01*
X79433895Y-59356579D01*
X79394182Y-59377806D01*
X79359373Y-59406373D01*
X79330806Y-59441182D01*
X79309579Y-59480895D01*
X79296508Y-59523987D01*
X79292094Y-59568800D01*
X77525880Y-59568800D01*
X77525880Y-59517280D01*
X77525409Y-59508821D01*
X77497414Y-59258200D01*
X77531242Y-59258200D01*
X77546200Y-59259673D01*
X77561158Y-59258200D01*
X77561166Y-59258200D01*
X77605951Y-59253789D01*
X77663406Y-59236360D01*
X77716357Y-59208058D01*
X77762768Y-59169968D01*
X77772312Y-59158339D01*
X78078852Y-58851800D01*
X78242442Y-58851800D01*
X78257400Y-58853273D01*
X78272358Y-58851800D01*
X78272366Y-58851800D01*
X78317151Y-58847389D01*
X78374606Y-58829960D01*
X78427557Y-58801658D01*
X78473968Y-58763568D01*
X78483512Y-58751939D01*
X78665540Y-58569911D01*
X78677168Y-58560368D01*
X78715258Y-58513957D01*
X78743560Y-58461006D01*
X78760989Y-58403551D01*
X78765400Y-58358766D01*
X78765400Y-58358759D01*
X78766873Y-58343801D01*
X78765400Y-58328843D01*
X78765400Y-58048200D01*
X78810680Y-58048200D01*
X78880530Y-57978350D01*
X78880530Y-57320070D01*
X78883070Y-57320070D01*
X78883070Y-57978350D01*
X78952920Y-58048200D01*
X79059319Y-58048200D01*
X79113298Y-58037463D01*
X79164146Y-58016401D01*
X79209908Y-57985824D01*
X79248825Y-57946907D01*
X79279401Y-57901145D01*
X79300463Y-57850298D01*
X79311200Y-57796318D01*
X79311200Y-57389920D01*
X79241350Y-57320070D01*
X78883070Y-57320070D01*
X78880530Y-57320070D01*
X78860530Y-57320070D01*
X78860530Y-57317530D01*
X78880530Y-57317530D01*
X78880530Y-56659250D01*
X78883070Y-56659250D01*
X78883070Y-57317530D01*
X79241350Y-57317530D01*
X79311200Y-57247680D01*
X79311200Y-56841282D01*
X79300463Y-56787302D01*
X79279401Y-56736455D01*
X79248825Y-56690693D01*
X79209908Y-56651776D01*
X79164146Y-56621199D01*
X79113298Y-56600137D01*
X79059319Y-56589400D01*
X78952920Y-56589400D01*
X78883070Y-56659250D01*
X78880530Y-56659250D01*
X78810680Y-56589400D01*
X78704281Y-56589400D01*
X78650302Y-56600137D01*
X78599454Y-56621199D01*
X78567421Y-56642603D01*
X78531800Y-56639094D01*
X78231800Y-56639094D01*
X78196179Y-56642603D01*
X78164146Y-56621199D01*
X78113298Y-56600137D01*
X78059319Y-56589400D01*
X77952920Y-56589400D01*
X77883070Y-56659250D01*
X77883070Y-57317530D01*
X77903070Y-57317530D01*
X77903070Y-57320070D01*
X77883070Y-57320070D01*
X77883070Y-57978350D01*
X77952920Y-58048200D01*
X78059319Y-58048200D01*
X78113298Y-58037463D01*
X78155800Y-58019858D01*
X78155800Y-58217549D01*
X78131149Y-58242200D01*
X77967557Y-58242200D01*
X77952599Y-58240727D01*
X77937641Y-58242200D01*
X77937634Y-58242200D01*
X77898489Y-58246055D01*
X77892848Y-58246611D01*
X77875419Y-58251898D01*
X77835394Y-58264040D01*
X77782443Y-58292342D01*
X77736032Y-58330432D01*
X77726492Y-58342056D01*
X77647800Y-58420748D01*
X77647800Y-58036427D01*
X77650302Y-58037463D01*
X77704281Y-58048200D01*
X77810680Y-58048200D01*
X77880530Y-57978350D01*
X77880530Y-57320070D01*
X77860530Y-57320070D01*
X77860530Y-57317530D01*
X77880530Y-57317530D01*
X77880530Y-56659250D01*
X77810680Y-56589400D01*
X77704281Y-56589400D01*
X77650302Y-56600137D01*
X77599454Y-56621199D01*
X77567421Y-56642603D01*
X77531800Y-56639094D01*
X77231800Y-56639094D01*
X77196179Y-56642603D01*
X77164146Y-56621199D01*
X77113298Y-56600137D01*
X77059319Y-56589400D01*
X76952920Y-56589400D01*
X76883070Y-56659250D01*
X76883070Y-57317530D01*
X76903070Y-57317530D01*
X76903070Y-57320070D01*
X76883070Y-57320070D01*
X76883070Y-57978350D01*
X76952920Y-58048200D01*
X77038200Y-58048200D01*
X77038200Y-58369948D01*
X76746049Y-58662099D01*
X76609990Y-58600579D01*
X76607699Y-58035480D01*
X76607903Y-58035232D01*
X76607909Y-58035226D01*
X76617294Y-58023790D01*
X76650302Y-58037463D01*
X76704281Y-58048200D01*
X76810680Y-58048200D01*
X76880530Y-57978350D01*
X76880530Y-57320070D01*
X76860530Y-57320070D01*
X76860530Y-57317530D01*
X76880530Y-57317530D01*
X76880530Y-56659250D01*
X76810680Y-56589400D01*
X76704281Y-56589400D01*
X76650302Y-56600137D01*
X76601962Y-56620160D01*
X76601795Y-56578921D01*
X82618622Y-56578921D01*
X82618623Y-61921721D01*
X82618623Y-61921721D01*
G37*
X82618623Y-61921721D02*
X77779880Y-61921721D01*
X77779880Y-59979560D01*
X77774080Y-59950400D01*
X77757562Y-59925678D01*
X77525880Y-59693996D01*
X77525880Y-59568800D01*
X79292094Y-59568800D01*
X79292094Y-60568800D01*
X79296508Y-60613613D01*
X79309579Y-60656705D01*
X79330806Y-60696418D01*
X79359373Y-60731227D01*
X79394182Y-60759794D01*
X79433895Y-60781021D01*
X79476987Y-60794092D01*
X79521800Y-60798506D01*
X79821800Y-60798506D01*
X79866613Y-60794092D01*
X79909705Y-60781021D01*
X79949418Y-60759794D01*
X79984227Y-60731227D01*
X80012794Y-60696418D01*
X80034021Y-60656705D01*
X80047092Y-60613613D01*
X80051506Y-60568800D01*
X80051506Y-59568800D01*
X80047092Y-59523987D01*
X80034021Y-59480895D01*
X80012794Y-59441182D01*
X79984227Y-59406373D01*
X79949418Y-59377806D01*
X79909705Y-59356579D01*
X79866613Y-59343508D01*
X79821800Y-59339094D01*
X79521800Y-59339094D01*
X79476987Y-59343508D01*
X79433895Y-59356579D01*
X79394182Y-59377806D01*
X79359373Y-59406373D01*
X79330806Y-59441182D01*
X79309579Y-59480895D01*
X79296508Y-59523987D01*
X79292094Y-59568800D01*
X77525880Y-59568800D01*
X77525880Y-59517280D01*
X77525409Y-59508821D01*
X77497414Y-59258200D01*
X77531242Y-59258200D01*
X77546200Y-59259673D01*
X77561158Y-59258200D01*
X77561166Y-59258200D01*
X77605951Y-59253789D01*
X77663406Y-59236360D01*
X77716357Y-59208058D01*
X77762768Y-59169968D01*
X77772312Y-59158339D01*
X78078852Y-58851800D01*
X78242442Y-58851800D01*
X78257400Y-58853273D01*
X78272358Y-58851800D01*
X78272366Y-58851800D01*
X78317151Y-58847389D01*
X78374606Y-58829960D01*
X78427557Y-58801658D01*
X78473968Y-58763568D01*
X78483512Y-58751939D01*
X78665540Y-58569911D01*
X78677168Y-58560368D01*
X78715258Y-58513957D01*
X78743560Y-58461006D01*
X78760989Y-58403551D01*
X78765400Y-58358766D01*
X78765400Y-58358759D01*
X78766873Y-58343801D01*
X78765400Y-58328843D01*
X78765400Y-58048200D01*
X78810680Y-58048200D01*
X78880530Y-57978350D01*
X78880530Y-57320070D01*
X78883070Y-57320070D01*
X78883070Y-57978350D01*
X78952920Y-58048200D01*
X79059319Y-58048200D01*
X79113298Y-58037463D01*
X79164146Y-58016401D01*
X79209908Y-57985824D01*
X79248825Y-57946907D01*
X79279401Y-57901145D01*
X79300463Y-57850298D01*
X79311200Y-57796318D01*
X79311200Y-57389920D01*
X79241350Y-57320070D01*
X78883070Y-57320070D01*
X78880530Y-57320070D01*
X78860530Y-57320070D01*
X78860530Y-57317530D01*
X78880530Y-57317530D01*
X78880530Y-56659250D01*
X78883070Y-56659250D01*
X78883070Y-57317530D01*
X79241350Y-57317530D01*
X79311200Y-57247680D01*
X79311200Y-56841282D01*
X79300463Y-56787302D01*
X79279401Y-56736455D01*
X79248825Y-56690693D01*
X79209908Y-56651776D01*
X79164146Y-56621199D01*
X79113298Y-56600137D01*
X79059319Y-56589400D01*
X78952920Y-56589400D01*
X78883070Y-56659250D01*
X78880530Y-56659250D01*
X78810680Y-56589400D01*
X78704281Y-56589400D01*
X78650302Y-56600137D01*
X78599454Y-56621199D01*
X78567421Y-56642603D01*
X78531800Y-56639094D01*
X78231800Y-56639094D01*
X78196179Y-56642603D01*
X78164146Y-56621199D01*
X78113298Y-56600137D01*
X78059319Y-56589400D01*
X77952920Y-56589400D01*
X77883070Y-56659250D01*
X77883070Y-57317530D01*
X77903070Y-57317530D01*
X77903070Y-57320070D01*
X77883070Y-57320070D01*
X77883070Y-57978350D01*
X77952920Y-58048200D01*
X78059319Y-58048200D01*
X78113298Y-58037463D01*
X78155800Y-58019858D01*
X78155800Y-58217549D01*
X78131149Y-58242200D01*
X77967557Y-58242200D01*
X77952599Y-58240727D01*
X77937641Y-58242200D01*
X77937634Y-58242200D01*
X77898489Y-58246055D01*
X77892848Y-58246611D01*
X77875419Y-58251898D01*
X77835394Y-58264040D01*
X77782443Y-58292342D01*
X77736032Y-58330432D01*
X77726492Y-58342056D01*
X77647800Y-58420748D01*
X77647800Y-58036427D01*
X77650302Y-58037463D01*
X77704281Y-58048200D01*
X77810680Y-58048200D01*
X77880530Y-57978350D01*
X77880530Y-57320070D01*
X77860530Y-57320070D01*
X77860530Y-57317530D01*
X77880530Y-57317530D01*
X77880530Y-56659250D01*
X77810680Y-56589400D01*
X77704281Y-56589400D01*
X77650302Y-56600137D01*
X77599454Y-56621199D01*
X77567421Y-56642603D01*
X77531800Y-56639094D01*
X77231800Y-56639094D01*
X77196179Y-56642603D01*
X77164146Y-56621199D01*
X77113298Y-56600137D01*
X77059319Y-56589400D01*
X76952920Y-56589400D01*
X76883070Y-56659250D01*
X76883070Y-57317530D01*
X76903070Y-57317530D01*
X76903070Y-57320070D01*
X76883070Y-57320070D01*
X76883070Y-57978350D01*
X76952920Y-58048200D01*
X77038200Y-58048200D01*
X77038200Y-58369948D01*
X76746049Y-58662099D01*
X76609990Y-58600579D01*
X76607699Y-58035480D01*
X76607903Y-58035232D01*
X76607909Y-58035226D01*
X76617294Y-58023790D01*
X76650302Y-58037463D01*
X76704281Y-58048200D01*
X76810680Y-58048200D01*
X76880530Y-57978350D01*
X76880530Y-57320070D01*
X76860530Y-57320070D01*
X76860530Y-57317530D01*
X76880530Y-57317530D01*
X76880530Y-56659250D01*
X76810680Y-56589400D01*
X76704281Y-56589400D01*
X76650302Y-56600137D01*
X76601962Y-56620160D01*
X76601795Y-56578921D01*
X82618622Y-56578921D01*
X82618623Y-61921721D01*
G36*
X62811223Y-57970176D02*
X62800984Y-57987703D01*
X62744465Y-58151450D01*
X62720977Y-58323077D01*
X62731424Y-58495989D01*
X62775403Y-58663539D01*
X62812839Y-58740439D01*
X62814201Y-59389618D01*
X62814318Y-59396477D01*
X62822052Y-59637257D01*
X62839547Y-59717910D01*
X62889281Y-59791953D01*
X62963563Y-59841328D01*
X63051087Y-59858517D01*
X63700472Y-59856947D01*
X63728291Y-59884766D01*
X63831246Y-59953559D01*
X63945644Y-60000944D01*
X64067088Y-60025100D01*
X64190912Y-60025100D01*
X64312356Y-60000944D01*
X64426754Y-59953559D01*
X64529709Y-59884766D01*
X64559605Y-59854870D01*
X64589945Y-59854797D01*
X64589117Y-59999276D01*
X64580145Y-60092226D01*
X64588130Y-60171706D01*
X64578105Y-61921721D01*
X60725822Y-61921721D01*
X60725822Y-56578921D01*
X62808304Y-56578921D01*
X62811223Y-57970176D01*
X62811223Y-57970176D01*
G37*
X62811223Y-57970176D02*
X62800984Y-57987703D01*
X62744465Y-58151450D01*
X62720977Y-58323077D01*
X62731424Y-58495989D01*
X62775403Y-58663539D01*
X62812839Y-58740439D01*
X62814201Y-59389618D01*
X62814318Y-59396477D01*
X62822052Y-59637257D01*
X62839547Y-59717910D01*
X62889281Y-59791953D01*
X62963563Y-59841328D01*
X63051087Y-59858517D01*
X63700472Y-59856947D01*
X63728291Y-59884766D01*
X63831246Y-59953559D01*
X63945644Y-60000944D01*
X64067088Y-60025100D01*
X64190912Y-60025100D01*
X64312356Y-60000944D01*
X64426754Y-59953559D01*
X64529709Y-59884766D01*
X64559605Y-59854870D01*
X64589945Y-59854797D01*
X64589117Y-59999276D01*
X64580145Y-60092226D01*
X64588130Y-60171706D01*
X64578105Y-61921721D01*
X60725822Y-61921721D01*
X60725822Y-56578921D01*
X62808304Y-56578921D01*
X62811223Y-57970176D01*
D21*
G36*
X77322680Y-59524350D02*
X77322680Y-59725560D01*
X77332347Y-59774161D01*
X77359877Y-59815363D01*
X77576680Y-60032166D01*
X77576680Y-61870921D01*
X64781600Y-61870921D01*
X64786650Y-60989360D01*
X65074591Y-61088082D01*
X65468351Y-61073392D01*
X65826517Y-60909135D01*
X65834967Y-60694204D01*
X65322934Y-60182171D01*
X65308792Y-60196314D01*
X65129187Y-60016709D01*
X65143329Y-60002566D01*
X65129187Y-59988424D01*
X65308792Y-59808819D01*
X65322934Y-59822961D01*
X65337077Y-59808819D01*
X65516682Y-59988424D01*
X65502539Y-60002566D01*
X65920263Y-60420290D01*
X65916434Y-60439540D01*
X65944033Y-60578287D01*
X66002790Y-60666224D01*
X66002792Y-60666226D01*
X66022628Y-60695913D01*
X66052315Y-60715749D01*
X66398795Y-61062229D01*
X66403533Y-61086048D01*
X66482128Y-61203673D01*
X66511815Y-61223509D01*
X66891549Y-61603243D01*
X66911387Y-61632933D01*
X67029012Y-61711527D01*
X67132740Y-61732160D01*
X67132744Y-61732160D01*
X67167759Y-61739125D01*
X67202774Y-61732160D01*
X72614060Y-61732160D01*
X72649080Y-61739126D01*
X72684100Y-61732160D01*
X74858686Y-61732160D01*
X74893706Y-61739126D01*
X74928726Y-61732160D01*
X75032454Y-61711527D01*
X75150079Y-61632933D01*
X75169917Y-61603243D01*
X77315258Y-59457903D01*
X77322680Y-59524350D01*
X77322680Y-59524350D01*
G37*
X77322680Y-59524350D02*
X77322680Y-59725560D01*
X77332347Y-59774161D01*
X77359877Y-59815363D01*
X77576680Y-60032166D01*
X77576680Y-61870921D01*
X64781600Y-61870921D01*
X64786650Y-60989360D01*
X65074591Y-61088082D01*
X65468351Y-61073392D01*
X65826517Y-60909135D01*
X65834967Y-60694204D01*
X65322934Y-60182171D01*
X65308792Y-60196314D01*
X65129187Y-60016709D01*
X65143329Y-60002566D01*
X65129187Y-59988424D01*
X65308792Y-59808819D01*
X65322934Y-59822961D01*
X65337077Y-59808819D01*
X65516682Y-59988424D01*
X65502539Y-60002566D01*
X65920263Y-60420290D01*
X65916434Y-60439540D01*
X65944033Y-60578287D01*
X66002790Y-60666224D01*
X66002792Y-60666226D01*
X66022628Y-60695913D01*
X66052315Y-60715749D01*
X66398795Y-61062229D01*
X66403533Y-61086048D01*
X66482128Y-61203673D01*
X66511815Y-61223509D01*
X66891549Y-61603243D01*
X66911387Y-61632933D01*
X67029012Y-61711527D01*
X67132740Y-61732160D01*
X67132744Y-61732160D01*
X67167759Y-61739125D01*
X67202774Y-61732160D01*
X72614060Y-61732160D01*
X72649080Y-61739126D01*
X72684100Y-61732160D01*
X74858686Y-61732160D01*
X74893706Y-61739126D01*
X74928726Y-61732160D01*
X75032454Y-61711527D01*
X75150079Y-61632933D01*
X75169917Y-61603243D01*
X77315258Y-59457903D01*
X77322680Y-59524350D01*
G36*
X67449550Y-59754223D02*
X67464240Y-60147983D01*
X67628497Y-60506149D01*
X67843425Y-60514599D01*
X67731084Y-60626940D01*
X67791945Y-60687801D01*
X67412960Y-60687801D01*
X67383015Y-60657855D01*
X67378277Y-60634036D01*
X67299682Y-60516411D01*
X67269995Y-60496575D01*
X66939410Y-60165990D01*
X66939410Y-59936104D01*
X66988661Y-59886853D01*
X67184334Y-59847931D01*
X67400796Y-59703296D01*
X67457760Y-59618043D01*
X67497058Y-59615658D01*
X67449550Y-59754223D01*
X67449550Y-59754223D01*
G37*
X67449550Y-59754223D02*
X67464240Y-60147983D01*
X67628497Y-60506149D01*
X67843425Y-60514599D01*
X67731084Y-60626940D01*
X67791945Y-60687801D01*
X67412960Y-60687801D01*
X67383015Y-60657855D01*
X67378277Y-60634036D01*
X67299682Y-60516411D01*
X67269995Y-60496575D01*
X66939410Y-60165990D01*
X66939410Y-59936104D01*
X66988661Y-59886853D01*
X67184334Y-59847931D01*
X67400796Y-59703296D01*
X67457760Y-59618043D01*
X67497058Y-59615658D01*
X67449550Y-59754223D01*
G36*
X76543008Y-58793298D02*
X74648505Y-60687801D01*
X73998316Y-60687801D01*
X74004988Y-60677816D01*
X74026673Y-60568800D01*
X74026673Y-59568800D01*
X74004988Y-59459784D01*
X73943236Y-59367364D01*
X73850816Y-59305612D01*
X73741800Y-59283927D01*
X73441800Y-59283927D01*
X73332784Y-59305612D01*
X73240364Y-59367364D01*
X73178612Y-59459784D01*
X73156927Y-59568800D01*
X73156927Y-60568800D01*
X73178612Y-60677816D01*
X73185284Y-60687801D01*
X69399909Y-60687801D01*
X69308448Y-60596340D01*
X69508725Y-60577161D01*
X69576082Y-60380701D01*
X69995709Y-60380701D01*
X70030729Y-60387667D01*
X70065749Y-60380701D01*
X70169477Y-60360068D01*
X70287102Y-60281474D01*
X70306940Y-60251784D01*
X70538524Y-60020200D01*
X72337959Y-60020200D01*
X72372979Y-60027166D01*
X72407999Y-60020200D01*
X72511727Y-59999567D01*
X72629352Y-59920973D01*
X72649190Y-59891283D01*
X73228084Y-59312390D01*
X73663795Y-58961010D01*
X75571652Y-58961010D01*
X75606672Y-58967976D01*
X75641692Y-58961010D01*
X75745420Y-58940377D01*
X75863045Y-58861783D01*
X75882883Y-58832093D01*
X76115141Y-58599835D01*
X76543008Y-58793298D01*
X76543008Y-58793298D01*
G37*
X76543008Y-58793298D02*
X74648505Y-60687801D01*
X73998316Y-60687801D01*
X74004988Y-60677816D01*
X74026673Y-60568800D01*
X74026673Y-59568800D01*
X74004988Y-59459784D01*
X73943236Y-59367364D01*
X73850816Y-59305612D01*
X73741800Y-59283927D01*
X73441800Y-59283927D01*
X73332784Y-59305612D01*
X73240364Y-59367364D01*
X73178612Y-59459784D01*
X73156927Y-59568800D01*
X73156927Y-60568800D01*
X73178612Y-60677816D01*
X73185284Y-60687801D01*
X69399909Y-60687801D01*
X69308448Y-60596340D01*
X69508725Y-60577161D01*
X69576082Y-60380701D01*
X69995709Y-60380701D01*
X70030729Y-60387667D01*
X70065749Y-60380701D01*
X70169477Y-60360068D01*
X70287102Y-60281474D01*
X70306940Y-60251784D01*
X70538524Y-60020200D01*
X72337959Y-60020200D01*
X72372979Y-60027166D01*
X72407999Y-60020200D01*
X72511727Y-59999567D01*
X72629352Y-59920973D01*
X72649190Y-59891283D01*
X73228084Y-59312390D01*
X73663795Y-58961010D01*
X75571652Y-58961010D01*
X75606672Y-58967976D01*
X75641692Y-58961010D01*
X75745420Y-58940377D01*
X75863045Y-58861783D01*
X75882883Y-58832093D01*
X76115141Y-58599835D01*
X76543008Y-58793298D01*
G36*
X68506000Y-59831011D02*
X68659483Y-59973432D01*
X68698284Y-59957894D01*
X68728814Y-59988424D01*
X68714671Y-60002566D01*
X68728814Y-60016709D01*
X68549209Y-60196314D01*
X68535066Y-60182171D01*
X68520924Y-60196314D01*
X68341319Y-60016709D01*
X68355461Y-60002566D01*
X68341319Y-59988424D01*
X68506000Y-59823742D01*
X68506000Y-59831011D01*
X68506000Y-59831011D01*
G37*
X68506000Y-59831011D02*
X68659483Y-59973432D01*
X68698284Y-59957894D01*
X68728814Y-59988424D01*
X68714671Y-60002566D01*
X68728814Y-60016709D01*
X68549209Y-60196314D01*
X68535066Y-60182171D01*
X68520924Y-60196314D01*
X68341319Y-60016709D01*
X68355461Y-60002566D01*
X68341319Y-59988424D01*
X68506000Y-59823742D01*
X68506000Y-59831011D01*
G04 #@! TD*
M02*
