G04 #@! TF.GenerationSoftware,KiCad,Pcbnew,(5.0.1)-4*
G04 #@! TF.CreationDate,2018-12-06T20:41:24-05:00*
G04 #@! TF.ProjectId,USBxtendV1,5553427874656E6456312E6B69636164,V1*
G04 #@! TF.SameCoordinates,Original*
G04 #@! TF.FileFunction,Legend,Bot*
G04 #@! TF.FilePolarity,Positive*
%FSLAX46Y46*%
G04 Gerber Fmt 4.6, Leading zero omitted, Abs format (unit mm)*
G04 Created by KiCad (PCBNEW (5.0.1)-4) date 12/6/2018 8:41:24 PM*
%MOMM*%
%LPD*%
G01*
G04 APERTURE LIST*
%ADD10C,0.127000*%
%ADD11C,0.150000*%
%ADD12C,0.075000*%
G04 APERTURE END LIST*
D10*
X71449474Y-56753155D02*
X72066331Y-56753155D01*
X72138902Y-56780974D01*
X72175188Y-56808793D01*
X72211474Y-56864431D01*
X72211474Y-56975707D01*
X72175188Y-57031345D01*
X72138902Y-57059164D01*
X72066331Y-57086983D01*
X71449474Y-57086983D01*
X72175188Y-57337355D02*
X72211474Y-57420812D01*
X72211474Y-57559907D01*
X72175188Y-57615545D01*
X72138902Y-57643364D01*
X72066331Y-57671183D01*
X71993760Y-57671183D01*
X71921188Y-57643364D01*
X71884902Y-57615545D01*
X71848617Y-57559907D01*
X71812331Y-57448631D01*
X71776045Y-57392993D01*
X71739760Y-57365174D01*
X71667188Y-57337355D01*
X71594617Y-57337355D01*
X71522045Y-57365174D01*
X71485760Y-57392993D01*
X71449474Y-57448631D01*
X71449474Y-57587726D01*
X71485760Y-57671183D01*
X71812331Y-58116288D02*
X71848617Y-58199745D01*
X71884902Y-58227564D01*
X71957474Y-58255383D01*
X72066331Y-58255383D01*
X72138902Y-58227564D01*
X72175188Y-58199745D01*
X72211474Y-58144107D01*
X72211474Y-57921555D01*
X71449474Y-57921555D01*
X71449474Y-58116288D01*
X71485760Y-58171926D01*
X71522045Y-58199745D01*
X71594617Y-58227564D01*
X71667188Y-58227564D01*
X71739760Y-58199745D01*
X71776045Y-58171926D01*
X71812331Y-58116288D01*
X71812331Y-57921555D01*
X71449474Y-58450117D02*
X72211474Y-58839583D01*
X71449474Y-58839583D02*
X72211474Y-58450117D01*
X71703474Y-58978679D02*
X71703474Y-59201231D01*
X71449474Y-59062136D02*
X72102617Y-59062136D01*
X72175188Y-59089955D01*
X72211474Y-59145593D01*
X72211474Y-59201231D01*
X72175188Y-59618517D02*
X72211474Y-59562879D01*
X72211474Y-59451602D01*
X72175188Y-59395964D01*
X72102617Y-59368145D01*
X71812331Y-59368145D01*
X71739760Y-59395964D01*
X71703474Y-59451602D01*
X71703474Y-59562879D01*
X71739760Y-59618517D01*
X71812331Y-59646336D01*
X71884902Y-59646336D01*
X71957474Y-59368145D01*
X71703474Y-59896707D02*
X72211474Y-59896707D01*
X71776045Y-59896707D02*
X71739760Y-59924526D01*
X71703474Y-59980164D01*
X71703474Y-60063621D01*
X71739760Y-60119260D01*
X71812331Y-60147079D01*
X72211474Y-60147079D01*
X72211474Y-60675640D02*
X71449474Y-60675640D01*
X72175188Y-60675640D02*
X72211474Y-60620002D01*
X72211474Y-60508726D01*
X72175188Y-60453088D01*
X72138902Y-60425269D01*
X72066331Y-60397450D01*
X71848617Y-60397450D01*
X71776045Y-60425269D01*
X71739760Y-60453088D01*
X71703474Y-60508726D01*
X71703474Y-60620002D01*
X71739760Y-60675640D01*
X71449474Y-60870374D02*
X72211474Y-61065107D01*
X71449474Y-61259840D01*
X72211474Y-61760583D02*
X72211474Y-61426755D01*
X72211474Y-61593669D02*
X71449474Y-61593669D01*
X71558331Y-61538031D01*
X71630902Y-61482393D01*
X71667188Y-61426755D01*
X80911820Y-61418651D02*
X80911820Y-61810537D01*
X80911820Y-61614594D02*
X81927820Y-61614594D01*
X81782678Y-61679908D01*
X81685916Y-61745222D01*
X81637535Y-61810537D01*
X81492392Y-61026765D02*
X81540773Y-61092080D01*
X81589154Y-61124737D01*
X81685916Y-61157394D01*
X81734297Y-61157394D01*
X81831059Y-61124737D01*
X81879440Y-61092080D01*
X81927820Y-61026765D01*
X81927820Y-60896137D01*
X81879440Y-60830822D01*
X81831059Y-60798165D01*
X81734297Y-60765508D01*
X81685916Y-60765508D01*
X81589154Y-60798165D01*
X81540773Y-60830822D01*
X81492392Y-60896137D01*
X81492392Y-61026765D01*
X81444011Y-61092080D01*
X81395630Y-61124737D01*
X81298868Y-61157394D01*
X81105344Y-61157394D01*
X81008582Y-61124737D01*
X80960201Y-61092080D01*
X80911820Y-61026765D01*
X80911820Y-60896137D01*
X80960201Y-60830822D01*
X81008582Y-60798165D01*
X81105344Y-60765508D01*
X81298868Y-60765508D01*
X81395630Y-60798165D01*
X81444011Y-60830822D01*
X81492392Y-60896137D01*
X81976201Y-59981737D02*
X80669916Y-60569565D01*
X80911820Y-59393908D02*
X80911820Y-59785794D01*
X80911820Y-59589851D02*
X81927820Y-59589851D01*
X81782678Y-59655165D01*
X81685916Y-59720480D01*
X81637535Y-59785794D01*
X81831059Y-59132651D02*
X81879440Y-59099994D01*
X81927820Y-59034680D01*
X81927820Y-58871394D01*
X81879440Y-58806080D01*
X81831059Y-58773422D01*
X81734297Y-58740765D01*
X81637535Y-58740765D01*
X81492392Y-58773422D01*
X80911820Y-59165308D01*
X80911820Y-58740765D01*
X81976201Y-57956994D02*
X80669916Y-58544822D01*
X81927820Y-57597765D02*
X81927820Y-57532451D01*
X81879440Y-57467137D01*
X81831059Y-57434480D01*
X81734297Y-57401822D01*
X81540773Y-57369165D01*
X81298868Y-57369165D01*
X81105344Y-57401822D01*
X81008582Y-57434480D01*
X80960201Y-57467137D01*
X80911820Y-57532451D01*
X80911820Y-57597765D01*
X80960201Y-57663080D01*
X81008582Y-57695737D01*
X81105344Y-57728394D01*
X81298868Y-57761051D01*
X81540773Y-57761051D01*
X81734297Y-57728394D01*
X81831059Y-57695737D01*
X81879440Y-57663080D01*
X81927820Y-57597765D01*
X81927820Y-56781337D02*
X81927820Y-56911965D01*
X81879440Y-56977280D01*
X81831059Y-57009937D01*
X81685916Y-57075251D01*
X81492392Y-57107908D01*
X81105344Y-57107908D01*
X81008582Y-57075251D01*
X80960201Y-57042594D01*
X80911820Y-56977280D01*
X80911820Y-56846651D01*
X80960201Y-56781337D01*
X81008582Y-56748680D01*
X81105344Y-56716022D01*
X81347249Y-56716022D01*
X81444011Y-56748680D01*
X81492392Y-56781337D01*
X81540773Y-56846651D01*
X81540773Y-56977280D01*
X81492392Y-57042594D01*
X81444011Y-57075251D01*
X81347249Y-57107908D01*
X62025348Y-56761017D02*
X62061634Y-56809398D01*
X62061634Y-56906160D01*
X62025348Y-56954540D01*
X61952777Y-56978731D01*
X61916491Y-56978731D01*
X61843920Y-56954540D01*
X61807634Y-56906160D01*
X61807634Y-56833588D01*
X61771348Y-56785207D01*
X61698777Y-56761017D01*
X61662491Y-56761017D01*
X61589920Y-56785207D01*
X61553634Y-56833588D01*
X61553634Y-56906160D01*
X61589920Y-56954540D01*
X62025348Y-57389969D02*
X62061634Y-57341588D01*
X62061634Y-57244826D01*
X62025348Y-57196445D01*
X61952777Y-57172255D01*
X61662491Y-57172255D01*
X61589920Y-57196445D01*
X61553634Y-57244826D01*
X61553634Y-57341588D01*
X61589920Y-57389969D01*
X61662491Y-57414160D01*
X61735062Y-57414160D01*
X61807634Y-57172255D01*
X61553634Y-57631874D02*
X62061634Y-57631874D01*
X61626205Y-57631874D02*
X61589920Y-57656064D01*
X61553634Y-57704445D01*
X61553634Y-57777017D01*
X61589920Y-57825398D01*
X61662491Y-57849588D01*
X62061634Y-57849588D01*
X62025348Y-58067302D02*
X62061634Y-58115683D01*
X62061634Y-58212445D01*
X62025348Y-58260826D01*
X61952777Y-58285017D01*
X61916491Y-58285017D01*
X61843920Y-58260826D01*
X61807634Y-58212445D01*
X61807634Y-58139874D01*
X61771348Y-58091493D01*
X61698777Y-58067302D01*
X61662491Y-58067302D01*
X61589920Y-58091493D01*
X61553634Y-58139874D01*
X61553634Y-58212445D01*
X61589920Y-58260826D01*
X62061634Y-58575302D02*
X62025348Y-58526921D01*
X61989062Y-58502731D01*
X61916491Y-58478540D01*
X61698777Y-58478540D01*
X61626205Y-58502731D01*
X61589920Y-58526921D01*
X61553634Y-58575302D01*
X61553634Y-58647874D01*
X61589920Y-58696255D01*
X61626205Y-58720445D01*
X61698777Y-58744636D01*
X61916491Y-58744636D01*
X61989062Y-58720445D01*
X62025348Y-58696255D01*
X62061634Y-58647874D01*
X62061634Y-58575302D01*
X62061634Y-58962350D02*
X61553634Y-58962350D01*
X61698777Y-58962350D02*
X61626205Y-58986540D01*
X61589920Y-59010731D01*
X61553634Y-59059112D01*
X61553634Y-59107493D01*
X62061634Y-59494540D02*
X61662491Y-59494540D01*
X61589920Y-59470350D01*
X61553634Y-59421969D01*
X61553634Y-59325207D01*
X61589920Y-59276826D01*
X62025348Y-59494540D02*
X62061634Y-59446160D01*
X62061634Y-59325207D01*
X62025348Y-59276826D01*
X61952777Y-59252636D01*
X61880205Y-59252636D01*
X61807634Y-59276826D01*
X61771348Y-59325207D01*
X61771348Y-59446160D01*
X61735062Y-59494540D01*
X62061634Y-59736445D02*
X61299634Y-59736445D01*
X61589920Y-59736445D02*
X61553634Y-59784826D01*
X61553634Y-59881588D01*
X61589920Y-59929969D01*
X61626205Y-59954160D01*
X61698777Y-59978350D01*
X61916491Y-59978350D01*
X61989062Y-59954160D01*
X62025348Y-59929969D01*
X62061634Y-59881588D01*
X62061634Y-59784826D01*
X62025348Y-59736445D01*
X62061634Y-60268636D02*
X62025348Y-60220255D01*
X61952777Y-60196064D01*
X61299634Y-60196064D01*
X62025348Y-60655683D02*
X62061634Y-60607302D01*
X62061634Y-60510540D01*
X62025348Y-60462160D01*
X61952777Y-60437969D01*
X61662491Y-60437969D01*
X61589920Y-60462160D01*
X61553634Y-60510540D01*
X61553634Y-60607302D01*
X61589920Y-60655683D01*
X61662491Y-60679874D01*
X61735062Y-60679874D01*
X61807634Y-60437969D01*
X61989062Y-60897588D02*
X62025348Y-60921779D01*
X62061634Y-60897588D01*
X62025348Y-60873398D01*
X61989062Y-60897588D01*
X62061634Y-60897588D01*
X62061634Y-61139493D02*
X61553634Y-61139493D01*
X61299634Y-61139493D02*
X61335920Y-61115302D01*
X61372205Y-61139493D01*
X61335920Y-61163683D01*
X61299634Y-61139493D01*
X61372205Y-61139493D01*
X62061634Y-61453969D02*
X62025348Y-61405588D01*
X61989062Y-61381398D01*
X61916491Y-61357207D01*
X61698777Y-61357207D01*
X61626205Y-61381398D01*
X61589920Y-61405588D01*
X61553634Y-61453969D01*
X61553634Y-61526540D01*
X61589920Y-61574921D01*
X61626205Y-61599112D01*
X61698777Y-61623302D01*
X61916491Y-61623302D01*
X61989062Y-61599112D01*
X62025348Y-61574921D01*
X62061634Y-61526540D01*
X62061634Y-61453969D01*
D11*
G04 #@! TO.C,P1*
X63029000Y-56356500D02*
X70829000Y-56356500D01*
X70829000Y-56356500D02*
X70729000Y-60356500D01*
X70729000Y-60356500D02*
X63029000Y-60356500D01*
X63029000Y-60356500D02*
X63029000Y-56356500D01*
G04 #@! TO.C,P2*
X80131800Y-56918800D02*
X80131800Y-60818800D01*
X80131800Y-60818800D02*
X73181800Y-60818800D01*
X73181800Y-60818800D02*
X73081800Y-60818800D01*
X73081800Y-60818800D02*
X73081800Y-56918800D01*
X73081800Y-56918800D02*
X73831800Y-56918800D01*
X73831800Y-56918800D02*
X73831800Y-58118800D01*
X73831800Y-58118800D02*
X79431800Y-58118800D01*
X79431800Y-58118800D02*
X79431800Y-56868800D01*
X79431800Y-56868800D02*
X80131800Y-56868800D01*
G04 #@! TO.C,P1*
D12*
X67275038Y-61052052D02*
X67275038Y-60652052D01*
X67122657Y-60652052D01*
X67084561Y-60671100D01*
X67065514Y-60690147D01*
X67046466Y-60728242D01*
X67046466Y-60785385D01*
X67065514Y-60823480D01*
X67084561Y-60842528D01*
X67122657Y-60861576D01*
X67275038Y-60861576D01*
X66665514Y-61052052D02*
X66894085Y-61052052D01*
X66779800Y-61052052D02*
X66779800Y-60652052D01*
X66817895Y-60709195D01*
X66855990Y-60747290D01*
X66894085Y-60766338D01*
G04 #@! TO.C,P2*
D10*
X80075072Y-56643369D02*
X80075072Y-56135369D01*
X79881548Y-56135369D01*
X79833167Y-56159560D01*
X79808977Y-56183750D01*
X79784786Y-56232131D01*
X79784786Y-56304702D01*
X79808977Y-56353083D01*
X79833167Y-56377274D01*
X79881548Y-56401464D01*
X80075072Y-56401464D01*
X79591262Y-56183750D02*
X79567072Y-56159560D01*
X79518691Y-56135369D01*
X79397739Y-56135369D01*
X79349358Y-56159560D01*
X79325167Y-56183750D01*
X79300977Y-56232131D01*
X79300977Y-56280512D01*
X79325167Y-56353083D01*
X79615453Y-56643369D01*
X79300977Y-56643369D01*
G04 #@! TD*
M02*
