  0
SECTION
  2
HEADER
  9
$ANGBASE
  50
0.0
  9
$ANGDIR
  70
  1
  9
$MEASUREMENT
  70
0
  0
ENDSEC
  0
SECTION
  2
TABLES
  0
TABLE
  2
LTYPE
  70
4
  0
LTYPE
  5
40F
  2
CONTINUOUS
  70
0
  3
Solid line
  72
65
  73
0
  40
0.0
  0
LTYPE
  5
410
  2
DASHDOT
 70
0
  3
Dash Dot ____ _ ____ _
 72
65
 73
4
 40
2.0
 49
1.25
 49
-0.25
 49
0.25
 49
-0.25
  0
LTYPE
  5
411
  2
DASHED
 70
0
  3
Dashed __ __ __ __ __
 72
65
 73
2
 40
0.75
 49
0.5
 49
-0.25
  0
LTYPE
  5
43B
  2
DOTTED
 70
0
  3
Dotted .  .  .  .
 72
65
 73
2
 40
0.2
 49
0.0
 49
-0.2
  0
ENDTAB
  0
TABLE
  2
STYLE
  70
4
  0
STYLE
  2
KICAD
  70
0
  40
0
  41
1
  42
1
  50
0
  71
0
  3
isocp.shx
  0
STYLE
  2
KICADB
  70
0
  40
0
  41
1
  42
1
  50
0
  71
0
  3
isocp.shx
  0
STYLE
  2
KICADI
  70
0
  40
0
  41
1
  42
1
  50
15
  71
0
  3
isocp.shx
  0
STYLE
  2
KICADBI
  70
0
  40
0
  41
1
  42
1
  50
15
  71
0
  3
isocp.shx
  0
ENDTAB
  0
TABLE
  2
LAYER
  70
30
  0
LAYER
  2
BLACK
  70
0
  62
7
  6
CONTINUOUS
  0
LAYER
  2
GRAY1
  70
0
  62
251
  6
CONTINUOUS
  0
LAYER
  2
GRAY2
  70
0
  62
8
  6
CONTINUOUS
  0
LAYER
  2
GRAY3
  70
0
  62
9
  6
CONTINUOUS
  0
LAYER
  2
WHITE
  70
0
  62
7
  6
CONTINUOUS
  0
LAYER
  2
LYELLOW
  70
0
  62
51
  6
CONTINUOUS
  0
LAYER
  2
BLUE1
  70
0
  62
178
  6
CONTINUOUS
  0
LAYER
  2
GREEN1
  70
0
  62
98
  6
CONTINUOUS
  0
LAYER
  2
CYAN1
  70
0
  62
138
  6
CONTINUOUS
  0
LAYER
  2
RED1
  70
0
  62
18
  6
CONTINUOUS
  0
LAYER
  2
MAGENTA1
  70
0
  62
228
  6
CONTINUOUS
  0
LAYER
  2
BROWN1
  70
0
  62
58
  6
CONTINUOUS
  0
LAYER
  2
BLUE2
  70
0
  62
5
  6
CONTINUOUS
  0
LAYER
  2
GREEN2
  70
0
  62
3
  6
CONTINUOUS
  0
LAYER
  2
CYAN2
  70
0
  62
4
  6
CONTINUOUS
  0
LAYER
  2
RED2
  70
0
  62
1
  6
CONTINUOUS
  0
LAYER
  2
MAGENTA2
  70
0
  62
6
  6
CONTINUOUS
  0
LAYER
  2
BROWN2
  70
0
  62
54
  6
CONTINUOUS
  0
LAYER
  2
BLUE3
  70
0
  62
171
  6
CONTINUOUS
  0
LAYER
  2
GREEN3
  70
0
  62
91
  6
CONTINUOUS
  0
LAYER
  2
CYAN3
  70
0
  62
131
  6
CONTINUOUS
  0
LAYER
  2
RED3
  70
0
  62
11
  6
CONTINUOUS
  0
LAYER
  2
MAGENTA3
  70
0
  62
221
  6
CONTINUOUS
  0
LAYER
  2
YELLOW3
  70
0
  62
2
  6
CONTINUOUS
  0
LAYER
  2
BLUE4
  70
0
  62
5
  6
CONTINUOUS
  0
LAYER
  2
GREEN4
  70
0
  62
3
  6
CONTINUOUS
  0
LAYER
  2
CYAN4
  70
0
  62
4
  6
CONTINUOUS
  0
LAYER
  2
RED4
  70
0
  62
1
  6
CONTINUOUS
  0
LAYER
  2
MAGENTA4
  70
0
  62
6
  6
CONTINUOUS
  0
LAYER
  2
YELLOW4
  70
0
  62
2
  6
CONTINUOUS
  0
ENDTAB
  0
ENDSEC
  0
SECTION
  2
ENTITIES
0
LINE
8
BLACK
6
CONTINUOUS
10
68.5202
20
-59.5446
11
68.5909
21
-59.566
0
LINE
8
BLACK
6
CONTINUOUS
10
68.5909
20
-59.566
11
68.656
21
-59.6009
0
LINE
8
BLACK
6
CONTINUOUS
10
68.656
20
-59.6009
11
68.6988
21
-59.636
0
LINE
8
BLACK
6
CONTINUOUS
10
68.6988
20
-59.636
11
68.9016
21
-59.8388
0
LINE
8
BLACK
6
CONTINUOUS
10
68.9016
20
-59.8388
11
68.9368
21
-59.8816
0
LINE
8
BLACK
6
CONTINUOUS
10
68.9368
20
-59.8816
11
68.9716
21
-59.9467
0
LINE
8
BLACK
6
CONTINUOUS
10
68.9716
20
-59.9467
11
68.9716
21
-59.9468
0
LINE
8
BLACK
6
CONTINUOUS
10
68.9716
20
-59.9468
11
68.989
21
-60.0043
0
LINE
8
BLACK
6
CONTINUOUS
10
68.989
20
-60.0043
11
68.993
21
-60.0174
0
LINE
8
BLACK
6
CONTINUOUS
10
68.993
20
-60.0174
11
69.0003
21
-60.091
0
LINE
8
BLACK
6
CONTINUOUS
10
69.0003
20
-60.091
11
68.993
21
-60.1645
0
LINE
8
BLACK
6
CONTINUOUS
10
68.993
20
-60.1645
11
68.9716
21
-60.2352
0
LINE
8
BLACK
6
CONTINUOUS
10
68.9716
20
-60.2352
11
68.9368
21
-60.3003
0
LINE
8
BLACK
6
CONTINUOUS
10
68.9368
20
-60.3003
11
68.8899
21
-60.3574
0
LINE
8
BLACK
6
CONTINUOUS
10
68.8899
20
-60.3574
11
68.8328
21
-60.4043
0
LINE
8
BLACK
6
CONTINUOUS
10
68.8328
20
-60.4043
11
68.7677
21
-60.4391
0
LINE
8
BLACK
6
CONTINUOUS
10
68.7677
20
-60.4391
11
68.697
21
-60.4605
0
LINE
8
BLACK
6
CONTINUOUS
10
68.697
20
-60.4605
11
68.6235
21
-60.4678
0
LINE
8
BLACK
6
CONTINUOUS
10
68.6235
20
-60.4678
11
68.5499
21
-60.4605
0
LINE
8
BLACK
6
CONTINUOUS
10
68.5499
20
-60.4605
11
68.5368
21
-60.4565
0
LINE
8
BLACK
6
CONTINUOUS
10
68.5368
20
-60.4565
11
68.4793
21
-60.4391
0
LINE
8
BLACK
6
CONTINUOUS
10
68.4793
20
-60.4391
11
68.4792
21
-60.4391
0
LINE
8
BLACK
6
CONTINUOUS
10
68.4792
20
-60.4391
11
68.4141
21
-60.4043
0
LINE
8
BLACK
6
CONTINUOUS
10
68.4141
20
-60.4043
11
68.3713
21
-60.3691
0
LINE
8
BLACK
6
CONTINUOUS
10
68.3713
20
-60.3691
11
68.1685
21
-60.1663
0
LINE
8
BLACK
6
CONTINUOUS
10
68.1685
20
-60.1663
11
68.1334
21
-60.1235
0
LINE
8
BLACK
6
CONTINUOUS
10
68.1334
20
-60.1235
11
68.0985
21
-60.0584
0
LINE
8
BLACK
6
CONTINUOUS
10
68.0985
20
-60.0584
11
68.0771
21
-59.9877
0
LINE
8
BLACK
6
CONTINUOUS
10
68.0771
20
-59.9877
11
68.0699
21
-59.9142
0
LINE
8
BLACK
6
CONTINUOUS
10
68.0699
20
-59.9142
11
68.0771
21
-59.8407
0
LINE
8
BLACK
6
CONTINUOUS
10
68.0771
20
-59.8407
11
68.0985
21
-59.77
0
LINE
8
BLACK
6
CONTINUOUS
10
68.0985
20
-59.77
11
68.1334
21
-59.7048
0
LINE
8
BLACK
6
CONTINUOUS
10
68.1334
20
-59.7048
11
68.1802
21
-59.6477
0
LINE
8
BLACK
6
CONTINUOUS
10
68.1802
20
-59.6477
11
68.2373
21
-59.6009
0
LINE
8
BLACK
6
CONTINUOUS
10
68.2373
20
-59.6009
11
68.3025
21
-59.566
0
LINE
8
BLACK
6
CONTINUOUS
10
68.3025
20
-59.566
11
68.3732
21
-59.5446
0
LINE
8
BLACK
6
CONTINUOUS
10
68.3732
20
-59.5446
11
68.4467
21
-59.5374
0
LINE
8
BLACK
6
CONTINUOUS
10
68.4467
20
-59.5374
11
68.5202
21
-59.5446
0
LINE
8
BLACK
6
CONTINUOUS
10
65.4848
20
-59.5446
11
65.5555
21
-59.566
0
LINE
8
BLACK
6
CONTINUOUS
10
65.5555
20
-59.566
11
65.6207
21
-59.6009
0
LINE
8
BLACK
6
CONTINUOUS
10
65.6207
20
-59.6009
11
65.6778
21
-59.6477
0
LINE
8
BLACK
6
CONTINUOUS
10
65.6778
20
-59.6477
11
65.7246
21
-59.7048
0
LINE
8
BLACK
6
CONTINUOUS
10
65.7246
20
-59.7048
11
65.7595
21
-59.77
0
LINE
8
BLACK
6
CONTINUOUS
10
65.7595
20
-59.77
11
65.7809
21
-59.8407
0
LINE
8
BLACK
6
CONTINUOUS
10
65.7809
20
-59.8407
11
65.7881
21
-59.9142
0
LINE
8
BLACK
6
CONTINUOUS
10
65.7881
20
-59.9142
11
65.7809
21
-59.9877
0
LINE
8
BLACK
6
CONTINUOUS
10
65.7809
20
-59.9877
11
65.7809
21
-59.9877
0
LINE
8
BLACK
6
CONTINUOUS
10
65.7809
20
-59.9877
11
65.7809
21
-59.9877
0
LINE
8
BLACK
6
CONTINUOUS
10
65.7809
20
-59.9877
11
65.7595
21
-60.0584
0
LINE
8
BLACK
6
CONTINUOUS
10
65.7595
20
-60.0584
11
65.7595
21
-60.0584
0
LINE
8
BLACK
6
CONTINUOUS
10
65.7595
20
-60.0584
11
65.7246
21
-60.1235
0
LINE
8
BLACK
6
CONTINUOUS
10
65.7246
20
-60.1235
11
65.6895
21
-60.1663
0
LINE
8
BLACK
6
CONTINUOUS
10
65.6895
20
-60.1663
11
65.4867
21
-60.3691
0
LINE
8
BLACK
6
CONTINUOUS
10
65.4867
20
-60.3691
11
65.4439
21
-60.4043
0
LINE
8
BLACK
6
CONTINUOUS
10
65.4439
20
-60.4043
11
65.3787
21
-60.4391
0
LINE
8
BLACK
6
CONTINUOUS
10
65.3787
20
-60.4391
11
65.3081
21
-60.4605
0
LINE
8
BLACK
6
CONTINUOUS
10
65.3081
20
-60.4605
11
65.2345
21
-60.4678
0
LINE
8
BLACK
6
CONTINUOUS
10
65.2345
20
-60.4678
11
65.161
21
-60.4605
0
LINE
8
BLACK
6
CONTINUOUS
10
65.161
20
-60.4605
11
65.0903
21
-60.4391
0
LINE
8
BLACK
6
CONTINUOUS
10
65.0903
20
-60.4391
11
65.0252
21
-60.4043
0
LINE
8
BLACK
6
CONTINUOUS
10
65.0252
20
-60.4043
11
64.9681
21
-60.3574
0
LINE
8
BLACK
6
CONTINUOUS
10
64.9681
20
-60.3574
11
64.9212
21
-60.3003
0
LINE
8
BLACK
6
CONTINUOUS
10
64.9212
20
-60.3003
11
64.8864
21
-60.2352
0
LINE
8
BLACK
6
CONTINUOUS
10
64.8864
20
-60.2352
11
64.865
21
-60.1645
0
LINE
8
BLACK
6
CONTINUOUS
10
64.865
20
-60.1645
11
64.8577
21
-60.091
0
LINE
8
BLACK
6
CONTINUOUS
10
64.8577
20
-60.091
11
64.865
21
-60.0174
0
LINE
8
BLACK
6
CONTINUOUS
10
64.865
20
-60.0174
11
64.8864
21
-59.9468
0
LINE
8
BLACK
6
CONTINUOUS
10
64.8864
20
-59.9468
11
64.9212
21
-59.8816
0
LINE
8
BLACK
6
CONTINUOUS
10
64.9212
20
-59.8816
11
64.9564
21
-59.8388
0
LINE
8
BLACK
6
CONTINUOUS
10
64.9564
20
-59.8388
11
65.1592
21
-59.636
0
LINE
8
BLACK
6
CONTINUOUS
10
65.1592
20
-59.636
11
65.202
21
-59.6009
0
LINE
8
BLACK
6
CONTINUOUS
10
65.202
20
-59.6009
11
65.2671
21
-59.566
0
LINE
8
BLACK
6
CONTINUOUS
10
65.2671
20
-59.566
11
65.2671
21
-59.566
0
LINE
8
BLACK
6
CONTINUOUS
10
65.2671
20
-59.566
11
65.3378
21
-59.5446
0
LINE
8
BLACK
6
CONTINUOUS
10
65.3378
20
-59.5446
11
65.3378
21
-59.5446
0
LINE
8
BLACK
6
CONTINUOUS
10
65.3378
20
-59.5446
11
65.4113
21
-59.5374
0
LINE
8
BLACK
6
CONTINUOUS
10
65.4113
20
-59.5374
11
65.4848
21
-59.5446
0
LINE
8
BLACK
6
CONTINUOUS
10
69.807
20
-59.0042
11
69.8457
21
-59.0119
0
LINE
8
BLACK
6
CONTINUOUS
10
69.8457
20
-59.0119
11
69.9185
21
-59.042
0
LINE
8
BLACK
6
CONTINUOUS
10
69.9185
20
-59.042
11
69.984
21
-59.0858
0
LINE
8
BLACK
6
CONTINUOUS
10
69.984
20
-59.0858
11
70.0397
21
-59.1415
0
LINE
8
BLACK
6
CONTINUOUS
10
70.0397
20
-59.1415
11
70.0835
21
-59.207
0
LINE
8
BLACK
6
CONTINUOUS
10
70.0835
20
-59.207
11
70.1136
21
-59.2798
0
LINE
8
BLACK
6
CONTINUOUS
10
70.1136
20
-59.2798
11
70.1213
21
-59.3185
0
LINE
8
BLACK
6
CONTINUOUS
10
70.1213
20
-59.3185
11
70.1279
21
-59.3514
0
LINE
8
BLACK
6
CONTINUOUS
10
70.1279
20
-59.3514
11
70.129
21
-59.3571
0
LINE
8
BLACK
6
CONTINUOUS
10
70.129
20
-59.3571
11
70.129
21
-59.4359
0
LINE
8
BLACK
6
CONTINUOUS
10
70.129
20
-59.4359
11
70.1136
21
-59.5132
0
LINE
8
BLACK
6
CONTINUOUS
10
70.1136
20
-59.5132
11
70.0835
21
-59.586
0
LINE
8
BLACK
6
CONTINUOUS
10
70.0835
20
-59.586
11
70.0397
21
-59.6515
0
LINE
8
BLACK
6
CONTINUOUS
10
70.0397
20
-59.6515
11
69.984
21
-59.7072
0
LINE
8
BLACK
6
CONTINUOUS
10
69.984
20
-59.7072
11
69.9185
21
-59.751
0
LINE
8
BLACK
6
CONTINUOUS
10
69.9185
20
-59.751
11
69.8457
21
-59.7811
0
LINE
8
BLACK
6
CONTINUOUS
10
69.8457
20
-59.7811
11
69.7684
21
-59.7965
0
LINE
8
BLACK
6
CONTINUOUS
10
69.7684
20
-59.7965
11
69.6896
21
-59.7965
0
LINE
8
BLACK
6
CONTINUOUS
10
69.6896
20
-59.7965
11
69.6123
21
-59.7811
0
LINE
8
BLACK
6
CONTINUOUS
10
69.6123
20
-59.7811
11
69.5395
21
-59.751
0
LINE
8
BLACK
6
CONTINUOUS
10
69.5395
20
-59.751
11
69.474
21
-59.7072
0
LINE
8
BLACK
6
CONTINUOUS
10
69.474
20
-59.7072
11
69.4183
21
-59.6515
0
LINE
8
BLACK
6
CONTINUOUS
10
69.4183
20
-59.6515
11
69.3745
21
-59.586
0
LINE
8
BLACK
6
CONTINUOUS
10
69.3745
20
-59.586
11
69.3444
21
-59.5132
0
LINE
8
BLACK
6
CONTINUOUS
10
69.3444
20
-59.5132
11
69.329
21
-59.4359
0
LINE
8
BLACK
6
CONTINUOUS
10
69.329
20
-59.4359
11
69.329
21
-59.3571
0
LINE
8
BLACK
6
CONTINUOUS
10
69.329
20
-59.3571
11
69.3301
21
-59.3514
0
LINE
8
BLACK
6
CONTINUOUS
10
69.3301
20
-59.3514
11
69.3367
21
-59.3185
0
LINE
8
BLACK
6
CONTINUOUS
10
69.3367
20
-59.3185
11
69.3444
21
-59.2798
0
LINE
8
BLACK
6
CONTINUOUS
10
69.3444
20
-59.2798
11
69.3745
21
-59.207
0
LINE
8
BLACK
6
CONTINUOUS
10
69.3745
20
-59.207
11
69.4183
21
-59.1415
0
LINE
8
BLACK
6
CONTINUOUS
10
69.4183
20
-59.1415
11
69.474
21
-59.0858
0
LINE
8
BLACK
6
CONTINUOUS
10
69.474
20
-59.0858
11
69.5395
21
-59.042
0
LINE
8
BLACK
6
CONTINUOUS
10
69.5395
20
-59.042
11
69.6123
21
-59.0119
0
LINE
8
BLACK
6
CONTINUOUS
10
69.6123
20
-59.0119
11
69.651
21
-59.0042
0
LINE
8
BLACK
6
CONTINUOUS
10
69.651
20
-59.0042
11
69.6896
21
-58.9965
0
LINE
8
BLACK
6
CONTINUOUS
10
69.6896
20
-58.9965
11
69.7684
21
-58.9965
0
LINE
8
BLACK
6
CONTINUOUS
10
69.7684
20
-58.9965
11
69.807
21
-59.0042
0
LINE
8
BLACK
6
CONTINUOUS
10
64.207
20
-59.0042
11
64.2457
21
-59.0119
0
LINE
8
BLACK
6
CONTINUOUS
10
64.2457
20
-59.0119
11
64.3185
21
-59.042
0
LINE
8
BLACK
6
CONTINUOUS
10
64.3185
20
-59.042
11
64.384
21
-59.0858
0
LINE
8
BLACK
6
CONTINUOUS
10
64.384
20
-59.0858
11
64.4397
21
-59.1415
0
LINE
8
BLACK
6
CONTINUOUS
10
64.4397
20
-59.1415
11
64.4835
21
-59.207
0
LINE
8
BLACK
6
CONTINUOUS
10
64.4835
20
-59.207
11
64.5136
21
-59.2798
0
LINE
8
BLACK
6
CONTINUOUS
10
64.5136
20
-59.2798
11
64.5213
21
-59.3185
0
LINE
8
BLACK
6
CONTINUOUS
10
64.5213
20
-59.3185
11
64.5279
21
-59.3514
0
LINE
8
BLACK
6
CONTINUOUS
10
64.5279
20
-59.3514
11
64.529
21
-59.3571
0
LINE
8
BLACK
6
CONTINUOUS
10
64.529
20
-59.3571
11
64.529
21
-59.4359
0
LINE
8
BLACK
6
CONTINUOUS
10
64.529
20
-59.4359
11
64.5136
21
-59.5132
0
LINE
8
BLACK
6
CONTINUOUS
10
64.5136
20
-59.5132
11
64.4835
21
-59.586
0
LINE
8
BLACK
6
CONTINUOUS
10
64.4835
20
-59.586
11
64.4397
21
-59.6515
0
LINE
8
BLACK
6
CONTINUOUS
10
64.4397
20
-59.6515
11
64.384
21
-59.7072
0
LINE
8
BLACK
6
CONTINUOUS
10
64.384
20
-59.7072
11
64.3185
21
-59.751
0
LINE
8
BLACK
6
CONTINUOUS
10
64.3185
20
-59.751
11
64.2457
21
-59.7811
0
LINE
8
BLACK
6
CONTINUOUS
10
64.2457
20
-59.7811
11
64.1684
21
-59.7965
0
LINE
8
BLACK
6
CONTINUOUS
10
64.1684
20
-59.7965
11
64.0896
21
-59.7965
0
LINE
8
BLACK
6
CONTINUOUS
10
64.0896
20
-59.7965
11
64.0123
21
-59.7811
0
LINE
8
BLACK
6
CONTINUOUS
10
64.0123
20
-59.7811
11
63.9395
21
-59.751
0
LINE
8
BLACK
6
CONTINUOUS
10
63.9395
20
-59.751
11
63.874
21
-59.7072
0
LINE
8
BLACK
6
CONTINUOUS
10
63.874
20
-59.7072
11
63.8183
21
-59.6515
0
LINE
8
BLACK
6
CONTINUOUS
10
63.8183
20
-59.6515
11
63.7745
21
-59.586
0
LINE
8
BLACK
6
CONTINUOUS
10
63.7745
20
-59.586
11
63.7444
21
-59.5132
0
LINE
8
BLACK
6
CONTINUOUS
10
63.7444
20
-59.5132
11
63.729
21
-59.4359
0
LINE
8
BLACK
6
CONTINUOUS
10
63.729
20
-59.4359
11
63.729
21
-59.3571
0
LINE
8
BLACK
6
CONTINUOUS
10
63.729
20
-59.3571
11
63.7301
21
-59.3514
0
LINE
8
BLACK
6
CONTINUOUS
10
63.7301
20
-59.3514
11
63.7367
21
-59.3185
0
LINE
8
BLACK
6
CONTINUOUS
10
63.7367
20
-59.3185
11
63.7444
21
-59.2798
0
LINE
8
BLACK
6
CONTINUOUS
10
63.7444
20
-59.2798
11
63.7745
21
-59.207
0
LINE
8
BLACK
6
CONTINUOUS
10
63.7745
20
-59.207
11
63.8183
21
-59.1415
0
LINE
8
BLACK
6
CONTINUOUS
10
63.8183
20
-59.1415
11
63.874
21
-59.0858
0
LINE
8
BLACK
6
CONTINUOUS
10
63.874
20
-59.0858
11
63.9395
21
-59.042
0
LINE
8
BLACK
6
CONTINUOUS
10
63.9395
20
-59.042
11
64.0123
21
-59.0119
0
LINE
8
BLACK
6
CONTINUOUS
10
64.0123
20
-59.0119
11
64.051
21
-59.0042
0
LINE
8
BLACK
6
CONTINUOUS
10
64.051
20
-59.0042
11
64.0896
21
-58.9965
0
LINE
8
BLACK
6
CONTINUOUS
10
64.0896
20
-58.9965
11
64.1684
21
-58.9965
0
LINE
8
BLACK
6
CONTINUOUS
10
64.1684
20
-58.9965
11
64.207
21
-59.0042
0
LINE
8
BLACK
6
CONTINUOUS
10
67.0025
20
-58.7119
11
67.0025
21
-58.7119
0
LINE
8
BLACK
6
CONTINUOUS
10
67.0025
20
-58.7119
11
67.0025
21
-58.7119
0
LINE
8
BLACK
6
CONTINUOUS
10
67.0025
20
-58.7119
11
67.0732
21
-58.7334
0
LINE
8
BLACK
6
CONTINUOUS
10
67.0732
20
-58.7334
11
67.1189
21
-58.7578
0
LINE
8
BLACK
6
CONTINUOUS
10
67.1189
20
-58.7578
11
67.1383
21
-58.7682
0
LINE
8
BLACK
6
CONTINUOUS
10
67.1383
20
-58.7682
11
67.1954
21
-58.8151
0
LINE
8
BLACK
6
CONTINUOUS
10
67.1954
20
-58.8151
11
67.2423
21
-58.8722
0
LINE
8
BLACK
6
CONTINUOUS
10
67.2423
20
-58.8722
11
67.2609
21
-58.907
0
LINE
8
BLACK
6
CONTINUOUS
10
67.2609
20
-58.907
11
67.2771
21
-58.9373
0
LINE
8
BLACK
6
CONTINUOUS
10
67.2771
20
-58.9373
11
67.2986
21
-59.008
0
LINE
8
BLACK
6
CONTINUOUS
10
67.2986
20
-59.008
11
67.2986
21
-59.008
0
LINE
8
BLACK
6
CONTINUOUS
10
67.2986
20
-59.008
11
67.2986
21
-59.008
0
LINE
8
BLACK
6
CONTINUOUS
10
67.2986
20
-59.008
11
67.304
21
-59.0631
0
LINE
8
BLACK
6
CONTINUOUS
10
67.304
20
-59.0631
11
67.304
21
-59.2499
0
LINE
8
BLACK
6
CONTINUOUS
10
67.304
20
-59.2499
11
67.2986
21
-59.305
0
LINE
8
BLACK
6
CONTINUOUS
10
67.2986
20
-59.305
11
67.2986
21
-59.305
0
LINE
8
BLACK
6
CONTINUOUS
10
67.2986
20
-59.305
11
67.2986
21
-59.305
0
LINE
8
BLACK
6
CONTINUOUS
10
67.2986
20
-59.305
11
67.2845
21
-59.3514
0
LINE
8
BLACK
6
CONTINUOUS
10
67.2845
20
-59.3514
11
67.2771
21
-59.3757
0
LINE
8
BLACK
6
CONTINUOUS
10
67.2771
20
-59.3757
11
67.2423
21
-59.4408
0
LINE
8
BLACK
6
CONTINUOUS
10
67.2423
20
-59.4408
11
67.1954
21
-59.4979
0
LINE
8
BLACK
6
CONTINUOUS
10
67.1954
20
-59.4979
11
67.1383
21
-59.5448
0
LINE
8
BLACK
6
CONTINUOUS
10
67.1383
20
-59.5448
11
67.1035
21
-59.5634
0
LINE
8
BLACK
6
CONTINUOUS
10
67.1035
20
-59.5634
11
67.0732
21
-59.5796
0
LINE
8
BLACK
6
CONTINUOUS
10
67.0732
20
-59.5796
11
67.0025
21
-59.6011
0
LINE
8
BLACK
6
CONTINUOUS
10
67.0025
20
-59.6011
11
67.0025
21
-59.6011
0
LINE
8
BLACK
6
CONTINUOUS
10
67.0025
20
-59.6011
11
67.0025
21
-59.6011
0
LINE
8
BLACK
6
CONTINUOUS
10
67.0025
20
-59.6011
11
66.929
21
-59.6083
0
LINE
8
BLACK
6
CONTINUOUS
10
66.929
20
-59.6083
11
66.8555
21
-59.6011
0
LINE
8
BLACK
6
CONTINUOUS
10
66.8555
20
-59.6011
11
66.8555
21
-59.6011
0
LINE
8
BLACK
6
CONTINUOUS
10
66.8555
20
-59.6011
11
66.8555
21
-59.6011
0
LINE
8
BLACK
6
CONTINUOUS
10
66.8555
20
-59.6011
11
66.7848
21
-59.5796
0
LINE
8
BLACK
6
CONTINUOUS
10
66.7848
20
-59.5796
11
66.7197
21
-59.5448
0
LINE
8
BLACK
6
CONTINUOUS
10
66.7197
20
-59.5448
11
66.7197
21
-59.5448
0
LINE
8
BLACK
6
CONTINUOUS
10
66.7197
20
-59.5448
11
66.6626
21
-59.4979
0
LINE
8
BLACK
6
CONTINUOUS
10
66.6626
20
-59.4979
11
66.6157
21
-59.4408
0
LINE
8
BLACK
6
CONTINUOUS
10
66.6157
20
-59.4408
11
66.5809
21
-59.3757
0
LINE
8
BLACK
6
CONTINUOUS
10
66.5809
20
-59.3757
11
66.5809
21
-59.3757
0
LINE
8
BLACK
6
CONTINUOUS
10
66.5809
20
-59.3757
11
66.5594
21
-59.305
0
LINE
8
BLACK
6
CONTINUOUS
10
66.5594
20
-59.305
11
66.5594
21
-59.305
0
LINE
8
BLACK
6
CONTINUOUS
10
66.5594
20
-59.305
11
66.5594
21
-59.305
0
LINE
8
BLACK
6
CONTINUOUS
10
66.5594
20
-59.305
11
66.554
21
-59.2499
0
LINE
8
BLACK
6
CONTINUOUS
10
66.554
20
-59.2499
11
66.554
21
-59.0631
0
LINE
8
BLACK
6
CONTINUOUS
10
66.554
20
-59.0631
11
66.5594
21
-59.008
0
LINE
8
BLACK
6
CONTINUOUS
10
66.5594
20
-59.008
11
66.5594
21
-59.008
0
LINE
8
BLACK
6
CONTINUOUS
10
66.5594
20
-59.008
11
66.5594
21
-59.008
0
LINE
8
BLACK
6
CONTINUOUS
10
66.5594
20
-59.008
11
66.5809
21
-58.9373
0
LINE
8
BLACK
6
CONTINUOUS
10
66.5809
20
-58.9373
11
66.6157
21
-58.8722
0
LINE
8
BLACK
6
CONTINUOUS
10
66.6157
20
-58.8722
11
66.6157
21
-58.8722
0
LINE
8
BLACK
6
CONTINUOUS
10
66.6157
20
-58.8722
11
66.6626
21
-58.8151
0
LINE
8
BLACK
6
CONTINUOUS
10
66.6626
20
-58.8151
11
66.7197
21
-58.7682
0
LINE
8
BLACK
6
CONTINUOUS
10
66.7197
20
-58.7682
11
66.7545
21
-58.7496
0
LINE
8
BLACK
6
CONTINUOUS
10
66.7545
20
-58.7496
11
66.7848
21
-58.7334
0
LINE
8
BLACK
6
CONTINUOUS
10
66.7848
20
-58.7334
11
66.8555
21
-58.7119
0
LINE
8
BLACK
6
CONTINUOUS
10
66.8555
20
-58.7119
11
66.8555
21
-58.7119
0
LINE
8
BLACK
6
CONTINUOUS
10
66.8555
20
-58.7119
11
66.8555
21
-58.7119
0
LINE
8
BLACK
6
CONTINUOUS
10
66.8555
20
-58.7119
11
66.929
21
-58.7047
0
LINE
8
BLACK
6
CONTINUOUS
10
66.929
20
-58.7047
11
67.0025
21
-58.7119
0
LINE
8
BLACK
6
CONTINUOUS
10
65.6476
20
-58.6616
11
65.6476
21
-58.6616
0
LINE
8
BLACK
6
CONTINUOUS
10
65.6476
20
-58.6616
11
65.6476
21
-58.6616
0
LINE
8
BLACK
6
CONTINUOUS
10
65.6476
20
-58.6616
11
65.6813
21
-58.6718
0
LINE
8
BLACK
6
CONTINUOUS
10
65.6813
20
-58.6718
11
65.7136
21
-58.6816
0
LINE
8
BLACK
6
CONTINUOUS
10
65.7136
20
-58.6816
11
65.7744
21
-58.7141
0
LINE
8
BLACK
6
CONTINUOUS
10
65.7744
20
-58.7141
11
65.7883
21
-58.7255
0
LINE
8
BLACK
6
CONTINUOUS
10
65.7883
20
-58.7255
11
65.8277
21
-58.7578
0
LINE
8
BLACK
6
CONTINUOUS
10
65.8277
20
-58.7578
11
65.86
21
-58.7972
0
LINE
8
BLACK
6
CONTINUOUS
10
65.86
20
-58.7972
11
65.8714
21
-58.8111
0
LINE
8
BLACK
6
CONTINUOUS
10
65.8714
20
-58.8111
11
65.8714
21
-58.8111
0
LINE
8
BLACK
6
CONTINUOUS
10
65.8714
20
-58.8111
11
65.9039
21
-58.8719
0
LINE
8
BLACK
6
CONTINUOUS
10
65.9039
20
-58.8719
11
65.9238
21
-58.9373
0
LINE
8
BLACK
6
CONTINUOUS
10
65.9238
20
-58.9373
11
65.9239
21
-58.9379
0
LINE
8
BLACK
6
CONTINUOUS
10
65.9239
20
-58.9379
11
65.9307
21
-59.0065
0
LINE
8
BLACK
6
CONTINUOUS
10
65.9307
20
-59.0065
11
65.9239
21
-59.0751
0
LINE
8
BLACK
6
CONTINUOUS
10
65.9239
20
-59.0751
11
65.9039
21
-59.1411
0
LINE
8
BLACK
6
CONTINUOUS
10
65.9039
20
-59.1411
11
65.8714
21
-59.2019
0
LINE
8
BLACK
6
CONTINUOUS
10
65.8714
20
-59.2019
11
65.8672
21
-59.207
0
LINE
8
BLACK
6
CONTINUOUS
10
65.8672
20
-59.207
11
65.8277
21
-59.2552
0
LINE
8
BLACK
6
CONTINUOUS
10
65.8277
20
-59.2552
11
65.7883
21
-59.2875
0
LINE
8
BLACK
6
CONTINUOUS
10
65.7883
20
-59.2875
11
65.7744
21
-59.2989
0
LINE
8
BLACK
6
CONTINUOUS
10
65.7744
20
-59.2989
11
65.763
21
-59.305
0
LINE
8
BLACK
6
CONTINUOUS
10
65.763
20
-59.305
11
65.7136
21
-59.3314
0
LINE
8
BLACK
6
CONTINUOUS
10
65.7136
20
-59.3314
11
65.6476
21
-59.3514
0
LINE
8
BLACK
6
CONTINUOUS
10
65.6476
20
-59.3514
11
65.6476
21
-59.3514
0
LINE
8
BLACK
6
CONTINUOUS
10
65.6476
20
-59.3514
11
65.6476
21
-59.3514
0
LINE
8
BLACK
6
CONTINUOUS
10
65.6476
20
-59.3514
11
65.5962
21
-59.3565
0
LINE
8
BLACK
6
CONTINUOUS
10
65.5962
20
-59.3565
11
65.3618
21
-59.3565
0
LINE
8
BLACK
6
CONTINUOUS
10
65.3618
20
-59.3565
11
65.3104
21
-59.3514
0
LINE
8
BLACK
6
CONTINUOUS
10
65.3104
20
-59.3514
11
65.3104
21
-59.3514
0
LINE
8
BLACK
6
CONTINUOUS
10
65.3104
20
-59.3514
11
65.3104
21
-59.3514
0
LINE
8
BLACK
6
CONTINUOUS
10
65.3104
20
-59.3514
11
65.2444
21
-59.3314
0
LINE
8
BLACK
6
CONTINUOUS
10
65.2444
20
-59.3314
11
65.195
21
-59.305
0
LINE
8
BLACK
6
CONTINUOUS
10
65.195
20
-59.305
11
65.1836
21
-59.2989
0
LINE
8
BLACK
6
CONTINUOUS
10
65.1836
20
-59.2989
11
65.1697
21
-59.2875
0
LINE
8
BLACK
6
CONTINUOUS
10
65.1697
20
-59.2875
11
65.1303
21
-59.2552
0
LINE
8
BLACK
6
CONTINUOUS
10
65.1303
20
-59.2552
11
65.0908
21
-59.207
0
LINE
8
BLACK
6
CONTINUOUS
10
65.0908
20
-59.207
11
65.0866
21
-59.2019
0
LINE
8
BLACK
6
CONTINUOUS
10
65.0866
20
-59.2019
11
65.0541
21
-59.1411
0
LINE
8
BLACK
6
CONTINUOUS
10
65.0541
20
-59.1411
11
65.0341
21
-59.0751
0
LINE
8
BLACK
6
CONTINUOUS
10
65.0341
20
-59.0751
11
65.0273
21
-59.0065
0
LINE
8
BLACK
6
CONTINUOUS
10
65.0273
20
-59.0065
11
65.0341
21
-58.9379
0
LINE
8
BLACK
6
CONTINUOUS
10
65.0341
20
-58.9379
11
65.0342
21
-58.9373
0
LINE
8
BLACK
6
CONTINUOUS
10
65.0342
20
-58.9373
11
65.0541
21
-58.8719
0
LINE
8
BLACK
6
CONTINUOUS
10
65.0541
20
-58.8719
11
65.0866
21
-58.8111
0
LINE
8
BLACK
6
CONTINUOUS
10
65.0866
20
-58.8111
11
65.0866
21
-58.8111
0
LINE
8
BLACK
6
CONTINUOUS
10
65.0866
20
-58.8111
11
65.098
21
-58.7972
0
LINE
8
BLACK
6
CONTINUOUS
10
65.098
20
-58.7972
11
65.1303
21
-58.7578
0
LINE
8
BLACK
6
CONTINUOUS
10
65.1303
20
-58.7578
11
65.1697
21
-58.7255
0
LINE
8
BLACK
6
CONTINUOUS
10
65.1697
20
-58.7255
11
65.1836
21
-58.7141
0
LINE
8
BLACK
6
CONTINUOUS
10
65.1836
20
-58.7141
11
65.2444
21
-58.6816
0
LINE
8
BLACK
6
CONTINUOUS
10
65.2444
20
-58.6816
11
65.2767
21
-58.6718
0
LINE
8
BLACK
6
CONTINUOUS
10
65.2767
20
-58.6718
11
65.3104
21
-58.6616
0
LINE
8
BLACK
6
CONTINUOUS
10
65.3104
20
-58.6616
11
65.3104
21
-58.6616
0
LINE
8
BLACK
6
CONTINUOUS
10
65.3104
20
-58.6616
11
65.3104
21
-58.6616
0
LINE
8
BLACK
6
CONTINUOUS
10
65.3104
20
-58.6616
11
65.3618
21
-58.6565
0
LINE
8
BLACK
6
CONTINUOUS
10
65.3618
20
-58.6565
11
65.5962
21
-58.6565
0
LINE
8
BLACK
6
CONTINUOUS
10
65.5962
20
-58.6565
11
65.6476
21
-58.6616
0
LINE
8
BLACK
6
CONTINUOUS
10
68.5476
20
-58.6616
11
68.5476
21
-58.6616
0
LINE
8
BLACK
6
CONTINUOUS
10
68.5476
20
-58.6616
11
68.5476
21
-58.6616
0
LINE
8
BLACK
6
CONTINUOUS
10
68.5476
20
-58.6616
11
68.5813
21
-58.6718
0
LINE
8
BLACK
6
CONTINUOUS
10
68.5813
20
-58.6718
11
68.6136
21
-58.6816
0
LINE
8
BLACK
6
CONTINUOUS
10
68.6136
20
-58.6816
11
68.6744
21
-58.7141
0
LINE
8
BLACK
6
CONTINUOUS
10
68.6744
20
-58.7141
11
68.6883
21
-58.7255
0
LINE
8
BLACK
6
CONTINUOUS
10
68.6883
20
-58.7255
11
68.7277
21
-58.7578
0
LINE
8
BLACK
6
CONTINUOUS
10
68.7277
20
-58.7578
11
68.76
21
-58.7972
0
LINE
8
BLACK
6
CONTINUOUS
10
68.76
20
-58.7972
11
68.7714
21
-58.8111
0
LINE
8
BLACK
6
CONTINUOUS
10
68.7714
20
-58.8111
11
68.7714
21
-58.8111
0
LINE
8
BLACK
6
CONTINUOUS
10
68.7714
20
-58.8111
11
68.8039
21
-58.8719
0
LINE
8
BLACK
6
CONTINUOUS
10
68.8039
20
-58.8719
11
68.8238
21
-58.9373
0
LINE
8
BLACK
6
CONTINUOUS
10
68.8238
20
-58.9373
11
68.8239
21
-58.9379
0
LINE
8
BLACK
6
CONTINUOUS
10
68.8239
20
-58.9379
11
68.8307
21
-59.0065
0
LINE
8
BLACK
6
CONTINUOUS
10
68.8307
20
-59.0065
11
68.8239
21
-59.0751
0
LINE
8
BLACK
6
CONTINUOUS
10
68.8239
20
-59.0751
11
68.8039
21
-59.1411
0
LINE
8
BLACK
6
CONTINUOUS
10
68.8039
20
-59.1411
11
68.7714
21
-59.2019
0
LINE
8
BLACK
6
CONTINUOUS
10
68.7714
20
-59.2019
11
68.7672
21
-59.207
0
LINE
8
BLACK
6
CONTINUOUS
10
68.7672
20
-59.207
11
68.7277
21
-59.2552
0
LINE
8
BLACK
6
CONTINUOUS
10
68.7277
20
-59.2552
11
68.6883
21
-59.2875
0
LINE
8
BLACK
6
CONTINUOUS
10
68.6883
20
-59.2875
11
68.6744
21
-59.2989
0
LINE
8
BLACK
6
CONTINUOUS
10
68.6744
20
-59.2989
11
68.663
21
-59.305
0
LINE
8
BLACK
6
CONTINUOUS
10
68.663
20
-59.305
11
68.6136
21
-59.3314
0
LINE
8
BLACK
6
CONTINUOUS
10
68.6136
20
-59.3314
11
68.5476
21
-59.3514
0
LINE
8
BLACK
6
CONTINUOUS
10
68.5476
20
-59.3514
11
68.5476
21
-59.3514
0
LINE
8
BLACK
6
CONTINUOUS
10
68.5476
20
-59.3514
11
68.5476
21
-59.3514
0
LINE
8
BLACK
6
CONTINUOUS
10
68.5476
20
-59.3514
11
68.4962
21
-59.3565
0
LINE
8
BLACK
6
CONTINUOUS
10
68.4962
20
-59.3565
11
68.2618
21
-59.3565
0
LINE
8
BLACK
6
CONTINUOUS
10
68.2618
20
-59.3565
11
68.2104
21
-59.3514
0
LINE
8
BLACK
6
CONTINUOUS
10
68.2104
20
-59.3514
11
68.2104
21
-59.3514
0
LINE
8
BLACK
6
CONTINUOUS
10
68.2104
20
-59.3514
11
68.2104
21
-59.3514
0
LINE
8
BLACK
6
CONTINUOUS
10
68.2104
20
-59.3514
11
68.1444
21
-59.3314
0
LINE
8
BLACK
6
CONTINUOUS
10
68.1444
20
-59.3314
11
68.095
21
-59.305
0
LINE
8
BLACK
6
CONTINUOUS
10
68.095
20
-59.305
11
68.0836
21
-59.2989
0
LINE
8
BLACK
6
CONTINUOUS
10
68.0836
20
-59.2989
11
68.0697
21
-59.2875
0
LINE
8
BLACK
6
CONTINUOUS
10
68.0697
20
-59.2875
11
68.0303
21
-59.2552
0
LINE
8
BLACK
6
CONTINUOUS
10
68.0303
20
-59.2552
11
67.9908
21
-59.207
0
LINE
8
BLACK
6
CONTINUOUS
10
67.9908
20
-59.207
11
67.9866
21
-59.2019
0
LINE
8
BLACK
6
CONTINUOUS
10
67.9866
20
-59.2019
11
67.9541
21
-59.1411
0
LINE
8
BLACK
6
CONTINUOUS
10
67.9541
20
-59.1411
11
67.9341
21
-59.0751
0
LINE
8
BLACK
6
CONTINUOUS
10
67.9341
20
-59.0751
11
67.9273
21
-59.0065
0
LINE
8
BLACK
6
CONTINUOUS
10
67.9273
20
-59.0065
11
67.9341
21
-58.9379
0
LINE
8
BLACK
6
CONTINUOUS
10
67.9341
20
-58.9379
11
67.9342
21
-58.9373
0
LINE
8
BLACK
6
CONTINUOUS
10
67.9342
20
-58.9373
11
67.9541
21
-58.8719
0
LINE
8
BLACK
6
CONTINUOUS
10
67.9541
20
-58.8719
11
67.9866
21
-58.8111
0
LINE
8
BLACK
6
CONTINUOUS
10
67.9866
20
-58.8111
11
67.9866
21
-58.8111
0
LINE
8
BLACK
6
CONTINUOUS
10
67.9866
20
-58.8111
11
67.998
21
-58.7972
0
LINE
8
BLACK
6
CONTINUOUS
10
67.998
20
-58.7972
11
68.0303
21
-58.7578
0
LINE
8
BLACK
6
CONTINUOUS
10
68.0303
20
-58.7578
11
68.0697
21
-58.7255
0
LINE
8
BLACK
6
CONTINUOUS
10
68.0697
20
-58.7255
11
68.0836
21
-58.7141
0
LINE
8
BLACK
6
CONTINUOUS
10
68.0836
20
-58.7141
11
68.1444
21
-58.6816
0
LINE
8
BLACK
6
CONTINUOUS
10
68.1444
20
-58.6816
11
68.1767
21
-58.6718
0
LINE
8
BLACK
6
CONTINUOUS
10
68.1767
20
-58.6718
11
68.2104
21
-58.6616
0
LINE
8
BLACK
6
CONTINUOUS
10
68.2104
20
-58.6616
11
68.2104
21
-58.6616
0
LINE
8
BLACK
6
CONTINUOUS
10
68.2104
20
-58.6616
11
68.2104
21
-58.6616
0
LINE
8
BLACK
6
CONTINUOUS
10
68.2104
20
-58.6616
11
68.2618
21
-58.6565
0
LINE
8
BLACK
6
CONTINUOUS
10
68.2618
20
-58.6565
11
68.4962
21
-58.6565
0
LINE
8
BLACK
6
CONTINUOUS
10
68.4962
20
-58.6565
11
68.5476
21
-58.6616
0
LINE
8
BLACK
6
CONTINUOUS
10
63.7201
20
-57.7678
11
63.779
21
-57.7796
0
LINE
8
BLACK
6
CONTINUOUS
10
63.779
20
-57.7796
11
63.8882
21
-57.8248
0
LINE
8
BLACK
6
CONTINUOUS
10
63.8882
20
-57.8248
11
63.8882
21
-57.8248
0
LINE
8
BLACK
6
CONTINUOUS
10
63.8882
20
-57.8248
11
63.9462
21
-57.8635
0
LINE
8
BLACK
6
CONTINUOUS
10
63.9462
20
-57.8635
11
63.9865
21
-57.8905
0
LINE
8
BLACK
6
CONTINUOUS
10
63.9865
20
-57.8905
11
64.07
21
-57.974
0
LINE
8
BLACK
6
CONTINUOUS
10
64.07
20
-57.974
11
64.1357
21
-58.0723
0
LINE
8
BLACK
6
CONTINUOUS
10
64.1357
20
-58.0723
11
64.1809
21
-58.1815
0
LINE
8
BLACK
6
CONTINUOUS
10
64.1809
20
-58.1815
11
64.1873
21
-58.2135
0
LINE
8
BLACK
6
CONTINUOUS
10
64.1873
20
-58.2135
11
64.204
21
-58.2974
0
LINE
8
BLACK
6
CONTINUOUS
10
64.204
20
-58.2974
11
64.204
21
-58.4156
0
LINE
8
BLACK
6
CONTINUOUS
10
64.204
20
-58.4156
11
64.2008
21
-58.4316
0
LINE
8
BLACK
6
CONTINUOUS
10
64.2008
20
-58.4316
11
64.1809
21
-58.5315
0
LINE
8
BLACK
6
CONTINUOUS
10
64.1809
20
-58.5315
11
64.1357
21
-58.6407
0
LINE
8
BLACK
6
CONTINUOUS
10
64.1357
20
-58.6407
11
64.1357
21
-58.6407
0
LINE
8
BLACK
6
CONTINUOUS
10
64.1357
20
-58.6407
11
64.07
21
-58.739
0
LINE
8
BLACK
6
CONTINUOUS
10
64.07
20
-58.739
11
63.9865
21
-58.8225
0
LINE
8
BLACK
6
CONTINUOUS
10
63.9865
20
-58.8225
11
63.9122
21
-58.8722
0
LINE
8
BLACK
6
CONTINUOUS
10
63.9122
20
-58.8722
11
63.8882
21
-58.8882
0
LINE
8
BLACK
6
CONTINUOUS
10
63.8882
20
-58.8882
11
63.779
21
-58.9334
0
LINE
8
BLACK
6
CONTINUOUS
10
63.779
20
-58.9334
11
63.7596
21
-58.9373
0
LINE
8
BLACK
6
CONTINUOUS
10
63.7596
20
-58.9373
11
63.6631
21
-58.9565
0
LINE
8
BLACK
6
CONTINUOUS
10
63.6631
20
-58.9565
11
63.5449
21
-58.9565
0
LINE
8
BLACK
6
CONTINUOUS
10
63.5449
20
-58.9565
11
63.4484
21
-58.9373
0
LINE
8
BLACK
6
CONTINUOUS
10
63.4484
20
-58.9373
11
63.429
21
-58.9334
0
LINE
8
BLACK
6
CONTINUOUS
10
63.429
20
-58.9334
11
63.3198
21
-58.8882
0
LINE
8
BLACK
6
CONTINUOUS
10
63.3198
20
-58.8882
11
63.2958
21
-58.8722
0
LINE
8
BLACK
6
CONTINUOUS
10
63.2958
20
-58.8722
11
63.2215
21
-58.8225
0
LINE
8
BLACK
6
CONTINUOUS
10
63.2215
20
-58.8225
11
63.1379
21
-58.739
0
LINE
8
BLACK
6
CONTINUOUS
10
63.1379
20
-58.739
11
63.0723
21
-58.6407
0
LINE
8
BLACK
6
CONTINUOUS
10
63.0723
20
-58.6407
11
63.0723
21
-58.6407
0
LINE
8
BLACK
6
CONTINUOUS
10
63.0723
20
-58.6407
11
63.0271
21
-58.5315
0
LINE
8
BLACK
6
CONTINUOUS
10
63.0271
20
-58.5315
11
63.0072
21
-58.4316
0
LINE
8
BLACK
6
CONTINUOUS
10
63.0072
20
-58.4316
11
63.004
21
-58.4156
0
LINE
8
BLACK
6
CONTINUOUS
10
63.004
20
-58.4156
11
63.004
21
-58.2974
0
LINE
8
BLACK
6
CONTINUOUS
10
63.004
20
-58.2974
11
63.0207
21
-58.2135
0
LINE
8
BLACK
6
CONTINUOUS
10
63.0207
20
-58.2135
11
63.0271
21
-58.1815
0
LINE
8
BLACK
6
CONTINUOUS
10
63.0271
20
-58.1815
11
63.0723
21
-58.0723
0
LINE
8
BLACK
6
CONTINUOUS
10
63.0723
20
-58.0723
11
63.138
21
-57.974
0
LINE
8
BLACK
6
CONTINUOUS
10
63.138
20
-57.974
11
63.2215
21
-57.8905
0
LINE
8
BLACK
6
CONTINUOUS
10
63.2215
20
-57.8905
11
63.2618
21
-57.8635
0
LINE
8
BLACK
6
CONTINUOUS
10
63.2618
20
-57.8635
11
63.3198
21
-57.8248
0
LINE
8
BLACK
6
CONTINUOUS
10
63.3198
20
-57.8248
11
63.3198
21
-57.8248
0
LINE
8
BLACK
6
CONTINUOUS
10
63.3198
20
-57.8248
11
63.429
21
-57.7796
0
LINE
8
BLACK
6
CONTINUOUS
10
63.429
20
-57.7796
11
63.4879
21
-57.7678
0
LINE
8
BLACK
6
CONTINUOUS
10
63.4879
20
-57.7678
11
63.5449
21
-57.7565
0
LINE
8
BLACK
6
CONTINUOUS
10
63.5449
20
-57.7565
11
63.6631
21
-57.7565
0
LINE
8
BLACK
6
CONTINUOUS
10
63.6631
20
-57.7565
11
63.7201
21
-57.7678
0
LINE
8
BLACK
6
CONTINUOUS
10
70.3701
20
-57.7678
11
70.429
21
-57.7796
0
LINE
8
BLACK
6
CONTINUOUS
10
70.429
20
-57.7796
11
70.5382
21
-57.8248
0
LINE
8
BLACK
6
CONTINUOUS
10
70.5382
20
-57.8248
11
70.5382
21
-57.8248
0
LINE
8
BLACK
6
CONTINUOUS
10
70.5382
20
-57.8248
11
70.5962
21
-57.8635
0
LINE
8
BLACK
6
CONTINUOUS
10
70.5962
20
-57.8635
11
70.6365
21
-57.8905
0
LINE
8
BLACK
6
CONTINUOUS
10
70.6365
20
-57.8905
11
70.72
21
-57.974
0
LINE
8
BLACK
6
CONTINUOUS
10
70.72
20
-57.974
11
70.7857
21
-58.0723
0
LINE
8
BLACK
6
CONTINUOUS
10
70.7857
20
-58.0723
11
70.8309
21
-58.1815
0
LINE
8
BLACK
6
CONTINUOUS
10
70.8309
20
-58.1815
11
70.8373
21
-58.2135
0
LINE
8
BLACK
6
CONTINUOUS
10
70.8373
20
-58.2135
11
70.854
21
-58.2974
0
LINE
8
BLACK
6
CONTINUOUS
10
70.854
20
-58.2974
11
70.854
21
-58.4156
0
LINE
8
BLACK
6
CONTINUOUS
10
70.854
20
-58.4156
11
70.8508
21
-58.4316
0
LINE
8
BLACK
6
CONTINUOUS
10
70.8508
20
-58.4316
11
70.8309
21
-58.5315
0
LINE
8
BLACK
6
CONTINUOUS
10
70.8309
20
-58.5315
11
70.7857
21
-58.6407
0
LINE
8
BLACK
6
CONTINUOUS
10
70.7857
20
-58.6407
11
70.7857
21
-58.6407
0
LINE
8
BLACK
6
CONTINUOUS
10
70.7857
20
-58.6407
11
70.7201
21
-58.739
0
LINE
8
BLACK
6
CONTINUOUS
10
70.7201
20
-58.739
11
70.6365
21
-58.8225
0
LINE
8
BLACK
6
CONTINUOUS
10
70.6365
20
-58.8225
11
70.5622
21
-58.8722
0
LINE
8
BLACK
6
CONTINUOUS
10
70.5622
20
-58.8722
11
70.5382
21
-58.8882
0
LINE
8
BLACK
6
CONTINUOUS
10
70.5382
20
-58.8882
11
70.429
21
-58.9334
0
LINE
8
BLACK
6
CONTINUOUS
10
70.429
20
-58.9334
11
70.4096
21
-58.9373
0
LINE
8
BLACK
6
CONTINUOUS
10
70.4096
20
-58.9373
11
70.3131
21
-58.9565
0
LINE
8
BLACK
6
CONTINUOUS
10
70.3131
20
-58.9565
11
70.1949
21
-58.9565
0
LINE
8
BLACK
6
CONTINUOUS
10
70.1949
20
-58.9565
11
70.0984
21
-58.9373
0
LINE
8
BLACK
6
CONTINUOUS
10
70.0984
20
-58.9373
11
70.079
21
-58.9334
0
LINE
8
BLACK
6
CONTINUOUS
10
70.079
20
-58.9334
11
69.9698
21
-58.8882
0
LINE
8
BLACK
6
CONTINUOUS
10
69.9698
20
-58.8882
11
69.9458
21
-58.8722
0
LINE
8
BLACK
6
CONTINUOUS
10
69.9458
20
-58.8722
11
69.8715
21
-58.8225
0
LINE
8
BLACK
6
CONTINUOUS
10
69.8715
20
-58.8225
11
69.7879
21
-58.739
0
LINE
8
BLACK
6
CONTINUOUS
10
69.7879
20
-58.739
11
69.7223
21
-58.6407
0
LINE
8
BLACK
6
CONTINUOUS
10
69.7223
20
-58.6407
11
69.7223
21
-58.6407
0
LINE
8
BLACK
6
CONTINUOUS
10
69.7223
20
-58.6407
11
69.6771
21
-58.5315
0
LINE
8
BLACK
6
CONTINUOUS
10
69.6771
20
-58.5315
11
69.6572
21
-58.4316
0
LINE
8
BLACK
6
CONTINUOUS
10
69.6572
20
-58.4316
11
69.654
21
-58.4156
0
LINE
8
BLACK
6
CONTINUOUS
10
69.654
20
-58.4156
11
69.654
21
-58.2974
0
LINE
8
BLACK
6
CONTINUOUS
10
69.654
20
-58.2974
11
69.6707
21
-58.2135
0
LINE
8
BLACK
6
CONTINUOUS
10
69.6707
20
-58.2135
11
69.6771
21
-58.1815
0
LINE
8
BLACK
6
CONTINUOUS
10
69.6771
20
-58.1815
11
69.7223
21
-58.0723
0
LINE
8
BLACK
6
CONTINUOUS
10
69.7223
20
-58.0723
11
69.788
21
-57.974
0
LINE
8
BLACK
6
CONTINUOUS
10
69.788
20
-57.974
11
69.8715
21
-57.8905
0
LINE
8
BLACK
6
CONTINUOUS
10
69.8715
20
-57.8905
11
69.9118
21
-57.8635
0
LINE
8
BLACK
6
CONTINUOUS
10
69.9118
20
-57.8635
11
69.9698
21
-57.8248
0
LINE
8
BLACK
6
CONTINUOUS
10
69.9698
20
-57.8248
11
69.9698
21
-57.8248
0
LINE
8
BLACK
6
CONTINUOUS
10
69.9698
20
-57.8248
11
70.079
21
-57.7796
0
LINE
8
BLACK
6
CONTINUOUS
10
70.079
20
-57.7796
11
70.1379
21
-57.7678
0
LINE
8
BLACK
6
CONTINUOUS
10
70.1379
20
-57.7678
11
70.1949
21
-57.7565
0
LINE
8
BLACK
6
CONTINUOUS
10
70.1949
20
-57.7565
11
70.3131
21
-57.7565
0
LINE
8
BLACK
6
CONTINUOUS
10
70.3131
20
-57.7565
11
70.3701
21
-57.7678
0
LINE
8
BLACK
6
CONTINUOUS
10
67.5154
20
-57.8011
11
67.5865
21
-57.821
0
LINE
8
BLACK
6
CONTINUOUS
10
67.5865
20
-57.821
11
67.6507
21
-57.8535
0
LINE
8
BLACK
6
CONTINUOUS
10
67.6507
20
-57.8535
11
67.6524
21
-57.8544
0
LINE
8
BLACK
6
CONTINUOUS
10
67.6524
20
-57.8544
11
67.7105
21
-57.9
0
LINE
8
BLACK
6
CONTINUOUS
10
67.7105
20
-57.9
11
67.7105
21
-57.9
0
LINE
8
BLACK
6
CONTINUOUS
10
67.7105
20
-57.9
11
67.7105
21
-57.9
0
LINE
8
BLACK
6
CONTINUOUS
10
67.7105
20
-57.9
11
67.7205
21
-57.9116
0
LINE
8
BLACK
6
CONTINUOUS
10
67.7205
20
-57.9116
11
67.7466
21
-57.942
0
LINE
8
BLACK
6
CONTINUOUS
10
67.7466
20
-57.942
11
67.8537
21
-58.0951
0
LINE
8
BLACK
6
CONTINUOUS
10
67.8537
20
-58.0951
11
67.8537
21
-58.0951
0
LINE
8
BLACK
6
CONTINUOUS
10
67.8537
20
-58.0951
11
67.8809
21
-58.1433
0
LINE
8
BLACK
6
CONTINUOUS
10
67.8809
20
-58.1433
11
67.9039
21
-58.2135
0
LINE
8
BLACK
6
CONTINUOUS
10
67.9039
20
-58.2135
11
67.9127
21
-58.2868
0
LINE
8
BLACK
6
CONTINUOUS
10
67.9127
20
-58.2868
11
67.9071
21
-58.3605
0
LINE
8
BLACK
6
CONTINUOUS
10
67.9071
20
-58.3605
11
67.8872
21
-58.4316
0
LINE
8
BLACK
6
CONTINUOUS
10
67.8872
20
-58.4316
11
67.8546
21
-58.4958
0
LINE
8
BLACK
6
CONTINUOUS
10
67.8546
20
-58.4958
11
67.8538
21
-58.4975
0
LINE
8
BLACK
6
CONTINUOUS
10
67.8538
20
-58.4975
11
67.8082
21
-58.5556
0
LINE
8
BLACK
6
CONTINUOUS
10
67.8082
20
-58.5556
11
67.8082
21
-58.5556
0
LINE
8
BLACK
6
CONTINUOUS
10
67.8082
20
-58.5556
11
67.8082
21
-58.5556
0
LINE
8
BLACK
6
CONTINUOUS
10
67.8082
20
-58.5556
11
67.7521
21
-58.6037
0
LINE
8
BLACK
6
CONTINUOUS
10
67.7521
20
-58.6037
11
67.7359
21
-58.6129
0
LINE
8
BLACK
6
CONTINUOUS
10
67.7359
20
-58.6129
11
67.6877
21
-58.64
0
LINE
8
BLACK
6
CONTINUOUS
10
67.6877
20
-58.64
11
67.6175
21
-58.6629
0
LINE
8
BLACK
6
CONTINUOUS
10
67.6175
20
-58.6629
11
67.5442
21
-58.6718
0
LINE
8
BLACK
6
CONTINUOUS
10
67.5442
20
-58.6718
11
67.5442
21
-58.6718
0
LINE
8
BLACK
6
CONTINUOUS
10
67.5442
20
-58.6718
11
67.4706
21
-58.6662
0
LINE
8
BLACK
6
CONTINUOUS
10
67.4706
20
-58.6662
11
67.3994
21
-58.6463
0
LINE
8
BLACK
6
CONTINUOUS
10
67.3994
20
-58.6463
11
67.3335
21
-58.6129
0
LINE
8
BLACK
6
CONTINUOUS
10
67.3335
20
-58.6129
11
67.3335
21
-58.6129
0
LINE
8
BLACK
6
CONTINUOUS
10
67.3335
20
-58.6129
11
67.2754
21
-58.5673
0
LINE
8
BLACK
6
CONTINUOUS
10
67.2754
20
-58.5673
11
67.2754
21
-58.5673
0
LINE
8
BLACK
6
CONTINUOUS
10
67.2754
20
-58.5673
11
67.2654
21
-58.5556
0
LINE
8
BLACK
6
CONTINUOUS
10
67.2654
20
-58.5556
11
67.2394
21
-58.5252
0
LINE
8
BLACK
6
CONTINUOUS
10
67.2394
20
-58.5252
11
67.1322
21
-58.3722
0
LINE
8
BLACK
6
CONTINUOUS
10
67.1322
20
-58.3722
11
67.1322
21
-58.3722
0
LINE
8
BLACK
6
CONTINUOUS
10
67.1322
20
-58.3722
11
67.1322
21
-58.3722
0
LINE
8
BLACK
6
CONTINUOUS
10
67.1322
20
-58.3722
11
67.105
21
-58.324
0
LINE
8
BLACK
6
CONTINUOUS
10
67.105
20
-58.324
11
67.0821
21
-58.2538
0
LINE
8
BLACK
6
CONTINUOUS
10
67.0821
20
-58.2538
11
67.0821
21
-58.2537
0
LINE
8
BLACK
6
CONTINUOUS
10
67.0821
20
-58.2537
11
67.0732
21
-58.1804
0
LINE
8
BLACK
6
CONTINUOUS
10
67.0732
20
-58.1804
11
67.0761
21
-58.1433
0
LINE
8
BLACK
6
CONTINUOUS
10
67.0761
20
-58.1433
11
67.0789
21
-58.1068
0
LINE
8
BLACK
6
CONTINUOUS
10
67.0789
20
-58.1068
11
67.0988
21
-58.0356
0
LINE
8
BLACK
6
CONTINUOUS
10
67.0988
20
-58.0356
11
67.1321
21
-57.9697
0
LINE
8
BLACK
6
CONTINUOUS
10
67.1321
20
-57.9697
11
67.1321
21
-57.9697
0
LINE
8
BLACK
6
CONTINUOUS
10
67.1321
20
-57.9697
11
67.1777
21
-57.9116
0
LINE
8
BLACK
6
CONTINUOUS
10
67.1777
20
-57.9116
11
67.1778
21
-57.9116
0
LINE
8
BLACK
6
CONTINUOUS
10
67.1778
20
-57.9116
11
67.1778
21
-57.9116
0
LINE
8
BLACK
6
CONTINUOUS
10
67.1778
20
-57.9116
11
67.2338
21
-57.8635
0
LINE
8
BLACK
6
CONTINUOUS
10
67.2338
20
-57.8635
11
67.2982
21
-57.8273
0
LINE
8
BLACK
6
CONTINUOUS
10
67.2982
20
-57.8273
11
67.3684
21
-57.8043
0
LINE
8
BLACK
6
CONTINUOUS
10
67.3684
20
-57.8043
11
67.3684
21
-57.8043
0
LINE
8
BLACK
6
CONTINUOUS
10
67.3684
20
-57.8043
11
67.4417
21
-57.7955
0
LINE
8
BLACK
6
CONTINUOUS
10
67.4417
20
-57.7955
11
67.4417
21
-57.7955
0
LINE
8
BLACK
6
CONTINUOUS
10
67.4417
20
-57.7955
11
67.5154
21
-57.8011
0
LINE
8
BLACK
6
CONTINUOUS
10
66.4896
20
-57.8043
11
66.5598
21
-57.8273
0
LINE
8
BLACK
6
CONTINUOUS
10
66.5598
20
-57.8273
11
66.5998
21
-57.8498
0
LINE
8
BLACK
6
CONTINUOUS
10
66.5998
20
-57.8498
11
66.6242
21
-57.8635
0
LINE
8
BLACK
6
CONTINUOUS
10
66.6242
20
-57.8635
11
66.6802
21
-57.9116
0
LINE
8
BLACK
6
CONTINUOUS
10
66.6802
20
-57.9116
11
66.6802
21
-57.9116
0
LINE
8
BLACK
6
CONTINUOUS
10
66.6802
20
-57.9116
11
66.6803
21
-57.9116
0
LINE
8
BLACK
6
CONTINUOUS
10
66.6803
20
-57.9116
11
66.7259
21
-57.9697
0
LINE
8
BLACK
6
CONTINUOUS
10
66.7259
20
-57.9697
11
66.7259
21
-57.9697
0
LINE
8
BLACK
6
CONTINUOUS
10
66.7259
20
-57.9697
11
66.7592
21
-58.0356
0
LINE
8
BLACK
6
CONTINUOUS
10
66.7592
20
-58.0356
11
66.7791
21
-58.1068
0
LINE
8
BLACK
6
CONTINUOUS
10
66.7791
20
-58.1068
11
66.7848
21
-58.1804
0
LINE
8
BLACK
6
CONTINUOUS
10
66.7848
20
-58.1804
11
66.7759
21
-58.2538
0
LINE
8
BLACK
6
CONTINUOUS
10
66.7759
20
-58.2538
11
66.753
21
-58.324
0
LINE
8
BLACK
6
CONTINUOUS
10
66.753
20
-58.324
11
66.7258
21
-58.3722
0
LINE
8
BLACK
6
CONTINUOUS
10
66.7258
20
-58.3722
11
66.7258
21
-58.3722
0
LINE
8
BLACK
6
CONTINUOUS
10
66.7258
20
-58.3722
11
66.7258
21
-58.3722
0
LINE
8
BLACK
6
CONTINUOUS
10
66.7258
20
-58.3722
11
66.6186
21
-58.5252
0
LINE
8
BLACK
6
CONTINUOUS
10
66.6186
20
-58.5252
11
66.6186
21
-58.5252
0
LINE
8
BLACK
6
CONTINUOUS
10
66.6186
20
-58.5252
11
66.5826
21
-58.5673
0
LINE
8
BLACK
6
CONTINUOUS
10
66.5826
20
-58.5673
11
66.5826
21
-58.5673
0
LINE
8
BLACK
6
CONTINUOUS
10
66.5826
20
-58.5673
11
66.5826
21
-58.5673
0
LINE
8
BLACK
6
CONTINUOUS
10
66.5826
20
-58.5673
11
66.5245
21
-58.6129
0
LINE
8
BLACK
6
CONTINUOUS
10
66.5245
20
-58.6129
11
66.5245
21
-58.6129
0
LINE
8
BLACK
6
CONTINUOUS
10
66.5245
20
-58.6129
11
66.4586
21
-58.6463
0
LINE
8
BLACK
6
CONTINUOUS
10
66.4586
20
-58.6463
11
66.3874
21
-58.6662
0
LINE
8
BLACK
6
CONTINUOUS
10
66.3874
20
-58.6662
11
66.3138
21
-58.6718
0
LINE
8
BLACK
6
CONTINUOUS
10
66.3138
20
-58.6718
11
66.3138
21
-58.6718
0
LINE
8
BLACK
6
CONTINUOUS
10
66.3138
20
-58.6718
11
66.2405
21
-58.6629
0
LINE
8
BLACK
6
CONTINUOUS
10
66.2405
20
-58.6629
11
66.2362
21
-58.6616
0
LINE
8
BLACK
6
CONTINUOUS
10
66.2362
20
-58.6616
11
66.1703
21
-58.64
0
LINE
8
BLACK
6
CONTINUOUS
10
66.1703
20
-58.64
11
66.1059
21
-58.6037
0
LINE
8
BLACK
6
CONTINUOUS
10
66.1059
20
-58.6037
11
66.0498
21
-58.5556
0
LINE
8
BLACK
6
CONTINUOUS
10
66.0498
20
-58.5556
11
66.0498
21
-58.5556
0
LINE
8
BLACK
6
CONTINUOUS
10
66.0498
20
-58.5556
11
66.0498
21
-58.5556
0
LINE
8
BLACK
6
CONTINUOUS
10
66.0498
20
-58.5556
11
66.0042
21
-58.4975
0
LINE
8
BLACK
6
CONTINUOUS
10
66.0042
20
-58.4975
11
66.0034
21
-58.4958
0
LINE
8
BLACK
6
CONTINUOUS
10
66.0034
20
-58.4958
11
65.9708
21
-58.4316
0
LINE
8
BLACK
6
CONTINUOUS
10
65.9708
20
-58.4316
11
65.9509
21
-58.3605
0
LINE
8
BLACK
6
CONTINUOUS
10
65.9509
20
-58.3605
11
65.9453
21
-58.2868
0
LINE
8
BLACK
6
CONTINUOUS
10
65.9453
20
-58.2868
11
65.9493
21
-58.2538
0
LINE
8
BLACK
6
CONTINUOUS
10
65.9493
20
-58.2538
11
65.9541
21
-58.2135
0
LINE
8
BLACK
6
CONTINUOUS
10
65.9541
20
-58.2135
11
65.9545
21
-58.2123
0
LINE
8
BLACK
6
CONTINUOUS
10
65.9545
20
-58.2123
11
65.9771
21
-58.1433
0
LINE
8
BLACK
6
CONTINUOUS
10
65.9771
20
-58.1433
11
66.0043
21
-58.0951
0
LINE
8
BLACK
6
CONTINUOUS
10
66.0043
20
-58.0951
11
66.0043
21
-58.0951
0
LINE
8
BLACK
6
CONTINUOUS
10
66.0043
20
-58.0951
11
66.1114
21
-57.942
0
LINE
8
BLACK
6
CONTINUOUS
10
66.1114
20
-57.942
11
66.1435
21
-57.9046
0
LINE
8
BLACK
6
CONTINUOUS
10
66.1435
20
-57.9046
11
66.1475
21
-57.9
0
LINE
8
BLACK
6
CONTINUOUS
10
66.1475
20
-57.9
11
66.1596
21
-57.8905
0
LINE
8
BLACK
6
CONTINUOUS
10
66.1596
20
-57.8905
11
66.2056
21
-57.8544
0
LINE
8
BLACK
6
CONTINUOUS
10
66.2056
20
-57.8544
11
66.2073
21
-57.8535
0
LINE
8
BLACK
6
CONTINUOUS
10
66.2073
20
-57.8535
11
66.2715
21
-57.821
0
LINE
8
BLACK
6
CONTINUOUS
10
66.2715
20
-57.821
11
66.3426
21
-57.8011
0
LINE
8
BLACK
6
CONTINUOUS
10
66.3426
20
-57.8011
11
66.4163
21
-57.7955
0
LINE
8
BLACK
6
CONTINUOUS
10
66.4163
20
-57.7955
11
66.4163
21
-57.7955
0
LINE
8
BLACK
6
CONTINUOUS
10
66.4163
20
-57.7955
11
66.4896
21
-57.8043
0
LINE
8
BLACK
6
CONTINUOUS
10
68.7574
20
-57.0023
11
68.7574
21
-57.0023
0
LINE
8
BLACK
6
CONTINUOUS
10
68.7574
20
-57.0023
11
68.7574
21
-57.0023
0
LINE
8
BLACK
6
CONTINUOUS
10
68.7574
20
-57.0023
11
68.8328
21
-57.0252
0
LINE
8
BLACK
6
CONTINUOUS
10
68.8328
20
-57.0252
11
68.8944
21
-57.0581
0
LINE
8
BLACK
6
CONTINUOUS
10
68.8944
20
-57.0581
11
68.9023
21
-57.0623
0
LINE
8
BLACK
6
CONTINUOUS
10
68.9023
20
-57.0623
11
68.9632
21
-57.1123
0
LINE
8
BLACK
6
CONTINUOUS
10
68.9632
20
-57.1123
11
69.0132
21
-57.1732
0
LINE
8
BLACK
6
CONTINUOUS
10
69.0132
20
-57.1732
11
69.0132
21
-57.1732
0
LINE
8
BLACK
6
CONTINUOUS
10
69.0132
20
-57.1732
11
69.0503
21
-57.2427
0
LINE
8
BLACK
6
CONTINUOUS
10
69.0503
20
-57.2427
11
69.0503
21
-57.2427
0
LINE
8
BLACK
6
CONTINUOUS
10
69.0503
20
-57.2427
11
69.0732
21
-57.3181
0
LINE
8
BLACK
6
CONTINUOUS
10
69.0732
20
-57.3181
11
69.0809
21
-57.3965
0
LINE
8
BLACK
6
CONTINUOUS
10
69.0809
20
-57.3965
11
69.0732
21
-57.4749
0
LINE
8
BLACK
6
CONTINUOUS
10
69.0732
20
-57.4749
11
69.0732
21
-57.4749
0
LINE
8
BLACK
6
CONTINUOUS
10
69.0732
20
-57.4749
11
69.0732
21
-57.4749
0
LINE
8
BLACK
6
CONTINUOUS
10
69.0732
20
-57.4749
11
69.0503
21
-57.5503
0
LINE
8
BLACK
6
CONTINUOUS
10
69.0503
20
-57.5503
11
69.0174
21
-57.6119
0
LINE
8
BLACK
6
CONTINUOUS
10
69.0174
20
-57.6119
11
69.0132
21
-57.6198
0
LINE
8
BLACK
6
CONTINUOUS
10
69.0132
20
-57.6198
11
68.9632
21
-57.6807
0
LINE
8
BLACK
6
CONTINUOUS
10
68.9632
20
-57.6807
11
68.9023
21
-57.7307
0
LINE
8
BLACK
6
CONTINUOUS
10
68.9023
20
-57.7307
11
68.9023
21
-57.7307
0
LINE
8
BLACK
6
CONTINUOUS
10
68.9023
20
-57.7307
11
68.8328
21
-57.7678
0
LINE
8
BLACK
6
CONTINUOUS
10
68.8328
20
-57.7678
11
68.7574
21
-57.7907
0
LINE
8
BLACK
6
CONTINUOUS
10
68.7574
20
-57.7907
11
68.7574
21
-57.7907
0
LINE
8
BLACK
6
CONTINUOUS
10
68.7574
20
-57.7907
11
68.7574
21
-57.7907
0
LINE
8
BLACK
6
CONTINUOUS
10
68.7574
20
-57.7907
11
68.6987
21
-57.7965
0
LINE
8
BLACK
6
CONTINUOUS
10
68.6987
20
-57.7965
11
68.4593
21
-57.7965
0
LINE
8
BLACK
6
CONTINUOUS
10
68.4593
20
-57.7965
11
68.4006
21
-57.7907
0
LINE
8
BLACK
6
CONTINUOUS
10
68.4006
20
-57.7907
11
68.4006
21
-57.7907
0
LINE
8
BLACK
6
CONTINUOUS
10
68.4006
20
-57.7907
11
68.4006
21
-57.7907
0
LINE
8
BLACK
6
CONTINUOUS
10
68.4006
20
-57.7907
11
68.3252
21
-57.7678
0
LINE
8
BLACK
6
CONTINUOUS
10
68.3252
20
-57.7678
11
68.2557
21
-57.7307
0
LINE
8
BLACK
6
CONTINUOUS
10
68.2557
20
-57.7307
11
68.2557
21
-57.7307
0
LINE
8
BLACK
6
CONTINUOUS
10
68.2557
20
-57.7307
11
68.1948
21
-57.6807
0
LINE
8
BLACK
6
CONTINUOUS
10
68.1948
20
-57.6807
11
68.1448
21
-57.6198
0
LINE
8
BLACK
6
CONTINUOUS
10
68.1448
20
-57.6198
11
68.1406
21
-57.6119
0
LINE
8
BLACK
6
CONTINUOUS
10
68.1406
20
-57.6119
11
68.1077
21
-57.5503
0
LINE
8
BLACK
6
CONTINUOUS
10
68.1077
20
-57.5503
11
68.0848
21
-57.4749
0
LINE
8
BLACK
6
CONTINUOUS
10
68.0848
20
-57.4749
11
68.0848
21
-57.4749
0
LINE
8
BLACK
6
CONTINUOUS
10
68.0848
20
-57.4749
11
68.0848
21
-57.4749
0
LINE
8
BLACK
6
CONTINUOUS
10
68.0848
20
-57.4749
11
68.0771
21
-57.3965
0
LINE
8
BLACK
6
CONTINUOUS
10
68.0771
20
-57.3965
11
68.0848
21
-57.3181
0
LINE
8
BLACK
6
CONTINUOUS
10
68.0848
20
-57.3181
11
68.1077
21
-57.2427
0
LINE
8
BLACK
6
CONTINUOUS
10
68.1077
20
-57.2427
11
68.1077
21
-57.2427
0
LINE
8
BLACK
6
CONTINUOUS
10
68.1077
20
-57.2427
11
68.1448
21
-57.1732
0
LINE
8
BLACK
6
CONTINUOUS
10
68.1448
20
-57.1732
11
68.1448
21
-57.1732
0
LINE
8
BLACK
6
CONTINUOUS
10
68.1448
20
-57.1732
11
68.1948
21
-57.1123
0
LINE
8
BLACK
6
CONTINUOUS
10
68.1948
20
-57.1123
11
68.2557
21
-57.0623
0
LINE
8
BLACK
6
CONTINUOUS
10
68.2557
20
-57.0623
11
68.2636
21
-57.0581
0
LINE
8
BLACK
6
CONTINUOUS
10
68.2636
20
-57.0581
11
68.3252
21
-57.0252
0
LINE
8
BLACK
6
CONTINUOUS
10
68.3252
20
-57.0252
11
68.4006
21
-57.0023
0
LINE
8
BLACK
6
CONTINUOUS
10
68.4006
20
-57.0023
11
68.4006
21
-57.0023
0
LINE
8
BLACK
6
CONTINUOUS
10
68.4006
20
-57.0023
11
68.4006
21
-57.0023
0
LINE
8
BLACK
6
CONTINUOUS
10
68.4006
20
-57.0023
11
68.4593
21
-56.9965
0
LINE
8
BLACK
6
CONTINUOUS
10
68.4593
20
-56.9965
11
68.6987
21
-56.9965
0
LINE
8
BLACK
6
CONTINUOUS
10
68.6987
20
-56.9965
11
68.7574
21
-57.0023
0
LINE
8
BLACK
6
CONTINUOUS
10
65.4574
20
-57.0023
11
65.4574
21
-57.0023
0
LINE
8
BLACK
6
CONTINUOUS
10
65.4574
20
-57.0023
11
65.4574
21
-57.0023
0
LINE
8
BLACK
6
CONTINUOUS
10
65.4574
20
-57.0023
11
65.5328
21
-57.0252
0
LINE
8
BLACK
6
CONTINUOUS
10
65.5328
20
-57.0252
11
65.5944
21
-57.0581
0
LINE
8
BLACK
6
CONTINUOUS
10
65.5944
20
-57.0581
11
65.6023
21
-57.0623
0
LINE
8
BLACK
6
CONTINUOUS
10
65.6023
20
-57.0623
11
65.6632
21
-57.1123
0
LINE
8
BLACK
6
CONTINUOUS
10
65.6632
20
-57.1123
11
65.7132
21
-57.1732
0
LINE
8
BLACK
6
CONTINUOUS
10
65.7132
20
-57.1732
11
65.7132
21
-57.1732
0
LINE
8
BLACK
6
CONTINUOUS
10
65.7132
20
-57.1732
11
65.7503
21
-57.2427
0
LINE
8
BLACK
6
CONTINUOUS
10
65.7503
20
-57.2427
11
65.7503
21
-57.2427
0
LINE
8
BLACK
6
CONTINUOUS
10
65.7503
20
-57.2427
11
65.7732
21
-57.3181
0
LINE
8
BLACK
6
CONTINUOUS
10
65.7732
20
-57.3181
11
65.7809
21
-57.3965
0
LINE
8
BLACK
6
CONTINUOUS
10
65.7809
20
-57.3965
11
65.7732
21
-57.4749
0
LINE
8
BLACK
6
CONTINUOUS
10
65.7732
20
-57.4749
11
65.7732
21
-57.4749
0
LINE
8
BLACK
6
CONTINUOUS
10
65.7732
20
-57.4749
11
65.7732
21
-57.4749
0
LINE
8
BLACK
6
CONTINUOUS
10
65.7732
20
-57.4749
11
65.7503
21
-57.5503
0
LINE
8
BLACK
6
CONTINUOUS
10
65.7503
20
-57.5503
11
65.7174
21
-57.6119
0
LINE
8
BLACK
6
CONTINUOUS
10
65.7174
20
-57.6119
11
65.7132
21
-57.6198
0
LINE
8
BLACK
6
CONTINUOUS
10
65.7132
20
-57.6198
11
65.6632
21
-57.6807
0
LINE
8
BLACK
6
CONTINUOUS
10
65.6632
20
-57.6807
11
65.6023
21
-57.7307
0
LINE
8
BLACK
6
CONTINUOUS
10
65.6023
20
-57.7307
11
65.6023
21
-57.7307
0
LINE
8
BLACK
6
CONTINUOUS
10
65.6023
20
-57.7307
11
65.5328
21
-57.7678
0
LINE
8
BLACK
6
CONTINUOUS
10
65.5328
20
-57.7678
11
65.4574
21
-57.7907
0
LINE
8
BLACK
6
CONTINUOUS
10
65.4574
20
-57.7907
11
65.4574
21
-57.7907
0
LINE
8
BLACK
6
CONTINUOUS
10
65.4574
20
-57.7907
11
65.4574
21
-57.7907
0
LINE
8
BLACK
6
CONTINUOUS
10
65.4574
20
-57.7907
11
65.3987
21
-57.7965
0
LINE
8
BLACK
6
CONTINUOUS
10
65.3987
20
-57.7965
11
65.1593
21
-57.7965
0
LINE
8
BLACK
6
CONTINUOUS
10
65.1593
20
-57.7965
11
65.1006
21
-57.7907
0
LINE
8
BLACK
6
CONTINUOUS
10
65.1006
20
-57.7907
11
65.1006
21
-57.7907
0
LINE
8
BLACK
6
CONTINUOUS
10
65.1006
20
-57.7907
11
65.1006
21
-57.7907
0
LINE
8
BLACK
6
CONTINUOUS
10
65.1006
20
-57.7907
11
65.0252
21
-57.7678
0
LINE
8
BLACK
6
CONTINUOUS
10
65.0252
20
-57.7678
11
64.9557
21
-57.7307
0
LINE
8
BLACK
6
CONTINUOUS
10
64.9557
20
-57.7307
11
64.9557
21
-57.7307
0
LINE
8
BLACK
6
CONTINUOUS
10
64.9557
20
-57.7307
11
64.8948
21
-57.6807
0
LINE
8
BLACK
6
CONTINUOUS
10
64.8948
20
-57.6807
11
64.8448
21
-57.6198
0
LINE
8
BLACK
6
CONTINUOUS
10
64.8448
20
-57.6198
11
64.8406
21
-57.6119
0
LINE
8
BLACK
6
CONTINUOUS
10
64.8406
20
-57.6119
11
64.8077
21
-57.5503
0
LINE
8
BLACK
6
CONTINUOUS
10
64.8077
20
-57.5503
11
64.7848
21
-57.4749
0
LINE
8
BLACK
6
CONTINUOUS
10
64.7848
20
-57.4749
11
64.7848
21
-57.4749
0
LINE
8
BLACK
6
CONTINUOUS
10
64.7848
20
-57.4749
11
64.7848
21
-57.4749
0
LINE
8
BLACK
6
CONTINUOUS
10
64.7848
20
-57.4749
11
64.7771
21
-57.3965
0
LINE
8
BLACK
6
CONTINUOUS
10
64.7771
20
-57.3965
11
64.7848
21
-57.3181
0
LINE
8
BLACK
6
CONTINUOUS
10
64.7848
20
-57.3181
11
64.8077
21
-57.2427
0
LINE
8
BLACK
6
CONTINUOUS
10
64.8077
20
-57.2427
11
64.8077
21
-57.2427
0
LINE
8
BLACK
6
CONTINUOUS
10
64.8077
20
-57.2427
11
64.8448
21
-57.1732
0
LINE
8
BLACK
6
CONTINUOUS
10
64.8448
20
-57.1732
11
64.8448
21
-57.1732
0
LINE
8
BLACK
6
CONTINUOUS
10
64.8448
20
-57.1732
11
64.8948
21
-57.1123
0
LINE
8
BLACK
6
CONTINUOUS
10
64.8948
20
-57.1123
11
64.9557
21
-57.0623
0
LINE
8
BLACK
6
CONTINUOUS
10
64.9557
20
-57.0623
11
64.9636
21
-57.0581
0
LINE
8
BLACK
6
CONTINUOUS
10
64.9636
20
-57.0581
11
65.0252
21
-57.0252
0
LINE
8
BLACK
6
CONTINUOUS
10
65.0252
20
-57.0252
11
65.1006
21
-57.0023
0
LINE
8
BLACK
6
CONTINUOUS
10
65.1006
20
-57.0023
11
65.1006
21
-57.0023
0
LINE
8
BLACK
6
CONTINUOUS
10
65.1006
20
-57.0023
11
65.1006
21
-57.0023
0
LINE
8
BLACK
6
CONTINUOUS
10
65.1006
20
-57.0023
11
65.1593
21
-56.9965
0
LINE
8
BLACK
6
CONTINUOUS
10
65.1593
20
-56.9965
11
65.3987
21
-56.9965
0
LINE
8
BLACK
6
CONTINUOUS
10
65.3987
20
-56.9965
11
65.4574
21
-57.0023
  0
ENDSEC
  0
EOF
