  0
SECTION
  2
HEADER
  9
$ANGBASE
  50
0.0
  9
$ANGDIR
  70
  1
  9
$MEASUREMENT
  70
0
  0
ENDSEC
  0
SECTION
  2
TABLES
  0
TABLE
  2
LTYPE
  70
4
  0
LTYPE
  5
40F
  2
CONTINUOUS
  70
0
  3
Solid line
  72
65
  73
0
  40
0.0
  0
LTYPE
  5
410
  2
DASHDOT
 70
0
  3
Dash Dot ____ _ ____ _
 72
65
 73
4
 40
2.0
 49
1.25
 49
-0.25
 49
0.25
 49
-0.25
  0
LTYPE
  5
411
  2
DASHED
 70
0
  3
Dashed __ __ __ __ __
 72
65
 73
2
 40
0.75
 49
0.5
 49
-0.25
  0
LTYPE
  5
43B
  2
DOTTED
 70
0
  3
Dotted .  .  .  .
 72
65
 73
2
 40
0.2
 49
0.0
 49
-0.2
  0
ENDTAB
  0
TABLE
  2
STYLE
  70
4
  0
STYLE
  2
KICAD
  70
0
  40
0
  41
1
  42
1
  50
0
  71
0
  3
isocp.shx
  0
STYLE
  2
KICADB
  70
0
  40
0
  41
1
  42
1
  50
0
  71
0
  3
isocp.shx
  0
STYLE
  2
KICADI
  70
0
  40
0
  41
1
  42
1
  50
15
  71
0
  3
isocp.shx
  0
STYLE
  2
KICADBI
  70
0
  40
0
  41
1
  42
1
  50
15
  71
0
  3
isocp.shx
  0
ENDTAB
  0
TABLE
  2
LAYER
  70
30
  0
LAYER
  2
BLACK
  70
0
  62
7
  6
CONTINUOUS
  0
LAYER
  2
GRAY1
  70
0
  62
251
  6
CONTINUOUS
  0
LAYER
  2
GRAY2
  70
0
  62
8
  6
CONTINUOUS
  0
LAYER
  2
GRAY3
  70
0
  62
9
  6
CONTINUOUS
  0
LAYER
  2
WHITE
  70
0
  62
7
  6
CONTINUOUS
  0
LAYER
  2
LYELLOW
  70
0
  62
51
  6
CONTINUOUS
  0
LAYER
  2
BLUE1
  70
0
  62
178
  6
CONTINUOUS
  0
LAYER
  2
GREEN1
  70
0
  62
98
  6
CONTINUOUS
  0
LAYER
  2
CYAN1
  70
0
  62
138
  6
CONTINUOUS
  0
LAYER
  2
RED1
  70
0
  62
18
  6
CONTINUOUS
  0
LAYER
  2
MAGENTA1
  70
0
  62
228
  6
CONTINUOUS
  0
LAYER
  2
BROWN1
  70
0
  62
58
  6
CONTINUOUS
  0
LAYER
  2
BLUE2
  70
0
  62
5
  6
CONTINUOUS
  0
LAYER
  2
GREEN2
  70
0
  62
3
  6
CONTINUOUS
  0
LAYER
  2
CYAN2
  70
0
  62
4
  6
CONTINUOUS
  0
LAYER
  2
RED2
  70
0
  62
1
  6
CONTINUOUS
  0
LAYER
  2
MAGENTA2
  70
0
  62
6
  6
CONTINUOUS
  0
LAYER
  2
BROWN2
  70
0
  62
54
  6
CONTINUOUS
  0
LAYER
  2
BLUE3
  70
0
  62
171
  6
CONTINUOUS
  0
LAYER
  2
GREEN3
  70
0
  62
91
  6
CONTINUOUS
  0
LAYER
  2
CYAN3
  70
0
  62
131
  6
CONTINUOUS
  0
LAYER
  2
RED3
  70
0
  62
11
  6
CONTINUOUS
  0
LAYER
  2
MAGENTA3
  70
0
  62
221
  6
CONTINUOUS
  0
LAYER
  2
YELLOW3
  70
0
  62
2
  6
CONTINUOUS
  0
LAYER
  2
BLUE4
  70
0
  62
5
  6
CONTINUOUS
  0
LAYER
  2
GREEN4
  70
0
  62
3
  6
CONTINUOUS
  0
LAYER
  2
CYAN4
  70
0
  62
4
  6
CONTINUOUS
  0
LAYER
  2
RED4
  70
0
  62
1
  6
CONTINUOUS
  0
LAYER
  2
MAGENTA4
  70
0
  62
6
  6
CONTINUOUS
  0
LAYER
  2
YELLOW4
  70
0
  62
2
  6
CONTINUOUS
  0
ENDTAB
  0
ENDSEC
  0
SECTION
  2
ENTITIES
0
LINE
8
BLACK
6
CONTINUOUS
10
77.591
20
-59.1787
11
77.6341
21
-59.1656
0
LINE
8
BLACK
6
CONTINUOUS
10
77.6341
20
-59.1656
11
77.6738
21
-59.1444
0
LINE
8
BLACK
6
CONTINUOUS
10
77.6738
20
-59.1444
11
77.7086
21
-59.1158
0
LINE
8
BLACK
6
CONTINUOUS
10
77.7086
20
-59.1158
11
77.7134
21
-59.11
0
LINE
8
BLACK
6
CONTINUOUS
10
77.7134
20
-59.11
11
77.7163
21
-59.1075
0
LINE
8
BLACK
6
CONTINUOUS
10
77.7163
20
-59.1075
11
77.7184
21
-59.1045
0
LINE
8
BLACK
6
CONTINUOUS
10
77.7184
20
-59.1045
11
78.025
21
-58.7979
0
LINE
8
BLACK
6
CONTINUOUS
10
78.025
20
-58.7979
11
78.0277
21
-58.796
0
LINE
8
BLACK
6
CONTINUOUS
10
78.0277
20
-58.796
11
78.0299
21
-58.7934
0
LINE
8
BLACK
6
CONTINUOUS
10
78.0299
20
-58.7934
11
78.0385
21
-58.7884
0
LINE
8
BLACK
6
CONTINUOUS
10
78.0385
20
-58.7884
11
78.0466
21
-58.7827
0
LINE
8
BLACK
6
CONTINUOUS
10
78.0466
20
-58.7827
11
78.0499
21
-58.7819
0
LINE
8
BLACK
6
CONTINUOUS
10
78.0499
20
-58.7819
11
78.0528
21
-58.7802
0
LINE
8
BLACK
6
CONTINUOUS
10
78.0528
20
-58.7802
11
78.0626
21
-58.7785
0
LINE
8
BLACK
6
CONTINUOUS
10
78.0626
20
-58.7785
11
78.0722
21
-58.7759
0
LINE
8
BLACK
6
CONTINUOUS
10
78.0722
20
-58.7759
11
78.0755
21
-58.7762
0
LINE
8
BLACK
6
CONTINUOUS
10
78.0755
20
-58.7762
11
78.0789
21
-58.7756
0
LINE
8
BLACK
6
CONTINUOUS
10
78.0789
20
-58.7756
11
78.2424
21
-58.7756
0
LINE
8
BLACK
6
CONTINUOUS
10
78.2424
20
-58.7756
11
78.2462
21
-58.7763
0
LINE
8
BLACK
6
CONTINUOUS
10
78.2462
20
-58.7763
11
78.2499
21
-58.776
0
LINE
8
BLACK
6
CONTINUOUS
10
78.2499
20
-58.776
11
78.2574
21
-58.7767
0
LINE
8
BLACK
6
CONTINUOUS
10
78.2574
20
-58.7767
11
78.2649
21
-58.776
0
LINE
8
BLACK
6
CONTINUOUS
10
78.2649
20
-58.776
11
78.2649
21
-58.776
0
LINE
8
BLACK
6
CONTINUOUS
10
78.2649
20
-58.776
11
78.3022
21
-58.7723
0
LINE
8
BLACK
6
CONTINUOUS
10
78.3022
20
-58.7723
11
78.3453
21
-58.7592
0
LINE
8
BLACK
6
CONTINUOUS
10
78.3453
20
-58.7592
11
78.385
21
-58.738
0
LINE
8
BLACK
6
CONTINUOUS
10
78.385
20
-58.738
11
78.4198
21
-58.7094
0
LINE
8
BLACK
6
CONTINUOUS
10
78.4198
20
-58.7094
11
78.4246
21
-58.7036
0
LINE
8
BLACK
6
CONTINUOUS
10
78.4246
20
-58.7036
11
78.4275
21
-58.7011
0
LINE
8
BLACK
6
CONTINUOUS
10
78.4275
20
-58.7011
11
78.4296
21
-58.6981
0
LINE
8
BLACK
6
CONTINUOUS
10
78.4296
20
-58.6981
11
78.6117
21
-58.516
0
LINE
8
BLACK
6
CONTINUOUS
10
78.6117
20
-58.516
11
78.6147
21
-58.5139
0
LINE
8
BLACK
6
CONTINUOUS
10
78.6147
20
-58.5139
11
78.6172
21
-58.511
0
LINE
8
BLACK
6
CONTINUOUS
10
78.6172
20
-58.511
11
78.623
21
-58.5062
0
LINE
8
BLACK
6
CONTINUOUS
10
78.623
20
-58.5062
11
78.6516
21
-58.4714
0
LINE
8
BLACK
6
CONTINUOUS
10
78.6516
20
-58.4714
11
78.6728
21
-58.4317
0
LINE
8
BLACK
6
CONTINUOUS
10
78.6728
20
-58.4317
11
78.6859
21
-58.3886
0
LINE
8
BLACK
6
CONTINUOUS
10
78.6859
20
-58.3886
11
78.6896
21
-58.3513
0
LINE
8
BLACK
6
CONTINUOUS
10
78.6896
20
-58.3513
11
78.6896
21
-58.3513
0
LINE
8
BLACK
6
CONTINUOUS
10
78.6896
20
-58.3513
11
78.6903
21
-58.3438
0
LINE
8
BLACK
6
CONTINUOUS
10
78.6903
20
-58.3438
11
78.6896
21
-58.3363
0
LINE
8
BLACK
6
CONTINUOUS
10
78.6896
20
-58.3363
11
78.6899
21
-58.3326
0
LINE
8
BLACK
6
CONTINUOUS
10
78.6899
20
-58.3326
11
78.6892
21
-58.3288
0
LINE
8
BLACK
6
CONTINUOUS
10
78.6892
20
-58.3288
11
78.6892
21
-58.0482
0
LINE
8
BLACK
6
CONTINUOUS
10
78.6892
20
-58.0482
11
78.6904
21
-58.0416
0
LINE
8
BLACK
6
CONTINUOUS
10
78.6904
20
-58.0416
11
78.6904
21
-58.035
0
LINE
8
BLACK
6
CONTINUOUS
10
78.6904
20
-58.035
11
78.6926
21
-58.0287
0
LINE
8
BLACK
6
CONTINUOUS
10
78.6926
20
-58.0287
11
78.6938
21
-58.0221
0
LINE
8
BLACK
6
CONTINUOUS
10
78.6938
20
-58.0221
11
78.6971
21
-58.0164
0
LINE
8
BLACK
6
CONTINUOUS
10
78.6971
20
-58.0164
11
78.6994
21
-58.0101
0
LINE
8
BLACK
6
CONTINUOUS
10
78.6994
20
-58.0101
11
78.7037
21
-58.005
0
LINE
8
BLACK
6
CONTINUOUS
10
78.7037
20
-58.005
11
78.707
21
-57.9992
0
LINE
8
BLACK
6
CONTINUOUS
10
78.707
20
-57.9992
11
78.7121
21
-57.9949
0
LINE
8
BLACK
6
CONTINUOUS
10
78.7121
20
-57.9949
11
78.7164
21
-57.9898
0
LINE
8
BLACK
6
CONTINUOUS
10
78.7164
20
-57.9898
11
78.7222
21
-57.9865
0
LINE
8
BLACK
6
CONTINUOUS
10
78.7222
20
-57.9865
11
78.7273
21
-57.9822
0
LINE
8
BLACK
6
CONTINUOUS
10
78.7273
20
-57.9822
11
78.7336
21
-57.9799
0
LINE
8
BLACK
6
CONTINUOUS
10
78.7336
20
-57.9799
11
78.7393
21
-57.9766
0
LINE
8
BLACK
6
CONTINUOUS
10
78.7393
20
-57.9766
11
78.7459
21
-57.9754
0
LINE
8
BLACK
6
CONTINUOUS
10
78.7459
20
-57.9754
11
78.7522
21
-57.9732
0
LINE
8
BLACK
6
CONTINUOUS
10
78.7522
20
-57.9732
11
78.7588
21
-57.9732
0
LINE
8
BLACK
6
CONTINUOUS
10
78.7588
20
-57.9732
11
78.7654
21
-57.972
0
LINE
8
BLACK
6
CONTINUOUS
10
78.7654
20
-57.972
11
78.7791
21
-57.972
0
LINE
8
BLACK
6
CONTINUOUS
10
78.7791
20
-57.972
11
78.8043
21
-57.9468
0
LINE
8
BLACK
6
CONTINUOUS
10
78.8043
20
-57.9468
11
78.8043
21
-57.7688
0
LINE
8
BLACK
6
CONTINUOUS
10
78.8043
20
-57.7688
11
78.7318
21
-57.7688
0
LINE
8
BLACK
6
CONTINUOUS
10
78.7318
20
-57.7688
11
78.7318
21
-56.8688
0
LINE
8
BLACK
6
CONTINUOUS
10
78.7318
20
-56.8688
11
78.8043
21
-56.8688
0
LINE
8
BLACK
6
CONTINUOUS
10
78.8043
20
-56.8688
11
78.8043
21
-56.7164
0
LINE
8
BLACK
6
CONTINUOUS
10
78.8043
20
-56.7164
11
78.5864
21
-56.7164
0
LINE
8
BLACK
6
CONTINUOUS
10
78.5864
20
-56.7164
11
78.5863
21
-56.7164
0
LINE
8
BLACK
6
CONTINUOUS
10
78.5863
20
-56.7164
11
78.5859
21
-56.7164
0
LINE
8
BLACK
6
CONTINUOUS
10
78.5859
20
-56.7164
11
78.5855
21
-56.7166
0
LINE
8
BLACK
6
CONTINUOUS
10
78.5855
20
-56.7166
11
78.5727
21
-56.7175
0
LINE
8
BLACK
6
CONTINUOUS
10
78.5727
20
-56.7175
11
78.56
21
-56.7184
0
LINE
8
BLACK
6
CONTINUOUS
10
78.56
20
-56.7184
11
78.5393
21
-56.7164
0
LINE
8
BLACK
6
CONTINUOUS
10
78.5393
20
-56.7164
11
78.2243
21
-56.7164
0
LINE
8
BLACK
6
CONTINUOUS
10
78.2243
20
-56.7164
11
78.2036
21
-56.7184
0
LINE
8
BLACK
6
CONTINUOUS
10
78.2036
20
-56.7184
11
78.1909
21
-56.7175
0
LINE
8
BLACK
6
CONTINUOUS
10
78.1909
20
-56.7175
11
78.1781
21
-56.7166
0
LINE
8
BLACK
6
CONTINUOUS
10
78.1781
20
-56.7166
11
78.1777
21
-56.7164
0
LINE
8
BLACK
6
CONTINUOUS
10
78.1777
20
-56.7164
11
78.1773
21
-56.7164
0
LINE
8
BLACK
6
CONTINUOUS
10
78.1773
20
-56.7164
11
78.1772
21
-56.7164
0
LINE
8
BLACK
6
CONTINUOUS
10
78.1772
20
-56.7164
11
78.0805
21
-56.7164
0
LINE
8
BLACK
6
CONTINUOUS
10
78.0805
20
-56.7164
11
77.9593
21
-56.8376
0
LINE
8
BLACK
6
CONTINUOUS
10
77.9593
20
-56.8376
11
77.9593
21
-56.8688
0
LINE
8
BLACK
6
CONTINUOUS
10
77.9593
20
-56.8688
11
78.0318
21
-56.8688
0
LINE
8
BLACK
6
CONTINUOUS
10
78.0318
20
-56.8688
11
78.0318
21
-57.7688
0
LINE
8
BLACK
6
CONTINUOUS
10
78.0318
20
-57.7688
11
77.9593
21
-57.7688
0
LINE
8
BLACK
6
CONTINUOUS
10
77.9593
20
-57.7688
11
77.9593
21
-57.9468
0
LINE
8
BLACK
6
CONTINUOUS
10
77.9593
20
-57.9468
11
77.9845
21
-57.972
0
LINE
8
BLACK
6
CONTINUOUS
10
77.9845
20
-57.972
11
78.0518
21
-57.972
0
LINE
8
BLACK
6
CONTINUOUS
10
78.0518
20
-57.972
11
78.0911
21
-57.9642
0
LINE
8
BLACK
6
CONTINUOUS
10
78.0911
20
-57.9642
11
78.1266
21
-57.9495
0
LINE
8
BLACK
6
CONTINUOUS
10
78.1266
20
-57.9495
11
78.1348
21
-57.9477
0
LINE
8
BLACK
6
CONTINUOUS
10
78.1348
20
-57.9477
11
78.1426
21
-57.9448
0
LINE
8
BLACK
6
CONTINUOUS
10
78.1426
20
-57.9448
11
78.1476
21
-57.9448
0
LINE
8
BLACK
6
CONTINUOUS
10
78.1476
20
-57.9448
11
78.1525
21
-57.9437
0
LINE
8
BLACK
6
CONTINUOUS
10
78.1525
20
-57.9437
11
78.1607
21
-57.9448
0
LINE
8
BLACK
6
CONTINUOUS
10
78.1607
20
-57.9448
11
78.169
21
-57.9448
0
LINE
8
BLACK
6
CONTINUOUS
10
78.169
20
-57.9448
11
78.1737
21
-57.9465
0
LINE
8
BLACK
6
CONTINUOUS
10
78.1737
20
-57.9465
11
78.1787
21
-57.9472
0
LINE
8
BLACK
6
CONTINUOUS
10
78.1787
20
-57.9472
11
78.1861
21
-57.951
0
LINE
8
BLACK
6
CONTINUOUS
10
78.1861
20
-57.951
11
78.1939
21
-57.9539
0
LINE
8
BLACK
6
CONTINUOUS
10
78.1939
20
-57.9539
11
78.1977
21
-57.9571
0
LINE
8
BLACK
6
CONTINUOUS
10
78.1977
20
-57.9571
11
78.2022
21
-57.9594
0
LINE
8
BLACK
6
CONTINUOUS
10
78.2022
20
-57.9594
11
78.2078
21
-57.9655
0
LINE
8
BLACK
6
CONTINUOUS
10
78.2078
20
-57.9655
11
78.2142
21
-57.9709
0
LINE
8
BLACK
6
CONTINUOUS
10
78.2142
20
-57.9709
11
78.2167
21
-57.9752
0
LINE
8
BLACK
6
CONTINUOUS
10
78.2167
20
-57.9752
11
78.2201
21
-57.9789
0
LINE
8
BLACK
6
CONTINUOUS
10
78.2201
20
-57.9789
11
78.2232
21
-57.9866
0
LINE
8
BLACK
6
CONTINUOUS
10
78.2232
20
-57.9866
11
78.2274
21
-57.9938
0
LINE
8
BLACK
6
CONTINUOUS
10
78.2274
20
-57.9938
11
78.2283
21
-57.9987
0
LINE
8
BLACK
6
CONTINUOUS
10
78.2283
20
-57.9987
11
78.2302
21
-58.0034
0
LINE
8
BLACK
6
CONTINUOUS
10
78.2302
20
-58.0034
11
78.2306
21
-58.0117
0
LINE
8
BLACK
6
CONTINUOUS
10
78.2306
20
-58.0117
11
78.232
21
-58.0199
0
LINE
8
BLACK
6
CONTINUOUS
10
78.232
20
-58.0199
11
78.232
21
-58.2175
0
LINE
8
BLACK
6
CONTINUOUS
10
78.232
20
-58.2175
11
78.2314
21
-58.2209
0
LINE
8
BLACK
6
CONTINUOUS
10
78.2314
20
-58.2209
11
78.2317
21
-58.2242
0
LINE
8
BLACK
6
CONTINUOUS
10
78.2317
20
-58.2242
11
78.2291
21
-58.2338
0
LINE
8
BLACK
6
CONTINUOUS
10
78.2291
20
-58.2338
11
78.2274
21
-58.2436
0
LINE
8
BLACK
6
CONTINUOUS
10
78.2274
20
-58.2436
11
78.2257
21
-58.2465
0
LINE
8
BLACK
6
CONTINUOUS
10
78.2257
20
-58.2465
11
78.2249
21
-58.2498
0
LINE
8
BLACK
6
CONTINUOUS
10
78.2249
20
-58.2498
11
78.2191
21
-58.2579
0
LINE
8
BLACK
6
CONTINUOUS
10
78.2191
20
-58.2579
11
78.2142
21
-58.2665
0
LINE
8
BLACK
6
CONTINUOUS
10
78.2142
20
-58.2665
11
78.2116
21
-58.2687
0
LINE
8
BLACK
6
CONTINUOUS
10
78.2116
20
-58.2687
11
78.2097
21
-58.2714
0
LINE
8
BLACK
6
CONTINUOUS
10
78.2097
20
-58.2714
11
78.185
21
-58.2961
0
LINE
8
BLACK
6
CONTINUOUS
10
78.185
20
-58.2961
11
78.1823
21
-58.298
0
LINE
8
BLACK
6
CONTINUOUS
10
78.1823
20
-58.298
11
78.1801
21
-58.3006
0
LINE
8
BLACK
6
CONTINUOUS
10
78.1801
20
-58.3006
11
78.1715
21
-58.3055
0
LINE
8
BLACK
6
CONTINUOUS
10
78.1715
20
-58.3055
11
78.1634
21
-58.3113
0
LINE
8
BLACK
6
CONTINUOUS
10
78.1634
20
-58.3113
11
78.1601
21
-58.3121
0
LINE
8
BLACK
6
CONTINUOUS
10
78.1601
20
-58.3121
11
78.1572
21
-58.3138
0
LINE
8
BLACK
6
CONTINUOUS
10
78.1572
20
-58.3138
11
78.1474
21
-58.3155
0
LINE
8
BLACK
6
CONTINUOUS
10
78.1474
20
-58.3155
11
78.1378
21
-58.3181
0
LINE
8
BLACK
6
CONTINUOUS
10
78.1378
20
-58.3181
11
78.1345
21
-58.3178
0
LINE
8
BLACK
6
CONTINUOUS
10
78.1345
20
-58.3178
11
78.1311
21
-58.3184
0
LINE
8
BLACK
6
CONTINUOUS
10
78.1311
20
-58.3184
11
77.9676
21
-58.3184
0
LINE
8
BLACK
6
CONTINUOUS
10
77.9676
20
-58.3184
11
77.9638
21
-58.3177
0
LINE
8
BLACK
6
CONTINUOUS
10
77.9638
20
-58.3177
11
77.9601
21
-58.318
0
LINE
8
BLACK
6
CONTINUOUS
10
77.9601
20
-58.318
11
77.9526
21
-58.3173
0
LINE
8
BLACK
6
CONTINUOUS
10
77.9526
20
-58.3173
11
77.9451
21
-58.318
0
LINE
8
BLACK
6
CONTINUOUS
10
77.9451
20
-58.318
11
77.9451
21
-58.318
0
LINE
8
BLACK
6
CONTINUOUS
10
77.9451
20
-58.318
11
77.9078
21
-58.3217
0
LINE
8
BLACK
6
CONTINUOUS
10
77.9078
20
-58.3217
11
77.8975
21
-58.3248
0
LINE
8
BLACK
6
CONTINUOUS
10
77.8975
20
-58.3248
11
77.8647
21
-58.3348
0
LINE
8
BLACK
6
CONTINUOUS
10
77.8647
20
-58.3348
11
77.825
21
-58.356
0
LINE
8
BLACK
6
CONTINUOUS
10
77.825
20
-58.356
11
77.7902
21
-58.3846
0
LINE
8
BLACK
6
CONTINUOUS
10
77.7902
20
-58.3846
11
77.7854
21
-58.3904
0
LINE
8
BLACK
6
CONTINUOUS
10
77.7854
20
-58.3904
11
77.7825
21
-58.3929
0
LINE
8
BLACK
6
CONTINUOUS
10
77.7825
20
-58.3929
11
77.7804
21
-58.3959
0
LINE
8
BLACK
6
CONTINUOUS
10
77.7804
20
-58.3959
11
77.7017
21
-58.4746
0
LINE
8
BLACK
6
CONTINUOUS
10
77.7017
20
-58.4746
11
77.6935
21
-58.4803
0
LINE
8
BLACK
6
CONTINUOUS
10
77.6935
20
-58.4803
11
77.6859
21
-58.4867
0
LINE
8
BLACK
6
CONTINUOUS
10
77.6859
20
-58.4867
11
77.6828
21
-58.4879
0
LINE
8
BLACK
6
CONTINUOUS
10
77.6828
20
-58.4879
11
77.68
21
-58.4898
0
LINE
8
BLACK
6
CONTINUOUS
10
77.68
20
-58.4898
11
77.6704
21
-58.4924
0
LINE
8
BLACK
6
CONTINUOUS
10
77.6704
20
-58.4924
11
77.661
21
-58.4958
0
LINE
8
BLACK
6
CONTINUOUS
10
77.661
20
-58.4958
11
77.6577
21
-58.4958
0
LINE
8
BLACK
6
CONTINUOUS
10
77.6577
20
-58.4958
11
77.6544
21
-58.4967
0
LINE
8
BLACK
6
CONTINUOUS
10
77.6544
20
-58.4967
11
77.6445
21
-58.4958
0
LINE
8
BLACK
6
CONTINUOUS
10
77.6445
20
-58.4958
11
77.6346
21
-58.4958
0
LINE
8
BLACK
6
CONTINUOUS
10
77.6346
20
-58.4958
11
77.6314
21
-58.4946
0
LINE
8
BLACK
6
CONTINUOUS
10
77.6314
20
-58.4946
11
77.6281
21
-58.4944
0
LINE
8
BLACK
6
CONTINUOUS
10
77.6281
20
-58.4944
11
77.6191
21
-58.4901
0
LINE
8
BLACK
6
CONTINUOUS
10
77.6191
20
-58.4901
11
77.6097
21
-58.4867
0
LINE
8
BLACK
6
CONTINUOUS
10
77.6097
20
-58.4867
11
77.6071
21
-58.4846
0
LINE
8
BLACK
6
CONTINUOUS
10
77.6071
20
-58.4846
11
77.6041
21
-58.4832
0
LINE
8
BLACK
6
CONTINUOUS
10
77.6041
20
-58.4832
11
77.5971
21
-58.4761
0
LINE
8
BLACK
6
CONTINUOUS
10
77.5971
20
-58.4761
11
77.5894
21
-58.4697
0
LINE
8
BLACK
6
CONTINUOUS
10
77.5894
20
-58.4697
11
77.5877
21
-58.4668
0
LINE
8
BLACK
6
CONTINUOUS
10
77.5877
20
-58.4668
11
77.5854
21
-58.4645
0
LINE
8
BLACK
6
CONTINUOUS
10
77.5854
20
-58.4645
11
77.5812
21
-58.4554
0
LINE
8
BLACK
6
CONTINUOUS
10
77.5812
20
-58.4554
11
77.5762
21
-58.4468
0
LINE
8
BLACK
6
CONTINUOUS
10
77.5762
20
-58.4468
11
77.5756
21
-58.4435
0
LINE
8
BLACK
6
CONTINUOUS
10
77.5756
20
-58.4435
11
77.5742
21
-58.4405
0
LINE
8
BLACK
6
CONTINUOUS
10
77.5742
20
-58.4405
11
77.5733
21
-58.4306
0
LINE
8
BLACK
6
CONTINUOUS
10
77.5733
20
-58.4306
11
77.5716
21
-58.4207
0
LINE
8
BLACK
6
CONTINUOUS
10
77.5716
20
-58.4207
11
77.5716
21
-58.0364
0
LINE
8
BLACK
6
CONTINUOUS
10
77.5716
20
-58.0364
11
77.573
21
-58.0282
0
LINE
8
BLACK
6
CONTINUOUS
10
77.573
20
-58.0282
11
77.5734
21
-58.0199
0
LINE
8
BLACK
6
CONTINUOUS
10
77.5734
20
-58.0199
11
77.5753
21
-58.0153
0
LINE
8
BLACK
6
CONTINUOUS
10
77.5753
20
-58.0153
11
77.5762
21
-58.0104
0
LINE
8
BLACK
6
CONTINUOUS
10
77.5762
20
-58.0104
11
77.5804
21
-58.0032
0
LINE
8
BLACK
6
CONTINUOUS
10
77.5804
20
-58.0032
11
77.5835
21
-57.9955
0
LINE
8
BLACK
6
CONTINUOUS
10
77.5835
20
-57.9955
11
77.5869
21
-57.9918
0
LINE
8
BLACK
6
CONTINUOUS
10
77.5869
20
-57.9918
11
77.5894
21
-57.9874
0
LINE
8
BLACK
6
CONTINUOUS
10
77.5894
20
-57.9874
11
77.5958
21
-57.9821
0
LINE
8
BLACK
6
CONTINUOUS
10
77.5958
20
-57.9821
11
77.6014
21
-57.976
0
LINE
8
BLACK
6
CONTINUOUS
10
77.6014
20
-57.976
11
77.6059
21
-57.9737
0
LINE
8
BLACK
6
CONTINUOUS
10
77.6059
20
-57.9737
11
77.6097
21
-57.9704
0
LINE
8
BLACK
6
CONTINUOUS
10
77.6097
20
-57.9704
11
77.6175
21
-57.9676
0
LINE
8
BLACK
6
CONTINUOUS
10
77.6175
20
-57.9676
11
77.6249
21
-57.9638
0
LINE
8
BLACK
6
CONTINUOUS
10
77.6249
20
-57.9638
11
77.6299
21
-57.9631
0
LINE
8
BLACK
6
CONTINUOUS
10
77.6299
20
-57.9631
11
77.6346
21
-57.9614
0
LINE
8
BLACK
6
CONTINUOUS
10
77.6346
20
-57.9614
11
77.6429
21
-57.9614
0
LINE
8
BLACK
6
CONTINUOUS
10
77.6429
20
-57.9614
11
77.6511
21
-57.9603
0
LINE
8
BLACK
6
CONTINUOUS
10
77.6511
20
-57.9603
11
77.656
21
-57.9614
0
LINE
8
BLACK
6
CONTINUOUS
10
77.656
20
-57.9614
11
77.661
21
-57.9614
0
LINE
8
BLACK
6
CONTINUOUS
10
77.661
20
-57.9614
11
77.6647
21
-57.9627
0
LINE
8
BLACK
6
CONTINUOUS
10
77.6647
20
-57.9627
11
77.6652
21
-57.9627
0
LINE
8
BLACK
6
CONTINUOUS
10
77.6652
20
-57.9627
11
77.7118
21
-57.972
0
LINE
8
BLACK
6
CONTINUOUS
10
77.7118
20
-57.972
11
77.7791
21
-57.972
0
LINE
8
BLACK
6
CONTINUOUS
10
77.7791
20
-57.972
11
77.8043
21
-57.9468
0
LINE
8
BLACK
6
CONTINUOUS
10
77.8043
20
-57.9468
11
77.8043
21
-57.7688
0
LINE
8
BLACK
6
CONTINUOUS
10
77.8043
20
-57.7688
11
77.7318
21
-57.7688
0
LINE
8
BLACK
6
CONTINUOUS
10
77.7318
20
-57.7688
11
77.7318
21
-56.8688
0
LINE
8
BLACK
6
CONTINUOUS
10
77.7318
20
-56.8688
11
77.8043
21
-56.8688
0
LINE
8
BLACK
6
CONTINUOUS
10
77.8043
20
-56.8688
11
77.8043
21
-56.8376
0
LINE
8
BLACK
6
CONTINUOUS
10
77.8043
20
-56.8376
11
77.6831
21
-56.7164
0
LINE
8
BLACK
6
CONTINUOUS
10
77.6831
20
-56.7164
11
77.5864
21
-56.7164
0
LINE
8
BLACK
6
CONTINUOUS
10
77.5864
20
-56.7164
11
77.5863
21
-56.7164
0
LINE
8
BLACK
6
CONTINUOUS
10
77.5863
20
-56.7164
11
77.5859
21
-56.7164
0
LINE
8
BLACK
6
CONTINUOUS
10
77.5859
20
-56.7164
11
77.5855
21
-56.7166
0
LINE
8
BLACK
6
CONTINUOUS
10
77.5855
20
-56.7166
11
77.5727
21
-56.7175
0
LINE
8
BLACK
6
CONTINUOUS
10
77.5727
20
-56.7175
11
77.56
21
-56.7184
0
LINE
8
BLACK
6
CONTINUOUS
10
77.56
20
-56.7184
11
77.5393
21
-56.7164
0
LINE
8
BLACK
6
CONTINUOUS
10
77.5393
20
-56.7164
11
77.2243
21
-56.7164
0
LINE
8
BLACK
6
CONTINUOUS
10
77.2243
20
-56.7164
11
77.2036
21
-56.7184
0
LINE
8
BLACK
6
CONTINUOUS
10
77.2036
20
-56.7184
11
77.1909
21
-56.7175
0
LINE
8
BLACK
6
CONTINUOUS
10
77.1909
20
-56.7175
11
77.1781
21
-56.7166
0
LINE
8
BLACK
6
CONTINUOUS
10
77.1781
20
-56.7166
11
77.1777
21
-56.7164
0
LINE
8
BLACK
6
CONTINUOUS
10
77.1777
20
-56.7164
11
77.1773
21
-56.7164
0
LINE
8
BLACK
6
CONTINUOUS
10
77.1773
20
-56.7164
11
77.1772
21
-56.7164
0
LINE
8
BLACK
6
CONTINUOUS
10
77.1772
20
-56.7164
11
77.0805
21
-56.7164
0
LINE
8
BLACK
6
CONTINUOUS
10
77.0805
20
-56.7164
11
76.9593
21
-56.8376
0
LINE
8
BLACK
6
CONTINUOUS
10
76.9593
20
-56.8376
11
76.9593
21
-56.8688
0
LINE
8
BLACK
6
CONTINUOUS
10
76.9593
20
-56.8688
11
77.0318
21
-56.8688
0
LINE
8
BLACK
6
CONTINUOUS
10
77.0318
20
-56.8688
11
77.0318
21
-57.7688
0
LINE
8
BLACK
6
CONTINUOUS
10
77.0318
20
-57.7688
11
76.9593
21
-57.7688
0
LINE
8
BLACK
6
CONTINUOUS
10
76.9593
20
-57.7688
11
76.9593
21
-57.9468
0
LINE
8
BLACK
6
CONTINUOUS
10
76.9593
20
-57.9468
11
76.9845
21
-57.972
0
LINE
8
BLACK
6
CONTINUOUS
10
76.9845
20
-57.972
11
77.0382
21
-57.972
0
LINE
8
BLACK
6
CONTINUOUS
10
77.0382
20
-57.972
11
77.0448
21
-57.9732
0
LINE
8
BLACK
6
CONTINUOUS
10
77.0448
20
-57.9732
11
77.0514
21
-57.9732
0
LINE
8
BLACK
6
CONTINUOUS
10
77.0514
20
-57.9732
11
77.0577
21
-57.9754
0
LINE
8
BLACK
6
CONTINUOUS
10
77.0577
20
-57.9754
11
77.0643
21
-57.9766
0
LINE
8
BLACK
6
CONTINUOUS
10
77.0643
20
-57.9766
11
77.07
21
-57.9799
0
LINE
8
BLACK
6
CONTINUOUS
10
77.07
20
-57.9799
11
77.0763
21
-57.9822
0
LINE
8
BLACK
6
CONTINUOUS
10
77.0763
20
-57.9822
11
77.0814
21
-57.9865
0
LINE
8
BLACK
6
CONTINUOUS
10
77.0814
20
-57.9865
11
77.0872
21
-57.9898
0
LINE
8
BLACK
6
CONTINUOUS
10
77.0872
20
-57.9898
11
77.0915
21
-57.9949
0
LINE
8
BLACK
6
CONTINUOUS
10
77.0915
20
-57.9949
11
77.0966
21
-57.9992
0
LINE
8
BLACK
6
CONTINUOUS
10
77.0966
20
-57.9992
11
77.0999
21
-58.005
0
LINE
8
BLACK
6
CONTINUOUS
10
77.0999
20
-58.005
11
77.1042
21
-58.0101
0
LINE
8
BLACK
6
CONTINUOUS
10
77.1042
20
-58.0101
11
77.1065
21
-58.0164
0
LINE
8
BLACK
6
CONTINUOUS
10
77.1065
20
-58.0164
11
77.1098
21
-58.0221
0
LINE
8
BLACK
6
CONTINUOUS
10
77.1098
20
-58.0221
11
77.111
21
-58.0287
0
LINE
8
BLACK
6
CONTINUOUS
10
77.111
20
-58.0287
11
77.1132
21
-58.035
0
LINE
8
BLACK
6
CONTINUOUS
10
77.1132
20
-58.035
11
77.1132
21
-58.0416
0
LINE
8
BLACK
6
CONTINUOUS
10
77.1132
20
-58.0416
11
77.1144
21
-58.0482
0
LINE
8
BLACK
6
CONTINUOUS
10
77.1144
20
-58.0482
11
77.1144
21
-58.3699
0
LINE
8
BLACK
6
CONTINUOUS
10
77.1144
20
-58.3699
11
77.1138
21
-58.3732
0
LINE
8
BLACK
6
CONTINUOUS
10
77.1138
20
-58.3732
11
77.1141
21
-58.3766
0
LINE
8
BLACK
6
CONTINUOUS
10
77.1141
20
-58.3766
11
77.1115
21
-58.3862
0
LINE
8
BLACK
6
CONTINUOUS
10
77.1115
20
-58.3862
11
77.1098
21
-58.396
0
LINE
8
BLACK
6
CONTINUOUS
10
77.1098
20
-58.396
11
77.1081
21
-58.3989
0
LINE
8
BLACK
6
CONTINUOUS
10
77.1081
20
-58.3989
11
77.1073
21
-58.4022
0
LINE
8
BLACK
6
CONTINUOUS
10
77.1073
20
-58.4022
11
77.1016
21
-58.4103
0
LINE
8
BLACK
6
CONTINUOUS
10
77.1016
20
-58.4103
11
77.0966
21
-58.4189
0
LINE
8
BLACK
6
CONTINUOUS
10
77.0966
20
-58.4189
11
77.094
21
-58.4211
0
LINE
8
BLACK
6
CONTINUOUS
10
77.094
20
-58.4211
11
77.0921
21
-58.4238
0
LINE
8
BLACK
6
CONTINUOUS
10
77.0921
20
-58.4238
11
76.7999
21
-58.716
0
LINE
8
BLACK
6
CONTINUOUS
10
76.7999
20
-58.716
11
76.7948
21
-58.7196
0
LINE
8
BLACK
6
CONTINUOUS
10
76.7948
20
-58.7196
11
76.7905
21
-58.724
0
LINE
8
BLACK
6
CONTINUOUS
10
76.7905
20
-58.724
11
76.7841
21
-58.7271
0
LINE
8
BLACK
6
CONTINUOUS
10
76.7841
20
-58.7271
11
76.7783
21
-58.7312
0
LINE
8
BLACK
6
CONTINUOUS
10
76.7783
20
-58.7312
11
76.7722
21
-58.7328
0
LINE
8
BLACK
6
CONTINUOUS
10
76.7722
20
-58.7328
11
76.7666
21
-58.7355
0
LINE
8
BLACK
6
CONTINUOUS
10
76.7666
20
-58.7355
11
76.7596
21
-58.7362
0
LINE
8
BLACK
6
CONTINUOUS
10
76.7596
20
-58.7362
11
76.7527
21
-58.738
0
LINE
8
BLACK
6
CONTINUOUS
10
76.7527
20
-58.738
11
76.7465
21
-58.7375
0
LINE
8
BLACK
6
CONTINUOUS
10
76.7465
20
-58.7375
11
76.7403
21
-58.7381
0
LINE
8
BLACK
6
CONTINUOUS
10
76.7403
20
-58.7381
11
76.7334
21
-58.7363
0
LINE
8
BLACK
6
CONTINUOUS
10
76.7334
20
-58.7363
11
76.7263
21
-58.7357
0
LINE
8
BLACK
6
CONTINUOUS
10
76.7263
20
-58.7357
11
76.7207
21
-58.7331
0
LINE
8
BLACK
6
CONTINUOUS
10
76.7207
20
-58.7331
11
76.7147
21
-58.7315
0
LINE
8
BLACK
6
CONTINUOUS
10
76.7147
20
-58.7315
11
76.6542
21
-58.7042
0
LINE
8
BLACK
6
CONTINUOUS
10
76.6542
20
-58.7042
11
76.6425
21
-58.7159
0
LINE
8
BLACK
6
CONTINUOUS
10
76.6425
20
-58.7159
11
76.647
21
-58.7205
0
LINE
8
BLACK
6
CONTINUOUS
10
76.647
20
-58.7205
11
76.6514
21
-58.7299
0
LINE
8
BLACK
6
CONTINUOUS
10
76.6514
20
-58.7299
11
76.6575
21
-58.7383
0
LINE
8
BLACK
6
CONTINUOUS
10
76.6575
20
-58.7383
11
76.6607
21
-58.7497
0
LINE
8
BLACK
6
CONTINUOUS
10
76.6607
20
-58.7497
11
76.6657
21
-58.7604
0
LINE
8
BLACK
6
CONTINUOUS
10
76.6657
20
-58.7604
11
76.6666
21
-58.7708
0
LINE
8
BLACK
6
CONTINUOUS
10
76.6666
20
-58.7708
11
76.6694
21
-58.7808
0
LINE
8
BLACK
6
CONTINUOUS
10
76.6694
20
-58.7808
11
76.6685
21
-58.7926
0
LINE
8
BLACK
6
CONTINUOUS
10
76.6685
20
-58.7926
11
76.6695
21
-58.8044
0
LINE
8
BLACK
6
CONTINUOUS
10
76.6695
20
-58.8044
11
76.6668
21
-58.8144
0
LINE
8
BLACK
6
CONTINUOUS
10
76.6668
20
-58.8144
11
76.6661
21
-58.8247
0
LINE
8
BLACK
6
CONTINUOUS
10
76.6661
20
-58.8247
11
76.6612
21
-58.8355
0
LINE
8
BLACK
6
CONTINUOUS
10
76.6612
20
-58.8355
11
76.6581
21
-58.847
0
LINE
8
BLACK
6
CONTINUOUS
10
76.6581
20
-58.847
11
76.6522
21
-58.8555
0
LINE
8
BLACK
6
CONTINUOUS
10
76.6522
20
-58.8555
11
76.6479
21
-58.8649
0
LINE
8
BLACK
6
CONTINUOUS
10
76.6479
20
-58.8649
11
76.6396
21
-58.8734
0
LINE
8
BLACK
6
CONTINUOUS
10
76.6396
20
-58.8734
11
76.6328
21
-58.8831
0
LINE
8
BLACK
6
CONTINUOUS
10
76.6328
20
-58.8831
11
74.7383
21
-60.7776
0
LINE
8
BLACK
6
CONTINUOUS
10
74.7383
20
-60.7776
11
74.7337
21
-60.7808
0
LINE
8
BLACK
6
CONTINUOUS
10
74.7337
20
-60.7808
11
74.7301
21
-60.7851
0
LINE
8
BLACK
6
CONTINUOUS
10
74.7301
20
-60.7851
11
74.7158
21
-60.7934
0
LINE
8
BLACK
6
CONTINUOUS
10
74.7158
20
-60.7934
11
74.7022
21
-60.8029
0
LINE
8
BLACK
6
CONTINUOUS
10
74.7022
20
-60.8029
11
74.6968
21
-60.8043
0
LINE
8
BLACK
6
CONTINUOUS
10
74.6968
20
-60.8043
11
74.6919
21
-60.8071
0
LINE
8
BLACK
6
CONTINUOUS
10
74.6919
20
-60.8071
11
74.6756
21
-60.81
0
LINE
8
BLACK
6
CONTINUOUS
10
74.6756
20
-60.81
11
74.6596
21
-60.8143
0
LINE
8
BLACK
6
CONTINUOUS
10
74.6596
20
-60.8143
11
74.654
21
-60.8138
0
LINE
8
BLACK
6
CONTINUOUS
10
74.654
20
-60.8138
11
74.6485
21
-60.8148
0
LINE
8
BLACK
6
CONTINUOUS
10
74.6485
20
-60.8148
11
73.9983
21
-60.8148
0
LINE
8
BLACK
6
CONTINUOUS
10
73.9983
20
-60.8148
11
73.9942
21
-60.8141
0
LINE
8
BLACK
6
CONTINUOUS
10
73.9942
20
-60.8141
11
73.99
21
-60.8145
0
LINE
8
BLACK
6
CONTINUOUS
10
73.99
20
-60.8145
11
73.9726
21
-60.8103
0
LINE
8
BLACK
6
CONTINUOUS
10
73.9726
20
-60.8103
11
73.9549
21
-60.8071
0
LINE
8
BLACK
6
CONTINUOUS
10
73.9549
20
-60.8071
11
73.9512
21
-60.805
0
LINE
8
BLACK
6
CONTINUOUS
10
73.9512
20
-60.805
11
73.9472
21
-60.804
0
LINE
8
BLACK
6
CONTINUOUS
10
73.9472
20
-60.804
11
73.9322
21
-60.7941
0
LINE
8
BLACK
6
CONTINUOUS
10
73.9322
20
-60.7941
11
73.9167
21
-60.7851
0
LINE
8
BLACK
6
CONTINUOUS
10
73.9167
20
-60.7851
11
73.914
21
-60.7819
0
LINE
8
BLACK
6
CONTINUOUS
10
73.914
20
-60.7819
11
73.9105
21
-60.7795
0
LINE
8
BLACK
6
CONTINUOUS
10
73.9105
20
-60.7795
11
73.8999
21
-60.7651
0
LINE
8
BLACK
6
CONTINUOUS
10
73.8999
20
-60.7651
11
73.8883
21
-60.7513
0
LINE
8
BLACK
6
CONTINUOUS
10
73.8883
20
-60.7513
11
73.8869
21
-60.7474
0
LINE
8
BLACK
6
CONTINUOUS
10
73.8869
20
-60.7474
11
73.8844
21
-60.744
0
LINE
8
BLACK
6
CONTINUOUS
10
73.8844
20
-60.744
11
73.8794
21
-60.7267
0
LINE
8
BLACK
6
CONTINUOUS
10
73.8794
20
-60.7267
11
73.8732
21
-60.7099
0
LINE
8
BLACK
6
CONTINUOUS
10
73.8732
20
-60.7099
11
73.8732
21
-60.7057
0
LINE
8
BLACK
6
CONTINUOUS
10
73.8732
20
-60.7057
11
73.8721
21
-60.7016
0
LINE
8
BLACK
6
CONTINUOUS
10
73.8721
20
-60.7016
11
73.8732
21
-60.6837
0
LINE
8
BLACK
6
CONTINUOUS
10
73.8732
20
-60.6837
11
73.8732
21
-60.6657
0
LINE
8
BLACK
6
CONTINUOUS
10
73.8732
20
-60.6657
11
73.8747
21
-60.6618
0
LINE
8
BLACK
6
CONTINUOUS
10
73.8747
20
-60.6618
11
73.875
21
-60.6576
0
LINE
8
BLACK
6
CONTINUOUS
10
73.875
20
-60.6576
11
73.8822
21
-60.6412
0
LINE
8
BLACK
6
CONTINUOUS
10
73.8822
20
-60.6412
11
73.8835
21
-60.6375
0
LINE
8
BLACK
6
CONTINUOUS
10
73.8835
20
-60.6375
11
73.8997
21
-60.5563
0
LINE
8
BLACK
6
CONTINUOUS
10
73.8997
20
-60.5563
11
73.8997
21
-59.5813
0
LINE
8
BLACK
6
CONTINUOUS
10
73.8997
20
-59.5813
11
73.8854
21
-59.5093
0
LINE
8
BLACK
6
CONTINUOUS
10
73.8854
20
-59.5093
11
73.8517
21
-59.4589
0
LINE
8
BLACK
6
CONTINUOUS
10
73.8517
20
-59.4589
11
73.8013
21
-59.4252
0
LINE
8
BLACK
6
CONTINUOUS
10
73.8013
20
-59.4252
11
73.7293
21
-59.4109
0
LINE
8
BLACK
6
CONTINUOUS
10
73.7293
20
-59.4109
11
73.4543
21
-59.4109
0
LINE
8
BLACK
6
CONTINUOUS
10
73.4543
20
-59.4109
11
73.3823
21
-59.4252
0
LINE
8
BLACK
6
CONTINUOUS
10
73.3823
20
-59.4252
11
73.3319
21
-59.4589
0
LINE
8
BLACK
6
CONTINUOUS
10
73.3319
20
-59.4589
11
73.2982
21
-59.5093
0
LINE
8
BLACK
6
CONTINUOUS
10
73.2982
20
-59.5093
11
73.2839
21
-59.5813
0
LINE
8
BLACK
6
CONTINUOUS
10
73.2839
20
-59.5813
11
73.2839
21
-60.5563
0
LINE
8
BLACK
6
CONTINUOUS
10
73.2839
20
-60.5563
11
73.3001
21
-60.6375
0
LINE
8
BLACK
6
CONTINUOUS
10
73.3001
20
-60.6375
11
73.3014
21
-60.6412
0
LINE
8
BLACK
6
CONTINUOUS
10
73.3014
20
-60.6412
11
73.3086
21
-60.6576
0
LINE
8
BLACK
6
CONTINUOUS
10
73.3086
20
-60.6576
11
73.3089
21
-60.6618
0
LINE
8
BLACK
6
CONTINUOUS
10
73.3089
20
-60.6618
11
73.3104
21
-60.6657
0
LINE
8
BLACK
6
CONTINUOUS
10
73.3104
20
-60.6657
11
73.3104
21
-60.6837
0
LINE
8
BLACK
6
CONTINUOUS
10
73.3104
20
-60.6837
11
73.3115
21
-60.7016
0
LINE
8
BLACK
6
CONTINUOUS
10
73.3115
20
-60.7016
11
73.3104
21
-60.7057
0
LINE
8
BLACK
6
CONTINUOUS
10
73.3104
20
-60.7057
11
73.3104
21
-60.7099
0
LINE
8
BLACK
6
CONTINUOUS
10
73.3104
20
-60.7099
11
73.3042
21
-60.7267
0
LINE
8
BLACK
6
CONTINUOUS
10
73.3042
20
-60.7267
11
73.2992
21
-60.744
0
LINE
8
BLACK
6
CONTINUOUS
10
73.2992
20
-60.744
11
73.2967
21
-60.7474
0
LINE
8
BLACK
6
CONTINUOUS
10
73.2967
20
-60.7474
11
73.2953
21
-60.7513
0
LINE
8
BLACK
6
CONTINUOUS
10
73.2953
20
-60.7513
11
73.2837
21
-60.7651
0
LINE
8
BLACK
6
CONTINUOUS
10
73.2837
20
-60.7651
11
73.2731
21
-60.7795
0
LINE
8
BLACK
6
CONTINUOUS
10
73.2731
20
-60.7795
11
73.2696
21
-60.7819
0
LINE
8
BLACK
6
CONTINUOUS
10
73.2696
20
-60.7819
11
73.2669
21
-60.7851
0
LINE
8
BLACK
6
CONTINUOUS
10
73.2669
20
-60.7851
11
73.2514
21
-60.7941
0
LINE
8
BLACK
6
CONTINUOUS
10
73.2514
20
-60.7941
11
73.2364
21
-60.804
0
LINE
8
BLACK
6
CONTINUOUS
10
73.2364
20
-60.804
11
73.2324
21
-60.805
0
LINE
8
BLACK
6
CONTINUOUS
10
73.2324
20
-60.805
11
73.2287
21
-60.8071
0
LINE
8
BLACK
6
CONTINUOUS
10
73.2287
20
-60.8071
11
73.211
21
-60.8103
0
LINE
8
BLACK
6
CONTINUOUS
10
73.211
20
-60.8103
11
73.1936
21
-60.8145
0
LINE
8
BLACK
6
CONTINUOUS
10
73.1936
20
-60.8145
11
73.1894
21
-60.8141
0
LINE
8
BLACK
6
CONTINUOUS
10
73.1894
20
-60.8141
11
73.1853
21
-60.8148
0
LINE
8
BLACK
6
CONTINUOUS
10
73.1853
20
-60.8148
11
69.3999
21
-60.8148
0
LINE
8
BLACK
6
CONTINUOUS
10
69.3999
20
-60.8148
11
69.3944
21
-60.8138
0
LINE
8
BLACK
6
CONTINUOUS
10
69.3944
20
-60.8138
11
69.3888
21
-60.8143
0
LINE
8
BLACK
6
CONTINUOUS
10
69.3888
20
-60.8143
11
69.3728
21
-60.81
0
LINE
8
BLACK
6
CONTINUOUS
10
69.3728
20
-60.81
11
69.3565
21
-60.8071
0
LINE
8
BLACK
6
CONTINUOUS
10
69.3565
20
-60.8071
11
69.3516
21
-60.8043
0
LINE
8
BLACK
6
CONTINUOUS
10
69.3516
20
-60.8043
11
69.3462
21
-60.8029
0
LINE
8
BLACK
6
CONTINUOUS
10
69.3462
20
-60.8029
11
69.3326
21
-60.7934
0
LINE
8
BLACK
6
CONTINUOUS
10
69.3326
20
-60.7934
11
69.3183
21
-60.7851
0
LINE
8
BLACK
6
CONTINUOUS
10
69.3183
20
-60.7851
11
69.3147
21
-60.7808
0
LINE
8
BLACK
6
CONTINUOUS
10
69.3147
20
-60.7808
11
69.3101
21
-60.7776
0
LINE
8
BLACK
6
CONTINUOUS
10
69.3101
20
-60.7776
11
69.287
21
-60.7545
0
LINE
8
BLACK
6
CONTINUOUS
10
69.287
20
-60.7545
11
69.2711
21
-60.7722
0
LINE
8
BLACK
6
CONTINUOUS
10
69.2711
20
-60.7722
11
69.2666
21
-60.7745
0
LINE
8
BLACK
6
CONTINUOUS
10
69.2666
20
-60.7745
11
69.2631
21
-60.7781
0
LINE
8
BLACK
6
CONTINUOUS
10
69.2631
20
-60.7781
11
69.2371
21
-60.7902
0
LINE
8
BLACK
6
CONTINUOUS
10
69.2371
20
-60.7902
11
69.2117
21
-60.8037
0
LINE
8
BLACK
6
CONTINUOUS
10
69.2117
20
-60.8037
11
69.2068
21
-60.8044
0
LINE
8
BLACK
6
CONTINUOUS
10
69.2068
20
-60.8044
11
69.2022
21
-60.8065
0
LINE
8
BLACK
6
CONTINUOUS
10
69.2022
20
-60.8065
11
69.1736
21
-60.809
0
LINE
8
BLACK
6
CONTINUOUS
10
69.1736
20
-60.809
11
69.162
21
-60.8106
0
LINE
8
BLACK
6
CONTINUOUS
10
69.162
20
-60.8106
11
69.157
21
-60.8104
0
LINE
8
BLACK
6
CONTINUOUS
10
69.157
20
-60.8104
11
69.1353
21
-60.8123
0
LINE
8
BLACK
6
CONTINUOUS
10
69.1353
20
-60.8123
11
69.1237
21
-60.8092
0
LINE
8
BLACK
6
CONTINUOUS
10
69.1237
20
-60.8092
11
67.8916
21
-60.765
0
LINE
8
BLACK
6
CONTINUOUS
10
67.8916
20
-60.765
11
67.8842
21
-60.7724
0
LINE
8
BLACK
6
CONTINUOUS
10
67.8842
20
-60.7724
11
67.8736
21
-60.7851
0
LINE
8
BLACK
6
CONTINUOUS
10
67.8736
20
-60.7851
11
67.8687
21
-60.7879
0
LINE
8
BLACK
6
CONTINUOUS
10
67.8687
20
-60.7879
11
67.8648
21
-60.7918
0
LINE
8
BLACK
6
CONTINUOUS
10
67.8648
20
-60.7918
11
67.8498
21
-60.7988
0
LINE
8
BLACK
6
CONTINUOUS
10
67.8498
20
-60.7988
11
67.8354
21
-60.8071
0
LINE
8
BLACK
6
CONTINUOUS
10
67.8354
20
-60.8071
11
67.8299
21
-60.8081
0
LINE
8
BLACK
6
CONTINUOUS
10
67.8299
20
-60.8081
11
67.8248
21
-60.8105
0
LINE
8
BLACK
6
CONTINUOUS
10
67.8248
20
-60.8105
11
67.8083
21
-60.8119
0
LINE
8
BLACK
6
CONTINUOUS
10
67.8083
20
-60.8119
11
67.7919
21
-60.8148
0
LINE
8
BLACK
6
CONTINUOUS
10
67.7919
20
-60.8148
11
67.5248
21
-60.8148
0
LINE
8
BLACK
6
CONTINUOUS
10
67.5248
20
-60.8148
11
67.4913
21
-60.8177
0
LINE
8
BLACK
6
CONTINUOUS
10
67.4913
20
-60.8177
11
67.4804
21
-60.8148
0
LINE
8
BLACK
6
CONTINUOUS
10
67.4804
20
-60.8148
11
67.413
21
-60.8148
0
LINE
8
BLACK
6
CONTINUOUS
10
67.413
20
-60.8148
11
67.4075
21
-60.8138
0
LINE
8
BLACK
6
CONTINUOUS
10
67.4075
20
-60.8138
11
67.4019
21
-60.8143
0
LINE
8
BLACK
6
CONTINUOUS
10
67.4019
20
-60.8143
11
67.3859
21
-60.81
0
LINE
8
BLACK
6
CONTINUOUS
10
67.3859
20
-60.81
11
67.3695
21
-60.8071
0
LINE
8
BLACK
6
CONTINUOUS
10
67.3695
20
-60.8071
11
67.3647
21
-60.8043
0
LINE
8
BLACK
6
CONTINUOUS
10
67.3647
20
-60.8043
11
67.3593
21
-60.8029
0
LINE
8
BLACK
6
CONTINUOUS
10
67.3593
20
-60.8029
11
67.3457
21
-60.7934
0
LINE
8
BLACK
6
CONTINUOUS
10
67.3457
20
-60.7934
11
67.3313
21
-60.7851
0
LINE
8
BLACK
6
CONTINUOUS
10
67.3313
20
-60.7851
11
67.3277
21
-60.7808
0
LINE
8
BLACK
6
CONTINUOUS
10
67.3277
20
-60.7808
11
67.3232
21
-60.7776
0
LINE
8
BLACK
6
CONTINUOUS
10
67.3232
20
-60.7776
11
67.2932
21
-60.7477
0
LINE
8
BLACK
6
CONTINUOUS
10
67.2932
20
-60.7477
11
67.2845
21
-60.7352
0
LINE
8
BLACK
6
CONTINUOUS
10
67.2845
20
-60.7352
11
67.2744
21
-60.7237
0
LINE
8
BLACK
6
CONTINUOUS
10
67.2744
20
-60.7237
11
67.2719
21
-60.7172
0
LINE
8
BLACK
6
CONTINUOUS
10
67.2719
20
-60.7172
11
67.2679
21
-60.7115
0
LINE
8
BLACK
6
CONTINUOUS
10
67.2679
20
-60.7115
11
67.264
21
-60.6968
0
LINE
8
BLACK
6
CONTINUOUS
10
67.264
20
-60.6968
11
67.2591
21
-60.6842
0
LINE
8
BLACK
6
CONTINUOUS
10
67.2591
20
-60.6842
11
67.2208
21
-60.627
0
LINE
8
BLACK
6
CONTINUOUS
10
67.2208
20
-60.627
11
67.1802
21
-60.5864
0
LINE
8
BLACK
6
CONTINUOUS
10
67.1802
20
-60.5864
11
67.1802
21
-60.5864
0
LINE
8
BLACK
6
CONTINUOUS
10
67.1802
20
-60.5864
11
67.095
21
-60.5011
0
LINE
8
BLACK
6
CONTINUOUS
10
67.095
20
-60.5011
11
67.0692
21
-60.4796
0
LINE
8
BLACK
6
CONTINUOUS
10
67.0692
20
-60.4796
11
67.0636
21
-60.4698
0
LINE
8
BLACK
6
CONTINUOUS
10
67.0636
20
-60.4698
11
66.8496
21
-60.2558
0
LINE
8
BLACK
6
CONTINUOUS
10
66.8496
20
-60.2558
11
66.8464
21
-60.2512
0
LINE
8
BLACK
6
CONTINUOUS
10
66.8464
20
-60.2512
11
66.8421
21
-60.2476
0
LINE
8
BLACK
6
CONTINUOUS
10
66.8421
20
-60.2476
11
66.8338
21
-60.2333
0
LINE
8
BLACK
6
CONTINUOUS
10
66.8338
20
-60.2333
11
66.8243
21
-60.2197
0
LINE
8
BLACK
6
CONTINUOUS
10
66.8243
20
-60.2197
11
66.8229
21
-60.2143
0
LINE
8
BLACK
6
CONTINUOUS
10
66.8229
20
-60.2143
11
66.8201
21
-60.2094
0
LINE
8
BLACK
6
CONTINUOUS
10
66.8201
20
-60.2094
11
66.8172
21
-60.1931
0
LINE
8
BLACK
6
CONTINUOUS
10
66.8172
20
-60.1931
11
66.8129
21
-60.1771
0
LINE
8
BLACK
6
CONTINUOUS
10
66.8129
20
-60.1771
11
66.8134
21
-60.1715
0
LINE
8
BLACK
6
CONTINUOUS
10
66.8134
20
-60.1715
11
66.8124
21
-60.166
0
LINE
8
BLACK
6
CONTINUOUS
10
66.8124
20
-60.166
11
66.8124
21
-59.9361
0
LINE
8
BLACK
6
CONTINUOUS
10
66.8124
20
-59.9361
11
66.8134
21
-59.9306
0
LINE
8
BLACK
6
CONTINUOUS
10
66.8134
20
-59.9306
11
66.8129
21
-59.925
0
LINE
8
BLACK
6
CONTINUOUS
10
66.8129
20
-59.925
11
66.8172
21
-59.909
0
LINE
8
BLACK
6
CONTINUOUS
10
66.8172
20
-59.909
11
66.8201
21
-59.8927
0
LINE
8
BLACK
6
CONTINUOUS
10
66.8201
20
-59.8927
11
66.8229
21
-59.8878
0
LINE
8
BLACK
6
CONTINUOUS
10
66.8229
20
-59.8878
11
66.8243
21
-59.8824
0
LINE
8
BLACK
6
CONTINUOUS
10
66.8243
20
-59.8824
11
66.8338
21
-59.8688
0
LINE
8
BLACK
6
CONTINUOUS
10
66.8338
20
-59.8688
11
66.8421
21
-59.8545
0
LINE
8
BLACK
6
CONTINUOUS
10
66.8421
20
-59.8545
11
66.8464
21
-59.8509
0
LINE
8
BLACK
6
CONTINUOUS
10
66.8464
20
-59.8509
11
66.8496
21
-59.8463
0
LINE
8
BLACK
6
CONTINUOUS
10
66.8496
20
-59.8463
11
66.8989
21
-59.7971
0
LINE
8
BLACK
6
CONTINUOUS
10
66.8989
20
-59.7971
11
66.9113
21
-59.7883
0
LINE
8
BLACK
6
CONTINUOUS
10
66.9113
20
-59.7883
11
66.9228
21
-59.7783
0
LINE
8
BLACK
6
CONTINUOUS
10
66.9228
20
-59.7783
11
66.9293
21
-59.7758
0
LINE
8
BLACK
6
CONTINUOUS
10
66.9293
20
-59.7758
11
66.935
21
-59.7718
0
LINE
8
BLACK
6
CONTINUOUS
10
66.935
20
-59.7718
11
66.9497
21
-59.7678
0
LINE
8
BLACK
6
CONTINUOUS
10
66.9497
20
-59.7678
11
66.9639
21
-59.7623
0
LINE
8
BLACK
6
CONTINUOUS
10
66.9639
20
-59.7623
11
67.1348
21
-59.7283
0
LINE
8
BLACK
6
CONTINUOUS
10
67.1348
20
-59.7283
11
67.2652
21
-59.6411
0
LINE
8
BLACK
6
CONTINUOUS
10
67.2652
20
-59.6411
11
67.3386
21
-59.5677
0
LINE
8
BLACK
6
CONTINUOUS
10
67.3386
20
-59.5677
11
67.3522
21
-59.5475
0
LINE
8
BLACK
6
CONTINUOUS
10
67.3522
20
-59.5475
11
67.362
21
-59.5373
0
LINE
8
BLACK
6
CONTINUOUS
10
67.362
20
-59.5373
11
67.3704
21
-59.5259
0
LINE
8
BLACK
6
CONTINUOUS
10
67.3704
20
-59.5259
11
67.3771
21
-59.5214
0
LINE
8
BLACK
6
CONTINUOUS
10
67.3771
20
-59.5214
11
67.3827
21
-59.5156
0
LINE
8
BLACK
6
CONTINUOUS
10
67.3827
20
-59.5156
11
67.3954
21
-59.5094
0
LINE
8
BLACK
6
CONTINUOUS
10
67.3954
20
-59.5094
11
67.4002
21
-59.5061
0
LINE
8
BLACK
6
CONTINUOUS
10
67.4002
20
-59.5061
11
67.929
21
-58.9774
0
LINE
8
BLACK
6
CONTINUOUS
10
67.929
20
-58.9774
11
67.929
21
-58.9448
0
LINE
8
BLACK
6
CONTINUOUS
10
67.929
20
-58.9448
11
67.9712
21
-58.8288
0
LINE
8
BLACK
6
CONTINUOUS
10
67.9712
20
-58.8288
11
68.0506
21
-58.7342
0
LINE
8
BLACK
6
CONTINUOUS
10
68.0506
20
-58.7342
11
68.1574
21
-58.6725
0
LINE
8
BLACK
6
CONTINUOUS
10
68.1574
20
-58.6725
11
68.2484
21
-58.6565
0
LINE
8
BLACK
6
CONTINUOUS
10
68.2484
20
-58.6565
11
68.5096
21
-58.6565
0
LINE
8
BLACK
6
CONTINUOUS
10
68.5096
20
-58.6565
11
68.6006
21
-58.6725
0
LINE
8
BLACK
6
CONTINUOUS
10
68.6006
20
-58.6725
11
68.7074
21
-58.7342
0
LINE
8
BLACK
6
CONTINUOUS
10
68.7074
20
-58.7342
11
68.7868
21
-58.8288
0
LINE
8
BLACK
6
CONTINUOUS
10
68.7868
20
-58.8288
11
68.829
21
-58.9448
0
LINE
8
BLACK
6
CONTINUOUS
10
68.829
20
-58.9448
11
68.829
21
-59.0682
0
LINE
8
BLACK
6
CONTINUOUS
10
68.829
20
-59.0682
11
68.7868
21
-59.1842
0
LINE
8
BLACK
6
CONTINUOUS
10
68.7868
20
-59.1842
11
68.7074
21
-59.2788
0
LINE
8
BLACK
6
CONTINUOUS
10
68.7074
20
-59.2788
11
68.6006
21
-59.3405
0
LINE
8
BLACK
6
CONTINUOUS
10
68.6006
20
-59.3405
11
68.556
21
-59.3483
0
LINE
8
BLACK
6
CONTINUOUS
10
68.556
20
-59.3483
11
68.556
21
-59.5552
0
LINE
8
BLACK
6
CONTINUOUS
10
68.556
20
-59.5552
11
68.6076
21
-59.5691
0
LINE
8
BLACK
6
CONTINUOUS
10
68.6076
20
-59.5691
11
68.6886
21
-59.6258
0
LINE
8
BLACK
6
CONTINUOUS
10
68.6886
20
-59.6258
11
68.9118
21
-59.849
0
LINE
8
BLACK
6
CONTINUOUS
10
68.9118
20
-59.849
11
68.9686
21
-59.93
0
LINE
8
BLACK
6
CONTINUOUS
10
68.9686
20
-59.93
11
69.0028
21
-60.0578
0
LINE
8
BLACK
6
CONTINUOUS
10
69.0028
20
-60.0578
11
68.9913
21
-60.1894
0
LINE
8
BLACK
6
CONTINUOUS
10
68.9913
20
-60.1894
11
69.2716
21
-60.4697
0
LINE
8
BLACK
6
CONTINUOUS
10
69.2716
20
-60.4697
11
69.2777
21
-60.4735
0
LINE
8
BLACK
6
CONTINUOUS
10
69.2777
20
-60.4735
11
69.2861
21
-60.4727
0
LINE
8
BLACK
6
CONTINUOUS
10
69.2861
20
-60.4727
11
69.2963
21
-60.4699
0
LINE
8
BLACK
6
CONTINUOUS
10
69.2963
20
-60.4699
11
69.4151
21
-60.4585
0
LINE
8
BLACK
6
CONTINUOUS
10
69.4151
20
-60.4585
11
69.4559
21
-60.3395
0
LINE
8
BLACK
6
CONTINUOUS
10
69.4559
20
-60.3395
11
69.4619
21
-60.3288
0
LINE
8
BLACK
6
CONTINUOUS
10
69.4619
20
-60.3288
11
69.4661
21
-60.3172
0
LINE
8
BLACK
6
CONTINUOUS
10
69.4661
20
-60.3172
11
69.4725
21
-60.3096
0
LINE
8
BLACK
6
CONTINUOUS
10
69.4725
20
-60.3096
11
69.4773
21
-60.3009
0
LINE
8
BLACK
6
CONTINUOUS
10
69.4773
20
-60.3009
11
69.4865
21
-60.2928
0
LINE
8
BLACK
6
CONTINUOUS
10
69.4865
20
-60.2928
11
69.4944
21
-60.2834
0
LINE
8
BLACK
6
CONTINUOUS
10
69.4944
20
-60.2834
11
69.503
21
-60.2784
0
LINE
8
BLACK
6
CONTINUOUS
10
69.503
20
-60.2784
11
69.5105
21
-60.2719
0
LINE
8
BLACK
6
CONTINUOUS
10
69.5105
20
-60.2719
11
69.522
21
-60.2675
0
LINE
8
BLACK
6
CONTINUOUS
10
69.522
20
-60.2675
11
69.5326
21
-60.2614
0
LINE
8
BLACK
6
CONTINUOUS
10
69.5326
20
-60.2614
11
69.5424
21
-60.2596
0
LINE
8
BLACK
6
CONTINUOUS
10
69.5424
20
-60.2596
11
69.5517
21
-60.2561
0
LINE
8
BLACK
6
CONTINUOUS
10
69.5517
20
-60.2561
11
69.564
21
-60.2558
0
LINE
8
BLACK
6
CONTINUOUS
10
69.564
20
-60.2558
11
69.5761
21
-60.2537
0
LINE
8
BLACK
6
CONTINUOUS
10
69.5761
20
-60.2537
11
69.9957
21
-60.2537
0
LINE
8
BLACK
6
CONTINUOUS
10
69.9957
20
-60.2537
11
70.008
21
-60.2559
0
LINE
8
BLACK
6
CONTINUOUS
10
70.008
20
-60.2559
11
70.0205
21
-60.2561
0
LINE
8
BLACK
6
CONTINUOUS
10
70.0205
20
-60.2561
11
70.0307
21
-60.2582
0
LINE
8
BLACK
6
CONTINUOUS
10
70.0307
20
-60.2582
11
70.041
21
-60.2561
0
LINE
8
BLACK
6
CONTINUOUS
10
70.041
20
-60.2561
11
70.1199
21
-60.2404
0
LINE
8
BLACK
6
CONTINUOUS
10
70.1199
20
-60.2404
11
70.1955
21
-60.1899
0
LINE
8
BLACK
6
CONTINUOUS
10
70.1955
20
-60.1899
11
70.2013
21
-60.1812
0
LINE
8
BLACK
6
CONTINUOUS
10
70.2013
20
-60.1812
11
70.21
21
-60.1722
0
LINE
8
BLACK
6
CONTINUOUS
10
70.21
20
-60.1722
11
70.2171
21
-60.162
0
LINE
8
BLACK
6
CONTINUOUS
10
70.2171
20
-60.162
11
70.4487
21
-59.9304
0
LINE
8
BLACK
6
CONTINUOUS
10
70.4487
20
-59.9304
11
70.4533
21
-59.9272
0
LINE
8
BLACK
6
CONTINUOUS
10
70.4533
20
-59.9272
11
70.4569
21
-59.9229
0
LINE
8
BLACK
6
CONTINUOUS
10
70.4569
20
-59.9229
11
70.4713
21
-59.9146
0
LINE
8
BLACK
6
CONTINUOUS
10
70.4713
20
-59.9146
11
70.4849
21
-59.9051
0
LINE
8
BLACK
6
CONTINUOUS
10
70.4849
20
-59.9051
11
70.4902
21
-59.9037
0
LINE
8
BLACK
6
CONTINUOUS
10
70.4902
20
-59.9037
11
70.4951
21
-59.9009
0
LINE
8
BLACK
6
CONTINUOUS
10
70.4951
20
-59.9009
11
70.5114
21
-59.898
0
LINE
8
BLACK
6
CONTINUOUS
10
70.5114
20
-59.898
11
70.5275
21
-59.8937
0
LINE
8
BLACK
6
CONTINUOUS
10
70.5275
20
-59.8937
11
70.533
21
-59.8942
0
LINE
8
BLACK
6
CONTINUOUS
10
70.533
20
-59.8942
11
70.5385
21
-59.8932
0
LINE
8
BLACK
6
CONTINUOUS
10
70.5385
20
-59.8932
11
72.338
21
-59.8932
0
LINE
8
BLACK
6
CONTINUOUS
10
72.338
20
-59.8932
11
72.3503
21
-59.8954
0
LINE
8
BLACK
6
CONTINUOUS
10
72.3503
20
-59.8954
11
72.3627
21
-59.8956
0
LINE
8
BLACK
6
CONTINUOUS
10
72.3627
20
-59.8956
11
72.373
21
-59.8977
0
LINE
8
BLACK
6
CONTINUOUS
10
72.373
20
-59.8977
11
72.3832
21
-59.8956
0
LINE
8
BLACK
6
CONTINUOUS
10
72.3832
20
-59.8956
11
72.4622
21
-59.8799
0
LINE
8
BLACK
6
CONTINUOUS
10
72.4622
20
-59.8799
11
72.5378
21
-59.8294
0
LINE
8
BLACK
6
CONTINUOUS
10
72.5378
20
-59.8294
11
72.5436
21
-59.8207
0
LINE
8
BLACK
6
CONTINUOUS
10
72.5436
20
-59.8207
11
72.5522
21
-59.8117
0
LINE
8
BLACK
6
CONTINUOUS
10
72.5522
20
-59.8117
11
72.5594
21
-59.8015
0
LINE
8
BLACK
6
CONTINUOUS
10
72.5594
20
-59.8015
11
73.1383
21
-59.2226
0
LINE
8
BLACK
6
CONTINUOUS
10
73.1383
20
-59.2226
11
73.1439
21
-59.2187
0
LINE
8
BLACK
6
CONTINUOUS
10
73.1439
20
-59.2187
11
73.1484
21
-59.2135
0
LINE
8
BLACK
6
CONTINUOUS
10
73.1484
20
-59.2135
11
73.5841
21
-58.8622
0
LINE
8
BLACK
6
CONTINUOUS
10
73.5841
20
-58.8622
11
73.6023
21
-58.8521
0
LINE
8
BLACK
6
CONTINUOUS
10
73.6023
20
-58.8521
11
73.6204
21
-58.8417
0
LINE
8
BLACK
6
CONTINUOUS
10
73.6204
20
-58.8417
11
73.6216
21
-58.8415
0
LINE
8
BLACK
6
CONTINUOUS
10
73.6216
20
-58.8415
11
73.6227
21
-58.8408
0
LINE
8
BLACK
6
CONTINUOUS
10
73.6227
20
-58.8408
11
73.6433
21
-58.8376
0
LINE
8
BLACK
6
CONTINUOUS
10
73.6433
20
-58.8376
11
73.6638
21
-58.834
0
LINE
8
BLACK
6
CONTINUOUS
10
73.6638
20
-58.834
11
75.5717
21
-58.834
0
LINE
8
BLACK
6
CONTINUOUS
10
75.5717
20
-58.834
11
75.5839
21
-58.8362
0
LINE
8
BLACK
6
CONTINUOUS
10
75.5839
20
-58.8362
11
75.5964
21
-58.8364
0
LINE
8
BLACK
6
CONTINUOUS
10
75.5964
20
-58.8364
11
75.6067
21
-58.8385
0
LINE
8
BLACK
6
CONTINUOUS
10
75.6067
20
-58.8385
11
75.6169
21
-58.8364
0
LINE
8
BLACK
6
CONTINUOUS
10
75.6169
20
-58.8364
11
75.6959
21
-58.8207
0
LINE
8
BLACK
6
CONTINUOUS
10
75.6959
20
-58.8207
11
75.7715
21
-58.7702
0
LINE
8
BLACK
6
CONTINUOUS
10
75.7715
20
-58.7702
11
75.7773
21
-58.7615
0
LINE
8
BLACK
6
CONTINUOUS
10
75.7773
20
-58.7615
11
75.7859
21
-58.7525
0
LINE
8
BLACK
6
CONTINUOUS
10
75.7859
20
-58.7525
11
75.7931
21
-58.7423
0
LINE
8
BLACK
6
CONTINUOUS
10
75.7931
20
-58.7423
11
76.0253
21
-58.51
0
LINE
8
BLACK
6
CONTINUOUS
10
76.0253
20
-58.51
11
76.0338
21
-58.5041
0
LINE
8
BLACK
6
CONTINUOUS
10
76.0338
20
-58.5041
11
76.0411
21
-58.4967
0
LINE
8
BLACK
6
CONTINUOUS
10
76.0411
20
-58.4967
11
76.0518
21
-58.4915
0
LINE
8
BLACK
6
CONTINUOUS
10
76.0518
20
-58.4915
11
76.0615
21
-58.4847
0
LINE
8
BLACK
6
CONTINUOUS
10
76.0615
20
-58.4847
11
76.0715
21
-58.482
0
LINE
8
BLACK
6
CONTINUOUS
10
76.0715
20
-58.482
11
76.0808
21
-58.4776
0
LINE
8
BLACK
6
CONTINUOUS
10
76.0808
20
-58.4776
11
76.0926
21
-58.4764
0
LINE
8
BLACK
6
CONTINUOUS
10
76.0926
20
-58.4764
11
76.1041
21
-58.4733
0
LINE
8
BLACK
6
CONTINUOUS
10
76.1041
20
-58.4733
11
76.1144
21
-58.4742
0
LINE
8
BLACK
6
CONTINUOUS
10
76.1144
20
-58.4742
11
76.1247
21
-58.4732
0
LINE
8
BLACK
6
CONTINUOUS
10
76.1247
20
-58.4732
11
76.1362
21
-58.4761
0
LINE
8
BLACK
6
CONTINUOUS
10
76.1362
20
-58.4761
11
76.148
21
-58.4772
0
LINE
8
BLACK
6
CONTINUOUS
10
76.148
20
-58.4772
11
76.1574
21
-58.4815
0
LINE
8
BLACK
6
CONTINUOUS
10
76.1574
20
-58.4815
11
76.1675
21
-58.4841
0
LINE
8
BLACK
6
CONTINUOUS
10
76.1675
20
-58.4841
11
76.4068
21
-58.5924
0
LINE
8
BLACK
6
CONTINUOUS
10
76.4068
20
-58.5924
11
76.5332
21
-58.466
0
LINE
8
BLACK
6
CONTINUOUS
10
76.5332
20
-58.466
11
76.5315
21
-58.0358
0
LINE
8
BLACK
6
CONTINUOUS
10
76.5315
20
-58.0358
11
76.5322
21
-58.0315
0
LINE
8
BLACK
6
CONTINUOUS
10
76.5322
20
-58.0315
11
76.532
21
-58.0286
0
LINE
8
BLACK
6
CONTINUOUS
10
76.532
20
-58.0286
11
76.534
21
-58.0209
0
LINE
8
BLACK
6
CONTINUOUS
10
76.534
20
-58.0209
11
76.5358
21
-58.0101
0
LINE
8
BLACK
6
CONTINUOUS
10
76.5358
20
-58.0101
11
76.536
21
-58.0099
0
LINE
8
BLACK
6
CONTINUOUS
10
76.536
20
-58.0099
11
76.536
21
-58.0097
0
LINE
8
BLACK
6
CONTINUOUS
10
76.536
20
-58.0097
11
76.538
21
-58.0062
0
LINE
8
BLACK
6
CONTINUOUS
10
76.538
20
-58.0062
11
76.5388
21
-58.003
0
LINE
8
BLACK
6
CONTINUOUS
10
76.5388
20
-58.003
11
76.544
21
-57.9956
0
LINE
8
BLACK
6
CONTINUOUS
10
76.544
20
-57.9956
11
76.5489
21
-57.9871
0
LINE
8
BLACK
6
CONTINUOUS
10
76.5489
20
-57.9871
11
76.5491
21
-57.9868
0
LINE
8
BLACK
6
CONTINUOUS
10
76.5491
20
-57.9868
11
76.5491
21
-57.9868
0
LINE
8
BLACK
6
CONTINUOUS
10
76.5491
20
-57.9868
11
76.5584
21
-57.9754
0
LINE
8
BLACK
6
CONTINUOUS
10
76.5584
20
-57.9754
11
76.565
21
-57.9698
0
LINE
8
BLACK
6
CONTINUOUS
10
76.565
20
-57.9698
11
76.5709
21
-57.9633
0
LINE
8
BLACK
6
CONTINUOUS
10
76.5709
20
-57.9633
11
76.575
21
-57.9612
0
LINE
8
BLACK
6
CONTINUOUS
10
76.575
20
-57.9612
11
76.5785
21
-57.9582
0
LINE
8
BLACK
6
CONTINUOUS
10
76.5785
20
-57.9582
11
76.5866
21
-57.9551
0
LINE
8
BLACK
6
CONTINUOUS
10
76.5866
20
-57.9551
11
76.5944
21
-57.9511
0
LINE
8
BLACK
6
CONTINUOUS
10
76.5944
20
-57.9511
11
76.5989
21
-57.9505
0
LINE
8
BLACK
6
CONTINUOUS
10
76.5989
20
-57.9505
11
76.6032
21
-57.9489
0
LINE
8
BLACK
6
CONTINUOUS
10
76.6032
20
-57.9489
11
76.612
21
-57.9488
0
LINE
8
BLACK
6
CONTINUOUS
10
76.612
20
-57.9488
11
76.6206
21
-57.9477
0
LINE
8
BLACK
6
CONTINUOUS
10
76.6206
20
-57.9477
11
76.6251
21
-57.9487
0
LINE
8
BLACK
6
CONTINUOUS
10
76.6251
20
-57.9487
11
76.6297
21
-57.9486
0
LINE
8
BLACK
6
CONTINUOUS
10
76.6297
20
-57.9486
11
76.6379
21
-57.9515
0
LINE
8
BLACK
6
CONTINUOUS
10
76.6379
20
-57.9515
11
76.6465
21
-57.9534
0
LINE
8
BLACK
6
CONTINUOUS
10
76.6465
20
-57.9534
11
76.6725
21
-57.9642
0
LINE
8
BLACK
6
CONTINUOUS
10
76.6725
20
-57.9642
11
76.7118
21
-57.972
0
LINE
8
BLACK
6
CONTINUOUS
10
76.7118
20
-57.972
11
76.7791
21
-57.972
0
LINE
8
BLACK
6
CONTINUOUS
10
76.7791
20
-57.972
11
76.8043
21
-57.9468
0
LINE
8
BLACK
6
CONTINUOUS
10
76.8043
20
-57.9468
11
76.8043
21
-57.7688
0
LINE
8
BLACK
6
CONTINUOUS
10
76.8043
20
-57.7688
11
76.7318
21
-57.7688
0
LINE
8
BLACK
6
CONTINUOUS
10
76.7318
20
-57.7688
11
76.7318
21
-56.8688
0
LINE
8
BLACK
6
CONTINUOUS
10
76.7318
20
-56.8688
11
76.8043
21
-56.8688
0
LINE
8
BLACK
6
CONTINUOUS
10
76.8043
20
-56.8688
11
76.8043
21
-56.6908
0
LINE
8
BLACK
6
CONTINUOUS
10
76.8043
20
-56.6908
11
76.7791
21
-56.6656
0
LINE
8
BLACK
6
CONTINUOUS
10
76.7791
20
-56.6656
11
76.7118
21
-56.6656
0
LINE
8
BLACK
6
CONTINUOUS
10
76.7118
20
-56.6656
11
76.6725
21
-56.6734
0
LINE
8
BLACK
6
CONTINUOUS
10
76.6725
20
-56.6734
11
76.6311
21
-56.6906
0
LINE
8
BLACK
6
CONTINUOUS
10
76.6311
20
-56.6906
11
76.6231
21
-56.6923
0
LINE
8
BLACK
6
CONTINUOUS
10
76.6231
20
-56.6923
11
76.6155
21
-56.6951
0
LINE
8
BLACK
6
CONTINUOUS
10
76.6155
20
-56.6951
11
76.6103
21
-56.6952
0
LINE
8
BLACK
6
CONTINUOUS
10
76.6103
20
-56.6952
11
76.6053
21
-56.6963
0
LINE
8
BLACK
6
CONTINUOUS
10
76.6053
20
-56.6963
11
76.5972
21
-56.6952
0
LINE
8
BLACK
6
CONTINUOUS
10
76.5972
20
-56.6952
11
76.589
21
-56.6953
0
LINE
8
BLACK
6
CONTINUOUS
10
76.589
20
-56.6953
11
76.5842
21
-56.6935
0
LINE
8
BLACK
6
CONTINUOUS
10
76.5842
20
-56.6935
11
76.579
21
-56.6928
0
LINE
8
BLACK
6
CONTINUOUS
10
76.579
20
-56.6928
11
76.5718
21
-56.6891
0
LINE
8
BLACK
6
CONTINUOUS
10
76.5718
20
-56.6891
11
76.5641
21
-56.6863
0
LINE
8
BLACK
6
CONTINUOUS
10
76.5641
20
-56.6863
11
76.5602
21
-56.683
0
LINE
8
BLACK
6
CONTINUOUS
10
76.5602
20
-56.683
11
76.5556
21
-56.6806
0
LINE
8
BLACK
6
CONTINUOUS
10
76.5556
20
-56.6806
11
76.5501
21
-56.6746
0
LINE
8
BLACK
6
CONTINUOUS
10
76.5501
20
-56.6746
11
76.5438
21
-56.6694
0
LINE
8
BLACK
6
CONTINUOUS
10
76.5438
20
-56.6694
11
76.5412
21
-56.6649
0
LINE
8
BLACK
6
CONTINUOUS
10
76.5412
20
-56.6649
11
76.5377
21
-56.6611
0
LINE
8
BLACK
6
CONTINUOUS
10
76.5377
20
-56.6611
11
76.5346
21
-56.6536
0
LINE
8
BLACK
6
CONTINUOUS
10
76.5346
20
-56.6536
11
76.5305
21
-56.6465
0
LINE
8
BLACK
6
CONTINUOUS
10
76.5305
20
-56.6465
11
76.5295
21
-56.6414
0
LINE
8
BLACK
6
CONTINUOUS
10
76.5295
20
-56.6414
11
76.5276
21
-56.6367
0
LINE
8
BLACK
6
CONTINUOUS
10
76.5276
20
-56.6367
11
76.5272
21
-56.6285
0
LINE
8
BLACK
6
CONTINUOUS
10
76.5272
20
-56.6285
11
76.5258
21
-56.6205
0
LINE
8
BLACK
6
CONTINUOUS
10
76.5258
20
-56.6205
11
76.5256
21
-56.5792
0
LINE
8
BLACK
6
CONTINUOUS
10
76.5256
20
-56.5792
11
76.5268
21
-56.5725
0
LINE
8
BLACK
6
CONTINUOUS
10
76.5268
20
-56.5725
11
76.5268
21
-56.5657
0
LINE
8
BLACK
6
CONTINUOUS
10
76.5268
20
-56.5657
11
76.529
21
-56.5596
0
LINE
8
BLACK
6
CONTINUOUS
10
76.529
20
-56.5596
11
76.5301
21
-56.5531
0
LINE
8
BLACK
6
CONTINUOUS
10
76.5301
20
-56.5531
11
76.5335
21
-56.5472
0
LINE
8
BLACK
6
CONTINUOUS
10
76.5335
20
-56.5472
11
76.5358
21
-56.5408
0
LINE
8
BLACK
6
CONTINUOUS
10
76.5358
20
-56.5408
11
76.54
21
-56.5358
0
LINE
8
BLACK
6
CONTINUOUS
10
76.54
20
-56.5358
11
76.5432
21
-56.5302
0
LINE
8
BLACK
6
CONTINUOUS
10
76.5432
20
-56.5302
11
76.5484
21
-56.5258
0
LINE
8
BLACK
6
CONTINUOUS
10
76.5484
20
-56.5258
11
76.5528
21
-56.5205
0
LINE
8
BLACK
6
CONTINUOUS
10
76.5528
20
-56.5205
11
76.5585
21
-56.5173
0
LINE
8
BLACK
6
CONTINUOUS
10
76.5585
20
-56.5173
11
76.5634
21
-56.5131
0
LINE
8
BLACK
6
CONTINUOUS
10
76.5634
20
-56.5131
11
76.5698
21
-56.5107
0
LINE
8
BLACK
6
CONTINUOUS
10
76.5698
20
-56.5107
11
76.5757
21
-56.5073
0
LINE
8
BLACK
6
CONTINUOUS
10
76.5757
20
-56.5073
11
76.5821
21
-56.5062
0
LINE
8
BLACK
6
CONTINUOUS
10
76.5821
20
-56.5062
11
76.5883
21
-56.5039
0
LINE
8
BLACK
6
CONTINUOUS
10
76.5883
20
-56.5039
11
76.5951
21
-56.5039
0
LINE
8
BLACK
6
CONTINUOUS
10
76.5951
20
-56.5039
11
76.6018
21
-56.5027
0
LINE
8
BLACK
6
CONTINUOUS
10
76.6018
20
-56.5027
11
82.6186
21
-56.5027
0
LINE
8
BLACK
6
CONTINUOUS
10
82.6186
20
-56.5027
11
82.6252
21
-56.5039
0
LINE
8
BLACK
6
CONTINUOUS
10
82.6252
20
-56.5039
11
82.6319
21
-56.5039
0
LINE
8
BLACK
6
CONTINUOUS
10
82.6319
20
-56.5039
11
82.6381
21
-56.5062
0
LINE
8
BLACK
6
CONTINUOUS
10
82.6381
20
-56.5062
11
82.6447
21
-56.5073
0
LINE
8
BLACK
6
CONTINUOUS
10
82.6447
20
-56.5073
11
82.6505
21
-56.5107
0
LINE
8
BLACK
6
CONTINUOUS
10
82.6505
20
-56.5107
11
82.6567
21
-56.5129
0
LINE
8
BLACK
6
CONTINUOUS
10
82.6567
20
-56.5129
11
82.6618
21
-56.5172
0
LINE
8
BLACK
6
CONTINUOUS
10
82.6618
20
-56.5172
11
82.6676
21
-56.5205
0
LINE
8
BLACK
6
CONTINUOUS
10
82.6676
20
-56.5205
11
82.6719
21
-56.5257
0
LINE
8
BLACK
6
CONTINUOUS
10
82.6719
20
-56.5257
11
82.677
21
-56.5299
0
LINE
8
BLACK
6
CONTINUOUS
10
82.677
20
-56.5299
11
82.6803
21
-56.5357
0
LINE
8
BLACK
6
CONTINUOUS
10
82.6803
20
-56.5357
11
82.6846
21
-56.5408
0
LINE
8
BLACK
6
CONTINUOUS
10
82.6846
20
-56.5408
11
82.6869
21
-56.5471
0
LINE
8
BLACK
6
CONTINUOUS
10
82.6869
20
-56.5471
11
82.6902
21
-56.5529
0
LINE
8
BLACK
6
CONTINUOUS
10
82.6902
20
-56.5529
11
82.6914
21
-56.5594
0
LINE
8
BLACK
6
CONTINUOUS
10
82.6914
20
-56.5594
11
82.6937
21
-56.5657
0
LINE
8
BLACK
6
CONTINUOUS
10
82.6937
20
-56.5657
11
82.6937
21
-56.5724
0
LINE
8
BLACK
6
CONTINUOUS
10
82.6937
20
-56.5724
11
82.6948
21
-56.5789
0
LINE
8
BLACK
6
CONTINUOUS
10
82.6948
20
-56.5789
11
82.6948
21
-61.9217
0
LINE
8
BLACK
6
CONTINUOUS
10
82.6948
20
-61.9217
11
82.6937
21
-61.9283
0
LINE
8
BLACK
6
CONTINUOUS
10
82.6937
20
-61.9283
11
82.6937
21
-61.935
0
LINE
8
BLACK
6
CONTINUOUS
10
82.6937
20
-61.935
11
82.6914
21
-61.9412
0
LINE
8
BLACK
6
CONTINUOUS
10
82.6914
20
-61.9412
11
82.6902
21
-61.9478
0
LINE
8
BLACK
6
CONTINUOUS
10
82.6902
20
-61.9478
11
82.6869
21
-61.9536
0
LINE
8
BLACK
6
CONTINUOUS
10
82.6869
20
-61.9536
11
82.6846
21
-61.9598
0
LINE
8
BLACK
6
CONTINUOUS
10
82.6846
20
-61.9598
11
82.6803
21
-61.9649
0
LINE
8
BLACK
6
CONTINUOUS
10
82.6803
20
-61.9649
11
82.677
21
-61.9707
0
LINE
8
BLACK
6
CONTINUOUS
10
82.677
20
-61.9707
11
82.6719
21
-61.975
0
LINE
8
BLACK
6
CONTINUOUS
10
82.6719
20
-61.975
11
82.6676
21
-61.9801
0
LINE
8
BLACK
6
CONTINUOUS
10
82.6676
20
-61.9801
11
82.6618
21
-61.9834
0
LINE
8
BLACK
6
CONTINUOUS
10
82.6618
20
-61.9834
11
82.6567
21
-61.9877
0
LINE
8
BLACK
6
CONTINUOUS
10
82.6567
20
-61.9877
11
82.6505
21
-61.99
0
LINE
8
BLACK
6
CONTINUOUS
10
82.6505
20
-61.99
11
82.6447
21
-61.9933
0
LINE
8
BLACK
6
CONTINUOUS
10
82.6447
20
-61.9933
11
82.6381
21
-61.9945
0
LINE
8
BLACK
6
CONTINUOUS
10
82.6381
20
-61.9945
11
82.6319
21
-61.9968
0
LINE
8
BLACK
6
CONTINUOUS
10
82.6319
20
-61.9968
11
82.6252
21
-61.9968
0
LINE
8
BLACK
6
CONTINUOUS
10
82.6252
20
-61.9968
11
82.6186
21
-61.9979
0
LINE
8
BLACK
6
CONTINUOUS
10
82.6186
20
-61.9979
11
77.7799
21
-61.9979
0
LINE
8
BLACK
6
CONTINUOUS
10
77.7799
20
-61.9979
11
77.7733
21
-61.9968
0
LINE
8
BLACK
6
CONTINUOUS
10
77.7733
20
-61.9968
11
77.7666
21
-61.9968
0
LINE
8
BLACK
6
CONTINUOUS
10
77.7666
20
-61.9968
11
77.7604
21
-61.9945
0
LINE
8
BLACK
6
CONTINUOUS
10
77.7604
20
-61.9945
11
77.7538
21
-61.9933
0
LINE
8
BLACK
6
CONTINUOUS
10
77.7538
20
-61.9933
11
77.748
21
-61.99
0
LINE
8
BLACK
6
CONTINUOUS
10
77.748
20
-61.99
11
77.7418
21
-61.9877
0
LINE
8
BLACK
6
CONTINUOUS
10
77.7418
20
-61.9877
11
77.7367
21
-61.9834
0
LINE
8
BLACK
6
CONTINUOUS
10
77.7367
20
-61.9834
11
77.7309
21
-61.9801
0
LINE
8
BLACK
6
CONTINUOUS
10
77.7309
20
-61.9801
11
77.7266
21
-61.975
0
LINE
8
BLACK
6
CONTINUOUS
10
77.7266
20
-61.975
11
77.7215
21
-61.9707
0
LINE
8
BLACK
6
CONTINUOUS
10
77.7215
20
-61.9707
11
77.7182
21
-61.9649
0
LINE
8
BLACK
6
CONTINUOUS
10
77.7182
20
-61.9649
11
77.7139
21
-61.9598
0
LINE
8
BLACK
6
CONTINUOUS
10
77.7139
20
-61.9598
11
77.7116
21
-61.9536
0
LINE
8
BLACK
6
CONTINUOUS
10
77.7116
20
-61.9536
11
77.7083
21
-61.9478
0
LINE
8
BLACK
6
CONTINUOUS
10
77.7083
20
-61.9478
11
77.7071
21
-61.9412
0
LINE
8
BLACK
6
CONTINUOUS
10
77.7071
20
-61.9412
11
77.7048
21
-61.935
0
LINE
8
BLACK
6
CONTINUOUS
10
77.7048
20
-61.935
11
77.7048
21
-61.9283
0
LINE
8
BLACK
6
CONTINUOUS
10
77.7048
20
-61.9283
11
77.7037
21
-61.9217
0
LINE
8
BLACK
6
CONTINUOUS
10
77.7037
20
-61.9217
11
77.7037
21
-61.8709
0
LINE
8
BLACK
6
CONTINUOUS
10
77.7037
20
-61.8709
11
77.7018
21
-61.8819
0
LINE
8
BLACK
6
CONTINUOUS
10
77.7018
20
-61.8819
11
77.7018
21
-61.893
0
LINE
8
BLACK
6
CONTINUOUS
10
77.7018
20
-61.893
11
77.6979
21
-61.9034
0
LINE
8
BLACK
6
CONTINUOUS
10
77.6979
20
-61.9034
11
77.696
21
-61.9144
0
LINE
8
BLACK
6
CONTINUOUS
10
77.696
20
-61.9144
11
77.6905
21
-61.924
0
LINE
8
BLACK
6
CONTINUOUS
10
77.6905
20
-61.924
11
77.6867
21
-61.9344
0
LINE
8
BLACK
6
CONTINUOUS
10
77.6867
20
-61.9344
11
77.6795
21
-61.9429
0
LINE
8
BLACK
6
CONTINUOUS
10
77.6795
20
-61.9429
11
77.674
21
-61.9526
0
LINE
8
BLACK
6
CONTINUOUS
10
77.674
20
-61.9526
11
77.6655
21
-61.9597
0
LINE
8
BLACK
6
CONTINUOUS
10
77.6655
20
-61.9597
11
77.6583
21
-61.9682
0
LINE
8
BLACK
6
CONTINUOUS
10
77.6583
20
-61.9682
11
77.6487
21
-61.9738
0
LINE
8
BLACK
6
CONTINUOUS
10
77.6487
20
-61.9738
11
77.6402
21
-61.9809
0
LINE
8
BLACK
6
CONTINUOUS
10
77.6402
20
-61.9809
11
77.6297
21
-61.9847
0
LINE
8
BLACK
6
CONTINUOUS
10
77.6297
20
-61.9847
11
77.6201
21
-61.9903
0
LINE
8
BLACK
6
CONTINUOUS
10
77.6201
20
-61.9903
11
77.6092
21
-61.9922
0
LINE
8
BLACK
6
CONTINUOUS
10
77.6092
20
-61.9922
11
77.5987
21
-61.996
0
LINE
8
BLACK
6
CONTINUOUS
10
77.5987
20
-61.996
11
77.5876
21
-61.996
0
LINE
8
BLACK
6
CONTINUOUS
10
77.5876
20
-61.996
11
77.5767
21
-61.9979
0
LINE
8
BLACK
6
CONTINUOUS
10
77.5767
20
-61.9979
11
64.7816
21
-61.9979
0
LINE
8
BLACK
6
CONTINUOUS
10
64.7816
20
-61.9979
11
64.7703
21
-61.9959
0
LINE
8
BLACK
6
CONTINUOUS
10
64.7703
20
-61.9959
11
64.7588
21
-61.9959
0
LINE
8
BLACK
6
CONTINUOUS
10
64.7588
20
-61.9959
11
64.7487
21
-61.9921
0
LINE
8
BLACK
6
CONTINUOUS
10
64.7487
20
-61.9921
11
64.7382
21
-61.9903
0
LINE
8
BLACK
6
CONTINUOUS
10
64.7382
20
-61.9903
11
64.7282
21
-61.9845
0
LINE
8
BLACK
6
CONTINUOUS
10
64.7282
20
-61.9845
11
64.7175
21
-61.9805
0
LINE
8
BLACK
6
CONTINUOUS
10
64.7175
20
-61.9805
11
64.7093
21
-61.9736
0
LINE
8
BLACK
6
CONTINUOUS
10
64.7093
20
-61.9736
11
64.7
21
-61.9682
0
LINE
8
BLACK
6
CONTINUOUS
10
64.7
20
-61.9682
11
64.6926
21
-61.9594
0
LINE
8
BLACK
6
CONTINUOUS
10
64.6926
20
-61.9594
11
64.6838
21
-61.952
0
LINE
8
BLACK
6
CONTINUOUS
10
64.6838
20
-61.952
11
64.6785
21
-61.9427
0
LINE
8
BLACK
6
CONTINUOUS
10
64.6785
20
-61.9427
11
64.6716
21
-61.9344
0
LINE
8
BLACK
6
CONTINUOUS
10
64.6716
20
-61.9344
11
64.6677
21
-61.9236
0
LINE
8
BLACK
6
CONTINUOUS
10
64.6677
20
-61.9236
11
64.662
21
-61.9137
0
LINE
8
BLACK
6
CONTINUOUS
10
64.662
20
-61.9137
11
64.6602
21
-61.9031
0
LINE
8
BLACK
6
CONTINUOUS
10
64.6602
20
-61.9031
11
64.6565
21
-61.893
0
LINE
8
BLACK
6
CONTINUOUS
10
64.6565
20
-61.893
11
64.6565
21
-61.8815
0
LINE
8
BLACK
6
CONTINUOUS
10
64.6565
20
-61.8815
11
64.6546
21
-61.8702
0
LINE
8
BLACK
6
CONTINUOUS
10
64.6546
20
-61.8702
11
64.6597
21
-60.9886
0
LINE
8
BLACK
6
CONTINUOUS
10
64.6597
20
-60.9886
11
64.6614
21
-60.9792
0
LINE
8
BLACK
6
CONTINUOUS
10
64.6614
20
-60.9792
11
64.6612
21
-60.9697
0
LINE
8
BLACK
6
CONTINUOUS
10
64.6612
20
-60.9697
11
64.6653
21
-60.9577
0
LINE
8
BLACK
6
CONTINUOUS
10
64.6653
20
-60.9577
11
64.6676
21
-60.9452
0
LINE
8
BLACK
6
CONTINUOUS
10
64.6676
20
-60.9452
11
64.6724
21
-60.937
0
LINE
8
BLACK
6
CONTINUOUS
10
64.6724
20
-60.937
11
64.6755
21
-60.9279
0
LINE
8
BLACK
6
CONTINUOUS
10
64.6755
20
-60.9279
11
64.6834
21
-60.9181
0
LINE
8
BLACK
6
CONTINUOUS
10
64.6834
20
-60.9181
11
64.6898
21
-60.9072
0
LINE
8
BLACK
6
CONTINUOUS
10
64.6898
20
-60.9072
11
64.6972
21
-60.9011
0
LINE
8
BLACK
6
CONTINUOUS
10
64.6972
20
-60.9011
11
64.7032
21
-60.8936
0
LINE
8
BLACK
6
CONTINUOUS
10
64.7032
20
-60.8936
11
64.714
21
-60.8871
0
LINE
8
BLACK
6
CONTINUOUS
10
64.714
20
-60.8871
11
64.7238
21
-60.879
0
LINE
8
BLACK
6
CONTINUOUS
10
64.7238
20
-60.879
11
64.7328
21
-60.8758
0
LINE
8
BLACK
6
CONTINUOUS
10
64.7328
20
-60.8758
11
64.741
21
-60.8709
0
LINE
8
BLACK
6
CONTINUOUS
10
64.741
20
-60.8709
11
64.7534
21
-60.8684
0
LINE
8
BLACK
6
CONTINUOUS
10
64.7534
20
-60.8684
11
64.7653
21
-60.8642
0
LINE
8
BLACK
6
CONTINUOUS
10
64.7653
20
-60.8642
11
64.7749
21
-60.8642
0
LINE
8
BLACK
6
CONTINUOUS
10
64.7749
20
-60.8642
11
64.7843
21
-60.8624
0
LINE
8
BLACK
6
CONTINUOUS
10
64.7843
20
-60.8624
11
64.7968
21
-60.8643
0
LINE
8
BLACK
6
CONTINUOUS
10
64.7968
20
-60.8643
11
64.8094
21
-60.8644
0
LINE
8
BLACK
6
CONTINUOUS
10
64.8094
20
-60.8644
11
64.8184
21
-60.8677
0
LINE
8
BLACK
6
CONTINUOUS
10
64.8184
20
-60.8677
11
64.8278
21
-60.8692
0
LINE
8
BLACK
6
CONTINUOUS
10
64.8278
20
-60.8692
11
65.0934
21
-60.9603
0
LINE
8
BLACK
6
CONTINUOUS
10
65.0934
20
-60.9603
11
65.4384
21
-60.9474
0
LINE
8
BLACK
6
CONTINUOUS
10
65.4384
20
-60.9474
11
65.7027
21
-60.8262
0
LINE
8
BLACK
6
CONTINUOUS
10
65.7027
20
-60.8262
11
65.7059
21
-60.7447
0
LINE
8
BLACK
6
CONTINUOUS
10
65.7059
20
-60.7447
11
65.3965
21
-60.4353
0
LINE
8
BLACK
6
CONTINUOUS
10
65.3965
20
-60.4353
11
65.3955
21
-60.4361
0
LINE
8
BLACK
6
CONTINUOUS
10
65.3955
20
-60.4361
11
65.2677
21
-60.4703
0
LINE
8
BLACK
6
CONTINUOUS
10
65.2677
20
-60.4703
11
65.136
21
-60.4588
0
LINE
8
BLACK
6
CONTINUOUS
10
65.136
20
-60.4588
11
65.0161
21
-60.4029
0
LINE
8
BLACK
6
CONTINUOUS
10
65.0161
20
-60.4029
11
64.9226
21
-60.3094
0
LINE
8
BLACK
6
CONTINUOUS
10
64.9226
20
-60.3094
11
64.8667
21
-60.1895
0
LINE
8
BLACK
6
CONTINUOUS
10
64.8667
20
-60.1895
11
64.8552
21
-60.0578
0
LINE
8
BLACK
6
CONTINUOUS
10
64.8552
20
-60.0578
11
64.8894
21
-59.93
0
LINE
8
BLACK
6
CONTINUOUS
10
64.8894
20
-59.93
11
64.9462
21
-59.849
0
LINE
8
BLACK
6
CONTINUOUS
10
64.9462
20
-59.849
11
65.1694
21
-59.6258
0
LINE
8
BLACK
6
CONTINUOUS
10
65.1694
20
-59.6258
11
65.2504
21
-59.5691
0
LINE
8
BLACK
6
CONTINUOUS
10
65.2504
20
-59.5691
11
65.3781
21
-59.5348
0
LINE
8
BLACK
6
CONTINUOUS
10
65.3781
20
-59.5348
11
65.5099
21
-59.5464
0
LINE
8
BLACK
6
CONTINUOUS
10
65.5099
20
-59.5464
11
65.6297
21
-59.6023
0
LINE
8
BLACK
6
CONTINUOUS
10
65.6297
20
-59.6023
11
65.7232
21
-59.6958
0
LINE
8
BLACK
6
CONTINUOUS
10
65.7232
20
-59.6958
11
65.7791
21
-59.8156
0
LINE
8
BLACK
6
CONTINUOUS
10
65.7791
20
-59.8156
11
65.7907
21
-59.9474
0
LINE
8
BLACK
6
CONTINUOUS
10
65.7907
20
-59.9474
11
65.7564
21
-60.0751
0
LINE
8
BLACK
6
CONTINUOUS
10
65.7564
20
-60.0751
11
65.7557
21
-60.0761
0
LINE
8
BLACK
6
CONTINUOUS
10
65.7557
20
-60.0761
11
66.0101
21
-60.3305
0
LINE
8
BLACK
6
CONTINUOUS
10
66.0101
20
-60.3305
11
66.0204
21
-60.3452
0
LINE
8
BLACK
6
CONTINUOUS
10
66.0204
20
-60.3452
11
66.0316
21
-60.3592
0
LINE
8
BLACK
6
CONTINUOUS
10
66.0316
20
-60.3592
11
66.033
21
-60.3632
0
LINE
8
BLACK
6
CONTINUOUS
10
66.033
20
-60.3632
11
66.0354
21
-60.3666
0
LINE
8
BLACK
6
CONTINUOUS
10
66.0354
20
-60.3666
11
66.04
21
-60.384
0
LINE
8
BLACK
6
CONTINUOUS
10
66.04
20
-60.384
11
66.0458
21
-60.401
0
LINE
8
BLACK
6
CONTINUOUS
10
66.0458
20
-60.401
11
66.0457
21
-60.4052
0
LINE
8
BLACK
6
CONTINUOUS
10
66.0457
20
-60.4052
11
66.0468
21
-60.4092
0
LINE
8
BLACK
6
CONTINUOUS
10
66.0468
20
-60.4092
11
66.0452
21
-60.4271
0
LINE
8
BLACK
6
CONTINUOUS
10
66.0452
20
-60.4271
11
66.045
21
-60.4351
0
LINE
8
BLACK
6
CONTINUOUS
10
66.045
20
-60.4351
11
66.0637
21
-60.5287
0
LINE
8
BLACK
6
CONTINUOUS
10
66.0637
20
-60.5287
11
66.1084
21
-60.5957
0
LINE
8
BLACK
6
CONTINUOUS
10
66.1084
20
-60.5957
11
66.1084
21
-60.5957
0
LINE
8
BLACK
6
CONTINUOUS
10
66.1084
20
-60.5957
11
66.1142
21
-60.6044
0
LINE
8
BLACK
6
CONTINUOUS
10
66.1142
20
-60.6044
11
66.1229
21
-60.6102
0
LINE
8
BLACK
6
CONTINUOUS
10
66.1229
20
-60.6102
11
66.1319
21
-60.6188
0
LINE
8
BLACK
6
CONTINUOUS
10
66.1319
20
-60.6188
11
66.1421
21
-60.6259
0
LINE
8
BLACK
6
CONTINUOUS
10
66.1421
20
-60.6259
11
66.4886
21
-60.9724
0
LINE
8
BLACK
6
CONTINUOUS
10
66.4886
20
-60.9724
11
66.4973
21
-60.9849
0
LINE
8
BLACK
6
CONTINUOUS
10
66.4973
20
-60.9849
11
66.5074
21
-60.9963
0
LINE
8
BLACK
6
CONTINUOUS
10
66.5074
20
-60.9963
11
66.5099
21
-61.0028
0
LINE
8
BLACK
6
CONTINUOUS
10
66.5099
20
-61.0028
11
66.5139
21
-61.0086
0
LINE
8
BLACK
6
CONTINUOUS
10
66.5139
20
-61.0086
11
66.5178
21
-61.0233
0
LINE
8
BLACK
6
CONTINUOUS
10
66.5178
20
-61.0233
11
66.5227
21
-61.0358
0
LINE
8
BLACK
6
CONTINUOUS
10
66.5227
20
-61.0358
11
66.5737
21
-61.1121
0
LINE
8
BLACK
6
CONTINUOUS
10
66.5737
20
-61.1121
11
66.5824
21
-61.1179
0
LINE
8
BLACK
6
CONTINUOUS
10
66.5824
20
-61.1179
11
66.5914
21
-61.1265
0
LINE
8
BLACK
6
CONTINUOUS
10
66.5914
20
-61.1265
11
66.6016
21
-61.1337
0
LINE
8
BLACK
6
CONTINUOUS
10
66.6016
20
-61.1337
11
66.9814
21
-61.5134
0
LINE
8
BLACK
6
CONTINUOUS
10
66.9814
20
-61.5134
11
66.9885
21
-61.5237
0
LINE
8
BLACK
6
CONTINUOUS
10
66.9885
20
-61.5237
11
66.9971
21
-61.5327
0
LINE
8
BLACK
6
CONTINUOUS
10
66.9971
20
-61.5327
11
67.0029
21
-61.5414
0
LINE
8
BLACK
6
CONTINUOUS
10
67.0029
20
-61.5414
11
67.0786
21
-61.5919
0
LINE
8
BLACK
6
CONTINUOUS
10
67.0786
20
-61.5919
11
67.1575
21
-61.6076
0
LINE
8
BLACK
6
CONTINUOUS
10
67.1575
20
-61.6076
11
67.1575
21
-61.6076
0
LINE
8
BLACK
6
CONTINUOUS
10
67.1575
20
-61.6076
11
67.1678
21
-61.6096
0
LINE
8
BLACK
6
CONTINUOUS
10
67.1678
20
-61.6096
11
67.178
21
-61.6076
0
LINE
8
BLACK
6
CONTINUOUS
10
67.178
20
-61.6076
11
67.1905
21
-61.6073
0
LINE
8
BLACK
6
CONTINUOUS
10
67.1905
20
-61.6073
11
67.2028
21
-61.6052
0
LINE
8
BLACK
6
CONTINUOUS
10
67.2028
20
-61.6052
11
72.6141
21
-61.6052
0
LINE
8
BLACK
6
CONTINUOUS
10
72.6141
20
-61.6052
11
72.6264
21
-61.6073
0
LINE
8
BLACK
6
CONTINUOUS
10
72.6264
20
-61.6073
11
72.6388
21
-61.6076
0
LINE
8
BLACK
6
CONTINUOUS
10
72.6388
20
-61.6076
11
72.6491
21
-61.6096
0
LINE
8
BLACK
6
CONTINUOUS
10
72.6491
20
-61.6096
11
72.6593
21
-61.6076
0
LINE
8
BLACK
6
CONTINUOUS
10
72.6593
20
-61.6076
11
72.6718
21
-61.6073
0
LINE
8
BLACK
6
CONTINUOUS
10
72.6718
20
-61.6073
11
72.6841
21
-61.6052
0
LINE
8
BLACK
6
CONTINUOUS
10
72.6841
20
-61.6052
11
74.8587
21
-61.6052
0
LINE
8
BLACK
6
CONTINUOUS
10
74.8587
20
-61.6052
11
74.871
21
-61.6073
0
LINE
8
BLACK
6
CONTINUOUS
10
74.871
20
-61.6073
11
74.8835
21
-61.6076
0
LINE
8
BLACK
6
CONTINUOUS
10
74.8835
20
-61.6076
11
74.8937
21
-61.6096
0
LINE
8
BLACK
6
CONTINUOUS
10
74.8937
20
-61.6096
11
74.9039
21
-61.6076
0
LINE
8
BLACK
6
CONTINUOUS
10
74.9039
20
-61.6076
11
74.9829
21
-61.5919
0
LINE
8
BLACK
6
CONTINUOUS
10
74.9829
20
-61.5919
11
75.0585
21
-61.5414
0
LINE
8
BLACK
6
CONTINUOUS
10
75.0585
20
-61.5414
11
75.0643
21
-61.5327
0
LINE
8
BLACK
6
CONTINUOUS
10
75.0643
20
-61.5327
11
75.073
21
-61.5237
0
LINE
8
BLACK
6
CONTINUOUS
10
75.073
20
-61.5237
11
75.0801
21
-61.5134
0
LINE
8
BLACK
6
CONTINUOUS
10
75.0801
20
-61.5134
11
77.2255
21
-59.3681
0
LINE
8
BLACK
6
CONTINUOUS
10
77.2255
20
-59.3681
11
77.2333
21
-59.3626
0
LINE
8
BLACK
6
CONTINUOUS
10
77.2333
20
-59.3626
11
77.2399
21
-59.3556
0
LINE
8
BLACK
6
CONTINUOUS
10
77.2399
20
-59.3556
11
77.2512
21
-59.35
0
LINE
8
BLACK
6
CONTINUOUS
10
77.2512
20
-59.35
11
77.2616
21
-59.3428
0
LINE
8
BLACK
6
CONTINUOUS
10
77.2616
20
-59.3428
11
77.2709
21
-59.3403
0
LINE
8
BLACK
6
CONTINUOUS
10
77.2709
20
-59.3403
11
77.2795
21
-59.3361
0
LINE
8
BLACK
6
CONTINUOUS
10
77.2795
20
-59.3361
11
77.292
21
-59.3347
0
LINE
8
BLACK
6
CONTINUOUS
10
77.292
20
-59.3347
11
77.3042
21
-59.3314
0
LINE
8
BLACK
6
CONTINUOUS
10
77.3042
20
-59.3314
11
77.3138
21
-59.3322
0
LINE
8
BLACK
6
CONTINUOUS
10
77.3138
20
-59.3322
11
77.3233
21
-59.3312
0
LINE
8
BLACK
6
CONTINUOUS
10
77.3233
20
-59.3312
11
77.3356
21
-59.3341
0
LINE
8
BLACK
6
CONTINUOUS
10
77.3356
20
-59.3341
11
77.3481
21
-59.3352
0
LINE
8
BLACK
6
CONTINUOUS
10
77.3481
20
-59.3352
11
77.3568
21
-59.3393
0
LINE
8
BLACK
6
CONTINUOUS
10
77.3568
20
-59.3393
11
77.3662
21
-59.3415
0
LINE
8
BLACK
6
CONTINUOUS
10
77.3662
20
-59.3415
11
77.3767
21
-59.3485
0
LINE
8
BLACK
6
CONTINUOUS
10
77.3767
20
-59.3485
11
77.3881
21
-59.3539
0
LINE
8
BLACK
6
CONTINUOUS
10
77.3881
20
-59.3539
11
77.3949
21
-59.3607
0
LINE
8
BLACK
6
CONTINUOUS
10
77.3949
20
-59.3607
11
77.4029
21
-59.366
0
LINE
8
BLACK
6
CONTINUOUS
10
77.4029
20
-59.366
11
77.4104
21
-59.3761
0
LINE
8
BLACK
6
CONTINUOUS
10
77.4104
20
-59.3761
11
77.4193
21
-59.3851
0
LINE
8
BLACK
6
CONTINUOUS
10
77.4193
20
-59.3851
11
77.4233
21
-59.3938
0
LINE
8
BLACK
6
CONTINUOUS
10
77.4233
20
-59.3938
11
77.429
21
-59.4015
0
LINE
8
BLACK
6
CONTINUOUS
10
77.429
20
-59.4015
11
77.4326
21
-59.4136
0
LINE
8
BLACK
6
CONTINUOUS
10
77.4326
20
-59.4136
11
77.4379
21
-59.425
0
LINE
8
BLACK
6
CONTINUOUS
10
77.4379
20
-59.425
11
77.4388
21
-59.4346
0
LINE
8
BLACK
6
CONTINUOUS
10
77.4388
20
-59.4346
11
77.4415
21
-59.4438
0
LINE
8
BLACK
6
CONTINUOUS
10
77.4415
20
-59.4438
11
77.4217
21
-59.2667
0
LINE
8
BLACK
6
CONTINUOUS
10
77.4217
20
-59.2667
11
77.4224
21
-59.2558
0
LINE
8
BLACK
6
CONTINUOUS
10
77.4224
20
-59.2558
11
77.4224
21
-59.245
0
LINE
8
BLACK
6
CONTINUOUS
10
77.4224
20
-59.245
11
77.4232
21
-59.2427
0
LINE
8
BLACK
6
CONTINUOUS
10
77.4232
20
-59.2427
11
77.4234
21
-59.2402
0
LINE
8
BLACK
6
CONTINUOUS
10
77.4234
20
-59.2402
11
77.4277
21
-59.2303
0
LINE
8
BLACK
6
CONTINUOUS
10
77.4277
20
-59.2303
11
77.4314
21
-59.2201
0
LINE
8
BLACK
6
CONTINUOUS
10
77.4314
20
-59.2201
11
77.433
21
-59.2182
0
LINE
8
BLACK
6
CONTINUOUS
10
77.433
20
-59.2182
11
77.434
21
-59.216
0
LINE
8
BLACK
6
CONTINUOUS
10
77.434
20
-59.216
11
77.4415
21
-59.2081
0
LINE
8
BLACK
6
CONTINUOUS
10
77.4415
20
-59.2081
11
77.4484
21
-59.1998
0
LINE
8
BLACK
6
CONTINUOUS
10
77.4484
20
-59.1998
11
77.4505
21
-59.1986
0
LINE
8
BLACK
6
CONTINUOUS
10
77.4505
20
-59.1986
11
77.4522
21
-59.1968
0
LINE
8
BLACK
6
CONTINUOUS
10
77.4522
20
-59.1968
11
77.4619
21
-59.192
0
LINE
8
BLACK
6
CONTINUOUS
10
77.4619
20
-59.192
11
77.4714
21
-59.1866
0
LINE
8
BLACK
6
CONTINUOUS
10
77.4714
20
-59.1866
11
77.4738
21
-59.1862
0
LINE
8
BLACK
6
CONTINUOUS
10
77.4738
20
-59.1862
11
77.4759
21
-59.1851
0
LINE
8
BLACK
6
CONTINUOUS
10
77.4759
20
-59.1851
11
77.4867
21
-59.1839
0
LINE
8
BLACK
6
CONTINUOUS
10
77.4867
20
-59.1839
11
77.4974
21
-59.182
0
LINE
8
BLACK
6
CONTINUOUS
10
77.4974
20
-59.182
11
77.5312
21
-59.182
0
LINE
8
BLACK
6
CONTINUOUS
10
77.5312
20
-59.182
11
77.535
21
-59.1827
0
LINE
8
BLACK
6
CONTINUOUS
10
77.535
20
-59.1827
11
77.5387
21
-59.1824
0
LINE
8
BLACK
6
CONTINUOUS
10
77.5387
20
-59.1824
11
77.5462
21
-59.1831
0
LINE
8
BLACK
6
CONTINUOUS
10
77.5462
20
-59.1831
11
77.5537
21
-59.1824
0
LINE
8
BLACK
6
CONTINUOUS
10
77.5537
20
-59.1824
11
77.5537
21
-59.1824
0
LINE
8
BLACK
6
CONTINUOUS
10
77.5537
20
-59.1824
11
77.591
21
-59.1787
0
LINE
8
BLACK
6
CONTINUOUS
10
79.5255
20
-59.4153
11
79.4919
21
-59.4186
0
LINE
8
BLACK
6
CONTINUOUS
10
79.4919
20
-59.4186
11
79.4632
21
-59.4273
0
LINE
8
BLACK
6
CONTINUOUS
10
79.4632
20
-59.4273
11
79.4367
21
-59.4415
0
LINE
8
BLACK
6
CONTINUOUS
10
79.4367
20
-59.4415
11
79.4135
21
-59.4605
0
LINE
8
BLACK
6
CONTINUOUS
10
79.4135
20
-59.4605
11
79.3945
21
-59.4837
0
LINE
8
BLACK
6
CONTINUOUS
10
79.3945
20
-59.4837
11
79.3803
21
-59.5102
0
LINE
8
BLACK
6
CONTINUOUS
10
79.3803
20
-59.5102
11
79.3716
21
-59.5389
0
LINE
8
BLACK
6
CONTINUOUS
10
79.3716
20
-59.5389
11
79.3683
21
-59.5725
0
LINE
8
BLACK
6
CONTINUOUS
10
79.3683
20
-59.5725
11
79.3683
21
-60.5651
0
LINE
8
BLACK
6
CONTINUOUS
10
79.3683
20
-60.5651
11
79.3716
21
-60.5987
0
LINE
8
BLACK
6
CONTINUOUS
10
79.3716
20
-60.5987
11
79.3803
21
-60.6274
0
LINE
8
BLACK
6
CONTINUOUS
10
79.3803
20
-60.6274
11
79.3945
21
-60.6539
0
LINE
8
BLACK
6
CONTINUOUS
10
79.3945
20
-60.6539
11
79.4135
21
-60.6771
0
LINE
8
BLACK
6
CONTINUOUS
10
79.4135
20
-60.6771
11
79.4367
21
-60.6961
0
LINE
8
BLACK
6
CONTINUOUS
10
79.4367
20
-60.6961
11
79.4632
21
-60.7103
0
LINE
8
BLACK
6
CONTINUOUS
10
79.4632
20
-60.7103
11
79.4919
21
-60.719
0
LINE
8
BLACK
6
CONTINUOUS
10
79.4919
20
-60.719
11
79.5255
21
-60.7223
0
LINE
8
BLACK
6
CONTINUOUS
10
79.5255
20
-60.7223
11
79.8181
21
-60.7223
0
LINE
8
BLACK
6
CONTINUOUS
10
79.8181
20
-60.7223
11
79.8517
21
-60.719
0
LINE
8
BLACK
6
CONTINUOUS
10
79.8517
20
-60.719
11
79.8804
21
-60.7103
0
LINE
8
BLACK
6
CONTINUOUS
10
79.8804
20
-60.7103
11
79.9069
21
-60.6961
0
LINE
8
BLACK
6
CONTINUOUS
10
79.9069
20
-60.6961
11
79.9301
21
-60.6771
0
LINE
8
BLACK
6
CONTINUOUS
10
79.9301
20
-60.6771
11
79.9491
21
-60.6539
0
LINE
8
BLACK
6
CONTINUOUS
10
79.9491
20
-60.6539
11
79.9633
21
-60.6274
0
LINE
8
BLACK
6
CONTINUOUS
10
79.9633
20
-60.6274
11
79.972
21
-60.5987
0
LINE
8
BLACK
6
CONTINUOUS
10
79.972
20
-60.5987
11
79.9753
21
-60.5651
0
LINE
8
BLACK
6
CONTINUOUS
10
79.9753
20
-60.5651
11
79.9753
21
-59.5725
0
LINE
8
BLACK
6
CONTINUOUS
10
79.9753
20
-59.5725
11
79.972
21
-59.5389
0
LINE
8
BLACK
6
CONTINUOUS
10
79.972
20
-59.5389
11
79.9633
21
-59.5102
0
LINE
8
BLACK
6
CONTINUOUS
10
79.9633
20
-59.5102
11
79.9491
21
-59.4837
0
LINE
8
BLACK
6
CONTINUOUS
10
79.9491
20
-59.4837
11
79.9301
21
-59.4605
0
LINE
8
BLACK
6
CONTINUOUS
10
79.9301
20
-59.4605
11
79.9069
21
-59.4415
0
LINE
8
BLACK
6
CONTINUOUS
10
79.9069
20
-59.4415
11
79.8804
21
-59.4273
0
LINE
8
BLACK
6
CONTINUOUS
10
79.8804
20
-59.4273
11
79.8517
21
-59.4186
0
LINE
8
BLACK
6
CONTINUOUS
10
79.8517
20
-59.4186
11
79.8181
21
-59.4153
0
LINE
8
BLACK
6
CONTINUOUS
10
79.8181
20
-59.4153
11
79.5255
21
-59.4153
0
LINE
8
BLACK
6
CONTINUOUS
10
68.2683
20
-59.3565
11
67.5872
21
-60.0376
0
LINE
8
BLACK
6
CONTINUOUS
10
67.5872
20
-60.0376
11
67.5902
21
-60.118
0
LINE
8
BLACK
6
CONTINUOUS
10
67.5902
20
-60.118
11
67.7091
21
-60.3772
0
LINE
8
BLACK
6
CONTINUOUS
10
67.7091
20
-60.3772
11
68.4146
21
-60.4025
0
LINE
8
BLACK
6
CONTINUOUS
10
68.4146
20
-60.4025
11
68.3815
21
-60.3793
0
LINE
8
BLACK
6
CONTINUOUS
10
68.3815
20
-60.3793
11
68.1583
21
-60.1561
0
LINE
8
BLACK
6
CONTINUOUS
10
68.1583
20
-60.1561
11
68.1016
21
-60.0751
0
LINE
8
BLACK
6
CONTINUOUS
10
68.1016
20
-60.0751
11
68.0673
21
-59.9474
0
LINE
8
BLACK
6
CONTINUOUS
10
68.0673
20
-59.9474
11
68.0789
21
-59.8156
0
LINE
8
BLACK
6
CONTINUOUS
10
68.0789
20
-59.8156
11
68.1348
21
-59.6958
0
LINE
8
BLACK
6
CONTINUOUS
10
68.1348
20
-59.6958
11
68.2283
21
-59.6023
0
LINE
8
BLACK
6
CONTINUOUS
10
68.2283
20
-59.6023
11
68.302
21
-59.5679
0
LINE
8
BLACK
6
CONTINUOUS
10
68.302
20
-59.5679
11
68.302
21
-59.3565
0
LINE
8
BLACK
6
CONTINUOUS
10
68.302
20
-59.3565
11
68.2683
21
-59.3565
0
LINE
8
BLACK
6
CONTINUOUS
10
79.0318
20
-57.495
11
79.0318
21
-57.7688
0
LINE
8
BLACK
6
CONTINUOUS
10
79.0318
20
-57.7688
11
78.9593
21
-57.7688
0
LINE
8
BLACK
6
CONTINUOUS
10
78.9593
20
-57.7688
11
78.9593
21
-57.9468
0
LINE
8
BLACK
6
CONTINUOUS
10
78.9593
20
-57.9468
11
78.9845
21
-57.972
0
LINE
8
BLACK
6
CONTINUOUS
10
78.9845
20
-57.972
11
79.0518
21
-57.972
0
LINE
8
BLACK
6
CONTINUOUS
10
79.0518
20
-57.972
11
79.0911
21
-57.9642
0
LINE
8
BLACK
6
CONTINUOUS
10
79.0911
20
-57.9642
11
79.1281
21
-57.9489
0
LINE
8
BLACK
6
CONTINUOUS
10
79.1281
20
-57.9489
11
79.1613
21
-57.9266
0
LINE
8
BLACK
6
CONTINUOUS
10
79.1613
20
-57.9266
11
79.1896
21
-57.8983
0
LINE
8
BLACK
6
CONTINUOUS
10
79.1896
20
-57.8983
11
79.2119
21
-57.865
0
LINE
8
BLACK
6
CONTINUOUS
10
79.2119
20
-57.865
11
79.2272
21
-57.8281
0
LINE
8
BLACK
6
CONTINUOUS
10
79.2272
20
-57.8281
11
79.235
21
-57.7888
0
LINE
8
BLACK
6
CONTINUOUS
10
79.235
20
-57.7888
11
79.235
21
-57.495
0
LINE
8
BLACK
6
CONTINUOUS
10
79.235
20
-57.495
11
79.0318
21
-57.495
0
LINE
8
BLACK
6
CONTINUOUS
10
79.0135
20
-56.6656
11
79.0115
21
-56.6729
0
LINE
8
BLACK
6
CONTINUOUS
10
79.0115
20
-56.6729
11
79.0096
21
-56.6757
0
LINE
8
BLACK
6
CONTINUOUS
10
79.0096
20
-56.6757
11
79.0084
21
-56.6789
0
LINE
8
BLACK
6
CONTINUOUS
10
79.0084
20
-56.6789
11
79.0019
21
-56.6866
0
LINE
8
BLACK
6
CONTINUOUS
10
79.0019
20
-56.6866
11
79
21
-56.6894
0
LINE
8
BLACK
6
CONTINUOUS
10
79
20
-56.6894
11
78.9976
21
-56.6917
0
LINE
8
BLACK
6
CONTINUOUS
10
78.9976
20
-56.6917
11
78.9911
21
-56.6995
0
LINE
8
BLACK
6
CONTINUOUS
10
78.9911
20
-56.6995
11
78.9882
21
-56.7012
0
LINE
8
BLACK
6
CONTINUOUS
10
78.9882
20
-56.7012
11
78.9593
21
-56.7301
0
LINE
8
BLACK
6
CONTINUOUS
10
78.9593
20
-56.7301
11
78.9593
21
-56.8688
0
LINE
8
BLACK
6
CONTINUOUS
10
78.9593
20
-56.8688
11
79.0318
21
-56.8688
0
LINE
8
BLACK
6
CONTINUOUS
10
79.0318
20
-56.8688
11
79.0318
21
-57.2413
0
LINE
8
BLACK
6
CONTINUOUS
10
79.0318
20
-57.2413
11
79.2098
21
-57.2413
0
LINE
8
BLACK
6
CONTINUOUS
10
79.2098
20
-57.2413
11
79.235
21
-57.2161
0
LINE
8
BLACK
6
CONTINUOUS
10
79.235
20
-57.2161
11
79.235
21
-56.8488
0
LINE
8
BLACK
6
CONTINUOUS
10
79.235
20
-56.8488
11
79.2272
21
-56.8095
0
LINE
8
BLACK
6
CONTINUOUS
10
79.2272
20
-56.8095
11
79.2119
21
-56.7726
0
LINE
8
BLACK
6
CONTINUOUS
10
79.2119
20
-56.7726
11
79.1896
21
-56.7393
0
LINE
8
BLACK
6
CONTINUOUS
10
79.1896
20
-56.7393
11
79.1613
21
-56.711
0
LINE
8
BLACK
6
CONTINUOUS
10
79.1613
20
-56.711
11
79.1281
21
-56.6887
0
LINE
8
BLACK
6
CONTINUOUS
10
79.1281
20
-56.6887
11
79.0911
21
-56.6734
0
LINE
8
BLACK
6
CONTINUOUS
10
79.0911
20
-56.6734
11
79.0518
21
-56.6656
0
LINE
8
BLACK
6
CONTINUOUS
10
79.0518
20
-56.6656
11
79.0135
21
-56.6656
0
LINE
8
BLACK
6
CONTINUOUS
10
77.7023
20
-59.9801
11
77.6984
21
-59.9743
0
LINE
8
BLACK
6
CONTINUOUS
10
77.6984
20
-59.9743
11
77.472
21
-59.7479
0
LINE
8
BLACK
6
CONTINUOUS
10
77.472
20
-59.7479
11
77.4701
21
-59.7451
0
LINE
8
BLACK
6
CONTINUOUS
10
77.4701
20
-59.7451
11
77.4675
21
-59.743
0
LINE
8
BLACK
6
CONTINUOUS
10
77.4675
20
-59.743
11
77.4625
21
-59.7344
0
LINE
8
BLACK
6
CONTINUOUS
10
77.4625
20
-59.7344
11
77.4568
21
-59.7262
0
LINE
8
BLACK
6
CONTINUOUS
10
77.4568
20
-59.7262
11
77.456
21
-59.723
0
LINE
8
BLACK
6
CONTINUOUS
10
77.456
20
-59.723
11
77.4543
21
-59.7201
0
LINE
8
BLACK
6
CONTINUOUS
10
77.4543
20
-59.7201
11
77.4525
21
-59.7103
0
LINE
8
BLACK
6
CONTINUOUS
10
77.4525
20
-59.7103
11
77.45
21
-59.7006
0
LINE
8
BLACK
6
CONTINUOUS
10
77.45
20
-59.7006
11
77.4503
21
-59.6973
0
LINE
8
BLACK
6
CONTINUOUS
10
77.4503
20
-59.6973
11
77.4497
21
-59.694
0
LINE
8
BLACK
6
CONTINUOUS
10
77.4497
20
-59.694
11
77.4497
21
-59.7131
0
LINE
8
BLACK
6
CONTINUOUS
10
77.4497
20
-59.7131
11
77.452
21
-59.7246
0
LINE
8
BLACK
6
CONTINUOUS
10
77.452
20
-59.7246
11
77.4585
21
-59.7344
0
LINE
8
BLACK
6
CONTINUOUS
10
77.4585
20
-59.7344
11
77.6665
21
-59.9424
0
LINE
8
BLACK
6
CONTINUOUS
10
77.6665
20
-59.9424
11
77.6697
21
-59.9469
0
LINE
8
BLACK
6
CONTINUOUS
10
77.6697
20
-59.9469
11
77.674
21
-59.9505
0
LINE
8
BLACK
6
CONTINUOUS
10
77.674
20
-59.9505
11
77.6823
21
-59.9649
0
LINE
8
BLACK
6
CONTINUOUS
10
77.6823
20
-59.9649
11
77.6918
21
-59.9785
0
LINE
8
BLACK
6
CONTINUOUS
10
77.6918
20
-59.9785
11
77.6932
21
-59.9839
0
LINE
8
BLACK
6
CONTINUOUS
10
77.6932
20
-59.9839
11
77.696
21
-59.9887
0
LINE
8
BLACK
6
CONTINUOUS
10
77.696
20
-59.9887
11
77.6989
21
-60.0051
0
LINE
8
BLACK
6
CONTINUOUS
10
77.6989
20
-60.0051
11
77.7032
21
-60.0211
0
LINE
8
BLACK
6
CONTINUOUS
10
77.7032
20
-60.0211
11
77.7027
21
-60.0267
0
LINE
8
BLACK
6
CONTINUOUS
10
77.7027
20
-60.0267
11
77.7037
21
-60.0322
0
LINE
8
BLACK
6
CONTINUOUS
10
77.7037
20
-60.0322
11
77.7037
21
-59.9871
0
LINE
8
BLACK
6
CONTINUOUS
10
77.7037
20
-59.9871
11
77.7023
21
-59.9801
0
LINE
8
BLACK
6
CONTINUOUS
10
77.4494
20
-59.5152
11
77.4483
21
-59.5046
0
LINE
8
BLACK
6
CONTINUOUS
10
77.4483
20
-59.5046
11
77.4489
21
-59.5103
0
LINE
8
BLACK
6
CONTINUOUS
10
77.4489
20
-59.5103
11
77.4484
21
-59.5173
0
LINE
8
BLACK
6
CONTINUOUS
10
77.4484
20
-59.5173
11
77.4497
21
-59.5243
0
LINE
8
BLACK
6
CONTINUOUS
10
77.4497
20
-59.5243
11
77.4497
21
-59.5194
0
LINE
8
BLACK
6
CONTINUOUS
10
77.4497
20
-59.5194
11
77.4494
21
-59.5152
0
LINE
8
BLACK
6
CONTINUOUS
10
79.8218
20
-60.5688
11
79.5218
21
-60.5688
0
LINE
8
BLACK
6
CONTINUOUS
10
79.5218
20
-60.5688
11
79.5218
21
-59.5688
0
LINE
8
BLACK
6
CONTINUOUS
10
79.5218
20
-59.5688
11
79.8218
21
-59.5688
0
LINE
8
BLACK
6
CONTINUOUS
10
79.8218
20
-59.5688
11
79.8218
21
-60.5688
0
LINE
8
BLACK
6
CONTINUOUS
10
62.8148
20
-56.5039
11
62.8214
21
-56.5039
0
LINE
8
BLACK
6
CONTINUOUS
10
62.8214
20
-56.5039
11
62.8277
21
-56.5061
0
LINE
8
BLACK
6
CONTINUOUS
10
62.8277
20
-56.5061
11
62.8344
21
-56.5073
0
LINE
8
BLACK
6
CONTINUOUS
10
62.8344
20
-56.5073
11
62.8401
21
-56.5106
0
LINE
8
BLACK
6
CONTINUOUS
10
62.8401
20
-56.5106
11
62.8463
21
-56.5129
0
LINE
8
BLACK
6
CONTINUOUS
10
62.8463
20
-56.5129
11
62.8514
21
-56.5172
0
LINE
8
BLACK
6
CONTINUOUS
10
62.8514
20
-56.5172
11
62.8573
21
-56.5205
0
LINE
8
BLACK
6
CONTINUOUS
10
62.8573
20
-56.5205
11
62.8615
21
-56.5256
0
LINE
8
BLACK
6
CONTINUOUS
10
62.8615
20
-56.5256
11
62.8666
21
-56.5298
0
LINE
8
BLACK
6
CONTINUOUS
10
62.8666
20
-56.5298
11
62.87
21
-56.5357
0
LINE
8
BLACK
6
CONTINUOUS
10
62.87
20
-56.5357
11
62.8743
21
-56.5408
0
LINE
8
BLACK
6
CONTINUOUS
10
62.8743
20
-56.5408
11
62.8765
21
-56.547
0
LINE
8
BLACK
6
CONTINUOUS
10
62.8765
20
-56.547
11
62.8799
21
-56.5527
0
LINE
8
BLACK
6
CONTINUOUS
10
62.8799
20
-56.5527
11
62.881
21
-56.5594
0
LINE
8
BLACK
6
CONTINUOUS
10
62.881
20
-56.5594
11
62.8833
21
-56.5657
0
LINE
8
BLACK
6
CONTINUOUS
10
62.8833
20
-56.5657
11
62.8833
21
-56.5723
0
LINE
8
BLACK
6
CONTINUOUS
10
62.8833
20
-56.5723
11
62.8845
21
-56.5788
0
LINE
8
BLACK
6
CONTINUOUS
10
62.8845
20
-56.5788
11
62.8874
21
-57.97
0
LINE
8
BLACK
6
CONTINUOUS
10
62.8874
20
-57.97
11
62.8862
21
-57.9769
0
LINE
8
BLACK
6
CONTINUOUS
10
62.8862
20
-57.9769
11
62.8862
21
-57.9838
0
LINE
8
BLACK
6
CONTINUOUS
10
62.8862
20
-57.9838
11
62.884
21
-57.9898
0
LINE
8
BLACK
6
CONTINUOUS
10
62.884
20
-57.9898
11
62.8829
21
-57.9961
0
LINE
8
BLACK
6
CONTINUOUS
10
62.8829
20
-57.9961
11
62.8794
21
-58.0021
0
LINE
8
BLACK
6
CONTINUOUS
10
62.8794
20
-58.0021
11
62.877
21
-58.0086
0
LINE
8
BLACK
6
CONTINUOUS
10
62.877
20
-58.0086
11
62.8706
21
-58.0197
0
LINE
8
BLACK
6
CONTINUOUS
10
62.8706
20
-58.0197
11
62.8189
21
-58.1692
0
LINE
8
BLACK
6
CONTINUOUS
10
62.8189
20
-58.1692
11
62.8037
21
-58.2803
0
LINE
8
BLACK
6
CONTINUOUS
10
62.8037
20
-58.2803
11
63.004
21
-58.2803
0
LINE
8
BLACK
6
CONTINUOUS
10
63.004
20
-58.2803
11
63.004
21
-58.2507
0
LINE
8
BLACK
6
CONTINUOUS
10
63.004
20
-58.2507
11
63.0764
21
-58.0519
0
LINE
8
BLACK
6
CONTINUOUS
10
63.0764
20
-58.0519
11
63.2124
21
-57.8898
0
LINE
8
BLACK
6
CONTINUOUS
10
63.2124
20
-57.8898
11
63.3956
21
-57.784
0
LINE
8
BLACK
6
CONTINUOUS
10
63.3956
20
-57.784
11
63.604
21
-57.7472
0
LINE
8
BLACK
6
CONTINUOUS
10
63.604
20
-57.7472
11
63.8124
21
-57.784
0
LINE
8
BLACK
6
CONTINUOUS
10
63.8124
20
-57.784
11
63.9956
21
-57.8898
0
LINE
8
BLACK
6
CONTINUOUS
10
63.9956
20
-57.8898
11
64.1316
21
-58.0519
0
LINE
8
BLACK
6
CONTINUOUS
10
64.1316
20
-58.0519
11
64.204
21
-58.2507
0
LINE
8
BLACK
6
CONTINUOUS
10
64.204
20
-58.2507
11
64.204
21
-58.4623
0
LINE
8
BLACK
6
CONTINUOUS
10
64.204
20
-58.4623
11
64.1316
21
-58.6611
0
LINE
8
BLACK
6
CONTINUOUS
10
64.1316
20
-58.6611
11
63.9956
21
-58.8232
0
LINE
8
BLACK
6
CONTINUOUS
10
63.9956
20
-58.8232
11
63.8124
21
-58.929
0
LINE
8
BLACK
6
CONTINUOUS
10
63.8124
20
-58.929
11
63.604
21
-58.9658
0
LINE
8
BLACK
6
CONTINUOUS
10
63.604
20
-58.9658
11
63.3956
21
-58.929
0
LINE
8
BLACK
6
CONTINUOUS
10
63.3956
20
-58.929
11
63.2124
21
-58.8232
0
LINE
8
BLACK
6
CONTINUOUS
10
63.2124
20
-58.8232
11
63.0764
21
-58.6611
0
LINE
8
BLACK
6
CONTINUOUS
10
63.0764
20
-58.6611
11
63.004
21
-58.4623
0
LINE
8
BLACK
6
CONTINUOUS
10
63.004
20
-58.4623
11
63.004
21
-58.4327
0
LINE
8
BLACK
6
CONTINUOUS
10
63.004
20
-58.4327
11
62.8039
21
-58.4327
0
LINE
8
BLACK
6
CONTINUOUS
10
62.8039
20
-58.4327
11
62.807
21
-58.4839
0
LINE
8
BLACK
6
CONTINUOUS
10
62.807
20
-58.4839
11
62.8472
21
-58.6369
0
LINE
8
BLACK
6
CONTINUOUS
10
62.8472
20
-58.6369
11
62.8814
21
-58.7071
0
LINE
8
BLACK
6
CONTINUOUS
10
62.8814
20
-58.7071
11
62.8824
21
-58.7108
0
LINE
8
BLACK
6
CONTINUOUS
10
62.8824
20
-58.7108
11
62.8844
21
-58.7142
0
LINE
8
BLACK
6
CONTINUOUS
10
62.8844
20
-58.7142
11
62.886
21
-58.7235
0
LINE
8
BLACK
6
CONTINUOUS
10
62.886
20
-58.7235
11
62.8886
21
-58.7325
0
LINE
8
BLACK
6
CONTINUOUS
10
62.8886
20
-58.7325
11
62.8884
21
-58.7364
0
LINE
8
BLACK
6
CONTINUOUS
10
62.8884
20
-58.7364
11
62.889
21
-58.7403
0
LINE
8
BLACK
6
CONTINUOUS
10
62.889
20
-58.7403
11
62.8904
21
-59.3889
0
LINE
8
BLACK
6
CONTINUOUS
10
62.8904
20
-59.3889
11
62.8905
21
-59.3946
0
LINE
8
BLACK
6
CONTINUOUS
10
62.8905
20
-59.3946
11
62.898
21
-59.6279
0
LINE
8
BLACK
6
CONTINUOUS
10
62.898
20
-59.6279
11
62.9109
21
-59.6875
0
LINE
8
BLACK
6
CONTINUOUS
10
62.9109
20
-59.6875
11
62.9441
21
-59.7369
0
LINE
8
BLACK
6
CONTINUOUS
10
62.9441
20
-59.7369
11
62.9931
21
-59.7695
0
LINE
8
BLACK
6
CONTINUOUS
10
62.9931
20
-59.7695
11
63.0584
21
-59.7823
0
LINE
8
BLACK
6
CONTINUOUS
10
63.0584
20
-59.7823
11
63.7003
21
-59.7807
0
LINE
8
BLACK
6
CONTINUOUS
10
63.7003
20
-59.7807
11
63.7037
21
-59.7813
0
LINE
8
BLACK
6
CONTINUOUS
10
63.7037
20
-59.7813
11
63.7071
21
-59.781
0
LINE
8
BLACK
6
CONTINUOUS
10
63.7071
20
-59.781
11
63.7166
21
-59.7836
0
LINE
8
BLACK
6
CONTINUOUS
10
63.7166
20
-59.7836
11
63.7264
21
-59.7853
0
LINE
8
BLACK
6
CONTINUOUS
10
63.7264
20
-59.7853
11
63.7293
21
-59.787
0
LINE
8
BLACK
6
CONTINUOUS
10
63.7293
20
-59.787
11
63.7327
21
-59.7879
0
LINE
8
BLACK
6
CONTINUOUS
10
63.7327
20
-59.7879
11
63.7408
21
-59.7935
0
LINE
8
BLACK
6
CONTINUOUS
10
63.7408
20
-59.7935
11
63.7493
21
-59.7985
0
LINE
8
BLACK
6
CONTINUOUS
10
63.7493
20
-59.7985
11
63.7515
21
-59.8011
0
LINE
8
BLACK
6
CONTINUOUS
10
63.7515
20
-59.8011
11
63.7544
21
-59.8031
0
LINE
8
BLACK
6
CONTINUOUS
10
63.7544
20
-59.8031
11
63.7769
21
-59.8256
0
LINE
8
BLACK
6
CONTINUOUS
10
63.7769
20
-59.8256
11
63.8673
21
-59.886
0
LINE
8
BLACK
6
CONTINUOUS
10
63.8673
20
-59.886
11
63.9679
21
-59.9277
0
LINE
8
BLACK
6
CONTINUOUS
10
63.9679
20
-59.9277
11
64.0746
21
-59.9489
0
LINE
8
BLACK
6
CONTINUOUS
10
64.0746
20
-59.9489
11
64.1834
21
-59.9489
0
LINE
8
BLACK
6
CONTINUOUS
10
64.1834
20
-59.9489
11
64.2901
21
-59.9277
0
LINE
8
BLACK
6
CONTINUOUS
10
64.2901
20
-59.9277
11
64.3907
21
-59.886
0
LINE
8
BLACK
6
CONTINUOUS
10
64.3907
20
-59.886
11
64.4811
21
-59.8256
0
LINE
8
BLACK
6
CONTINUOUS
10
64.4811
20
-59.8256
11
64.5057
21
-59.801
0
LINE
8
BLACK
6
CONTINUOUS
10
64.5057
20
-59.801
11
64.5084
21
-59.7991
0
LINE
8
BLACK
6
CONTINUOUS
10
64.5084
20
-59.7991
11
64.5105
21
-59.7966
0
LINE
8
BLACK
6
CONTINUOUS
10
64.5105
20
-59.7966
11
64.5192
21
-59.7916
0
LINE
8
BLACK
6
CONTINUOUS
10
64.5192
20
-59.7916
11
64.5274
21
-59.7858
0
LINE
8
BLACK
6
CONTINUOUS
10
64.5274
20
-59.7858
11
64.5306
21
-59.785
0
LINE
8
BLACK
6
CONTINUOUS
10
64.5306
20
-59.785
11
64.5334
21
-59.7833
0
LINE
8
BLACK
6
CONTINUOUS
10
64.5334
20
-59.7833
11
64.5433
21
-59.7816
0
LINE
8
BLACK
6
CONTINUOUS
10
64.5433
20
-59.7816
11
64.553
21
-59.779
0
LINE
8
BLACK
6
CONTINUOUS
10
64.553
20
-59.779
11
64.5562
21
-59.7792
0
LINE
8
BLACK
6
CONTINUOUS
10
64.5562
20
-59.7792
11
64.5594
21
-59.7787
0
LINE
8
BLACK
6
CONTINUOUS
10
64.5594
20
-59.7787
11
64.5898
21
-59.7786
0
LINE
8
BLACK
6
CONTINUOUS
10
64.5898
20
-59.7786
11
64.5966
21
-59.7798
0
LINE
8
BLACK
6
CONTINUOUS
10
64.5966
20
-59.7798
11
64.6036
21
-59.7798
0
LINE
8
BLACK
6
CONTINUOUS
10
64.6036
20
-59.7798
11
64.6096
21
-59.782
0
LINE
8
BLACK
6
CONTINUOUS
10
64.6096
20
-59.782
11
64.6158
21
-59.7831
0
LINE
8
BLACK
6
CONTINUOUS
10
64.6158
20
-59.7831
11
64.6219
21
-59.7866
0
LINE
8
BLACK
6
CONTINUOUS
10
64.6219
20
-59.7866
11
64.6284
21
-59.789
0
LINE
8
BLACK
6
CONTINUOUS
10
64.6284
20
-59.789
11
64.6333
21
-59.7931
0
LINE
8
BLACK
6
CONTINUOUS
10
64.6333
20
-59.7931
11
64.6388
21
-59.7963
0
LINE
8
BLACK
6
CONTINUOUS
10
64.6388
20
-59.7963
11
64.6433
21
-59.8016
0
LINE
8
BLACK
6
CONTINUOUS
10
64.6433
20
-59.8016
11
64.6486
21
-59.8062
0
LINE
8
BLACK
6
CONTINUOUS
10
64.6486
20
-59.8062
11
64.6517
21
-59.8117
0
LINE
8
BLACK
6
CONTINUOUS
10
64.6517
20
-59.8117
11
64.6558
21
-59.8165
0
LINE
8
BLACK
6
CONTINUOUS
10
64.6558
20
-59.8165
11
64.6582
21
-59.8231
0
LINE
8
BLACK
6
CONTINUOUS
10
64.6582
20
-59.8231
11
64.6617
21
-59.8291
0
LINE
8
BLACK
6
CONTINUOUS
10
64.6617
20
-59.8291
11
64.6628
21
-59.8354
0
LINE
8
BLACK
6
CONTINUOUS
10
64.6628
20
-59.8354
11
64.665
21
-59.8414
0
LINE
8
BLACK
6
CONTINUOUS
10
64.665
20
-59.8414
11
64.665
21
-59.8484
0
LINE
8
BLACK
6
CONTINUOUS
10
64.665
20
-59.8484
11
64.6661
21
-59.8552
0
LINE
8
BLACK
6
CONTINUOUS
10
64.6661
20
-59.8552
11
64.6653
21
-59.9997
0
LINE
8
BLACK
6
CONTINUOUS
10
64.6653
20
-59.9997
11
64.6647
21
-60.0031
0
LINE
8
BLACK
6
CONTINUOUS
10
64.6647
20
-60.0031
11
64.665
21
-60.0066
0
LINE
8
BLACK
6
CONTINUOUS
10
64.665
20
-60.0066
11
64.6567
21
-60.0921
0
LINE
8
BLACK
6
CONTINUOUS
10
64.6567
20
-60.0921
11
64.6639
21
-60.1641
0
LINE
8
BLACK
6
CONTINUOUS
10
64.6639
20
-60.1641
11
64.6636
21
-60.1681
0
LINE
8
BLACK
6
CONTINUOUS
10
64.6636
20
-60.1681
11
64.6643
21
-60.1721
0
LINE
8
BLACK
6
CONTINUOUS
10
64.6643
20
-60.1721
11
64.6543
21
-61.9222
0
LINE
8
BLACK
6
CONTINUOUS
10
64.6543
20
-61.9222
11
64.6531
21
-61.9285
0
LINE
8
BLACK
6
CONTINUOUS
10
64.6531
20
-61.9285
11
64.6531
21
-61.935
0
LINE
8
BLACK
6
CONTINUOUS
10
64.6531
20
-61.935
11
64.6508
21
-61.9414
0
LINE
8
BLACK
6
CONTINUOUS
10
64.6508
20
-61.9414
11
64.6496
21
-61.9482
0
LINE
8
BLACK
6
CONTINUOUS
10
64.6496
20
-61.9482
11
64.6463
21
-61.9538
0
LINE
8
BLACK
6
CONTINUOUS
10
64.6463
20
-61.9538
11
64.6441
21
-61.9598
0
LINE
8
BLACK
6
CONTINUOUS
10
64.6441
20
-61.9598
11
64.6397
21
-61.9651
0
LINE
8
BLACK
6
CONTINUOUS
10
64.6397
20
-61.9651
11
64.6362
21
-61.971
0
LINE
8
BLACK
6
CONTINUOUS
10
64.6362
20
-61.971
11
64.6312
21
-61.9752
0
LINE
8
BLACK
6
CONTINUOUS
10
64.6312
20
-61.9752
11
64.6271
21
-61.9801
0
LINE
8
BLACK
6
CONTINUOUS
10
64.6271
20
-61.9801
11
64.6211
21
-61.9835
0
LINE
8
BLACK
6
CONTINUOUS
10
64.6211
20
-61.9835
11
64.6158
21
-61.9879
0
LINE
8
BLACK
6
CONTINUOUS
10
64.6158
20
-61.9879
11
64.6098
21
-61.9901
0
LINE
8
BLACK
6
CONTINUOUS
10
64.6098
20
-61.9901
11
64.6042
21
-61.9933
0
LINE
8
BLACK
6
CONTINUOUS
10
64.6042
20
-61.9933
11
64.5974
21
-61.9945
0
LINE
8
BLACK
6
CONTINUOUS
10
64.5974
20
-61.9945
11
64.5909
21
-61.9968
0
LINE
8
BLACK
6
CONTINUOUS
10
64.5909
20
-61.9968
11
64.5845
21
-61.9968
0
LINE
8
BLACK
6
CONTINUOUS
10
64.5845
20
-61.9968
11
64.5781
21
-61.9979
0
LINE
8
BLACK
6
CONTINUOUS
10
64.5781
20
-61.9979
11
60.7258
21
-61.9979
0
LINE
8
BLACK
6
CONTINUOUS
10
60.7258
20
-61.9979
11
60.7193
21
-61.9968
0
LINE
8
BLACK
6
CONTINUOUS
10
60.7193
20
-61.9968
11
60.7126
21
-61.9968
0
LINE
8
BLACK
6
CONTINUOUS
10
60.7126
20
-61.9968
11
60.7063
21
-61.9945
0
LINE
8
BLACK
6
CONTINUOUS
10
60.7063
20
-61.9945
11
60.6998
21
-61.9933
0
LINE
8
BLACK
6
CONTINUOUS
10
60.6998
20
-61.9933
11
60.694
21
-61.99
0
LINE
8
BLACK
6
CONTINUOUS
10
60.694
20
-61.99
11
60.6877
21
-61.9877
0
LINE
8
BLACK
6
CONTINUOUS
10
60.6877
20
-61.9877
11
60.6826
21
-61.9834
0
LINE
8
BLACK
6
CONTINUOUS
10
60.6826
20
-61.9834
11
60.6768
21
-61.9801
0
LINE
8
BLACK
6
CONTINUOUS
10
60.6768
20
-61.9801
11
60.6726
21
-61.975
0
LINE
8
BLACK
6
CONTINUOUS
10
60.6726
20
-61.975
11
60.6674
21
-61.9707
0
LINE
8
BLACK
6
CONTINUOUS
10
60.6674
20
-61.9707
11
60.6641
21
-61.9649
0
LINE
8
BLACK
6
CONTINUOUS
10
60.6641
20
-61.9649
11
60.6598
21
-61.9598
0
LINE
8
BLACK
6
CONTINUOUS
10
60.6598
20
-61.9598
11
60.6576
21
-61.9536
0
LINE
8
BLACK
6
CONTINUOUS
10
60.6576
20
-61.9536
11
60.6542
21
-61.9478
0
LINE
8
BLACK
6
CONTINUOUS
10
60.6542
20
-61.9478
11
60.6531
21
-61.9412
0
LINE
8
BLACK
6
CONTINUOUS
10
60.6531
20
-61.9412
11
60.6508
21
-61.935
0
LINE
8
BLACK
6
CONTINUOUS
10
60.6508
20
-61.935
11
60.6508
21
-61.9283
0
LINE
8
BLACK
6
CONTINUOUS
10
60.6508
20
-61.9283
11
60.6496
21
-61.9217
0
LINE
8
BLACK
6
CONTINUOUS
10
60.6496
20
-61.9217
11
60.6496
21
-56.5789
0
LINE
8
BLACK
6
CONTINUOUS
10
60.6496
20
-56.5789
11
60.6508
21
-56.5724
0
LINE
8
BLACK
6
CONTINUOUS
10
60.6508
20
-56.5724
11
60.6508
21
-56.5657
0
LINE
8
BLACK
6
CONTINUOUS
10
60.6508
20
-56.5657
11
60.6531
21
-56.5594
0
LINE
8
BLACK
6
CONTINUOUS
10
60.6531
20
-56.5594
11
60.6542
21
-56.5529
0
LINE
8
BLACK
6
CONTINUOUS
10
60.6542
20
-56.5529
11
60.6576
21
-56.5471
0
LINE
8
BLACK
6
CONTINUOUS
10
60.6576
20
-56.5471
11
60.6598
21
-56.5408
0
LINE
8
BLACK
6
CONTINUOUS
10
60.6598
20
-56.5408
11
60.6641
21
-56.5357
0
LINE
8
BLACK
6
CONTINUOUS
10
60.6641
20
-56.5357
11
60.6674
21
-56.5299
0
LINE
8
BLACK
6
CONTINUOUS
10
60.6674
20
-56.5299
11
60.6726
21
-56.5257
0
LINE
8
BLACK
6
CONTINUOUS
10
60.6726
20
-56.5257
11
60.6768
21
-56.5205
0
LINE
8
BLACK
6
CONTINUOUS
10
60.6768
20
-56.5205
11
60.6826
21
-56.5172
0
LINE
8
BLACK
6
CONTINUOUS
10
60.6826
20
-56.5172
11
60.6877
21
-56.5129
0
LINE
8
BLACK
6
CONTINUOUS
10
60.6877
20
-56.5129
11
60.694
21
-56.5107
0
LINE
8
BLACK
6
CONTINUOUS
10
60.694
20
-56.5107
11
60.6998
21
-56.5073
0
LINE
8
BLACK
6
CONTINUOUS
10
60.6998
20
-56.5073
11
60.7063
21
-56.5062
0
LINE
8
BLACK
6
CONTINUOUS
10
60.7063
20
-56.5062
11
60.7126
21
-56.5039
0
LINE
8
BLACK
6
CONTINUOUS
10
60.7126
20
-56.5039
11
60.7193
21
-56.5039
0
LINE
8
BLACK
6
CONTINUOUS
10
60.7193
20
-56.5039
11
60.7258
21
-56.5027
0
LINE
8
BLACK
6
CONTINUOUS
10
60.7258
20
-56.5027
11
62.8083
21
-56.5027
0
LINE
8
BLACK
6
CONTINUOUS
10
62.8083
20
-56.5027
11
62.8148
21
-56.5039
0
LINE
8
BLACK
6
CONTINUOUS
10
67.161
20
-61.4536
11
67.1513
21
-61.451
0
LINE
8
BLACK
6
CONTINUOUS
10
67.1513
20
-61.451
11
67.1413
21
-61.4493
0
LINE
8
BLACK
6
CONTINUOUS
10
67.1413
20
-61.4493
11
67.1383
21
-61.4476
0
LINE
8
BLACK
6
CONTINUOUS
10
67.1383
20
-61.4476
11
67.1351
21
-61.4467
0
LINE
8
BLACK
6
CONTINUOUS
10
67.1351
20
-61.4467
11
67.1268
21
-61.4409
0
LINE
8
BLACK
6
CONTINUOUS
10
67.1268
20
-61.4409
11
67.118
21
-61.4358
0
LINE
8
BLACK
6
CONTINUOUS
10
67.118
20
-61.4358
11
67.1115
21
-61.4281
0
LINE
8
BLACK
6
CONTINUOUS
10
67.1115
20
-61.4281
11
66.687
21
-61.0035
0
LINE
8
BLACK
6
CONTINUOUS
10
66.687
20
-61.0035
11
66.6792
21
-60.997
0
LINE
8
BLACK
6
CONTINUOUS
10
66.6792
20
-60.997
11
66.6742
21
-60.9883
0
LINE
8
BLACK
6
CONTINUOUS
10
66.6742
20
-60.9883
11
66.6684
21
-60.98
0
LINE
8
BLACK
6
CONTINUOUS
10
66.6684
20
-60.98
11
66.6675
21
-60.9767
0
LINE
8
BLACK
6
CONTINUOUS
10
66.6675
20
-60.9767
11
66.6658
21
-60.9738
0
LINE
8
BLACK
6
CONTINUOUS
10
66.6658
20
-60.9738
11
66.664
21
-60.9638
0
LINE
8
BLACK
6
CONTINUOUS
10
66.664
20
-60.9638
11
66.6614
21
-60.954
0
LINE
8
BLACK
6
CONTINUOUS
10
66.6614
20
-60.954
11
66.6623
21
-60.944
0
LINE
8
BLACK
6
CONTINUOUS
10
66.6623
20
-60.944
11
66.6623
21
-60.9306
0
LINE
8
BLACK
6
CONTINUOUS
10
66.6623
20
-60.9306
11
66.2275
21
-60.4958
0
LINE
8
BLACK
6
CONTINUOUS
10
66.2275
20
-60.4958
11
66.2197
21
-60.4893
0
LINE
8
BLACK
6
CONTINUOUS
10
66.2197
20
-60.4893
11
66.2147
21
-60.4805
0
LINE
8
BLACK
6
CONTINUOUS
10
66.2147
20
-60.4805
11
66.2089
21
-60.4722
0
LINE
8
BLACK
6
CONTINUOUS
10
66.2089
20
-60.4722
11
66.208
21
-60.469
0
LINE
8
BLACK
6
CONTINUOUS
10
66.208
20
-60.469
11
66.2063
21
-60.466
0
LINE
8
BLACK
6
CONTINUOUS
10
66.2063
20
-60.466
11
66.2045
21
-60.4561
0
LINE
8
BLACK
6
CONTINUOUS
10
66.2045
20
-60.4561
11
66.2019
21
-60.4463
0
LINE
8
BLACK
6
CONTINUOUS
10
66.2019
20
-60.4463
11
66.2028
21
-60.4362
0
LINE
8
BLACK
6
CONTINUOUS
10
66.2028
20
-60.4362
11
66.2028
21
-58.6513
0
LINE
8
BLACK
6
CONTINUOUS
10
66.2028
20
-58.6513
11
66.1611
21
-58.6402
0
LINE
8
BLACK
6
CONTINUOUS
10
66.1611
20
-58.6402
11
66.0528
21
-58.5643
0
LINE
8
BLACK
6
CONTINUOUS
10
66.0528
20
-58.5643
11
65.9769
21
-58.456
0
LINE
8
BLACK
6
CONTINUOUS
10
65.9769
20
-58.456
11
65.9427
21
-58.3282
0
LINE
8
BLACK
6
CONTINUOUS
10
65.9427
20
-58.3282
11
65.9542
21
-58.1965
0
LINE
8
BLACK
6
CONTINUOUS
10
65.9542
20
-58.1965
11
65.996
21
-58.1068
0
LINE
8
BLACK
6
CONTINUOUS
10
65.996
20
-58.1068
11
66.1197
21
-57.9302
0
LINE
8
BLACK
6
CONTINUOUS
10
66.1197
20
-57.9302
11
66.1896
21
-57.8603
0
LINE
8
BLACK
6
CONTINUOUS
10
66.1896
20
-57.8603
11
66.3095
21
-57.8044
0
LINE
8
BLACK
6
CONTINUOUS
10
66.3095
20
-57.8044
11
66.4412
21
-57.7929
0
LINE
8
BLACK
6
CONTINUOUS
10
66.4412
20
-57.7929
11
66.569
21
-57.8271
0
LINE
8
BLACK
6
CONTINUOUS
10
66.569
20
-57.8271
11
66.6773
21
-57.9029
0
LINE
8
BLACK
6
CONTINUOUS
10
66.6773
20
-57.9029
11
66.7532
21
-58.0113
0
LINE
8
BLACK
6
CONTINUOUS
10
66.7532
20
-58.0113
11
66.7874
21
-58.139
0
LINE
8
BLACK
6
CONTINUOUS
10
66.7874
20
-58.139
11
66.7759
21
-58.2707
0
LINE
8
BLACK
6
CONTINUOUS
10
66.7759
20
-58.2707
11
66.734
21
-58.3604
0
LINE
8
BLACK
6
CONTINUOUS
10
66.734
20
-58.3604
11
66.6104
21
-58.537
0
LINE
8
BLACK
6
CONTINUOUS
10
66.6104
20
-58.537
11
66.5404
21
-58.607
0
LINE
8
BLACK
6
CONTINUOUS
10
66.5404
20
-58.607
11
66.4206
21
-58.6629
0
LINE
8
BLACK
6
CONTINUOUS
10
66.4206
20
-58.6629
11
66.3552
21
-58.6686
0
LINE
8
BLACK
6
CONTINUOUS
10
66.3552
20
-58.6686
11
66.3552
21
-60.408
0
LINE
8
BLACK
6
CONTINUOUS
10
66.3552
20
-60.408
11
66.79
21
-60.8428
0
LINE
8
BLACK
6
CONTINUOUS
10
66.79
20
-60.8428
11
66.7978
21
-60.8493
0
LINE
8
BLACK
6
CONTINUOUS
10
66.7978
20
-60.8493
11
66.8028
21
-60.8581
0
LINE
8
BLACK
6
CONTINUOUS
10
66.8028
20
-60.8581
11
66.8086
21
-60.8663
0
LINE
8
BLACK
6
CONTINUOUS
10
66.8086
20
-60.8663
11
66.8095
21
-60.8696
0
LINE
8
BLACK
6
CONTINUOUS
10
66.8095
20
-60.8696
11
66.8112
21
-60.8726
0
LINE
8
BLACK
6
CONTINUOUS
10
66.8112
20
-60.8726
11
66.813
21
-60.8825
0
LINE
8
BLACK
6
CONTINUOUS
10
66.813
20
-60.8825
11
66.8156
21
-60.8923
0
LINE
8
BLACK
6
CONTINUOUS
10
66.8156
20
-60.8923
11
66.8147
21
-60.9024
0
LINE
8
BLACK
6
CONTINUOUS
10
66.8147
20
-60.9024
11
66.8147
21
-60.9157
0
LINE
8
BLACK
6
CONTINUOUS
10
66.8147
20
-60.9157
11
67.1993
21
-61.3004
0
LINE
8
BLACK
6
CONTINUOUS
10
67.1993
20
-61.3004
11
72.5941
21
-61.3004
0
LINE
8
BLACK
6
CONTINUOUS
10
72.5941
20
-61.3004
11
72.5975
21
-61.2975
0
LINE
8
BLACK
6
CONTINUOUS
10
72.5975
20
-61.2975
11
72.5983
21
-61.2967
0
LINE
8
BLACK
6
CONTINUOUS
10
72.5983
20
-61.2967
11
72.6048
21
-61.2889
0
LINE
8
BLACK
6
CONTINUOUS
10
72.6048
20
-61.2889
11
72.6136
21
-61.2839
0
LINE
8
BLACK
6
CONTINUOUS
10
72.6136
20
-61.2839
11
72.6219
21
-61.2781
0
LINE
8
BLACK
6
CONTINUOUS
10
72.6219
20
-61.2781
11
72.6252
21
-61.2772
0
LINE
8
BLACK
6
CONTINUOUS
10
72.6252
20
-61.2772
11
72.6281
21
-61.2755
0
LINE
8
BLACK
6
CONTINUOUS
10
72.6281
20
-61.2755
11
72.638
21
-61.2737
0
LINE
8
BLACK
6
CONTINUOUS
10
72.638
20
-61.2737
11
72.6478
21
-61.2711
0
LINE
8
BLACK
6
CONTINUOUS
10
72.6478
20
-61.2711
11
72.6579
21
-61.272
0
LINE
8
BLACK
6
CONTINUOUS
10
72.6579
20
-61.272
11
72.7511
21
-61.272
0
LINE
8
BLACK
6
CONTINUOUS
10
72.7511
20
-61.272
11
72.7709
21
-61.2755
0
LINE
8
BLACK
6
CONTINUOUS
10
72.7709
20
-61.2755
11
72.7942
21
-61.2889
0
LINE
8
BLACK
6
CONTINUOUS
10
72.7942
20
-61.2889
11
72.8038
21
-61.3004
0
LINE
8
BLACK
6
CONTINUOUS
10
72.8038
20
-61.3004
11
74.8621
21
-61.3004
0
LINE
8
BLACK
6
CONTINUOUS
10
74.8621
20
-61.3004
11
77.2606
21
-58.9019
0
LINE
8
BLACK
6
CONTINUOUS
10
77.2606
20
-58.9019
11
77.2671
21
-58.8941
0
LINE
8
BLACK
6
CONTINUOUS
10
77.2671
20
-58.8941
11
77.2759
21
-58.8891
0
LINE
8
BLACK
6
CONTINUOUS
10
77.2759
20
-58.8891
11
77.2842
21
-58.8833
0
LINE
8
BLACK
6
CONTINUOUS
10
77.2842
20
-58.8833
11
77.2875
21
-58.8824
0
LINE
8
BLACK
6
CONTINUOUS
10
77.2875
20
-58.8824
11
77.2904
21
-58.8807
0
LINE
8
BLACK
6
CONTINUOUS
10
77.2904
20
-58.8807
11
77.3004
21
-58.8789
0
LINE
8
BLACK
6
CONTINUOUS
10
77.3004
20
-58.8789
11
77.3101
21
-58.8763
0
LINE
8
BLACK
6
CONTINUOUS
10
77.3101
20
-58.8763
11
77.3202
21
-58.8772
0
LINE
8
BLACK
6
CONTINUOUS
10
77.3202
20
-58.8772
11
77.5146
21
-58.8772
0
LINE
8
BLACK
6
CONTINUOUS
10
77.5146
20
-58.8772
11
77.8964
21
-58.4955
0
LINE
8
BLACK
6
CONTINUOUS
10
77.8964
20
-58.4955
11
77.9029
21
-58.4877
0
LINE
8
BLACK
6
CONTINUOUS
10
77.9029
20
-58.4877
11
77.9116
21
-58.4827
0
LINE
8
BLACK
6
CONTINUOUS
10
77.9116
20
-58.4827
11
77.9199
21
-58.4769
0
LINE
8
BLACK
6
CONTINUOUS
10
77.9199
20
-58.4769
11
77.9232
21
-58.476
0
LINE
8
BLACK
6
CONTINUOUS
10
77.9232
20
-58.476
11
77.9261
21
-58.4743
0
LINE
8
BLACK
6
CONTINUOUS
10
77.9261
20
-58.4743
11
77.9361
21
-58.4725
0
LINE
8
BLACK
6
CONTINUOUS
10
77.9361
20
-58.4725
11
77.9459
21
-58.4699
0
LINE
8
BLACK
6
CONTINUOUS
10
77.9459
20
-58.4699
11
77.9559
21
-58.4708
0
LINE
8
BLACK
6
CONTINUOUS
10
77.9559
20
-58.4708
11
78.2258
21
-58.4708
0
LINE
8
BLACK
6
CONTINUOUS
10
78.2258
20
-58.4708
11
78.3844
21
-58.3122
0
LINE
8
BLACK
6
CONTINUOUS
10
78.3844
20
-58.3122
11
78.3844
21
-57.7688
0
LINE
8
BLACK
6
CONTINUOUS
10
78.3844
20
-57.7688
11
78.2318
21
-57.7688
0
LINE
8
BLACK
6
CONTINUOUS
10
78.2318
20
-57.7688
11
78.2318
21
-56.8688
0
LINE
8
BLACK
6
CONTINUOUS
10
78.2318
20
-56.8688
11
78.5318
21
-56.8688
0
LINE
8
BLACK
6
CONTINUOUS
10
78.5318
20
-56.8688
11
78.5318
21
-57.4685
0
LINE
8
BLACK
6
CONTINUOUS
10
78.5318
20
-57.4685
11
78.5333
21
-57.4711
0
LINE
8
BLACK
6
CONTINUOUS
10
78.5333
20
-57.4711
11
78.5351
21
-57.4811
0
LINE
8
BLACK
6
CONTINUOUS
10
78.5351
20
-57.4811
11
78.5377
21
-57.4909
0
LINE
8
BLACK
6
CONTINUOUS
10
78.5377
20
-57.4909
11
78.5368
21
-57.5009
0
LINE
8
BLACK
6
CONTINUOUS
10
78.5368
20
-57.5009
11
78.5368
21
-58.3405
0
LINE
8
BLACK
6
CONTINUOUS
10
78.5368
20
-58.3405
11
78.5377
21
-58.3505
0
LINE
8
BLACK
6
CONTINUOUS
10
78.5377
20
-58.3505
11
78.5351
21
-58.3603
0
LINE
8
BLACK
6
CONTINUOUS
10
78.5351
20
-58.3603
11
78.5333
21
-58.3703
0
LINE
8
BLACK
6
CONTINUOUS
10
78.5333
20
-58.3703
11
78.5316
21
-58.3732
0
LINE
8
BLACK
6
CONTINUOUS
10
78.5316
20
-58.3732
11
78.5307
21
-58.3765
0
LINE
8
BLACK
6
CONTINUOUS
10
78.5307
20
-58.3765
11
78.5249
21
-58.3848
0
LINE
8
BLACK
6
CONTINUOUS
10
78.5249
20
-58.3848
11
78.5199
21
-58.3935
0
LINE
8
BLACK
6
CONTINUOUS
10
78.5199
20
-58.3935
11
78.5121
21
-58.4
0
LINE
8
BLACK
6
CONTINUOUS
10
78.5121
20
-58.4
11
78.3136
21
-58.5985
0
LINE
8
BLACK
6
CONTINUOUS
10
78.3136
20
-58.5985
11
78.3071
21
-58.6063
0
LINE
8
BLACK
6
CONTINUOUS
10
78.3071
20
-58.6063
11
78.2984
21
-58.6113
0
LINE
8
BLACK
6
CONTINUOUS
10
78.2984
20
-58.6113
11
78.2901
21
-58.6171
0
LINE
8
BLACK
6
CONTINUOUS
10
78.2901
20
-58.6171
11
78.2868
21
-58.618
0
LINE
8
BLACK
6
CONTINUOUS
10
78.2868
20
-58.618
11
78.2839
21
-58.6197
0
LINE
8
BLACK
6
CONTINUOUS
10
78.2839
20
-58.6197
11
78.2739
21
-58.6215
0
LINE
8
BLACK
6
CONTINUOUS
10
78.2739
20
-58.6215
11
78.2641
21
-58.6241
0
LINE
8
BLACK
6
CONTINUOUS
10
78.2641
20
-58.6241
11
78.2541
21
-58.6232
0
LINE
8
BLACK
6
CONTINUOUS
10
78.2541
20
-58.6232
11
77.9842
21
-58.6232
0
LINE
8
BLACK
6
CONTINUOUS
10
77.9842
20
-58.6232
11
77.6024
21
-59.0049
0
LINE
8
BLACK
6
CONTINUOUS
10
77.6024
20
-59.0049
11
77.5959
21
-59.0127
0
LINE
8
BLACK
6
CONTINUOUS
10
77.5959
20
-59.0127
11
77.5872
21
-59.0177
0
LINE
8
BLACK
6
CONTINUOUS
10
77.5872
20
-59.0177
11
77.5789
21
-59.0235
0
LINE
8
BLACK
6
CONTINUOUS
10
77.5789
20
-59.0235
11
77.5756
21
-59.0244
0
LINE
8
BLACK
6
CONTINUOUS
10
77.5756
20
-59.0244
11
77.5727
21
-59.0261
0
LINE
8
BLACK
6
CONTINUOUS
10
77.5727
20
-59.0261
11
77.5627
21
-59.0279
0
LINE
8
BLACK
6
CONTINUOUS
10
77.5627
20
-59.0279
11
77.5529
21
-59.0305
0
LINE
8
BLACK
6
CONTINUOUS
10
77.5529
20
-59.0305
11
77.5429
21
-59.0296
0
LINE
8
BLACK
6
CONTINUOUS
10
77.5429
20
-59.0296
11
77.3484
21
-59.0296
0
LINE
8
BLACK
6
CONTINUOUS
10
77.3484
20
-59.0296
11
74.9499
21
-61.4281
0
LINE
8
BLACK
6
CONTINUOUS
10
74.9499
20
-61.4281
11
74.9434
21
-61.4358
0
LINE
8
BLACK
6
CONTINUOUS
10
74.9434
20
-61.4358
11
74.9347
21
-61.4409
0
LINE
8
BLACK
6
CONTINUOUS
10
74.9347
20
-61.4409
11
74.9264
21
-61.4467
0
LINE
8
BLACK
6
CONTINUOUS
10
74.9264
20
-61.4467
11
74.9231
21
-61.4476
0
LINE
8
BLACK
6
CONTINUOUS
10
74.9231
20
-61.4476
11
74.9202
21
-61.4493
0
LINE
8
BLACK
6
CONTINUOUS
10
74.9202
20
-61.4493
11
74.9102
21
-61.451
0
LINE
8
BLACK
6
CONTINUOUS
10
74.9102
20
-61.451
11
74.9004
21
-61.4536
0
LINE
8
BLACK
6
CONTINUOUS
10
74.9004
20
-61.4536
11
74.8904
21
-61.4528
0
LINE
8
BLACK
6
CONTINUOUS
10
74.8904
20
-61.4528
11
67.1711
21
-61.4528
0
LINE
8
BLACK
6
CONTINUOUS
10
67.1711
20
-61.4528
11
67.161
21
-61.4536
0
LINE
8
BLACK
6
CONTINUOUS
10
77.5318
20
-57.7688
11
77.4192
21
-57.7688
0
LINE
8
BLACK
6
CONTINUOUS
10
77.4192
20
-57.7688
11
77.4192
21
-58.4929
0
LINE
8
BLACK
6
CONTINUOUS
10
77.4192
20
-58.4929
11
77.4201
21
-58.5029
0
LINE
8
BLACK
6
CONTINUOUS
10
77.4201
20
-58.5029
11
77.4175
21
-58.5127
0
LINE
8
BLACK
6
CONTINUOUS
10
77.4175
20
-58.5127
11
77.4157
21
-58.5227
0
LINE
8
BLACK
6
CONTINUOUS
10
77.4157
20
-58.5227
11
77.414
21
-58.5256
0
LINE
8
BLACK
6
CONTINUOUS
10
77.414
20
-58.5256
11
77.4131
21
-58.5289
0
LINE
8
BLACK
6
CONTINUOUS
10
77.4131
20
-58.5289
11
77.4073
21
-58.5372
0
LINE
8
BLACK
6
CONTINUOUS
10
77.4073
20
-58.5372
11
77.4023
21
-58.5459
0
LINE
8
BLACK
6
CONTINUOUS
10
77.4023
20
-58.5459
11
77.3945
21
-58.5524
0
LINE
8
BLACK
6
CONTINUOUS
10
77.3945
20
-58.5524
11
74.852
21
-61.0949
0
LINE
8
BLACK
6
CONTINUOUS
10
74.852
20
-61.0949
11
74.8455
21
-61.1027
0
LINE
8
BLACK
6
CONTINUOUS
10
74.8455
20
-61.1027
11
74.8368
21
-61.1077
0
LINE
8
BLACK
6
CONTINUOUS
10
74.8368
20
-61.1077
11
74.8285
21
-61.1135
0
LINE
8
BLACK
6
CONTINUOUS
10
74.8285
20
-61.1135
11
74.8252
21
-61.1144
0
LINE
8
BLACK
6
CONTINUOUS
10
74.8252
20
-61.1144
11
74.8223
21
-61.1161
0
LINE
8
BLACK
6
CONTINUOUS
10
74.8223
20
-61.1161
11
74.8123
21
-61.1179
0
LINE
8
BLACK
6
CONTINUOUS
10
74.8123
20
-61.1179
11
74.8025
21
-61.1205
0
LINE
8
BLACK
6
CONTINUOUS
10
74.8025
20
-61.1205
11
74.7925
21
-61.1196
0
LINE
8
BLACK
6
CONTINUOUS
10
74.7925
20
-61.1196
11
67.269
21
-61.1196
0
LINE
8
BLACK
6
CONTINUOUS
10
67.269
20
-61.1196
11
67.2589
21
-61.1205
0
LINE
8
BLACK
6
CONTINUOUS
10
67.2589
20
-61.1205
11
67.2492
21
-61.1179
0
LINE
8
BLACK
6
CONTINUOUS
10
67.2492
20
-61.1179
11
67.2392
21
-61.1161
0
LINE
8
BLACK
6
CONTINUOUS
10
67.2392
20
-61.1161
11
67.2363
21
-61.1144
0
LINE
8
BLACK
6
CONTINUOUS
10
67.2363
20
-61.1144
11
67.233
21
-61.1135
0
LINE
8
BLACK
6
CONTINUOUS
10
67.233
20
-61.1135
11
67.2247
21
-61.1077
0
LINE
8
BLACK
6
CONTINUOUS
10
67.2247
20
-61.1077
11
67.2159
21
-61.1027
0
LINE
8
BLACK
6
CONTINUOUS
10
67.2159
20
-61.1027
11
67.2094
21
-61.0949
0
LINE
8
BLACK
6
CONTINUOUS
10
67.2094
20
-61.0949
11
66.9918
21
-60.8773
0
LINE
8
BLACK
6
CONTINUOUS
10
66.9918
20
-60.8773
11
66.984
21
-60.8708
0
LINE
8
BLACK
6
CONTINUOUS
10
66.984
20
-60.8708
11
66.979
21
-60.862
0
LINE
8
BLACK
6
CONTINUOUS
10
66.979
20
-60.862
11
66.9732
21
-60.8537
0
LINE
8
BLACK
6
CONTINUOUS
10
66.9732
20
-60.8537
11
66.9723
21
-60.8505
0
LINE
8
BLACK
6
CONTINUOUS
10
66.9723
20
-60.8505
11
66.9706
21
-60.8475
0
LINE
8
BLACK
6
CONTINUOUS
10
66.9706
20
-60.8475
11
66.9688
21
-60.8376
0
LINE
8
BLACK
6
CONTINUOUS
10
66.9688
20
-60.8376
11
66.9662
21
-60.8278
0
LINE
8
BLACK
6
CONTINUOUS
10
66.9662
20
-60.8278
11
66.9671
21
-60.8177
0
LINE
8
BLACK
6
CONTINUOUS
10
66.9671
20
-60.8177
11
66.9671
21
-60.8043
0
LINE
8
BLACK
6
CONTINUOUS
10
66.9671
20
-60.8043
11
66.5323
21
-60.3695
0
LINE
8
BLACK
6
CONTINUOUS
10
66.5323
20
-60.3695
11
66.5245
21
-60.363
0
LINE
8
BLACK
6
CONTINUOUS
10
66.5245
20
-60.363
11
66.5195
21
-60.3543
0
LINE
8
BLACK
6
CONTINUOUS
10
66.5195
20
-60.3543
11
66.5137
21
-60.346
0
LINE
8
BLACK
6
CONTINUOUS
10
66.5137
20
-60.346
11
66.5128
21
-60.3427
0
LINE
8
BLACK
6
CONTINUOUS
10
66.5128
20
-60.3427
11
66.5111
21
-60.3397
0
LINE
8
BLACK
6
CONTINUOUS
10
66.5111
20
-60.3397
11
66.5093
21
-60.3298
0
LINE
8
BLACK
6
CONTINUOUS
10
66.5093
20
-60.3298
11
66.5067
21
-60.32
0
LINE
8
BLACK
6
CONTINUOUS
10
66.5067
20
-60.32
11
66.5076
21
-60.31
0
LINE
8
BLACK
6
CONTINUOUS
10
66.5076
20
-60.31
11
66.5076
21
-59.7921
0
LINE
8
BLACK
6
CONTINUOUS
10
66.5076
20
-59.7921
11
66.5067
21
-59.7821
0
LINE
8
BLACK
6
CONTINUOUS
10
66.5067
20
-59.7821
11
66.5093
21
-59.7723
0
LINE
8
BLACK
6
CONTINUOUS
10
66.5093
20
-59.7723
11
66.5111
21
-59.7623
0
LINE
8
BLACK
6
CONTINUOUS
10
66.5111
20
-59.7623
11
66.5128
21
-59.7594
0
LINE
8
BLACK
6
CONTINUOUS
10
66.5128
20
-59.7594
11
66.5137
21
-59.7561
0
LINE
8
BLACK
6
CONTINUOUS
10
66.5137
20
-59.7561
11
66.5195
21
-59.7478
0
LINE
8
BLACK
6
CONTINUOUS
10
66.5195
20
-59.7478
11
66.5245
21
-59.7391
0
LINE
8
BLACK
6
CONTINUOUS
10
66.5245
20
-59.7391
11
66.5323
21
-59.7326
0
LINE
8
BLACK
6
CONTINUOUS
10
66.5323
20
-59.7326
11
66.7196
21
-59.5453
0
LINE
8
BLACK
6
CONTINUOUS
10
66.7196
20
-59.5453
11
66.6373
21
-59.4763
0
LINE
8
BLACK
6
CONTINUOUS
10
66.6373
20
-59.4763
11
66.5712
21
-59.3617
0
LINE
8
BLACK
6
CONTINUOUS
10
66.5712
20
-59.3617
11
66.554
21
-59.2643
0
LINE
8
BLACK
6
CONTINUOUS
10
66.554
20
-59.2643
11
66.554
21
-59.0487
0
LINE
8
BLACK
6
CONTINUOUS
10
66.554
20
-59.0487
11
66.5712
21
-58.9513
0
LINE
8
BLACK
6
CONTINUOUS
10
66.5712
20
-58.9513
11
66.6373
21
-58.8367
0
LINE
8
BLACK
6
CONTINUOUS
10
66.6373
20
-58.8367
11
66.7386
21
-58.7517
0
LINE
8
BLACK
6
CONTINUOUS
10
66.7386
20
-58.7517
11
66.8629
21
-58.7065
0
LINE
8
BLACK
6
CONTINUOUS
10
66.8629
20
-58.7065
11
66.9951
21
-58.7065
0
LINE
8
BLACK
6
CONTINUOUS
10
66.9951
20
-58.7065
11
67.1194
21
-58.7517
0
LINE
8
BLACK
6
CONTINUOUS
10
67.1194
20
-58.7517
11
67.2207
21
-58.8367
0
LINE
8
BLACK
6
CONTINUOUS
10
67.2207
20
-58.8367
11
67.2868
21
-58.9513
0
LINE
8
BLACK
6
CONTINUOUS
10
67.2868
20
-58.9513
11
67.304
21
-59.0487
0
LINE
8
BLACK
6
CONTINUOUS
10
67.304
20
-59.0487
11
67.304
21
-59.2643
0
LINE
8
BLACK
6
CONTINUOUS
10
67.304
20
-59.2643
11
67.2868
21
-59.3617
0
LINE
8
BLACK
6
CONTINUOUS
10
67.2868
20
-59.3617
11
67.2207
21
-59.4763
0
LINE
8
BLACK
6
CONTINUOUS
10
67.2207
20
-59.4763
11
67.1194
21
-59.5613
0
LINE
8
BLACK
6
CONTINUOUS
10
67.1194
20
-59.5613
11
66.9951
21
-59.6065
0
LINE
8
BLACK
6
CONTINUOUS
10
66.9951
20
-59.6065
11
66.8739
21
-59.6065
0
LINE
8
BLACK
6
CONTINUOUS
10
66.8739
20
-59.6065
11
66.66
21
-59.8204
0
LINE
8
BLACK
6
CONTINUOUS
10
66.66
20
-59.8204
11
66.66
21
-60.2817
0
LINE
8
BLACK
6
CONTINUOUS
10
66.66
20
-60.2817
11
67.0948
21
-60.7166
0
LINE
8
BLACK
6
CONTINUOUS
10
67.0948
20
-60.7166
11
67.1026
21
-60.723
0
LINE
8
BLACK
6
CONTINUOUS
10
67.1026
20
-60.723
11
67.1076
21
-60.7318
0
LINE
8
BLACK
6
CONTINUOUS
10
67.1076
20
-60.7318
11
67.1134
21
-60.7401
0
LINE
8
BLACK
6
CONTINUOUS
10
67.1134
20
-60.7401
11
67.1143
21
-60.7434
0
LINE
8
BLACK
6
CONTINUOUS
10
67.1143
20
-60.7434
11
67.116
21
-60.7463
0
LINE
8
BLACK
6
CONTINUOUS
10
67.116
20
-60.7463
11
67.1178
21
-60.7563
0
LINE
8
BLACK
6
CONTINUOUS
10
67.1178
20
-60.7563
11
67.1204
21
-60.766
0
LINE
8
BLACK
6
CONTINUOUS
10
67.1204
20
-60.766
11
67.1195
21
-60.7761
0
LINE
8
BLACK
6
CONTINUOUS
10
67.1195
20
-60.7761
11
67.1195
21
-60.7895
0
LINE
8
BLACK
6
CONTINUOUS
10
67.1195
20
-60.7895
11
67.2972
21
-60.9672
0
LINE
8
BLACK
6
CONTINUOUS
10
67.2972
20
-60.9672
11
74.7642
21
-60.9672
0
LINE
8
BLACK
6
CONTINUOUS
10
74.7642
20
-60.9672
11
77.2668
21
-58.4646
0
LINE
8
BLACK
6
CONTINUOUS
10
77.2668
20
-58.4646
11
77.2668
21
-57.7688
0
LINE
8
BLACK
6
CONTINUOUS
10
77.2668
20
-57.7688
11
77.2318
21
-57.7688
0
LINE
8
BLACK
6
CONTINUOUS
10
77.2318
20
-57.7688
11
77.2318
21
-56.8688
0
LINE
8
BLACK
6
CONTINUOUS
10
77.2318
20
-56.8688
11
77.5318
21
-56.8688
0
LINE
8
BLACK
6
CONTINUOUS
10
77.5318
20
-56.8688
11
77.5318
21
-57.7688
0
LINE
8
BLACK
6
CONTINUOUS
10
73.7418
20
-60.5688
11
73.4418
21
-60.5688
0
LINE
8
BLACK
6
CONTINUOUS
10
73.4418
20
-60.5688
11
73.4418
21
-59.5688
0
LINE
8
BLACK
6
CONTINUOUS
10
73.4418
20
-59.5688
11
73.7418
21
-59.5688
0
LINE
8
BLACK
6
CONTINUOUS
10
73.7418
20
-59.5688
11
73.7418
21
-60.5688
0
LINE
8
BLACK
6
CONTINUOUS
10
69.4588
20
-59.9489
11
69.9992
21
-59.9489
0
LINE
8
BLACK
6
CONTINUOUS
10
69.9992
20
-59.9489
11
70.335
21
-59.6131
0
LINE
8
BLACK
6
CONTINUOUS
10
70.335
20
-59.6131
11
70.3415
21
-59.6053
0
LINE
8
BLACK
6
CONTINUOUS
10
70.3415
20
-59.6053
11
70.3503
21
-59.6003
0
LINE
8
BLACK
6
CONTINUOUS
10
70.3503
20
-59.6003
11
70.3585
21
-59.5945
0
LINE
8
BLACK
6
CONTINUOUS
10
70.3585
20
-59.5945
11
70.3618
21
-59.5936
0
LINE
8
BLACK
6
CONTINUOUS
10
70.3618
20
-59.5936
11
70.3648
21
-59.5919
0
LINE
8
BLACK
6
CONTINUOUS
10
70.3648
20
-59.5919
11
70.3747
21
-59.5901
0
LINE
8
BLACK
6
CONTINUOUS
10
70.3747
20
-59.5901
11
70.3845
21
-59.5875
0
LINE
8
BLACK
6
CONTINUOUS
10
70.3845
20
-59.5875
11
70.3945
21
-59.5884
0
LINE
8
BLACK
6
CONTINUOUS
10
70.3945
20
-59.5884
11
72.3414
21
-59.5884
0
LINE
8
BLACK
6
CONTINUOUS
10
72.3414
20
-59.5884
11
73.3759
21
-58.5539
0
LINE
8
BLACK
6
CONTINUOUS
10
73.3759
20
-58.5539
11
73.3824
21
-58.5461
0
LINE
8
BLACK
6
CONTINUOUS
10
73.3824
20
-58.5461
11
73.3912
21
-58.5411
0
LINE
8
BLACK
6
CONTINUOUS
10
73.3912
20
-58.5411
11
73.3995
21
-58.5353
0
LINE
8
BLACK
6
CONTINUOUS
10
73.3995
20
-58.5353
11
73.4028
21
-58.5344
0
LINE
8
BLACK
6
CONTINUOUS
10
73.4028
20
-58.5344
11
73.4057
21
-58.5327
0
LINE
8
BLACK
6
CONTINUOUS
10
73.4057
20
-58.5327
11
73.4157
21
-58.5309
0
LINE
8
BLACK
6
CONTINUOUS
10
73.4157
20
-58.5309
11
73.4254
21
-58.5283
0
LINE
8
BLACK
6
CONTINUOUS
10
73.4254
20
-58.5283
11
73.4355
21
-58.5292
0
LINE
8
BLACK
6
CONTINUOUS
10
73.4355
20
-58.5292
11
75.5751
21
-58.5292
0
LINE
8
BLACK
6
CONTINUOUS
10
75.5751
20
-58.5292
11
76.3056
21
-57.7987
0
LINE
8
BLACK
6
CONTINUOUS
10
76.3056
20
-57.7987
11
76.3056
21
-57.7688
0
LINE
8
BLACK
6
CONTINUOUS
10
76.3056
20
-57.7688
11
76.2318
21
-57.7688
0
LINE
8
BLACK
6
CONTINUOUS
10
76.2318
20
-57.7688
11
76.2318
21
-56.8688
0
LINE
8
BLACK
6
CONTINUOUS
10
76.2318
20
-56.8688
11
76.5318
21
-56.8688
0
LINE
8
BLACK
6
CONTINUOUS
10
76.5318
20
-56.8688
11
76.5318
21
-57.7688
0
LINE
8
BLACK
6
CONTINUOUS
10
76.5318
20
-57.7688
11
76.458
21
-57.7688
0
LINE
8
BLACK
6
CONTINUOUS
10
76.458
20
-57.7688
11
76.458
21
-57.827
0
LINE
8
BLACK
6
CONTINUOUS
10
76.458
20
-57.827
11
76.4589
21
-57.837
0
LINE
8
BLACK
6
CONTINUOUS
10
76.4589
20
-57.837
11
76.4563
21
-57.8468
0
LINE
8
BLACK
6
CONTINUOUS
10
76.4563
20
-57.8468
11
76.4545
21
-57.8567
0
LINE
8
BLACK
6
CONTINUOUS
10
76.4545
20
-57.8567
11
76.4528
21
-57.8597
0
LINE
8
BLACK
6
CONTINUOUS
10
76.4528
20
-57.8597
11
76.4519
21
-57.863
0
LINE
8
BLACK
6
CONTINUOUS
10
76.4519
20
-57.863
11
76.4461
21
-57.8713
0
LINE
8
BLACK
6
CONTINUOUS
10
76.4461
20
-57.8713
11
76.4411
21
-57.88
0
LINE
8
BLACK
6
CONTINUOUS
10
76.4411
20
-57.88
11
76.4333
21
-57.8865
0
LINE
8
BLACK
6
CONTINUOUS
10
76.4333
20
-57.8865
11
75.6629
21
-58.6569
0
LINE
8
BLACK
6
CONTINUOUS
10
75.6629
20
-58.6569
11
75.6564
21
-58.6647
0
LINE
8
BLACK
6
CONTINUOUS
10
75.6564
20
-58.6647
11
75.6476
21
-58.6697
0
LINE
8
BLACK
6
CONTINUOUS
10
75.6476
20
-58.6697
11
75.6394
21
-58.6755
0
LINE
8
BLACK
6
CONTINUOUS
10
75.6394
20
-58.6755
11
75.6361
21
-58.6764
0
LINE
8
BLACK
6
CONTINUOUS
10
75.6361
20
-58.6764
11
75.6331
21
-58.6781
0
LINE
8
BLACK
6
CONTINUOUS
10
75.6331
20
-58.6781
11
75.6232
21
-58.6799
0
LINE
8
BLACK
6
CONTINUOUS
10
75.6232
20
-58.6799
11
75.6134
21
-58.6825
0
LINE
8
BLACK
6
CONTINUOUS
10
75.6134
20
-58.6825
11
75.6033
21
-58.6816
0
LINE
8
BLACK
6
CONTINUOUS
10
75.6033
20
-58.6816
11
73.4637
21
-58.6816
0
LINE
8
BLACK
6
CONTINUOUS
10
73.4637
20
-58.6816
11
72.4292
21
-59.7161
0
LINE
8
BLACK
6
CONTINUOUS
10
72.4292
20
-59.7161
11
72.4227
21
-59.7239
0
LINE
8
BLACK
6
CONTINUOUS
10
72.4227
20
-59.7239
11
72.4139
21
-59.7289
0
LINE
8
BLACK
6
CONTINUOUS
10
72.4139
20
-59.7289
11
72.4057
21
-59.7347
0
LINE
8
BLACK
6
CONTINUOUS
10
72.4057
20
-59.7347
11
72.4024
21
-59.7356
0
LINE
8
BLACK
6
CONTINUOUS
10
72.4024
20
-59.7356
11
72.3994
21
-59.7373
0
LINE
8
BLACK
6
CONTINUOUS
10
72.3994
20
-59.7373
11
72.3895
21
-59.7391
0
LINE
8
BLACK
6
CONTINUOUS
10
72.3895
20
-59.7391
11
72.3797
21
-59.7417
0
LINE
8
BLACK
6
CONTINUOUS
10
72.3797
20
-59.7417
11
72.3697
21
-59.7408
0
LINE
8
BLACK
6
CONTINUOUS
10
72.3697
20
-59.7408
11
70.4228
21
-59.7408
0
LINE
8
BLACK
6
CONTINUOUS
10
70.4228
20
-59.7408
11
70.087
21
-60.0766
0
LINE
8
BLACK
6
CONTINUOUS
10
70.087
20
-60.0766
11
70.0805
21
-60.0844
0
LINE
8
BLACK
6
CONTINUOUS
10
70.0805
20
-60.0844
11
70.0717
21
-60.0894
0
LINE
8
BLACK
6
CONTINUOUS
10
70.0717
20
-60.0894
11
70.0634
21
-60.0952
0
LINE
8
BLACK
6
CONTINUOUS
10
70.0634
20
-60.0952
11
70.0601
21
-60.0961
0
LINE
8
BLACK
6
CONTINUOUS
10
70.0601
20
-60.0961
11
70.0572
21
-60.0978
0
LINE
8
BLACK
6
CONTINUOUS
10
70.0572
20
-60.0978
11
70.0472
21
-60.0996
0
LINE
8
BLACK
6
CONTINUOUS
10
70.0472
20
-60.0996
11
70.0375
21
-60.1022
0
LINE
8
BLACK
6
CONTINUOUS
10
70.0375
20
-60.1022
11
70.0274
21
-60.1013
0
LINE
8
BLACK
6
CONTINUOUS
10
70.0274
20
-60.1013
11
69.4306
21
-60.1013
0
LINE
8
BLACK
6
CONTINUOUS
10
69.4306
20
-60.1013
11
69.4205
21
-60.1022
0
LINE
8
BLACK
6
CONTINUOUS
10
69.4205
20
-60.1022
11
69.4108
21
-60.0996
0
LINE
8
BLACK
6
CONTINUOUS
10
69.4108
20
-60.0996
11
69.4008
21
-60.0978
0
LINE
8
BLACK
6
CONTINUOUS
10
69.4008
20
-60.0978
11
69.3979
21
-60.0961
0
LINE
8
BLACK
6
CONTINUOUS
10
69.3979
20
-60.0961
11
69.3946
21
-60.0952
0
LINE
8
BLACK
6
CONTINUOUS
10
69.3946
20
-60.0952
11
69.3863
21
-60.0894
0
LINE
8
BLACK
6
CONTINUOUS
10
69.3863
20
-60.0894
11
69.3775
21
-60.0844
0
LINE
8
BLACK
6
CONTINUOUS
10
69.3775
20
-60.0844
11
69.371
21
-60.0766
0
LINE
8
BLACK
6
CONTINUOUS
10
69.371
20
-60.0766
11
69.0061
21
-59.7117
0
LINE
8
BLACK
6
CONTINUOUS
10
69.0061
20
-59.7117
11
68.9983
21
-59.7052
0
LINE
8
BLACK
6
CONTINUOUS
10
68.9983
20
-59.7052
11
68.9933
21
-59.6964
0
LINE
8
BLACK
6
CONTINUOUS
10
68.9933
20
-59.6964
11
68.9875
21
-59.6881
0
LINE
8
BLACK
6
CONTINUOUS
10
68.9875
20
-59.6881
11
68.9866
21
-59.6849
0
LINE
8
BLACK
6
CONTINUOUS
10
68.9866
20
-59.6849
11
68.9849
21
-59.6819
0
LINE
8
BLACK
6
CONTINUOUS
10
68.9849
20
-59.6819
11
68.9831
21
-59.6719
0
LINE
8
BLACK
6
CONTINUOUS
10
68.9831
20
-59.6719
11
68.9805
21
-59.6622
0
LINE
8
BLACK
6
CONTINUOUS
10
68.9805
20
-59.6622
11
68.9814
21
-59.6521
0
LINE
8
BLACK
6
CONTINUOUS
10
68.9814
20
-59.6521
11
68.9814
21
-59.4173
0
LINE
8
BLACK
6
CONTINUOUS
10
68.9814
20
-59.4173
11
68.9814
21
-59.4173
0
LINE
8
BLACK
6
CONTINUOUS
10
68.9814
20
-59.4173
11
68.9814
21
-58.7984
0
LINE
8
BLACK
6
CONTINUOUS
10
68.9814
20
-58.7984
11
68.6157
21
-58.4327
0
LINE
8
BLACK
6
CONTINUOUS
10
68.6157
20
-58.4327
11
67.8873
21
-58.4327
0
LINE
8
BLACK
6
CONTINUOUS
10
67.8873
20
-58.4327
11
67.8811
21
-58.456
0
LINE
8
BLACK
6
CONTINUOUS
10
67.8811
20
-58.456
11
67.8052
21
-58.5643
0
LINE
8
BLACK
6
CONTINUOUS
10
67.8052
20
-58.5643
11
67.6969
21
-58.6402
0
LINE
8
BLACK
6
CONTINUOUS
10
67.6969
20
-58.6402
11
67.5692
21
-58.6744
0
LINE
8
BLACK
6
CONTINUOUS
10
67.5692
20
-58.6744
11
67.4374
21
-58.6629
0
LINE
8
BLACK
6
CONTINUOUS
10
67.4374
20
-58.6629
11
67.3176
21
-58.607
0
LINE
8
BLACK
6
CONTINUOUS
10
67.3176
20
-58.607
11
67.2476
21
-58.537
0
LINE
8
BLACK
6
CONTINUOUS
10
67.2476
20
-58.537
11
67.1239
21
-58.3604
0
LINE
8
BLACK
6
CONTINUOUS
10
67.1239
20
-58.3604
11
67.0821
21
-58.2707
0
LINE
8
BLACK
6
CONTINUOUS
10
67.0821
20
-58.2707
11
67.0706
21
-58.139
0
LINE
8
BLACK
6
CONTINUOUS
10
67.0706
20
-58.139
11
67.1048
21
-58.0113
0
LINE
8
BLACK
6
CONTINUOUS
10
67.1048
20
-58.0113
11
67.1807
21
-57.9029
0
LINE
8
BLACK
6
CONTINUOUS
10
67.1807
20
-57.9029
11
67.289
21
-57.8271
0
LINE
8
BLACK
6
CONTINUOUS
10
67.289
20
-57.8271
11
67.4168
21
-57.7929
0
LINE
8
BLACK
6
CONTINUOUS
10
67.4168
20
-57.7929
11
67.5485
21
-57.8044
0
LINE
8
BLACK
6
CONTINUOUS
10
67.5485
20
-57.8044
11
67.6684
21
-57.8603
0
LINE
8
BLACK
6
CONTINUOUS
10
67.6684
20
-57.8603
11
67.7383
21
-57.9302
0
LINE
8
BLACK
6
CONTINUOUS
10
67.7383
20
-57.9302
11
67.862
21
-58.1068
0
LINE
8
BLACK
6
CONTINUOUS
10
67.862
20
-58.1068
11
67.9038
21
-58.1965
0
LINE
8
BLACK
6
CONTINUOUS
10
67.9038
20
-58.1965
11
67.9111
21
-58.2803
0
LINE
8
BLACK
6
CONTINUOUS
10
67.9111
20
-58.2803
11
68.644
21
-58.2803
0
LINE
8
BLACK
6
CONTINUOUS
10
68.644
20
-58.2803
11
68.654
21
-58.2794
0
LINE
8
BLACK
6
CONTINUOUS
10
68.654
20
-58.2794
11
68.6638
21
-58.282
0
LINE
8
BLACK
6
CONTINUOUS
10
68.6638
20
-58.282
11
68.6737
21
-58.2838
0
LINE
8
BLACK
6
CONTINUOUS
10
68.6737
20
-58.2838
11
68.6767
21
-58.2855
0
LINE
8
BLACK
6
CONTINUOUS
10
68.6767
20
-58.2855
11
68.68
21
-58.2864
0
LINE
8
BLACK
6
CONTINUOUS
10
68.68
20
-58.2864
11
68.6882
21
-58.2922
0
LINE
8
BLACK
6
CONTINUOUS
10
68.6882
20
-58.2922
11
68.697
21
-58.2972
0
LINE
8
BLACK
6
CONTINUOUS
10
68.697
20
-58.2972
11
68.7035
21
-58.305
0
LINE
8
BLACK
6
CONTINUOUS
10
68.7035
20
-58.305
11
69.1091
21
-58.7106
0
LINE
8
BLACK
6
CONTINUOUS
10
69.1091
20
-58.7106
11
69.1169
21
-58.7171
0
LINE
8
BLACK
6
CONTINUOUS
10
69.1169
20
-58.7171
11
69.1219
21
-58.7259
0
LINE
8
BLACK
6
CONTINUOUS
10
69.1219
20
-58.7259
11
69.1277
21
-58.7341
0
LINE
8
BLACK
6
CONTINUOUS
10
69.1277
20
-58.7341
11
69.1286
21
-58.7374
0
LINE
8
BLACK
6
CONTINUOUS
10
69.1286
20
-58.7374
11
69.1303
21
-58.7404
0
LINE
8
BLACK
6
CONTINUOUS
10
69.1303
20
-58.7404
11
69.1321
21
-58.7503
0
LINE
8
BLACK
6
CONTINUOUS
10
69.1321
20
-58.7503
11
69.1347
21
-58.7601
0
LINE
8
BLACK
6
CONTINUOUS
10
69.1347
20
-58.7601
11
69.1338
21
-58.7701
0
LINE
8
BLACK
6
CONTINUOUS
10
69.1338
20
-58.7701
11
69.1338
21
-59.6239
0
LINE
8
BLACK
6
CONTINUOUS
10
69.1338
20
-59.6239
11
69.4588
21
-59.9489
0
LINE
8
BLACK
6
CONTINUOUS
10
69.8679
20
-59.0148
11
69.9901
21
-59.0854
0
LINE
8
BLACK
6
CONTINUOUS
10
69.9901
20
-59.0854
11
70.0808
21
-59.1934
0
LINE
8
BLACK
6
CONTINUOUS
10
70.0808
20
-59.1934
11
70.129
21
-59.326
0
LINE
8
BLACK
6
CONTINUOUS
10
70.129
20
-59.326
11
70.129
21
-59.467
0
LINE
8
BLACK
6
CONTINUOUS
10
70.129
20
-59.467
11
70.0808
21
-59.5996
0
LINE
8
BLACK
6
CONTINUOUS
10
70.0808
20
-59.5996
11
69.9901
21
-59.7076
0
LINE
8
BLACK
6
CONTINUOUS
10
69.9901
20
-59.7076
11
69.8679
21
-59.7782
0
LINE
8
BLACK
6
CONTINUOUS
10
69.8679
20
-59.7782
11
69.729
21
-59.8027
0
LINE
8
BLACK
6
CONTINUOUS
10
69.729
20
-59.8027
11
69.5901
21
-59.7782
0
LINE
8
BLACK
6
CONTINUOUS
10
69.5901
20
-59.7782
11
69.4679
21
-59.7076
0
LINE
8
BLACK
6
CONTINUOUS
10
69.4679
20
-59.7076
11
69.3772
21
-59.5996
0
LINE
8
BLACK
6
CONTINUOUS
10
69.3772
20
-59.5996
11
69.329
21
-59.467
0
LINE
8
BLACK
6
CONTINUOUS
10
69.329
20
-59.467
11
69.329
21
-59.326
0
LINE
8
BLACK
6
CONTINUOUS
10
69.329
20
-59.326
11
69.3772
21
-59.1934
0
LINE
8
BLACK
6
CONTINUOUS
10
69.3772
20
-59.1934
11
69.4679
21
-59.0854
0
LINE
8
BLACK
6
CONTINUOUS
10
69.4679
20
-59.0854
11
69.5901
21
-59.0148
0
LINE
8
BLACK
6
CONTINUOUS
10
69.5901
20
-59.0148
11
69.729
21
-58.9903
0
LINE
8
BLACK
6
CONTINUOUS
10
69.729
20
-58.9903
11
69.8679
21
-59.0148
0
LINE
8
BLACK
6
CONTINUOUS
10
64.2679
20
-59.0148
11
64.3901
21
-59.0854
0
LINE
8
BLACK
6
CONTINUOUS
10
64.3901
20
-59.0854
11
64.4808
21
-59.1934
0
LINE
8
BLACK
6
CONTINUOUS
10
64.4808
20
-59.1934
11
64.529
21
-59.326
0
LINE
8
BLACK
6
CONTINUOUS
10
64.529
20
-59.326
11
64.529
21
-59.467
0
LINE
8
BLACK
6
CONTINUOUS
10
64.529
20
-59.467
11
64.4808
21
-59.5996
0
LINE
8
BLACK
6
CONTINUOUS
10
64.4808
20
-59.5996
11
64.3901
21
-59.7076
0
LINE
8
BLACK
6
CONTINUOUS
10
64.3901
20
-59.7076
11
64.2679
21
-59.7782
0
LINE
8
BLACK
6
CONTINUOUS
10
64.2679
20
-59.7782
11
64.129
21
-59.8027
0
LINE
8
BLACK
6
CONTINUOUS
10
64.129
20
-59.8027
11
63.9901
21
-59.7782
0
LINE
8
BLACK
6
CONTINUOUS
10
63.9901
20
-59.7782
11
63.8679
21
-59.7076
0
LINE
8
BLACK
6
CONTINUOUS
10
63.8679
20
-59.7076
11
63.7772
21
-59.5996
0
LINE
8
BLACK
6
CONTINUOUS
10
63.7772
20
-59.5996
11
63.729
21
-59.467
0
LINE
8
BLACK
6
CONTINUOUS
10
63.729
20
-59.467
11
63.729
21
-59.326
0
LINE
8
BLACK
6
CONTINUOUS
10
63.729
20
-59.326
11
63.7772
21
-59.1934
0
LINE
8
BLACK
6
CONTINUOUS
10
63.7772
20
-59.1934
11
63.8679
21
-59.0854
0
LINE
8
BLACK
6
CONTINUOUS
10
63.8679
20
-59.0854
11
63.9901
21
-59.0148
0
LINE
8
BLACK
6
CONTINUOUS
10
63.9901
20
-59.0148
11
64.129
21
-58.9903
0
LINE
8
BLACK
6
CONTINUOUS
10
64.129
20
-58.9903
11
64.2679
21
-59.0148
0
LINE
8
BLACK
6
CONTINUOUS
10
73.3874
20
-58.3801
11
73.3443
21
-58.3932
0
LINE
8
BLACK
6
CONTINUOUS
10
73.3443
20
-58.3932
11
73.3046
21
-58.4144
0
LINE
8
BLACK
6
CONTINUOUS
10
73.3046
20
-58.4144
11
73.2697
21
-58.443
0
LINE
8
BLACK
6
CONTINUOUS
10
73.2697
20
-58.443
11
73.265
21
-58.4488
0
LINE
8
BLACK
6
CONTINUOUS
10
73.265
20
-58.4488
11
73.2621
21
-58.4513
0
LINE
8
BLACK
6
CONTINUOUS
10
73.2621
20
-58.4513
11
73.2599
21
-58.4543
0
LINE
8
BLACK
6
CONTINUOUS
10
73.2599
20
-58.4543
11
72.526
21
-59.1883
0
LINE
8
BLACK
6
CONTINUOUS
10
72.526
20
-59.1883
11
72.5236
21
-59.19
0
LINE
8
BLACK
6
CONTINUOUS
10
72.5236
20
-59.19
11
72.5218
21
-59.1922
0
LINE
8
BLACK
6
CONTINUOUS
10
72.5218
20
-59.1922
11
72.5128
21
-59.1975
0
LINE
8
BLACK
6
CONTINUOUS
10
72.5128
20
-59.1975
11
72.5043
21
-59.2035
0
LINE
8
BLACK
6
CONTINUOUS
10
72.5043
20
-59.2035
11
72.5015
21
-59.2042
0
LINE
8
BLACK
6
CONTINUOUS
10
72.5015
20
-59.2042
11
72.499
21
-59.2057
0
LINE
8
BLACK
6
CONTINUOUS
10
72.499
20
-59.2057
11
72.4888
21
-59.2076
0
LINE
8
BLACK
6
CONTINUOUS
10
72.4888
20
-59.2076
11
72.4788
21
-59.2103
0
LINE
8
BLACK
6
CONTINUOUS
10
72.4788
20
-59.2103
11
72.4759
21
-59.2101
0
LINE
8
BLACK
6
CONTINUOUS
10
72.4759
20
-59.2101
11
72.473
21
-59.2106
0
LINE
8
BLACK
6
CONTINUOUS
10
72.473
20
-59.2106
11
71.9922
21
-59.2163
0
LINE
8
BLACK
6
CONTINUOUS
10
71.9922
20
-59.2163
11
71.9922
21
-59.2163
0
LINE
8
BLACK
6
CONTINUOUS
10
71.9922
20
-59.2163
11
71.9921
21
-59.2163
0
LINE
8
BLACK
6
CONTINUOUS
10
71.9921
20
-59.2163
11
70.4809
21
-59.2326
0
LINE
8
BLACK
6
CONTINUOUS
10
70.4809
20
-59.2326
11
70.4747
21
-59.2315
0
LINE
8
BLACK
6
CONTINUOUS
10
70.4747
20
-59.2315
11
70.4685
21
-59.2317
0
LINE
8
BLACK
6
CONTINUOUS
10
70.4685
20
-59.2317
11
70.4618
21
-59.2294
0
LINE
8
BLACK
6
CONTINUOUS
10
70.4618
20
-59.2294
11
70.4548
21
-59.2282
0
LINE
8
BLACK
6
CONTINUOUS
10
70.4548
20
-59.2282
11
70.4493
21
-59.2252
0
LINE
8
BLACK
6
CONTINUOUS
10
70.4493
20
-59.2252
11
70.4434
21
-59.2232
0
LINE
8
BLACK
6
CONTINUOUS
10
70.4434
20
-59.2232
11
70.4379
21
-59.2187
0
LINE
8
BLACK
6
CONTINUOUS
10
70.4379
20
-59.2187
11
70.4317
21
-59.2153
0
LINE
8
BLACK
6
CONTINUOUS
10
70.4317
20
-59.2153
11
70.4276
21
-59.2105
0
LINE
8
BLACK
6
CONTINUOUS
10
70.4276
20
-59.2105
11
70.4228
21
-59.2066
0
LINE
8
BLACK
6
CONTINUOUS
10
70.4228
20
-59.2066
11
70.4191
21
-59.2006
0
LINE
8
BLACK
6
CONTINUOUS
10
70.4191
20
-59.2006
11
70.4145
21
-59.1952
0
LINE
8
BLACK
6
CONTINUOUS
10
70.4145
20
-59.1952
11
70.4123
21
-59.1893
0
LINE
8
BLACK
6
CONTINUOUS
10
70.4123
20
-59.1893
11
70.409
21
-59.184
0
LINE
8
BLACK
6
CONTINUOUS
10
70.409
20
-59.184
11
70.4077
21
-59.177
0
LINE
8
BLACK
6
CONTINUOUS
10
70.4077
20
-59.177
11
70.4052
21
-59.1704
0
LINE
8
BLACK
6
CONTINUOUS
10
70.4052
20
-59.1704
11
70.4051
21
-59.1642
0
LINE
8
BLACK
6
CONTINUOUS
10
70.4051
20
-59.1642
11
70.4039
21
-59.158
0
LINE
8
BLACK
6
CONTINUOUS
10
70.4039
20
-59.158
11
70.405
21
-59.151
0
LINE
8
BLACK
6
CONTINUOUS
10
70.405
20
-59.151
11
70.4049
21
-59.1439
0
LINE
8
BLACK
6
CONTINUOUS
10
70.4049
20
-59.1439
11
70.407
21
-59.138
0
LINE
8
BLACK
6
CONTINUOUS
10
70.407
20
-59.138
11
70.4079
21
-59.1319
0
LINE
8
BLACK
6
CONTINUOUS
10
70.4079
20
-59.1319
11
70.4113
21
-59.1257
0
LINE
8
BLACK
6
CONTINUOUS
10
70.4113
20
-59.1257
11
70.4137
21
-59.119
0
LINE
8
BLACK
6
CONTINUOUS
10
70.4137
20
-59.119
11
70.4176
21
-59.1141
0
LINE
8
BLACK
6
CONTINUOUS
10
70.4176
20
-59.1141
11
70.4206
21
-59.1087
0
LINE
8
BLACK
6
CONTINUOUS
10
70.4206
20
-59.1087
11
70.426
21
-59.104
0
LINE
8
BLACK
6
CONTINUOUS
10
70.426
20
-59.104
11
70.4305
21
-59.0985
0
LINE
8
BLACK
6
CONTINUOUS
10
70.4305
20
-59.0985
11
70.4358
21
-59.0953
0
LINE
8
BLACK
6
CONTINUOUS
10
70.4358
20
-59.0953
11
70.4405
21
-59.0912
0
LINE
8
BLACK
6
CONTINUOUS
10
70.4405
20
-59.0912
11
70.4471
21
-59.0887
0
LINE
8
BLACK
6
CONTINUOUS
10
70.4471
20
-59.0887
11
70.4532
21
-59.085
0
LINE
8
BLACK
6
CONTINUOUS
10
70.4532
20
-59.085
11
70.4594
21
-59.0839
0
LINE
8
BLACK
6
CONTINUOUS
10
70.4594
20
-59.0839
11
70.4652
21
-59.0816
0
LINE
8
BLACK
6
CONTINUOUS
10
70.4652
20
-59.0816
11
70.4735
21
-59.08
0
LINE
8
BLACK
6
CONTINUOUS
10
70.4735
20
-59.08
11
70.6104
21
-59.0233
0
LINE
8
BLACK
6
CONTINUOUS
10
70.6104
20
-59.0233
11
70.7336
21
-58.9409
0
LINE
8
BLACK
6
CONTINUOUS
10
70.7336
20
-58.9409
11
70.8384
21
-58.8361
0
LINE
8
BLACK
6
CONTINUOUS
10
70.8384
20
-58.8361
11
70.9208
21
-58.7129
0
LINE
8
BLACK
6
CONTINUOUS
10
70.9208
20
-58.7129
11
70.9775
21
-58.576
0
LINE
8
BLACK
6
CONTINUOUS
10
70.9775
20
-58.576
11
71.0064
21
-58.4306
0
LINE
8
BLACK
6
CONTINUOUS
10
71.0064
20
-58.4306
11
71.0064
21
-58.2824
0
LINE
8
BLACK
6
CONTINUOUS
10
71.0064
20
-58.2824
11
70.9775
21
-58.137
0
LINE
8
BLACK
6
CONTINUOUS
10
70.9775
20
-58.137
11
70.9208
21
-58.0001
0
LINE
8
BLACK
6
CONTINUOUS
10
70.9208
20
-58.0001
11
70.8384
21
-57.8769
0
LINE
8
BLACK
6
CONTINUOUS
10
70.8384
20
-57.8769
11
70.7336
21
-57.7721
0
LINE
8
BLACK
6
CONTINUOUS
10
70.7336
20
-57.7721
11
70.6104
21
-57.6897
0
LINE
8
BLACK
6
CONTINUOUS
10
70.6104
20
-57.6897
11
70.4735
21
-57.633
0
LINE
8
BLACK
6
CONTINUOUS
10
70.4735
20
-57.633
11
70.3281
21
-57.6041
0
LINE
8
BLACK
6
CONTINUOUS
10
70.3281
20
-57.6041
11
70.1799
21
-57.6041
0
LINE
8
BLACK
6
CONTINUOUS
10
70.1799
20
-57.6041
11
70.0345
21
-57.633
0
LINE
8
BLACK
6
CONTINUOUS
10
70.0345
20
-57.633
11
69.8976
21
-57.6897
0
LINE
8
BLACK
6
CONTINUOUS
10
69.8976
20
-57.6897
11
69.7744
21
-57.7721
0
LINE
8
BLACK
6
CONTINUOUS
10
69.7744
20
-57.7721
11
69.6696
21
-57.8769
0
LINE
8
BLACK
6
CONTINUOUS
10
69.6696
20
-57.8769
11
69.5872
21
-58.0001
0
LINE
8
BLACK
6
CONTINUOUS
10
69.5872
20
-58.0001
11
69.5305
21
-58.137
0
LINE
8
BLACK
6
CONTINUOUS
10
69.5305
20
-58.137
11
69.5016
21
-58.2824
0
LINE
8
BLACK
6
CONTINUOUS
10
69.5016
20
-58.2824
11
69.5016
21
-58.4306
0
LINE
8
BLACK
6
CONTINUOUS
10
69.5016
20
-58.4306
11
69.5305
21
-58.576
0
LINE
8
BLACK
6
CONTINUOUS
10
69.5305
20
-58.576
11
69.5872
21
-58.7129
0
LINE
8
BLACK
6
CONTINUOUS
10
69.5872
20
-58.7129
11
69.6115
21
-58.7492
0
LINE
8
BLACK
6
CONTINUOUS
10
69.6115
20
-58.7492
11
69.6149
21
-58.7568
0
LINE
8
BLACK
6
CONTINUOUS
10
69.6149
20
-58.7568
11
69.6192
21
-58.7639
0
LINE
8
BLACK
6
CONTINUOUS
10
69.6192
20
-58.7639
11
69.6201
21
-58.7689
0
LINE
8
BLACK
6
CONTINUOUS
10
69.6201
20
-58.7689
11
69.6222
21
-58.7734
0
LINE
8
BLACK
6
CONTINUOUS
10
69.6222
20
-58.7734
11
69.6227
21
-58.7817
0
LINE
8
BLACK
6
CONTINUOUS
10
69.6227
20
-58.7817
11
69.6243
21
-58.7899
0
LINE
8
BLACK
6
CONTINUOUS
10
69.6243
20
-58.7899
11
69.6236
21
-58.7949
0
LINE
8
BLACK
6
CONTINUOUS
10
69.6236
20
-58.7949
11
69.6239
21
-58.7999
0
LINE
8
BLACK
6
CONTINUOUS
10
69.6239
20
-58.7999
11
69.6216
21
-58.8078
0
LINE
8
BLACK
6
CONTINUOUS
10
69.6216
20
-58.8078
11
69.6203
21
-58.8161
0
LINE
8
BLACK
6
CONTINUOUS
10
69.6203
20
-58.8161
11
69.6179
21
-58.8204
0
LINE
8
BLACK
6
CONTINUOUS
10
69.6179
20
-58.8204
11
69.6165
21
-58.8253
0
LINE
8
BLACK
6
CONTINUOUS
10
69.6165
20
-58.8253
11
69.6116
21
-58.832
0
LINE
8
BLACK
6
CONTINUOUS
10
69.6116
20
-58.832
11
69.6076
21
-58.8393
0
LINE
8
BLACK
6
CONTINUOUS
10
69.6076
20
-58.8393
11
69.6038
21
-58.8426
0
LINE
8
BLACK
6
CONTINUOUS
10
69.6038
20
-58.8426
11
69.6008
21
-58.8466
0
LINE
8
BLACK
6
CONTINUOUS
10
69.6008
20
-58.8466
11
69.5939
21
-58.8512
0
LINE
8
BLACK
6
CONTINUOUS
10
69.5939
20
-58.8512
11
69.5877
21
-58.8567
0
LINE
8
BLACK
6
CONTINUOUS
10
69.5877
20
-58.8567
11
69.583
21
-58.8585
0
LINE
8
BLACK
6
CONTINUOUS
10
69.583
20
-58.8585
11
69.5788
21
-58.8613
0
LINE
8
BLACK
6
CONTINUOUS
10
69.5788
20
-58.8613
11
69.5752
21
-58.8622
0
LINE
8
BLACK
6
CONTINUOUS
10
69.5752
20
-58.8622
11
69.5748
21
-58.8625
0
LINE
8
BLACK
6
CONTINUOUS
10
69.5748
20
-58.8625
11
69.4673
21
-58.907
0
LINE
8
BLACK
6
CONTINUOUS
10
69.4673
20
-58.907
11
69.4047
21
-58.9488
0
LINE
8
BLACK
6
CONTINUOUS
10
69.4047
20
-58.9488
11
69.4024
21
-58.9498
0
LINE
8
BLACK
6
CONTINUOUS
10
69.4024
20
-58.9498
11
69.4005
21
-58.9514
0
LINE
8
BLACK
6
CONTINUOUS
10
69.4005
20
-58.9514
11
69.3904
21
-58.9551
0
LINE
8
BLACK
6
CONTINUOUS
10
69.3904
20
-58.9551
11
69.3805
21
-58.9595
0
LINE
8
BLACK
6
CONTINUOUS
10
69.3805
20
-58.9595
11
69.378
21
-58.9596
0
LINE
8
BLACK
6
CONTINUOUS
10
69.378
20
-58.9596
11
69.3756
21
-58.9605
0
LINE
8
BLACK
6
CONTINUOUS
10
69.3756
20
-58.9605
11
69.3649
21
-58.9605
0
LINE
8
BLACK
6
CONTINUOUS
10
69.3649
20
-58.9605
11
69.3541
21
-58.9612
0
LINE
8
BLACK
6
CONTINUOUS
10
69.3541
20
-58.9612
11
69.3517
21
-58.9605
0
LINE
8
BLACK
6
CONTINUOUS
10
69.3517
20
-58.9605
11
69.3492
21
-58.9605
0
LINE
8
BLACK
6
CONTINUOUS
10
69.3492
20
-58.9605
11
69.3391
21
-58.9568
0
LINE
8
BLACK
6
CONTINUOUS
10
69.3391
20
-58.9568
11
69.3287
21
-58.9538
0
LINE
8
BLACK
6
CONTINUOUS
10
69.3287
20
-58.9538
11
69.3267
21
-58.9523
0
LINE
8
BLACK
6
CONTINUOUS
10
69.3267
20
-58.9523
11
69.3243
21
-58.9514
0
LINE
8
BLACK
6
CONTINUOUS
10
69.3243
20
-58.9514
11
69.3161
21
-58.9445
0
LINE
8
BLACK
6
CONTINUOUS
10
69.3161
20
-58.9445
11
69.3074
21
-58.9381
0
LINE
8
BLACK
6
CONTINUOUS
10
69.3074
20
-58.9381
11
69.306
21
-58.936
0
LINE
8
BLACK
6
CONTINUOUS
10
69.306
20
-58.936
11
69.304
21
-58.9344
0
LINE
8
BLACK
6
CONTINUOUS
10
69.304
20
-58.9344
11
69.2986
21
-58.9251
0
LINE
8
BLACK
6
CONTINUOUS
10
69.2986
20
-58.9251
11
69.2927
21
-58.9161
0
LINE
8
BLACK
6
CONTINUOUS
10
69.2927
20
-58.9161
11
69.2921
21
-58.9137
0
LINE
8
BLACK
6
CONTINUOUS
10
69.2921
20
-58.9137
11
69.2908
21
-58.9115
0
LINE
8
BLACK
6
CONTINUOUS
10
69.2908
20
-58.9115
11
69.2889
21
-58.9009
0
LINE
8
BLACK
6
CONTINUOUS
10
69.2889
20
-58.9009
11
69.2864
21
-58.8904
0
LINE
8
BLACK
6
CONTINUOUS
10
69.2864
20
-58.8904
11
69.2866
21
-58.8879
0
LINE
8
BLACK
6
CONTINUOUS
10
69.2866
20
-58.8879
11
69.2862
21
-58.8854
0
LINE
8
BLACK
6
CONTINUOUS
10
69.2862
20
-58.8854
11
69.2862
21
-58.7818
0
LINE
8
BLACK
6
CONTINUOUS
10
69.2862
20
-58.7818
11
69.2869
21
-58.7781
0
LINE
8
BLACK
6
CONTINUOUS
10
69.2869
20
-58.7781
11
69.2866
21
-58.7743
0
LINE
8
BLACK
6
CONTINUOUS
10
69.2866
20
-58.7743
11
69.2873
21
-58.7668
0
LINE
8
BLACK
6
CONTINUOUS
10
69.2873
20
-58.7668
11
69.2866
21
-58.7593
0
LINE
8
BLACK
6
CONTINUOUS
10
69.2866
20
-58.7593
11
69.2866
21
-58.7593
0
LINE
8
BLACK
6
CONTINUOUS
10
69.2866
20
-58.7593
11
69.2829
21
-58.722
0
LINE
8
BLACK
6
CONTINUOUS
10
69.2829
20
-58.722
11
69.2698
21
-58.6789
0
LINE
8
BLACK
6
CONTINUOUS
10
69.2698
20
-58.6789
11
69.2486
21
-58.6392
0
LINE
8
BLACK
6
CONTINUOUS
10
69.2486
20
-58.6392
11
69.22
21
-58.6044
0
LINE
8
BLACK
6
CONTINUOUS
10
69.22
20
-58.6044
11
69.2142
21
-58.5996
0
LINE
8
BLACK
6
CONTINUOUS
10
69.2142
20
-58.5996
11
69.2118
21
-58.5968
0
LINE
8
BLACK
6
CONTINUOUS
10
69.2118
20
-58.5968
11
69.2087
21
-58.5946
0
LINE
8
BLACK
6
CONTINUOUS
10
69.2087
20
-58.5946
11
68.8195
21
-58.2054
0
LINE
8
BLACK
6
CONTINUOUS
10
68.8195
20
-58.2054
11
68.8173
21
-58.2024
0
LINE
8
BLACK
6
CONTINUOUS
10
68.8173
20
-58.2024
11
68.8145
21
-58.1999
0
LINE
8
BLACK
6
CONTINUOUS
10
68.8145
20
-58.1999
11
68.8097
21
-58.1941
0
LINE
8
BLACK
6
CONTINUOUS
10
68.8097
20
-58.1941
11
68.7749
21
-58.1655
0
LINE
8
BLACK
6
CONTINUOUS
10
68.7749
20
-58.1655
11
68.7352
21
-58.1443
0
LINE
8
BLACK
6
CONTINUOUS
10
68.7352
20
-58.1443
11
68.6921
21
-58.1312
0
LINE
8
BLACK
6
CONTINUOUS
10
68.6921
20
-58.1312
11
68.6548
21
-58.1275
0
LINE
8
BLACK
6
CONTINUOUS
10
68.6548
20
-58.1275
11
68.6548
21
-58.1275
0
LINE
8
BLACK
6
CONTINUOUS
10
68.6548
20
-58.1275
11
68.6473
21
-58.1268
0
LINE
8
BLACK
6
CONTINUOUS
10
68.6473
20
-58.1268
11
68.6398
21
-58.1275
0
LINE
8
BLACK
6
CONTINUOUS
10
68.6398
20
-58.1275
11
68.636
21
-58.1272
0
LINE
8
BLACK
6
CONTINUOUS
10
68.636
20
-58.1272
11
68.6323
21
-58.1279
0
LINE
8
BLACK
6
CONTINUOUS
10
68.6323
20
-58.1279
11
68.0914
21
-58.1279
0
LINE
8
BLACK
6
CONTINUOUS
10
68.0914
20
-58.1279
11
68.0836
21
-58.1265
0
LINE
8
BLACK
6
CONTINUOUS
10
68.0836
20
-58.1265
11
68.0757
21
-58.1263
0
LINE
8
BLACK
6
CONTINUOUS
10
68.0757
20
-58.1263
11
68.0707
21
-58.1242
0
LINE
8
BLACK
6
CONTINUOUS
10
68.0707
20
-58.1242
11
68.0654
21
-58.1233
0
LINE
8
BLACK
6
CONTINUOUS
10
68.0654
20
-58.1233
11
68.0585
21
-58.1193
0
LINE
8
BLACK
6
CONTINUOUS
10
68.0585
20
-58.1193
11
68.0512
21
-58.1164
0
LINE
8
BLACK
6
CONTINUOUS
10
68.0512
20
-58.1164
11
68.0471
21
-58.1128
0
LINE
8
BLACK
6
CONTINUOUS
10
68.0471
20
-58.1128
11
68.0425
21
-58.1101
0
LINE
8
BLACK
6
CONTINUOUS
10
68.0425
20
-58.1101
11
68.0374
21
-58.104
0
LINE
8
BLACK
6
CONTINUOUS
10
68.0374
20
-58.104
11
68.0315
21
-58.0987
0
LINE
8
BLACK
6
CONTINUOUS
10
68.0315
20
-58.0987
11
68.0289
21
-58.0939
0
LINE
8
BLACK
6
CONTINUOUS
10
68.0289
20
-58.0939
11
68.0254
21
-58.0898
0
LINE
8
BLACK
6
CONTINUOUS
10
68.0254
20
-58.0898
11
68.0249
21
-58.0884
0
LINE
8
BLACK
6
CONTINUOUS
10
68.0249
20
-58.0884
11
68.0247
21
-58.0882
0
LINE
8
BLACK
6
CONTINUOUS
10
68.0247
20
-58.0882
11
67.9829
21
-58.0138
0
LINE
8
BLACK
6
CONTINUOUS
10
67.9829
20
-58.0138
11
67.8671
21
-57.8485
0
LINE
8
BLACK
6
CONTINUOUS
10
67.8671
20
-57.8485
11
67.8164
21
-57.7894
0
LINE
8
BLACK
6
CONTINUOUS
10
67.8164
20
-57.7894
11
67.7347
21
-57.7252
0
LINE
8
BLACK
6
CONTINUOUS
10
67.7347
20
-57.7252
11
67.642
21
-57.6783
0
LINE
8
BLACK
6
CONTINUOUS
10
67.642
20
-57.6783
11
67.542
21
-57.6503
0
LINE
8
BLACK
6
CONTINUOUS
10
67.542
20
-57.6503
11
67.4384
21
-57.6424
0
LINE
8
BLACK
6
CONTINUOUS
10
67.4384
20
-57.6424
11
67.3352
21
-57.6548
0
LINE
8
BLACK
6
CONTINUOUS
10
67.3352
20
-57.6548
11
67.2365
21
-57.6871
0
LINE
8
BLACK
6
CONTINUOUS
10
67.2365
20
-57.6871
11
67.146
21
-57.7381
0
LINE
8
BLACK
6
CONTINUOUS
10
67.146
20
-57.7381
11
67.0671
21
-57.8057
0
LINE
8
BLACK
6
CONTINUOUS
10
67.0671
20
-57.8057
11
67.003
21
-57.8874
0
LINE
8
BLACK
6
CONTINUOUS
10
67.003
20
-57.8874
11
66.997
21
-57.8993
0
LINE
8
BLACK
6
CONTINUOUS
10
66.997
20
-57.8993
11
66.9945
21
-57.9027
0
LINE
8
BLACK
6
CONTINUOUS
10
66.9945
20
-57.9027
11
66.9928
21
-57.9065
0
LINE
8
BLACK
6
CONTINUOUS
10
66.9928
20
-57.9065
11
66.9866
21
-57.9132
0
LINE
8
BLACK
6
CONTINUOUS
10
66.9866
20
-57.9132
11
66.9811
21
-57.9205
0
LINE
8
BLACK
6
CONTINUOUS
10
66.9811
20
-57.9205
11
66.9776
21
-57.9228
0
LINE
8
BLACK
6
CONTINUOUS
10
66.9776
20
-57.9228
11
66.9747
21
-57.9258
0
LINE
8
BLACK
6
CONTINUOUS
10
66.9747
20
-57.9258
11
66.9666
21
-57.93
0
LINE
8
BLACK
6
CONTINUOUS
10
66.9666
20
-57.93
11
66.9589
21
-57.935
0
LINE
8
BLACK
6
CONTINUOUS
10
66.9589
20
-57.935
11
66.9548
21
-57.9359
0
LINE
8
BLACK
6
CONTINUOUS
10
66.9548
20
-57.9359
11
66.9511
21
-57.9378
0
LINE
8
BLACK
6
CONTINUOUS
10
66.9511
20
-57.9378
11
66.9421
21
-57.9389
0
LINE
8
BLACK
6
CONTINUOUS
10
66.9421
20
-57.9389
11
66.9332
21
-57.941
0
LINE
8
BLACK
6
CONTINUOUS
10
66.9332
20
-57.941
11
66.929
21
-57.9405
0
LINE
8
BLACK
6
CONTINUOUS
10
66.929
20
-57.9405
11
66.9248
21
-57.941
0
LINE
8
BLACK
6
CONTINUOUS
10
66.9248
20
-57.941
11
66.9159
21
-57.9389
0
LINE
8
BLACK
6
CONTINUOUS
10
66.9159
20
-57.9389
11
66.9069
21
-57.9378
0
LINE
8
BLACK
6
CONTINUOUS
10
66.9069
20
-57.9378
11
66.9031
21
-57.9359
0
LINE
8
BLACK
6
CONTINUOUS
10
66.9031
20
-57.9359
11
66.8991
21
-57.935
0
LINE
8
BLACK
6
CONTINUOUS
10
66.8991
20
-57.935
11
66.8914
21
-57.93
0
LINE
8
BLACK
6
CONTINUOUS
10
66.8914
20
-57.93
11
66.8833
21
-57.9258
0
LINE
8
BLACK
6
CONTINUOUS
10
66.8833
20
-57.9258
11
66.8804
21
-57.9228
0
LINE
8
BLACK
6
CONTINUOUS
10
66.8804
20
-57.9228
11
66.8769
21
-57.9205
0
LINE
8
BLACK
6
CONTINUOUS
10
66.8769
20
-57.9205
11
66.8714
21
-57.9132
0
LINE
8
BLACK
6
CONTINUOUS
10
66.8714
20
-57.9132
11
66.8652
21
-57.9065
0
LINE
8
BLACK
6
CONTINUOUS
10
66.8652
20
-57.9065
11
66.8635
21
-57.9027
0
LINE
8
BLACK
6
CONTINUOUS
10
66.8635
20
-57.9027
11
66.861
21
-57.8993
0
LINE
8
BLACK
6
CONTINUOUS
10
66.861
20
-57.8993
11
66.855
21
-57.8874
0
LINE
8
BLACK
6
CONTINUOUS
10
66.855
20
-57.8874
11
66.7909
21
-57.8057
0
LINE
8
BLACK
6
CONTINUOUS
10
66.7909
20
-57.8057
11
66.712
21
-57.7381
0
LINE
8
BLACK
6
CONTINUOUS
10
66.712
20
-57.7381
11
66.6215
21
-57.6871
0
LINE
8
BLACK
6
CONTINUOUS
10
66.6215
20
-57.6871
11
66.5228
21
-57.6548
0
LINE
8
BLACK
6
CONTINUOUS
10
66.5228
20
-57.6548
11
66.4196
21
-57.6424
0
LINE
8
BLACK
6
CONTINUOUS
10
66.4196
20
-57.6424
11
66.316
21
-57.6503
0
LINE
8
BLACK
6
CONTINUOUS
10
66.316
20
-57.6503
11
66.216
21
-57.6783
0
LINE
8
BLACK
6
CONTINUOUS
10
66.216
20
-57.6783
11
66.1233
21
-57.7252
0
LINE
8
BLACK
6
CONTINUOUS
10
66.1233
20
-57.7252
11
66.0416
21
-57.7894
0
LINE
8
BLACK
6
CONTINUOUS
10
66.0416
20
-57.7894
11
65.9909
21
-57.8485
0
LINE
8
BLACK
6
CONTINUOUS
10
65.9909
20
-57.8485
11
65.8751
21
-58.0138
0
LINE
8
BLACK
6
CONTINUOUS
10
65.8751
20
-58.0138
11
65.8369
21
-58.0816
0
LINE
8
BLACK
6
CONTINUOUS
10
65.8369
20
-58.0816
11
65.8046
21
-58.1804
0
LINE
8
BLACK
6
CONTINUOUS
10
65.8046
20
-58.1804
11
65.7922
21
-58.2835
0
LINE
8
BLACK
6
CONTINUOUS
10
65.7922
20
-58.2835
11
65.8004
21
-58.3901
0
LINE
8
BLACK
6
CONTINUOUS
10
65.8004
20
-58.3901
11
65.7996
21
-58.3977
0
LINE
8
BLACK
6
CONTINUOUS
10
65.7996
20
-58.3977
11
65.8
21
-58.4052
0
LINE
8
BLACK
6
CONTINUOUS
10
65.8
20
-58.4052
11
65.7983
21
-58.4107
0
LINE
8
BLACK
6
CONTINUOUS
10
65.7983
20
-58.4107
11
65.7978
21
-58.4165
0
LINE
8
BLACK
6
CONTINUOUS
10
65.7978
20
-58.4165
11
65.7945
21
-58.4233
0
LINE
8
BLACK
6
CONTINUOUS
10
65.7945
20
-58.4233
11
65.7923
21
-58.4305
0
LINE
8
BLACK
6
CONTINUOUS
10
65.7923
20
-58.4305
11
65.7888
21
-58.4351
0
LINE
8
BLACK
6
CONTINUOUS
10
65.7888
20
-58.4351
11
65.7863
21
-58.4403
0
LINE
8
BLACK
6
CONTINUOUS
10
65.7863
20
-58.4403
11
65.7809
21
-58.4456
0
LINE
8
BLACK
6
CONTINUOUS
10
65.7809
20
-58.4456
11
65.7764
21
-58.4517
0
LINE
8
BLACK
6
CONTINUOUS
10
65.7764
20
-58.4517
11
65.7715
21
-58.4548
0
LINE
8
BLACK
6
CONTINUOUS
10
65.7715
20
-58.4548
11
65.7674
21
-58.4589
0
LINE
8
BLACK
6
CONTINUOUS
10
65.7674
20
-58.4589
11
65.7605
21
-58.462
0
LINE
8
BLACK
6
CONTINUOUS
10
65.7605
20
-58.462
11
65.7542
21
-58.4661
0
LINE
8
BLACK
6
CONTINUOUS
10
65.7542
20
-58.4661
11
65.7485
21
-58.4674
0
LINE
8
BLACK
6
CONTINUOUS
10
65.7485
20
-58.4674
11
65.7433
21
-58.4698
0
LINE
8
BLACK
6
CONTINUOUS
10
65.7433
20
-58.4698
11
65.7358
21
-58.4704
0
LINE
8
BLACK
6
CONTINUOUS
10
65.7358
20
-58.4704
11
65.7284
21
-58.4721
0
LINE
8
BLACK
6
CONTINUOUS
10
65.7284
20
-58.4721
11
65.7227
21
-58.4714
0
LINE
8
BLACK
6
CONTINUOUS
10
65.7227
20
-58.4714
11
65.7169
21
-58.4718
0
LINE
8
BLACK
6
CONTINUOUS
10
65.7169
20
-58.4718
11
65.7096
21
-58.4698
0
LINE
8
BLACK
6
CONTINUOUS
10
65.7096
20
-58.4698
11
65.7021
21
-58.4688
0
LINE
8
BLACK
6
CONTINUOUS
10
65.7021
20
-58.4688
11
65.6879
21
-58.4645
0
LINE
8
BLACK
6
CONTINUOUS
10
65.6879
20
-58.4645
11
65.5764
21
-58.4533
0
LINE
8
BLACK
6
CONTINUOUS
10
65.5764
20
-58.4533
11
65.5565
21
-58.4533
0
LINE
8
BLACK
6
CONTINUOUS
10
65.5565
20
-58.4533
11
65.5565
21
-58.6565
0
LINE
8
BLACK
6
CONTINUOUS
10
65.5565
20
-58.6565
11
65.6096
21
-58.6565
0
LINE
8
BLACK
6
CONTINUOUS
10
65.6096
20
-58.6565
11
65.7006
21
-58.6725
0
LINE
8
BLACK
6
CONTINUOUS
10
65.7006
20
-58.6725
11
65.8074
21
-58.7342
0
LINE
8
BLACK
6
CONTINUOUS
10
65.8074
20
-58.7342
11
65.8868
21
-58.8288
0
LINE
8
BLACK
6
CONTINUOUS
10
65.8868
20
-58.8288
11
65.929
21
-58.9448
0
LINE
8
BLACK
6
CONTINUOUS
10
65.929
20
-58.9448
11
65.929
21
-59.0682
0
LINE
8
BLACK
6
CONTINUOUS
10
65.929
20
-59.0682
11
65.8868
21
-59.1842
0
LINE
8
BLACK
6
CONTINUOUS
10
65.8868
20
-59.1842
11
65.8074
21
-59.2788
0
LINE
8
BLACK
6
CONTINUOUS
10
65.8074
20
-59.2788
11
65.7006
21
-59.3405
0
LINE
8
BLACK
6
CONTINUOUS
10
65.7006
20
-59.3405
11
65.6096
21
-59.3565
0
LINE
8
BLACK
6
CONTINUOUS
10
65.6096
20
-59.3565
11
65.3484
21
-59.3565
0
LINE
8
BLACK
6
CONTINUOUS
10
65.3484
20
-59.3565
11
65.2574
21
-59.3405
0
LINE
8
BLACK
6
CONTINUOUS
10
65.2574
20
-59.3405
11
65.1506
21
-59.2788
0
LINE
8
BLACK
6
CONTINUOUS
10
65.1506
20
-59.2788
11
65.0712
21
-59.1842
0
LINE
8
BLACK
6
CONTINUOUS
10
65.0712
20
-59.1842
11
65.0347
21
-59.084
0
LINE
8
BLACK
6
CONTINUOUS
10
65.0347
20
-59.084
11
64.8615
21
-59.084
0
LINE
8
BLACK
6
CONTINUOUS
10
64.8615
20
-59.084
11
64.8387
21
-59.1203
0
LINE
8
BLACK
6
CONTINUOUS
10
64.8387
20
-59.1203
11
64.8682
21
-59.2184
0
LINE
8
BLACK
6
CONTINUOUS
10
64.8682
20
-59.2184
11
64.8691
21
-59.2253
0
LINE
8
BLACK
6
CONTINUOUS
10
64.8691
20
-59.2253
11
64.871
21
-59.2319
0
LINE
8
BLACK
6
CONTINUOUS
10
64.871
20
-59.2319
11
64.8706
21
-59.2383
0
LINE
8
BLACK
6
CONTINUOUS
10
64.8706
20
-59.2383
11
64.8714
21
-59.2447
0
LINE
8
BLACK
6
CONTINUOUS
10
64.8714
20
-59.2447
11
64.8698
21
-59.2514
0
LINE
8
BLACK
6
CONTINUOUS
10
64.8698
20
-59.2514
11
64.8693
21
-59.2584
0
LINE
8
BLACK
6
CONTINUOUS
10
64.8693
20
-59.2584
11
64.8668
21
-59.2642
0
LINE
8
BLACK
6
CONTINUOUS
10
64.8668
20
-59.2642
11
64.8653
21
-59.2705
0
LINE
8
BLACK
6
CONTINUOUS
10
64.8653
20
-59.2705
11
64.8615
21
-59.2763
0
LINE
8
BLACK
6
CONTINUOUS
10
64.8615
20
-59.2763
11
64.8587
21
-59.2826
0
LINE
8
BLACK
6
CONTINUOUS
10
64.8587
20
-59.2826
11
64.8543
21
-59.2872
0
LINE
8
BLACK
6
CONTINUOUS
10
64.8543
20
-59.2872
11
64.8508
21
-59.2926
0
LINE
8
BLACK
6
CONTINUOUS
10
64.8508
20
-59.2926
11
64.8452
21
-59.2967
0
LINE
8
BLACK
6
CONTINUOUS
10
64.8452
20
-59.2967
11
64.8405
21
-59.3018
0
LINE
8
BLACK
6
CONTINUOUS
10
64.8405
20
-59.3018
11
64.8347
21
-59.3046
0
LINE
8
BLACK
6
CONTINUOUS
10
64.8347
20
-59.3046
11
64.8296
21
-59.3084
0
LINE
8
BLACK
6
CONTINUOUS
10
64.8296
20
-59.3084
11
64.823
21
-59.3104
0
LINE
8
BLACK
6
CONTINUOUS
10
64.823
20
-59.3104
11
64.8168
21
-59.3135
0
LINE
8
BLACK
6
CONTINUOUS
10
64.8168
20
-59.3135
11
64.8104
21
-59.3142
0
LINE
8
BLACK
6
CONTINUOUS
10
64.8104
20
-59.3142
11
64.8042
21
-59.3161
0
LINE
8
BLACK
6
CONTINUOUS
10
64.8042
20
-59.3161
11
64.7973
21
-59.3157
0
LINE
8
BLACK
6
CONTINUOUS
10
64.7973
20
-59.3157
11
64.7905
21
-59.3164
0
LINE
8
BLACK
6
CONTINUOUS
10
64.7905
20
-59.3164
11
64.7333
21
-59.3128
0
LINE
8
BLACK
6
CONTINUOUS
10
64.7333
20
-59.3128
11
64.7236
21
-59.3104
0
LINE
8
BLACK
6
CONTINUOUS
10
64.7236
20
-59.3104
11
64.7137
21
-59.3089
0
LINE
8
BLACK
6
CONTINUOUS
10
64.7137
20
-59.3089
11
64.7108
21
-59.3073
0
LINE
8
BLACK
6
CONTINUOUS
10
64.7108
20
-59.3073
11
64.7076
21
-59.3066
0
LINE
8
BLACK
6
CONTINUOUS
10
64.7076
20
-59.3066
11
64.6992
21
-59.301
0
LINE
8
BLACK
6
CONTINUOUS
10
64.6992
20
-59.301
11
64.6904
21
-59.2962
0
LINE
8
BLACK
6
CONTINUOUS
10
64.6904
20
-59.2962
11
64.6883
21
-59.2937
0
LINE
8
BLACK
6
CONTINUOUS
10
64.6883
20
-59.2937
11
64.6856
21
-59.2919
0
LINE
8
BLACK
6
CONTINUOUS
10
64.6856
20
-59.2919
11
64.6796
21
-59.2838
0
LINE
8
BLACK
6
CONTINUOUS
10
64.6796
20
-59.2838
11
64.673
21
-59.2763
0
LINE
8
BLACK
6
CONTINUOUS
10
64.673
20
-59.2763
11
64.6718
21
-59.2732
0
LINE
8
BLACK
6
CONTINUOUS
10
64.6718
20
-59.2732
11
64.6699
21
-59.2706
0
LINE
8
BLACK
6
CONTINUOUS
10
64.6699
20
-59.2706
11
64.667
21
-59.261
0
LINE
8
BLACK
6
CONTINUOUS
10
64.667
20
-59.261
11
64.6634
21
-59.2516
0
LINE
8
BLACK
6
CONTINUOUS
10
64.6634
20
-59.2516
11
64.6602
21
-59.2354
0
LINE
8
BLACK
6
CONTINUOUS
10
64.6602
20
-59.2354
11
64.6185
21
-59.1348
0
LINE
8
BLACK
6
CONTINUOUS
10
64.6185
20
-59.1348
11
64.5581
21
-59.0444
0
LINE
8
BLACK
6
CONTINUOUS
10
64.5581
20
-59.0444
11
64.4811
21
-58.9674
0
LINE
8
BLACK
6
CONTINUOUS
10
64.4811
20
-58.9674
11
64.3907
21
-58.907
0
LINE
8
BLACK
6
CONTINUOUS
10
64.3907
20
-58.907
11
64.2832
21
-58.8625
0
LINE
8
BLACK
6
CONTINUOUS
10
64.2832
20
-58.8625
11
64.2828
21
-58.8622
0
LINE
8
BLACK
6
CONTINUOUS
10
64.2828
20
-58.8622
11
64.2792
21
-58.8613
0
LINE
8
BLACK
6
CONTINUOUS
10
64.2792
20
-58.8613
11
64.275
21
-58.8585
0
LINE
8
BLACK
6
CONTINUOUS
10
64.275
20
-58.8585
11
64.2703
21
-58.8567
0
LINE
8
BLACK
6
CONTINUOUS
10
64.2703
20
-58.8567
11
64.2641
21
-58.8512
0
LINE
8
BLACK
6
CONTINUOUS
10
64.2641
20
-58.8512
11
64.2572
21
-58.8466
0
LINE
8
BLACK
6
CONTINUOUS
10
64.2572
20
-58.8466
11
64.2542
21
-58.8426
0
LINE
8
BLACK
6
CONTINUOUS
10
64.2542
20
-58.8426
11
64.2504
21
-58.8393
0
LINE
8
BLACK
6
CONTINUOUS
10
64.2504
20
-58.8393
11
64.2464
21
-58.832
0
LINE
8
BLACK
6
CONTINUOUS
10
64.2464
20
-58.832
11
64.2415
21
-58.8253
0
LINE
8
BLACK
6
CONTINUOUS
10
64.2415
20
-58.8253
11
64.2401
21
-58.8204
0
LINE
8
BLACK
6
CONTINUOUS
10
64.2401
20
-58.8204
11
64.2377
21
-58.8161
0
LINE
8
BLACK
6
CONTINUOUS
10
64.2377
20
-58.8161
11
64.2364
21
-58.8078
0
LINE
8
BLACK
6
CONTINUOUS
10
64.2364
20
-58.8078
11
64.2341
21
-58.7999
0
LINE
8
BLACK
6
CONTINUOUS
10
64.2341
20
-58.7999
11
64.2344
21
-58.7949
0
LINE
8
BLACK
6
CONTINUOUS
10
64.2344
20
-58.7949
11
64.2337
21
-58.7899
0
LINE
8
BLACK
6
CONTINUOUS
10
64.2337
20
-58.7899
11
64.2353
21
-58.7817
0
LINE
8
BLACK
6
CONTINUOUS
10
64.2353
20
-58.7817
11
64.2358
21
-58.7734
0
LINE
8
BLACK
6
CONTINUOUS
10
64.2358
20
-58.7734
11
64.2379
21
-58.7689
0
LINE
8
BLACK
6
CONTINUOUS
10
64.2379
20
-58.7689
11
64.2388
21
-58.7639
0
LINE
8
BLACK
6
CONTINUOUS
10
64.2388
20
-58.7639
11
64.2431
21
-58.7568
0
LINE
8
BLACK
6
CONTINUOUS
10
64.2431
20
-58.7568
11
64.2465
21
-58.7492
0
LINE
8
BLACK
6
CONTINUOUS
10
64.2465
20
-58.7492
11
64.2708
21
-58.7129
0
LINE
8
BLACK
6
CONTINUOUS
10
64.2708
20
-58.7129
11
64.3275
21
-58.576
0
LINE
8
BLACK
6
CONTINUOUS
10
64.3275
20
-58.576
11
64.3564
21
-58.4306
0
LINE
8
BLACK
6
CONTINUOUS
10
64.3564
20
-58.4306
11
64.3564
21
-58.2824
0
LINE
8
BLACK
6
CONTINUOUS
10
64.3564
20
-58.2824
11
64.3275
21
-58.137
0
LINE
8
BLACK
6
CONTINUOUS
10
64.3275
20
-58.137
11
64.2708
21
-58.0001
0
LINE
8
BLACK
6
CONTINUOUS
10
64.2708
20
-58.0001
11
64.1884
21
-57.8769
0
LINE
8
BLACK
6
CONTINUOUS
10
64.1884
20
-57.8769
11
64.0836
21
-57.7721
0
LINE
8
BLACK
6
CONTINUOUS
10
64.0836
20
-57.7721
11
63.9604
21
-57.6897
0
LINE
8
BLACK
6
CONTINUOUS
10
63.9604
20
-57.6897
11
63.8235
21
-57.633
0
LINE
8
BLACK
6
CONTINUOUS
10
63.8235
20
-57.633
11
63.6781
21
-57.6041
0
LINE
8
BLACK
6
CONTINUOUS
10
63.6781
20
-57.6041
11
63.5299
21
-57.6041
0
LINE
8
BLACK
6
CONTINUOUS
10
63.5299
20
-57.6041
11
63.3845
21
-57.633
0
LINE
8
BLACK
6
CONTINUOUS
10
63.3845
20
-57.633
11
63.2476
21
-57.6897
0
LINE
8
BLACK
6
CONTINUOUS
10
63.2476
20
-57.6897
11
63.1578
21
-57.7498
0
LINE
8
BLACK
6
CONTINUOUS
10
63.1578
20
-57.7498
11
63.1555
21
-57.7507
0
LINE
8
BLACK
6
CONTINUOUS
10
63.1555
20
-57.7507
11
63.1537
21
-57.7523
0
LINE
8
BLACK
6
CONTINUOUS
10
63.1537
20
-57.7523
11
63.1435
21
-57.756
0
LINE
8
BLACK
6
CONTINUOUS
10
63.1435
20
-57.756
11
63.1335
21
-57.7604
0
LINE
8
BLACK
6
CONTINUOUS
10
63.1335
20
-57.7604
11
63.1311
21
-57.7606
0
LINE
8
BLACK
6
CONTINUOUS
10
63.1311
20
-57.7606
11
63.1288
21
-57.7614
0
LINE
8
BLACK
6
CONTINUOUS
10
63.1288
20
-57.7614
11
63.118
21
-57.7614
0
LINE
8
BLACK
6
CONTINUOUS
10
63.118
20
-57.7614
11
63.1071
21
-57.7622
0
LINE
8
BLACK
6
CONTINUOUS
10
63.1071
20
-57.7622
11
63.1048
21
-57.7615
0
LINE
8
BLACK
6
CONTINUOUS
10
63.1048
20
-57.7615
11
63.1024
21
-57.7615
0
LINE
8
BLACK
6
CONTINUOUS
10
63.1024
20
-57.7615
11
63.0921
21
-57.7578
0
LINE
8
BLACK
6
CONTINUOUS
10
63.0921
20
-57.7578
11
63.0817
21
-57.7547
0
LINE
8
BLACK
6
CONTINUOUS
10
63.0817
20
-57.7547
11
63.0798
21
-57.7533
0
LINE
8
BLACK
6
CONTINUOUS
10
63.0798
20
-57.7533
11
63.0775
21
-57.7525
0
LINE
8
BLACK
6
CONTINUOUS
10
63.0775
20
-57.7525
11
63.0691
21
-57.7455
0
LINE
8
BLACK
6
CONTINUOUS
10
63.0691
20
-57.7455
11
63.0604
21
-57.7391
0
LINE
8
BLACK
6
CONTINUOUS
10
63.0604
20
-57.7391
11
63.059
21
-57.7371
0
LINE
8
BLACK
6
CONTINUOUS
10
63.059
20
-57.7371
11
63.0572
21
-57.7355
0
LINE
8
BLACK
6
CONTINUOUS
10
63.0572
20
-57.7355
11
63.0517
21
-57.7261
0
LINE
8
BLACK
6
CONTINUOUS
10
63.0517
20
-57.7261
11
63.0457
21
-57.7171
0
LINE
8
BLACK
6
CONTINUOUS
10
63.0457
20
-57.7171
11
63.0451
21
-57.7147
0
LINE
8
BLACK
6
CONTINUOUS
10
63.0451
20
-57.7147
11
63.0439
21
-57.7126
0
LINE
8
BLACK
6
CONTINUOUS
10
63.0439
20
-57.7126
11
63.042
21
-57.7019
0
LINE
8
BLACK
6
CONTINUOUS
10
63.042
20
-57.7019
11
63.0394
21
-57.6914
0
LINE
8
BLACK
6
CONTINUOUS
10
63.0394
20
-57.6914
11
63.0397
21
-57.689
0
LINE
8
BLACK
6
CONTINUOUS
10
63.0397
20
-57.689
11
63.0392
21
-57.6866
0
LINE
8
BLACK
6
CONTINUOUS
10
63.0392
20
-57.6866
11
63.0386
21
-57.3967
0
LINE
8
BLACK
6
CONTINUOUS
10
63.0386
20
-57.3967
11
63.0369
21
-56.5791
0
LINE
8
BLACK
6
CONTINUOUS
10
63.0369
20
-56.5791
11
63.0381
21
-56.5724
0
LINE
8
BLACK
6
CONTINUOUS
10
63.0381
20
-56.5724
11
63.0381
21
-56.5657
0
LINE
8
BLACK
6
CONTINUOUS
10
63.0381
20
-56.5657
11
63.0403
21
-56.5595
0
LINE
8
BLACK
6
CONTINUOUS
10
63.0403
20
-56.5595
11
63.0414
21
-56.553
0
LINE
8
BLACK
6
CONTINUOUS
10
63.0414
20
-56.553
11
63.0448
21
-56.5472
0
LINE
8
BLACK
6
CONTINUOUS
10
63.0448
20
-56.5472
11
63.0471
21
-56.5408
0
LINE
8
BLACK
6
CONTINUOUS
10
63.0471
20
-56.5408
11
63.0513
21
-56.5358
0
LINE
8
BLACK
6
CONTINUOUS
10
63.0513
20
-56.5358
11
63.0546
21
-56.5301
0
LINE
8
BLACK
6
CONTINUOUS
10
63.0546
20
-56.5301
11
63.0598
21
-56.5257
0
LINE
8
BLACK
6
CONTINUOUS
10
63.0598
20
-56.5257
11
63.0641
21
-56.5205
0
LINE
8
BLACK
6
CONTINUOUS
10
63.0641
20
-56.5205
11
63.0698
21
-56.5173
0
LINE
8
BLACK
6
CONTINUOUS
10
63.0698
20
-56.5173
11
63.0749
21
-56.513
0
LINE
8
BLACK
6
CONTINUOUS
10
63.0749
20
-56.513
11
63.0812
21
-56.5107
0
LINE
8
BLACK
6
CONTINUOUS
10
63.0812
20
-56.5107
11
63.087
21
-56.5073
0
LINE
8
BLACK
6
CONTINUOUS
10
63.087
20
-56.5073
11
63.0935
21
-56.5062
0
LINE
8
BLACK
6
CONTINUOUS
10
63.0935
20
-56.5062
11
63.0997
21
-56.5039
0
LINE
8
BLACK
6
CONTINUOUS
10
63.0997
20
-56.5039
11
63.1065
21
-56.5039
0
LINE
8
BLACK
6
CONTINUOUS
10
63.1065
20
-56.5039
11
63.1131
21
-56.5027
0
LINE
8
BLACK
6
CONTINUOUS
10
63.1131
20
-56.5027
11
76.297
21
-56.5027
0
LINE
8
BLACK
6
CONTINUOUS
10
76.297
20
-56.5027
11
76.3034
21
-56.5039
0
LINE
8
BLACK
6
CONTINUOUS
10
76.3034
20
-56.5039
11
76.3099
21
-56.5038
0
LINE
8
BLACK
6
CONTINUOUS
10
76.3099
20
-56.5038
11
76.3163
21
-56.5061
0
LINE
8
BLACK
6
CONTINUOUS
10
76.3163
20
-56.5061
11
76.3231
21
-56.5073
0
LINE
8
BLACK
6
CONTINUOUS
10
76.3231
20
-56.5073
11
76.3287
21
-56.5106
0
LINE
8
BLACK
6
CONTINUOUS
10
76.3287
20
-56.5106
11
76.3348
21
-56.5128
0
LINE
8
BLACK
6
CONTINUOUS
10
76.3348
20
-56.5128
11
76.3401
21
-56.5171
0
LINE
8
BLACK
6
CONTINUOUS
10
76.3401
20
-56.5171
11
76.346
21
-56.5205
0
LINE
8
BLACK
6
CONTINUOUS
10
76.346
20
-56.5205
11
76.3502
21
-56.5255
0
LINE
8
BLACK
6
CONTINUOUS
10
76.3502
20
-56.5255
11
76.3552
21
-56.5297
0
LINE
8
BLACK
6
CONTINUOUS
10
76.3552
20
-56.5297
11
76.3586
21
-56.5356
0
LINE
8
BLACK
6
CONTINUOUS
10
76.3586
20
-56.5356
11
76.363
21
-56.5408
0
LINE
8
BLACK
6
CONTINUOUS
10
76.363
20
-56.5408
11
76.3652
21
-56.5469
0
LINE
8
BLACK
6
CONTINUOUS
10
76.3652
20
-56.5469
11
76.3685
21
-56.5526
0
LINE
8
BLACK
6
CONTINUOUS
10
76.3685
20
-56.5526
11
76.3697
21
-56.5593
0
LINE
8
BLACK
6
CONTINUOUS
10
76.3697
20
-56.5593
11
76.372
21
-56.5657
0
LINE
8
BLACK
6
CONTINUOUS
10
76.372
20
-56.5657
11
76.372
21
-56.5722
0
LINE
8
BLACK
6
CONTINUOUS
10
76.372
20
-56.5722
11
76.3732
21
-56.5786
0
LINE
8
BLACK
6
CONTINUOUS
10
76.3732
20
-56.5786
11
76.3734
21
-56.6388
0
LINE
8
BLACK
6
CONTINUOUS
10
76.3734
20
-56.6388
11
76.3723
21
-56.6455
0
LINE
8
BLACK
6
CONTINUOUS
10
76.3723
20
-56.6455
11
76.3723
21
-56.6523
0
LINE
8
BLACK
6
CONTINUOUS
10
76.3723
20
-56.6523
11
76.3701
21
-56.6584
0
LINE
8
BLACK
6
CONTINUOUS
10
76.3701
20
-56.6584
11
76.3689
21
-56.6649
0
LINE
8
BLACK
6
CONTINUOUS
10
76.3689
20
-56.6649
11
76.3656
21
-56.6708
0
LINE
8
BLACK
6
CONTINUOUS
10
76.3656
20
-56.6708
11
76.3632
21
-56.6772
0
LINE
8
BLACK
6
CONTINUOUS
10
76.3632
20
-56.6772
11
76.359
21
-56.6822
0
LINE
8
BLACK
6
CONTINUOUS
10
76.359
20
-56.6822
11
76.3558
21
-56.6878
0
LINE
8
BLACK
6
CONTINUOUS
10
76.3558
20
-56.6878
11
76.3506
21
-56.6922
0
LINE
8
BLACK
6
CONTINUOUS
10
76.3506
20
-56.6922
11
76.3462
21
-56.6975
0
LINE
8
BLACK
6
CONTINUOUS
10
76.3462
20
-56.6975
11
76.3406
21
-56.7007
0
LINE
8
BLACK
6
CONTINUOUS
10
76.3406
20
-56.7007
11
76.3356
21
-56.7049
0
LINE
8
BLACK
6
CONTINUOUS
10
76.3356
20
-56.7049
11
76.3292
21
-56.7073
0
LINE
8
BLACK
6
CONTINUOUS
10
76.3292
20
-56.7073
11
76.3233
21
-56.7107
0
LINE
8
BLACK
6
CONTINUOUS
10
76.3233
20
-56.7107
11
76.3169
21
-56.7118
0
LINE
8
BLACK
6
CONTINUOUS
10
76.3169
20
-56.7118
11
76.3108
21
-56.7141
0
LINE
8
BLACK
6
CONTINUOUS
10
76.3108
20
-56.7141
11
76.304
21
-56.7141
0
LINE
8
BLACK
6
CONTINUOUS
10
76.304
20
-56.7141
11
76.2972
21
-56.7153
0
LINE
8
BLACK
6
CONTINUOUS
10
76.2972
20
-56.7153
11
76.2355
21
-56.7153
0
LINE
8
BLACK
6
CONTINUOUS
10
76.2355
20
-56.7153
11
76.2036
21
-56.7184
0
LINE
8
BLACK
6
CONTINUOUS
10
76.2036
20
-56.7184
11
76.1909
21
-56.7175
0
LINE
8
BLACK
6
CONTINUOUS
10
76.1909
20
-56.7175
11
76.1781
21
-56.7166
0
LINE
8
BLACK
6
CONTINUOUS
10
76.1781
20
-56.7166
11
76.1777
21
-56.7164
0
LINE
8
BLACK
6
CONTINUOUS
10
76.1777
20
-56.7164
11
76.1773
21
-56.7164
0
LINE
8
BLACK
6
CONTINUOUS
10
76.1773
20
-56.7164
11
76.1656
21
-56.7111
0
LINE
8
BLACK
6
CONTINUOUS
10
76.1656
20
-56.7111
11
76.1538
21
-56.706
0
LINE
8
BLACK
6
CONTINUOUS
10
76.1538
20
-56.706
11
76.1281
21
-56.6887
0
LINE
8
BLACK
6
CONTINUOUS
10
76.1281
20
-56.6887
11
76.0911
21
-56.6734
0
LINE
8
BLACK
6
CONTINUOUS
10
76.0911
20
-56.6734
11
76.0518
21
-56.6656
0
LINE
8
BLACK
6
CONTINUOUS
10
76.0518
20
-56.6656
11
75.9845
21
-56.6656
0
LINE
8
BLACK
6
CONTINUOUS
10
75.9845
20
-56.6656
11
75.9593
21
-56.6908
0
LINE
8
BLACK
6
CONTINUOUS
10
75.9593
20
-56.6908
11
75.9593
21
-56.8688
0
LINE
8
BLACK
6
CONTINUOUS
10
75.9593
20
-56.8688
11
76.0318
21
-56.8688
0
LINE
8
BLACK
6
CONTINUOUS
10
76.0318
20
-56.8688
11
76.0318
21
-57.7688
0
LINE
8
BLACK
6
CONTINUOUS
10
76.0318
20
-57.7688
11
75.7318
21
-57.7688
0
LINE
8
BLACK
6
CONTINUOUS
10
75.7318
20
-57.7688
11
75.7318
21
-57.3963
0
LINE
8
BLACK
6
CONTINUOUS
10
75.7318
20
-57.3963
11
75.5318
21
-57.3963
0
LINE
8
BLACK
6
CONTINUOUS
10
75.5318
20
-57.3963
11
75.5318
21
-57.7688
0
LINE
8
BLACK
6
CONTINUOUS
10
75.5318
20
-57.7688
11
75.4593
21
-57.7688
0
LINE
8
BLACK
6
CONTINUOUS
10
75.4593
20
-57.7688
11
75.4593
21
-57.9468
0
LINE
8
BLACK
6
CONTINUOUS
10
75.4593
20
-57.9468
11
75.4845
21
-57.972
0
LINE
8
BLACK
6
CONTINUOUS
10
75.4845
20
-57.972
11
75.5518
21
-57.972
0
LINE
8
BLACK
6
CONTINUOUS
10
75.5518
20
-57.972
11
75.5911
21
-57.9642
0
LINE
8
BLACK
6
CONTINUOUS
10
75.5911
20
-57.9642
11
75.6026
21
-57.9594
0
LINE
8
BLACK
6
CONTINUOUS
10
75.6026
20
-57.9594
11
75.6059
21
-57.9587
0
LINE
8
BLACK
6
CONTINUOUS
10
75.6059
20
-57.9587
11
75.6089
21
-57.9571
0
LINE
8
BLACK
6
CONTINUOUS
10
75.6089
20
-57.9571
11
75.6188
21
-57.9558
0
LINE
8
BLACK
6
CONTINUOUS
10
75.6188
20
-57.9558
11
75.6285
21
-57.9537
0
LINE
8
BLACK
6
CONTINUOUS
10
75.6285
20
-57.9537
11
75.6318
21
-57.9541
0
LINE
8
BLACK
6
CONTINUOUS
10
75.6318
20
-57.9541
11
75.6351
21
-57.9537
0
LINE
8
BLACK
6
CONTINUOUS
10
75.6351
20
-57.9537
11
75.6448
21
-57.9558
0
LINE
8
BLACK
6
CONTINUOUS
10
75.6448
20
-57.9558
11
75.6547
21
-57.9571
0
LINE
8
BLACK
6
CONTINUOUS
10
75.6547
20
-57.9571
11
75.6577
21
-57.9587
0
LINE
8
BLACK
6
CONTINUOUS
10
75.6577
20
-57.9587
11
75.661
21
-57.9594
0
LINE
8
BLACK
6
CONTINUOUS
10
75.661
20
-57.9594
11
75.6725
21
-57.9642
0
LINE
8
BLACK
6
CONTINUOUS
10
75.6725
20
-57.9642
11
75.7118
21
-57.972
0
LINE
8
BLACK
6
CONTINUOUS
10
75.7118
20
-57.972
11
75.7328
21
-57.972
0
LINE
8
BLACK
6
CONTINUOUS
10
75.7328
20
-57.972
11
75.7426
21
-57.9737
0
LINE
8
BLACK
6
CONTINUOUS
10
75.7426
20
-57.9737
11
75.7526
21
-57.9746
0
LINE
8
BLACK
6
CONTINUOUS
10
75.7526
20
-57.9746
11
75.7556
21
-57.976
0
LINE
8
BLACK
6
CONTINUOUS
10
75.7556
20
-57.976
11
75.7589
21
-57.9766
0
LINE
8
BLACK
6
CONTINUOUS
10
75.7589
20
-57.9766
11
75.7675
21
-57.9816
0
LINE
8
BLACK
6
CONTINUOUS
10
75.7675
20
-57.9816
11
75.7765
21
-57.9858
0
LINE
8
BLACK
6
CONTINUOUS
10
75.7765
20
-57.9858
11
75.7789
21
-57.9881
0
LINE
8
BLACK
6
CONTINUOUS
10
75.7789
20
-57.9881
11
75.7818
21
-57.9898
0
LINE
8
BLACK
6
CONTINUOUS
10
75.7818
20
-57.9898
11
75.7882
21
-57.9975
0
LINE
8
BLACK
6
CONTINUOUS
10
75.7882
20
-57.9975
11
75.7952
21
-58.0045
0
LINE
8
BLACK
6
CONTINUOUS
10
75.7952
20
-58.0045
11
75.7967
21
-58.0075
0
LINE
8
BLACK
6
CONTINUOUS
10
75.7967
20
-58.0075
11
75.7988
21
-58.0101
0
LINE
8
BLACK
6
CONTINUOUS
10
75.7988
20
-58.0101
11
75.8022
21
-58.0195
0
LINE
8
BLACK
6
CONTINUOUS
10
75.8022
20
-58.0195
11
75.8064
21
-58.0285
0
LINE
8
BLACK
6
CONTINUOUS
10
75.8064
20
-58.0285
11
75.8067
21
-58.0318
0
LINE
8
BLACK
6
CONTINUOUS
10
75.8067
20
-58.0318
11
75.8079
21
-58.035
0
LINE
8
BLACK
6
CONTINUOUS
10
75.8079
20
-58.035
11
75.8079
21
-58.0449
0
LINE
8
BLACK
6
CONTINUOUS
10
75.8079
20
-58.0449
11
75.8087
21
-58.0548
0
LINE
8
BLACK
6
CONTINUOUS
10
75.8087
20
-58.0548
11
75.8079
21
-58.0581
0
LINE
8
BLACK
6
CONTINUOUS
10
75.8079
20
-58.0581
11
75.8079
21
-58.0614
0
LINE
8
BLACK
6
CONTINUOUS
10
75.8079
20
-58.0614
11
75.8045
21
-58.0708
0
LINE
8
BLACK
6
CONTINUOUS
10
75.8045
20
-58.0708
11
75.8019
21
-58.0804
0
LINE
8
BLACK
6
CONTINUOUS
10
75.8019
20
-58.0804
11
75.8
21
-58.0832
0
LINE
8
BLACK
6
CONTINUOUS
10
75.8
20
-58.0832
11
75.7988
21
-58.0863
0
LINE
8
BLACK
6
CONTINUOUS
10
75.7988
20
-58.0863
11
75.7924
21
-58.0939
0
LINE
8
BLACK
6
CONTINUOUS
10
75.7924
20
-58.0939
11
75.7867
21
-58.1021
0
LINE
8
BLACK
6
CONTINUOUS
10
75.7867
20
-58.1021
11
75.5343
21
-58.3545
0
LINE
8
BLACK
6
CONTINUOUS
10
75.5343
20
-58.3545
11
75.5316
21
-58.3564
0
LINE
8
BLACK
6
CONTINUOUS
10
75.5316
20
-58.3564
11
75.5294
21
-58.359
0
LINE
8
BLACK
6
CONTINUOUS
10
75.5294
20
-58.359
11
75.5208
21
-58.364
0
LINE
8
BLACK
6
CONTINUOUS
10
75.5208
20
-58.364
11
75.5126
21
-58.3697
0
LINE
8
BLACK
6
CONTINUOUS
10
75.5126
20
-58.3697
11
75.5094
21
-58.3705
0
LINE
8
BLACK
6
CONTINUOUS
10
75.5094
20
-58.3705
11
75.5065
21
-58.3722
0
LINE
8
BLACK
6
CONTINUOUS
10
75.5065
20
-58.3722
11
75.4967
21
-58.3739
0
LINE
8
BLACK
6
CONTINUOUS
10
75.4967
20
-58.3739
11
75.4871
21
-58.3765
0
LINE
8
BLACK
6
CONTINUOUS
10
75.4871
20
-58.3765
11
75.4837
21
-58.3762
0
LINE
8
BLACK
6
CONTINUOUS
10
75.4837
20
-58.3762
11
75.4804
21
-58.3768
0
LINE
8
BLACK
6
CONTINUOUS
10
75.4804
20
-58.3768
11
73.4471
21
-58.3768
0
LINE
8
BLACK
6
CONTINUOUS
10
73.4471
20
-58.3768
11
73.4434
21
-58.3762
0
LINE
8
BLACK
6
CONTINUOUS
10
73.4434
20
-58.3762
11
73.4397
21
-58.3764
0
LINE
8
BLACK
6
CONTINUOUS
10
73.4397
20
-58.3764
11
73.4322
21
-58.3757
0
LINE
8
BLACK
6
CONTINUOUS
10
73.4322
20
-58.3757
11
73.4247
21
-58.3764
0
LINE
8
BLACK
6
CONTINUOUS
10
73.4247
20
-58.3764
11
73.4247
21
-58.3764
0
LINE
8
BLACK
6
CONTINUOUS
10
73.4247
20
-58.3764
11
73.3874
21
-58.3801
0
LINE
8
BLACK
6
CONTINUOUS
10
65.3816
20
-58.4533
11
65.2701
21
-58.4645
0
LINE
8
BLACK
6
CONTINUOUS
10
65.2701
20
-58.4645
11
65.1664
21
-58.4962
0
LINE
8
BLACK
6
CONTINUOUS
10
65.1664
20
-58.4962
11
65.0709
21
-58.5475
0
LINE
8
BLACK
6
CONTINUOUS
10
65.0709
20
-58.5475
11
64.9873
21
-58.6164
0
LINE
8
BLACK
6
CONTINUOUS
10
64.9873
20
-58.6164
11
64.9187
21
-58.7003
0
LINE
8
BLACK
6
CONTINUOUS
10
64.9187
20
-58.7003
11
64.8678
21
-58.796
0
LINE
8
BLACK
6
CONTINUOUS
10
64.8678
20
-58.796
11
64.8387
21
-58.8927
0
LINE
8
BLACK
6
CONTINUOUS
10
64.8387
20
-58.8927
11
64.8615
21
-58.929
0
LINE
8
BLACK
6
CONTINUOUS
10
64.8615
20
-58.929
11
65.0347
21
-58.929
0
LINE
8
BLACK
6
CONTINUOUS
10
65.0347
20
-58.929
11
65.0712
21
-58.8288
0
LINE
8
BLACK
6
CONTINUOUS
10
65.0712
20
-58.8288
11
65.1506
21
-58.7342
0
LINE
8
BLACK
6
CONTINUOUS
10
65.1506
20
-58.7342
11
65.2574
21
-58.6725
0
LINE
8
BLACK
6
CONTINUOUS
10
65.2574
20
-58.6725
11
65.3484
21
-58.6565
0
LINE
8
BLACK
6
CONTINUOUS
10
65.3484
20
-58.6565
11
65.4015
21
-58.6565
0
LINE
8
BLACK
6
CONTINUOUS
10
65.4015
20
-58.6565
11
65.4015
21
-58.4533
0
LINE
8
BLACK
6
CONTINUOUS
10
65.4015
20
-58.4533
11
65.3816
21
-58.4533
0
LINE
8
BLACK
6
CONTINUOUS
10
75.0318
20
-57.3963
11
75.0318
21
-57.7688
0
LINE
8
BLACK
6
CONTINUOUS
10
75.0318
20
-57.7688
11
74.9593
21
-57.7688
0
LINE
8
BLACK
6
CONTINUOUS
10
74.9593
20
-57.7688
11
74.9593
21
-57.9468
0
LINE
8
BLACK
6
CONTINUOUS
10
74.9593
20
-57.9468
11
74.9845
21
-57.972
0
LINE
8
BLACK
6
CONTINUOUS
10
74.9845
20
-57.972
11
75.0518
21
-57.972
0
LINE
8
BLACK
6
CONTINUOUS
10
75.0518
20
-57.972
11
75.0911
21
-57.9642
0
LINE
8
BLACK
6
CONTINUOUS
10
75.0911
20
-57.9642
11
75.1026
21
-57.9594
0
LINE
8
BLACK
6
CONTINUOUS
10
75.1026
20
-57.9594
11
75.1059
21
-57.9587
0
LINE
8
BLACK
6
CONTINUOUS
10
75.1059
20
-57.9587
11
75.1089
21
-57.9571
0
LINE
8
BLACK
6
CONTINUOUS
10
75.1089
20
-57.9571
11
75.1188
21
-57.9558
0
LINE
8
BLACK
6
CONTINUOUS
10
75.1188
20
-57.9558
11
75.1285
21
-57.9537
0
LINE
8
BLACK
6
CONTINUOUS
10
75.1285
20
-57.9537
11
75.1318
21
-57.9541
0
LINE
8
BLACK
6
CONTINUOUS
10
75.1318
20
-57.9541
11
75.1351
21
-57.9537
0
LINE
8
BLACK
6
CONTINUOUS
10
75.1351
20
-57.9537
11
75.1448
21
-57.9558
0
LINE
8
BLACK
6
CONTINUOUS
10
75.1448
20
-57.9558
11
75.1547
21
-57.9571
0
LINE
8
BLACK
6
CONTINUOUS
10
75.1547
20
-57.9571
11
75.1577
21
-57.9587
0
LINE
8
BLACK
6
CONTINUOUS
10
75.1577
20
-57.9587
11
75.161
21
-57.9594
0
LINE
8
BLACK
6
CONTINUOUS
10
75.161
20
-57.9594
11
75.1725
21
-57.9642
0
LINE
8
BLACK
6
CONTINUOUS
10
75.1725
20
-57.9642
11
75.2118
21
-57.972
0
LINE
8
BLACK
6
CONTINUOUS
10
75.2118
20
-57.972
11
75.2791
21
-57.972
0
LINE
8
BLACK
6
CONTINUOUS
10
75.2791
20
-57.972
11
75.3043
21
-57.9468
0
LINE
8
BLACK
6
CONTINUOUS
10
75.3043
20
-57.9468
11
75.3043
21
-57.7688
0
LINE
8
BLACK
6
CONTINUOUS
10
75.3043
20
-57.7688
11
75.2318
21
-57.7688
0
LINE
8
BLACK
6
CONTINUOUS
10
75.2318
20
-57.7688
11
75.2318
21
-57.3963
0
LINE
8
BLACK
6
CONTINUOUS
10
75.2318
20
-57.3963
11
75.0318
21
-57.3963
0
LINE
8
BLACK
6
CONTINUOUS
10
74.7118
20
-56.6656
11
74.6725
21
-56.6734
0
LINE
8
BLACK
6
CONTINUOUS
10
74.6725
20
-56.6734
11
74.6355
21
-56.6887
0
LINE
8
BLACK
6
CONTINUOUS
10
74.6355
20
-56.6887
11
74.6098
21
-56.706
0
LINE
8
BLACK
6
CONTINUOUS
10
74.6098
20
-56.706
11
74.598
21
-56.7111
0
LINE
8
BLACK
6
CONTINUOUS
10
74.598
20
-56.7111
11
74.5863
21
-56.7164
0
LINE
8
BLACK
6
CONTINUOUS
10
74.5863
20
-56.7164
11
74.5859
21
-56.7164
0
LINE
8
BLACK
6
CONTINUOUS
10
74.5859
20
-56.7164
11
74.5855
21
-56.7166
0
LINE
8
BLACK
6
CONTINUOUS
10
74.5855
20
-56.7166
11
74.5727
21
-56.7175
0
LINE
8
BLACK
6
CONTINUOUS
10
74.5727
20
-56.7175
11
74.56
21
-56.7184
0
LINE
8
BLACK
6
CONTINUOUS
10
74.56
20
-56.7184
11
74.5281
21
-56.7153
0
LINE
8
BLACK
6
CONTINUOUS
10
74.5281
20
-56.7153
11
74.2355
21
-56.7153
0
LINE
8
BLACK
6
CONTINUOUS
10
74.2355
20
-56.7153
11
74.2019
21
-56.7186
0
LINE
8
BLACK
6
CONTINUOUS
10
74.2019
20
-56.7186
11
74.1732
21
-56.7273
0
LINE
8
BLACK
6
CONTINUOUS
10
74.1732
20
-56.7273
11
74.1467
21
-56.7415
0
LINE
8
BLACK
6
CONTINUOUS
10
74.1467
20
-56.7415
11
74.1235
21
-56.7605
0
LINE
8
BLACK
6
CONTINUOUS
10
74.1235
20
-56.7605
11
74.1045
21
-56.7837
0
LINE
8
BLACK
6
CONTINUOUS
10
74.1045
20
-56.7837
11
74.0903
21
-56.8102
0
LINE
8
BLACK
6
CONTINUOUS
10
74.0903
20
-56.8102
11
74.0816
21
-56.8389
0
LINE
8
BLACK
6
CONTINUOUS
10
74.0816
20
-56.8389
11
74.0783
21
-56.8725
0
LINE
8
BLACK
6
CONTINUOUS
10
74.0783
20
-56.8725
11
74.0783
21
-57.114
0
LINE
8
BLACK
6
CONTINUOUS
10
74.0783
20
-57.114
11
74.0771
21
-57.1206
0
LINE
8
BLACK
6
CONTINUOUS
10
74.0771
20
-57.1206
11
74.0771
21
-57.1272
0
LINE
8
BLACK
6
CONTINUOUS
10
74.0771
20
-57.1272
11
74.0749
21
-57.1335
0
LINE
8
BLACK
6
CONTINUOUS
10
74.0749
20
-57.1335
11
74.0737
21
-57.1401
0
LINE
8
BLACK
6
CONTINUOUS
10
74.0737
20
-57.1401
11
74.0704
21
-57.1458
0
LINE
8
BLACK
6
CONTINUOUS
10
74.0704
20
-57.1458
11
74.0681
21
-57.1521
0
LINE
8
BLACK
6
CONTINUOUS
10
74.0681
20
-57.1521
11
74.0638
21
-57.1572
0
LINE
8
BLACK
6
CONTINUOUS
10
74.0638
20
-57.1572
11
74.0605
21
-57.163
0
LINE
8
BLACK
6
CONTINUOUS
10
74.0605
20
-57.163
11
74.0554
21
-57.1673
0
LINE
8
BLACK
6
CONTINUOUS
10
74.0554
20
-57.1673
11
74.0511
21
-57.1724
0
LINE
8
BLACK
6
CONTINUOUS
10
74.0511
20
-57.1724
11
74.0453
21
-57.1757
0
LINE
8
BLACK
6
CONTINUOUS
10
74.0453
20
-57.1757
11
74.0402
21
-57.18
0
LINE
8
BLACK
6
CONTINUOUS
10
74.0402
20
-57.18
11
74.0339
21
-57.1823
0
LINE
8
BLACK
6
CONTINUOUS
10
74.0339
20
-57.1823
11
74.0282
21
-57.1856
0
LINE
8
BLACK
6
CONTINUOUS
10
74.0282
20
-57.1856
11
74.0216
21
-57.1868
0
LINE
8
BLACK
6
CONTINUOUS
10
74.0216
20
-57.1868
11
74.0153
21
-57.189
0
LINE
8
BLACK
6
CONTINUOUS
10
74.0153
20
-57.189
11
74.0087
21
-57.189
0
LINE
8
BLACK
6
CONTINUOUS
10
74.0087
20
-57.189
11
74.0021
21
-57.1902
0
LINE
8
BLACK
6
CONTINUOUS
10
74.0021
20
-57.1902
11
73.7861
21
-57.1902
0
LINE
8
BLACK
6
CONTINUOUS
10
73.7861
20
-57.1902
11
73.7754
21
-57.1883
0
LINE
8
BLACK
6
CONTINUOUS
10
73.7754
20
-57.1883
11
73.7647
21
-57.1872
0
LINE
8
BLACK
6
CONTINUOUS
10
73.7647
20
-57.1872
11
73.7625
21
-57.186
0
LINE
8
BLACK
6
CONTINUOUS
10
73.7625
20
-57.186
11
73.76
21
-57.1856
0
LINE
8
BLACK
6
CONTINUOUS
10
73.76
20
-57.1856
11
73.7507
21
-57.1802
0
LINE
8
BLACK
6
CONTINUOUS
10
73.7507
20
-57.1802
11
73.741
21
-57.1755
0
LINE
8
BLACK
6
CONTINUOUS
10
73.741
20
-57.1755
11
73.7392
21
-57.1736
0
LINE
8
BLACK
6
CONTINUOUS
10
73.7392
20
-57.1736
11
73.7371
21
-57.1724
0
LINE
8
BLACK
6
CONTINUOUS
10
73.7371
20
-57.1724
11
73.7302
21
-57.1641
0
LINE
8
BLACK
6
CONTINUOUS
10
73.7302
20
-57.1641
11
73.7227
21
-57.1563
0
LINE
8
BLACK
6
CONTINUOUS
10
73.7227
20
-57.1563
11
73.6846
21
-57.0994
0
LINE
8
BLACK
6
CONTINUOUS
10
73.6846
20
-57.0994
11
73.6192
21
-57.0339
0
LINE
8
BLACK
6
CONTINUOUS
10
73.6192
20
-57.0339
11
73.5422
21
-56.9825
0
LINE
8
BLACK
6
CONTINUOUS
10
73.5422
20
-56.9825
11
73.4567
21
-56.9471
0
LINE
8
BLACK
6
CONTINUOUS
10
73.4567
20
-56.9471
11
73.3659
21
-56.929
0
LINE
8
BLACK
6
CONTINUOUS
10
73.3659
20
-56.929
11
73.2734
21
-56.929
0
LINE
8
BLACK
6
CONTINUOUS
10
73.2734
20
-56.929
11
73.1826
21
-56.9471
0
LINE
8
BLACK
6
CONTINUOUS
10
73.1826
20
-56.9471
11
73.0971
21
-56.9825
0
LINE
8
BLACK
6
CONTINUOUS
10
73.0971
20
-56.9825
11
73.0201
21
-57.0339
0
LINE
8
BLACK
6
CONTINUOUS
10
73.0201
20
-57.0339
11
72.9546
21
-57.0994
0
LINE
8
BLACK
6
CONTINUOUS
10
72.9546
20
-57.0994
11
72.9032
21
-57.1763
0
LINE
8
BLACK
6
CONTINUOUS
10
72.9032
20
-57.1763
11
72.8678
21
-57.2619
0
LINE
8
BLACK
6
CONTINUOUS
10
72.8678
20
-57.2619
11
72.8497
21
-57.3526
0
LINE
8
BLACK
6
CONTINUOUS
10
72.8497
20
-57.3526
11
72.8497
21
-57.4452
0
LINE
8
BLACK
6
CONTINUOUS
10
72.8497
20
-57.4452
11
72.8678
21
-57.536
0
LINE
8
BLACK
6
CONTINUOUS
10
72.8678
20
-57.536
11
72.9032
21
-57.6215
0
LINE
8
BLACK
6
CONTINUOUS
10
72.9032
20
-57.6215
11
72.9546
21
-57.6985
0
LINE
8
BLACK
6
CONTINUOUS
10
72.9546
20
-57.6985
11
73.0201
21
-57.7639
0
LINE
8
BLACK
6
CONTINUOUS
10
73.0201
20
-57.7639
11
73.0971
21
-57.8153
0
LINE
8
BLACK
6
CONTINUOUS
10
73.0971
20
-57.8153
11
73.1826
21
-57.8508
0
LINE
8
BLACK
6
CONTINUOUS
10
73.1826
20
-57.8508
11
73.2734
21
-57.8688
0
LINE
8
BLACK
6
CONTINUOUS
10
73.2734
20
-57.8688
11
73.3659
21
-57.8688
0
LINE
8
BLACK
6
CONTINUOUS
10
73.3659
20
-57.8688
11
73.4567
21
-57.8508
0
LINE
8
BLACK
6
CONTINUOUS
10
73.4567
20
-57.8508
11
73.5422
21
-57.8153
0
LINE
8
BLACK
6
CONTINUOUS
10
73.5422
20
-57.8153
11
73.6192
21
-57.7639
0
LINE
8
BLACK
6
CONTINUOUS
10
73.6192
20
-57.7639
11
73.6846
21
-57.6985
0
LINE
8
BLACK
6
CONTINUOUS
10
73.6846
20
-57.6985
11
73.6961
21
-57.6813
0
LINE
8
BLACK
6
CONTINUOUS
10
73.6961
20
-57.6813
11
73.7036
21
-57.6735
0
LINE
8
BLACK
6
CONTINUOUS
10
73.7036
20
-57.6735
11
73.7105
21
-57.6652
0
LINE
8
BLACK
6
CONTINUOUS
10
73.7105
20
-57.6652
11
73.7127
21
-57.664
0
LINE
8
BLACK
6
CONTINUOUS
10
73.7127
20
-57.664
11
73.7144
21
-57.6621
0
LINE
8
BLACK
6
CONTINUOUS
10
73.7144
20
-57.6621
11
73.7241
21
-57.6574
0
LINE
8
BLACK
6
CONTINUOUS
10
73.7241
20
-57.6574
11
73.7334
21
-57.652
0
LINE
8
BLACK
6
CONTINUOUS
10
73.7334
20
-57.652
11
73.7359
21
-57.6516
0
LINE
8
BLACK
6
CONTINUOUS
10
73.7359
20
-57.6516
11
73.7382
21
-57.6504
0
LINE
8
BLACK
6
CONTINUOUS
10
73.7382
20
-57.6504
11
73.7489
21
-57.6493
0
LINE
8
BLACK
6
CONTINUOUS
10
73.7489
20
-57.6493
11
73.7595
21
-57.6474
0
LINE
8
BLACK
6
CONTINUOUS
10
73.7595
20
-57.6474
11
74.0021
21
-57.6474
0
LINE
8
BLACK
6
CONTINUOUS
10
74.0021
20
-57.6474
11
74.0087
21
-57.6486
0
LINE
8
BLACK
6
CONTINUOUS
10
74.0087
20
-57.6486
11
74.0153
21
-57.6486
0
LINE
8
BLACK
6
CONTINUOUS
10
74.0153
20
-57.6486
11
74.0216
21
-57.6508
0
LINE
8
BLACK
6
CONTINUOUS
10
74.0216
20
-57.6508
11
74.0282
21
-57.652
0
LINE
8
BLACK
6
CONTINUOUS
10
74.0282
20
-57.652
11
74.0339
21
-57.6553
0
LINE
8
BLACK
6
CONTINUOUS
10
74.0339
20
-57.6553
11
74.0402
21
-57.6576
0
LINE
8
BLACK
6
CONTINUOUS
10
74.0402
20
-57.6576
11
74.0453
21
-57.6619
0
LINE
8
BLACK
6
CONTINUOUS
10
74.0453
20
-57.6619
11
74.0511
21
-57.6652
0
LINE
8
BLACK
6
CONTINUOUS
10
74.0511
20
-57.6652
11
74.0554
21
-57.6703
0
LINE
8
BLACK
6
CONTINUOUS
10
74.0554
20
-57.6703
11
74.0605
21
-57.6746
0
LINE
8
BLACK
6
CONTINUOUS
10
74.0605
20
-57.6746
11
74.0638
21
-57.6804
0
LINE
8
BLACK
6
CONTINUOUS
10
74.0638
20
-57.6804
11
74.0681
21
-57.6855
0
LINE
8
BLACK
6
CONTINUOUS
10
74.0681
20
-57.6855
11
74.0704
21
-57.6918
0
LINE
8
BLACK
6
CONTINUOUS
10
74.0704
20
-57.6918
11
74.0737
21
-57.6975
0
LINE
8
BLACK
6
CONTINUOUS
10
74.0737
20
-57.6975
11
74.0749
21
-57.7041
0
LINE
8
BLACK
6
CONTINUOUS
10
74.0749
20
-57.7041
11
74.0771
21
-57.7104
0
LINE
8
BLACK
6
CONTINUOUS
10
74.0771
20
-57.7104
11
74.0771
21
-57.717
0
LINE
8
BLACK
6
CONTINUOUS
10
74.0771
20
-57.717
11
74.0783
21
-57.7236
0
LINE
8
BLACK
6
CONTINUOUS
10
74.0783
20
-57.7236
11
74.0783
21
-57.7651
0
LINE
8
BLACK
6
CONTINUOUS
10
74.0783
20
-57.7651
11
74.0816
21
-57.7987
0
LINE
8
BLACK
6
CONTINUOUS
10
74.0816
20
-57.7987
11
74.0903
21
-57.8274
0
LINE
8
BLACK
6
CONTINUOUS
10
74.0903
20
-57.8274
11
74.1045
21
-57.8539
0
LINE
8
BLACK
6
CONTINUOUS
10
74.1045
20
-57.8539
11
74.1235
21
-57.8771
0
LINE
8
BLACK
6
CONTINUOUS
10
74.1235
20
-57.8771
11
74.1467
21
-57.8961
0
LINE
8
BLACK
6
CONTINUOUS
10
74.1467
20
-57.8961
11
74.1732
21
-57.9103
0
LINE
8
BLACK
6
CONTINUOUS
10
74.1732
20
-57.9103
11
74.2019
21
-57.919
0
LINE
8
BLACK
6
CONTINUOUS
10
74.2019
20
-57.919
11
74.2355
21
-57.9223
0
LINE
8
BLACK
6
CONTINUOUS
10
74.2355
20
-57.9223
11
74.5281
21
-57.9223
0
LINE
8
BLACK
6
CONTINUOUS
10
74.5281
20
-57.9223
11
74.56
21
-57.9192
0
LINE
8
BLACK
6
CONTINUOUS
10
74.56
20
-57.9192
11
74.5727
21
-57.9201
0
LINE
8
BLACK
6
CONTINUOUS
10
74.5727
20
-57.9201
11
74.5855
21
-57.921
0
LINE
8
BLACK
6
CONTINUOUS
10
74.5855
20
-57.921
11
74.5859
21
-57.9211
0
LINE
8
BLACK
6
CONTINUOUS
10
74.5859
20
-57.9211
11
74.5863
21
-57.9212
0
LINE
8
BLACK
6
CONTINUOUS
10
74.5863
20
-57.9212
11
74.598
21
-57.9265
0
LINE
8
BLACK
6
CONTINUOUS
10
74.598
20
-57.9265
11
74.6098
21
-57.9316
0
LINE
8
BLACK
6
CONTINUOUS
10
74.6098
20
-57.9316
11
74.6355
21
-57.9489
0
LINE
8
BLACK
6
CONTINUOUS
10
74.6355
20
-57.9489
11
74.6725
21
-57.9642
0
LINE
8
BLACK
6
CONTINUOUS
10
74.6725
20
-57.9642
11
74.7118
21
-57.972
0
LINE
8
BLACK
6
CONTINUOUS
10
74.7118
20
-57.972
11
74.7791
21
-57.972
0
LINE
8
BLACK
6
CONTINUOUS
10
74.7791
20
-57.972
11
74.8043
21
-57.9468
0
LINE
8
BLACK
6
CONTINUOUS
10
74.8043
20
-57.9468
11
74.8043
21
-57.7688
0
LINE
8
BLACK
6
CONTINUOUS
10
74.8043
20
-57.7688
11
74.7318
21
-57.7688
0
LINE
8
BLACK
6
CONTINUOUS
10
74.7318
20
-57.7688
11
74.7318
21
-56.8688
0
LINE
8
BLACK
6
CONTINUOUS
10
74.7318
20
-56.8688
11
74.8043
21
-56.8688
0
LINE
8
BLACK
6
CONTINUOUS
10
74.8043
20
-56.8688
11
74.8043
21
-56.6908
0
LINE
8
BLACK
6
CONTINUOUS
10
74.8043
20
-56.6908
11
74.7791
21
-56.6656
0
LINE
8
BLACK
6
CONTINUOUS
10
74.7791
20
-56.6656
11
74.7118
21
-56.6656
0
LINE
8
BLACK
6
CONTINUOUS
10
68.4519
20
-56.8441
11
68.3707
21
-56.8521
0
LINE
8
BLACK
6
CONTINUOUS
10
68.3707
20
-56.8521
11
68.2666
21
-56.8837
0
LINE
8
BLACK
6
CONTINUOUS
10
68.2666
20
-56.8837
11
68.1706
21
-56.935
0
LINE
8
BLACK
6
CONTINUOUS
10
68.1706
20
-56.935
11
68.0865
21
-57.004
0
LINE
8
BLACK
6
CONTINUOUS
10
68.0865
20
-57.004
11
68.0175
21
-57.0881
0
LINE
8
BLACK
6
CONTINUOUS
10
68.0175
20
-57.0881
11
67.9662
21
-57.1841
0
LINE
8
BLACK
6
CONTINUOUS
10
67.9662
20
-57.1841
11
67.9346
21
-57.2882
0
LINE
8
BLACK
6
CONTINUOUS
10
67.9346
20
-57.2882
11
67.9239
21
-57.3965
0
LINE
8
BLACK
6
CONTINUOUS
10
67.9239
20
-57.3965
11
67.9346
21
-57.5048
0
LINE
8
BLACK
6
CONTINUOUS
10
67.9346
20
-57.5048
11
67.9662
21
-57.6089
0
LINE
8
BLACK
6
CONTINUOUS
10
67.9662
20
-57.6089
11
68.0175
21
-57.7049
0
LINE
8
BLACK
6
CONTINUOUS
10
68.0175
20
-57.7049
11
68.0865
21
-57.789
0
LINE
8
BLACK
6
CONTINUOUS
10
68.0865
20
-57.789
11
68.1706
21
-57.858
0
LINE
8
BLACK
6
CONTINUOUS
10
68.1706
20
-57.858
11
68.2666
21
-57.9093
0
LINE
8
BLACK
6
CONTINUOUS
10
68.2666
20
-57.9093
11
68.3707
21
-57.9409
0
LINE
8
BLACK
6
CONTINUOUS
10
68.3707
20
-57.9409
11
68.4519
21
-57.9489
0
LINE
8
BLACK
6
CONTINUOUS
10
68.4519
20
-57.9489
11
68.7061
21
-57.9489
0
LINE
8
BLACK
6
CONTINUOUS
10
68.7061
20
-57.9489
11
68.7873
21
-57.9409
0
LINE
8
BLACK
6
CONTINUOUS
10
68.7873
20
-57.9409
11
68.8914
21
-57.9093
0
LINE
8
BLACK
6
CONTINUOUS
10
68.8914
20
-57.9093
11
68.9874
21
-57.858
0
LINE
8
BLACK
6
CONTINUOUS
10
68.9874
20
-57.858
11
69.0715
21
-57.789
0
LINE
8
BLACK
6
CONTINUOUS
10
69.0715
20
-57.789
11
69.1405
21
-57.7049
0
LINE
8
BLACK
6
CONTINUOUS
10
69.1405
20
-57.7049
11
69.1918
21
-57.6089
0
LINE
8
BLACK
6
CONTINUOUS
10
69.1918
20
-57.6089
11
69.2234
21
-57.5048
0
LINE
8
BLACK
6
CONTINUOUS
10
69.2234
20
-57.5048
11
69.2341
21
-57.3965
0
LINE
8
BLACK
6
CONTINUOUS
10
69.2341
20
-57.3965
11
69.2297
21
-57.3526
0
LINE
8
BLACK
6
CONTINUOUS
10
69.2297
20
-57.3526
11
69.2234
21
-57.2882
0
LINE
8
BLACK
6
CONTINUOUS
10
69.2234
20
-57.2882
11
69.1918
21
-57.1841
0
LINE
8
BLACK
6
CONTINUOUS
10
69.1918
20
-57.1841
11
69.1405
21
-57.0881
0
LINE
8
BLACK
6
CONTINUOUS
10
69.1405
20
-57.0881
11
69.0715
21
-57.004
0
LINE
8
BLACK
6
CONTINUOUS
10
69.0715
20
-57.004
11
68.9874
21
-56.935
0
LINE
8
BLACK
6
CONTINUOUS
10
68.9874
20
-56.935
11
68.8914
21
-56.8837
0
LINE
8
BLACK
6
CONTINUOUS
10
68.8914
20
-56.8837
11
68.7873
21
-56.8521
0
LINE
8
BLACK
6
CONTINUOUS
10
68.7873
20
-56.8521
11
68.7061
21
-56.8441
0
LINE
8
BLACK
6
CONTINUOUS
10
68.7061
20
-56.8441
11
68.4519
21
-56.8441
0
LINE
8
BLACK
6
CONTINUOUS
10
65.1519
20
-56.8441
11
65.0707
21
-56.8521
0
LINE
8
BLACK
6
CONTINUOUS
10
65.0707
20
-56.8521
11
64.9666
21
-56.8837
0
LINE
8
BLACK
6
CONTINUOUS
10
64.9666
20
-56.8837
11
64.8706
21
-56.935
0
LINE
8
BLACK
6
CONTINUOUS
10
64.8706
20
-56.935
11
64.7865
21
-57.004
0
LINE
8
BLACK
6
CONTINUOUS
10
64.7865
20
-57.004
11
64.7175
21
-57.0881
0
LINE
8
BLACK
6
CONTINUOUS
10
64.7175
20
-57.0881
11
64.6662
21
-57.1841
0
LINE
8
BLACK
6
CONTINUOUS
10
64.6662
20
-57.1841
11
64.6346
21
-57.2882
0
LINE
8
BLACK
6
CONTINUOUS
10
64.6346
20
-57.2882
11
64.6239
21
-57.3965
0
LINE
8
BLACK
6
CONTINUOUS
10
64.6239
20
-57.3965
11
64.6346
21
-57.5048
0
LINE
8
BLACK
6
CONTINUOUS
10
64.6346
20
-57.5048
11
64.6662
21
-57.6089
0
LINE
8
BLACK
6
CONTINUOUS
10
64.6662
20
-57.6089
11
64.7175
21
-57.7049
0
LINE
8
BLACK
6
CONTINUOUS
10
64.7175
20
-57.7049
11
64.7865
21
-57.789
0
LINE
8
BLACK
6
CONTINUOUS
10
64.7865
20
-57.789
11
64.8706
21
-57.858
0
LINE
8
BLACK
6
CONTINUOUS
10
64.8706
20
-57.858
11
64.9666
21
-57.9093
0
LINE
8
BLACK
6
CONTINUOUS
10
64.9666
20
-57.9093
11
65.0707
21
-57.9409
0
LINE
8
BLACK
6
CONTINUOUS
10
65.0707
20
-57.9409
11
65.1519
21
-57.9489
0
LINE
8
BLACK
6
CONTINUOUS
10
65.1519
20
-57.9489
11
65.4061
21
-57.9489
0
LINE
8
BLACK
6
CONTINUOUS
10
65.4061
20
-57.9489
11
65.4873
21
-57.9409
0
LINE
8
BLACK
6
CONTINUOUS
10
65.4873
20
-57.9409
11
65.5914
21
-57.9093
0
LINE
8
BLACK
6
CONTINUOUS
10
65.5914
20
-57.9093
11
65.6874
21
-57.858
0
LINE
8
BLACK
6
CONTINUOUS
10
65.6874
20
-57.858
11
65.7715
21
-57.789
0
LINE
8
BLACK
6
CONTINUOUS
10
65.7715
20
-57.789
11
65.8405
21
-57.7049
0
LINE
8
BLACK
6
CONTINUOUS
10
65.8405
20
-57.7049
11
65.8918
21
-57.6089
0
LINE
8
BLACK
6
CONTINUOUS
10
65.8918
20
-57.6089
11
65.9234
21
-57.5048
0
LINE
8
BLACK
6
CONTINUOUS
10
65.9234
20
-57.5048
11
65.9341
21
-57.3965
0
LINE
8
BLACK
6
CONTINUOUS
10
65.9341
20
-57.3965
11
65.9234
21
-57.2882
0
LINE
8
BLACK
6
CONTINUOUS
10
65.9234
20
-57.2882
11
65.8918
21
-57.1841
0
LINE
8
BLACK
6
CONTINUOUS
10
65.8918
20
-57.1841
11
65.8405
21
-57.0881
0
LINE
8
BLACK
6
CONTINUOUS
10
65.8405
20
-57.0881
11
65.7715
21
-57.004
0
LINE
8
BLACK
6
CONTINUOUS
10
65.7715
20
-57.004
11
65.6874
21
-56.935
0
LINE
8
BLACK
6
CONTINUOUS
10
65.6874
20
-56.935
11
65.5914
21
-56.8837
0
LINE
8
BLACK
6
CONTINUOUS
10
65.5914
20
-56.8837
11
65.4873
21
-56.8521
0
LINE
8
BLACK
6
CONTINUOUS
10
65.4873
20
-56.8521
11
65.4061
21
-56.8441
0
LINE
8
BLACK
6
CONTINUOUS
10
65.4061
20
-56.8441
11
65.1519
21
-56.8441
0
LINE
8
BLACK
6
CONTINUOUS
10
75.4845
20
-56.6656
11
75.4593
21
-56.6908
0
LINE
8
BLACK
6
CONTINUOUS
10
75.4593
20
-56.6908
11
75.4593
21
-56.8688
0
LINE
8
BLACK
6
CONTINUOUS
10
75.4593
20
-56.8688
11
75.5318
21
-56.8688
0
LINE
8
BLACK
6
CONTINUOUS
10
75.5318
20
-56.8688
11
75.5318
21
-57.2413
0
LINE
8
BLACK
6
CONTINUOUS
10
75.5318
20
-57.2413
11
75.7318
21
-57.2413
0
LINE
8
BLACK
6
CONTINUOUS
10
75.7318
20
-57.2413
11
75.7318
21
-56.8688
0
LINE
8
BLACK
6
CONTINUOUS
10
75.7318
20
-56.8688
11
75.8043
21
-56.8688
0
LINE
8
BLACK
6
CONTINUOUS
10
75.8043
20
-56.8688
11
75.8043
21
-56.6908
0
LINE
8
BLACK
6
CONTINUOUS
10
75.8043
20
-56.6908
11
75.7791
21
-56.6656
0
LINE
8
BLACK
6
CONTINUOUS
10
75.7791
20
-56.6656
11
75.7118
21
-56.6656
0
LINE
8
BLACK
6
CONTINUOUS
10
75.7118
20
-56.6656
11
75.6725
21
-56.6734
0
LINE
8
BLACK
6
CONTINUOUS
10
75.6725
20
-56.6734
11
75.661
21
-56.6782
0
LINE
8
BLACK
6
CONTINUOUS
10
75.661
20
-56.6782
11
75.6577
21
-56.6789
0
LINE
8
BLACK
6
CONTINUOUS
10
75.6577
20
-56.6789
11
75.6547
21
-56.6805
0
LINE
8
BLACK
6
CONTINUOUS
10
75.6547
20
-56.6805
11
75.6448
21
-56.6818
0
LINE
8
BLACK
6
CONTINUOUS
10
75.6448
20
-56.6818
11
75.6351
21
-56.6839
0
LINE
8
BLACK
6
CONTINUOUS
10
75.6351
20
-56.6839
11
75.6318
21
-56.6835
0
LINE
8
BLACK
6
CONTINUOUS
10
75.6318
20
-56.6835
11
75.6285
21
-56.6839
0
LINE
8
BLACK
6
CONTINUOUS
10
75.6285
20
-56.6839
11
75.6188
21
-56.6818
0
LINE
8
BLACK
6
CONTINUOUS
10
75.6188
20
-56.6818
11
75.6089
21
-56.6805
0
LINE
8
BLACK
6
CONTINUOUS
10
75.6089
20
-56.6805
11
75.6059
21
-56.6789
0
LINE
8
BLACK
6
CONTINUOUS
10
75.6059
20
-56.6789
11
75.6026
21
-56.6782
0
LINE
8
BLACK
6
CONTINUOUS
10
75.6026
20
-56.6782
11
75.5911
21
-56.6734
0
LINE
8
BLACK
6
CONTINUOUS
10
75.5911
20
-56.6734
11
75.5518
21
-56.6656
0
LINE
8
BLACK
6
CONTINUOUS
10
75.5518
20
-56.6656
11
75.4845
21
-56.6656
0
LINE
8
BLACK
6
CONTINUOUS
10
74.9845
20
-56.6656
11
74.9593
21
-56.6908
0
LINE
8
BLACK
6
CONTINUOUS
10
74.9593
20
-56.6908
11
74.9593
21
-56.8688
0
LINE
8
BLACK
6
CONTINUOUS
10
74.9593
20
-56.8688
11
75.0318
21
-56.8688
0
LINE
8
BLACK
6
CONTINUOUS
10
75.0318
20
-56.8688
11
75.0318
21
-57.2413
0
LINE
8
BLACK
6
CONTINUOUS
10
75.0318
20
-57.2413
11
75.2318
21
-57.2413
0
LINE
8
BLACK
6
CONTINUOUS
10
75.2318
20
-57.2413
11
75.2318
21
-56.8688
0
LINE
8
BLACK
6
CONTINUOUS
10
75.2318
20
-56.8688
11
75.3043
21
-56.8688
0
LINE
8
BLACK
6
CONTINUOUS
10
75.3043
20
-56.8688
11
75.3043
21
-56.6908
0
LINE
8
BLACK
6
CONTINUOUS
10
75.3043
20
-56.6908
11
75.2791
21
-56.6656
0
LINE
8
BLACK
6
CONTINUOUS
10
75.2791
20
-56.6656
11
75.2118
21
-56.6656
0
LINE
8
BLACK
6
CONTINUOUS
10
75.2118
20
-56.6656
11
75.1725
21
-56.6734
0
LINE
8
BLACK
6
CONTINUOUS
10
75.1725
20
-56.6734
11
75.161
21
-56.6782
0
LINE
8
BLACK
6
CONTINUOUS
10
75.161
20
-56.6782
11
75.1577
21
-56.6789
0
LINE
8
BLACK
6
CONTINUOUS
10
75.1577
20
-56.6789
11
75.1547
21
-56.6805
0
LINE
8
BLACK
6
CONTINUOUS
10
75.1547
20
-56.6805
11
75.1448
21
-56.6818
0
LINE
8
BLACK
6
CONTINUOUS
10
75.1448
20
-56.6818
11
75.1351
21
-56.6839
0
LINE
8
BLACK
6
CONTINUOUS
10
75.1351
20
-56.6839
11
75.1318
21
-56.6835
0
LINE
8
BLACK
6
CONTINUOUS
10
75.1318
20
-56.6835
11
75.1285
21
-56.6839
0
LINE
8
BLACK
6
CONTINUOUS
10
75.1285
20
-56.6839
11
75.1188
21
-56.6818
0
LINE
8
BLACK
6
CONTINUOUS
10
75.1188
20
-56.6818
11
75.1089
21
-56.6805
0
LINE
8
BLACK
6
CONTINUOUS
10
75.1089
20
-56.6805
11
75.1059
21
-56.6789
0
LINE
8
BLACK
6
CONTINUOUS
10
75.1059
20
-56.6789
11
75.1026
21
-56.6782
0
LINE
8
BLACK
6
CONTINUOUS
10
75.1026
20
-56.6782
11
75.0911
21
-56.6734
0
LINE
8
BLACK
6
CONTINUOUS
10
75.0911
20
-56.6734
11
75.0518
21
-56.6656
0
LINE
8
BLACK
6
CONTINUOUS
10
75.0518
20
-56.6656
11
74.9845
21
-56.6656
0
LINE
8
BLACK
6
CONTINUOUS
10
74.5318
20
-57.7688
11
74.2318
21
-57.7688
0
LINE
8
BLACK
6
CONTINUOUS
10
74.2318
20
-57.7688
11
74.2318
21
-57.495
0
LINE
8
BLACK
6
CONTINUOUS
10
74.2318
20
-57.495
11
73.6225
21
-57.495
0
LINE
8
BLACK
6
CONTINUOUS
10
73.6225
20
-57.495
11
73.5988
21
-57.5601
0
LINE
8
BLACK
6
CONTINUOUS
10
73.5988
20
-57.5601
11
73.5269
21
-57.6459
0
LINE
8
BLACK
6
CONTINUOUS
10
73.5269
20
-57.6459
11
73.4299
21
-57.7019
0
LINE
8
BLACK
6
CONTINUOUS
10
73.4299
20
-57.7019
11
73.3196
21
-57.7213
0
LINE
8
BLACK
6
CONTINUOUS
10
73.3196
20
-57.7213
11
73.2094
21
-57.7019
0
LINE
8
BLACK
6
CONTINUOUS
10
73.2094
20
-57.7019
11
73.1124
21
-57.6459
0
LINE
8
BLACK
6
CONTINUOUS
10
73.1124
20
-57.6459
11
73.0404
21
-57.5601
0
LINE
8
BLACK
6
CONTINUOUS
10
73.0404
20
-57.5601
11
73.0021
21
-57.4549
0
LINE
8
BLACK
6
CONTINUOUS
10
73.0021
20
-57.4549
11
73.0021
21
-57.3429
0
LINE
8
BLACK
6
CONTINUOUS
10
73.0021
20
-57.3429
11
73.0404
21
-57.2377
0
LINE
8
BLACK
6
CONTINUOUS
10
73.0404
20
-57.2377
11
73.1124
21
-57.1519
0
LINE
8
BLACK
6
CONTINUOUS
10
73.1124
20
-57.1519
11
73.2094
21
-57.096
0
LINE
8
BLACK
6
CONTINUOUS
10
73.2094
20
-57.096
11
73.3196
21
-57.0765
0
LINE
8
BLACK
6
CONTINUOUS
10
73.3196
20
-57.0765
11
73.4299
21
-57.096
0
LINE
8
BLACK
6
CONTINUOUS
10
73.4299
20
-57.096
11
73.5269
21
-57.1519
0
LINE
8
BLACK
6
CONTINUOUS
10
73.5269
20
-57.1519
11
73.5988
21
-57.2377
0
LINE
8
BLACK
6
CONTINUOUS
10
73.5988
20
-57.2377
11
73.637
21
-57.3426
0
LINE
8
BLACK
6
CONTINUOUS
10
73.637
20
-57.3426
11
74.2318
21
-57.3426
0
LINE
8
BLACK
6
CONTINUOUS
10
74.2318
20
-57.3426
11
74.2318
21
-56.8688
0
LINE
8
BLACK
6
CONTINUOUS
10
74.2318
20
-56.8688
11
74.5318
21
-56.8688
0
LINE
8
BLACK
6
CONTINUOUS
10
74.5318
20
-56.8688
11
74.5318
21
-57.7688
0
LINE
8
BLACK
6
CONTINUOUS
10
68.8179
20
-57.0148
11
68.9401
21
-57.0854
0
LINE
8
BLACK
6
CONTINUOUS
10
68.9401
20
-57.0854
11
69.0308
21
-57.1934
0
LINE
8
BLACK
6
CONTINUOUS
10
69.0308
20
-57.1934
11
69.079
21
-57.326
0
LINE
8
BLACK
6
CONTINUOUS
10
69.079
20
-57.326
11
69.079
21
-57.467
0
LINE
8
BLACK
6
CONTINUOUS
10
69.079
20
-57.467
11
69.0308
21
-57.5996
0
LINE
8
BLACK
6
CONTINUOUS
10
69.0308
20
-57.5996
11
68.9401
21
-57.7076
0
LINE
8
BLACK
6
CONTINUOUS
10
68.9401
20
-57.7076
11
68.8179
21
-57.7782
0
LINE
8
BLACK
6
CONTINUOUS
10
68.8179
20
-57.7782
11
68.714
21
-57.7965
0
LINE
8
BLACK
6
CONTINUOUS
10
68.714
20
-57.7965
11
68.444
21
-57.7965
0
LINE
8
BLACK
6
CONTINUOUS
10
68.444
20
-57.7965
11
68.3401
21
-57.7782
0
LINE
8
BLACK
6
CONTINUOUS
10
68.3401
20
-57.7782
11
68.2179
21
-57.7076
0
LINE
8
BLACK
6
CONTINUOUS
10
68.2179
20
-57.7076
11
68.1272
21
-57.5996
0
LINE
8
BLACK
6
CONTINUOUS
10
68.1272
20
-57.5996
11
68.079
21
-57.467
0
LINE
8
BLACK
6
CONTINUOUS
10
68.079
20
-57.467
11
68.079
21
-57.326
0
LINE
8
BLACK
6
CONTINUOUS
10
68.079
20
-57.326
11
68.1272
21
-57.1934
0
LINE
8
BLACK
6
CONTINUOUS
10
68.1272
20
-57.1934
11
68.2179
21
-57.0854
0
LINE
8
BLACK
6
CONTINUOUS
10
68.2179
20
-57.0854
11
68.3401
21
-57.0148
0
LINE
8
BLACK
6
CONTINUOUS
10
68.3401
20
-57.0148
11
68.444
21
-56.9965
0
LINE
8
BLACK
6
CONTINUOUS
10
68.444
20
-56.9965
11
68.714
21
-56.9965
0
LINE
8
BLACK
6
CONTINUOUS
10
68.714
20
-56.9965
11
68.8179
21
-57.0148
0
LINE
8
BLACK
6
CONTINUOUS
10
65.5179
20
-57.0148
11
65.6401
21
-57.0854
0
LINE
8
BLACK
6
CONTINUOUS
10
65.6401
20
-57.0854
11
65.7308
21
-57.1934
0
LINE
8
BLACK
6
CONTINUOUS
10
65.7308
20
-57.1934
11
65.779
21
-57.326
0
LINE
8
BLACK
6
CONTINUOUS
10
65.779
20
-57.326
11
65.779
21
-57.467
0
LINE
8
BLACK
6
CONTINUOUS
10
65.779
20
-57.467
11
65.7308
21
-57.5996
0
LINE
8
BLACK
6
CONTINUOUS
10
65.7308
20
-57.5996
11
65.6401
21
-57.7076
0
LINE
8
BLACK
6
CONTINUOUS
10
65.6401
20
-57.7076
11
65.5179
21
-57.7782
0
LINE
8
BLACK
6
CONTINUOUS
10
65.5179
20
-57.7782
11
65.414
21
-57.7965
0
LINE
8
BLACK
6
CONTINUOUS
10
65.414
20
-57.7965
11
65.144
21
-57.7965
0
LINE
8
BLACK
6
CONTINUOUS
10
65.144
20
-57.7965
11
65.0401
21
-57.7782
0
LINE
8
BLACK
6
CONTINUOUS
10
65.0401
20
-57.7782
11
64.9179
21
-57.7076
0
LINE
8
BLACK
6
CONTINUOUS
10
64.9179
20
-57.7076
11
64.8272
21
-57.5996
0
LINE
8
BLACK
6
CONTINUOUS
10
64.8272
20
-57.5996
11
64.779
21
-57.467
0
LINE
8
BLACK
6
CONTINUOUS
10
64.779
20
-57.467
11
64.779
21
-57.326
0
LINE
8
BLACK
6
CONTINUOUS
10
64.779
20
-57.326
11
64.8272
21
-57.1934
0
LINE
8
BLACK
6
CONTINUOUS
10
64.8272
20
-57.1934
11
64.9179
21
-57.0854
0
LINE
8
BLACK
6
CONTINUOUS
10
64.9179
20
-57.0854
11
65.0401
21
-57.0148
0
LINE
8
BLACK
6
CONTINUOUS
10
65.0401
20
-57.0148
11
65.144
21
-56.9965
0
LINE
8
BLACK
6
CONTINUOUS
10
65.144
20
-56.9965
11
65.414
21
-56.9965
0
LINE
8
BLACK
6
CONTINUOUS
10
65.414
20
-56.9965
11
65.5179
21
-57.0148
0
LINE
8
BLACK
6
CONTINUOUS
10
70.4624
20
-57.784
11
70.6456
21
-57.8898
0
LINE
8
BLACK
6
CONTINUOUS
10
70.6456
20
-57.8898
11
70.7816
21
-58.0519
0
LINE
8
BLACK
6
CONTINUOUS
10
70.7816
20
-58.0519
11
70.854
21
-58.2507
0
LINE
8
BLACK
6
CONTINUOUS
10
70.854
20
-58.2507
11
70.854
21
-58.4623
0
LINE
8
BLACK
6
CONTINUOUS
10
70.854
20
-58.4623
11
70.7816
21
-58.6611
0
LINE
8
BLACK
6
CONTINUOUS
10
70.7816
20
-58.6611
11
70.6456
21
-58.8232
0
LINE
8
BLACK
6
CONTINUOUS
10
70.6456
20
-58.8232
11
70.4624
21
-58.929
0
LINE
8
BLACK
6
CONTINUOUS
10
70.4624
20
-58.929
11
70.254
21
-58.9658
0
LINE
8
BLACK
6
CONTINUOUS
10
70.254
20
-58.9658
11
70.0456
21
-58.929
0
LINE
8
BLACK
6
CONTINUOUS
10
70.0456
20
-58.929
11
69.8624
21
-58.8232
0
LINE
8
BLACK
6
CONTINUOUS
10
69.8624
20
-58.8232
11
69.7264
21
-58.6611
0
LINE
8
BLACK
6
CONTINUOUS
10
69.7264
20
-58.6611
11
69.654
21
-58.4623
0
LINE
8
BLACK
6
CONTINUOUS
10
69.654
20
-58.4623
11
69.654
21
-58.2507
0
LINE
8
BLACK
6
CONTINUOUS
10
69.654
20
-58.2507
11
69.7264
21
-58.0519
0
LINE
8
BLACK
6
CONTINUOUS
10
69.7264
20
-58.0519
11
69.8624
21
-57.8898
0
LINE
8
BLACK
6
CONTINUOUS
10
69.8624
20
-57.8898
11
70.0456
21
-57.784
0
LINE
8
BLACK
6
CONTINUOUS
10
70.0456
20
-57.784
11
70.254
21
-57.7472
0
LINE
8
BLACK
6
CONTINUOUS
10
70.254
20
-57.7472
11
70.4624
21
-57.784
0
CIRCLE
8
BLACK
10
73.3196
20
-57.3989
40
0.1524
0
CIRCLE
8
BLACK
10
79.9694
20
-57.4396
40
0.1524
0
CIRCLE
8
BLACK
10
79.4766
20
-58.7756
40
0.1524
  0
ENDSEC
  0
EOF
