G04 #@! TF.GenerationSoftware,KiCad,Pcbnew,(5.0.1)-4*
G04 #@! TF.CreationDate,2018-12-06T17:18:07-05:00*
G04 #@! TF.ProjectId,USBxtendV1,5553427874656E6456312E6B69636164,V1*
G04 #@! TF.SameCoordinates,Original*
G04 #@! TF.FileFunction,Other,Fab,Bot*
%FSLAX46Y46*%
G04 Gerber Fmt 4.6, Leading zero omitted, Abs format (unit mm)*
G04 Created by KiCad (PCBNEW (5.0.1)-4) date 12/6/2018 5:18:07 PM*
%MOMM*%
%LPD*%
G01*
G04 APERTURE LIST*
%ADD10C,0.150000*%
%ADD11C,0.100000*%
G04 APERTURE END LIST*
D10*
G04 #@! TO.C,P1*
X70629000Y-56456500D02*
X70629000Y-60256500D01*
X70629000Y-56456500D02*
X63229000Y-56456500D01*
X70629000Y-60256500D02*
X63229000Y-60256500D01*
X63229000Y-56456500D02*
X63229000Y-60256500D01*
X64279000Y-59306500D02*
X69579000Y-59306500D01*
X63504000Y-57306500D02*
X70354000Y-57306500D01*
X63504000Y-57306500D02*
X63504000Y-58356500D01*
X64229000Y-59256500D02*
X63529000Y-58356500D01*
X70354000Y-57306500D02*
X70354000Y-58356500D01*
X70329000Y-58356500D02*
X69629000Y-59256500D01*
X66929000Y-57956500D02*
X66929000Y-58756500D01*
X65929000Y-57956500D02*
X65929000Y-58756500D01*
X64929000Y-57956500D02*
X64929000Y-58756500D01*
X68929000Y-57956500D02*
X68929000Y-58756500D01*
X67929000Y-57956500D02*
X67929000Y-58756500D01*
G04 #@! TO.C,P2*
X73231800Y-56964800D02*
X80031800Y-56964800D01*
X73231800Y-56964800D02*
X73231800Y-60664800D01*
X73231800Y-60664800D02*
X73831800Y-60664800D01*
X73831800Y-60664800D02*
X73831800Y-60064800D01*
X73831800Y-60064800D02*
X79431800Y-60064800D01*
X79431800Y-60064800D02*
X79431800Y-60564800D01*
X79431800Y-60564800D02*
X79431800Y-60664800D01*
X79431800Y-60664800D02*
X80031800Y-60664800D01*
X80031800Y-60664800D02*
X80031800Y-56964800D01*
G04 #@! TD*
G04 #@! TO.C,P1*
D11*
X65424238Y-59937452D02*
X65424238Y-59537452D01*
X65271857Y-59537452D01*
X65233761Y-59556500D01*
X65214714Y-59575547D01*
X65195666Y-59613642D01*
X65195666Y-59670785D01*
X65214714Y-59708880D01*
X65233761Y-59727928D01*
X65271857Y-59746976D01*
X65424238Y-59746976D01*
X64814714Y-59937452D02*
X65043285Y-59937452D01*
X64929000Y-59937452D02*
X64929000Y-59537452D01*
X64967095Y-59594595D01*
X65005190Y-59632690D01*
X65043285Y-59651738D01*
G04 #@! TO.C,P2*
D10*
X77369895Y-59167180D02*
X77369895Y-58167180D01*
X76988942Y-58167180D01*
X76893704Y-58214800D01*
X76846085Y-58262419D01*
X76798466Y-58357657D01*
X76798466Y-58500514D01*
X76846085Y-58595752D01*
X76893704Y-58643371D01*
X76988942Y-58690990D01*
X77369895Y-58690990D01*
X76417514Y-58262419D02*
X76369895Y-58214800D01*
X76274657Y-58167180D01*
X76036561Y-58167180D01*
X75941323Y-58214800D01*
X75893704Y-58262419D01*
X75846085Y-58357657D01*
X75846085Y-58452895D01*
X75893704Y-58595752D01*
X76465133Y-59167180D01*
X75846085Y-59167180D01*
G04 #@! TD*
M02*
