G04 #@! TF.GenerationSoftware,KiCad,Pcbnew,(5.0.2)-1*
G04 #@! TF.CreationDate,2019-05-03T19:58:13-04:00*
G04 #@! TF.ProjectId,USBxtendV1,55534278-7465-46e6-9456-312e6b696361,V1*
G04 #@! TF.SameCoordinates,Original*
G04 #@! TF.FileFunction,Copper,L1,Top*
G04 #@! TF.FilePolarity,Positive*
%FSLAX46Y46*%
G04 Gerber Fmt 4.6, Leading zero omitted, Abs format (unit mm)*
G04 Created by KiCad (PCBNEW (5.0.2)-1) date 5/3/2019 7:58:13 PM*
%MOMM*%
%LPD*%
G01*
G04 APERTURE LIST*
G04 #@! TA.AperFunction,ComponentPad*
%ADD10O,0.900000X0.700000*%
G04 #@! TD*
G04 #@! TA.AperFunction,ComponentPad*
%ADD11C,0.750000*%
G04 #@! TD*
G04 #@! TA.AperFunction,Conductor*
%ADD12C,0.750000*%
G04 #@! TD*
G04 #@! TA.AperFunction,ComponentPad*
%ADD13O,1.000000X0.800000*%
G04 #@! TD*
G04 #@! TA.AperFunction,ComponentPad*
%ADD14O,0.750000X0.900000*%
G04 #@! TD*
G04 #@! TA.AperFunction,ComponentPad*
%ADD15C,1.200000*%
G04 #@! TD*
G04 #@! TA.AperFunction,ComponentPad*
%ADD16C,0.800000*%
G04 #@! TD*
G04 #@! TA.AperFunction,ViaPad*
%ADD17C,0.635000*%
G04 #@! TD*
G04 #@! TA.AperFunction,Conductor*
%ADD18C,0.152400*%
G04 #@! TD*
G04 APERTURE END LIST*
D10*
G04 #@! TO.P,P1,1*
G04 #@! TO.N,V_USB*
X65479000Y-59006500D03*
D11*
G04 #@! TO.P,P1,2*
G04 #@! TO.N,D-*
X66365036Y-58233627D03*
D12*
G04 #@! TD*
G04 #@! TO.N,D-*
G04 #@! TO.C,P1*
X66322018Y-58295063D02*
X66408054Y-58172191D01*
D13*
G04 #@! TO.P,P1,6*
G04 #@! TO.N,GND1*
X65279000Y-57396500D03*
D14*
G04 #@! TO.P,P1,3*
G04 #@! TO.N,D+*
X66929000Y-59156500D03*
D10*
G04 #@! TO.P,P1,5*
G04 #@! TO.N,GND1*
X68379000Y-59006500D03*
D11*
G04 #@! TO.P,P1,4*
G04 #@! TO.N,ID*
X67492964Y-58233627D03*
D12*
G04 #@! TD*
G04 #@! TO.N,ID*
G04 #@! TO.C,P1*
X67535982Y-58295063D02*
X67449946Y-58172191D01*
D13*
G04 #@! TO.P,P1,6*
G04 #@! TO.N,GND1*
X68579000Y-57396500D03*
D11*
X65322934Y-60002566D03*
D12*
G04 #@! TD*
G04 #@! TO.N,GND1*
G04 #@! TO.C,P1*
X65411322Y-59914178D02*
X65234546Y-60090954D01*
D11*
G04 #@! TO.P,P1,6*
G04 #@! TO.N,GND1*
X68535066Y-60002566D03*
D12*
G04 #@! TD*
G04 #@! TO.N,GND1*
G04 #@! TO.C,P1*
X68446678Y-59914178D02*
X68623454Y-60090954D01*
D15*
G04 #@! TO.P,P1,6*
G04 #@! TO.N,GND1*
X63604000Y-58356500D03*
X70254000Y-58356500D03*
D16*
G04 #@! TO.P,P1,*
G04 #@! TO.N,*
X64129000Y-59396500D03*
X69729000Y-59396500D03*
G04 #@! TD*
D17*
G04 #@! TO.N,GND1*
X73319640Y-57398920D03*
X79969360Y-57439560D03*
X79476600Y-58775600D03*
G04 #@! TD*
D18*
G04 #@! TO.N,GND1*
G36*
X82618623Y-61921721D02*
X60725822Y-61921721D01*
X60725822Y-60505191D01*
X64822105Y-60505191D01*
X64850927Y-60621121D01*
X64869923Y-60634362D01*
X64982943Y-60695054D01*
X65105632Y-60732532D01*
X65233274Y-60745355D01*
X65360966Y-60733029D01*
X65483800Y-60696028D01*
X65597055Y-60635774D01*
X65696378Y-60554583D01*
X65784767Y-60466195D01*
X68073233Y-60466195D01*
X68161622Y-60554583D01*
X68260945Y-60635774D01*
X68374200Y-60696028D01*
X68497034Y-60733029D01*
X68624726Y-60745355D01*
X68752368Y-60732532D01*
X68875057Y-60695054D01*
X68988077Y-60634362D01*
X69007073Y-60621121D01*
X69035895Y-60505191D01*
X68535066Y-60004362D01*
X68073233Y-60466195D01*
X65784767Y-60466195D01*
X65322934Y-60004362D01*
X64822105Y-60505191D01*
X60725822Y-60505191D01*
X60725822Y-60092226D01*
X64580145Y-60092226D01*
X64592968Y-60219868D01*
X64630446Y-60342557D01*
X64691138Y-60455577D01*
X64704379Y-60474573D01*
X64820309Y-60503395D01*
X65321138Y-60002566D01*
X64859305Y-59540733D01*
X64770917Y-59629122D01*
X64689726Y-59728445D01*
X64629472Y-59841700D01*
X64592471Y-59964534D01*
X64580145Y-60092226D01*
X60725822Y-60092226D01*
X60725822Y-58932844D01*
X63029452Y-58932844D01*
X63085629Y-59072137D01*
X63235203Y-59159516D01*
X63398950Y-59216035D01*
X63520668Y-59232693D01*
X63500400Y-59334588D01*
X63500400Y-59458412D01*
X63524556Y-59579856D01*
X63571941Y-59694254D01*
X63640734Y-59797209D01*
X63728291Y-59884766D01*
X63831246Y-59953559D01*
X63945644Y-60000944D01*
X64067088Y-60025100D01*
X64190912Y-60025100D01*
X64312356Y-60000944D01*
X64426754Y-59953559D01*
X64529709Y-59884766D01*
X64617266Y-59797209D01*
X64686059Y-59694254D01*
X64733444Y-59579856D01*
X64757600Y-59458412D01*
X64757600Y-59334588D01*
X64733444Y-59213144D01*
X64686059Y-59098746D01*
X64624422Y-59006500D01*
X64797601Y-59006500D01*
X64808772Y-59119925D01*
X64841857Y-59228992D01*
X64895584Y-59329508D01*
X64967889Y-59417611D01*
X64978815Y-59426578D01*
X64949490Y-59450549D01*
X64861101Y-59538937D01*
X65322934Y-60000770D01*
X65337077Y-59986628D01*
X65338873Y-59988424D01*
X65324730Y-60002566D01*
X65786563Y-60464399D01*
X65874951Y-60376010D01*
X65956142Y-60276687D01*
X66016396Y-60163432D01*
X66053397Y-60040598D01*
X66065723Y-59912906D01*
X66052900Y-59785264D01*
X66015422Y-59662575D01*
X65954730Y-59549555D01*
X65941489Y-59530559D01*
X65862644Y-59510957D01*
X65902008Y-59489916D01*
X65990111Y-59417611D01*
X66062416Y-59329508D01*
X66116143Y-59228992D01*
X66149228Y-59119925D01*
X66160399Y-59006500D01*
X66149228Y-58893075D01*
X66142674Y-58871471D01*
X66190743Y-58887205D01*
X66308787Y-58901438D01*
X66353909Y-58897986D01*
X66334134Y-58963175D01*
X66325400Y-59051854D01*
X66325400Y-59261147D01*
X66334134Y-59349826D01*
X66368649Y-59463605D01*
X66424698Y-59568464D01*
X66500127Y-59660374D01*
X66592037Y-59735803D01*
X66696896Y-59791851D01*
X66810675Y-59826366D01*
X66929000Y-59838020D01*
X67047326Y-59826366D01*
X67161105Y-59791851D01*
X67265964Y-59735803D01*
X67357874Y-59660374D01*
X67433303Y-59568463D01*
X67489351Y-59463604D01*
X67523866Y-59349825D01*
X67532600Y-59261146D01*
X67532600Y-59106214D01*
X67657549Y-59106214D01*
X67661447Y-59128045D01*
X67697025Y-59246188D01*
X67754968Y-59355120D01*
X67833050Y-59450655D01*
X67926884Y-59527980D01*
X67916511Y-59530559D01*
X67903270Y-59549555D01*
X67842578Y-59662575D01*
X67805100Y-59785264D01*
X67792277Y-59912906D01*
X67804603Y-60040598D01*
X67841604Y-60163432D01*
X67901858Y-60276687D01*
X67983049Y-60376010D01*
X68071437Y-60464399D01*
X68533270Y-60002566D01*
X68536862Y-60002566D01*
X69037691Y-60503395D01*
X69153621Y-60474573D01*
X69166862Y-60455577D01*
X69227554Y-60342557D01*
X69265032Y-60219868D01*
X69277855Y-60092226D01*
X69265529Y-59964534D01*
X69228528Y-59841700D01*
X69168274Y-59728445D01*
X69087083Y-59629122D01*
X68998695Y-59540733D01*
X68536862Y-60002566D01*
X68533270Y-60002566D01*
X68519128Y-59988424D01*
X68520924Y-59986628D01*
X68535066Y-60000770D01*
X68996899Y-59538937D01*
X68915995Y-59458034D01*
X68924950Y-59450655D01*
X69003032Y-59355120D01*
X69013953Y-59334588D01*
X69100400Y-59334588D01*
X69100400Y-59458412D01*
X69124556Y-59579856D01*
X69171941Y-59694254D01*
X69240734Y-59797209D01*
X69328291Y-59884766D01*
X69431246Y-59953559D01*
X69545644Y-60000944D01*
X69667088Y-60025100D01*
X69790912Y-60025100D01*
X69912356Y-60000944D01*
X70026754Y-59953559D01*
X70129709Y-59884766D01*
X70217266Y-59797209D01*
X70286059Y-59694254D01*
X70333444Y-59579856D01*
X70357600Y-59458412D01*
X70357600Y-59334588D01*
X70337288Y-59232472D01*
X70393489Y-59229076D01*
X70561039Y-59185097D01*
X70716791Y-59109275D01*
X70772371Y-59072137D01*
X70828548Y-58932844D01*
X70254000Y-58358296D01*
X70239858Y-58372439D01*
X70238062Y-58370643D01*
X70252204Y-58356500D01*
X70255796Y-58356500D01*
X70830344Y-58931048D01*
X70969637Y-58874871D01*
X71057016Y-58725297D01*
X71113535Y-58561550D01*
X71137023Y-58389923D01*
X71126576Y-58217011D01*
X71082597Y-58049461D01*
X71006775Y-57893709D01*
X70969637Y-57838129D01*
X70830344Y-57781952D01*
X70255796Y-58356500D01*
X70252204Y-58356500D01*
X69677656Y-57781952D01*
X69538363Y-57838129D01*
X69450984Y-57987703D01*
X69394465Y-58151450D01*
X69370977Y-58323077D01*
X69381424Y-58495989D01*
X69425403Y-58663539D01*
X69497645Y-58811938D01*
X69431246Y-58839441D01*
X69328291Y-58908234D01*
X69240734Y-58995791D01*
X69171941Y-59098746D01*
X69124556Y-59213144D01*
X69100400Y-59334588D01*
X69013953Y-59334588D01*
X69060975Y-59246188D01*
X69096553Y-59128045D01*
X69100451Y-59106214D01*
X69038549Y-59007770D01*
X68380270Y-59007770D01*
X68380270Y-59027770D01*
X68377730Y-59027770D01*
X68377730Y-59007770D01*
X67719451Y-59007770D01*
X67657549Y-59106214D01*
X67532600Y-59106214D01*
X67532600Y-59051853D01*
X67523866Y-58963174D01*
X67504091Y-58897986D01*
X67549213Y-58901438D01*
X67660909Y-58887970D01*
X67657549Y-58906786D01*
X67719451Y-59005230D01*
X68377730Y-59005230D01*
X68377730Y-58377100D01*
X68380270Y-58377100D01*
X68380270Y-59005230D01*
X69038549Y-59005230D01*
X69100451Y-58906786D01*
X69096553Y-58884955D01*
X69060975Y-58766812D01*
X69003032Y-58657880D01*
X68924950Y-58562345D01*
X68829731Y-58483879D01*
X68721034Y-58425497D01*
X68603035Y-58389442D01*
X68480270Y-58377100D01*
X68380270Y-58377100D01*
X68377730Y-58377100D01*
X68277730Y-58377100D01*
X68154965Y-58389442D01*
X68133625Y-58395962D01*
X68142357Y-58281831D01*
X68128124Y-58163788D01*
X68091136Y-58050789D01*
X68047426Y-57973138D01*
X67927381Y-57801695D01*
X67869362Y-57734063D01*
X67775828Y-57660658D01*
X67669771Y-57606910D01*
X67555266Y-57574886D01*
X67436715Y-57565816D01*
X67318671Y-57580049D01*
X67205672Y-57617037D01*
X67102061Y-57675360D01*
X67011818Y-57752775D01*
X66938413Y-57846309D01*
X66929000Y-57864883D01*
X66919587Y-57846309D01*
X66846182Y-57752775D01*
X66755939Y-57675360D01*
X66652328Y-57617037D01*
X66539329Y-57580049D01*
X66421285Y-57565816D01*
X66302734Y-57574886D01*
X66188229Y-57606910D01*
X66082172Y-57660658D01*
X65988638Y-57734063D01*
X65930619Y-57801695D01*
X65810574Y-57973138D01*
X65766864Y-58050789D01*
X65729876Y-58163788D01*
X65715643Y-58281832D01*
X65724713Y-58400383D01*
X65738674Y-58450301D01*
X65692425Y-58436272D01*
X65607420Y-58427900D01*
X65350580Y-58427900D01*
X65265575Y-58436272D01*
X65156508Y-58469357D01*
X65055992Y-58523084D01*
X64967889Y-58595389D01*
X64895584Y-58683492D01*
X64841857Y-58784008D01*
X64808772Y-58893075D01*
X64797601Y-59006500D01*
X64624422Y-59006500D01*
X64617266Y-58995791D01*
X64529709Y-58908234D01*
X64426754Y-58839441D01*
X64357172Y-58810619D01*
X64407016Y-58725297D01*
X64463535Y-58561550D01*
X64487023Y-58389923D01*
X64476576Y-58217011D01*
X64432597Y-58049461D01*
X64356775Y-57893709D01*
X64319637Y-57838129D01*
X64180344Y-57781952D01*
X63605796Y-58356500D01*
X63619939Y-58370643D01*
X63618143Y-58372439D01*
X63604000Y-58358296D01*
X63029452Y-58932844D01*
X60725822Y-58932844D01*
X60725822Y-58323077D01*
X62720977Y-58323077D01*
X62731424Y-58495989D01*
X62775403Y-58663539D01*
X62851225Y-58819291D01*
X62888363Y-58874871D01*
X63027656Y-58931048D01*
X63602204Y-58356500D01*
X63027656Y-57781952D01*
X62888363Y-57838129D01*
X62800984Y-57987703D01*
X62744465Y-58151450D01*
X62720977Y-58323077D01*
X60725822Y-58323077D01*
X60725822Y-57780156D01*
X63029452Y-57780156D01*
X63604000Y-58354704D01*
X64178548Y-57780156D01*
X64122371Y-57640863D01*
X63972797Y-57553484D01*
X63829537Y-57504036D01*
X64508164Y-57504036D01*
X64512406Y-57527798D01*
X64550829Y-57655321D01*
X64613393Y-57772898D01*
X64697693Y-57876010D01*
X64800489Y-57960695D01*
X64917831Y-58023698D01*
X65045210Y-58062598D01*
X65177730Y-58075900D01*
X65277730Y-58075900D01*
X65277730Y-57397770D01*
X65280270Y-57397770D01*
X65280270Y-58075900D01*
X65380270Y-58075900D01*
X65512790Y-58062598D01*
X65640169Y-58023698D01*
X65757511Y-57960695D01*
X65860307Y-57876010D01*
X65944607Y-57772898D01*
X66007171Y-57655321D01*
X66045594Y-57527798D01*
X66049836Y-57504036D01*
X67808164Y-57504036D01*
X67812406Y-57527798D01*
X67850829Y-57655321D01*
X67913393Y-57772898D01*
X67997693Y-57876010D01*
X68100489Y-57960695D01*
X68217831Y-58023698D01*
X68345210Y-58062598D01*
X68477730Y-58075900D01*
X68577730Y-58075900D01*
X68577730Y-57397770D01*
X68580270Y-57397770D01*
X68580270Y-58075900D01*
X68680270Y-58075900D01*
X68812790Y-58062598D01*
X68940169Y-58023698D01*
X69057511Y-57960695D01*
X69160307Y-57876010D01*
X69238673Y-57780156D01*
X69679452Y-57780156D01*
X70254000Y-58354704D01*
X70828548Y-57780156D01*
X70772371Y-57640863D01*
X70622797Y-57553484D01*
X70459050Y-57496965D01*
X70287423Y-57473477D01*
X70114511Y-57483924D01*
X69946961Y-57527903D01*
X69791209Y-57603725D01*
X69735629Y-57640863D01*
X69679452Y-57780156D01*
X69238673Y-57780156D01*
X69244607Y-57772898D01*
X69307171Y-57655321D01*
X69345594Y-57527798D01*
X69349836Y-57504036D01*
X69288549Y-57397770D01*
X68580270Y-57397770D01*
X68577730Y-57397770D01*
X67869451Y-57397770D01*
X67808164Y-57504036D01*
X66049836Y-57504036D01*
X65988549Y-57397770D01*
X65280270Y-57397770D01*
X65277730Y-57397770D01*
X64569451Y-57397770D01*
X64508164Y-57504036D01*
X63829537Y-57504036D01*
X63809050Y-57496965D01*
X63637423Y-57473477D01*
X63464511Y-57483924D01*
X63296961Y-57527903D01*
X63141209Y-57603725D01*
X63085629Y-57640863D01*
X63029452Y-57780156D01*
X60725822Y-57780156D01*
X60725822Y-57288964D01*
X64508164Y-57288964D01*
X64569451Y-57395230D01*
X65277730Y-57395230D01*
X65277730Y-56717100D01*
X65280270Y-56717100D01*
X65280270Y-57395230D01*
X65988549Y-57395230D01*
X66049836Y-57288964D01*
X67808164Y-57288964D01*
X67869451Y-57395230D01*
X68577730Y-57395230D01*
X68577730Y-56717100D01*
X68580270Y-56717100D01*
X68580270Y-57395230D01*
X69288549Y-57395230D01*
X69349836Y-57288964D01*
X69345594Y-57265202D01*
X69307171Y-57137679D01*
X69244607Y-57020102D01*
X69160307Y-56916990D01*
X69057511Y-56832305D01*
X68940169Y-56769302D01*
X68812790Y-56730402D01*
X68680270Y-56717100D01*
X68580270Y-56717100D01*
X68577730Y-56717100D01*
X68477730Y-56717100D01*
X68345210Y-56730402D01*
X68217831Y-56769302D01*
X68100489Y-56832305D01*
X67997693Y-56916990D01*
X67913393Y-57020102D01*
X67850829Y-57137679D01*
X67812406Y-57265202D01*
X67808164Y-57288964D01*
X66049836Y-57288964D01*
X66045594Y-57265202D01*
X66007171Y-57137679D01*
X65944607Y-57020102D01*
X65860307Y-56916990D01*
X65757511Y-56832305D01*
X65640169Y-56769302D01*
X65512790Y-56730402D01*
X65380270Y-56717100D01*
X65280270Y-56717100D01*
X65277730Y-56717100D01*
X65177730Y-56717100D01*
X65045210Y-56730402D01*
X64917831Y-56769302D01*
X64800489Y-56832305D01*
X64697693Y-56916990D01*
X64613393Y-57020102D01*
X64550829Y-57137679D01*
X64512406Y-57265202D01*
X64508164Y-57288964D01*
X60725822Y-57288964D01*
X60725822Y-56578921D01*
X82618622Y-56578921D01*
X82618623Y-61921721D01*
X82618623Y-61921721D01*
G37*
X82618623Y-61921721D02*
X60725822Y-61921721D01*
X60725822Y-60505191D01*
X64822105Y-60505191D01*
X64850927Y-60621121D01*
X64869923Y-60634362D01*
X64982943Y-60695054D01*
X65105632Y-60732532D01*
X65233274Y-60745355D01*
X65360966Y-60733029D01*
X65483800Y-60696028D01*
X65597055Y-60635774D01*
X65696378Y-60554583D01*
X65784767Y-60466195D01*
X68073233Y-60466195D01*
X68161622Y-60554583D01*
X68260945Y-60635774D01*
X68374200Y-60696028D01*
X68497034Y-60733029D01*
X68624726Y-60745355D01*
X68752368Y-60732532D01*
X68875057Y-60695054D01*
X68988077Y-60634362D01*
X69007073Y-60621121D01*
X69035895Y-60505191D01*
X68535066Y-60004362D01*
X68073233Y-60466195D01*
X65784767Y-60466195D01*
X65322934Y-60004362D01*
X64822105Y-60505191D01*
X60725822Y-60505191D01*
X60725822Y-60092226D01*
X64580145Y-60092226D01*
X64592968Y-60219868D01*
X64630446Y-60342557D01*
X64691138Y-60455577D01*
X64704379Y-60474573D01*
X64820309Y-60503395D01*
X65321138Y-60002566D01*
X64859305Y-59540733D01*
X64770917Y-59629122D01*
X64689726Y-59728445D01*
X64629472Y-59841700D01*
X64592471Y-59964534D01*
X64580145Y-60092226D01*
X60725822Y-60092226D01*
X60725822Y-58932844D01*
X63029452Y-58932844D01*
X63085629Y-59072137D01*
X63235203Y-59159516D01*
X63398950Y-59216035D01*
X63520668Y-59232693D01*
X63500400Y-59334588D01*
X63500400Y-59458412D01*
X63524556Y-59579856D01*
X63571941Y-59694254D01*
X63640734Y-59797209D01*
X63728291Y-59884766D01*
X63831246Y-59953559D01*
X63945644Y-60000944D01*
X64067088Y-60025100D01*
X64190912Y-60025100D01*
X64312356Y-60000944D01*
X64426754Y-59953559D01*
X64529709Y-59884766D01*
X64617266Y-59797209D01*
X64686059Y-59694254D01*
X64733444Y-59579856D01*
X64757600Y-59458412D01*
X64757600Y-59334588D01*
X64733444Y-59213144D01*
X64686059Y-59098746D01*
X64624422Y-59006500D01*
X64797601Y-59006500D01*
X64808772Y-59119925D01*
X64841857Y-59228992D01*
X64895584Y-59329508D01*
X64967889Y-59417611D01*
X64978815Y-59426578D01*
X64949490Y-59450549D01*
X64861101Y-59538937D01*
X65322934Y-60000770D01*
X65337077Y-59986628D01*
X65338873Y-59988424D01*
X65324730Y-60002566D01*
X65786563Y-60464399D01*
X65874951Y-60376010D01*
X65956142Y-60276687D01*
X66016396Y-60163432D01*
X66053397Y-60040598D01*
X66065723Y-59912906D01*
X66052900Y-59785264D01*
X66015422Y-59662575D01*
X65954730Y-59549555D01*
X65941489Y-59530559D01*
X65862644Y-59510957D01*
X65902008Y-59489916D01*
X65990111Y-59417611D01*
X66062416Y-59329508D01*
X66116143Y-59228992D01*
X66149228Y-59119925D01*
X66160399Y-59006500D01*
X66149228Y-58893075D01*
X66142674Y-58871471D01*
X66190743Y-58887205D01*
X66308787Y-58901438D01*
X66353909Y-58897986D01*
X66334134Y-58963175D01*
X66325400Y-59051854D01*
X66325400Y-59261147D01*
X66334134Y-59349826D01*
X66368649Y-59463605D01*
X66424698Y-59568464D01*
X66500127Y-59660374D01*
X66592037Y-59735803D01*
X66696896Y-59791851D01*
X66810675Y-59826366D01*
X66929000Y-59838020D01*
X67047326Y-59826366D01*
X67161105Y-59791851D01*
X67265964Y-59735803D01*
X67357874Y-59660374D01*
X67433303Y-59568463D01*
X67489351Y-59463604D01*
X67523866Y-59349825D01*
X67532600Y-59261146D01*
X67532600Y-59106214D01*
X67657549Y-59106214D01*
X67661447Y-59128045D01*
X67697025Y-59246188D01*
X67754968Y-59355120D01*
X67833050Y-59450655D01*
X67926884Y-59527980D01*
X67916511Y-59530559D01*
X67903270Y-59549555D01*
X67842578Y-59662575D01*
X67805100Y-59785264D01*
X67792277Y-59912906D01*
X67804603Y-60040598D01*
X67841604Y-60163432D01*
X67901858Y-60276687D01*
X67983049Y-60376010D01*
X68071437Y-60464399D01*
X68533270Y-60002566D01*
X68536862Y-60002566D01*
X69037691Y-60503395D01*
X69153621Y-60474573D01*
X69166862Y-60455577D01*
X69227554Y-60342557D01*
X69265032Y-60219868D01*
X69277855Y-60092226D01*
X69265529Y-59964534D01*
X69228528Y-59841700D01*
X69168274Y-59728445D01*
X69087083Y-59629122D01*
X68998695Y-59540733D01*
X68536862Y-60002566D01*
X68533270Y-60002566D01*
X68519128Y-59988424D01*
X68520924Y-59986628D01*
X68535066Y-60000770D01*
X68996899Y-59538937D01*
X68915995Y-59458034D01*
X68924950Y-59450655D01*
X69003032Y-59355120D01*
X69013953Y-59334588D01*
X69100400Y-59334588D01*
X69100400Y-59458412D01*
X69124556Y-59579856D01*
X69171941Y-59694254D01*
X69240734Y-59797209D01*
X69328291Y-59884766D01*
X69431246Y-59953559D01*
X69545644Y-60000944D01*
X69667088Y-60025100D01*
X69790912Y-60025100D01*
X69912356Y-60000944D01*
X70026754Y-59953559D01*
X70129709Y-59884766D01*
X70217266Y-59797209D01*
X70286059Y-59694254D01*
X70333444Y-59579856D01*
X70357600Y-59458412D01*
X70357600Y-59334588D01*
X70337288Y-59232472D01*
X70393489Y-59229076D01*
X70561039Y-59185097D01*
X70716791Y-59109275D01*
X70772371Y-59072137D01*
X70828548Y-58932844D01*
X70254000Y-58358296D01*
X70239858Y-58372439D01*
X70238062Y-58370643D01*
X70252204Y-58356500D01*
X70255796Y-58356500D01*
X70830344Y-58931048D01*
X70969637Y-58874871D01*
X71057016Y-58725297D01*
X71113535Y-58561550D01*
X71137023Y-58389923D01*
X71126576Y-58217011D01*
X71082597Y-58049461D01*
X71006775Y-57893709D01*
X70969637Y-57838129D01*
X70830344Y-57781952D01*
X70255796Y-58356500D01*
X70252204Y-58356500D01*
X69677656Y-57781952D01*
X69538363Y-57838129D01*
X69450984Y-57987703D01*
X69394465Y-58151450D01*
X69370977Y-58323077D01*
X69381424Y-58495989D01*
X69425403Y-58663539D01*
X69497645Y-58811938D01*
X69431246Y-58839441D01*
X69328291Y-58908234D01*
X69240734Y-58995791D01*
X69171941Y-59098746D01*
X69124556Y-59213144D01*
X69100400Y-59334588D01*
X69013953Y-59334588D01*
X69060975Y-59246188D01*
X69096553Y-59128045D01*
X69100451Y-59106214D01*
X69038549Y-59007770D01*
X68380270Y-59007770D01*
X68380270Y-59027770D01*
X68377730Y-59027770D01*
X68377730Y-59007770D01*
X67719451Y-59007770D01*
X67657549Y-59106214D01*
X67532600Y-59106214D01*
X67532600Y-59051853D01*
X67523866Y-58963174D01*
X67504091Y-58897986D01*
X67549213Y-58901438D01*
X67660909Y-58887970D01*
X67657549Y-58906786D01*
X67719451Y-59005230D01*
X68377730Y-59005230D01*
X68377730Y-58377100D01*
X68380270Y-58377100D01*
X68380270Y-59005230D01*
X69038549Y-59005230D01*
X69100451Y-58906786D01*
X69096553Y-58884955D01*
X69060975Y-58766812D01*
X69003032Y-58657880D01*
X68924950Y-58562345D01*
X68829731Y-58483879D01*
X68721034Y-58425497D01*
X68603035Y-58389442D01*
X68480270Y-58377100D01*
X68380270Y-58377100D01*
X68377730Y-58377100D01*
X68277730Y-58377100D01*
X68154965Y-58389442D01*
X68133625Y-58395962D01*
X68142357Y-58281831D01*
X68128124Y-58163788D01*
X68091136Y-58050789D01*
X68047426Y-57973138D01*
X67927381Y-57801695D01*
X67869362Y-57734063D01*
X67775828Y-57660658D01*
X67669771Y-57606910D01*
X67555266Y-57574886D01*
X67436715Y-57565816D01*
X67318671Y-57580049D01*
X67205672Y-57617037D01*
X67102061Y-57675360D01*
X67011818Y-57752775D01*
X66938413Y-57846309D01*
X66929000Y-57864883D01*
X66919587Y-57846309D01*
X66846182Y-57752775D01*
X66755939Y-57675360D01*
X66652328Y-57617037D01*
X66539329Y-57580049D01*
X66421285Y-57565816D01*
X66302734Y-57574886D01*
X66188229Y-57606910D01*
X66082172Y-57660658D01*
X65988638Y-57734063D01*
X65930619Y-57801695D01*
X65810574Y-57973138D01*
X65766864Y-58050789D01*
X65729876Y-58163788D01*
X65715643Y-58281832D01*
X65724713Y-58400383D01*
X65738674Y-58450301D01*
X65692425Y-58436272D01*
X65607420Y-58427900D01*
X65350580Y-58427900D01*
X65265575Y-58436272D01*
X65156508Y-58469357D01*
X65055992Y-58523084D01*
X64967889Y-58595389D01*
X64895584Y-58683492D01*
X64841857Y-58784008D01*
X64808772Y-58893075D01*
X64797601Y-59006500D01*
X64624422Y-59006500D01*
X64617266Y-58995791D01*
X64529709Y-58908234D01*
X64426754Y-58839441D01*
X64357172Y-58810619D01*
X64407016Y-58725297D01*
X64463535Y-58561550D01*
X64487023Y-58389923D01*
X64476576Y-58217011D01*
X64432597Y-58049461D01*
X64356775Y-57893709D01*
X64319637Y-57838129D01*
X64180344Y-57781952D01*
X63605796Y-58356500D01*
X63619939Y-58370643D01*
X63618143Y-58372439D01*
X63604000Y-58358296D01*
X63029452Y-58932844D01*
X60725822Y-58932844D01*
X60725822Y-58323077D01*
X62720977Y-58323077D01*
X62731424Y-58495989D01*
X62775403Y-58663539D01*
X62851225Y-58819291D01*
X62888363Y-58874871D01*
X63027656Y-58931048D01*
X63602204Y-58356500D01*
X63027656Y-57781952D01*
X62888363Y-57838129D01*
X62800984Y-57987703D01*
X62744465Y-58151450D01*
X62720977Y-58323077D01*
X60725822Y-58323077D01*
X60725822Y-57780156D01*
X63029452Y-57780156D01*
X63604000Y-58354704D01*
X64178548Y-57780156D01*
X64122371Y-57640863D01*
X63972797Y-57553484D01*
X63829537Y-57504036D01*
X64508164Y-57504036D01*
X64512406Y-57527798D01*
X64550829Y-57655321D01*
X64613393Y-57772898D01*
X64697693Y-57876010D01*
X64800489Y-57960695D01*
X64917831Y-58023698D01*
X65045210Y-58062598D01*
X65177730Y-58075900D01*
X65277730Y-58075900D01*
X65277730Y-57397770D01*
X65280270Y-57397770D01*
X65280270Y-58075900D01*
X65380270Y-58075900D01*
X65512790Y-58062598D01*
X65640169Y-58023698D01*
X65757511Y-57960695D01*
X65860307Y-57876010D01*
X65944607Y-57772898D01*
X66007171Y-57655321D01*
X66045594Y-57527798D01*
X66049836Y-57504036D01*
X67808164Y-57504036D01*
X67812406Y-57527798D01*
X67850829Y-57655321D01*
X67913393Y-57772898D01*
X67997693Y-57876010D01*
X68100489Y-57960695D01*
X68217831Y-58023698D01*
X68345210Y-58062598D01*
X68477730Y-58075900D01*
X68577730Y-58075900D01*
X68577730Y-57397770D01*
X68580270Y-57397770D01*
X68580270Y-58075900D01*
X68680270Y-58075900D01*
X68812790Y-58062598D01*
X68940169Y-58023698D01*
X69057511Y-57960695D01*
X69160307Y-57876010D01*
X69238673Y-57780156D01*
X69679452Y-57780156D01*
X70254000Y-58354704D01*
X70828548Y-57780156D01*
X70772371Y-57640863D01*
X70622797Y-57553484D01*
X70459050Y-57496965D01*
X70287423Y-57473477D01*
X70114511Y-57483924D01*
X69946961Y-57527903D01*
X69791209Y-57603725D01*
X69735629Y-57640863D01*
X69679452Y-57780156D01*
X69238673Y-57780156D01*
X69244607Y-57772898D01*
X69307171Y-57655321D01*
X69345594Y-57527798D01*
X69349836Y-57504036D01*
X69288549Y-57397770D01*
X68580270Y-57397770D01*
X68577730Y-57397770D01*
X67869451Y-57397770D01*
X67808164Y-57504036D01*
X66049836Y-57504036D01*
X65988549Y-57397770D01*
X65280270Y-57397770D01*
X65277730Y-57397770D01*
X64569451Y-57397770D01*
X64508164Y-57504036D01*
X63829537Y-57504036D01*
X63809050Y-57496965D01*
X63637423Y-57473477D01*
X63464511Y-57483924D01*
X63296961Y-57527903D01*
X63141209Y-57603725D01*
X63085629Y-57640863D01*
X63029452Y-57780156D01*
X60725822Y-57780156D01*
X60725822Y-57288964D01*
X64508164Y-57288964D01*
X64569451Y-57395230D01*
X65277730Y-57395230D01*
X65277730Y-56717100D01*
X65280270Y-56717100D01*
X65280270Y-57395230D01*
X65988549Y-57395230D01*
X66049836Y-57288964D01*
X67808164Y-57288964D01*
X67869451Y-57395230D01*
X68577730Y-57395230D01*
X68577730Y-56717100D01*
X68580270Y-56717100D01*
X68580270Y-57395230D01*
X69288549Y-57395230D01*
X69349836Y-57288964D01*
X69345594Y-57265202D01*
X69307171Y-57137679D01*
X69244607Y-57020102D01*
X69160307Y-56916990D01*
X69057511Y-56832305D01*
X68940169Y-56769302D01*
X68812790Y-56730402D01*
X68680270Y-56717100D01*
X68580270Y-56717100D01*
X68577730Y-56717100D01*
X68477730Y-56717100D01*
X68345210Y-56730402D01*
X68217831Y-56769302D01*
X68100489Y-56832305D01*
X67997693Y-56916990D01*
X67913393Y-57020102D01*
X67850829Y-57137679D01*
X67812406Y-57265202D01*
X67808164Y-57288964D01*
X66049836Y-57288964D01*
X66045594Y-57265202D01*
X66007171Y-57137679D01*
X65944607Y-57020102D01*
X65860307Y-56916990D01*
X65757511Y-56832305D01*
X65640169Y-56769302D01*
X65512790Y-56730402D01*
X65380270Y-56717100D01*
X65280270Y-56717100D01*
X65277730Y-56717100D01*
X65177730Y-56717100D01*
X65045210Y-56730402D01*
X64917831Y-56769302D01*
X64800489Y-56832305D01*
X64697693Y-56916990D01*
X64613393Y-57020102D01*
X64550829Y-57137679D01*
X64512406Y-57265202D01*
X64508164Y-57288964D01*
X60725822Y-57288964D01*
X60725822Y-56578921D01*
X82618622Y-56578921D01*
X82618623Y-61921721D01*
G04 #@! TD*
M02*
