G04 #@! TF.GenerationSoftware,KiCad,Pcbnew,(5.0.2)-1*
G04 #@! TF.CreationDate,2019-05-03T19:58:13-04:00*
G04 #@! TF.ProjectId,USBxtendV1,55534278-7465-46e6-9456-312e6b696361,V1*
G04 #@! TF.SameCoordinates,Original*
G04 #@! TF.FileFunction,Legend,Bot*
G04 #@! TF.FilePolarity,Positive*
%FSLAX46Y46*%
G04 Gerber Fmt 4.6, Leading zero omitted, Abs format (unit mm)*
G04 Created by KiCad (PCBNEW (5.0.2)-1) date 5/3/2019 7:58:13 PM*
%MOMM*%
%LPD*%
G01*
G04 APERTURE LIST*
%ADD10C,0.127000*%
%ADD11C,0.125000*%
%ADD12C,0.150000*%
%ADD13C,0.075000*%
G04 APERTURE END LIST*
D10*
X71485760Y-57323445D02*
X71449474Y-57267807D01*
X71449474Y-57184350D01*
X71485760Y-57100893D01*
X71558331Y-57045255D01*
X71630902Y-57017436D01*
X71776045Y-56989617D01*
X71884902Y-56989617D01*
X72030045Y-57017436D01*
X72102617Y-57045255D01*
X72175188Y-57100893D01*
X72211474Y-57184350D01*
X72211474Y-57239988D01*
X72175188Y-57323445D01*
X72138902Y-57351264D01*
X71884902Y-57351264D01*
X71884902Y-57239988D01*
X72211474Y-57629455D02*
X72211474Y-57740731D01*
X72175188Y-57796369D01*
X72138902Y-57824188D01*
X72030045Y-57879826D01*
X71884902Y-57907645D01*
X71594617Y-57907645D01*
X71522045Y-57879826D01*
X71485760Y-57852007D01*
X71449474Y-57796369D01*
X71449474Y-57685093D01*
X71485760Y-57629455D01*
X71522045Y-57601636D01*
X71594617Y-57573817D01*
X71776045Y-57573817D01*
X71848617Y-57601636D01*
X71884902Y-57629455D01*
X71921188Y-57685093D01*
X71921188Y-57796369D01*
X71884902Y-57852007D01*
X71848617Y-57879826D01*
X71776045Y-57907645D01*
X71449474Y-58102379D02*
X71449474Y-58464026D01*
X71739760Y-58269293D01*
X71739760Y-58352750D01*
X71776045Y-58408388D01*
X71812331Y-58436207D01*
X71884902Y-58464026D01*
X72066331Y-58464026D01*
X72138902Y-58436207D01*
X72175188Y-58408388D01*
X72211474Y-58352750D01*
X72211474Y-58185836D01*
X72175188Y-58130198D01*
X72138902Y-58102379D01*
X71449474Y-58992588D02*
X71449474Y-58714398D01*
X71812331Y-58686579D01*
X71776045Y-58714398D01*
X71739760Y-58770036D01*
X71739760Y-58909131D01*
X71776045Y-58964769D01*
X71812331Y-58992588D01*
X71884902Y-59020407D01*
X72066331Y-59020407D01*
X72138902Y-58992588D01*
X72175188Y-58964769D01*
X72211474Y-58909131D01*
X72211474Y-58770036D01*
X72175188Y-58714398D01*
X72138902Y-58686579D01*
X71921188Y-59270779D02*
X71921188Y-59715883D01*
X71449474Y-59994074D02*
X72066331Y-59994074D01*
X72138902Y-60021893D01*
X72175188Y-60049712D01*
X72211474Y-60105350D01*
X72211474Y-60216626D01*
X72175188Y-60272264D01*
X72138902Y-60300083D01*
X72066331Y-60327902D01*
X71449474Y-60327902D01*
X72175188Y-60578274D02*
X72211474Y-60661731D01*
X72211474Y-60800826D01*
X72175188Y-60856464D01*
X72138902Y-60884283D01*
X72066331Y-60912102D01*
X71993760Y-60912102D01*
X71921188Y-60884283D01*
X71884902Y-60856464D01*
X71848617Y-60800826D01*
X71812331Y-60689550D01*
X71776045Y-60633912D01*
X71739760Y-60606093D01*
X71667188Y-60578274D01*
X71594617Y-60578274D01*
X71522045Y-60606093D01*
X71485760Y-60633912D01*
X71449474Y-60689550D01*
X71449474Y-60828645D01*
X71485760Y-60912102D01*
X71812331Y-61357207D02*
X71848617Y-61440664D01*
X71884902Y-61468483D01*
X71957474Y-61496302D01*
X72066331Y-61496302D01*
X72138902Y-61468483D01*
X72175188Y-61440664D01*
X72211474Y-61385026D01*
X72211474Y-61162474D01*
X71449474Y-61162474D01*
X71449474Y-61357207D01*
X71485760Y-61412845D01*
X71522045Y-61440664D01*
X71594617Y-61468483D01*
X71667188Y-61468483D01*
X71739760Y-61440664D01*
X71776045Y-61412845D01*
X71812331Y-61357207D01*
X71812331Y-61162474D01*
D11*
X81642868Y-61691851D02*
X81671440Y-61668041D01*
X81700011Y-61620422D01*
X81700011Y-61501375D01*
X81671440Y-61453756D01*
X81642868Y-61429946D01*
X81585725Y-61406137D01*
X81528582Y-61406137D01*
X81442868Y-61429946D01*
X81100011Y-61715660D01*
X81100011Y-61406137D01*
X81700011Y-61096613D02*
X81700011Y-61048994D01*
X81671440Y-61001375D01*
X81642868Y-60977565D01*
X81585725Y-60953756D01*
X81471440Y-60929946D01*
X81328582Y-60929946D01*
X81214297Y-60953756D01*
X81157154Y-60977565D01*
X81128582Y-61001375D01*
X81100011Y-61048994D01*
X81100011Y-61096613D01*
X81128582Y-61144232D01*
X81157154Y-61168041D01*
X81214297Y-61191851D01*
X81328582Y-61215660D01*
X81471440Y-61215660D01*
X81585725Y-61191851D01*
X81642868Y-61168041D01*
X81671440Y-61144232D01*
X81700011Y-61096613D01*
X81100011Y-60453756D02*
X81100011Y-60739470D01*
X81100011Y-60596613D02*
X81700011Y-60596613D01*
X81614297Y-60644232D01*
X81557154Y-60691851D01*
X81528582Y-60739470D01*
X81100011Y-60215660D02*
X81100011Y-60120422D01*
X81128582Y-60072803D01*
X81157154Y-60048994D01*
X81242868Y-60001375D01*
X81357154Y-59977565D01*
X81585725Y-59977565D01*
X81642868Y-60001375D01*
X81671440Y-60025184D01*
X81700011Y-60072803D01*
X81700011Y-60168041D01*
X81671440Y-60215660D01*
X81642868Y-60239470D01*
X81585725Y-60263280D01*
X81442868Y-60263280D01*
X81385725Y-60239470D01*
X81357154Y-60215660D01*
X81328582Y-60168041D01*
X81328582Y-60072803D01*
X81357154Y-60025184D01*
X81385725Y-60001375D01*
X81442868Y-59977565D01*
X81328582Y-59763280D02*
X81328582Y-59382327D01*
X81700011Y-59048994D02*
X81700011Y-59001375D01*
X81671440Y-58953756D01*
X81642868Y-58929946D01*
X81585725Y-58906137D01*
X81471440Y-58882327D01*
X81328582Y-58882327D01*
X81214297Y-58906137D01*
X81157154Y-58929946D01*
X81128582Y-58953756D01*
X81100011Y-59001375D01*
X81100011Y-59048994D01*
X81128582Y-59096613D01*
X81157154Y-59120422D01*
X81214297Y-59144232D01*
X81328582Y-59168041D01*
X81471440Y-59168041D01*
X81585725Y-59144232D01*
X81642868Y-59120422D01*
X81671440Y-59096613D01*
X81700011Y-59048994D01*
X81700011Y-58429946D02*
X81700011Y-58668041D01*
X81414297Y-58691851D01*
X81442868Y-58668041D01*
X81471440Y-58620422D01*
X81471440Y-58501375D01*
X81442868Y-58453756D01*
X81414297Y-58429946D01*
X81357154Y-58406137D01*
X81214297Y-58406137D01*
X81157154Y-58429946D01*
X81128582Y-58453756D01*
X81100011Y-58501375D01*
X81100011Y-58620422D01*
X81128582Y-58668041D01*
X81157154Y-58691851D01*
X81328582Y-58191851D02*
X81328582Y-57810899D01*
X81700011Y-57477565D02*
X81700011Y-57429946D01*
X81671440Y-57382327D01*
X81642868Y-57358518D01*
X81585725Y-57334708D01*
X81471440Y-57310899D01*
X81328582Y-57310899D01*
X81214297Y-57334708D01*
X81157154Y-57358518D01*
X81128582Y-57382327D01*
X81100011Y-57429946D01*
X81100011Y-57477565D01*
X81128582Y-57525184D01*
X81157154Y-57548994D01*
X81214297Y-57572803D01*
X81328582Y-57596613D01*
X81471440Y-57596613D01*
X81585725Y-57572803D01*
X81642868Y-57548994D01*
X81671440Y-57525184D01*
X81700011Y-57477565D01*
X81700011Y-57144232D02*
X81700011Y-56834708D01*
X81471440Y-57001375D01*
X81471440Y-56929946D01*
X81442868Y-56882327D01*
X81414297Y-56858518D01*
X81357154Y-56834708D01*
X81214297Y-56834708D01*
X81157154Y-56858518D01*
X81128582Y-56882327D01*
X81100011Y-56929946D01*
X81100011Y-57072803D01*
X81128582Y-57120422D01*
X81157154Y-57144232D01*
D10*
X62025348Y-56761017D02*
X62061634Y-56809398D01*
X62061634Y-56906160D01*
X62025348Y-56954540D01*
X61952777Y-56978731D01*
X61916491Y-56978731D01*
X61843920Y-56954540D01*
X61807634Y-56906160D01*
X61807634Y-56833588D01*
X61771348Y-56785207D01*
X61698777Y-56761017D01*
X61662491Y-56761017D01*
X61589920Y-56785207D01*
X61553634Y-56833588D01*
X61553634Y-56906160D01*
X61589920Y-56954540D01*
X62025348Y-57389969D02*
X62061634Y-57341588D01*
X62061634Y-57244826D01*
X62025348Y-57196445D01*
X61952777Y-57172255D01*
X61662491Y-57172255D01*
X61589920Y-57196445D01*
X61553634Y-57244826D01*
X61553634Y-57341588D01*
X61589920Y-57389969D01*
X61662491Y-57414160D01*
X61735062Y-57414160D01*
X61807634Y-57172255D01*
X61553634Y-57631874D02*
X62061634Y-57631874D01*
X61626205Y-57631874D02*
X61589920Y-57656064D01*
X61553634Y-57704445D01*
X61553634Y-57777017D01*
X61589920Y-57825398D01*
X61662491Y-57849588D01*
X62061634Y-57849588D01*
X62025348Y-58067302D02*
X62061634Y-58115683D01*
X62061634Y-58212445D01*
X62025348Y-58260826D01*
X61952777Y-58285017D01*
X61916491Y-58285017D01*
X61843920Y-58260826D01*
X61807634Y-58212445D01*
X61807634Y-58139874D01*
X61771348Y-58091493D01*
X61698777Y-58067302D01*
X61662491Y-58067302D01*
X61589920Y-58091493D01*
X61553634Y-58139874D01*
X61553634Y-58212445D01*
X61589920Y-58260826D01*
X62061634Y-58575302D02*
X62025348Y-58526921D01*
X61989062Y-58502731D01*
X61916491Y-58478540D01*
X61698777Y-58478540D01*
X61626205Y-58502731D01*
X61589920Y-58526921D01*
X61553634Y-58575302D01*
X61553634Y-58647874D01*
X61589920Y-58696255D01*
X61626205Y-58720445D01*
X61698777Y-58744636D01*
X61916491Y-58744636D01*
X61989062Y-58720445D01*
X62025348Y-58696255D01*
X62061634Y-58647874D01*
X62061634Y-58575302D01*
X62061634Y-58962350D02*
X61553634Y-58962350D01*
X61698777Y-58962350D02*
X61626205Y-58986540D01*
X61589920Y-59010731D01*
X61553634Y-59059112D01*
X61553634Y-59107493D01*
X62061634Y-59494540D02*
X61662491Y-59494540D01*
X61589920Y-59470350D01*
X61553634Y-59421969D01*
X61553634Y-59325207D01*
X61589920Y-59276826D01*
X62025348Y-59494540D02*
X62061634Y-59446160D01*
X62061634Y-59325207D01*
X62025348Y-59276826D01*
X61952777Y-59252636D01*
X61880205Y-59252636D01*
X61807634Y-59276826D01*
X61771348Y-59325207D01*
X61771348Y-59446160D01*
X61735062Y-59494540D01*
X62061634Y-59736445D02*
X61299634Y-59736445D01*
X61589920Y-59736445D02*
X61553634Y-59784826D01*
X61553634Y-59881588D01*
X61589920Y-59929969D01*
X61626205Y-59954160D01*
X61698777Y-59978350D01*
X61916491Y-59978350D01*
X61989062Y-59954160D01*
X62025348Y-59929969D01*
X62061634Y-59881588D01*
X62061634Y-59784826D01*
X62025348Y-59736445D01*
X62061634Y-60268636D02*
X62025348Y-60220255D01*
X61952777Y-60196064D01*
X61299634Y-60196064D01*
X62025348Y-60655683D02*
X62061634Y-60607302D01*
X62061634Y-60510540D01*
X62025348Y-60462160D01*
X61952777Y-60437969D01*
X61662491Y-60437969D01*
X61589920Y-60462160D01*
X61553634Y-60510540D01*
X61553634Y-60607302D01*
X61589920Y-60655683D01*
X61662491Y-60679874D01*
X61735062Y-60679874D01*
X61807634Y-60437969D01*
X61989062Y-60897588D02*
X62025348Y-60921779D01*
X62061634Y-60897588D01*
X62025348Y-60873398D01*
X61989062Y-60897588D01*
X62061634Y-60897588D01*
X62061634Y-61139493D02*
X61553634Y-61139493D01*
X61299634Y-61139493D02*
X61335920Y-61115302D01*
X61372205Y-61139493D01*
X61335920Y-61163683D01*
X61299634Y-61139493D01*
X61372205Y-61139493D01*
X62061634Y-61453969D02*
X62025348Y-61405588D01*
X61989062Y-61381398D01*
X61916491Y-61357207D01*
X61698777Y-61357207D01*
X61626205Y-61381398D01*
X61589920Y-61405588D01*
X61553634Y-61453969D01*
X61553634Y-61526540D01*
X61589920Y-61574921D01*
X61626205Y-61599112D01*
X61698777Y-61623302D01*
X61916491Y-61623302D01*
X61989062Y-61599112D01*
X62025348Y-61574921D01*
X62061634Y-61526540D01*
X62061634Y-61453969D01*
D12*
G04 #@! TO.C,P1*
X63029000Y-56356500D02*
X70829000Y-56356500D01*
X70829000Y-56356500D02*
X70729000Y-60356500D01*
X70729000Y-60356500D02*
X63029000Y-60356500D01*
X63029000Y-60356500D02*
X63029000Y-56356500D01*
G04 #@! TO.C,P2*
X80131800Y-56918800D02*
X80131800Y-60818800D01*
X80131800Y-60818800D02*
X73181800Y-60818800D01*
X73181800Y-60818800D02*
X73081800Y-60818800D01*
X73081800Y-60818800D02*
X73081800Y-56918800D01*
X73081800Y-56918800D02*
X73831800Y-56918800D01*
X73831800Y-56918800D02*
X73831800Y-58118800D01*
X73831800Y-58118800D02*
X79431800Y-58118800D01*
X79431800Y-58118800D02*
X79431800Y-56868800D01*
X79431800Y-56868800D02*
X80131800Y-56868800D01*
G04 #@! TO.C,P1*
D13*
X67275038Y-61052052D02*
X67275038Y-60652052D01*
X67122657Y-60652052D01*
X67084561Y-60671100D01*
X67065514Y-60690147D01*
X67046466Y-60728242D01*
X67046466Y-60785385D01*
X67065514Y-60823480D01*
X67084561Y-60842528D01*
X67122657Y-60861576D01*
X67275038Y-60861576D01*
X66665514Y-61052052D02*
X66894085Y-61052052D01*
X66779800Y-61052052D02*
X66779800Y-60652052D01*
X66817895Y-60709195D01*
X66855990Y-60747290D01*
X66894085Y-60766338D01*
G04 #@! TO.C,P2*
D10*
X77514752Y-61723209D02*
X77514752Y-61215209D01*
X77321228Y-61215209D01*
X77272847Y-61239400D01*
X77248657Y-61263590D01*
X77224466Y-61311971D01*
X77224466Y-61384542D01*
X77248657Y-61432923D01*
X77272847Y-61457114D01*
X77321228Y-61481304D01*
X77514752Y-61481304D01*
X77030942Y-61263590D02*
X77006752Y-61239400D01*
X76958371Y-61215209D01*
X76837419Y-61215209D01*
X76789038Y-61239400D01*
X76764847Y-61263590D01*
X76740657Y-61311971D01*
X76740657Y-61360352D01*
X76764847Y-61432923D01*
X77055133Y-61723209D01*
X76740657Y-61723209D01*
G04 #@! TD*
M02*
