G04 #@! TF.GenerationSoftware,KiCad,Pcbnew,(5.0.2)-1*
G04 #@! TF.CreationDate,2019-05-03T19:58:13-04:00*
G04 #@! TF.ProjectId,USBxtendV1,55534278-7465-46e6-9456-312e6b696361,V1*
G04 #@! TF.SameCoordinates,Original*
G04 #@! TF.FileFunction,Other,Fab,Bot*
%FSLAX46Y46*%
G04 Gerber Fmt 4.6, Leading zero omitted, Abs format (unit mm)*
G04 Created by KiCad (PCBNEW (5.0.2)-1) date 5/3/2019 7:58:13 PM*
%MOMM*%
%LPD*%
G01*
G04 APERTURE LIST*
%ADD10C,0.150000*%
%ADD11C,0.100000*%
G04 APERTURE END LIST*
D10*
G04 #@! TO.C,P1*
X70629000Y-56456500D02*
X70629000Y-60256500D01*
X70629000Y-56456500D02*
X63229000Y-56456500D01*
X70629000Y-60256500D02*
X63229000Y-60256500D01*
X63229000Y-56456500D02*
X63229000Y-60256500D01*
X64279000Y-59306500D02*
X69579000Y-59306500D01*
X63504000Y-57306500D02*
X70354000Y-57306500D01*
X63504000Y-57306500D02*
X63504000Y-58356500D01*
X64229000Y-59256500D02*
X63529000Y-58356500D01*
X70354000Y-57306500D02*
X70354000Y-58356500D01*
X70329000Y-58356500D02*
X69629000Y-59256500D01*
X66929000Y-57956500D02*
X66929000Y-58756500D01*
X65929000Y-57956500D02*
X65929000Y-58756500D01*
X64929000Y-57956500D02*
X64929000Y-58756500D01*
X68929000Y-57956500D02*
X68929000Y-58756500D01*
X67929000Y-57956500D02*
X67929000Y-58756500D01*
G04 #@! TO.C,P2*
X80031800Y-60718800D02*
X73231800Y-60718800D01*
X80031800Y-60718800D02*
X80031800Y-57018800D01*
X80031800Y-57018800D02*
X79431800Y-57018800D01*
X79431800Y-57018800D02*
X79431800Y-57618800D01*
X79431800Y-57618800D02*
X73831800Y-57618800D01*
X73831800Y-57618800D02*
X73831800Y-57118800D01*
X73831800Y-57118800D02*
X73831800Y-57018800D01*
X73831800Y-57018800D02*
X73231800Y-57018800D01*
X73231800Y-57018800D02*
X73231800Y-60718800D01*
G04 #@! TD*
G04 #@! TO.C,P1*
D11*
X65424238Y-59937452D02*
X65424238Y-59537452D01*
X65271857Y-59537452D01*
X65233761Y-59556500D01*
X65214714Y-59575547D01*
X65195666Y-59613642D01*
X65195666Y-59670785D01*
X65214714Y-59708880D01*
X65233761Y-59727928D01*
X65271857Y-59746976D01*
X65424238Y-59746976D01*
X64814714Y-59937452D02*
X65043285Y-59937452D01*
X64929000Y-59937452D02*
X64929000Y-59537452D01*
X64967095Y-59594595D01*
X65005190Y-59632690D01*
X65043285Y-59651738D01*
G04 #@! TO.C,P2*
D10*
X77369895Y-59421180D02*
X77369895Y-58421180D01*
X76988942Y-58421180D01*
X76893704Y-58468800D01*
X76846085Y-58516419D01*
X76798466Y-58611657D01*
X76798466Y-58754514D01*
X76846085Y-58849752D01*
X76893704Y-58897371D01*
X76988942Y-58944990D01*
X77369895Y-58944990D01*
X76417514Y-58516419D02*
X76369895Y-58468800D01*
X76274657Y-58421180D01*
X76036561Y-58421180D01*
X75941323Y-58468800D01*
X75893704Y-58516419D01*
X75846085Y-58611657D01*
X75846085Y-58706895D01*
X75893704Y-58849752D01*
X76465133Y-59421180D01*
X75846085Y-59421180D01*
G04 #@! TD*
M02*
