G04 #@! TF.GenerationSoftware,KiCad,Pcbnew,(5.0.1)-4*
G04 #@! TF.CreationDate,2018-12-04T20:19:32-05:00*
G04 #@! TF.ProjectId,PowConnV1,506F77436F6E6E56312E6B696361645F,V1*
G04 #@! TF.SameCoordinates,Original*
G04 #@! TF.FileFunction,Soldermask,Bot*
G04 #@! TF.FilePolarity,Negative*
%FSLAX46Y46*%
G04 Gerber Fmt 4.6, Leading zero omitted, Abs format (unit mm)*
G04 Created by KiCad (PCBNEW (5.0.1)-4) date 12/4/2018 8:19:32 PM*
%MOMM*%
%LPD*%
G01*
G04 APERTURE LIST*
%ADD10C,0.150000*%
G04 APERTURE END LIST*
D10*
G36*
X126569674Y-95037910D02*
X126760762Y-95117062D01*
X126932736Y-95231971D01*
X127078989Y-95378224D01*
X127193898Y-95550198D01*
X127273050Y-95741286D01*
X127313400Y-95944144D01*
X127313400Y-96150976D01*
X127273050Y-96353834D01*
X127193898Y-96544922D01*
X127078989Y-96716896D01*
X126932736Y-96863149D01*
X126760762Y-96978058D01*
X126569674Y-97057210D01*
X126366816Y-97097560D01*
X126159984Y-97097560D01*
X125957126Y-97057210D01*
X125766038Y-96978058D01*
X125594064Y-96863149D01*
X125447811Y-96716896D01*
X125332902Y-96544922D01*
X125253750Y-96353834D01*
X125213400Y-96150976D01*
X125213400Y-95944144D01*
X125253750Y-95741286D01*
X125332902Y-95550198D01*
X125447811Y-95378224D01*
X125594064Y-95231971D01*
X125766038Y-95117062D01*
X125957126Y-95037910D01*
X126159984Y-94997560D01*
X126366816Y-94997560D01*
X126569674Y-95037910D01*
X126569674Y-95037910D01*
G37*
G36*
X114361288Y-94335782D02*
X114497776Y-94392317D01*
X114620618Y-94474398D01*
X114725082Y-94578862D01*
X114807163Y-94701704D01*
X114863698Y-94838192D01*
X114892520Y-94983091D01*
X114892520Y-95130829D01*
X114863698Y-95275728D01*
X114807163Y-95412216D01*
X114725082Y-95535058D01*
X114620618Y-95639522D01*
X114497776Y-95721603D01*
X114361288Y-95778138D01*
X114216389Y-95806960D01*
X114068651Y-95806960D01*
X113923752Y-95778138D01*
X113787264Y-95721603D01*
X113664422Y-95639522D01*
X113559958Y-95535058D01*
X113477877Y-95412216D01*
X113421342Y-95275728D01*
X113392520Y-95130829D01*
X113392520Y-94983091D01*
X113421342Y-94838192D01*
X113477877Y-94701704D01*
X113559958Y-94578862D01*
X113664422Y-94474398D01*
X113787264Y-94392317D01*
X113923752Y-94335782D01*
X114068651Y-94306960D01*
X114216389Y-94306960D01*
X114361288Y-94335782D01*
X114361288Y-94335782D01*
G37*
G36*
X121581114Y-93031310D02*
X121772202Y-93110462D01*
X121944176Y-93225371D01*
X122090429Y-93371624D01*
X122205338Y-93543598D01*
X122284490Y-93734686D01*
X122324840Y-93937544D01*
X122324840Y-94144376D01*
X122284490Y-94347234D01*
X122205338Y-94538322D01*
X122090429Y-94710296D01*
X121944176Y-94856549D01*
X121772202Y-94971458D01*
X121581114Y-95050610D01*
X121378256Y-95090960D01*
X121171424Y-95090960D01*
X120968566Y-95050610D01*
X120777478Y-94971458D01*
X120605504Y-94856549D01*
X120459251Y-94710296D01*
X120344342Y-94538322D01*
X120265190Y-94347234D01*
X120224840Y-94144376D01*
X120224840Y-93937544D01*
X120265190Y-93734686D01*
X120344342Y-93543598D01*
X120459251Y-93371624D01*
X120605504Y-93225371D01*
X120777478Y-93110462D01*
X120968566Y-93031310D01*
X121171424Y-92990960D01*
X121378256Y-92990960D01*
X121581114Y-93031310D01*
X121581114Y-93031310D01*
G37*
G36*
X124419688Y-93314702D02*
X124556176Y-93371237D01*
X124679018Y-93453318D01*
X124783482Y-93557782D01*
X124865563Y-93680624D01*
X124922098Y-93817112D01*
X124950920Y-93962011D01*
X124950920Y-94109749D01*
X124922098Y-94254648D01*
X124865563Y-94391136D01*
X124783482Y-94513978D01*
X124679018Y-94618442D01*
X124556176Y-94700523D01*
X124419688Y-94757058D01*
X124274789Y-94785880D01*
X124127051Y-94785880D01*
X123982152Y-94757058D01*
X123845664Y-94700523D01*
X123722822Y-94618442D01*
X123618358Y-94513978D01*
X123536277Y-94391136D01*
X123479742Y-94254648D01*
X123450920Y-94109749D01*
X123450920Y-93962011D01*
X123479742Y-93817112D01*
X123536277Y-93680624D01*
X123618358Y-93557782D01*
X123722822Y-93453318D01*
X123845664Y-93371237D01*
X123982152Y-93314702D01*
X124127051Y-93285880D01*
X124274789Y-93285880D01*
X124419688Y-93314702D01*
X124419688Y-93314702D01*
G37*
G36*
X113102680Y-79888080D02*
X112772680Y-79888080D01*
X112772680Y-79408080D01*
X113102680Y-79408080D01*
X113102680Y-79888080D01*
X113102680Y-79888080D01*
G37*
G36*
X115532680Y-79888080D02*
X115202680Y-79888080D01*
X115202680Y-79408080D01*
X115532680Y-79408080D01*
X115532680Y-79888080D01*
X115532680Y-79888080D01*
G37*
G36*
X115662680Y-79208080D02*
X115142680Y-79208080D01*
X115142680Y-78628080D01*
X115662680Y-78628080D01*
X115662680Y-79208080D01*
X115662680Y-79208080D01*
G37*
G36*
X113162680Y-79208080D02*
X112642680Y-79208080D01*
X112642680Y-78628080D01*
X113162680Y-78628080D01*
X113162680Y-79208080D01*
X113162680Y-79208080D01*
G37*
G36*
X115662680Y-78465080D02*
X115142680Y-78465080D01*
X115142680Y-78195080D01*
X115662680Y-78195080D01*
X115662680Y-78465080D01*
X115662680Y-78465080D01*
G37*
G36*
X113162680Y-78465080D02*
X112642680Y-78465080D01*
X112642680Y-78195080D01*
X113162680Y-78195080D01*
X113162680Y-78465080D01*
X113162680Y-78465080D01*
G37*
G36*
X115662680Y-78041080D02*
X115142680Y-78041080D01*
X115142680Y-77771080D01*
X115662680Y-77771080D01*
X115662680Y-78041080D01*
X115662680Y-78041080D01*
G37*
G36*
X113162680Y-78041080D02*
X112642680Y-78041080D01*
X112642680Y-77771080D01*
X113162680Y-77771080D01*
X113162680Y-78041080D01*
X113162680Y-78041080D01*
G37*
G36*
X113162680Y-77608080D02*
X112642680Y-77608080D01*
X112642680Y-77028080D01*
X113162680Y-77028080D01*
X113162680Y-77608080D01*
X113162680Y-77608080D01*
G37*
G36*
X115662680Y-77608080D02*
X115142680Y-77608080D01*
X115142680Y-77028080D01*
X115662680Y-77028080D01*
X115662680Y-77608080D01*
X115662680Y-77608080D01*
G37*
G36*
X115532680Y-76828080D02*
X115202680Y-76828080D01*
X115202680Y-76348080D01*
X115532680Y-76348080D01*
X115532680Y-76828080D01*
X115532680Y-76828080D01*
G37*
G36*
X113102680Y-76828080D02*
X112772680Y-76828080D01*
X112772680Y-76348080D01*
X113102680Y-76348080D01*
X113102680Y-76828080D01*
X113102680Y-76828080D01*
G37*
M02*
