G04 #@! TF.GenerationSoftware,KiCad,Pcbnew,(5.0.1)-4*
G04 #@! TF.CreationDate,2018-12-04T20:19:32-05:00*
G04 #@! TF.ProjectId,PowConnV1,506F77436F6E6E56312E6B696361645F,V1*
G04 #@! TF.SameCoordinates,Original*
G04 #@! TF.FileFunction,Copper,L2,Bot,Signal*
G04 #@! TF.FilePolarity,Positive*
%FSLAX46Y46*%
G04 Gerber Fmt 4.6, Leading zero omitted, Abs format (unit mm)*
G04 Created by KiCad (PCBNEW (5.0.1)-4) date 12/4/2018 8:19:32 PM*
%MOMM*%
%LPD*%
G01*
G04 APERTURE LIST*
G04 #@! TA.AperFunction,SMDPad,CuDef*
%ADD10R,0.520000X0.580000*%
G04 #@! TD*
G04 #@! TA.AperFunction,SMDPad,CuDef*
%ADD11R,0.520000X0.270000*%
G04 #@! TD*
G04 #@! TA.AperFunction,SMDPad,CuDef*
%ADD12R,0.330000X0.480000*%
G04 #@! TD*
G04 #@! TA.AperFunction,ComponentPad*
%ADD13C,1.500000*%
G04 #@! TD*
G04 #@! TA.AperFunction,BGAPad,CuDef*
%ADD14C,2.100000*%
G04 #@! TD*
G04 #@! TA.AperFunction,ViaPad*
%ADD15C,0.889000*%
G04 #@! TD*
G04 #@! TA.AperFunction,ViaPad*
%ADD16C,0.635000*%
G04 #@! TD*
G04 #@! TA.AperFunction,Conductor*
%ADD17C,0.152400*%
G04 #@! TD*
G04 #@! TA.AperFunction,Conductor*
%ADD18C,0.508000*%
G04 #@! TD*
G04 #@! TA.AperFunction,Conductor*
%ADD19C,0.381000*%
G04 #@! TD*
G04 #@! TA.AperFunction,Conductor*
%ADD20C,0.762000*%
G04 #@! TD*
G04 APERTURE END LIST*
D10*
G04 #@! TO.P,P1,5*
G04 #@! TO.N,N/C*
X115402680Y-77318080D03*
D11*
G04 #@! TO.P,P1,7*
G04 #@! TO.N,Dev+*
X115402680Y-78330080D03*
G04 #@! TO.P,P1,6*
G04 #@! TO.N,N/C*
X115402680Y-77906080D03*
D12*
G04 #@! TO.P,P1,*
G04 #@! TO.N,*
X115367680Y-79648080D03*
D10*
G04 #@! TO.P,P1,4*
G04 #@! TO.N,GND1*
X112902680Y-77318080D03*
D11*
G04 #@! TO.P,P1,3*
X112902680Y-77906080D03*
G04 #@! TO.P,P1,2*
G04 #@! TO.N,N/C*
X112902680Y-78330080D03*
D10*
G04 #@! TO.P,P1,1*
X112902680Y-78918080D03*
G04 #@! TO.P,P1,8*
G04 #@! TO.N,Dev+*
X115402680Y-78918080D03*
D12*
G04 #@! TO.P,P1,*
G04 #@! TO.N,*
X115367680Y-76588080D03*
X112937680Y-79648080D03*
X112937680Y-76588080D03*
G04 #@! TD*
D13*
G04 #@! TO.P,P2,*
G04 #@! TO.N,*
X114142520Y-95056960D03*
G04 #@! TD*
G04 #@! TO.P,P3,*
G04 #@! TO.N,*
X124200920Y-94035880D03*
G04 #@! TD*
D14*
G04 #@! TO.P,P4,1*
G04 #@! TO.N,Dev+*
X126263400Y-96047560D03*
G04 #@! TD*
G04 #@! TO.P,P5,1*
G04 #@! TO.N,GND1*
X121274840Y-94040960D03*
G04 #@! TD*
D15*
G04 #@! TO.N,Dev+*
X127142240Y-93919040D03*
D16*
X116382800Y-76933155D03*
X116382800Y-77764640D03*
X116438680Y-78719680D03*
X116586000Y-79532480D03*
X123565920Y-96728280D03*
G04 #@! TD*
D17*
G04 #@! TO.N,GND1*
X112115600Y-80639920D02*
X116291360Y-80639920D01*
G04 #@! TO.N,Dev+*
X127313399Y-94090199D02*
X127142240Y-93919040D01*
X126263400Y-96047560D02*
X127313399Y-94997561D01*
X127313399Y-94997561D02*
X127313399Y-94090199D01*
X115895120Y-78785720D02*
X115478570Y-78785720D01*
X115478570Y-78785720D02*
X115478570Y-78830080D01*
X116225320Y-77090635D02*
X116382800Y-76933155D01*
X116225320Y-78292960D02*
X116225320Y-77090635D01*
X116225320Y-78292960D02*
X116225320Y-78455520D01*
X116225320Y-77962760D02*
X116225320Y-78292960D01*
X116225320Y-77922120D02*
X116382800Y-77764640D01*
X116225320Y-78506320D02*
X116438680Y-78719680D01*
X116225320Y-78196440D02*
X116225320Y-78506320D01*
X116225320Y-78196440D02*
X116225320Y-77922120D01*
X116225320Y-78455520D02*
X116225320Y-78196440D01*
X115895120Y-78785720D02*
X115895120Y-78841600D01*
X116332000Y-79278480D02*
X116586000Y-79532480D01*
D18*
X116586000Y-77136355D02*
X116382800Y-76933155D01*
X116586000Y-79532480D02*
X116586000Y-77136355D01*
X116438680Y-76989035D02*
X116382800Y-76933155D01*
X116438680Y-78719680D02*
X116438680Y-76989035D01*
X116438680Y-78719680D02*
X116438680Y-78755240D01*
X116438680Y-78755240D02*
X116210080Y-78983840D01*
D19*
X116090699Y-79037179D02*
X116001800Y-78948280D01*
X116121181Y-79037179D02*
X116090699Y-79037179D01*
X116438680Y-78719680D02*
X116121181Y-79037179D01*
D17*
X115895120Y-78841600D02*
X116001800Y-78948280D01*
X116001800Y-78948280D02*
X116332000Y-79278480D01*
D19*
X116438680Y-78719680D02*
X115989668Y-78719680D01*
D20*
X123565920Y-96728280D02*
X125582680Y-96728280D01*
X125582680Y-96728280D02*
X126263400Y-96047560D01*
X126263400Y-96047560D02*
X127355600Y-94955360D01*
X127142240Y-94742000D02*
X127142240Y-93919040D01*
X127355600Y-94955360D02*
X127142240Y-94742000D01*
D17*
X115478570Y-78402181D02*
X115478570Y-78330080D01*
X116438680Y-78719680D02*
X116121181Y-78402181D01*
X116121181Y-78402181D02*
X115478570Y-78402181D01*
G04 #@! TD*
G04 #@! TO.N,GND1*
G36*
X112487807Y-76348080D02*
X112487807Y-76789810D01*
X112484413Y-76791216D01*
X112405816Y-76869813D01*
X112363280Y-76972504D01*
X112363280Y-77235530D01*
X112433130Y-77305380D01*
X112889980Y-77305380D01*
X112889980Y-77285380D01*
X112915380Y-77285380D01*
X112915380Y-77305380D01*
X113017718Y-77305380D01*
X112996438Y-77319598D01*
X112988967Y-77330780D01*
X112915380Y-77330780D01*
X112915380Y-77893380D01*
X112935380Y-77893380D01*
X112935380Y-77910207D01*
X112642680Y-77910207D01*
X112599581Y-77918780D01*
X112433130Y-77918780D01*
X112363280Y-77988630D01*
X112363280Y-78096656D01*
X112372809Y-78119661D01*
X112357807Y-78195080D01*
X112357807Y-78465080D01*
X112374019Y-78546580D01*
X112357807Y-78628080D01*
X112357807Y-79208080D01*
X112379492Y-79317096D01*
X112441244Y-79409516D01*
X112487807Y-79440628D01*
X112487807Y-79888080D01*
X112509492Y-79997096D01*
X112571244Y-80089516D01*
X112663664Y-80151268D01*
X112772680Y-80172953D01*
X113102680Y-80172953D01*
X113211696Y-80151268D01*
X113304116Y-80089516D01*
X113365868Y-79997096D01*
X113379469Y-79928720D01*
X114925891Y-79928720D01*
X114939492Y-79997096D01*
X115001244Y-80089516D01*
X115093664Y-80151268D01*
X115202680Y-80172953D01*
X115532680Y-80172953D01*
X115641696Y-80151268D01*
X115734116Y-80089516D01*
X115795868Y-79997096D01*
X115817553Y-79888080D01*
X115817553Y-79440628D01*
X115833130Y-79430220D01*
X115907353Y-79479814D01*
X115989100Y-79496075D01*
X115989100Y-79651211D01*
X116079973Y-79870597D01*
X116247883Y-80038507D01*
X116467269Y-80129380D01*
X116704731Y-80129380D01*
X116924117Y-80038507D01*
X116987919Y-79974705D01*
X116978788Y-92677672D01*
X116971329Y-92715260D01*
X116986058Y-92789127D01*
X117000668Y-92862857D01*
X117000797Y-92863051D01*
X117000843Y-92863280D01*
X117042672Y-92925820D01*
X117084432Y-92988415D01*
X117084626Y-92988545D01*
X117084756Y-92988739D01*
X117147263Y-93030462D01*
X117209870Y-93072359D01*
X117210099Y-93072405D01*
X117210293Y-93072534D01*
X117284246Y-93087209D01*
X117357882Y-93101911D01*
X117395471Y-93094462D01*
X123790940Y-93091485D01*
X123617812Y-93163197D01*
X123328237Y-93452772D01*
X123171520Y-93831120D01*
X123171520Y-94240640D01*
X123328237Y-94618988D01*
X123617812Y-94908563D01*
X123996160Y-95065280D01*
X124405680Y-95065280D01*
X124784028Y-94908563D01*
X125073603Y-94618988D01*
X125230320Y-94240640D01*
X125230320Y-93831120D01*
X125073603Y-93452772D01*
X124784028Y-93163197D01*
X124609979Y-93091103D01*
X127890601Y-93089576D01*
X127890601Y-94567358D01*
X127868565Y-94534380D01*
X127831721Y-94479239D01*
X127802640Y-94459808D01*
X127802640Y-94216335D01*
X127866140Y-94063033D01*
X127866140Y-93775047D01*
X127755933Y-93508984D01*
X127552296Y-93305347D01*
X127286233Y-93195140D01*
X126998247Y-93195140D01*
X126732184Y-93305347D01*
X126528547Y-93508984D01*
X126418340Y-93775047D01*
X126418340Y-94063033D01*
X126481840Y-94216335D01*
X126481840Y-94676958D01*
X126473644Y-94718160D01*
X125998966Y-94718160D01*
X125510356Y-94920550D01*
X125136390Y-95294516D01*
X124934000Y-95783126D01*
X124934000Y-96067880D01*
X123500877Y-96067880D01*
X123308245Y-96106197D01*
X123089798Y-96252158D01*
X122943837Y-96470605D01*
X122892582Y-96728280D01*
X122943837Y-96985955D01*
X122952389Y-96998754D01*
X111299675Y-96998754D01*
X111299675Y-94852200D01*
X113113120Y-94852200D01*
X113113120Y-95261720D01*
X113269837Y-95640068D01*
X113559412Y-95929643D01*
X113937760Y-96086360D01*
X114347280Y-96086360D01*
X114725628Y-95929643D01*
X115015203Y-95640068D01*
X115171920Y-95261720D01*
X115171920Y-94852200D01*
X115015203Y-94473852D01*
X114725628Y-94184277D01*
X114347280Y-94027560D01*
X113937760Y-94027560D01*
X113559412Y-94184277D01*
X113269837Y-94473852D01*
X113113120Y-94852200D01*
X111299675Y-94852200D01*
X111299675Y-91142137D01*
X111383318Y-91141906D01*
X111765790Y-91064728D01*
X111902399Y-91007700D01*
X112226222Y-90790032D01*
X112330609Y-90685067D01*
X112546485Y-90360045D01*
X112602757Y-90223123D01*
X112677820Y-89840231D01*
X112677411Y-89692198D01*
X112677411Y-89692196D01*
X112600233Y-89309725D01*
X112543205Y-89173116D01*
X112325537Y-88849293D01*
X112220572Y-88744906D01*
X111895550Y-88529030D01*
X111758628Y-88472758D01*
X111375736Y-88397695D01*
X111375735Y-88397695D01*
X111299675Y-88397905D01*
X111299675Y-80970120D01*
X111952377Y-80970120D01*
X111959320Y-81005024D01*
X111959321Y-83322811D01*
X111952377Y-83357720D01*
X111979883Y-83496000D01*
X112058212Y-83613228D01*
X112175440Y-83691557D01*
X112278816Y-83712120D01*
X112313720Y-83719063D01*
X112348624Y-83712120D01*
X115936036Y-83712120D01*
X115970550Y-83719062D01*
X116005842Y-83712120D01*
X116006224Y-83712120D01*
X116040149Y-83705372D01*
X116108887Y-83691851D01*
X116109213Y-83691634D01*
X116109600Y-83691557D01*
X116168110Y-83652462D01*
X116226282Y-83613772D01*
X116226500Y-83613447D01*
X116226828Y-83613228D01*
X116265945Y-83554685D01*
X116304861Y-83496711D01*
X116304938Y-83496328D01*
X116305157Y-83496000D01*
X116318908Y-83426869D01*
X116325644Y-83393379D01*
X116325645Y-83393002D01*
X116332663Y-83357720D01*
X116325794Y-83323186D01*
X116330736Y-81005347D01*
X116337743Y-80970120D01*
X116310237Y-80831840D01*
X116231908Y-80714612D01*
X116114680Y-80636283D01*
X116011304Y-80615720D01*
X115986423Y-80615720D01*
X115977170Y-80613859D01*
X115967709Y-80615720D01*
X112348624Y-80615720D01*
X112313720Y-80608777D01*
X112278816Y-80615720D01*
X112175440Y-80636283D01*
X112058212Y-80714612D01*
X111979883Y-80831840D01*
X111952377Y-80970120D01*
X111299675Y-80970120D01*
X111299675Y-77400630D01*
X112363280Y-77400630D01*
X112363280Y-77663656D01*
X112374018Y-77689580D01*
X112363280Y-77715504D01*
X112363280Y-77823530D01*
X112433130Y-77893380D01*
X112889980Y-77893380D01*
X112889980Y-77330780D01*
X112433130Y-77330780D01*
X112363280Y-77400630D01*
X111299675Y-77400630D01*
X111299675Y-76242655D01*
X112508778Y-76242655D01*
X112487807Y-76348080D01*
X112487807Y-76348080D01*
G37*
X112487807Y-76348080D02*
X112487807Y-76789810D01*
X112484413Y-76791216D01*
X112405816Y-76869813D01*
X112363280Y-76972504D01*
X112363280Y-77235530D01*
X112433130Y-77305380D01*
X112889980Y-77305380D01*
X112889980Y-77285380D01*
X112915380Y-77285380D01*
X112915380Y-77305380D01*
X113017718Y-77305380D01*
X112996438Y-77319598D01*
X112988967Y-77330780D01*
X112915380Y-77330780D01*
X112915380Y-77893380D01*
X112935380Y-77893380D01*
X112935380Y-77910207D01*
X112642680Y-77910207D01*
X112599581Y-77918780D01*
X112433130Y-77918780D01*
X112363280Y-77988630D01*
X112363280Y-78096656D01*
X112372809Y-78119661D01*
X112357807Y-78195080D01*
X112357807Y-78465080D01*
X112374019Y-78546580D01*
X112357807Y-78628080D01*
X112357807Y-79208080D01*
X112379492Y-79317096D01*
X112441244Y-79409516D01*
X112487807Y-79440628D01*
X112487807Y-79888080D01*
X112509492Y-79997096D01*
X112571244Y-80089516D01*
X112663664Y-80151268D01*
X112772680Y-80172953D01*
X113102680Y-80172953D01*
X113211696Y-80151268D01*
X113304116Y-80089516D01*
X113365868Y-79997096D01*
X113379469Y-79928720D01*
X114925891Y-79928720D01*
X114939492Y-79997096D01*
X115001244Y-80089516D01*
X115093664Y-80151268D01*
X115202680Y-80172953D01*
X115532680Y-80172953D01*
X115641696Y-80151268D01*
X115734116Y-80089516D01*
X115795868Y-79997096D01*
X115817553Y-79888080D01*
X115817553Y-79440628D01*
X115833130Y-79430220D01*
X115907353Y-79479814D01*
X115989100Y-79496075D01*
X115989100Y-79651211D01*
X116079973Y-79870597D01*
X116247883Y-80038507D01*
X116467269Y-80129380D01*
X116704731Y-80129380D01*
X116924117Y-80038507D01*
X116987919Y-79974705D01*
X116978788Y-92677672D01*
X116971329Y-92715260D01*
X116986058Y-92789127D01*
X117000668Y-92862857D01*
X117000797Y-92863051D01*
X117000843Y-92863280D01*
X117042672Y-92925820D01*
X117084432Y-92988415D01*
X117084626Y-92988545D01*
X117084756Y-92988739D01*
X117147263Y-93030462D01*
X117209870Y-93072359D01*
X117210099Y-93072405D01*
X117210293Y-93072534D01*
X117284246Y-93087209D01*
X117357882Y-93101911D01*
X117395471Y-93094462D01*
X123790940Y-93091485D01*
X123617812Y-93163197D01*
X123328237Y-93452772D01*
X123171520Y-93831120D01*
X123171520Y-94240640D01*
X123328237Y-94618988D01*
X123617812Y-94908563D01*
X123996160Y-95065280D01*
X124405680Y-95065280D01*
X124784028Y-94908563D01*
X125073603Y-94618988D01*
X125230320Y-94240640D01*
X125230320Y-93831120D01*
X125073603Y-93452772D01*
X124784028Y-93163197D01*
X124609979Y-93091103D01*
X127890601Y-93089576D01*
X127890601Y-94567358D01*
X127868565Y-94534380D01*
X127831721Y-94479239D01*
X127802640Y-94459808D01*
X127802640Y-94216335D01*
X127866140Y-94063033D01*
X127866140Y-93775047D01*
X127755933Y-93508984D01*
X127552296Y-93305347D01*
X127286233Y-93195140D01*
X126998247Y-93195140D01*
X126732184Y-93305347D01*
X126528547Y-93508984D01*
X126418340Y-93775047D01*
X126418340Y-94063033D01*
X126481840Y-94216335D01*
X126481840Y-94676958D01*
X126473644Y-94718160D01*
X125998966Y-94718160D01*
X125510356Y-94920550D01*
X125136390Y-95294516D01*
X124934000Y-95783126D01*
X124934000Y-96067880D01*
X123500877Y-96067880D01*
X123308245Y-96106197D01*
X123089798Y-96252158D01*
X122943837Y-96470605D01*
X122892582Y-96728280D01*
X122943837Y-96985955D01*
X122952389Y-96998754D01*
X111299675Y-96998754D01*
X111299675Y-94852200D01*
X113113120Y-94852200D01*
X113113120Y-95261720D01*
X113269837Y-95640068D01*
X113559412Y-95929643D01*
X113937760Y-96086360D01*
X114347280Y-96086360D01*
X114725628Y-95929643D01*
X115015203Y-95640068D01*
X115171920Y-95261720D01*
X115171920Y-94852200D01*
X115015203Y-94473852D01*
X114725628Y-94184277D01*
X114347280Y-94027560D01*
X113937760Y-94027560D01*
X113559412Y-94184277D01*
X113269837Y-94473852D01*
X113113120Y-94852200D01*
X111299675Y-94852200D01*
X111299675Y-91142137D01*
X111383318Y-91141906D01*
X111765790Y-91064728D01*
X111902399Y-91007700D01*
X112226222Y-90790032D01*
X112330609Y-90685067D01*
X112546485Y-90360045D01*
X112602757Y-90223123D01*
X112677820Y-89840231D01*
X112677411Y-89692198D01*
X112677411Y-89692196D01*
X112600233Y-89309725D01*
X112543205Y-89173116D01*
X112325537Y-88849293D01*
X112220572Y-88744906D01*
X111895550Y-88529030D01*
X111758628Y-88472758D01*
X111375736Y-88397695D01*
X111375735Y-88397695D01*
X111299675Y-88397905D01*
X111299675Y-80970120D01*
X111952377Y-80970120D01*
X111959320Y-81005024D01*
X111959321Y-83322811D01*
X111952377Y-83357720D01*
X111979883Y-83496000D01*
X112058212Y-83613228D01*
X112175440Y-83691557D01*
X112278816Y-83712120D01*
X112313720Y-83719063D01*
X112348624Y-83712120D01*
X115936036Y-83712120D01*
X115970550Y-83719062D01*
X116005842Y-83712120D01*
X116006224Y-83712120D01*
X116040149Y-83705372D01*
X116108887Y-83691851D01*
X116109213Y-83691634D01*
X116109600Y-83691557D01*
X116168110Y-83652462D01*
X116226282Y-83613772D01*
X116226500Y-83613447D01*
X116226828Y-83613228D01*
X116265945Y-83554685D01*
X116304861Y-83496711D01*
X116304938Y-83496328D01*
X116305157Y-83496000D01*
X116318908Y-83426869D01*
X116325644Y-83393379D01*
X116325645Y-83393002D01*
X116332663Y-83357720D01*
X116325794Y-83323186D01*
X116330736Y-81005347D01*
X116337743Y-80970120D01*
X116310237Y-80831840D01*
X116231908Y-80714612D01*
X116114680Y-80636283D01*
X116011304Y-80615720D01*
X115986423Y-80615720D01*
X115977170Y-80613859D01*
X115967709Y-80615720D01*
X112348624Y-80615720D01*
X112313720Y-80608777D01*
X112278816Y-80615720D01*
X112175440Y-80636283D01*
X112058212Y-80714612D01*
X111979883Y-80831840D01*
X111952377Y-80970120D01*
X111299675Y-80970120D01*
X111299675Y-77400630D01*
X112363280Y-77400630D01*
X112363280Y-77663656D01*
X112374018Y-77689580D01*
X112363280Y-77715504D01*
X112363280Y-77823530D01*
X112433130Y-77893380D01*
X112889980Y-77893380D01*
X112889980Y-77330780D01*
X112433130Y-77330780D01*
X112363280Y-77400630D01*
X111299675Y-77400630D01*
X111299675Y-76242655D01*
X112508778Y-76242655D01*
X112487807Y-76348080D01*
G04 #@! TD*
M02*
