  0
SECTION
  2
HEADER
  9
$ANGBASE
  50
0.0
  9
$ANGDIR
  70
  1
  9
$MEASUREMENT
  70
0
  0
ENDSEC
  0
SECTION
  2
TABLES
  0
TABLE
  2
LTYPE
  70
4
  0
LTYPE
  5
40F
  2
CONTINUOUS
  70
0
  3
Solid line
  72
65
  73
0
  40
0.0
  0
LTYPE
  5
410
  2
DASHDOT
 70
0
  3
Dash Dot ____ _ ____ _
 72
65
 73
4
 40
2.0
 49
1.25
 49
-0.25
 49
0.25
 49
-0.25
  0
LTYPE
  5
411
  2
DASHED
 70
0
  3
Dashed __ __ __ __ __
 72
65
 73
2
 40
0.75
 49
0.5
 49
-0.25
  0
LTYPE
  5
43B
  2
DOTTED
 70
0
  3
Dotted .  .  .  .
 72
65
 73
2
 40
0.2
 49
0.0
 49
-0.2
  0
ENDTAB
  0
TABLE
  2
STYLE
  70
4
  0
STYLE
  2
KICAD
  70
0
  40
0
  41
1
  42
1
  50
0
  71
0
  3
isocp.shx
  0
STYLE
  2
KICADB
  70
0
  40
0
  41
1
  42
1
  50
0
  71
0
  3
isocp.shx
  0
STYLE
  2
KICADI
  70
0
  40
0
  41
1
  42
1
  50
15
  71
0
  3
isocp.shx
  0
STYLE
  2
KICADBI
  70
0
  40
0
  41
1
  42
1
  50
15
  71
0
  3
isocp.shx
  0
ENDTAB
  0
TABLE
  2
LAYER
  70
30
  0
LAYER
  2
BLACK
  70
0
  62
7
  6
CONTINUOUS
  0
LAYER
  2
GRAY1
  70
0
  62
251
  6
CONTINUOUS
  0
LAYER
  2
GRAY2
  70
0
  62
8
  6
CONTINUOUS
  0
LAYER
  2
GRAY3
  70
0
  62
9
  6
CONTINUOUS
  0
LAYER
  2
WHITE
  70
0
  62
7
  6
CONTINUOUS
  0
LAYER
  2
LYELLOW
  70
0
  62
51
  6
CONTINUOUS
  0
LAYER
  2
BLUE1
  70
0
  62
178
  6
CONTINUOUS
  0
LAYER
  2
GREEN1
  70
0
  62
98
  6
CONTINUOUS
  0
LAYER
  2
CYAN1
  70
0
  62
138
  6
CONTINUOUS
  0
LAYER
  2
RED1
  70
0
  62
18
  6
CONTINUOUS
  0
LAYER
  2
MAGENTA1
  70
0
  62
228
  6
CONTINUOUS
  0
LAYER
  2
BROWN1
  70
0
  62
58
  6
CONTINUOUS
  0
LAYER
  2
BLUE2
  70
0
  62
5
  6
CONTINUOUS
  0
LAYER
  2
GREEN2
  70
0
  62
3
  6
CONTINUOUS
  0
LAYER
  2
CYAN2
  70
0
  62
4
  6
CONTINUOUS
  0
LAYER
  2
RED2
  70
0
  62
1
  6
CONTINUOUS
  0
LAYER
  2
MAGENTA2
  70
0
  62
6
  6
CONTINUOUS
  0
LAYER
  2
BROWN2
  70
0
  62
54
  6
CONTINUOUS
  0
LAYER
  2
BLUE3
  70
0
  62
171
  6
CONTINUOUS
  0
LAYER
  2
GREEN3
  70
0
  62
91
  6
CONTINUOUS
  0
LAYER
  2
CYAN3
  70
0
  62
131
  6
CONTINUOUS
  0
LAYER
  2
RED3
  70
0
  62
11
  6
CONTINUOUS
  0
LAYER
  2
MAGENTA3
  70
0
  62
221
  6
CONTINUOUS
  0
LAYER
  2
YELLOW3
  70
0
  62
2
  6
CONTINUOUS
  0
LAYER
  2
BLUE4
  70
0
  62
5
  6
CONTINUOUS
  0
LAYER
  2
GREEN4
  70
0
  62
3
  6
CONTINUOUS
  0
LAYER
  2
CYAN4
  70
0
  62
4
  6
CONTINUOUS
  0
LAYER
  2
RED4
  70
0
  62
1
  6
CONTINUOUS
  0
LAYER
  2
MAGENTA4
  70
0
  62
6
  6
CONTINUOUS
  0
LAYER
  2
YELLOW4
  70
0
  62
2
  6
CONTINUOUS
  0
ENDTAB
  0
ENDSEC
  0
SECTION
  2
ENTITIES
0
LINE
8
BLACK
6
CONTINUOUS
10
127.297
20
-93.4949
11
127.432
21
-93.5733
0
LINE
8
BLACK
6
CONTINUOUS
10
127.432
20
-93.5733
11
127.533
21
-93.6934
0
LINE
8
BLACK
6
CONTINUOUS
10
127.533
20
-93.6934
11
127.587
21
-93.8407
0
LINE
8
BLACK
6
CONTINUOUS
10
127.587
20
-93.8407
11
127.587
21
-93.9974
0
LINE
8
BLACK
6
CONTINUOUS
10
127.587
20
-93.9974
11
127.533
21
-94.1447
0
LINE
8
BLACK
6
CONTINUOUS
10
127.533
20
-94.1447
11
127.523
21
-94.1565
0
LINE
8
BLACK
6
CONTINUOUS
10
127.523
20
-94.1565
11
127.523
21
-94.5842
0
LINE
8
BLACK
6
CONTINUOUS
10
127.523
20
-94.5842
11
127.649
21
-94.7095
0
LINE
8
BLACK
6
CONTINUOUS
10
127.649
20
-94.7095
11
127.649
21
-94.7095
0
LINE
8
BLACK
6
CONTINUOUS
10
127.649
20
-94.7095
11
127.673
21
-94.7335
0
LINE
8
BLACK
6
CONTINUOUS
10
127.673
20
-94.7335
11
127.687
21
-94.7641
0
LINE
8
BLACK
6
CONTINUOUS
10
127.687
20
-94.7641
11
127.706
21
-94.7919
0
LINE
8
BLACK
6
CONTINUOUS
10
127.706
20
-94.7919
11
127.715
21
-94.8246
0
LINE
8
BLACK
6
CONTINUOUS
10
127.715
20
-94.8246
11
127.729
21
-94.8552
0
LINE
8
BLACK
6
CONTINUOUS
10
127.729
20
-94.8552
11
127.732
21
-94.8889
0
LINE
8
BLACK
6
CONTINUOUS
10
127.732
20
-94.8889
11
127.741
21
-94.9216
0
LINE
8
BLACK
6
CONTINUOUS
10
127.741
20
-94.9216
11
127.738
21
-94.9554
0
LINE
8
BLACK
6
CONTINUOUS
10
127.738
20
-94.9554
11
127.741
21
-94.9891
0
LINE
8
BLACK
6
CONTINUOUS
10
127.741
20
-94.9891
11
127.732
21
-95.0218
0
LINE
8
BLACK
6
CONTINUOUS
10
127.732
20
-95.0218
11
127.729
21
-95.0555
0
LINE
8
BLACK
6
CONTINUOUS
10
127.729
20
-95.0555
11
127.715
21
-95.0862
0
LINE
8
BLACK
6
CONTINUOUS
10
127.715
20
-95.0862
11
127.706
21
-95.1189
0
LINE
8
BLACK
6
CONTINUOUS
10
127.706
20
-95.1189
11
127.687
21
-95.1466
0
LINE
8
BLACK
6
CONTINUOUS
10
127.687
20
-95.1466
11
127.673
21
-95.1773
0
LINE
8
BLACK
6
CONTINUOUS
10
127.673
20
-95.1773
11
127.649
21
-95.2012
0
LINE
8
BLACK
6
CONTINUOUS
10
127.649
20
-95.2012
11
127.649
21
-95.2012
0
LINE
8
BLACK
6
CONTINUOUS
10
127.649
20
-95.2012
11
127.226
21
-95.6234
0
LINE
8
BLACK
6
CONTINUOUS
10
127.226
20
-95.6234
11
127.313
21
-95.8624
0
LINE
8
BLACK
6
CONTINUOUS
10
127.313
20
-95.8624
11
127.313
21
-96.2327
0
LINE
8
BLACK
6
CONTINUOUS
10
127.313
20
-96.2327
11
127.187
21
-96.5807
0
LINE
8
BLACK
6
CONTINUOUS
10
127.187
20
-96.5807
11
126.949
21
-96.8643
0
LINE
8
BLACK
6
CONTINUOUS
10
126.949
20
-96.8643
11
126.628
21
-97.0495
0
LINE
8
BLACK
6
CONTINUOUS
10
126.628
20
-97.0495
11
126.263
21
-97.1138
0
LINE
8
BLACK
6
CONTINUOUS
10
126.263
20
-97.1138
11
125.899
21
-97.0495
0
LINE
8
BLACK
6
CONTINUOUS
10
125.899
20
-97.0495
11
125.839
21
-97.0152
0
LINE
8
BLACK
6
CONTINUOUS
10
125.839
20
-97.0152
11
125.831
21
-97.0246
0
LINE
8
BLACK
6
CONTINUOUS
10
125.831
20
-97.0246
11
125.788
21
-97.0499
0
LINE
8
BLACK
6
CONTINUOUS
10
125.788
20
-97.0499
11
125.746
21
-97.0789
0
LINE
8
BLACK
6
CONTINUOUS
10
125.746
20
-97.0789
11
125.73
21
-97.0833
0
LINE
8
BLACK
6
CONTINUOUS
10
125.73
20
-97.0833
11
125.715
21
-97.0918
0
LINE
8
BLACK
6
CONTINUOUS
10
125.715
20
-97.0918
11
125.665
21
-97.1006
0
LINE
8
BLACK
6
CONTINUOUS
10
125.665
20
-97.1006
11
125.616
21
-97.1137
0
LINE
8
BLACK
6
CONTINUOUS
10
125.616
20
-97.1137
11
125.566
21
-97.1093
0
LINE
8
BLACK
6
CONTINUOUS
10
125.566
20
-97.1093
11
123.533
21
-97.1093
0
LINE
8
BLACK
6
CONTINUOUS
10
123.533
20
-97.1093
11
123.434
21
-97.0918
0
LINE
8
BLACK
6
CONTINUOUS
10
123.434
20
-97.0918
11
123.317
21
-97.0246
0
LINE
8
BLACK
6
CONTINUOUS
10
123.317
20
-97.0246
11
123.231
21
-96.9217
0
LINE
8
BLACK
6
CONTINUOUS
10
123.231
20
-96.9217
11
123.185
21
-96.7955
0
LINE
8
BLACK
6
CONTINUOUS
10
123.185
20
-96.7955
11
123.185
21
-96.6611
0
LINE
8
BLACK
6
CONTINUOUS
10
123.185
20
-96.6611
11
123.231
21
-96.5348
0
LINE
8
BLACK
6
CONTINUOUS
10
123.231
20
-96.5348
11
123.317
21
-96.4319
0
LINE
8
BLACK
6
CONTINUOUS
10
123.317
20
-96.4319
11
123.434
21
-96.3647
0
LINE
8
BLACK
6
CONTINUOUS
10
123.434
20
-96.3647
11
123.533
21
-96.3473
0
LINE
8
BLACK
6
CONTINUOUS
10
123.533
20
-96.3473
11
125.255
21
-96.3473
0
LINE
8
BLACK
6
CONTINUOUS
10
125.255
20
-96.3473
11
125.213
21
-96.2327
0
LINE
8
BLACK
6
CONTINUOUS
10
125.213
20
-96.2327
11
125.213
21
-95.8624
0
LINE
8
BLACK
6
CONTINUOUS
10
125.213
20
-95.8624
11
125.34
21
-95.5145
0
LINE
8
BLACK
6
CONTINUOUS
10
125.34
20
-95.5145
11
125.578
21
-95.2308
0
LINE
8
BLACK
6
CONTINUOUS
10
125.578
20
-95.2308
11
125.899
21
-95.0457
0
LINE
8
BLACK
6
CONTINUOUS
10
125.899
20
-95.0457
11
126.263
21
-94.9814
0
LINE
8
BLACK
6
CONTINUOUS
10
126.263
20
-94.9814
11
126.628
21
-95.0457
0
LINE
8
BLACK
6
CONTINUOUS
10
126.628
20
-95.0457
11
126.69
21
-95.0817
0
LINE
8
BLACK
6
CONTINUOUS
10
126.69
20
-95.0817
11
126.822
21
-94.9498
0
LINE
8
BLACK
6
CONTINUOUS
10
126.822
20
-94.9498
11
126.821
21
-94.9469
0
LINE
8
BLACK
6
CONTINUOUS
10
126.821
20
-94.9469
11
126.792
21
-94.9055
0
LINE
8
BLACK
6
CONTINUOUS
10
126.792
20
-94.9055
11
126.787
21
-94.8891
0
LINE
8
BLACK
6
CONTINUOUS
10
126.787
20
-94.8891
11
126.779
21
-94.8743
0
LINE
8
BLACK
6
CONTINUOUS
10
126.779
20
-94.8743
11
126.77
21
-94.8245
0
LINE
8
BLACK
6
CONTINUOUS
10
126.77
20
-94.8245
11
126.757
21
-94.7757
0
LINE
8
BLACK
6
CONTINUOUS
10
126.757
20
-94.7757
11
126.761
21
-94.7254
0
LINE
8
BLACK
6
CONTINUOUS
10
126.761
20
-94.7254
11
126.761
21
-94.1565
0
LINE
8
BLACK
6
CONTINUOUS
10
126.761
20
-94.1565
11
126.751
21
-94.1447
0
LINE
8
BLACK
6
CONTINUOUS
10
126.751
20
-94.1447
11
126.698
21
-93.9974
0
LINE
8
BLACK
6
CONTINUOUS
10
126.698
20
-93.9974
11
126.698
21
-93.8407
0
LINE
8
BLACK
6
CONTINUOUS
10
126.698
20
-93.8407
11
126.751
21
-93.6934
0
LINE
8
BLACK
6
CONTINUOUS
10
126.751
20
-93.6934
11
126.852
21
-93.5733
0
LINE
8
BLACK
6
CONTINUOUS
10
126.852
20
-93.5733
11
126.988
21
-93.4949
0
LINE
8
BLACK
6
CONTINUOUS
10
126.988
20
-93.4949
11
127.142
21
-93.4677
0
LINE
8
BLACK
6
CONTINUOUS
10
127.142
20
-93.4677
11
127.297
21
-93.4949
0
LINE
8
BLACK
6
CONTINUOUS
10
111.225
20
-91.1357
11
111.225
21
-91.1291
0
LINE
8
BLACK
6
CONTINUOUS
10
111.225
20
-91.1291
11
111.227
21
-91.1227
0
LINE
8
BLACK
6
CONTINUOUS
10
111.227
20
-91.1227
11
111.228
21
-91.1161
0
LINE
8
BLACK
6
CONTINUOUS
10
111.228
20
-91.1161
11
111.231
21
-91.1104
0
LINE
8
BLACK
6
CONTINUOUS
10
111.231
20
-91.1104
11
111.234
21
-91.1042
0
LINE
8
BLACK
6
CONTINUOUS
10
111.234
20
-91.1042
11
111.238
21
-91.099
0
LINE
8
BLACK
6
CONTINUOUS
10
111.238
20
-91.099
11
111.241
21
-91.0932
0
LINE
8
BLACK
6
CONTINUOUS
10
111.241
20
-91.0932
11
111.246
21
-91.0889
0
LINE
8
BLACK
6
CONTINUOUS
10
111.246
20
-91.0889
11
111.251
21
-91.0839
0
LINE
8
BLACK
6
CONTINUOUS
10
111.251
20
-91.0839
11
111.256
21
-91.0805
0
LINE
8
BLACK
6
CONTINUOUS
10
111.256
20
-91.0805
11
111.262
21
-91.0761
0
LINE
8
BLACK
6
CONTINUOUS
10
111.262
20
-91.0761
11
111.268
21
-91.0739
0
LINE
8
BLACK
6
CONTINUOUS
10
111.268
20
-91.0739
11
111.273
21
-91.0706
0
LINE
8
BLACK
6
CONTINUOUS
10
111.273
20
-91.0706
11
111.28
21
-91.0694
0
LINE
8
BLACK
6
CONTINUOUS
10
111.28
20
-91.0694
11
111.286
21
-91.0671
0
LINE
8
BLACK
6
CONTINUOUS
10
111.286
20
-91.0671
11
111.293
21
-91.0671
0
LINE
8
BLACK
6
CONTINUOUS
10
111.293
20
-91.0671
11
111.299
21
-91.0659
0
LINE
8
BLACK
6
CONTINUOUS
10
111.299
20
-91.0659
11
111.376
21
-91.0657
0
LINE
8
BLACK
6
CONTINUOUS
10
111.376
20
-91.0657
11
111.743
21
-90.9915
0
LINE
8
BLACK
6
CONTINUOUS
10
111.743
20
-90.9915
11
111.866
21
-90.9403
0
LINE
8
BLACK
6
CONTINUOUS
10
111.866
20
-90.9403
11
112.177
21
-90.731
0
LINE
8
BLACK
6
CONTINUOUS
10
112.177
20
-90.731
11
112.271
21
-90.6367
0
LINE
8
BLACK
6
CONTINUOUS
10
112.271
20
-90.6367
11
112.479
21
-90.3241
0
LINE
8
BLACK
6
CONTINUOUS
10
112.479
20
-90.3241
11
112.529
21
-90.2011
0
LINE
8
BLACK
6
CONTINUOUS
10
112.529
20
-90.2011
11
112.602
21
-89.8329
0
LINE
8
BLACK
6
CONTINUOUS
10
112.602
20
-89.8329
11
112.601
21
-89.6999
0
LINE
8
BLACK
6
CONTINUOUS
10
112.601
20
-89.6999
11
112.527
21
-89.3322
0
LINE
8
BLACK
6
CONTINUOUS
10
112.527
20
-89.3322
11
112.476
21
-89.2094
0
LINE
8
BLACK
6
CONTINUOUS
10
112.476
20
-89.2094
11
112.266
21
-88.898
0
LINE
8
BLACK
6
CONTINUOUS
10
112.266
20
-88.898
11
112.172
21
-88.8042
0
LINE
8
BLACK
6
CONTINUOUS
10
112.172
20
-88.8042
11
111.86
21
-88.5967
0
LINE
8
BLACK
6
CONTINUOUS
10
111.86
20
-88.5967
11
111.737
21
-88.5461
0
LINE
8
BLACK
6
CONTINUOUS
10
111.737
20
-88.5461
11
111.368
21
-88.4739
0
LINE
8
BLACK
6
CONTINUOUS
10
111.368
20
-88.4739
11
111.3
21
-88.4741
0
LINE
8
BLACK
6
CONTINUOUS
10
111.3
20
-88.4741
11
111.293
21
-88.4729
0
LINE
8
BLACK
6
CONTINUOUS
10
111.293
20
-88.4729
11
111.286
21
-88.4729
0
LINE
8
BLACK
6
CONTINUOUS
10
111.286
20
-88.4729
11
111.28
21
-88.4707
0
LINE
8
BLACK
6
CONTINUOUS
10
111.28
20
-88.4707
11
111.274
21
-88.4696
0
LINE
8
BLACK
6
CONTINUOUS
10
111.274
20
-88.4696
11
111.268
21
-88.4662
0
LINE
8
BLACK
6
CONTINUOUS
10
111.268
20
-88.4662
11
111.262
21
-88.4639
0
LINE
8
BLACK
6
CONTINUOUS
10
111.262
20
-88.4639
11
111.257
21
-88.4597
0
LINE
8
BLACK
6
CONTINUOUS
10
111.257
20
-88.4597
11
111.251
21
-88.4564
0
LINE
8
BLACK
6
CONTINUOUS
10
111.251
20
-88.4564
11
111.246
21
-88.4512
0
LINE
8
BLACK
6
CONTINUOUS
10
111.246
20
-88.4512
11
111.241
21
-88.4469
0
LINE
8
BLACK
6
CONTINUOUS
10
111.241
20
-88.4469
11
111.238
21
-88.4412
0
LINE
8
BLACK
6
CONTINUOUS
10
111.238
20
-88.4412
11
111.234
21
-88.4362
0
LINE
8
BLACK
6
CONTINUOUS
10
111.234
20
-88.4362
11
111.231
21
-88.4298
0
LINE
8
BLACK
6
CONTINUOUS
10
111.231
20
-88.4298
11
111.228
21
-88.424
0
LINE
8
BLACK
6
CONTINUOUS
10
111.228
20
-88.424
11
111.227
21
-88.4175
0
LINE
8
BLACK
6
CONTINUOUS
10
111.227
20
-88.4175
11
111.225
21
-88.4113
0
LINE
8
BLACK
6
CONTINUOUS
10
111.225
20
-88.4113
11
111.225
21
-88.4046
0
LINE
8
BLACK
6
CONTINUOUS
10
111.225
20
-88.4046
11
111.223
21
-88.3979
0
LINE
8
BLACK
6
CONTINUOUS
10
111.223
20
-88.3979
11
111.223
21
-76.2427
0
LINE
8
BLACK
6
CONTINUOUS
10
111.223
20
-76.2427
11
111.225
21
-76.2361
0
LINE
8
BLACK
6
CONTINUOUS
10
111.225
20
-76.2361
11
111.225
21
-76.2294
0
LINE
8
BLACK
6
CONTINUOUS
10
111.225
20
-76.2294
11
111.227
21
-76.2232
0
LINE
8
BLACK
6
CONTINUOUS
10
111.227
20
-76.2232
11
111.228
21
-76.2166
0
LINE
8
BLACK
6
CONTINUOUS
10
111.228
20
-76.2166
11
111.231
21
-76.2108
0
LINE
8
BLACK
6
CONTINUOUS
10
111.231
20
-76.2108
11
111.234
21
-76.2046
0
LINE
8
BLACK
6
CONTINUOUS
10
111.234
20
-76.2046
11
111.238
21
-76.1994
0
LINE
8
BLACK
6
CONTINUOUS
10
111.238
20
-76.1994
11
111.241
21
-76.1937
0
LINE
8
BLACK
6
CONTINUOUS
10
111.241
20
-76.1937
11
111.246
21
-76.1894
0
LINE
8
BLACK
6
CONTINUOUS
10
111.246
20
-76.1894
11
111.251
21
-76.1843
0
LINE
8
BLACK
6
CONTINUOUS
10
111.251
20
-76.1843
11
111.256
21
-76.1809
0
LINE
8
BLACK
6
CONTINUOUS
10
111.256
20
-76.1809
11
111.262
21
-76.1767
0
LINE
8
BLACK
6
CONTINUOUS
10
111.262
20
-76.1767
11
111.268
21
-76.1744
0
LINE
8
BLACK
6
CONTINUOUS
10
111.268
20
-76.1744
11
111.274
21
-76.171
0
LINE
8
BLACK
6
CONTINUOUS
10
111.274
20
-76.171
11
111.28
21
-76.1699
0
LINE
8
BLACK
6
CONTINUOUS
10
111.28
20
-76.1699
11
111.286
21
-76.1676
0
LINE
8
BLACK
6
CONTINUOUS
10
111.286
20
-76.1676
11
111.293
21
-76.1676
0
LINE
8
BLACK
6
CONTINUOUS
10
111.293
20
-76.1676
11
111.3
21
-76.1665
0
LINE
8
BLACK
6
CONTINUOUS
10
111.3
20
-76.1665
11
112.509
21
-76.1665
0
LINE
8
BLACK
6
CONTINUOUS
10
112.509
20
-76.1665
11
112.51
21
-76.1666
0
LINE
8
BLACK
6
CONTINUOUS
10
112.51
20
-76.1666
11
112.51
21
-76.1665
0
LINE
8
BLACK
6
CONTINUOUS
10
112.51
20
-76.1665
11
112.523
21
-76.1689
0
LINE
8
BLACK
6
CONTINUOUS
10
112.523
20
-76.1689
11
112.535
21
-76.171
0
LINE
8
BLACK
6
CONTINUOUS
10
112.535
20
-76.171
11
112.536
21
-76.1715
0
LINE
8
BLACK
6
CONTINUOUS
10
112.536
20
-76.1715
11
112.536
21
-76.1716
0
LINE
8
BLACK
6
CONTINUOUS
10
112.536
20
-76.1716
11
112.547
21
-76.1781
0
LINE
8
BLACK
6
CONTINUOUS
10
112.547
20
-76.1781
11
112.558
21
-76.1843
0
LINE
8
BLACK
6
CONTINUOUS
10
112.558
20
-76.1843
11
112.558
21
-76.1849
0
LINE
8
BLACK
6
CONTINUOUS
10
112.558
20
-76.1849
11
112.559
21
-76.1854
0
LINE
8
BLACK
6
CONTINUOUS
10
112.559
20
-76.1854
11
112.567
21
-76.1951
0
LINE
8
BLACK
6
CONTINUOUS
10
112.567
20
-76.1951
11
112.575
21
-76.2046
0
LINE
8
BLACK
6
CONTINUOUS
10
112.575
20
-76.2046
11
112.575
21
-76.2053
0
LINE
8
BLACK
6
CONTINUOUS
10
112.575
20
-76.2053
11
112.576
21
-76.206
0
LINE
8
BLACK
6
CONTINUOUS
10
112.576
20
-76.206
11
112.58
21
-76.2178
0
LINE
8
BLACK
6
CONTINUOUS
10
112.58
20
-76.2178
11
112.584
21
-76.2294
0
LINE
8
BLACK
6
CONTINUOUS
10
112.584
20
-76.2294
11
112.584
21
-76.2303
0
LINE
8
BLACK
6
CONTINUOUS
10
112.584
20
-76.2303
11
112.584
21
-76.2311
0
LINE
8
BLACK
6
CONTINUOUS
10
112.584
20
-76.2311
11
112.584
21
-76.2435
0
LINE
8
BLACK
6
CONTINUOUS
10
112.584
20
-76.2435
11
112.584
21
-76.2559
0
LINE
8
BLACK
6
CONTINUOUS
10
112.584
20
-76.2559
11
112.584
21
-76.2567
0
LINE
8
BLACK
6
CONTINUOUS
10
112.584
20
-76.2567
11
112.584
21
-76.2575
0
LINE
8
BLACK
6
CONTINUOUS
10
112.584
20
-76.2575
11
112.564
21
-76.3556
0
LINE
8
BLACK
6
CONTINUOUS
10
112.564
20
-76.3556
11
112.564
21
-76.7898
0
LINE
8
BLACK
6
CONTINUOUS
10
112.564
20
-76.7898
11
112.563
21
-76.7947
0
LINE
8
BLACK
6
CONTINUOUS
10
112.563
20
-76.7947
11
112.563
21
-76.7998
0
LINE
8
BLACK
6
CONTINUOUS
10
112.563
20
-76.7998
11
112.561
21
-76.8077
0
LINE
8
BLACK
6
CONTINUOUS
10
112.561
20
-76.8077
11
112.559
21
-76.8159
0
LINE
8
BLACK
6
CONTINUOUS
10
112.559
20
-76.8159
11
112.557
21
-76.8202
0
LINE
8
BLACK
6
CONTINUOUS
10
112.557
20
-76.8202
11
112.555
21
-76.825
0
LINE
8
BLACK
6
CONTINUOUS
10
112.555
20
-76.825
11
112.55
21
-76.8316
0
LINE
8
BLACK
6
CONTINUOUS
10
112.55
20
-76.8316
11
112.546
21
-76.8388
0
LINE
8
BLACK
6
CONTINUOUS
10
112.546
20
-76.8388
11
112.542
21
-76.842
0
LINE
8
BLACK
6
CONTINUOUS
10
112.542
20
-76.842
11
112.539
21
-76.846
0
LINE
8
BLACK
6
CONTINUOUS
10
112.539
20
-76.846
11
112.534
21
-76.8493
0
LINE
8
BLACK
6
CONTINUOUS
10
112.534
20
-76.8493
11
112.47
21
-76.913
0
LINE
8
BLACK
6
CONTINUOUS
10
112.47
20
-76.913
11
112.439
21
-76.9877
0
LINE
8
BLACK
6
CONTINUOUS
10
112.439
20
-76.9877
11
112.439
21
-77.204
0
LINE
8
BLACK
6
CONTINUOUS
10
112.439
20
-77.204
11
112.465
21
-77.2292
0
LINE
8
BLACK
6
CONTINUOUS
10
112.465
20
-77.2292
11
112.643
21
-77.2292
0
LINE
8
BLACK
6
CONTINUOUS
10
112.643
20
-77.2292
11
112.643
21
-77.0281
0
LINE
8
BLACK
6
CONTINUOUS
10
112.643
20
-77.0281
11
113.163
21
-77.0281
0
LINE
8
BLACK
6
CONTINUOUS
10
113.163
20
-77.0281
11
113.163
21
-77.6081
0
LINE
8
BLACK
6
CONTINUOUS
10
113.163
20
-77.6081
11
112.992
21
-77.6081
0
LINE
8
BLACK
6
CONTINUOUS
10
112.992
20
-77.6081
11
112.992
21
-77.7711
0
LINE
8
BLACK
6
CONTINUOUS
10
112.992
20
-77.7711
11
113.163
21
-77.7711
0
LINE
8
BLACK
6
CONTINUOUS
10
113.163
20
-77.7711
11
113.163
21
-78.0411
0
LINE
8
BLACK
6
CONTINUOUS
10
113.163
20
-78.0411
11
112.643
21
-78.0411
0
LINE
8
BLACK
6
CONTINUOUS
10
112.643
20
-78.0411
11
112.643
21
-77.9879
0
LINE
8
BLACK
6
CONTINUOUS
10
112.643
20
-77.9879
11
112.614
21
-77.9935
0
LINE
8
BLACK
6
CONTINUOUS
10
112.614
20
-77.9935
11
112.607
21
-77.9937
0
LINE
8
BLACK
6
CONTINUOUS
10
112.607
20
-77.9937
11
112.6
21
-77.995
0
LINE
8
BLACK
6
CONTINUOUS
10
112.6
20
-77.995
11
112.465
21
-77.995
0
LINE
8
BLACK
6
CONTINUOUS
10
112.465
20
-77.995
11
112.439
21
-78.0202
0
LINE
8
BLACK
6
CONTINUOUS
10
112.439
20
-78.0202
11
112.439
21
-78.0815
0
LINE
8
BLACK
6
CONTINUOUS
10
112.439
20
-78.0815
11
112.443
21
-78.0905
0
LINE
8
BLACK
6
CONTINUOUS
10
112.443
20
-78.0905
11
112.445
21
-78.0994
0
LINE
8
BLACK
6
CONTINUOUS
10
112.445
20
-78.0994
11
112.448
21
-78.1081
0
LINE
8
BLACK
6
CONTINUOUS
10
112.448
20
-78.1081
11
112.448
21
-78.1123
0
LINE
8
BLACK
6
CONTINUOUS
10
112.448
20
-78.1123
11
112.449
21
-78.1163
0
LINE
8
BLACK
6
CONTINUOUS
10
112.449
20
-78.1163
11
112.448
21
-78.1254
0
LINE
8
BLACK
6
CONTINUOUS
10
112.448
20
-78.1254
11
112.448
21
-78.1345
0
LINE
8
BLACK
6
CONTINUOUS
10
112.448
20
-78.1345
11
112.434
21
-78.2026
0
LINE
8
BLACK
6
CONTINUOUS
10
112.434
20
-78.2026
11
112.434
21
-78.4576
0
LINE
8
BLACK
6
CONTINUOUS
10
112.434
20
-78.4576
11
112.449
21
-78.5317
0
LINE
8
BLACK
6
CONTINUOUS
10
112.449
20
-78.5317
11
112.449
21
-78.5334
0
LINE
8
BLACK
6
CONTINUOUS
10
112.449
20
-78.5334
11
112.449
21
-78.535
0
LINE
8
BLACK
6
CONTINUOUS
10
112.449
20
-78.535
11
112.449
21
-78.5466
0
LINE
8
BLACK
6
CONTINUOUS
10
112.449
20
-78.5466
11
112.449
21
-78.5582
0
LINE
8
BLACK
6
CONTINUOUS
10
112.449
20
-78.5582
11
112.449
21
-78.5598
0
LINE
8
BLACK
6
CONTINUOUS
10
112.449
20
-78.5598
11
112.449
21
-78.5614
0
LINE
8
BLACK
6
CONTINUOUS
10
112.449
20
-78.5614
11
112.434
21
-78.6356
0
LINE
8
BLACK
6
CONTINUOUS
10
112.434
20
-78.6356
11
112.434
21
-79.2006
0
LINE
8
BLACK
6
CONTINUOUS
10
112.434
20
-79.2006
11
112.451
21
-79.2874
0
LINE
8
BLACK
6
CONTINUOUS
10
112.451
20
-79.2874
11
112.496
21
-79.3546
0
LINE
8
BLACK
6
CONTINUOUS
10
112.496
20
-79.3546
11
112.53
21
-79.3773
0
LINE
8
BLACK
6
CONTINUOUS
10
112.53
20
-79.3773
11
112.538
21
-79.3847
0
LINE
8
BLACK
6
CONTINUOUS
10
112.538
20
-79.3847
11
112.546
21
-79.3916
0
LINE
8
BLACK
6
CONTINUOUS
10
112.546
20
-79.3916
11
112.547
21
-79.3938
0
LINE
8
BLACK
6
CONTINUOUS
10
112.547
20
-79.3938
11
112.549
21
-79.3956
0
LINE
8
BLACK
6
CONTINUOUS
10
112.549
20
-79.3956
11
112.554
21
-79.4052
0
LINE
8
BLACK
6
CONTINUOUS
10
112.554
20
-79.4052
11
112.559
21
-79.4146
0
LINE
8
BLACK
6
CONTINUOUS
10
112.559
20
-79.4146
11
112.56
21
-79.417
0
LINE
8
BLACK
6
CONTINUOUS
10
112.56
20
-79.417
11
112.561
21
-79.4193
0
LINE
8
BLACK
6
CONTINUOUS
10
112.561
20
-79.4193
11
112.562
21
-79.43
0
LINE
8
BLACK
6
CONTINUOUS
10
112.562
20
-79.43
11
112.564
21
-79.4406
0
LINE
8
BLACK
6
CONTINUOUS
10
112.564
20
-79.4406
11
112.564
21
-79.8806
0
LINE
8
BLACK
6
CONTINUOUS
10
112.564
20
-79.8806
11
112.581
21
-79.9674
0
LINE
8
BLACK
6
CONTINUOUS
10
112.581
20
-79.9674
11
112.626
21
-80.0346
0
LINE
8
BLACK
6
CONTINUOUS
10
112.626
20
-80.0346
11
112.693
21
-80.0795
0
LINE
8
BLACK
6
CONTINUOUS
10
112.693
20
-80.0795
11
112.78
21
-80.0968
0
LINE
8
BLACK
6
CONTINUOUS
10
112.78
20
-80.0968
11
113.095
21
-80.0968
0
LINE
8
BLACK
6
CONTINUOUS
10
113.095
20
-80.0968
11
113.182
21
-80.0795
0
LINE
8
BLACK
6
CONTINUOUS
10
113.182
20
-80.0795
11
113.249
21
-80.0346
0
LINE
8
BLACK
6
CONTINUOUS
10
113.249
20
-80.0346
11
113.294
21
-79.9674
0
LINE
8
BLACK
6
CONTINUOUS
10
113.294
20
-79.9674
11
113.305
21
-79.9139
0
LINE
8
BLACK
6
CONTINUOUS
10
113.305
20
-79.9139
11
113.309
21
-79.9023
0
LINE
8
BLACK
6
CONTINUOUS
10
113.309
20
-79.9023
11
113.313
21
-79.8906
0
LINE
8
BLACK
6
CONTINUOUS
10
113.313
20
-79.8906
11
113.314
21
-79.89
0
LINE
8
BLACK
6
CONTINUOUS
10
113.314
20
-79.89
11
113.314
21
-79.8892
0
LINE
8
BLACK
6
CONTINUOUS
10
113.314
20
-79.8892
11
113.323
21
-79.8798
0
LINE
8
BLACK
6
CONTINUOUS
10
113.323
20
-79.8798
11
113.33
21
-79.8703
0
LINE
8
BLACK
6
CONTINUOUS
10
113.33
20
-79.8703
11
113.331
21
-79.8699
0
LINE
8
BLACK
6
CONTINUOUS
10
113.331
20
-79.8699
11
113.332
21
-79.8693
0
LINE
8
BLACK
6
CONTINUOUS
10
113.332
20
-79.8693
11
113.343
21
-79.8633
0
LINE
8
BLACK
6
CONTINUOUS
10
113.343
20
-79.8633
11
113.353
21
-79.8571
0
LINE
8
BLACK
6
CONTINUOUS
10
113.353
20
-79.8571
11
113.354
21
-79.857
0
LINE
8
BLACK
6
CONTINUOUS
10
113.354
20
-79.857
11
113.355
21
-79.8566
0
LINE
8
BLACK
6
CONTINUOUS
10
113.355
20
-79.8566
11
113.367
21
-79.8547
0
LINE
8
BLACK
6
CONTINUOUS
10
113.367
20
-79.8547
11
113.379
21
-79.8525
0
LINE
8
BLACK
6
CONTINUOUS
10
113.379
20
-79.8525
11
114.926
21
-79.8525
0
LINE
8
BLACK
6
CONTINUOUS
10
114.926
20
-79.8525
11
114.938
21
-79.8547
0
LINE
8
BLACK
6
CONTINUOUS
10
114.938
20
-79.8547
11
114.95
21
-79.8566
0
LINE
8
BLACK
6
CONTINUOUS
10
114.95
20
-79.8566
11
114.951
21
-79.857
0
LINE
8
BLACK
6
CONTINUOUS
10
114.951
20
-79.857
11
114.952
21
-79.8571
0
LINE
8
BLACK
6
CONTINUOUS
10
114.952
20
-79.8571
11
114.963
21
-79.8633
0
LINE
8
BLACK
6
CONTINUOUS
10
114.963
20
-79.8633
11
114.974
21
-79.8693
0
LINE
8
BLACK
6
CONTINUOUS
10
114.974
20
-79.8693
11
114.974
21
-79.8699
0
LINE
8
BLACK
6
CONTINUOUS
10
114.974
20
-79.8699
11
114.975
21
-79.8703
0
LINE
8
BLACK
6
CONTINUOUS
10
114.975
20
-79.8703
11
114.983
21
-79.8798
0
LINE
8
BLACK
6
CONTINUOUS
10
114.983
20
-79.8798
11
114.991
21
-79.8892
0
LINE
8
BLACK
6
CONTINUOUS
10
114.991
20
-79.8892
11
114.991
21
-79.89
0
LINE
8
BLACK
6
CONTINUOUS
10
114.991
20
-79.89
11
114.992
21
-79.8906
0
LINE
8
BLACK
6
CONTINUOUS
10
114.992
20
-79.8906
11
114.996
21
-79.9023
0
LINE
8
BLACK
6
CONTINUOUS
10
114.996
20
-79.9023
11
115.001
21
-79.9139
0
LINE
8
BLACK
6
CONTINUOUS
10
115.001
20
-79.9139
11
115.011
21
-79.9674
0
LINE
8
BLACK
6
CONTINUOUS
10
115.011
20
-79.9674
11
115.056
21
-80.0346
0
LINE
8
BLACK
6
CONTINUOUS
10
115.056
20
-80.0346
11
115.123
21
-80.0795
0
LINE
8
BLACK
6
CONTINUOUS
10
115.123
20
-80.0795
11
115.21
21
-80.0968
0
LINE
8
BLACK
6
CONTINUOUS
10
115.21
20
-80.0968
11
115.525
21
-80.0968
0
LINE
8
BLACK
6
CONTINUOUS
10
115.525
20
-80.0968
11
115.612
21
-80.0795
0
LINE
8
BLACK
6
CONTINUOUS
10
115.612
20
-80.0795
11
115.679
21
-80.0346
0
LINE
8
BLACK
6
CONTINUOUS
10
115.679
20
-80.0346
11
115.724
21
-79.9674
0
LINE
8
BLACK
6
CONTINUOUS
10
115.724
20
-79.9674
11
115.741
21
-79.8806
0
LINE
8
BLACK
6
CONTINUOUS
10
115.741
20
-79.8806
11
115.741
21
-79.4406
0
LINE
8
BLACK
6
CONTINUOUS
10
115.741
20
-79.4406
11
115.743
21
-79.43
0
LINE
8
BLACK
6
CONTINUOUS
10
115.743
20
-79.43
11
115.744
21
-79.4193
0
LINE
8
BLACK
6
CONTINUOUS
10
115.744
20
-79.4193
11
115.746
21
-79.417
0
LINE
8
BLACK
6
CONTINUOUS
10
115.746
20
-79.417
11
115.746
21
-79.4146
0
LINE
8
BLACK
6
CONTINUOUS
10
115.746
20
-79.4146
11
115.751
21
-79.4052
0
LINE
8
BLACK
6
CONTINUOUS
10
115.751
20
-79.4052
11
115.756
21
-79.3956
0
LINE
8
BLACK
6
CONTINUOUS
10
115.756
20
-79.3956
11
115.758
21
-79.3938
0
LINE
8
BLACK
6
CONTINUOUS
10
115.758
20
-79.3938
11
115.759
21
-79.3916
0
LINE
8
BLACK
6
CONTINUOUS
10
115.759
20
-79.3916
11
115.767
21
-79.3847
0
LINE
8
BLACK
6
CONTINUOUS
10
115.767
20
-79.3847
11
115.775
21
-79.3773
0
LINE
8
BLACK
6
CONTINUOUS
10
115.775
20
-79.3773
11
115.791
21
-79.3669
0
LINE
8
BLACK
6
CONTINUOUS
10
115.791
20
-79.3669
11
115.795
21
-79.3648
0
LINE
8
BLACK
6
CONTINUOUS
10
115.795
20
-79.3648
11
115.799
21
-79.3619
0
LINE
8
BLACK
6
CONTINUOUS
10
115.799
20
-79.3619
11
115.807
21
-79.3596
0
LINE
8
BLACK
6
CONTINUOUS
10
115.807
20
-79.3596
11
115.815
21
-79.3562
0
LINE
8
BLACK
6
CONTINUOUS
10
115.815
20
-79.3562
11
115.82
21
-79.3559
0
LINE
8
BLACK
6
CONTINUOUS
10
115.82
20
-79.3559
11
115.825
21
-79.3545
0
LINE
8
BLACK
6
CONTINUOUS
10
115.825
20
-79.3545
11
115.833
21
-79.355
0
LINE
8
BLACK
6
CONTINUOUS
10
115.833
20
-79.355
11
115.841
21
-79.3545
0
LINE
8
BLACK
6
CONTINUOUS
10
115.841
20
-79.3545
11
115.846
21
-79.3559
0
LINE
8
BLACK
6
CONTINUOUS
10
115.846
20
-79.3559
11
115.851
21
-79.3562
0
LINE
8
BLACK
6
CONTINUOUS
10
115.851
20
-79.3562
11
115.859
21
-79.3596
0
LINE
8
BLACK
6
CONTINUOUS
10
115.859
20
-79.3596
11
115.867
21
-79.3619
0
LINE
8
BLACK
6
CONTINUOUS
10
115.867
20
-79.3619
11
115.871
21
-79.3648
0
LINE
8
BLACK
6
CONTINUOUS
10
115.871
20
-79.3648
11
115.875
21
-79.3669
0
LINE
8
BLACK
6
CONTINUOUS
10
115.875
20
-79.3669
11
115.937
21
-79.408
0
LINE
8
BLACK
6
CONTINUOUS
10
115.937
20
-79.408
11
116.004
21
-79.4213
0
LINE
8
BLACK
6
CONTINUOUS
10
116.004
20
-79.4213
11
116.016
21
-79.4258
0
LINE
8
BLACK
6
CONTINUOUS
10
116.016
20
-79.4258
11
116.027
21
-79.4301
0
LINE
8
BLACK
6
CONTINUOUS
10
116.027
20
-79.4301
11
116.028
21
-79.4306
0
LINE
8
BLACK
6
CONTINUOUS
10
116.028
20
-79.4306
11
116.029
21
-79.4309
0
LINE
8
BLACK
6
CONTINUOUS
10
116.029
20
-79.4309
11
116.038
21
-79.4391
0
LINE
8
BLACK
6
CONTINUOUS
10
116.038
20
-79.4391
11
116.047
21
-79.4471
0
LINE
8
BLACK
6
CONTINUOUS
10
116.047
20
-79.4471
11
116.048
21
-79.4478
0
LINE
8
BLACK
6
CONTINUOUS
10
116.048
20
-79.4478
11
116.049
21
-79.4484
0
LINE
8
BLACK
6
CONTINUOUS
10
116.049
20
-79.4484
11
116.054
21
-79.4593
0
LINE
8
BLACK
6
CONTINUOUS
10
116.054
20
-79.4593
11
116.061
21
-79.47
0
LINE
8
BLACK
6
CONTINUOUS
10
116.061
20
-79.47
11
116.061
21
-79.4708
0
LINE
8
BLACK
6
CONTINUOUS
10
116.061
20
-79.4708
11
116.061
21
-79.4716
0
LINE
8
BLACK
6
CONTINUOUS
10
116.061
20
-79.4716
11
116.063
21
-79.4838
0
LINE
8
BLACK
6
CONTINUOUS
10
116.063
20
-79.4838
11
116.065
21
-79.4961
0
LINE
8
BLACK
6
CONTINUOUS
10
116.065
20
-79.4961
11
116.065
21
-79.6361
0
LINE
8
BLACK
6
CONTINUOUS
10
116.065
20
-79.6361
11
116.145
21
-79.8274
0
LINE
8
BLACK
6
CONTINUOUS
10
116.145
20
-79.8274
11
116.291
21
-79.9739
0
LINE
8
BLACK
6
CONTINUOUS
10
116.291
20
-79.9739
11
116.482
21
-80.0532
0
LINE
8
BLACK
6
CONTINUOUS
10
116.482
20
-80.0532
11
116.69
21
-80.0532
0
LINE
8
BLACK
6
CONTINUOUS
10
116.69
20
-80.0532
11
116.881
21
-79.9739
0
LINE
8
BLACK
6
CONTINUOUS
10
116.881
20
-79.9739
11
116.934
21
-79.9208
0
LINE
8
BLACK
6
CONTINUOUS
10
116.934
20
-79.9208
11
116.942
21
-79.9151
0
LINE
8
BLACK
6
CONTINUOUS
10
116.942
20
-79.9151
11
116.95
21
-79.9087
0
LINE
8
BLACK
6
CONTINUOUS
10
116.95
20
-79.9087
11
116.953
21
-79.9076
0
LINE
8
BLACK
6
CONTINUOUS
10
116.953
20
-79.9076
11
116.956
21
-79.9056
0
LINE
8
BLACK
6
CONTINUOUS
10
116.956
20
-79.9056
11
116.965
21
-79.9031
0
LINE
8
BLACK
6
CONTINUOUS
10
116.965
20
-79.9031
11
116.975
21
-79.8997
0
LINE
8
BLACK
6
CONTINUOUS
10
116.975
20
-79.8997
11
116.978
21
-79.8997
0
LINE
8
BLACK
6
CONTINUOUS
10
116.978
20
-79.8997
11
116.981
21
-79.8988
0
LINE
8
BLACK
6
CONTINUOUS
10
116.981
20
-79.8988
11
116.991
21
-79.8997
0
LINE
8
BLACK
6
CONTINUOUS
10
116.991
20
-79.8997
11
117.001
21
-79.8997
0
LINE
8
BLACK
6
CONTINUOUS
10
117.001
20
-79.8997
11
117.004
21
-79.9008
0
LINE
8
BLACK
6
CONTINUOUS
10
117.004
20
-79.9008
11
117.008
21
-79.9011
0
LINE
8
BLACK
6
CONTINUOUS
10
117.008
20
-79.9011
11
117.017
21
-79.9053
0
LINE
8
BLACK
6
CONTINUOUS
10
117.017
20
-79.9053
11
117.026
21
-79.9087
0
LINE
8
BLACK
6
CONTINUOUS
10
117.026
20
-79.9087
11
117.029
21
-79.9109
0
LINE
8
BLACK
6
CONTINUOUS
10
117.029
20
-79.9109
11
117.032
21
-79.9123
0
LINE
8
BLACK
6
CONTINUOUS
10
117.032
20
-79.9123
11
117.039
21
-79.9193
0
LINE
8
BLACK
6
CONTINUOUS
10
117.039
20
-79.9193
11
117.046
21
-79.9258
0
LINE
8
BLACK
6
CONTINUOUS
10
117.046
20
-79.9258
11
117.048
21
-79.9286
0
LINE
8
BLACK
6
CONTINUOUS
10
117.048
20
-79.9286
11
117.05
21
-79.931
0
LINE
8
BLACK
6
CONTINUOUS
10
117.05
20
-79.931
11
117.055
21
-79.94
0
LINE
8
BLACK
6
CONTINUOUS
10
117.055
20
-79.94
11
117.06
21
-79.9487
0
LINE
8
BLACK
6
CONTINUOUS
10
117.06
20
-79.9487
11
117.06
21
-79.952
0
LINE
8
BLACK
6
CONTINUOUS
10
117.06
20
-79.952
11
117.062
21
-79.955
0
LINE
8
BLACK
6
CONTINUOUS
10
117.062
20
-79.955
11
117.062
21
-79.9649
0
LINE
8
BLACK
6
CONTINUOUS
10
117.062
20
-79.9649
11
117.064
21
-79.9748
0
LINE
8
BLACK
6
CONTINUOUS
10
117.064
20
-79.9748
11
117.055
21
-92.6777
0
LINE
8
BLACK
6
CONTINUOUS
10
117.055
20
-92.6777
11
117.054
21
-92.6851
0
LINE
8
BLACK
6
CONTINUOUS
10
117.054
20
-92.6851
11
117.054
21
-92.6925
0
LINE
8
BLACK
6
CONTINUOUS
10
117.054
20
-92.6925
11
117.049
21
-92.7152
0
LINE
8
BLACK
6
CONTINUOUS
10
117.049
20
-92.7152
11
117.061
21
-92.7742
0
LINE
8
BLACK
6
CONTINUOUS
10
117.061
20
-92.7742
11
117.061
21
-92.7743
0
LINE
8
BLACK
6
CONTINUOUS
10
117.061
20
-92.7743
11
117.061
21
-92.7743
0
LINE
8
BLACK
6
CONTINUOUS
10
117.061
20
-92.7743
11
117.073
21
-92.8334
0
LINE
8
BLACK
6
CONTINUOUS
10
117.073
20
-92.8334
11
117.106
21
-92.8835
0
LINE
8
BLACK
6
CONTINUOUS
10
117.106
20
-92.8835
11
117.106
21
-92.8835
0
LINE
8
BLACK
6
CONTINUOUS
10
117.106
20
-92.8835
11
117.106
21
-92.8835
0
LINE
8
BLACK
6
CONTINUOUS
10
117.106
20
-92.8835
11
117.14
21
-92.9337
0
LINE
8
BLACK
6
CONTINUOUS
10
117.14
20
-92.9337
11
117.19
21
-92.9671
0
LINE
8
BLACK
6
CONTINUOUS
10
117.19
20
-92.9671
11
117.19
21
-92.9671
0
LINE
8
BLACK
6
CONTINUOUS
10
117.19
20
-92.9671
11
117.19
21
-92.9671
0
LINE
8
BLACK
6
CONTINUOUS
10
117.19
20
-92.9671
11
117.24
21
-93.0007
0
LINE
8
BLACK
6
CONTINUOUS
10
117.24
20
-93.0007
11
117.299
21
-93.0125
0
LINE
8
BLACK
6
CONTINUOUS
10
117.299
20
-93.0125
11
117.299
21
-93.0125
0
LINE
8
BLACK
6
CONTINUOUS
10
117.299
20
-93.0125
11
117.299
21
-93.0125
0
LINE
8
BLACK
6
CONTINUOUS
10
117.299
20
-93.0125
11
117.358
21
-93.0242
0
LINE
8
BLACK
6
CONTINUOUS
10
117.358
20
-93.0242
11
117.381
21
-93.0197
0
LINE
8
BLACK
6
CONTINUOUS
10
117.381
20
-93.0197
11
117.388
21
-93.0196
0
LINE
8
BLACK
6
CONTINUOUS
10
117.388
20
-93.0196
11
117.395
21
-93.0183
0
LINE
8
BLACK
6
CONTINUOUS
10
117.395
20
-93.0183
11
121.038
21
-93.0166
0
LINE
8
BLACK
6
CONTINUOUS
10
121.038
20
-93.0166
11
121.275
21
-92.9748
0
LINE
8
BLACK
6
CONTINUOUS
10
121.275
20
-92.9748
11
121.511
21
-93.0163
0
LINE
8
BLACK
6
CONTINUOUS
10
121.511
20
-93.0163
11
123.791
21
-93.0153
0
LINE
8
BLACK
6
CONTINUOUS
10
123.791
20
-93.0153
11
123.802
21
-93.0173
0
LINE
8
BLACK
6
CONTINUOUS
10
123.802
20
-93.0173
11
123.814
21
-93.0188
0
LINE
8
BLACK
6
CONTINUOUS
10
123.814
20
-93.0188
11
123.815
21
-93.0196
0
LINE
8
BLACK
6
CONTINUOUS
10
123.815
20
-93.0196
11
123.817
21
-93.0199
0
LINE
8
BLACK
6
CONTINUOUS
10
123.817
20
-93.0199
11
123.827
21
-93.0257
0
LINE
8
BLACK
6
CONTINUOUS
10
123.827
20
-93.0257
11
123.837
21
-93.031
0
LINE
8
BLACK
6
CONTINUOUS
10
123.837
20
-93.031
11
123.838
21
-93.0323
0
LINE
8
BLACK
6
CONTINUOUS
10
123.838
20
-93.0323
11
123.84
21
-93.0331
0
LINE
8
BLACK
6
CONTINUOUS
10
123.84
20
-93.0331
11
123.847
21
-93.042
0
LINE
8
BLACK
6
CONTINUOUS
10
123.847
20
-93.042
11
123.855
21
-93.0505
0
LINE
8
BLACK
6
CONTINUOUS
10
123.855
20
-93.0505
11
123.856
21
-93.0521
0
LINE
8
BLACK
6
CONTINUOUS
10
123.856
20
-93.0521
11
123.857
21
-93.0534
0
LINE
8
BLACK
6
CONTINUOUS
10
123.857
20
-93.0534
11
123.861
21
-93.0643
0
LINE
8
BLACK
6
CONTINUOUS
10
123.861
20
-93.0643
11
123.865
21
-93.075
0
LINE
8
BLACK
6
CONTINUOUS
10
123.865
20
-93.075
11
123.865
21
-93.0767
0
LINE
8
BLACK
6
CONTINUOUS
10
123.865
20
-93.0767
11
123.866
21
-93.0782
0
LINE
8
BLACK
6
CONTINUOUS
10
123.866
20
-93.0782
11
123.866
21
-93.0898
0
LINE
8
BLACK
6
CONTINUOUS
10
123.866
20
-93.0898
11
123.866
21
-93.1014
0
LINE
8
BLACK
6
CONTINUOUS
10
123.866
20
-93.1014
11
123.866
21
-93.103
0
LINE
8
BLACK
6
CONTINUOUS
10
123.866
20
-93.103
11
123.866
21
-93.1047
0
LINE
8
BLACK
6
CONTINUOUS
10
123.866
20
-93.1047
11
123.862
21
-93.1156
0
LINE
8
BLACK
6
CONTINUOUS
10
123.862
20
-93.1156
11
123.859
21
-93.1267
0
LINE
8
BLACK
6
CONTINUOUS
10
123.859
20
-93.1267
11
123.858
21
-93.128
0
LINE
8
BLACK
6
CONTINUOUS
10
123.858
20
-93.128
11
123.857
21
-93.1296
0
LINE
8
BLACK
6
CONTINUOUS
10
123.857
20
-93.1296
11
123.849
21
-93.1384
0
LINE
8
BLACK
6
CONTINUOUS
10
123.849
20
-93.1384
11
123.842
21
-93.1477
0
LINE
8
BLACK
6
CONTINUOUS
10
123.842
20
-93.1477
11
123.841
21
-93.1486
0
LINE
8
BLACK
6
CONTINUOUS
10
123.841
20
-93.1486
11
123.84
21
-93.1498
0
LINE
8
BLACK
6
CONTINUOUS
10
123.84
20
-93.1498
11
123.83
21
-93.1556
0
LINE
8
BLACK
6
CONTINUOUS
10
123.83
20
-93.1556
11
123.82
21
-93.1619
0
LINE
8
BLACK
6
CONTINUOUS
10
123.82
20
-93.1619
11
123.661
21
-93.2278
0
LINE
8
BLACK
6
CONTINUOUS
10
123.661
20
-93.2278
11
123.393
21
-93.4959
0
LINE
8
BLACK
6
CONTINUOUS
10
123.393
20
-93.4959
11
123.248
21
-93.8463
0
LINE
8
BLACK
6
CONTINUOUS
10
123.248
20
-93.8463
11
123.248
21
-94.2255
0
LINE
8
BLACK
6
CONTINUOUS
10
123.248
20
-94.2255
11
123.393
21
-94.5758
0
LINE
8
BLACK
6
CONTINUOUS
10
123.393
20
-94.5758
11
123.661
21
-94.844
0
LINE
8
BLACK
6
CONTINUOUS
10
123.661
20
-94.844
11
124.011
21
-94.9891
0
LINE
8
BLACK
6
CONTINUOUS
10
124.011
20
-94.9891
11
124.391
21
-94.9891
0
LINE
8
BLACK
6
CONTINUOUS
10
124.391
20
-94.9891
11
124.741
21
-94.844
0
LINE
8
BLACK
6
CONTINUOUS
10
124.741
20
-94.844
11
125.009
21
-94.5758
0
LINE
8
BLACK
6
CONTINUOUS
10
125.009
20
-94.5758
11
125.154
21
-94.2255
0
LINE
8
BLACK
6
CONTINUOUS
10
125.154
20
-94.2255
11
125.154
21
-93.8463
0
LINE
8
BLACK
6
CONTINUOUS
10
125.154
20
-93.8463
11
125.009
21
-93.4959
0
LINE
8
BLACK
6
CONTINUOUS
10
125.009
20
-93.4959
11
124.741
21
-93.2278
0
LINE
8
BLACK
6
CONTINUOUS
10
124.741
20
-93.2278
11
124.581
21
-93.1615
0
LINE
8
BLACK
6
CONTINUOUS
10
124.581
20
-93.1615
11
124.571
21
-93.1553
0
LINE
8
BLACK
6
CONTINUOUS
10
124.571
20
-93.1553
11
124.561
21
-93.1495
0
LINE
8
BLACK
6
CONTINUOUS
10
124.561
20
-93.1495
11
124.56
21
-93.1482
0
LINE
8
BLACK
6
CONTINUOUS
10
124.56
20
-93.1482
11
124.558
21
-93.1473
0
LINE
8
BLACK
6
CONTINUOUS
10
124.558
20
-93.1473
11
124.551
21
-93.1381
0
LINE
8
BLACK
6
CONTINUOUS
10
124.551
20
-93.1381
11
124.544
21
-93.1292
0
LINE
8
BLACK
6
CONTINUOUS
10
124.544
20
-93.1292
11
124.543
21
-93.1276
0
LINE
8
BLACK
6
CONTINUOUS
10
124.543
20
-93.1276
11
124.542
21
-93.1263
0
LINE
8
BLACK
6
CONTINUOUS
10
124.542
20
-93.1263
11
124.539
21
-93.1152
0
LINE
8
BLACK
6
CONTINUOUS
10
124.539
20
-93.1152
11
124.535
21
-93.1044
0
LINE
8
BLACK
6
CONTINUOUS
10
124.535
20
-93.1044
11
124.535
21
-93.1027
0
LINE
8
BLACK
6
CONTINUOUS
10
124.535
20
-93.1027
11
124.534
21
-93.101
0
LINE
8
BLACK
6
CONTINUOUS
10
124.534
20
-93.101
11
124.535
21
-93.0895
0
LINE
8
BLACK
6
CONTINUOUS
10
124.535
20
-93.0895
11
124.535
21
-93.0779
0
LINE
8
BLACK
6
CONTINUOUS
10
124.535
20
-93.0779
11
124.536
21
-93.0763
0
LINE
8
BLACK
6
CONTINUOUS
10
124.536
20
-93.0763
11
124.536
21
-93.0746
0
LINE
8
BLACK
6
CONTINUOUS
10
124.536
20
-93.0746
11
124.54
21
-93.0639
0
LINE
8
BLACK
6
CONTINUOUS
10
124.54
20
-93.0639
11
124.544
21
-93.053
0
LINE
8
BLACK
6
CONTINUOUS
10
124.544
20
-93.053
11
124.545
21
-93.0517
0
LINE
8
BLACK
6
CONTINUOUS
10
124.545
20
-93.0517
11
124.546
21
-93.0502
0
LINE
8
BLACK
6
CONTINUOUS
10
124.546
20
-93.0502
11
124.554
21
-93.0416
0
LINE
8
BLACK
6
CONTINUOUS
10
124.554
20
-93.0416
11
124.561
21
-93.0328
0
LINE
8
BLACK
6
CONTINUOUS
10
124.561
20
-93.0328
11
124.562
21
-93.0319
0
LINE
8
BLACK
6
CONTINUOUS
10
124.562
20
-93.0319
11
124.564
21
-93.0306
0
LINE
8
BLACK
6
CONTINUOUS
10
124.564
20
-93.0306
11
124.574
21
-93.0253
0
LINE
8
BLACK
6
CONTINUOUS
10
124.574
20
-93.0253
11
124.584
21
-93.0195
0
LINE
8
BLACK
6
CONTINUOUS
10
124.584
20
-93.0195
11
124.586
21
-93.0192
0
LINE
8
BLACK
6
CONTINUOUS
10
124.586
20
-93.0192
11
124.587
21
-93.0184
0
LINE
8
BLACK
6
CONTINUOUS
10
124.587
20
-93.0184
11
124.599
21
-93.0169
0
LINE
8
BLACK
6
CONTINUOUS
10
124.599
20
-93.0169
11
124.61
21
-93.0149
0
LINE
8
BLACK
6
CONTINUOUS
10
124.61
20
-93.0149
11
127.891
21
-93.0134
0
LINE
8
BLACK
6
CONTINUOUS
10
127.891
20
-93.0134
11
127.897
21
-93.0145
0
LINE
8
BLACK
6
CONTINUOUS
10
127.897
20
-93.0145
11
127.904
21
-93.0145
0
LINE
8
BLACK
6
CONTINUOUS
10
127.904
20
-93.0145
11
127.91
21
-93.0168
0
LINE
8
BLACK
6
CONTINUOUS
10
127.91
20
-93.0168
11
127.917
21
-93.018
0
LINE
8
BLACK
6
CONTINUOUS
10
127.917
20
-93.018
11
127.922
21
-93.0213
0
LINE
8
BLACK
6
CONTINUOUS
10
127.922
20
-93.0213
11
127.929
21
-93.0236
0
LINE
8
BLACK
6
CONTINUOUS
10
127.929
20
-93.0236
11
127.934
21
-93.0279
0
LINE
8
BLACK
6
CONTINUOUS
10
127.934
20
-93.0279
11
127.94
21
-93.0312
0
LINE
8
BLACK
6
CONTINUOUS
10
127.94
20
-93.0312
11
127.944
21
-93.0363
0
LINE
8
BLACK
6
CONTINUOUS
10
127.944
20
-93.0363
11
127.949
21
-93.0406
0
LINE
8
BLACK
6
CONTINUOUS
10
127.949
20
-93.0406
11
127.952
21
-93.0464
0
LINE
8
BLACK
6
CONTINUOUS
10
127.952
20
-93.0464
11
127.957
21
-93.0514
0
LINE
8
BLACK
6
CONTINUOUS
10
127.957
20
-93.0514
11
127.959
21
-93.0577
0
LINE
8
BLACK
6
CONTINUOUS
10
127.959
20
-93.0577
11
127.962
21
-93.0635
0
LINE
8
BLACK
6
CONTINUOUS
10
127.962
20
-93.0635
11
127.963
21
-93.0701
0
LINE
8
BLACK
6
CONTINUOUS
10
127.963
20
-93.0701
11
127.966
21
-93.0763
0
LINE
8
BLACK
6
CONTINUOUS
10
127.966
20
-93.0763
11
127.966
21
-93.083
0
LINE
8
BLACK
6
CONTINUOUS
10
127.966
20
-93.083
11
127.967
21
-93.0896
0
LINE
8
BLACK
6
CONTINUOUS
10
127.967
20
-93.0896
11
127.967
21
-94.5674
0
LINE
8
BLACK
6
CONTINUOUS
10
127.967
20
-94.5674
11
127.966
21
-94.5715
0
LINE
8
BLACK
6
CONTINUOUS
10
127.966
20
-94.5715
11
127.966
21
-94.5757
0
LINE
8
BLACK
6
CONTINUOUS
10
127.966
20
-94.5757
11
127.964
21
-94.5844
0
LINE
8
BLACK
6
CONTINUOUS
10
127.964
20
-94.5844
11
127.962
21
-94.5934
0
LINE
8
BLACK
6
CONTINUOUS
10
127.962
20
-94.5934
11
127.96
21
-94.597
0
LINE
8
BLACK
6
CONTINUOUS
10
127.96
20
-94.597
11
127.959
21
-94.6011
0
LINE
8
BLACK
6
CONTINUOUS
10
127.959
20
-94.6011
11
127.954
21
-94.6084
0
LINE
8
BLACK
6
CONTINUOUS
10
127.954
20
-94.6084
11
127.949
21
-94.6163
0
LINE
8
BLACK
6
CONTINUOUS
10
127.949
20
-94.6163
11
127.946
21
-94.619
0
LINE
8
BLACK
6
CONTINUOUS
10
127.946
20
-94.619
11
127.943
21
-94.6224
0
LINE
8
BLACK
6
CONTINUOUS
10
127.943
20
-94.6224
11
127.936
21
-94.6275
0
LINE
8
BLACK
6
CONTINUOUS
10
127.936
20
-94.6275
11
127.929
21
-94.6333
0
LINE
8
BLACK
6
CONTINUOUS
10
127.929
20
-94.6333
11
127.925
21
-94.6348
0
LINE
8
BLACK
6
CONTINUOUS
10
127.925
20
-94.6348
11
127.921
21
-94.6371
0
LINE
8
BLACK
6
CONTINUOUS
10
127.921
20
-94.6371
11
127.912
21
-94.6393
0
LINE
8
BLACK
6
CONTINUOUS
10
127.912
20
-94.6393
11
127.904
21
-94.6424
0
LINE
8
BLACK
6
CONTINUOUS
10
127.904
20
-94.6424
11
127.9
21
-94.6424
0
LINE
8
BLACK
6
CONTINUOUS
10
127.9
20
-94.6424
11
127.896
21
-94.6434
0
LINE
8
BLACK
6
CONTINUOUS
10
127.896
20
-94.6434
11
127.886
21
-94.6424
0
LINE
8
BLACK
6
CONTINUOUS
10
127.886
20
-94.6424
11
127.877
21
-94.6424
0
LINE
8
BLACK
6
CONTINUOUS
10
127.877
20
-94.6424
11
127.873
21
-94.641
0
LINE
8
BLACK
6
CONTINUOUS
10
127.873
20
-94.641
11
127.869
21
-94.6405
0
LINE
8
BLACK
6
CONTINUOUS
10
127.869
20
-94.6405
11
127.861
21
-94.6365
0
LINE
8
BLACK
6
CONTINUOUS
10
127.861
20
-94.6365
11
127.853
21
-94.6333
0
LINE
8
BLACK
6
CONTINUOUS
10
127.853
20
-94.6333
11
127.849
21
-94.6307
0
LINE
8
BLACK
6
CONTINUOUS
10
127.849
20
-94.6307
11
127.846
21
-94.6288
0
LINE
8
BLACK
6
CONTINUOUS
10
127.846
20
-94.6288
11
127.839
21
-94.6222
0
LINE
8
BLACK
6
CONTINUOUS
10
127.839
20
-94.6222
11
127.832
21
-94.6163
0
LINE
8
BLACK
6
CONTINUOUS
10
127.832
20
-94.6163
11
127.83
21
-94.6127
0
LINE
8
BLACK
6
CONTINUOUS
10
127.83
20
-94.6127
11
127.827
21
-94.6097
0
LINE
8
BLACK
6
CONTINUOUS
10
127.827
20
-94.6097
11
127.805
21
-94.5767
0
LINE
8
BLACK
6
CONTINUOUS
10
127.805
20
-94.5767
11
127.805
21
-94.5767
0
LINE
8
BLACK
6
CONTINUOUS
10
127.805
20
-94.5767
11
127.777
21
-94.5342
0
LINE
8
BLACK
6
CONTINUOUS
10
127.777
20
-94.5342
11
127.76
21
-94.5232
0
LINE
8
BLACK
6
CONTINUOUS
10
127.76
20
-94.5232
11
127.753
21
-94.5157
0
LINE
8
BLACK
6
CONTINUOUS
10
127.753
20
-94.5157
11
127.744
21
-94.5088
0
LINE
8
BLACK
6
CONTINUOUS
10
127.744
20
-94.5088
11
127.743
21
-94.5066
0
LINE
8
BLACK
6
CONTINUOUS
10
127.743
20
-94.5066
11
127.741
21
-94.5049
0
LINE
8
BLACK
6
CONTINUOUS
10
127.741
20
-94.5049
11
127.736
21
-94.4952
0
LINE
8
BLACK
6
CONTINUOUS
10
127.736
20
-94.4952
11
127.731
21
-94.4859
0
LINE
8
BLACK
6
CONTINUOUS
10
127.731
20
-94.4859
11
127.731
21
-94.4834
0
LINE
8
BLACK
6
CONTINUOUS
10
127.731
20
-94.4834
11
127.729
21
-94.4811
0
LINE
8
BLACK
6
CONTINUOUS
10
127.729
20
-94.4811
11
127.728
21
-94.4704
0
LINE
8
BLACK
6
CONTINUOUS
10
127.728
20
-94.4704
11
127.726
21
-94.4598
0
LINE
8
BLACK
6
CONTINUOUS
10
127.726
20
-94.4598
11
127.726
21
-94.2163
0
LINE
8
BLACK
6
CONTINUOUS
10
127.726
20
-94.2163
11
127.727
21
-94.2147
0
LINE
8
BLACK
6
CONTINUOUS
10
127.727
20
-94.2147
11
127.727
21
-94.213
0
LINE
8
BLACK
6
CONTINUOUS
10
127.727
20
-94.213
11
127.729
21
-94.2017
0
LINE
8
BLACK
6
CONTINUOUS
10
127.729
20
-94.2017
11
127.731
21
-94.1903
0
LINE
8
BLACK
6
CONTINUOUS
10
127.731
20
-94.1903
11
127.732
21
-94.1888
0
LINE
8
BLACK
6
CONTINUOUS
10
127.732
20
-94.1888
11
127.732
21
-94.1872
0
LINE
8
BLACK
6
CONTINUOUS
10
127.732
20
-94.1872
11
127.79
21
-94.0479
0
LINE
8
BLACK
6
CONTINUOUS
10
127.79
20
-94.0479
11
127.79
21
-93.7902
0
LINE
8
BLACK
6
CONTINUOUS
10
127.79
20
-93.7902
11
127.691
21
-93.5521
0
LINE
8
BLACK
6
CONTINUOUS
10
127.691
20
-93.5521
11
127.509
21
-93.3699
0
LINE
8
BLACK
6
CONTINUOUS
10
127.509
20
-93.3699
11
127.271
21
-93.2713
0
LINE
8
BLACK
6
CONTINUOUS
10
127.271
20
-93.2713
11
127.013
21
-93.2713
0
LINE
8
BLACK
6
CONTINUOUS
10
127.013
20
-93.2713
11
126.775
21
-93.3699
0
LINE
8
BLACK
6
CONTINUOUS
10
126.775
20
-93.3699
11
126.593
21
-93.5521
0
LINE
8
BLACK
6
CONTINUOUS
10
126.593
20
-93.5521
11
126.495
21
-93.7902
0
LINE
8
BLACK
6
CONTINUOUS
10
126.495
20
-93.7902
11
126.495
21
-94.0479
0
LINE
8
BLACK
6
CONTINUOUS
10
126.495
20
-94.0479
11
126.552
21
-94.1872
0
LINE
8
BLACK
6
CONTINUOUS
10
126.552
20
-94.1872
11
126.553
21
-94.1888
0
LINE
8
BLACK
6
CONTINUOUS
10
126.553
20
-94.1888
11
126.553
21
-94.1903
0
LINE
8
BLACK
6
CONTINUOUS
10
126.553
20
-94.1903
11
126.555
21
-94.2017
0
LINE
8
BLACK
6
CONTINUOUS
10
126.555
20
-94.2017
11
126.558
21
-94.213
0
LINE
8
BLACK
6
CONTINUOUS
10
126.558
20
-94.213
11
126.558
21
-94.2147
0
LINE
8
BLACK
6
CONTINUOUS
10
126.558
20
-94.2147
11
126.558
21
-94.2163
0
LINE
8
BLACK
6
CONTINUOUS
10
126.558
20
-94.2163
11
126.558
21
-94.677
0
LINE
8
BLACK
6
CONTINUOUS
10
126.558
20
-94.677
11
126.557
21
-94.6843
0
LINE
8
BLACK
6
CONTINUOUS
10
126.557
20
-94.6843
11
126.557
21
-94.6918
0
LINE
8
BLACK
6
CONTINUOUS
10
126.557
20
-94.6918
11
126.548
21
-94.733
0
LINE
8
BLACK
6
CONTINUOUS
10
126.548
20
-94.733
11
126.544
21
-94.7446
0
LINE
8
BLACK
6
CONTINUOUS
10
126.544
20
-94.7446
11
126.54
21
-94.7563
0
LINE
8
BLACK
6
CONTINUOUS
10
126.54
20
-94.7563
11
126.539
21
-94.7569
0
LINE
8
BLACK
6
CONTINUOUS
10
126.539
20
-94.7569
11
126.539
21
-94.7577
0
LINE
8
BLACK
6
CONTINUOUS
10
126.539
20
-94.7577
11
126.531
21
-94.767
0
LINE
8
BLACK
6
CONTINUOUS
10
126.531
20
-94.767
11
126.523
21
-94.7765
0
LINE
8
BLACK
6
CONTINUOUS
10
126.523
20
-94.7765
11
126.522
21
-94.777
0
LINE
8
BLACK
6
CONTINUOUS
10
126.522
20
-94.777
11
126.521
21
-94.7776
0
LINE
8
BLACK
6
CONTINUOUS
10
126.521
20
-94.7776
11
126.51
21
-94.7835
0
LINE
8
BLACK
6
CONTINUOUS
10
126.51
20
-94.7835
11
126.5
21
-94.7898
0
LINE
8
BLACK
6
CONTINUOUS
10
126.5
20
-94.7898
11
126.499
21
-94.7899
0
LINE
8
BLACK
6
CONTINUOUS
10
126.499
20
-94.7899
11
126.498
21
-94.7903
0
LINE
8
BLACK
6
CONTINUOUS
10
126.498
20
-94.7903
11
126.486
21
-94.7922
0
LINE
8
BLACK
6
CONTINUOUS
10
126.486
20
-94.7922
11
126.474
21
-94.7944
0
LINE
8
BLACK
6
CONTINUOUS
10
126.474
20
-94.7944
11
126.014
21
-94.7944
0
LINE
8
BLACK
6
CONTINUOUS
10
126.014
20
-94.7944
11
125.554
21
-94.9851
0
LINE
8
BLACK
6
CONTINUOUS
10
125.554
20
-94.9851
11
125.201
21
-95.3377
0
LINE
8
BLACK
6
CONTINUOUS
10
125.201
20
-95.3377
11
125.01
21
-95.7983
0
LINE
8
BLACK
6
CONTINUOUS
10
125.01
20
-95.7983
11
125.01
21
-96.0679
0
LINE
8
BLACK
6
CONTINUOUS
10
125.01
20
-96.0679
11
125.009
21
-96.0744
0
LINE
8
BLACK
6
CONTINUOUS
10
125.009
20
-96.0744
11
125.009
21
-96.0811
0
LINE
8
BLACK
6
CONTINUOUS
10
125.009
20
-96.0811
11
125.007
21
-96.0874
0
LINE
8
BLACK
6
CONTINUOUS
10
125.007
20
-96.0874
11
125.006
21
-96.0939
0
LINE
8
BLACK
6
CONTINUOUS
10
125.006
20
-96.0939
11
125.002
21
-96.0997
0
LINE
8
BLACK
6
CONTINUOUS
10
125.002
20
-96.0997
11
125
21
-96.106
0
LINE
8
BLACK
6
CONTINUOUS
10
125
20
-96.106
11
124.996
21
-96.1111
0
LINE
8
BLACK
6
CONTINUOUS
10
124.996
20
-96.1111
11
124.992
21
-96.1169
0
LINE
8
BLACK
6
CONTINUOUS
10
124.992
20
-96.1169
11
124.987
21
-96.1211
0
LINE
8
BLACK
6
CONTINUOUS
10
124.987
20
-96.1211
11
124.983
21
-96.1263
0
LINE
8
BLACK
6
CONTINUOUS
10
124.983
20
-96.1263
11
124.977
21
-96.1296
0
LINE
8
BLACK
6
CONTINUOUS
10
124.977
20
-96.1296
11
124.972
21
-96.1339
0
LINE
8
BLACK
6
CONTINUOUS
10
124.972
20
-96.1339
11
124.966
21
-96.1362
0
LINE
8
BLACK
6
CONTINUOUS
10
124.966
20
-96.1362
11
124.96
21
-96.1395
0
LINE
8
BLACK
6
CONTINUOUS
10
124.96
20
-96.1395
11
124.953
21
-96.1406
0
LINE
8
BLACK
6
CONTINUOUS
10
124.953
20
-96.1406
11
124.947
21
-96.1429
0
LINE
8
BLACK
6
CONTINUOUS
10
124.947
20
-96.1429
11
124.941
21
-96.1429
0
LINE
8
BLACK
6
CONTINUOUS
10
124.941
20
-96.1429
11
124.934
21
-96.1441
0
LINE
8
BLACK
6
CONTINUOUS
10
124.934
20
-96.1441
11
123.508
21
-96.1441
0
LINE
8
BLACK
6
CONTINUOUS
10
123.508
20
-96.1441
11
123.338
21
-96.178
0
LINE
8
BLACK
6
CONTINUOUS
10
123.338
20
-96.178
11
123.145
21
-96.3071
0
LINE
8
BLACK
6
CONTINUOUS
10
123.145
20
-96.3071
11
123.016
21
-96.5003
0
LINE
8
BLACK
6
CONTINUOUS
10
123.016
20
-96.5003
11
122.97
21
-96.7283
0
LINE
8
BLACK
6
CONTINUOUS
10
122.97
20
-96.7283
11
123.016
21
-96.9562
0
LINE
8
BLACK
6
CONTINUOUS
10
123.016
20
-96.9562
11
123.016
21
-96.9564
0
LINE
8
BLACK
6
CONTINUOUS
10
123.016
20
-96.9564
11
123.017
21
-96.9587
0
LINE
8
BLACK
6
CONTINUOUS
10
123.017
20
-96.9587
11
123.018
21
-96.9607
0
LINE
8
BLACK
6
CONTINUOUS
10
123.018
20
-96.9607
11
123.022
21
-96.9708
0
LINE
8
BLACK
6
CONTINUOUS
10
123.022
20
-96.9708
11
123.026
21
-96.9806
0
LINE
8
BLACK
6
CONTINUOUS
10
123.026
20
-96.9806
11
123.027
21
-96.9832
0
LINE
8
BLACK
6
CONTINUOUS
10
123.027
20
-96.9832
11
123.027
21
-96.9855
0
LINE
8
BLACK
6
CONTINUOUS
10
123.027
20
-96.9855
11
123.027
21
-96.9963
0
LINE
8
BLACK
6
CONTINUOUS
10
123.027
20
-96.9963
11
123.028
21
-97.007
0
LINE
8
BLACK
6
CONTINUOUS
10
123.028
20
-97.007
11
123.027
21
-97.0095
0
LINE
8
BLACK
6
CONTINUOUS
10
123.027
20
-97.0095
11
123.027
21
-97.012
0
LINE
8
BLACK
6
CONTINUOUS
10
123.027
20
-97.012
11
123.024
21
-97.0221
0
LINE
8
BLACK
6
CONTINUOUS
10
123.024
20
-97.0221
11
123.021
21
-97.0325
0
LINE
8
BLACK
6
CONTINUOUS
10
123.021
20
-97.0325
11
123.019
21
-97.0345
0
LINE
8
BLACK
6
CONTINUOUS
10
123.019
20
-97.0345
11
123.018
21
-97.0369
0
LINE
8
BLACK
6
CONTINUOUS
10
123.018
20
-97.0369
11
123.011
21
-97.0451
0
LINE
8
BLACK
6
CONTINUOUS
10
123.011
20
-97.0451
11
123.005
21
-97.0538
0
LINE
8
BLACK
6
CONTINUOUS
10
123.005
20
-97.0538
11
123.003
21
-97.0552
0
LINE
8
BLACK
6
CONTINUOUS
10
123.003
20
-97.0552
11
123.001
21
-97.0571
0
LINE
8
BLACK
6
CONTINUOUS
10
123.001
20
-97.0571
11
122.992
21
-97.0625
0
LINE
8
BLACK
6
CONTINUOUS
10
122.992
20
-97.0625
11
122.983
21
-97.0685
0
LINE
8
BLACK
6
CONTINUOUS
10
122.983
20
-97.0685
11
122.981
21
-97.0691
0
LINE
8
BLACK
6
CONTINUOUS
10
122.981
20
-97.0691
11
122.978
21
-97.0704
0
LINE
8
BLACK
6
CONTINUOUS
10
122.978
20
-97.0704
11
122.968
21
-97.0722
0
LINE
8
BLACK
6
CONTINUOUS
10
122.968
20
-97.0722
11
122.957
21
-97.0748
0
LINE
8
BLACK
6
CONTINUOUS
10
122.957
20
-97.0748
11
122.955
21
-97.0745
0
LINE
8
BLACK
6
CONTINUOUS
10
122.955
20
-97.0745
11
122.952
21
-97.075
0
LINE
8
BLACK
6
CONTINUOUS
10
122.952
20
-97.075
11
111.3
21
-97.075
0
LINE
8
BLACK
6
CONTINUOUS
10
111.3
20
-97.075
11
111.293
21
-97.0738
0
LINE
8
BLACK
6
CONTINUOUS
10
111.293
20
-97.0738
11
111.286
21
-97.0738
0
LINE
8
BLACK
6
CONTINUOUS
10
111.286
20
-97.0738
11
111.28
21
-97.0715
0
LINE
8
BLACK
6
CONTINUOUS
10
111.28
20
-97.0715
11
111.274
21
-97.0704
0
LINE
8
BLACK
6
CONTINUOUS
10
111.274
20
-97.0704
11
111.268
21
-97.067
0
LINE
8
BLACK
6
CONTINUOUS
10
111.268
20
-97.067
11
111.262
21
-97.0647
0
LINE
8
BLACK
6
CONTINUOUS
10
111.262
20
-97.0647
11
111.256
21
-97.0605
0
LINE
8
BLACK
6
CONTINUOUS
10
111.256
20
-97.0605
11
111.251
21
-97.0571
0
LINE
8
BLACK
6
CONTINUOUS
10
111.251
20
-97.0571
11
111.246
21
-97.052
0
LINE
8
BLACK
6
CONTINUOUS
10
111.246
20
-97.052
11
111.241
21
-97.0477
0
LINE
8
BLACK
6
CONTINUOUS
10
111.241
20
-97.0477
11
111.238
21
-97.042
0
LINE
8
BLACK
6
CONTINUOUS
10
111.238
20
-97.042
11
111.234
21
-97.0369
0
LINE
8
BLACK
6
CONTINUOUS
10
111.234
20
-97.0369
11
111.231
21
-97.0306
0
LINE
8
BLACK
6
CONTINUOUS
10
111.231
20
-97.0306
11
111.228
21
-97.0248
0
LINE
8
BLACK
6
CONTINUOUS
10
111.228
20
-97.0248
11
111.227
21
-97.0182
0
LINE
8
BLACK
6
CONTINUOUS
10
111.227
20
-97.0182
11
111.225
21
-97.012
0
LINE
8
BLACK
6
CONTINUOUS
10
111.225
20
-97.012
11
111.225
21
-97.0053
0
LINE
8
BLACK
6
CONTINUOUS
10
111.225
20
-97.0053
11
111.223
21
-96.9988
0
LINE
8
BLACK
6
CONTINUOUS
10
111.223
20
-96.9988
11
111.223
21
-91.1421
0
LINE
8
BLACK
6
CONTINUOUS
10
111.223
20
-91.1421
11
111.225
21
-91.1357
0
LINE
8
BLACK
6
CONTINUOUS
10
113.953
20
-94.1038
11
113.603
21
-94.2489
0
LINE
8
BLACK
6
CONTINUOUS
10
113.603
20
-94.2489
11
113.334
21
-94.517
0
LINE
8
BLACK
6
CONTINUOUS
10
113.334
20
-94.517
11
113.189
21
-94.8674
0
LINE
8
BLACK
6
CONTINUOUS
10
113.189
20
-94.8674
11
113.189
21
-95.2466
0
LINE
8
BLACK
6
CONTINUOUS
10
113.189
20
-95.2466
11
113.334
21
-95.5969
0
LINE
8
BLACK
6
CONTINUOUS
10
113.334
20
-95.5969
11
113.603
21
-95.865
0
LINE
8
BLACK
6
CONTINUOUS
10
113.603
20
-95.865
11
113.953
21
-96.0102
0
LINE
8
BLACK
6
CONTINUOUS
10
113.953
20
-96.0102
11
114.332
21
-96.0102
0
LINE
8
BLACK
6
CONTINUOUS
10
114.332
20
-96.0102
11
114.682
21
-95.865
0
LINE
8
BLACK
6
CONTINUOUS
10
114.682
20
-95.865
11
114.951
21
-95.5969
0
LINE
8
BLACK
6
CONTINUOUS
10
114.951
20
-95.5969
11
115.096
21
-95.2466
0
LINE
8
BLACK
6
CONTINUOUS
10
115.096
20
-95.2466
11
115.096
21
-94.8674
0
LINE
8
BLACK
6
CONTINUOUS
10
115.096
20
-94.8674
11
114.951
21
-94.517
0
LINE
8
BLACK
6
CONTINUOUS
10
114.951
20
-94.517
11
114.682
21
-94.2489
0
LINE
8
BLACK
6
CONTINUOUS
10
114.682
20
-94.2489
11
114.332
21
-94.1038
0
LINE
8
BLACK
6
CONTINUOUS
10
114.332
20
-94.1038
11
113.953
21
-94.1038
0
LINE
8
BLACK
6
CONTINUOUS
10
112.193
20
-80.7161
11
112.113
21
-80.7695
0
LINE
8
BLACK
6
CONTINUOUS
10
112.113
20
-80.7695
11
112.052
21
-80.8616
0
LINE
8
BLACK
6
CONTINUOUS
10
112.052
20
-80.8616
11
112.03
21
-80.9701
0
LINE
8
BLACK
6
CONTINUOUS
10
112.03
20
-80.9701
11
112.034
21
-80.9902
0
LINE
8
BLACK
6
CONTINUOUS
10
112.034
20
-80.9902
11
112.034
21
-80.9976
0
LINE
8
BLACK
6
CONTINUOUS
10
112.034
20
-80.9976
11
112.036
21
-81.005
0
LINE
8
BLACK
6
CONTINUOUS
10
112.036
20
-81.005
11
112.036
21
-83.3228
0
LINE
8
BLACK
6
CONTINUOUS
10
112.036
20
-83.3228
11
112.034
21
-83.3302
0
LINE
8
BLACK
6
CONTINUOUS
10
112.034
20
-83.3302
11
112.034
21
-83.3377
0
LINE
8
BLACK
6
CONTINUOUS
10
112.034
20
-83.3377
11
112.03
21
-83.3577
0
LINE
8
BLACK
6
CONTINUOUS
10
112.03
20
-83.3577
11
112.052
21
-83.4663
0
LINE
8
BLACK
6
CONTINUOUS
10
112.052
20
-83.4663
11
112.113
21
-83.5583
0
LINE
8
BLACK
6
CONTINUOUS
10
112.113
20
-83.5583
11
112.205
21
-83.6198
0
LINE
8
BLACK
6
CONTINUOUS
10
112.205
20
-83.6198
11
112.294
21
-83.6374
0
LINE
8
BLACK
6
CONTINUOUS
10
112.294
20
-83.6374
11
112.314
21
-83.6414
0
LINE
8
BLACK
6
CONTINUOUS
10
112.314
20
-83.6414
11
112.334
21
-83.6374
0
LINE
8
BLACK
6
CONTINUOUS
10
112.334
20
-83.6374
11
112.341
21
-83.6372
0
LINE
8
BLACK
6
CONTINUOUS
10
112.341
20
-83.6372
11
112.349
21
-83.6359
0
LINE
8
BLACK
6
CONTINUOUS
10
112.349
20
-83.6359
11
115.936
21
-83.6359
0
LINE
8
BLACK
6
CONTINUOUS
10
115.936
20
-83.6359
11
115.943
21
-83.6372
0
LINE
8
BLACK
6
CONTINUOUS
10
115.943
20
-83.6372
11
115.951
21
-83.6374
0
LINE
8
BLACK
6
CONTINUOUS
10
115.951
20
-83.6374
11
115.971
21
-83.6414
0
LINE
8
BLACK
6
CONTINUOUS
10
115.971
20
-83.6414
11
115.991
21
-83.6374
0
LINE
8
BLACK
6
CONTINUOUS
10
115.991
20
-83.6374
11
115.992
21
-83.6373
0
LINE
8
BLACK
6
CONTINUOUS
10
115.992
20
-83.6373
11
116.025
21
-83.6306
0
LINE
8
BLACK
6
CONTINUOUS
10
116.025
20
-83.6306
11
116.025
21
-83.6306
0
LINE
8
BLACK
6
CONTINUOUS
10
116.025
20
-83.6306
11
116.025
21
-83.6306
0
LINE
8
BLACK
6
CONTINUOUS
10
116.025
20
-83.6306
11
116.08
21
-83.62
0
LINE
8
BLACK
6
CONTINUOUS
10
116.08
20
-83.62
11
116.126
21
-83.5891
0
LINE
8
BLACK
6
CONTINUOUS
10
116.126
20
-83.5891
11
116.126
21
-83.5891
0
LINE
8
BLACK
6
CONTINUOUS
10
116.126
20
-83.5891
11
116.126
21
-83.589
0
LINE
8
BLACK
6
CONTINUOUS
10
116.126
20
-83.589
11
116.172
21
-83.5585
0
LINE
8
BLACK
6
CONTINUOUS
10
116.172
20
-83.5585
11
116.203
21
-83.5124
0
LINE
8
BLACK
6
CONTINUOUS
10
116.203
20
-83.5124
11
116.203
21
-83.5123
0
LINE
8
BLACK
6
CONTINUOUS
10
116.203
20
-83.5123
11
116.203
21
-83.5122
0
LINE
8
BLACK
6
CONTINUOUS
10
116.203
20
-83.5122
11
116.233
21
-83.4666
0
LINE
8
BLACK
6
CONTINUOUS
10
116.233
20
-83.4666
11
116.244
21
-83.412
0
LINE
8
BLACK
6
CONTINUOUS
10
116.244
20
-83.412
11
116.244
21
-83.4119
0
LINE
8
BLACK
6
CONTINUOUS
10
116.244
20
-83.4119
11
116.244
21
-83.4118
0
LINE
8
BLACK
6
CONTINUOUS
10
116.244
20
-83.4118
11
116.251
21
-83.3786
0
LINE
8
BLACK
6
CONTINUOUS
10
116.251
20
-83.3786
11
116.251
21
-83.3781
0
LINE
8
BLACK
6
CONTINUOUS
10
116.251
20
-83.3781
11
116.255
21
-83.3577
0
LINE
8
BLACK
6
CONTINUOUS
10
116.255
20
-83.3577
11
116.251
21
-83.3381
0
LINE
8
BLACK
6
CONTINUOUS
10
116.251
20
-83.3381
11
116.251
21
-83.3305
0
LINE
8
BLACK
6
CONTINUOUS
10
116.251
20
-83.3305
11
116.25
21
-83.323
0
LINE
8
BLACK
6
CONTINUOUS
10
116.25
20
-83.323
11
116.255
21
-81.0052
0
LINE
8
BLACK
6
CONTINUOUS
10
116.255
20
-81.0052
11
116.256
21
-80.9979
0
LINE
8
BLACK
6
CONTINUOUS
10
116.256
20
-80.9979
11
116.256
21
-80.9905
0
LINE
8
BLACK
6
CONTINUOUS
10
116.256
20
-80.9905
11
116.26
21
-80.9701
0
LINE
8
BLACK
6
CONTINUOUS
10
116.26
20
-80.9701
11
116.238
21
-80.8616
0
LINE
8
BLACK
6
CONTINUOUS
10
116.238
20
-80.8616
11
116.177
21
-80.7695
0
LINE
8
BLACK
6
CONTINUOUS
10
116.177
20
-80.7695
11
116.097
21
-80.7161
0
LINE
8
BLACK
6
CONTINUOUS
10
116.097
20
-80.7161
11
112.193
21
-80.7161
0
LINE
8
BLACK
6
CONTINUOUS
10
112.465
20
-77.407
11
112.439
21
-77.4322
0
LINE
8
BLACK
6
CONTINUOUS
10
112.439
20
-77.4322
11
112.439
21
-77.6485
0
LINE
8
BLACK
6
CONTINUOUS
10
112.439
20
-77.6485
11
112.444
21
-77.6604
0
LINE
8
BLACK
6
CONTINUOUS
10
112.444
20
-77.6604
11
112.445
21
-77.6637
0
LINE
8
BLACK
6
CONTINUOUS
10
112.445
20
-77.6637
11
112.447
21
-77.6667
0
LINE
8
BLACK
6
CONTINUOUS
10
112.447
20
-77.6667
11
112.448
21
-77.6765
0
LINE
8
BLACK
6
CONTINUOUS
10
112.448
20
-77.6765
11
112.45
21
-77.6863
0
LINE
8
BLACK
6
CONTINUOUS
10
112.45
20
-77.6863
11
112.45
21
-77.6896
0
LINE
8
BLACK
6
CONTINUOUS
10
112.45
20
-77.6896
11
112.45
21
-77.6929
0
LINE
8
BLACK
6
CONTINUOUS
10
112.45
20
-77.6929
11
112.448
21
-77.7026
0
LINE
8
BLACK
6
CONTINUOUS
10
112.448
20
-77.7026
11
112.447
21
-77.7125
0
LINE
8
BLACK
6
CONTINUOUS
10
112.447
20
-77.7125
11
112.445
21
-77.7155
0
LINE
8
BLACK
6
CONTINUOUS
10
112.445
20
-77.7155
11
112.444
21
-77.7187
0
LINE
8
BLACK
6
CONTINUOUS
10
112.444
20
-77.7187
11
112.439
21
-77.7307
0
LINE
8
BLACK
6
CONTINUOUS
10
112.439
20
-77.7307
11
112.439
21
-77.792
0
LINE
8
BLACK
6
CONTINUOUS
10
112.439
20
-77.792
11
112.465
21
-77.8172
0
LINE
8
BLACK
6
CONTINUOUS
10
112.465
20
-77.8172
11
112.643
21
-77.8172
0
LINE
8
BLACK
6
CONTINUOUS
10
112.643
20
-77.8172
11
112.643
21
-77.7711
0
LINE
8
BLACK
6
CONTINUOUS
10
112.643
20
-77.7711
11
112.814
21
-77.7711
0
LINE
8
BLACK
6
CONTINUOUS
10
112.814
20
-77.7711
11
112.814
21
-77.6081
0
LINE
8
BLACK
6
CONTINUOUS
10
112.814
20
-77.6081
11
112.643
21
-77.6081
0
LINE
8
BLACK
6
CONTINUOUS
10
112.643
20
-77.6081
11
112.643
21
-77.407
0
LINE
8
BLACK
6
CONTINUOUS
10
112.643
20
-77.407
11
112.465
21
-77.407
0
LINE
8
BLACK
6
CONTINUOUS
10
114.403
20
-94.3413
11
114.632
21
-94.4736
0
LINE
8
BLACK
6
CONTINUOUS
10
114.632
20
-94.4736
11
114.802
21
-94.6762
0
LINE
8
BLACK
6
CONTINUOUS
10
114.802
20
-94.6762
11
114.893
21
-94.9247
0
LINE
8
BLACK
6
CONTINUOUS
10
114.893
20
-94.9247
11
114.893
21
-95.1892
0
LINE
8
BLACK
6
CONTINUOUS
10
114.893
20
-95.1892
11
114.802
21
-95.4377
0
LINE
8
BLACK
6
CONTINUOUS
10
114.802
20
-95.4377
11
114.632
21
-95.6404
0
LINE
8
BLACK
6
CONTINUOUS
10
114.632
20
-95.6404
11
114.403
21
-95.7726
0
LINE
8
BLACK
6
CONTINUOUS
10
114.403
20
-95.7726
11
114.143
21
-95.8185
0
LINE
8
BLACK
6
CONTINUOUS
10
114.143
20
-95.8185
11
113.882
21
-95.7726
0
LINE
8
BLACK
6
CONTINUOUS
10
113.882
20
-95.7726
11
113.653
21
-95.6404
0
LINE
8
BLACK
6
CONTINUOUS
10
113.653
20
-95.6404
11
113.483
21
-95.4377
0
LINE
8
BLACK
6
CONTINUOUS
10
113.483
20
-95.4377
11
113.393
21
-95.1892
0
LINE
8
BLACK
6
CONTINUOUS
10
113.393
20
-95.1892
11
113.393
21
-94.9247
0
LINE
8
BLACK
6
CONTINUOUS
10
113.393
20
-94.9247
11
113.483
21
-94.6762
0
LINE
8
BLACK
6
CONTINUOUS
10
113.483
20
-94.6762
11
113.653
21
-94.4736
0
LINE
8
BLACK
6
CONTINUOUS
10
113.653
20
-94.4736
11
113.882
21
-94.3413
0
LINE
8
BLACK
6
CONTINUOUS
10
113.882
20
-94.3413
11
114.143
21
-94.2954
0
LINE
8
BLACK
6
CONTINUOUS
10
114.143
20
-94.2954
11
114.403
21
-94.3413
0
LINE
8
BLACK
6
CONTINUOUS
10
124.461
20
-93.3202
11
124.69
21
-93.4525
0
LINE
8
BLACK
6
CONTINUOUS
10
124.69
20
-93.4525
11
124.86
21
-93.6551
0
LINE
8
BLACK
6
CONTINUOUS
10
124.86
20
-93.6551
11
124.951
21
-93.9036
0
LINE
8
BLACK
6
CONTINUOUS
10
124.951
20
-93.9036
11
124.951
21
-94.1681
0
LINE
8
BLACK
6
CONTINUOUS
10
124.951
20
-94.1681
11
124.86
21
-94.4167
0
LINE
8
BLACK
6
CONTINUOUS
10
124.86
20
-94.4167
11
124.69
21
-94.6193
0
LINE
8
BLACK
6
CONTINUOUS
10
124.69
20
-94.6193
11
124.461
21
-94.7515
0
LINE
8
BLACK
6
CONTINUOUS
10
124.461
20
-94.7515
11
124.201
21
-94.7974
0
LINE
8
BLACK
6
CONTINUOUS
10
124.201
20
-94.7974
11
123.94
21
-94.7515
0
LINE
8
BLACK
6
CONTINUOUS
10
123.94
20
-94.7515
11
123.711
21
-94.6193
0
LINE
8
BLACK
6
CONTINUOUS
10
123.711
20
-94.6193
11
123.541
21
-94.4167
0
LINE
8
BLACK
6
CONTINUOUS
10
123.541
20
-94.4167
11
123.451
21
-94.1681
0
LINE
8
BLACK
6
CONTINUOUS
10
123.451
20
-94.1681
11
123.451
21
-93.9036
0
LINE
8
BLACK
6
CONTINUOUS
10
123.451
20
-93.9036
11
123.541
21
-93.6551
0
LINE
8
BLACK
6
CONTINUOUS
10
123.541
20
-93.6551
11
123.711
21
-93.4525
0
LINE
8
BLACK
6
CONTINUOUS
10
123.711
20
-93.4525
11
123.94
21
-93.3202
0
LINE
8
BLACK
6
CONTINUOUS
10
123.94
20
-93.3202
11
124.201
21
-93.2743
0
LINE
8
BLACK
6
CONTINUOUS
10
124.201
20
-93.2743
11
124.461
21
-93.3202
0
LINE
8
BLACK
6
CONTINUOUS
10
113.103
20
-79.8881
11
112.773
21
-79.8881
0
LINE
8
BLACK
6
CONTINUOUS
10
112.773
20
-79.8881
11
112.773
21
-79.4081
0
LINE
8
BLACK
6
CONTINUOUS
10
112.773
20
-79.4081
11
113.103
21
-79.4081
0
LINE
8
BLACK
6
CONTINUOUS
10
113.103
20
-79.4081
11
113.103
21
-79.8881
0
LINE
8
BLACK
6
CONTINUOUS
10
115.533
20
-79.8881
11
115.203
21
-79.8881
0
LINE
8
BLACK
6
CONTINUOUS
10
115.203
20
-79.8881
11
115.203
21
-79.4081
0
LINE
8
BLACK
6
CONTINUOUS
10
115.203
20
-79.4081
11
115.533
21
-79.4081
0
LINE
8
BLACK
6
CONTINUOUS
10
115.533
20
-79.4081
11
115.533
21
-79.8881
0
LINE
8
BLACK
6
CONTINUOUS
10
116.104
20
-77.9258
11
116.065
21
-77.8206
0
LINE
8
BLACK
6
CONTINUOUS
10
116.065
20
-77.8206
11
116.065
21
-77.7087
0
LINE
8
BLACK
6
CONTINUOUS
10
116.065
20
-77.7087
11
116.104
21
-77.6034
0
LINE
8
BLACK
6
CONTINUOUS
10
116.104
20
-77.6034
11
116.149
21
-77.5492
0
LINE
8
BLACK
6
CONTINUOUS
10
116.149
20
-77.5492
11
116.149
21
-77.1486
0
LINE
8
BLACK
6
CONTINUOUS
10
116.149
20
-77.1486
11
116.104
21
-77.0944
0
LINE
8
BLACK
6
CONTINUOUS
10
116.104
20
-77.0944
11
116.065
21
-76.9891
0
LINE
8
BLACK
6
CONTINUOUS
10
116.065
20
-76.9891
11
116.065
21
-76.8772
0
LINE
8
BLACK
6
CONTINUOUS
10
116.065
20
-76.8772
11
116.104
21
-76.772
0
LINE
8
BLACK
6
CONTINUOUS
10
116.104
20
-76.772
11
116.176
21
-76.6862
0
LINE
8
BLACK
6
CONTINUOUS
10
116.176
20
-76.6862
11
116.273
21
-76.6302
0
LINE
8
BLACK
6
CONTINUOUS
10
116.273
20
-76.6302
11
116.383
21
-76.6108
0
LINE
8
BLACK
6
CONTINUOUS
10
116.383
20
-76.6108
11
116.493
21
-76.6302
0
LINE
8
BLACK
6
CONTINUOUS
10
116.493
20
-76.6302
11
116.59
21
-76.6862
0
LINE
8
BLACK
6
CONTINUOUS
10
116.59
20
-76.6862
11
116.662
21
-76.772
0
LINE
8
BLACK
6
CONTINUOUS
10
116.662
20
-76.772
11
116.7
21
-76.8772
0
LINE
8
BLACK
6
CONTINUOUS
10
116.7
20
-76.8772
11
116.7
21
-76.8914
0
LINE
8
BLACK
6
CONTINUOUS
10
116.7
20
-76.8914
11
116.758
21
-76.9489
0
LINE
8
BLACK
6
CONTINUOUS
10
116.758
20
-76.9489
11
116.784
21
-76.9706
0
LINE
8
BLACK
6
CONTINUOUS
10
116.784
20
-76.9706
11
116.8
21
-76.9997
0
LINE
8
BLACK
6
CONTINUOUS
10
116.8
20
-76.9997
11
116.82
21
-77.0274
0
LINE
8
BLACK
6
CONTINUOUS
10
116.82
20
-77.0274
11
116.823
21
-77.0383
0
LINE
8
BLACK
6
CONTINUOUS
10
116.823
20
-77.0383
11
116.828
21
-77.0481
0
LINE
8
BLACK
6
CONTINUOUS
10
116.828
20
-77.0481
11
116.834
21
-77.0813
0
LINE
8
BLACK
6
CONTINUOUS
10
116.834
20
-77.0813
11
116.843
21
-77.1139
0
LINE
8
BLACK
6
CONTINUOUS
10
116.843
20
-77.1139
11
116.84
21
-77.1474
0
LINE
8
BLACK
6
CONTINUOUS
10
116.84
20
-77.1474
11
116.84
21
-79.3412
0
LINE
8
BLACK
6
CONTINUOUS
10
116.84
20
-79.3412
11
116.865
21
-79.3713
0
LINE
8
BLACK
6
CONTINUOUS
10
116.865
20
-79.3713
11
116.903
21
-79.4765
0
LINE
8
BLACK
6
CONTINUOUS
10
116.903
20
-79.4765
11
116.903
21
-79.5885
0
LINE
8
BLACK
6
CONTINUOUS
10
116.903
20
-79.5885
11
116.865
21
-79.6937
0
LINE
8
BLACK
6
CONTINUOUS
10
116.865
20
-79.6937
11
116.793
21
-79.7795
0
LINE
8
BLACK
6
CONTINUOUS
10
116.793
20
-79.7795
11
116.696
21
-79.8354
0
LINE
8
BLACK
6
CONTINUOUS
10
116.696
20
-79.8354
11
116.586
21
-79.8549
0
LINE
8
BLACK
6
CONTINUOUS
10
116.586
20
-79.8549
11
116.476
21
-79.8354
0
LINE
8
BLACK
6
CONTINUOUS
10
116.476
20
-79.8354
11
116.379
21
-79.7795
0
LINE
8
BLACK
6
CONTINUOUS
10
116.379
20
-79.7795
11
116.307
21
-79.6937
0
LINE
8
BLACK
6
CONTINUOUS
10
116.307
20
-79.6937
11
116.268
21
-79.5885
0
LINE
8
BLACK
6
CONTINUOUS
10
116.268
20
-79.5885
11
116.268
21
-79.4765
0
LINE
8
BLACK
6
CONTINUOUS
10
116.268
20
-79.4765
11
116.307
21
-79.3713
0
LINE
8
BLACK
6
CONTINUOUS
10
116.307
20
-79.3713
11
116.311
21
-79.3657
0
LINE
8
BLACK
6
CONTINUOUS
10
116.311
20
-79.3657
11
116.283
21
-79.3371
0
LINE
8
BLACK
6
CONTINUOUS
10
116.283
20
-79.3371
11
116.283
21
-79.3371
0
LINE
8
BLACK
6
CONTINUOUS
10
116.283
20
-79.3371
11
116.182
21
-79.2364
0
LINE
8
BLACK
6
CONTINUOUS
10
116.182
20
-79.2364
11
116.143
21
-79.233
0
LINE
8
BLACK
6
CONTINUOUS
10
116.143
20
-79.233
11
116.136
21
-79.2297
0
LINE
8
BLACK
6
CONTINUOUS
10
116.136
20
-79.2297
11
116.113
21
-79.2277
0
LINE
8
BLACK
6
CONTINUOUS
10
116.113
20
-79.2277
11
116.099
21
-79.2277
0
LINE
8
BLACK
6
CONTINUOUS
10
116.099
20
-79.2277
11
116.074
21
-79.2299
0
LINE
8
BLACK
6
CONTINUOUS
10
116.074
20
-79.2299
11
116.049
21
-79.2233
0
LINE
8
BLACK
6
CONTINUOUS
10
116.049
20
-79.2233
11
116.025
21
-79.219
0
LINE
8
BLACK
6
CONTINUOUS
10
116.025
20
-79.219
11
116.017
21
-79.2147
0
LINE
8
BLACK
6
CONTINUOUS
10
116.017
20
-79.2147
11
116.009
21
-79.2125
0
LINE
8
BLACK
6
CONTINUOUS
10
116.009
20
-79.2125
11
115.988
21
-79.198
0
LINE
8
BLACK
6
CONTINUOUS
10
115.988
20
-79.198
11
115.966
21
-79.1854
0
LINE
8
BLACK
6
CONTINUOUS
10
115.966
20
-79.1854
11
115.95
21
-79.166
0
LINE
8
BLACK
6
CONTINUOUS
10
115.95
20
-79.166
11
115.855
21
-79.0712
0
LINE
8
BLACK
6
CONTINUOUS
10
115.855
20
-79.0712
11
115.826
21
-79.03
0
LINE
8
BLACK
6
CONTINUOUS
10
115.826
20
-79.03
11
115.809
21
-78.9651
0
LINE
8
BLACK
6
CONTINUOUS
10
115.809
20
-78.9651
11
115.815
21
-78.8982
0
LINE
8
BLACK
6
CONTINUOUS
10
115.815
20
-78.8982
11
115.826
21
-78.8753
0
LINE
8
BLACK
6
CONTINUOUS
10
115.826
20
-78.8753
11
115.825
21
-78.8743
0
LINE
8
BLACK
6
CONTINUOUS
10
115.825
20
-78.8743
11
115.824
21
-78.871
0
LINE
8
BLACK
6
CONTINUOUS
10
115.824
20
-78.871
11
115.822
21
-78.8681
0
LINE
8
BLACK
6
CONTINUOUS
10
115.822
20
-78.8681
11
115.821
21
-78.8619
0
LINE
8
BLACK
6
CONTINUOUS
10
115.821
20
-78.8619
11
115.663
21
-78.8619
0
LINE
8
BLACK
6
CONTINUOUS
10
115.663
20
-78.8619
11
115.663
21
-79.2081
0
LINE
8
BLACK
6
CONTINUOUS
10
115.663
20
-79.2081
11
115.143
21
-79.2081
0
LINE
8
BLACK
6
CONTINUOUS
10
115.143
20
-79.2081
11
115.143
21
-78.6281
0
LINE
8
BLACK
6
CONTINUOUS
10
115.143
20
-78.6281
11
115.663
21
-78.6281
0
LINE
8
BLACK
6
CONTINUOUS
10
115.663
20
-78.6281
11
115.663
21
-78.7095
0
LINE
8
BLACK
6
CONTINUOUS
10
115.663
20
-78.7095
11
115.799
21
-78.7095
0
LINE
8
BLACK
6
CONTINUOUS
10
115.799
20
-78.7095
11
115.799
21
-78.6861
0
LINE
8
BLACK
6
CONTINUOUS
10
115.799
20
-78.6861
11
115.822
21
-78.623
0
LINE
8
BLACK
6
CONTINUOUS
10
115.822
20
-78.623
11
115.865
21
-78.5715
0
LINE
8
BLACK
6
CONTINUOUS
10
115.865
20
-78.5715
11
115.924
21
-78.5379
0
LINE
8
BLACK
6
CONTINUOUS
10
115.924
20
-78.5379
11
115.973
21
-78.5292
0
LINE
8
BLACK
6
CONTINUOUS
10
115.973
20
-78.5292
11
116.14
21
-78.5292
0
LINE
8
BLACK
6
CONTINUOUS
10
116.14
20
-78.5292
11
116.09
21
-78.4784
0
LINE
8
BLACK
6
CONTINUOUS
10
116.09
20
-78.4784
11
115.472
21
-78.4784
0
LINE
8
BLACK
6
CONTINUOUS
10
115.472
20
-78.4784
11
115.472
21
-78.4784
0
LINE
8
BLACK
6
CONTINUOUS
10
115.472
20
-78.4784
11
115.465
21
-78.4784
0
LINE
8
BLACK
6
CONTINUOUS
10
115.465
20
-78.4784
11
115.459
21
-78.4761
0
LINE
8
BLACK
6
CONTINUOUS
10
115.459
20
-78.4761
11
115.452
21
-78.4749
0
LINE
8
BLACK
6
CONTINUOUS
10
115.452
20
-78.4749
11
115.446
21
-78.4715
0
LINE
8
BLACK
6
CONTINUOUS
10
115.446
20
-78.4715
11
115.44
21
-78.4692
0
LINE
8
BLACK
6
CONTINUOUS
10
115.44
20
-78.4692
11
115.435
21
-78.4651
0
LINE
8
BLACK
6
CONTINUOUS
10
115.435
20
-78.4651
11
115.143
21
-78.4651
0
LINE
8
BLACK
6
CONTINUOUS
10
115.143
20
-78.4651
11
115.143
21
-78.1951
0
LINE
8
BLACK
6
CONTINUOUS
10
115.143
20
-78.1951
11
115.663
21
-78.1951
0
LINE
8
BLACK
6
CONTINUOUS
10
115.663
20
-78.1951
11
115.663
21
-78.326
0
LINE
8
BLACK
6
CONTINUOUS
10
115.663
20
-78.326
11
116.118
21
-78.326
0
LINE
8
BLACK
6
CONTINUOUS
10
116.118
20
-78.326
11
116.128
21
-78.3251
0
LINE
8
BLACK
6
CONTINUOUS
10
116.128
20
-78.3251
11
116.138
21
-78.3277
0
LINE
8
BLACK
6
CONTINUOUS
10
116.138
20
-78.3277
11
116.148
21
-78.3295
0
LINE
8
BLACK
6
CONTINUOUS
10
116.148
20
-78.3295
11
116.149
21
-78.3303
0
LINE
8
BLACK
6
CONTINUOUS
10
116.149
20
-78.3303
11
116.149
21
-77.9801
0
LINE
8
BLACK
6
CONTINUOUS
10
116.149
20
-77.9801
11
116.104
21
-77.9258
0
LINE
8
BLACK
6
CONTINUOUS
10
113.163
20
-79.2081
11
112.643
21
-79.2081
0
LINE
8
BLACK
6
CONTINUOUS
10
112.643
20
-79.2081
11
112.643
21
-78.6281
0
LINE
8
BLACK
6
CONTINUOUS
10
112.643
20
-78.6281
11
113.163
21
-78.6281
0
LINE
8
BLACK
6
CONTINUOUS
10
113.163
20
-78.6281
11
113.163
21
-79.2081
0
LINE
8
BLACK
6
CONTINUOUS
10
113.163
20
-78.4651
11
112.643
21
-78.4651
0
LINE
8
BLACK
6
CONTINUOUS
10
112.643
20
-78.4651
11
112.643
21
-78.1951
0
LINE
8
BLACK
6
CONTINUOUS
10
112.643
20
-78.1951
11
113.163
21
-78.1951
0
LINE
8
BLACK
6
CONTINUOUS
10
113.163
20
-78.1951
11
113.163
21
-78.4651
0
LINE
8
BLACK
6
CONTINUOUS
10
115.663
20
-78.0411
11
115.143
21
-78.0411
0
LINE
8
BLACK
6
CONTINUOUS
10
115.143
20
-78.0411
11
115.143
21
-77.7711
0
LINE
8
BLACK
6
CONTINUOUS
10
115.143
20
-77.7711
11
115.663
21
-77.7711
0
LINE
8
BLACK
6
CONTINUOUS
10
115.663
20
-77.7711
11
115.663
21
-78.0411
0
LINE
8
BLACK
6
CONTINUOUS
10
115.663
20
-77.6081
11
115.143
21
-77.6081
0
LINE
8
BLACK
6
CONTINUOUS
10
115.143
20
-77.6081
11
115.143
21
-77.0281
0
LINE
8
BLACK
6
CONTINUOUS
10
115.143
20
-77.0281
11
115.663
21
-77.0281
0
LINE
8
BLACK
6
CONTINUOUS
10
115.663
20
-77.0281
11
115.663
21
-77.6081
0
LINE
8
BLACK
6
CONTINUOUS
10
113.103
20
-76.8281
11
112.773
21
-76.8281
0
LINE
8
BLACK
6
CONTINUOUS
10
112.773
20
-76.8281
11
112.773
21
-76.3481
0
LINE
8
BLACK
6
CONTINUOUS
10
112.773
20
-76.3481
11
113.103
21
-76.3481
0
LINE
8
BLACK
6
CONTINUOUS
10
113.103
20
-76.3481
11
113.103
21
-76.8281
0
LINE
8
BLACK
6
CONTINUOUS
10
115.533
20
-76.8281
11
115.203
21
-76.8281
0
LINE
8
BLACK
6
CONTINUOUS
10
115.203
20
-76.8281
11
115.203
21
-76.3481
0
LINE
8
BLACK
6
CONTINUOUS
10
115.203
20
-76.3481
11
115.533
21
-76.3481
0
LINE
8
BLACK
6
CONTINUOUS
10
115.533
20
-76.3481
11
115.533
21
-76.8281
0
CIRCLE
8
BLACK
10
127.142
20
-93.919
40
0.2286
0
CIRCLE
8
BLACK
10
116.383
20
-76.9332
40
0.1524
0
CIRCLE
8
BLACK
10
116.383
20
-77.7646
40
0.1524
0
CIRCLE
8
BLACK
10
116.439
20
-78.7197
40
0.1524
0
CIRCLE
8
BLACK
10
116.586
20
-79.5325
40
0.1524
0
CIRCLE
8
BLACK
10
123.566
20
-96.7283
40
0.1524
  0
ENDSEC
  0
EOF
