G04 #@! TF.GenerationSoftware,KiCad,Pcbnew,(5.0.1)-4*
G04 #@! TF.CreationDate,2018-12-04T20:19:32-05:00*
G04 #@! TF.ProjectId,PowConnV1,506F77436F6E6E56312E6B696361645F,V1*
G04 #@! TF.SameCoordinates,Original*
G04 #@! TF.FileFunction,Soldermask,Top*
G04 #@! TF.FilePolarity,Negative*
%FSLAX46Y46*%
G04 Gerber Fmt 4.6, Leading zero omitted, Abs format (unit mm)*
G04 Created by KiCad (PCBNEW (5.0.1)-4) date 12/4/2018 8:19:32 PM*
%MOMM*%
%LPD*%
G01*
G04 APERTURE LIST*
%ADD10C,0.150000*%
G04 APERTURE END LIST*
D10*
G36*
X114361288Y-94335782D02*
X114497776Y-94392317D01*
X114620618Y-94474398D01*
X114725082Y-94578862D01*
X114807163Y-94701704D01*
X114863698Y-94838192D01*
X114892520Y-94983091D01*
X114892520Y-95130829D01*
X114863698Y-95275728D01*
X114807163Y-95412216D01*
X114725082Y-95535058D01*
X114620618Y-95639522D01*
X114497776Y-95721603D01*
X114361288Y-95778138D01*
X114216389Y-95806960D01*
X114068651Y-95806960D01*
X113923752Y-95778138D01*
X113787264Y-95721603D01*
X113664422Y-95639522D01*
X113559958Y-95535058D01*
X113477877Y-95412216D01*
X113421342Y-95275728D01*
X113392520Y-95130829D01*
X113392520Y-94983091D01*
X113421342Y-94838192D01*
X113477877Y-94701704D01*
X113559958Y-94578862D01*
X113664422Y-94474398D01*
X113787264Y-94392317D01*
X113923752Y-94335782D01*
X114068651Y-94306960D01*
X114216389Y-94306960D01*
X114361288Y-94335782D01*
X114361288Y-94335782D01*
G37*
G36*
X124419688Y-93314702D02*
X124556176Y-93371237D01*
X124679018Y-93453318D01*
X124783482Y-93557782D01*
X124865563Y-93680624D01*
X124922098Y-93817112D01*
X124950920Y-93962011D01*
X124950920Y-94109749D01*
X124922098Y-94254648D01*
X124865563Y-94391136D01*
X124783482Y-94513978D01*
X124679018Y-94618442D01*
X124556176Y-94700523D01*
X124419688Y-94757058D01*
X124274789Y-94785880D01*
X124127051Y-94785880D01*
X123982152Y-94757058D01*
X123845664Y-94700523D01*
X123722822Y-94618442D01*
X123618358Y-94513978D01*
X123536277Y-94391136D01*
X123479742Y-94254648D01*
X123450920Y-94109749D01*
X123450920Y-93962011D01*
X123479742Y-93817112D01*
X123536277Y-93680624D01*
X123618358Y-93557782D01*
X123722822Y-93453318D01*
X123845664Y-93371237D01*
X123982152Y-93314702D01*
X124127051Y-93285880D01*
X124274789Y-93285880D01*
X124419688Y-93314702D01*
X124419688Y-93314702D01*
G37*
M02*
