G04 #@! TF.GenerationSoftware,KiCad,Pcbnew,(5.0.1)-4*
G04 #@! TF.CreationDate,2018-12-04T20:19:32-05:00*
G04 #@! TF.ProjectId,PowConnV1,506F77436F6E6E56312E6B696361645F,V1*
G04 #@! TF.SameCoordinates,Original*
G04 #@! TF.FileFunction,Legend,Bot*
G04 #@! TF.FilePolarity,Positive*
%FSLAX46Y46*%
G04 Gerber Fmt 4.6, Leading zero omitted, Abs format (unit mm)*
G04 Created by KiCad (PCBNEW (5.0.1)-4) date 12/4/2018 8:19:32 PM*
%MOMM*%
%LPD*%
G01*
G04 APERTURE LIST*
%ADD10C,0.127000*%
%ADD11C,0.200000*%
%ADD12C,0.250000*%
%ADD13C,0.075000*%
%ADD14C,0.031750*%
G04 APERTURE END LIST*
D10*
X116339619Y-84410489D02*
X116339619Y-83902489D01*
X116146096Y-83902489D01*
X116097715Y-83926680D01*
X116073524Y-83950870D01*
X116049334Y-83999251D01*
X116049334Y-84071822D01*
X116073524Y-84120203D01*
X116097715Y-84144394D01*
X116146096Y-84168584D01*
X116339619Y-84168584D01*
X115759048Y-84410489D02*
X115807429Y-84386299D01*
X115831619Y-84362108D01*
X115855810Y-84313727D01*
X115855810Y-84168584D01*
X115831619Y-84120203D01*
X115807429Y-84096013D01*
X115759048Y-84071822D01*
X115686477Y-84071822D01*
X115638096Y-84096013D01*
X115613905Y-84120203D01*
X115589715Y-84168584D01*
X115589715Y-84313727D01*
X115613905Y-84362108D01*
X115638096Y-84386299D01*
X115686477Y-84410489D01*
X115759048Y-84410489D01*
X115420381Y-84071822D02*
X115323619Y-84410489D01*
X115226858Y-84168584D01*
X115130096Y-84410489D01*
X115033334Y-84071822D01*
X114549524Y-84362108D02*
X114573715Y-84386299D01*
X114646286Y-84410489D01*
X114694667Y-84410489D01*
X114767239Y-84386299D01*
X114815619Y-84337918D01*
X114839810Y-84289537D01*
X114864000Y-84192775D01*
X114864000Y-84120203D01*
X114839810Y-84023441D01*
X114815619Y-83975060D01*
X114767239Y-83926680D01*
X114694667Y-83902489D01*
X114646286Y-83902489D01*
X114573715Y-83926680D01*
X114549524Y-83950870D01*
X114259239Y-84410489D02*
X114307619Y-84386299D01*
X114331810Y-84362108D01*
X114356000Y-84313727D01*
X114356000Y-84168584D01*
X114331810Y-84120203D01*
X114307619Y-84096013D01*
X114259239Y-84071822D01*
X114186667Y-84071822D01*
X114138286Y-84096013D01*
X114114096Y-84120203D01*
X114089905Y-84168584D01*
X114089905Y-84313727D01*
X114114096Y-84362108D01*
X114138286Y-84386299D01*
X114186667Y-84410489D01*
X114259239Y-84410489D01*
X113872191Y-84071822D02*
X113872191Y-84410489D01*
X113872191Y-84120203D02*
X113848000Y-84096013D01*
X113799619Y-84071822D01*
X113727048Y-84071822D01*
X113678667Y-84096013D01*
X113654477Y-84144394D01*
X113654477Y-84410489D01*
X113412572Y-84071822D02*
X113412572Y-84410489D01*
X113412572Y-84120203D02*
X113388381Y-84096013D01*
X113340000Y-84071822D01*
X113267429Y-84071822D01*
X113219048Y-84096013D01*
X113194858Y-84144394D01*
X113194858Y-84410489D01*
X113025524Y-83902489D02*
X112856191Y-84410489D01*
X112686858Y-83902489D01*
X112251429Y-84410489D02*
X112541715Y-84410489D01*
X112396572Y-84410489D02*
X112396572Y-83902489D01*
X112444953Y-83975060D01*
X112493334Y-84023441D01*
X112541715Y-84047632D01*
X116761622Y-86240499D02*
X116713241Y-86264689D01*
X116616480Y-86264689D01*
X116568099Y-86240499D01*
X116543908Y-86192118D01*
X116543908Y-86167927D01*
X116568099Y-86119546D01*
X116616480Y-86095356D01*
X116689051Y-86095356D01*
X116737432Y-86071165D01*
X116761622Y-86022784D01*
X116761622Y-85998594D01*
X116737432Y-85950213D01*
X116689051Y-85926022D01*
X116616480Y-85926022D01*
X116568099Y-85950213D01*
X116132670Y-86240499D02*
X116181051Y-86264689D01*
X116277813Y-86264689D01*
X116326194Y-86240499D01*
X116350384Y-86192118D01*
X116350384Y-85998594D01*
X116326194Y-85950213D01*
X116277813Y-85926022D01*
X116181051Y-85926022D01*
X116132670Y-85950213D01*
X116108480Y-85998594D01*
X116108480Y-86046975D01*
X116350384Y-86095356D01*
X115890765Y-85926022D02*
X115890765Y-86264689D01*
X115890765Y-85974403D02*
X115866575Y-85950213D01*
X115818194Y-85926022D01*
X115745622Y-85926022D01*
X115697241Y-85950213D01*
X115673051Y-85998594D01*
X115673051Y-86264689D01*
X115455337Y-86240499D02*
X115406956Y-86264689D01*
X115310194Y-86264689D01*
X115261813Y-86240499D01*
X115237622Y-86192118D01*
X115237622Y-86167927D01*
X115261813Y-86119546D01*
X115310194Y-86095356D01*
X115382765Y-86095356D01*
X115431146Y-86071165D01*
X115455337Y-86022784D01*
X115455337Y-85998594D01*
X115431146Y-85950213D01*
X115382765Y-85926022D01*
X115310194Y-85926022D01*
X115261813Y-85950213D01*
X114947337Y-86264689D02*
X114995718Y-86240499D01*
X115019908Y-86216308D01*
X115044099Y-86167927D01*
X115044099Y-86022784D01*
X115019908Y-85974403D01*
X114995718Y-85950213D01*
X114947337Y-85926022D01*
X114874765Y-85926022D01*
X114826384Y-85950213D01*
X114802194Y-85974403D01*
X114778003Y-86022784D01*
X114778003Y-86167927D01*
X114802194Y-86216308D01*
X114826384Y-86240499D01*
X114874765Y-86264689D01*
X114947337Y-86264689D01*
X114560289Y-86264689D02*
X114560289Y-85926022D01*
X114560289Y-86022784D02*
X114536099Y-85974403D01*
X114511908Y-85950213D01*
X114463527Y-85926022D01*
X114415146Y-85926022D01*
X114028099Y-86264689D02*
X114028099Y-85998594D01*
X114052289Y-85950213D01*
X114100670Y-85926022D01*
X114197432Y-85926022D01*
X114245813Y-85950213D01*
X114028099Y-86240499D02*
X114076480Y-86264689D01*
X114197432Y-86264689D01*
X114245813Y-86240499D01*
X114270003Y-86192118D01*
X114270003Y-86143737D01*
X114245813Y-86095356D01*
X114197432Y-86071165D01*
X114076480Y-86071165D01*
X114028099Y-86046975D01*
X113786194Y-86264689D02*
X113786194Y-85756689D01*
X113786194Y-85950213D02*
X113737813Y-85926022D01*
X113641051Y-85926022D01*
X113592670Y-85950213D01*
X113568480Y-85974403D01*
X113544289Y-86022784D01*
X113544289Y-86167927D01*
X113568480Y-86216308D01*
X113592670Y-86240499D01*
X113641051Y-86264689D01*
X113737813Y-86264689D01*
X113786194Y-86240499D01*
X113254003Y-86264689D02*
X113302384Y-86240499D01*
X113326575Y-86192118D01*
X113326575Y-85756689D01*
X112866956Y-86240499D02*
X112915337Y-86264689D01*
X113012099Y-86264689D01*
X113060480Y-86240499D01*
X113084670Y-86192118D01*
X113084670Y-85998594D01*
X113060480Y-85950213D01*
X113012099Y-85926022D01*
X112915337Y-85926022D01*
X112866956Y-85950213D01*
X112842765Y-85998594D01*
X112842765Y-86046975D01*
X113084670Y-86095356D01*
X112625051Y-86216308D02*
X112600860Y-86240499D01*
X112625051Y-86264689D01*
X112649241Y-86240499D01*
X112625051Y-86216308D01*
X112625051Y-86264689D01*
X112383146Y-86264689D02*
X112383146Y-85926022D01*
X112383146Y-85756689D02*
X112407337Y-85780880D01*
X112383146Y-85805070D01*
X112358956Y-85780880D01*
X112383146Y-85756689D01*
X112383146Y-85805070D01*
X112068670Y-86264689D02*
X112117051Y-86240499D01*
X112141241Y-86216308D01*
X112165432Y-86167927D01*
X112165432Y-86022784D01*
X112141241Y-85974403D01*
X112117051Y-85950213D01*
X112068670Y-85926022D01*
X111996099Y-85926022D01*
X111947718Y-85950213D01*
X111923527Y-85974403D01*
X111899337Y-86022784D01*
X111899337Y-86167927D01*
X111923527Y-86216308D01*
X111947718Y-86240499D01*
X111996099Y-86264689D01*
X112068670Y-86264689D01*
X115914956Y-87153689D02*
X115914956Y-86645689D01*
X115794003Y-86645689D01*
X115721432Y-86669880D01*
X115673051Y-86718260D01*
X115648860Y-86766641D01*
X115624670Y-86863403D01*
X115624670Y-86935975D01*
X115648860Y-87032737D01*
X115673051Y-87081118D01*
X115721432Y-87129499D01*
X115794003Y-87153689D01*
X115914956Y-87153689D01*
X115406956Y-86887594D02*
X115237622Y-86887594D01*
X115165051Y-87153689D02*
X115406956Y-87153689D01*
X115406956Y-86645689D01*
X115165051Y-86645689D01*
X114657051Y-87105308D02*
X114681241Y-87129499D01*
X114753813Y-87153689D01*
X114802194Y-87153689D01*
X114874765Y-87129499D01*
X114923146Y-87081118D01*
X114947337Y-87032737D01*
X114971527Y-86935975D01*
X114971527Y-86863403D01*
X114947337Y-86766641D01*
X114923146Y-86718260D01*
X114874765Y-86669880D01*
X114802194Y-86645689D01*
X114753813Y-86645689D01*
X114681241Y-86669880D01*
X114657051Y-86694070D01*
X114463527Y-86694070D02*
X114439337Y-86669880D01*
X114390956Y-86645689D01*
X114270003Y-86645689D01*
X114221622Y-86669880D01*
X114197432Y-86694070D01*
X114173241Y-86742451D01*
X114173241Y-86790832D01*
X114197432Y-86863403D01*
X114487718Y-87153689D01*
X114173241Y-87153689D01*
X113858765Y-86645689D02*
X113810384Y-86645689D01*
X113762003Y-86669880D01*
X113737813Y-86694070D01*
X113713622Y-86742451D01*
X113689432Y-86839213D01*
X113689432Y-86960165D01*
X113713622Y-87056927D01*
X113737813Y-87105308D01*
X113762003Y-87129499D01*
X113810384Y-87153689D01*
X113858765Y-87153689D01*
X113907146Y-87129499D01*
X113931337Y-87105308D01*
X113955527Y-87056927D01*
X113979718Y-86960165D01*
X113979718Y-86839213D01*
X113955527Y-86742451D01*
X113931337Y-86694070D01*
X113907146Y-86669880D01*
X113858765Y-86645689D01*
X113205622Y-87153689D02*
X113495908Y-87153689D01*
X113350765Y-87153689D02*
X113350765Y-86645689D01*
X113399146Y-86718260D01*
X113447527Y-86766641D01*
X113495908Y-86790832D01*
X112915337Y-86863403D02*
X112963718Y-86839213D01*
X112987908Y-86815022D01*
X113012099Y-86766641D01*
X113012099Y-86742451D01*
X112987908Y-86694070D01*
X112963718Y-86669880D01*
X112915337Y-86645689D01*
X112818575Y-86645689D01*
X112770194Y-86669880D01*
X112746003Y-86694070D01*
X112721813Y-86742451D01*
X112721813Y-86766641D01*
X112746003Y-86815022D01*
X112770194Y-86839213D01*
X112818575Y-86863403D01*
X112915337Y-86863403D01*
X112963718Y-86887594D01*
X112987908Y-86911784D01*
X113012099Y-86960165D01*
X113012099Y-87056927D01*
X112987908Y-87105308D01*
X112963718Y-87129499D01*
X112915337Y-87153689D01*
X112818575Y-87153689D01*
X112770194Y-87129499D01*
X112746003Y-87105308D01*
X112721813Y-87056927D01*
X112721813Y-86960165D01*
X112746003Y-86911784D01*
X112770194Y-86887594D01*
X112818575Y-86863403D01*
D11*
X115750340Y-79433420D02*
X115933220Y-79430880D01*
X116174520Y-80812640D02*
X115938300Y-80576420D01*
X115938300Y-78806040D02*
X115938300Y-80576420D01*
X115745260Y-78806040D02*
X115938300Y-78806040D01*
X112006380Y-78404720D02*
X112008920Y-78407260D01*
X112468660Y-78407260D02*
X112008920Y-78407260D01*
X111980980Y-77805280D02*
X111980980Y-79522320D01*
X112473740Y-77805280D02*
X111980980Y-77805280D01*
D10*
X111729520Y-79180387D02*
X111753710Y-79228768D01*
X111753710Y-79301340D01*
X111729520Y-79373911D01*
X111681139Y-79422292D01*
X111632758Y-79446482D01*
X111535996Y-79470673D01*
X111463424Y-79470673D01*
X111366662Y-79446482D01*
X111318281Y-79422292D01*
X111269900Y-79373911D01*
X111245710Y-79301340D01*
X111245710Y-79252959D01*
X111269900Y-79180387D01*
X111294091Y-79156197D01*
X111463424Y-79156197D01*
X111463424Y-79252959D01*
X111245710Y-78938482D02*
X111753710Y-78938482D01*
X111245710Y-78648197D01*
X111753710Y-78648197D01*
X111245710Y-78406292D02*
X111753710Y-78406292D01*
X111753710Y-78285340D01*
X111729520Y-78212768D01*
X111681139Y-78164387D01*
X111632758Y-78140197D01*
X111535996Y-78116006D01*
X111463424Y-78116006D01*
X111366662Y-78140197D01*
X111318281Y-78164387D01*
X111269900Y-78212768D01*
X111245710Y-78285340D01*
X111245710Y-78406292D01*
X116698969Y-81073292D02*
X116190969Y-81073292D01*
X116190969Y-81194244D01*
X116215160Y-81266816D01*
X116263540Y-81315197D01*
X116311921Y-81339387D01*
X116408683Y-81363578D01*
X116481255Y-81363578D01*
X116578017Y-81339387D01*
X116626398Y-81315197D01*
X116674779Y-81266816D01*
X116698969Y-81194244D01*
X116698969Y-81073292D01*
X116432874Y-81581292D02*
X116432874Y-81750625D01*
X116698969Y-81823197D02*
X116698969Y-81581292D01*
X116190969Y-81581292D01*
X116190969Y-81823197D01*
X116190969Y-81968340D02*
X116698969Y-82137673D01*
X116190969Y-82307006D01*
X116505445Y-82476340D02*
X116505445Y-82863387D01*
X116698969Y-82669863D02*
X116311921Y-82669863D01*
D11*
X124716540Y-95915480D02*
X124706380Y-95905320D01*
X123098560Y-95905320D02*
X124706380Y-95905320D01*
D12*
X122790364Y-96997780D02*
X122790364Y-95997780D01*
X122552269Y-95997780D01*
X122409412Y-96045400D01*
X122314174Y-96140638D01*
X122266555Y-96235876D01*
X122218936Y-96426352D01*
X122218936Y-96569209D01*
X122266555Y-96759685D01*
X122314174Y-96854923D01*
X122409412Y-96950161D01*
X122552269Y-96997780D01*
X122790364Y-96997780D01*
X121790364Y-96473971D02*
X121457031Y-96473971D01*
X121314174Y-96997780D02*
X121790364Y-96997780D01*
X121790364Y-95997780D01*
X121314174Y-95997780D01*
X121028460Y-95997780D02*
X120695126Y-96997780D01*
X120361793Y-95997780D01*
X120028460Y-96616828D02*
X119266555Y-96616828D01*
X119647507Y-96997780D02*
X119647507Y-96235876D01*
X119047164Y-93632400D02*
X119142402Y-93584780D01*
X119285260Y-93584780D01*
X119428117Y-93632400D01*
X119523355Y-93727638D01*
X119570974Y-93822876D01*
X119618593Y-94013352D01*
X119618593Y-94156209D01*
X119570974Y-94346685D01*
X119523355Y-94441923D01*
X119428117Y-94537161D01*
X119285260Y-94584780D01*
X119190021Y-94584780D01*
X119047164Y-94537161D01*
X118999545Y-94489542D01*
X118999545Y-94156209D01*
X119190021Y-94156209D01*
X118570974Y-94584780D02*
X118570974Y-93584780D01*
X117999545Y-94584780D01*
X117999545Y-93584780D01*
X117523355Y-94584780D02*
X117523355Y-93584780D01*
X117285260Y-93584780D01*
X117142402Y-93632400D01*
X117047164Y-93727638D01*
X116999545Y-93822876D01*
X116951926Y-94013352D01*
X116951926Y-94156209D01*
X116999545Y-94346685D01*
X117047164Y-94441923D01*
X117142402Y-94537161D01*
X117285260Y-94584780D01*
X117523355Y-94584780D01*
D11*
X127458773Y-96072960D02*
G75*
G03X127458773Y-96072960I-1200453J0D01*
G01*
X122536717Y-94056200D02*
G75*
G03X122536717Y-94056200I-1244097J0D01*
G01*
G04 #@! TO.C,P1*
D13*
X112058274Y-76509811D02*
X111758274Y-76509811D01*
X111758274Y-76624097D01*
X111772560Y-76652668D01*
X111786845Y-76666954D01*
X111815417Y-76681240D01*
X111858274Y-76681240D01*
X111886845Y-76666954D01*
X111901131Y-76652668D01*
X111915417Y-76624097D01*
X111915417Y-76509811D01*
X112058274Y-76966954D02*
X112058274Y-76795525D01*
X112058274Y-76881240D02*
X111758274Y-76881240D01*
X111801131Y-76852668D01*
X111829702Y-76824097D01*
X111843988Y-76795525D01*
G04 #@! TO.C,P4*
D14*
X127966694Y-96330594D02*
X127966694Y-96030594D01*
X127909551Y-96030594D01*
X127895265Y-96044880D01*
X127888122Y-96059165D01*
X127880980Y-96087737D01*
X127880980Y-96130594D01*
X127888122Y-96159165D01*
X127895265Y-96173451D01*
X127909551Y-96187737D01*
X127966694Y-96187737D01*
X127752408Y-96130594D02*
X127752408Y-96330594D01*
X127788122Y-96016308D02*
X127823837Y-96230594D01*
X127730980Y-96230594D01*
G04 #@! TO.C,P5*
X122711434Y-95220614D02*
X122711434Y-94920614D01*
X122654291Y-94920614D01*
X122640005Y-94934900D01*
X122632862Y-94949185D01*
X122625720Y-94977757D01*
X122625720Y-95020614D01*
X122632862Y-95049185D01*
X122640005Y-95063471D01*
X122654291Y-95077757D01*
X122711434Y-95077757D01*
X122490005Y-94920614D02*
X122561434Y-94920614D01*
X122568577Y-95063471D01*
X122561434Y-95049185D01*
X122547148Y-95034900D01*
X122511434Y-95034900D01*
X122497148Y-95049185D01*
X122490005Y-95063471D01*
X122482862Y-95092042D01*
X122482862Y-95163471D01*
X122490005Y-95192042D01*
X122497148Y-95206328D01*
X122511434Y-95220614D01*
X122547148Y-95220614D01*
X122561434Y-95206328D01*
X122568577Y-95192042D01*
G04 #@! TD*
M02*
