  0
SECTION
  2
HEADER
  9
$ANGBASE
  50
0.0
  9
$ANGDIR
  70
  1
  9
$MEASUREMENT
  70
0
  0
ENDSEC
  0
SECTION
  2
TABLES
  0
TABLE
  2
LTYPE
  70
4
  0
LTYPE
  5
40F
  2
CONTINUOUS
  70
0
  3
Solid line
  72
65
  73
0
  40
0.0
  0
LTYPE
  5
410
  2
DASHDOT
 70
0
  3
Dash Dot ____ _ ____ _
 72
65
 73
4
 40
2.0
 49
1.25
 49
-0.25
 49
0.25
 49
-0.25
  0
LTYPE
  5
411
  2
DASHED
 70
0
  3
Dashed __ __ __ __ __
 72
65
 73
2
 40
0.75
 49
0.5
 49
-0.25
  0
LTYPE
  5
43B
  2
DOTTED
 70
0
  3
Dotted .  .  .  .
 72
65
 73
2
 40
0.2
 49
0.0
 49
-0.2
  0
ENDTAB
  0
TABLE
  2
STYLE
  70
4
  0
STYLE
  2
KICAD
  70
0
  40
0
  41
1
  42
1
  50
0
  71
0
  3
isocp.shx
  0
STYLE
  2
KICADB
  70
0
  40
0
  41
1
  42
1
  50
0
  71
0
  3
isocp.shx
  0
STYLE
  2
KICADI
  70
0
  40
0
  41
1
  42
1
  50
15
  71
0
  3
isocp.shx
  0
STYLE
  2
KICADBI
  70
0
  40
0
  41
1
  42
1
  50
15
  71
0
  3
isocp.shx
  0
ENDTAB
  0
TABLE
  2
LAYER
  70
30
  0
LAYER
  2
BLACK
  70
0
  62
7
  6
CONTINUOUS
  0
LAYER
  2
GRAY1
  70
0
  62
251
  6
CONTINUOUS
  0
LAYER
  2
GRAY2
  70
0
  62
8
  6
CONTINUOUS
  0
LAYER
  2
GRAY3
  70
0
  62
9
  6
CONTINUOUS
  0
LAYER
  2
WHITE
  70
0
  62
7
  6
CONTINUOUS
  0
LAYER
  2
LYELLOW
  70
0
  62
51
  6
CONTINUOUS
  0
LAYER
  2
BLUE1
  70
0
  62
178
  6
CONTINUOUS
  0
LAYER
  2
GREEN1
  70
0
  62
98
  6
CONTINUOUS
  0
LAYER
  2
CYAN1
  70
0
  62
138
  6
CONTINUOUS
  0
LAYER
  2
RED1
  70
0
  62
18
  6
CONTINUOUS
  0
LAYER
  2
MAGENTA1
  70
0
  62
228
  6
CONTINUOUS
  0
LAYER
  2
BROWN1
  70
0
  62
58
  6
CONTINUOUS
  0
LAYER
  2
BLUE2
  70
0
  62
5
  6
CONTINUOUS
  0
LAYER
  2
GREEN2
  70
0
  62
3
  6
CONTINUOUS
  0
LAYER
  2
CYAN2
  70
0
  62
4
  6
CONTINUOUS
  0
LAYER
  2
RED2
  70
0
  62
1
  6
CONTINUOUS
  0
LAYER
  2
MAGENTA2
  70
0
  62
6
  6
CONTINUOUS
  0
LAYER
  2
BROWN2
  70
0
  62
54
  6
CONTINUOUS
  0
LAYER
  2
BLUE3
  70
0
  62
171
  6
CONTINUOUS
  0
LAYER
  2
GREEN3
  70
0
  62
91
  6
CONTINUOUS
  0
LAYER
  2
CYAN3
  70
0
  62
131
  6
CONTINUOUS
  0
LAYER
  2
RED3
  70
0
  62
11
  6
CONTINUOUS
  0
LAYER
  2
MAGENTA3
  70
0
  62
221
  6
CONTINUOUS
  0
LAYER
  2
YELLOW3
  70
0
  62
2
  6
CONTINUOUS
  0
LAYER
  2
BLUE4
  70
0
  62
5
  6
CONTINUOUS
  0
LAYER
  2
GREEN4
  70
0
  62
3
  6
CONTINUOUS
  0
LAYER
  2
CYAN4
  70
0
  62
4
  6
CONTINUOUS
  0
LAYER
  2
RED4
  70
0
  62
1
  6
CONTINUOUS
  0
LAYER
  2
MAGENTA4
  70
0
  62
6
  6
CONTINUOUS
  0
LAYER
  2
YELLOW4
  70
0
  62
2
  6
CONTINUOUS
  0
ENDTAB
  0
ENDSEC
  0
SECTION
  2
ENTITIES
0
LINE
8
BLACK
6
CONTINUOUS
10
117.368
20
-75.7633
11
117.379
21
-75.7633
0
LINE
8
BLACK
6
CONTINUOUS
10
117.379
20
-75.7633
11
117.379
21
-75.7633
0
LINE
8
BLACK
6
CONTINUOUS
10
117.379
20
-75.7633
11
117.388
21
-75.7633
0
LINE
8
BLACK
6
CONTINUOUS
10
117.388
20
-75.7633
11
117.396
21
-75.7663
0
LINE
8
BLACK
6
CONTINUOUS
10
117.396
20
-75.7663
11
117.405
21
-75.7678
0
LINE
8
BLACK
6
CONTINUOUS
10
117.405
20
-75.7678
11
117.413
21
-75.7723
0
LINE
8
BLACK
6
CONTINUOUS
10
117.413
20
-75.7723
11
117.421
21
-75.7754
0
LINE
8
BLACK
6
CONTINUOUS
10
117.421
20
-75.7754
11
117.428
21
-75.781
0
LINE
8
BLACK
6
CONTINUOUS
10
117.428
20
-75.781
11
117.436
21
-75.7855
0
LINE
8
BLACK
6
CONTINUOUS
10
117.436
20
-75.7855
11
117.441
21
-75.7923
0
LINE
8
BLACK
6
CONTINUOUS
10
117.441
20
-75.7923
11
117.448
21
-75.798
0
LINE
8
BLACK
6
CONTINUOUS
10
117.448
20
-75.798
11
117.453
21
-75.8057
0
LINE
8
BLACK
6
CONTINUOUS
10
117.453
20
-75.8057
11
117.458
21
-75.8125
0
LINE
8
BLACK
6
CONTINUOUS
10
117.458
20
-75.8125
11
117.461
21
-75.8209
0
LINE
8
BLACK
6
CONTINUOUS
10
117.461
20
-75.8209
11
117.466
21
-75.8286
0
LINE
8
BLACK
6
CONTINUOUS
10
117.466
20
-75.8286
11
117.467
21
-75.8373
0
LINE
8
BLACK
6
CONTINUOUS
10
117.467
20
-75.8373
11
117.47
21
-75.8456
0
LINE
8
BLACK
6
CONTINUOUS
10
117.47
20
-75.8456
11
117.47
21
-75.8545
0
LINE
8
BLACK
6
CONTINUOUS
10
117.47
20
-75.8545
11
117.47
21
-75.8546
0
LINE
8
BLACK
6
CONTINUOUS
10
117.47
20
-75.8546
11
117.47
21
-75.8643
0
LINE
8
BLACK
6
CONTINUOUS
10
117.47
20
-75.8643
11
117.47
21
-75.8809
0
LINE
8
BLACK
6
CONTINUOUS
10
117.47
20
-75.8809
11
117.47
21
-75.8809
0
LINE
8
BLACK
6
CONTINUOUS
10
117.47
20
-75.8809
11
117.458
21
-92.615
0
LINE
8
BLACK
6
CONTINUOUS
10
117.458
20
-92.615
11
128.252
21
-92.61
0
LINE
8
BLACK
6
CONTINUOUS
10
128.252
20
-92.61
11
128.252
21
-92.61
0
LINE
8
BLACK
6
CONTINUOUS
10
128.252
20
-92.61
11
128.268
21
-92.61
0
LINE
8
BLACK
6
CONTINUOUS
10
128.268
20
-92.61
11
128.279
21
-92.61
0
LINE
8
BLACK
6
CONTINUOUS
10
128.279
20
-92.61
11
128.279
21
-92.61
0
LINE
8
BLACK
6
CONTINUOUS
10
128.279
20
-92.61
11
128.288
21
-92.61
0
LINE
8
BLACK
6
CONTINUOUS
10
128.288
20
-92.61
11
128.296
21
-92.613
0
LINE
8
BLACK
6
CONTINUOUS
10
128.296
20
-92.613
11
128.305
21
-92.6146
0
LINE
8
BLACK
6
CONTINUOUS
10
128.305
20
-92.6146
11
128.312
21
-92.619
0
LINE
8
BLACK
6
CONTINUOUS
10
128.312
20
-92.619
11
128.321
21
-92.6221
0
LINE
8
BLACK
6
CONTINUOUS
10
128.321
20
-92.6221
11
128.328
21
-92.6278
0
LINE
8
BLACK
6
CONTINUOUS
10
128.328
20
-92.6278
11
128.335
21
-92.6322
0
LINE
8
BLACK
6
CONTINUOUS
10
128.335
20
-92.6322
11
128.341
21
-92.639
0
LINE
8
BLACK
6
CONTINUOUS
10
128.341
20
-92.639
11
128.348
21
-92.6447
0
LINE
8
BLACK
6
CONTINUOUS
10
128.348
20
-92.6447
11
128.352
21
-92.6524
0
LINE
8
BLACK
6
CONTINUOUS
10
128.352
20
-92.6524
11
128.358
21
-92.6592
0
LINE
8
BLACK
6
CONTINUOUS
10
128.358
20
-92.6592
11
128.361
21
-92.6676
0
LINE
8
BLACK
6
CONTINUOUS
10
128.361
20
-92.6676
11
128.365
21
-92.6753
0
LINE
8
BLACK
6
CONTINUOUS
10
128.365
20
-92.6753
11
128.367
21
-92.684
0
LINE
8
BLACK
6
CONTINUOUS
10
128.367
20
-92.684
11
128.37
21
-92.6923
0
LINE
8
BLACK
6
CONTINUOUS
10
128.37
20
-92.6923
11
128.37
21
-92.7012
0
LINE
8
BLACK
6
CONTINUOUS
10
128.37
20
-92.7012
11
128.37
21
-92.7013
0
LINE
8
BLACK
6
CONTINUOUS
10
128.37
20
-92.7013
11
128.37
21
-92.7131
0
LINE
8
BLACK
6
CONTINUOUS
10
128.37
20
-92.7131
11
128.37
21
-92.7276
0
LINE
8
BLACK
6
CONTINUOUS
10
128.37
20
-92.7276
11
128.37
21
-92.7276
0
LINE
8
BLACK
6
CONTINUOUS
10
128.37
20
-92.7276
11
128.37
21
-97.3869
0
LINE
8
BLACK
6
CONTINUOUS
10
128.37
20
-97.3869
11
128.37
21
-97.3869
0
LINE
8
BLACK
6
CONTINUOUS
10
128.37
20
-97.3869
11
128.37
21
-97.3958
0
LINE
8
BLACK
6
CONTINUOUS
10
128.37
20
-97.3958
11
128.367
21
-97.4041
0
LINE
8
BLACK
6
CONTINUOUS
10
128.367
20
-97.4041
11
128.365
21
-97.4129
0
LINE
8
BLACK
6
CONTINUOUS
10
128.365
20
-97.4129
11
128.361
21
-97.4206
0
LINE
8
BLACK
6
CONTINUOUS
10
128.361
20
-97.4206
11
128.358
21
-97.4289
0
LINE
8
BLACK
6
CONTINUOUS
10
128.358
20
-97.4289
11
128.352
21
-97.4357
0
LINE
8
BLACK
6
CONTINUOUS
10
128.352
20
-97.4357
11
128.348
21
-97.4434
0
LINE
8
BLACK
6
CONTINUOUS
10
128.348
20
-97.4434
11
128.341
21
-97.4491
0
LINE
8
BLACK
6
CONTINUOUS
10
128.341
20
-97.4491
11
128.335
21
-97.4559
0
LINE
8
BLACK
6
CONTINUOUS
10
128.335
20
-97.4559
11
128.328
21
-97.4604
0
LINE
8
BLACK
6
CONTINUOUS
10
128.328
20
-97.4604
11
128.321
21
-97.4661
0
LINE
8
BLACK
6
CONTINUOUS
10
128.321
20
-97.4661
11
128.312
21
-97.4691
0
LINE
8
BLACK
6
CONTINUOUS
10
128.312
20
-97.4691
11
128.305
21
-97.4736
0
LINE
8
BLACK
6
CONTINUOUS
10
128.305
20
-97.4736
11
128.296
21
-97.4751
0
LINE
8
BLACK
6
CONTINUOUS
10
128.296
20
-97.4751
11
128.288
21
-97.4782
0
LINE
8
BLACK
6
CONTINUOUS
10
128.288
20
-97.4782
11
128.279
21
-97.4782
0
LINE
8
BLACK
6
CONTINUOUS
10
128.279
20
-97.4782
11
128.279
21
-97.4782
0
LINE
8
BLACK
6
CONTINUOUS
10
128.279
20
-97.4782
11
110.912
21
-97.4782
0
LINE
8
BLACK
6
CONTINUOUS
10
110.912
20
-97.4782
11
110.912
21
-97.4782
0
LINE
8
BLACK
6
CONTINUOUS
10
110.912
20
-97.4782
11
110.903
21
-97.4782
0
LINE
8
BLACK
6
CONTINUOUS
10
110.903
20
-97.4782
11
110.894
21
-97.4751
0
LINE
8
BLACK
6
CONTINUOUS
10
110.894
20
-97.4751
11
110.886
21
-97.4736
0
LINE
8
BLACK
6
CONTINUOUS
10
110.886
20
-97.4736
11
110.878
21
-97.4691
0
LINE
8
BLACK
6
CONTINUOUS
10
110.878
20
-97.4691
11
110.87
21
-97.4661
0
LINE
8
BLACK
6
CONTINUOUS
10
110.87
20
-97.4661
11
110.863
21
-97.4604
0
LINE
8
BLACK
6
CONTINUOUS
10
110.863
20
-97.4604
11
110.855
21
-97.4559
0
LINE
8
BLACK
6
CONTINUOUS
10
110.855
20
-97.4559
11
110.849
21
-97.4491
0
LINE
8
BLACK
6
CONTINUOUS
10
110.849
20
-97.4491
11
110.842
21
-97.4434
0
LINE
8
BLACK
6
CONTINUOUS
10
110.842
20
-97.4434
11
110.838
21
-97.4357
0
LINE
8
BLACK
6
CONTINUOUS
10
110.838
20
-97.4357
11
110.832
21
-97.4289
0
LINE
8
BLACK
6
CONTINUOUS
10
110.832
20
-97.4289
11
110.829
21
-97.4206
0
LINE
8
BLACK
6
CONTINUOUS
10
110.829
20
-97.4206
11
110.825
21
-97.4129
0
LINE
8
BLACK
6
CONTINUOUS
10
110.825
20
-97.4129
11
110.823
21
-97.4041
0
LINE
8
BLACK
6
CONTINUOUS
10
110.823
20
-97.4041
11
110.82
21
-97.3958
0
LINE
8
BLACK
6
CONTINUOUS
10
110.82
20
-97.3958
11
110.82
21
-97.3605
0
LINE
8
BLACK
6
CONTINUOUS
10
110.82
20
-97.3605
11
110.82
21
-90.6841
0
LINE
8
BLACK
6
CONTINUOUS
10
110.82
20
-90.6841
11
110.822
21
-90.6755
0
LINE
8
BLACK
6
CONTINUOUS
10
110.822
20
-90.6755
11
110.822
21
-90.6755
0
LINE
8
BLACK
6
CONTINUOUS
10
110.822
20
-90.6755
11
110.822
21
-90.6755
0
LINE
8
BLACK
6
CONTINUOUS
10
110.822
20
-90.6755
11
110.825
21
-90.6581
0
LINE
8
BLACK
6
CONTINUOUS
10
110.825
20
-90.6581
11
110.834
21
-90.6428
0
LINE
8
BLACK
6
CONTINUOUS
10
110.834
20
-90.6428
11
110.834
21
-90.6428
0
LINE
8
BLACK
6
CONTINUOUS
10
110.834
20
-90.6428
11
110.834
21
-90.6428
0
LINE
8
BLACK
6
CONTINUOUS
10
110.834
20
-90.6428
11
110.842
21
-90.6276
0
LINE
8
BLACK
6
CONTINUOUS
10
110.842
20
-90.6276
11
110.856
21
-90.6162
0
LINE
8
BLACK
6
CONTINUOUS
10
110.856
20
-90.6162
11
110.856
21
-90.6162
0
LINE
8
BLACK
6
CONTINUOUS
10
110.856
20
-90.6162
11
110.856
21
-90.6162
0
LINE
8
BLACK
6
CONTINUOUS
10
110.856
20
-90.6162
11
110.87
21
-90.6049
0
LINE
8
BLACK
6
CONTINUOUS
10
110.87
20
-90.6049
11
110.886
21
-90.5989
0
LINE
8
BLACK
6
CONTINUOUS
10
110.886
20
-90.5989
11
110.886
21
-90.5989
0
LINE
8
BLACK
6
CONTINUOUS
10
110.886
20
-90.5989
11
110.886
21
-90.5989
0
LINE
8
BLACK
6
CONTINUOUS
10
110.886
20
-90.5989
11
110.903
21
-90.5928
0
LINE
8
BLACK
6
CONTINUOUS
10
110.903
20
-90.5928
11
110.92
21
-90.5928
0
LINE
8
BLACK
6
CONTINUOUS
10
110.92
20
-90.5928
11
110.92
21
-90.5928
0
LINE
8
BLACK
6
CONTINUOUS
10
110.92
20
-90.5928
11
110.92
21
-90.5928
0
LINE
8
BLACK
6
CONTINUOUS
10
110.92
20
-90.5928
11
110.938
21
-90.5928
0
LINE
8
BLACK
6
CONTINUOUS
10
110.938
20
-90.5928
11
110.954
21
-90.5989
0
LINE
8
BLACK
6
CONTINUOUS
10
110.954
20
-90.5989
11
110.954
21
-90.5989
0
LINE
8
BLACK
6
CONTINUOUS
10
110.954
20
-90.5989
11
111.031
21
-90.6268
0
LINE
8
BLACK
6
CONTINUOUS
10
111.031
20
-90.6268
11
111.347
21
-90.6675
0
LINE
8
BLACK
6
CONTINUOUS
10
111.347
20
-90.6675
11
111.652
21
-90.5991
0
LINE
8
BLACK
6
CONTINUOUS
10
111.652
20
-90.5991
11
111.914
21
-90.4307
0
LINE
8
BLACK
6
CONTINUOUS
10
111.914
20
-90.4307
11
112.104
21
-90.1827
0
LINE
8
BLACK
6
CONTINUOUS
10
112.104
20
-90.1827
11
112.197
21
-89.8848
0
LINE
8
BLACK
6
CONTINUOUS
10
112.197
20
-89.8848
11
112.182
21
-89.5731
0
LINE
8
BLACK
6
CONTINUOUS
10
112.182
20
-89.5731
11
112.062
21
-89.2852
0
LINE
8
BLACK
6
CONTINUOUS
10
112.062
20
-89.2852
11
111.85
21
-89.0557
0
LINE
8
BLACK
6
CONTINUOUS
10
111.85
20
-89.0557
11
111.573
21
-88.9124
0
LINE
8
BLACK
6
CONTINUOUS
10
111.573
20
-88.9124
11
111.264
21
-88.8725
0
LINE
8
BLACK
6
CONTINUOUS
10
111.264
20
-88.8725
11
110.948
21
-88.9433
0
LINE
8
BLACK
6
CONTINUOUS
10
110.948
20
-88.9433
11
110.938
21
-88.9472
0
LINE
8
BLACK
6
CONTINUOUS
10
110.938
20
-88.9472
11
110.903
21
-88.9472
0
LINE
8
BLACK
6
CONTINUOUS
10
110.903
20
-88.9472
11
110.87
21
-88.9351
0
LINE
8
BLACK
6
CONTINUOUS
10
110.87
20
-88.9351
11
110.842
21
-88.9125
0
LINE
8
BLACK
6
CONTINUOUS
10
110.842
20
-88.9125
11
110.825
21
-88.8819
0
LINE
8
BLACK
6
CONTINUOUS
10
110.825
20
-88.8819
11
110.82
21
-88.8559
0
LINE
8
BLACK
6
CONTINUOUS
10
110.82
20
-88.8559
11
110.82
21
-75.8545
0
LINE
8
BLACK
6
CONTINUOUS
10
110.82
20
-75.8545
11
110.82
21
-75.8545
0
LINE
8
BLACK
6
CONTINUOUS
10
110.82
20
-75.8545
11
110.82
21
-75.8456
0
LINE
8
BLACK
6
CONTINUOUS
10
110.82
20
-75.8456
11
110.823
21
-75.8373
0
LINE
8
BLACK
6
CONTINUOUS
10
110.823
20
-75.8373
11
110.825
21
-75.8285
0
LINE
8
BLACK
6
CONTINUOUS
10
110.825
20
-75.8285
11
110.829
21
-75.8208
0
LINE
8
BLACK
6
CONTINUOUS
10
110.829
20
-75.8208
11
110.832
21
-75.8125
0
LINE
8
BLACK
6
CONTINUOUS
10
110.832
20
-75.8125
11
110.838
21
-75.8057
0
LINE
8
BLACK
6
CONTINUOUS
10
110.838
20
-75.8057
11
110.842
21
-75.798
0
LINE
8
BLACK
6
CONTINUOUS
10
110.842
20
-75.798
11
110.849
21
-75.7923
0
LINE
8
BLACK
6
CONTINUOUS
10
110.849
20
-75.7923
11
110.855
21
-75.7855
0
LINE
8
BLACK
6
CONTINUOUS
10
110.855
20
-75.7855
11
110.863
21
-75.781
0
LINE
8
BLACK
6
CONTINUOUS
10
110.863
20
-75.781
11
110.87
21
-75.7753
0
LINE
8
BLACK
6
CONTINUOUS
10
110.87
20
-75.7753
11
110.878
21
-75.7723
0
LINE
8
BLACK
6
CONTINUOUS
10
110.878
20
-75.7723
11
110.886
21
-75.7678
0
LINE
8
BLACK
6
CONTINUOUS
10
110.886
20
-75.7678
11
110.894
21
-75.7663
0
LINE
8
BLACK
6
CONTINUOUS
10
110.894
20
-75.7663
11
110.903
21
-75.7633
0
LINE
8
BLACK
6
CONTINUOUS
10
110.903
20
-75.7633
11
110.912
21
-75.7633
0
LINE
8
BLACK
6
CONTINUOUS
10
110.912
20
-75.7633
11
110.912
21
-75.7633
0
LINE
8
BLACK
6
CONTINUOUS
10
110.912
20
-75.7633
11
117.353
21
-75.7633
0
LINE
8
BLACK
6
CONTINUOUS
10
117.353
20
-75.7633
11
117.353
21
-75.7632
0
LINE
8
BLACK
6
CONTINUOUS
10
117.353
20
-75.7632
11
117.368
21
-75.7633
0
LINE
8
BLACK
6
CONTINUOUS
10
111.02
20
-75.9633
11
111.02
21
-88.7222
0
LINE
8
BLACK
6
CONTINUOUS
10
111.02
20
-88.7222
11
111.237
21
-88.6735
0
LINE
8
BLACK
6
CONTINUOUS
10
111.237
20
-88.6735
11
111.272
21
-88.6719
0
LINE
8
BLACK
6
CONTINUOUS
10
111.272
20
-88.6719
11
111.616
21
-88.7163
0
LINE
8
BLACK
6
CONTINUOUS
10
111.616
20
-88.7163
11
111.616
21
-88.7163
0
LINE
8
BLACK
6
CONTINUOUS
10
111.616
20
-88.7163
11
111.65
21
-88.7266
0
LINE
8
BLACK
6
CONTINUOUS
10
111.65
20
-88.7266
11
111.958
21
-88.8861
0
LINE
8
BLACK
6
CONTINUOUS
10
111.958
20
-88.8861
11
111.976
21
-88.8996
0
LINE
8
BLACK
6
CONTINUOUS
10
111.976
20
-88.8996
11
111.986
21
-88.9072
0
LINE
8
BLACK
6
CONTINUOUS
10
111.986
20
-88.9072
11
112.221
21
-89.1626
0
LINE
8
BLACK
6
CONTINUOUS
10
112.221
20
-89.1626
11
112.232
21
-89.1804
0
LINE
8
BLACK
6
CONTINUOUS
10
112.232
20
-89.1804
11
112.24
21
-89.1919
0
LINE
8
BLACK
6
CONTINUOUS
10
112.24
20
-89.1919
11
112.373
21
-89.5123
0
LINE
8
BLACK
6
CONTINUOUS
10
112.373
20
-89.5123
11
112.381
21
-89.5462
0
LINE
8
BLACK
6
CONTINUOUS
10
112.381
20
-89.5462
11
112.397
21
-89.8932
0
LINE
8
BLACK
6
CONTINUOUS
10
112.397
20
-89.8932
11
112.393
21
-89.9276
0
LINE
8
BLACK
6
CONTINUOUS
10
112.393
20
-89.9276
11
112.289
21
-90.2591
0
LINE
8
BLACK
6
CONTINUOUS
10
112.289
20
-90.2591
11
112.273
21
-90.29
0
LINE
8
BLACK
6
CONTINUOUS
10
112.273
20
-90.29
11
112.063
21
-90.5661
0
LINE
8
BLACK
6
CONTINUOUS
10
112.063
20
-90.5661
11
112.037
21
-90.5896
0
LINE
8
BLACK
6
CONTINUOUS
10
112.037
20
-90.5896
11
111.745
21
-90.777
0
LINE
8
BLACK
6
CONTINUOUS
10
111.745
20
-90.777
11
111.713
21
-90.7904
0
LINE
8
BLACK
6
CONTINUOUS
10
111.713
20
-90.7904
11
111.713
21
-90.7904
0
LINE
8
BLACK
6
CONTINUOUS
10
111.713
20
-90.7904
11
111.374
21
-90.8665
0
LINE
8
BLACK
6
CONTINUOUS
10
111.374
20
-90.8665
11
111.339
21
-90.8681
0
LINE
8
BLACK
6
CONTINUOUS
10
111.339
20
-90.8681
11
111.02
21
-90.827
0
LINE
8
BLACK
6
CONTINUOUS
10
111.02
20
-90.827
11
111.02
21
-97.2782
0
LINE
8
BLACK
6
CONTINUOUS
10
111.02
20
-97.2782
11
128.17
21
-97.2782
0
LINE
8
BLACK
6
CONTINUOUS
10
128.17
20
-97.2782
11
128.17
21
-92.81
0
LINE
8
BLACK
6
CONTINUOUS
10
128.17
20
-92.81
11
117.376
21
-92.8151
0
LINE
8
BLACK
6
CONTINUOUS
10
117.376
20
-92.8151
11
117.376
21
-92.8151
0
LINE
8
BLACK
6
CONTINUOUS
10
117.376
20
-92.8151
11
117.359
21
-92.8151
0
LINE
8
BLACK
6
CONTINUOUS
10
117.359
20
-92.8151
11
117.349
21
-92.8151
0
LINE
8
BLACK
6
CONTINUOUS
10
117.349
20
-92.8151
11
117.349
21
-92.8151
0
LINE
8
BLACK
6
CONTINUOUS
10
117.349
20
-92.8151
11
117.34
21
-92.8151
0
LINE
8
BLACK
6
CONTINUOUS
10
117.34
20
-92.8151
11
117.332
21
-92.812
0
LINE
8
BLACK
6
CONTINUOUS
10
117.332
20
-92.812
11
117.323
21
-92.8105
0
LINE
8
BLACK
6
CONTINUOUS
10
117.323
20
-92.8105
11
117.316
21
-92.806
0
LINE
8
BLACK
6
CONTINUOUS
10
117.316
20
-92.806
11
117.307
21
-92.803
0
LINE
8
BLACK
6
CONTINUOUS
10
117.307
20
-92.803
11
117.301
21
-92.7973
0
LINE
8
BLACK
6
CONTINUOUS
10
117.301
20
-92.7973
11
117.293
21
-92.7929
0
LINE
8
BLACK
6
CONTINUOUS
10
117.293
20
-92.7929
11
117.287
21
-92.786
0
LINE
8
BLACK
6
CONTINUOUS
10
117.287
20
-92.786
11
117.28
21
-92.7803
0
LINE
8
BLACK
6
CONTINUOUS
10
117.28
20
-92.7803
11
117.276
21
-92.7726
0
LINE
8
BLACK
6
CONTINUOUS
10
117.276
20
-92.7726
11
117.27
21
-92.7659
0
LINE
8
BLACK
6
CONTINUOUS
10
117.27
20
-92.7659
11
117.267
21
-92.7575
0
LINE
8
BLACK
6
CONTINUOUS
10
117.267
20
-92.7575
11
117.263
21
-92.7497
0
LINE
8
BLACK
6
CONTINUOUS
10
117.263
20
-92.7497
11
117.261
21
-92.741
0
LINE
8
BLACK
6
CONTINUOUS
10
117.261
20
-92.741
11
117.258
21
-92.7328
0
LINE
8
BLACK
6
CONTINUOUS
10
117.258
20
-92.7328
11
117.258
21
-92.7238
0
LINE
8
BLACK
6
CONTINUOUS
10
117.258
20
-92.7238
11
117.258
21
-92.7238
0
LINE
8
BLACK
6
CONTINUOUS
10
117.258
20
-92.7238
11
117.258
21
-92.714
0
LINE
8
BLACK
6
CONTINUOUS
10
117.258
20
-92.714
11
117.258
21
-92.6975
0
LINE
8
BLACK
6
CONTINUOUS
10
117.258
20
-92.6975
11
117.258
21
-92.6974
0
LINE
8
BLACK
6
CONTINUOUS
10
117.258
20
-92.6974
11
117.27
21
-75.9633
0
LINE
8
BLACK
6
CONTINUOUS
10
117.27
20
-75.9633
11
111.02
21
-75.9633
0
LINE
8
BLACK
6
CONTINUOUS
10
116.002
20
-80.8986
11
116.025
21
-80.9118
0
LINE
8
BLACK
6
CONTINUOUS
10
116.025
20
-80.9118
11
116.042
21
-80.932
0
LINE
8
BLACK
6
CONTINUOUS
10
116.042
20
-80.932
11
116.051
21
-80.9569
0
LINE
8
BLACK
6
CONTINUOUS
10
116.051
20
-80.9569
11
116.051
21
-80.9687
0
LINE
8
BLACK
6
CONTINUOUS
10
116.051
20
-80.9687
11
116.051
21
-80.9688
0
LINE
8
BLACK
6
CONTINUOUS
10
116.051
20
-80.9688
11
116.051
21
-80.9754
0
LINE
8
BLACK
6
CONTINUOUS
10
116.051
20
-80.9754
11
116.051
21
-80.9833
0
LINE
8
BLACK
6
CONTINUOUS
10
116.051
20
-80.9833
11
116.051
21
-80.9834
0
LINE
8
BLACK
6
CONTINUOUS
10
116.051
20
-80.9834
11
116.046
21
-83.3579
0
LINE
8
BLACK
6
CONTINUOUS
10
116.046
20
-83.3579
11
116.046
21
-83.3709
0
LINE
8
BLACK
6
CONTINUOUS
10
116.046
20
-83.3709
11
116.044
21
-83.3773
0
LINE
8
BLACK
6
CONTINUOUS
10
116.044
20
-83.3773
11
116.043
21
-83.3839
0
LINE
8
BLACK
6
CONTINUOUS
10
116.043
20
-83.3839
11
116.04
21
-83.3896
0
LINE
8
BLACK
6
CONTINUOUS
10
116.04
20
-83.3896
11
116.037
21
-83.3958
0
LINE
8
BLACK
6
CONTINUOUS
10
116.037
20
-83.3958
11
116.033
21
-83.401
0
LINE
8
BLACK
6
CONTINUOUS
10
116.033
20
-83.401
11
116.03
21
-83.4068
0
LINE
8
BLACK
6
CONTINUOUS
10
116.03
20
-83.4068
11
116.025
21
-83.411
0
LINE
8
BLACK
6
CONTINUOUS
10
116.025
20
-83.411
11
116.02
21
-83.4161
0
LINE
8
BLACK
6
CONTINUOUS
10
116.02
20
-83.4161
11
116.014
21
-83.4194
0
LINE
8
BLACK
6
CONTINUOUS
10
116.014
20
-83.4194
11
116.009
21
-83.4238
0
LINE
8
BLACK
6
CONTINUOUS
10
116.009
20
-83.4238
11
116.003
21
-83.426
0
LINE
8
BLACK
6
CONTINUOUS
10
116.003
20
-83.426
11
115.997
21
-83.4293
0
LINE
8
BLACK
6
CONTINUOUS
10
115.997
20
-83.4293
11
115.991
21
-83.4305
0
LINE
8
BLACK
6
CONTINUOUS
10
115.991
20
-83.4305
11
115.984
21
-83.4327
0
LINE
8
BLACK
6
CONTINUOUS
10
115.984
20
-83.4327
11
115.972
21
-83.4327
0
LINE
8
BLACK
6
CONTINUOUS
10
115.972
20
-83.4327
11
112.307
21
-83.4327
0
LINE
8
BLACK
6
CONTINUOUS
10
112.307
20
-83.4327
11
112.307
21
-83.4327
0
LINE
8
BLACK
6
CONTINUOUS
10
112.307
20
-83.4327
11
112.3
21
-83.4327
0
LINE
8
BLACK
6
CONTINUOUS
10
112.3
20
-83.4327
11
112.294
21
-83.4304
0
LINE
8
BLACK
6
CONTINUOUS
10
112.294
20
-83.4304
11
112.288
21
-83.4293
0
LINE
8
BLACK
6
CONTINUOUS
10
112.288
20
-83.4293
11
112.282
21
-83.426
0
LINE
8
BLACK
6
CONTINUOUS
10
112.282
20
-83.426
11
112.276
21
-83.4237
0
LINE
8
BLACK
6
CONTINUOUS
10
112.276
20
-83.4237
11
112.271
21
-83.4194
0
LINE
8
BLACK
6
CONTINUOUS
10
112.271
20
-83.4194
11
112.265
21
-83.4161
0
LINE
8
BLACK
6
CONTINUOUS
10
112.265
20
-83.4161
11
112.26
21
-83.411
0
LINE
8
BLACK
6
CONTINUOUS
10
112.26
20
-83.411
11
112.255
21
-83.4067
0
LINE
8
BLACK
6
CONTINUOUS
10
112.255
20
-83.4067
11
112.252
21
-83.4009
0
LINE
8
BLACK
6
CONTINUOUS
10
112.252
20
-83.4009
11
112.248
21
-83.3958
0
LINE
8
BLACK
6
CONTINUOUS
10
112.248
20
-83.3958
11
112.245
21
-83.3895
0
LINE
8
BLACK
6
CONTINUOUS
10
112.245
20
-83.3895
11
112.242
21
-83.3838
0
LINE
8
BLACK
6
CONTINUOUS
10
112.242
20
-83.3838
11
112.241
21
-83.3772
0
LINE
8
BLACK
6
CONTINUOUS
10
112.241
20
-83.3772
11
112.239
21
-83.3709
0
LINE
8
BLACK
6
CONTINUOUS
10
112.239
20
-83.3709
11
112.239
21
-83.3445
0
LINE
8
BLACK
6
CONTINUOUS
10
112.239
20
-83.3445
11
112.239
21
-80.9636
0
LINE
8
BLACK
6
CONTINUOUS
10
112.239
20
-80.9636
11
112.239
21
-80.9636
0
LINE
8
BLACK
6
CONTINUOUS
10
112.239
20
-80.9636
11
112.239
21
-80.9569
0
LINE
8
BLACK
6
CONTINUOUS
10
112.239
20
-80.9569
11
112.241
21
-80.9506
0
LINE
8
BLACK
6
CONTINUOUS
10
112.241
20
-80.9506
11
112.242
21
-80.9441
0
LINE
8
BLACK
6
CONTINUOUS
10
112.242
20
-80.9441
11
112.245
21
-80.9383
0
LINE
8
BLACK
6
CONTINUOUS
10
112.245
20
-80.9383
11
112.248
21
-80.932
0
LINE
8
BLACK
6
CONTINUOUS
10
112.248
20
-80.932
11
112.252
21
-80.9269
0
LINE
8
BLACK
6
CONTINUOUS
10
112.252
20
-80.9269
11
112.255
21
-80.9212
0
LINE
8
BLACK
6
CONTINUOUS
10
112.255
20
-80.9212
11
112.26
21
-80.9169
0
LINE
8
BLACK
6
CONTINUOUS
10
112.26
20
-80.9169
11
112.265
21
-80.9118
0
LINE
8
BLACK
6
CONTINUOUS
10
112.265
20
-80.9118
11
112.271
21
-80.9085
0
LINE
8
BLACK
6
CONTINUOUS
10
112.271
20
-80.9085
11
112.276
21
-80.9042
0
LINE
8
BLACK
6
CONTINUOUS
10
112.276
20
-80.9042
11
112.282
21
-80.9019
0
LINE
8
BLACK
6
CONTINUOUS
10
112.282
20
-80.9019
11
112.288
21
-80.8986
0
LINE
8
BLACK
6
CONTINUOUS
10
112.288
20
-80.8986
11
112.294
21
-80.8974
0
LINE
8
BLACK
6
CONTINUOUS
10
112.294
20
-80.8974
11
112.3
21
-80.8951
0
LINE
8
BLACK
6
CONTINUOUS
10
112.3
20
-80.8951
11
112.307
21
-80.8951
0
LINE
8
BLACK
6
CONTINUOUS
10
112.307
20
-80.8951
11
112.307
21
-80.8951
0
LINE
8
BLACK
6
CONTINUOUS
10
112.307
20
-80.8951
11
115.983
21
-80.8951
0
LINE
8
BLACK
6
CONTINUOUS
10
115.983
20
-80.8951
11
116.002
21
-80.8986
0
LINE
8
BLACK
6
CONTINUOUS
10
112.389
20
-81.0451
11
112.389
21
-83.2827
0
LINE
8
BLACK
6
CONTINUOUS
10
112.389
20
-83.2827
11
115.896
21
-83.2827
0
LINE
8
BLACK
6
CONTINUOUS
10
115.896
20
-83.2827
11
115.901
21
-81.0451
0
LINE
8
BLACK
6
CONTINUOUS
10
115.901
20
-81.0451
11
112.389
21
-81.0451
  0
ENDSEC
  0
EOF
