  0
SECTION
  2
HEADER
  9
$ANGBASE
  50
0.0
  9
$ANGDIR
  70
  1
  9
$MEASUREMENT
  70
0
  0
ENDSEC
  0
SECTION
  2
TABLES
  0
TABLE
  2
LTYPE
  70
4
  0
LTYPE
  5
40F
  2
CONTINUOUS
  70
0
  3
Solid line
  72
65
  73
0
  40
0.0
  0
LTYPE
  5
410
  2
DASHDOT
 70
0
  3
Dash Dot ____ _ ____ _
 72
65
 73
4
 40
2.0
 49
1.25
 49
-0.25
 49
0.25
 49
-0.25
  0
LTYPE
  5
411
  2
DASHED
 70
0
  3
Dashed __ __ __ __ __
 72
65
 73
2
 40
0.75
 49
0.5
 49
-0.25
  0
LTYPE
  5
43B
  2
DOTTED
 70
0
  3
Dotted .  .  .  .
 72
65
 73
2
 40
0.2
 49
0.0
 49
-0.2
  0
ENDTAB
  0
TABLE
  2
STYLE
  70
4
  0
STYLE
  2
KICAD
  70
0
  40
0
  41
1
  42
1
  50
0
  71
0
  3
isocp.shx
  0
STYLE
  2
KICADB
  70
0
  40
0
  41
1
  42
1
  50
0
  71
0
  3
isocp.shx
  0
STYLE
  2
KICADI
  70
0
  40
0
  41
1
  42
1
  50
15
  71
0
  3
isocp.shx
  0
STYLE
  2
KICADBI
  70
0
  40
0
  41
1
  42
1
  50
15
  71
0
  3
isocp.shx
  0
ENDTAB
  0
TABLE
  2
LAYER
  70
30
  0
LAYER
  2
BLACK
  70
0
  62
7
  6
CONTINUOUS
  0
LAYER
  2
GRAY1
  70
0
  62
251
  6
CONTINUOUS
  0
LAYER
  2
GRAY2
  70
0
  62
8
  6
CONTINUOUS
  0
LAYER
  2
GRAY3
  70
0
  62
9
  6
CONTINUOUS
  0
LAYER
  2
WHITE
  70
0
  62
7
  6
CONTINUOUS
  0
LAYER
  2
LYELLOW
  70
0
  62
51
  6
CONTINUOUS
  0
LAYER
  2
BLUE1
  70
0
  62
178
  6
CONTINUOUS
  0
LAYER
  2
GREEN1
  70
0
  62
98
  6
CONTINUOUS
  0
LAYER
  2
CYAN1
  70
0
  62
138
  6
CONTINUOUS
  0
LAYER
  2
RED1
  70
0
  62
18
  6
CONTINUOUS
  0
LAYER
  2
MAGENTA1
  70
0
  62
228
  6
CONTINUOUS
  0
LAYER
  2
BROWN1
  70
0
  62
58
  6
CONTINUOUS
  0
LAYER
  2
BLUE2
  70
0
  62
5
  6
CONTINUOUS
  0
LAYER
  2
GREEN2
  70
0
  62
3
  6
CONTINUOUS
  0
LAYER
  2
CYAN2
  70
0
  62
4
  6
CONTINUOUS
  0
LAYER
  2
RED2
  70
0
  62
1
  6
CONTINUOUS
  0
LAYER
  2
MAGENTA2
  70
0
  62
6
  6
CONTINUOUS
  0
LAYER
  2
BROWN2
  70
0
  62
54
  6
CONTINUOUS
  0
LAYER
  2
BLUE3
  70
0
  62
171
  6
CONTINUOUS
  0
LAYER
  2
GREEN3
  70
0
  62
91
  6
CONTINUOUS
  0
LAYER
  2
CYAN3
  70
0
  62
131
  6
CONTINUOUS
  0
LAYER
  2
RED3
  70
0
  62
11
  6
CONTINUOUS
  0
LAYER
  2
MAGENTA3
  70
0
  62
221
  6
CONTINUOUS
  0
LAYER
  2
YELLOW3
  70
0
  62
2
  6
CONTINUOUS
  0
LAYER
  2
BLUE4
  70
0
  62
5
  6
CONTINUOUS
  0
LAYER
  2
GREEN4
  70
0
  62
3
  6
CONTINUOUS
  0
LAYER
  2
CYAN4
  70
0
  62
4
  6
CONTINUOUS
  0
LAYER
  2
RED4
  70
0
  62
1
  6
CONTINUOUS
  0
LAYER
  2
MAGENTA4
  70
0
  62
6
  6
CONTINUOUS
  0
LAYER
  2
YELLOW4
  70
0
  62
2
  6
CONTINUOUS
  0
ENDTAB
  0
ENDSEC
  0
SECTION
  2
ENTITIES
0
LINE
8
BLACK
6
CONTINUOUS
10
114.361
20
-94.3358
11
114.498
21
-94.3923
0
LINE
8
BLACK
6
CONTINUOUS
10
114.498
20
-94.3923
11
114.621
21
-94.4744
0
LINE
8
BLACK
6
CONTINUOUS
10
114.621
20
-94.4744
11
114.725
21
-94.5789
0
LINE
8
BLACK
6
CONTINUOUS
10
114.725
20
-94.5789
11
114.807
21
-94.7017
0
LINE
8
BLACK
6
CONTINUOUS
10
114.807
20
-94.7017
11
114.864
21
-94.8382
0
LINE
8
BLACK
6
CONTINUOUS
10
114.864
20
-94.8382
11
114.893
21
-94.9831
0
LINE
8
BLACK
6
CONTINUOUS
10
114.893
20
-94.9831
11
114.893
21
-95.1308
0
LINE
8
BLACK
6
CONTINUOUS
10
114.893
20
-95.1308
11
114.864
21
-95.2757
0
LINE
8
BLACK
6
CONTINUOUS
10
114.864
20
-95.2757
11
114.807
21
-95.4122
0
LINE
8
BLACK
6
CONTINUOUS
10
114.807
20
-95.4122
11
114.725
21
-95.5351
0
LINE
8
BLACK
6
CONTINUOUS
10
114.725
20
-95.5351
11
114.621
21
-95.6395
0
LINE
8
BLACK
6
CONTINUOUS
10
114.621
20
-95.6395
11
114.498
21
-95.7216
0
LINE
8
BLACK
6
CONTINUOUS
10
114.498
20
-95.7216
11
114.361
21
-95.7781
0
LINE
8
BLACK
6
CONTINUOUS
10
114.361
20
-95.7781
11
114.216
21
-95.807
0
LINE
8
BLACK
6
CONTINUOUS
10
114.216
20
-95.807
11
114.069
21
-95.807
0
LINE
8
BLACK
6
CONTINUOUS
10
114.069
20
-95.807
11
113.924
21
-95.7781
0
LINE
8
BLACK
6
CONTINUOUS
10
113.924
20
-95.7781
11
113.787
21
-95.7216
0
LINE
8
BLACK
6
CONTINUOUS
10
113.787
20
-95.7216
11
113.664
21
-95.6395
0
LINE
8
BLACK
6
CONTINUOUS
10
113.664
20
-95.6395
11
113.56
21
-95.5351
0
LINE
8
BLACK
6
CONTINUOUS
10
113.56
20
-95.5351
11
113.478
21
-95.4122
0
LINE
8
BLACK
6
CONTINUOUS
10
113.478
20
-95.4122
11
113.421
21
-95.2757
0
LINE
8
BLACK
6
CONTINUOUS
10
113.421
20
-95.2757
11
113.393
21
-95.1308
0
LINE
8
BLACK
6
CONTINUOUS
10
113.393
20
-95.1308
11
113.393
21
-94.9831
0
LINE
8
BLACK
6
CONTINUOUS
10
113.393
20
-94.9831
11
113.421
21
-94.8382
0
LINE
8
BLACK
6
CONTINUOUS
10
113.421
20
-94.8382
11
113.478
21
-94.7017
0
LINE
8
BLACK
6
CONTINUOUS
10
113.478
20
-94.7017
11
113.56
21
-94.5789
0
LINE
8
BLACK
6
CONTINUOUS
10
113.56
20
-94.5789
11
113.664
21
-94.4744
0
LINE
8
BLACK
6
CONTINUOUS
10
113.664
20
-94.4744
11
113.787
21
-94.3923
0
LINE
8
BLACK
6
CONTINUOUS
10
113.787
20
-94.3923
11
113.924
21
-94.3358
0
LINE
8
BLACK
6
CONTINUOUS
10
113.924
20
-94.3358
11
114.069
21
-94.307
0
LINE
8
BLACK
6
CONTINUOUS
10
114.069
20
-94.307
11
114.216
21
-94.307
0
LINE
8
BLACK
6
CONTINUOUS
10
114.216
20
-94.307
11
114.361
21
-94.3358
0
LINE
8
BLACK
6
CONTINUOUS
10
124.42
20
-93.3147
11
124.556
21
-93.3712
0
LINE
8
BLACK
6
CONTINUOUS
10
124.556
20
-93.3712
11
124.679
21
-93.4533
0
LINE
8
BLACK
6
CONTINUOUS
10
124.679
20
-93.4533
11
124.783
21
-93.5578
0
LINE
8
BLACK
6
CONTINUOUS
10
124.783
20
-93.5578
11
124.866
21
-93.6806
0
LINE
8
BLACK
6
CONTINUOUS
10
124.866
20
-93.6806
11
124.922
21
-93.8171
0
LINE
8
BLACK
6
CONTINUOUS
10
124.922
20
-93.8171
11
124.951
21
-93.962
0
LINE
8
BLACK
6
CONTINUOUS
10
124.951
20
-93.962
11
124.951
21
-94.1097
0
LINE
8
BLACK
6
CONTINUOUS
10
124.951
20
-94.1097
11
124.922
21
-94.2546
0
LINE
8
BLACK
6
CONTINUOUS
10
124.922
20
-94.2546
11
124.866
21
-94.3911
0
LINE
8
BLACK
6
CONTINUOUS
10
124.866
20
-94.3911
11
124.783
21
-94.514
0
LINE
8
BLACK
6
CONTINUOUS
10
124.783
20
-94.514
11
124.679
21
-94.6184
0
LINE
8
BLACK
6
CONTINUOUS
10
124.679
20
-94.6184
11
124.556
21
-94.7005
0
LINE
8
BLACK
6
CONTINUOUS
10
124.556
20
-94.7005
11
124.42
21
-94.7571
0
LINE
8
BLACK
6
CONTINUOUS
10
124.42
20
-94.7571
11
124.275
21
-94.7859
0
LINE
8
BLACK
6
CONTINUOUS
10
124.275
20
-94.7859
11
124.127
21
-94.7859
0
LINE
8
BLACK
6
CONTINUOUS
10
124.127
20
-94.7859
11
123.982
21
-94.7571
0
LINE
8
BLACK
6
CONTINUOUS
10
123.982
20
-94.7571
11
123.846
21
-94.7005
0
LINE
8
BLACK
6
CONTINUOUS
10
123.846
20
-94.7005
11
123.723
21
-94.6184
0
LINE
8
BLACK
6
CONTINUOUS
10
123.723
20
-94.6184
11
123.618
21
-94.514
0
LINE
8
BLACK
6
CONTINUOUS
10
123.618
20
-94.514
11
123.536
21
-94.3911
0
LINE
8
BLACK
6
CONTINUOUS
10
123.536
20
-94.3911
11
123.48
21
-94.2546
0
LINE
8
BLACK
6
CONTINUOUS
10
123.48
20
-94.2546
11
123.451
21
-94.1097
0
LINE
8
BLACK
6
CONTINUOUS
10
123.451
20
-94.1097
11
123.451
21
-93.962
0
LINE
8
BLACK
6
CONTINUOUS
10
123.451
20
-93.962
11
123.48
21
-93.8171
0
LINE
8
BLACK
6
CONTINUOUS
10
123.48
20
-93.8171
11
123.536
21
-93.6806
0
LINE
8
BLACK
6
CONTINUOUS
10
123.536
20
-93.6806
11
123.618
21
-93.5578
0
LINE
8
BLACK
6
CONTINUOUS
10
123.618
20
-93.5578
11
123.723
21
-93.4533
0
LINE
8
BLACK
6
CONTINUOUS
10
123.723
20
-93.4533
11
123.846
21
-93.3712
0
LINE
8
BLACK
6
CONTINUOUS
10
123.846
20
-93.3712
11
123.982
21
-93.3147
0
LINE
8
BLACK
6
CONTINUOUS
10
123.982
20
-93.3147
11
124.127
21
-93.2859
0
LINE
8
BLACK
6
CONTINUOUS
10
124.127
20
-93.2859
11
124.275
21
-93.2859
0
LINE
8
BLACK
6
CONTINUOUS
10
124.275
20
-93.2859
11
124.42
21
-93.3147
  0
ENDSEC
  0
EOF
