  0
SECTION
  2
HEADER
  9
$ANGBASE
  50
0.0
  9
$ANGDIR
  70
  1
  9
$MEASUREMENT
  70
0
  0
ENDSEC
  0
SECTION
  2
TABLES
  0
TABLE
  2
LTYPE
  70
4
  0
LTYPE
  5
40F
  2
CONTINUOUS
  70
0
  3
Solid line
  72
65
  73
0
  40
0.0
  0
LTYPE
  5
410
  2
DASHDOT
 70
0
  3
Dash Dot ____ _ ____ _
 72
65
 73
4
 40
2.0
 49
1.25
 49
-0.25
 49
0.25
 49
-0.25
  0
LTYPE
  5
411
  2
DASHED
 70
0
  3
Dashed __ __ __ __ __
 72
65
 73
2
 40
0.75
 49
0.5
 49
-0.25
  0
LTYPE
  5
43B
  2
DOTTED
 70
0
  3
Dotted .  .  .  .
 72
65
 73
2
 40
0.2
 49
0.0
 49
-0.2
  0
ENDTAB
  0
TABLE
  2
STYLE
  70
4
  0
STYLE
  2
KICAD
  70
0
  40
0
  41
1
  42
1
  50
0
  71
0
  3
isocp.shx
  0
STYLE
  2
KICADB
  70
0
  40
0
  41
1
  42
1
  50
0
  71
0
  3
isocp.shx
  0
STYLE
  2
KICADI
  70
0
  40
0
  41
1
  42
1
  50
15
  71
0
  3
isocp.shx
  0
STYLE
  2
KICADBI
  70
0
  40
0
  41
1
  42
1
  50
15
  71
0
  3
isocp.shx
  0
ENDTAB
  0
TABLE
  2
LAYER
  70
30
  0
LAYER
  2
BLACK
  70
0
  62
7
  6
CONTINUOUS
  0
LAYER
  2
GRAY1
  70
0
  62
251
  6
CONTINUOUS
  0
LAYER
  2
GRAY2
  70
0
  62
8
  6
CONTINUOUS
  0
LAYER
  2
GRAY3
  70
0
  62
9
  6
CONTINUOUS
  0
LAYER
  2
WHITE
  70
0
  62
7
  6
CONTINUOUS
  0
LAYER
  2
LYELLOW
  70
0
  62
51
  6
CONTINUOUS
  0
LAYER
  2
BLUE1
  70
0
  62
178
  6
CONTINUOUS
  0
LAYER
  2
GREEN1
  70
0
  62
98
  6
CONTINUOUS
  0
LAYER
  2
CYAN1
  70
0
  62
138
  6
CONTINUOUS
  0
LAYER
  2
RED1
  70
0
  62
18
  6
CONTINUOUS
  0
LAYER
  2
MAGENTA1
  70
0
  62
228
  6
CONTINUOUS
  0
LAYER
  2
BROWN1
  70
0
  62
58
  6
CONTINUOUS
  0
LAYER
  2
BLUE2
  70
0
  62
5
  6
CONTINUOUS
  0
LAYER
  2
GREEN2
  70
0
  62
3
  6
CONTINUOUS
  0
LAYER
  2
CYAN2
  70
0
  62
4
  6
CONTINUOUS
  0
LAYER
  2
RED2
  70
0
  62
1
  6
CONTINUOUS
  0
LAYER
  2
MAGENTA2
  70
0
  62
6
  6
CONTINUOUS
  0
LAYER
  2
BROWN2
  70
0
  62
54
  6
CONTINUOUS
  0
LAYER
  2
BLUE3
  70
0
  62
171
  6
CONTINUOUS
  0
LAYER
  2
GREEN3
  70
0
  62
91
  6
CONTINUOUS
  0
LAYER
  2
CYAN3
  70
0
  62
131
  6
CONTINUOUS
  0
LAYER
  2
RED3
  70
0
  62
11
  6
CONTINUOUS
  0
LAYER
  2
MAGENTA3
  70
0
  62
221
  6
CONTINUOUS
  0
LAYER
  2
YELLOW3
  70
0
  62
2
  6
CONTINUOUS
  0
LAYER
  2
BLUE4
  70
0
  62
5
  6
CONTINUOUS
  0
LAYER
  2
GREEN4
  70
0
  62
3
  6
CONTINUOUS
  0
LAYER
  2
CYAN4
  70
0
  62
4
  6
CONTINUOUS
  0
LAYER
  2
RED4
  70
0
  62
1
  6
CONTINUOUS
  0
LAYER
  2
MAGENTA4
  70
0
  62
6
  6
CONTINUOUS
  0
LAYER
  2
YELLOW4
  70
0
  62
2
  6
CONTINUOUS
  0
ENDTAB
  0
ENDSEC
  0
SECTION
  2
ENTITIES
0
LINE
8
BLACK
6
CONTINUOUS
10
111.225
20
-91.1357
11
111.225
21
-91.1291
0
LINE
8
BLACK
6
CONTINUOUS
10
111.225
20
-91.1291
11
111.227
21
-91.1227
0
LINE
8
BLACK
6
CONTINUOUS
10
111.227
20
-91.1227
11
111.228
21
-91.1161
0
LINE
8
BLACK
6
CONTINUOUS
10
111.228
20
-91.1161
11
111.231
21
-91.1104
0
LINE
8
BLACK
6
CONTINUOUS
10
111.231
20
-91.1104
11
111.234
21
-91.1042
0
LINE
8
BLACK
6
CONTINUOUS
10
111.234
20
-91.1042
11
111.238
21
-91.099
0
LINE
8
BLACK
6
CONTINUOUS
10
111.238
20
-91.099
11
111.241
21
-91.0932
0
LINE
8
BLACK
6
CONTINUOUS
10
111.241
20
-91.0932
11
111.246
21
-91.0889
0
LINE
8
BLACK
6
CONTINUOUS
10
111.246
20
-91.0889
11
111.251
21
-91.0839
0
LINE
8
BLACK
6
CONTINUOUS
10
111.251
20
-91.0839
11
111.256
21
-91.0805
0
LINE
8
BLACK
6
CONTINUOUS
10
111.256
20
-91.0805
11
111.262
21
-91.0761
0
LINE
8
BLACK
6
CONTINUOUS
10
111.262
20
-91.0761
11
111.268
21
-91.0739
0
LINE
8
BLACK
6
CONTINUOUS
10
111.268
20
-91.0739
11
111.273
21
-91.0706
0
LINE
8
BLACK
6
CONTINUOUS
10
111.273
20
-91.0706
11
111.28
21
-91.0694
0
LINE
8
BLACK
6
CONTINUOUS
10
111.28
20
-91.0694
11
111.286
21
-91.0671
0
LINE
8
BLACK
6
CONTINUOUS
10
111.286
20
-91.0671
11
111.293
21
-91.0671
0
LINE
8
BLACK
6
CONTINUOUS
10
111.293
20
-91.0671
11
111.299
21
-91.0659
0
LINE
8
BLACK
6
CONTINUOUS
10
111.299
20
-91.0659
11
111.376
21
-91.0657
0
LINE
8
BLACK
6
CONTINUOUS
10
111.376
20
-91.0657
11
111.743
21
-90.9915
0
LINE
8
BLACK
6
CONTINUOUS
10
111.743
20
-90.9915
11
111.866
21
-90.9403
0
LINE
8
BLACK
6
CONTINUOUS
10
111.866
20
-90.9403
11
112.177
21
-90.731
0
LINE
8
BLACK
6
CONTINUOUS
10
112.177
20
-90.731
11
112.271
21
-90.6367
0
LINE
8
BLACK
6
CONTINUOUS
10
112.271
20
-90.6367
11
112.479
21
-90.3241
0
LINE
8
BLACK
6
CONTINUOUS
10
112.479
20
-90.3241
11
112.529
21
-90.2011
0
LINE
8
BLACK
6
CONTINUOUS
10
112.529
20
-90.2011
11
112.602
21
-89.8329
0
LINE
8
BLACK
6
CONTINUOUS
10
112.602
20
-89.8329
11
112.601
21
-89.6999
0
LINE
8
BLACK
6
CONTINUOUS
10
112.601
20
-89.6999
11
112.527
21
-89.3322
0
LINE
8
BLACK
6
CONTINUOUS
10
112.527
20
-89.3322
11
112.476
21
-89.2094
0
LINE
8
BLACK
6
CONTINUOUS
10
112.476
20
-89.2094
11
112.266
21
-88.898
0
LINE
8
BLACK
6
CONTINUOUS
10
112.266
20
-88.898
11
112.172
21
-88.8042
0
LINE
8
BLACK
6
CONTINUOUS
10
112.172
20
-88.8042
11
111.86
21
-88.5967
0
LINE
8
BLACK
6
CONTINUOUS
10
111.86
20
-88.5967
11
111.737
21
-88.5461
0
LINE
8
BLACK
6
CONTINUOUS
10
111.737
20
-88.5461
11
111.368
21
-88.4739
0
LINE
8
BLACK
6
CONTINUOUS
10
111.368
20
-88.4739
11
111.3
21
-88.4741
0
LINE
8
BLACK
6
CONTINUOUS
10
111.3
20
-88.4741
11
111.293
21
-88.4729
0
LINE
8
BLACK
6
CONTINUOUS
10
111.293
20
-88.4729
11
111.286
21
-88.4729
0
LINE
8
BLACK
6
CONTINUOUS
10
111.286
20
-88.4729
11
111.28
21
-88.4707
0
LINE
8
BLACK
6
CONTINUOUS
10
111.28
20
-88.4707
11
111.274
21
-88.4696
0
LINE
8
BLACK
6
CONTINUOUS
10
111.274
20
-88.4696
11
111.268
21
-88.4662
0
LINE
8
BLACK
6
CONTINUOUS
10
111.268
20
-88.4662
11
111.262
21
-88.4639
0
LINE
8
BLACK
6
CONTINUOUS
10
111.262
20
-88.4639
11
111.257
21
-88.4597
0
LINE
8
BLACK
6
CONTINUOUS
10
111.257
20
-88.4597
11
111.251
21
-88.4564
0
LINE
8
BLACK
6
CONTINUOUS
10
111.251
20
-88.4564
11
111.246
21
-88.4512
0
LINE
8
BLACK
6
CONTINUOUS
10
111.246
20
-88.4512
11
111.241
21
-88.4469
0
LINE
8
BLACK
6
CONTINUOUS
10
111.241
20
-88.4469
11
111.238
21
-88.4412
0
LINE
8
BLACK
6
CONTINUOUS
10
111.238
20
-88.4412
11
111.234
21
-88.4362
0
LINE
8
BLACK
6
CONTINUOUS
10
111.234
20
-88.4362
11
111.231
21
-88.4298
0
LINE
8
BLACK
6
CONTINUOUS
10
111.231
20
-88.4298
11
111.228
21
-88.424
0
LINE
8
BLACK
6
CONTINUOUS
10
111.228
20
-88.424
11
111.227
21
-88.4175
0
LINE
8
BLACK
6
CONTINUOUS
10
111.227
20
-88.4175
11
111.225
21
-88.4113
0
LINE
8
BLACK
6
CONTINUOUS
10
111.225
20
-88.4113
11
111.225
21
-88.4046
0
LINE
8
BLACK
6
CONTINUOUS
10
111.225
20
-88.4046
11
111.223
21
-88.3979
0
LINE
8
BLACK
6
CONTINUOUS
10
111.223
20
-88.3979
11
111.223
21
-76.2427
0
LINE
8
BLACK
6
CONTINUOUS
10
111.223
20
-76.2427
11
111.225
21
-76.2361
0
LINE
8
BLACK
6
CONTINUOUS
10
111.225
20
-76.2361
11
111.225
21
-76.2294
0
LINE
8
BLACK
6
CONTINUOUS
10
111.225
20
-76.2294
11
111.227
21
-76.2232
0
LINE
8
BLACK
6
CONTINUOUS
10
111.227
20
-76.2232
11
111.228
21
-76.2166
0
LINE
8
BLACK
6
CONTINUOUS
10
111.228
20
-76.2166
11
111.231
21
-76.2108
0
LINE
8
BLACK
6
CONTINUOUS
10
111.231
20
-76.2108
11
111.234
21
-76.2046
0
LINE
8
BLACK
6
CONTINUOUS
10
111.234
20
-76.2046
11
111.238
21
-76.1994
0
LINE
8
BLACK
6
CONTINUOUS
10
111.238
20
-76.1994
11
111.241
21
-76.1937
0
LINE
8
BLACK
6
CONTINUOUS
10
111.241
20
-76.1937
11
111.246
21
-76.1894
0
LINE
8
BLACK
6
CONTINUOUS
10
111.246
20
-76.1894
11
111.251
21
-76.1843
0
LINE
8
BLACK
6
CONTINUOUS
10
111.251
20
-76.1843
11
111.256
21
-76.1809
0
LINE
8
BLACK
6
CONTINUOUS
10
111.256
20
-76.1809
11
111.262
21
-76.1767
0
LINE
8
BLACK
6
CONTINUOUS
10
111.262
20
-76.1767
11
111.268
21
-76.1744
0
LINE
8
BLACK
6
CONTINUOUS
10
111.268
20
-76.1744
11
111.274
21
-76.171
0
LINE
8
BLACK
6
CONTINUOUS
10
111.274
20
-76.171
11
111.28
21
-76.1699
0
LINE
8
BLACK
6
CONTINUOUS
10
111.28
20
-76.1699
11
111.286
21
-76.1676
0
LINE
8
BLACK
6
CONTINUOUS
10
111.286
20
-76.1676
11
111.293
21
-76.1676
0
LINE
8
BLACK
6
CONTINUOUS
10
111.293
20
-76.1676
11
111.3
21
-76.1665
0
LINE
8
BLACK
6
CONTINUOUS
10
111.3
20
-76.1665
11
116.991
21
-76.1665
0
LINE
8
BLACK
6
CONTINUOUS
10
116.991
20
-76.1665
11
116.997
21
-76.1676
0
LINE
8
BLACK
6
CONTINUOUS
10
116.997
20
-76.1676
11
117.004
21
-76.1676
0
LINE
8
BLACK
6
CONTINUOUS
10
117.004
20
-76.1676
11
117.01
21
-76.1699
0
LINE
8
BLACK
6
CONTINUOUS
10
117.01
20
-76.1699
11
117.017
21
-76.171
0
LINE
8
BLACK
6
CONTINUOUS
10
117.017
20
-76.171
11
117.022
21
-76.1744
0
LINE
8
BLACK
6
CONTINUOUS
10
117.022
20
-76.1744
11
117.029
21
-76.1767
0
LINE
8
BLACK
6
CONTINUOUS
10
117.029
20
-76.1767
11
117.034
21
-76.181
0
LINE
8
BLACK
6
CONTINUOUS
10
117.034
20
-76.181
11
117.04
21
-76.1843
0
LINE
8
BLACK
6
CONTINUOUS
10
117.04
20
-76.1843
11
117.044
21
-76.1894
0
LINE
8
BLACK
6
CONTINUOUS
10
117.044
20
-76.1894
11
117.049
21
-76.1937
0
LINE
8
BLACK
6
CONTINUOUS
10
117.049
20
-76.1937
11
117.052
21
-76.1995
0
LINE
8
BLACK
6
CONTINUOUS
10
117.052
20
-76.1995
11
117.057
21
-76.2046
0
LINE
8
BLACK
6
CONTINUOUS
10
117.057
20
-76.2046
11
117.059
21
-76.2108
0
LINE
8
BLACK
6
CONTINUOUS
10
117.059
20
-76.2108
11
117.062
21
-76.2166
0
LINE
8
BLACK
6
CONTINUOUS
10
117.062
20
-76.2166
11
117.063
21
-76.2232
0
LINE
8
BLACK
6
CONTINUOUS
10
117.063
20
-76.2232
11
117.066
21
-76.2294
0
LINE
8
BLACK
6
CONTINUOUS
10
117.066
20
-76.2294
11
117.066
21
-76.2361
0
LINE
8
BLACK
6
CONTINUOUS
10
117.066
20
-76.2361
11
117.067
21
-76.2427
0
LINE
8
BLACK
6
CONTINUOUS
10
117.067
20
-76.2427
11
117.055
21
-92.6777
0
LINE
8
BLACK
6
CONTINUOUS
10
117.055
20
-92.6777
11
117.054
21
-92.6851
0
LINE
8
BLACK
6
CONTINUOUS
10
117.054
20
-92.6851
11
117.054
21
-92.6925
0
LINE
8
BLACK
6
CONTINUOUS
10
117.054
20
-92.6925
11
117.049
21
-92.7152
0
LINE
8
BLACK
6
CONTINUOUS
10
117.049
20
-92.7152
11
117.061
21
-92.7742
0
LINE
8
BLACK
6
CONTINUOUS
10
117.061
20
-92.7742
11
117.061
21
-92.7743
0
LINE
8
BLACK
6
CONTINUOUS
10
117.061
20
-92.7743
11
117.061
21
-92.7743
0
LINE
8
BLACK
6
CONTINUOUS
10
117.061
20
-92.7743
11
117.073
21
-92.8334
0
LINE
8
BLACK
6
CONTINUOUS
10
117.073
20
-92.8334
11
117.106
21
-92.8835
0
LINE
8
BLACK
6
CONTINUOUS
10
117.106
20
-92.8835
11
117.106
21
-92.8835
0
LINE
8
BLACK
6
CONTINUOUS
10
117.106
20
-92.8835
11
117.106
21
-92.8835
0
LINE
8
BLACK
6
CONTINUOUS
10
117.106
20
-92.8835
11
117.14
21
-92.9337
0
LINE
8
BLACK
6
CONTINUOUS
10
117.14
20
-92.9337
11
117.19
21
-92.9671
0
LINE
8
BLACK
6
CONTINUOUS
10
117.19
20
-92.9671
11
117.19
21
-92.9671
0
LINE
8
BLACK
6
CONTINUOUS
10
117.19
20
-92.9671
11
117.19
21
-92.9671
0
LINE
8
BLACK
6
CONTINUOUS
10
117.19
20
-92.9671
11
117.24
21
-93.0007
0
LINE
8
BLACK
6
CONTINUOUS
10
117.24
20
-93.0007
11
117.299
21
-93.0125
0
LINE
8
BLACK
6
CONTINUOUS
10
117.299
20
-93.0125
11
117.299
21
-93.0125
0
LINE
8
BLACK
6
CONTINUOUS
10
117.299
20
-93.0125
11
117.299
21
-93.0125
0
LINE
8
BLACK
6
CONTINUOUS
10
117.299
20
-93.0125
11
117.358
21
-93.0242
0
LINE
8
BLACK
6
CONTINUOUS
10
117.358
20
-93.0242
11
117.381
21
-93.0197
0
LINE
8
BLACK
6
CONTINUOUS
10
117.381
20
-93.0197
11
117.388
21
-93.0196
0
LINE
8
BLACK
6
CONTINUOUS
10
117.388
20
-93.0196
11
117.395
21
-93.0183
0
LINE
8
BLACK
6
CONTINUOUS
10
117.395
20
-93.0183
11
122.767
21
-93.0158
0
LINE
8
BLACK
6
CONTINUOUS
10
122.767
20
-93.0158
11
122.778
21
-93.0176
0
LINE
8
BLACK
6
CONTINUOUS
10
122.778
20
-93.0176
11
122.788
21
-93.0187
0
LINE
8
BLACK
6
CONTINUOUS
10
122.788
20
-93.0187
11
122.79
21
-93.0199
0
LINE
8
BLACK
6
CONTINUOUS
10
122.79
20
-93.0199
11
122.793
21
-93.0203
0
LINE
8
BLACK
6
CONTINUOUS
10
122.793
20
-93.0203
11
122.802
21
-93.0256
0
LINE
8
BLACK
6
CONTINUOUS
10
122.802
20
-93.0256
11
122.812
21
-93.0302
0
LINE
8
BLACK
6
CONTINUOUS
10
122.812
20
-93.0302
11
122.814
21
-93.0322
0
LINE
8
BLACK
6
CONTINUOUS
10
122.814
20
-93.0322
11
122.816
21
-93.0336
0
LINE
8
BLACK
6
CONTINUOUS
10
122.816
20
-93.0336
11
122.823
21
-93.0417
0
LINE
8
BLACK
6
CONTINUOUS
10
122.823
20
-93.0417
11
122.83
21
-93.0492
0
LINE
8
BLACK
6
CONTINUOUS
10
122.83
20
-93.0492
11
122.831
21
-93.0517
0
LINE
8
BLACK
6
CONTINUOUS
10
122.831
20
-93.0517
11
122.833
21
-93.0538
0
LINE
8
BLACK
6
CONTINUOUS
10
122.833
20
-93.0538
11
122.837
21
-93.0638
0
LINE
8
BLACK
6
CONTINUOUS
10
122.837
20
-93.0638
11
122.841
21
-93.0734
0
LINE
8
BLACK
6
CONTINUOUS
10
122.841
20
-93.0734
11
122.841
21
-93.0761
0
LINE
8
BLACK
6
CONTINUOUS
10
122.841
20
-93.0761
11
122.842
21
-93.0787
0
LINE
8
BLACK
6
CONTINUOUS
10
122.842
20
-93.0787
11
122.842
21
-93.0893
0
LINE
8
BLACK
6
CONTINUOUS
10
122.842
20
-93.0893
11
122.843
21
-93.0998
0
LINE
8
BLACK
6
CONTINUOUS
10
122.843
20
-93.0998
11
122.703
21
-94.4548
0
LINE
8
BLACK
6
CONTINUOUS
10
122.703
20
-94.4548
11
122.703
21
-94.4577
0
LINE
8
BLACK
6
CONTINUOUS
10
122.703
20
-94.4577
11
122.706
21
-94.4664
0
LINE
8
BLACK
6
CONTINUOUS
10
122.706
20
-94.4664
11
123.083
21
-95.0568
0
LINE
8
BLACK
6
CONTINUOUS
10
123.083
20
-95.0568
11
123.096
21
-95.0692
0
LINE
8
BLACK
6
CONTINUOUS
10
123.096
20
-95.0692
11
123.595
21
-95.3568
0
LINE
8
BLACK
6
CONTINUOUS
10
123.595
20
-95.3568
11
123.614
21
-95.3618
0
LINE
8
BLACK
6
CONTINUOUS
10
123.614
20
-95.3618
11
124.848
21
-95.3618
0
LINE
8
BLACK
6
CONTINUOUS
10
124.848
20
-95.3618
11
124.868
21
-95.3558
0
LINE
8
BLACK
6
CONTINUOUS
10
124.868
20
-95.3558
11
125.225
21
-95.1261
0
LINE
8
BLACK
6
CONTINUOUS
10
125.225
20
-95.1261
11
125.233
21
-95.1187
0
LINE
8
BLACK
6
CONTINUOUS
10
125.233
20
-95.1187
11
125.457
21
-94.8547
0
LINE
8
BLACK
6
CONTINUOUS
10
125.457
20
-94.8547
11
125.463
21
-94.8442
0
LINE
8
BLACK
6
CONTINUOUS
10
125.463
20
-94.8442
11
125.643
21
-94.3905
0
LINE
8
BLACK
6
CONTINUOUS
10
125.643
20
-94.3905
11
125.645
21
-94.3728
0
LINE
8
BLACK
6
CONTINUOUS
10
125.645
20
-94.3728
11
125.516
21
-93.0983
0
LINE
8
BLACK
6
CONTINUOUS
10
125.516
20
-93.0983
11
125.517
21
-93.0879
0
LINE
8
BLACK
6
CONTINUOUS
10
125.517
20
-93.0879
11
125.517
21
-93.0774
0
LINE
8
BLACK
6
CONTINUOUS
10
125.517
20
-93.0774
11
125.517
21
-93.0748
0
LINE
8
BLACK
6
CONTINUOUS
10
125.517
20
-93.0748
11
125.518
21
-93.072
0
LINE
8
BLACK
6
CONTINUOUS
10
125.518
20
-93.072
11
125.522
21
-93.0624
0
LINE
8
BLACK
6
CONTINUOUS
10
125.522
20
-93.0624
11
125.526
21
-93.0526
0
LINE
8
BLACK
6
CONTINUOUS
10
125.526
20
-93.0526
11
125.527
21
-93.0504
0
LINE
8
BLACK
6
CONTINUOUS
10
125.527
20
-93.0504
11
125.529
21
-93.0478
0
LINE
8
BLACK
6
CONTINUOUS
10
125.529
20
-93.0478
11
125.536
21
-93.0403
0
LINE
8
BLACK
6
CONTINUOUS
10
125.536
20
-93.0403
11
125.543
21
-93.0323
0
LINE
8
BLACK
6
CONTINUOUS
10
125.543
20
-93.0323
11
125.545
21
-93.0309
0
LINE
8
BLACK
6
CONTINUOUS
10
125.545
20
-93.0309
11
125.547
21
-93.0288
0
LINE
8
BLACK
6
CONTINUOUS
10
125.547
20
-93.0288
11
125.556
21
-93.0243
0
LINE
8
BLACK
6
CONTINUOUS
10
125.556
20
-93.0243
11
125.565
21
-93.0191
0
LINE
8
BLACK
6
CONTINUOUS
10
125.565
20
-93.0191
11
125.568
21
-93.0186
0
LINE
8
BLACK
6
CONTINUOUS
10
125.568
20
-93.0186
11
125.571
21
-93.0173
0
LINE
8
BLACK
6
CONTINUOUS
10
125.571
20
-93.0173
11
125.581
21
-93.0163
0
LINE
8
BLACK
6
CONTINUOUS
10
125.581
20
-93.0163
11
125.592
21
-93.0144
0
LINE
8
BLACK
6
CONTINUOUS
10
125.592
20
-93.0144
11
127.891
21
-93.0134
0
LINE
8
BLACK
6
CONTINUOUS
10
127.891
20
-93.0134
11
127.897
21
-93.0145
0
LINE
8
BLACK
6
CONTINUOUS
10
127.897
20
-93.0145
11
127.904
21
-93.0145
0
LINE
8
BLACK
6
CONTINUOUS
10
127.904
20
-93.0145
11
127.91
21
-93.0168
0
LINE
8
BLACK
6
CONTINUOUS
10
127.91
20
-93.0168
11
127.917
21
-93.018
0
LINE
8
BLACK
6
CONTINUOUS
10
127.917
20
-93.018
11
127.922
21
-93.0213
0
LINE
8
BLACK
6
CONTINUOUS
10
127.922
20
-93.0213
11
127.929
21
-93.0236
0
LINE
8
BLACK
6
CONTINUOUS
10
127.929
20
-93.0236
11
127.934
21
-93.0279
0
LINE
8
BLACK
6
CONTINUOUS
10
127.934
20
-93.0279
11
127.94
21
-93.0312
0
LINE
8
BLACK
6
CONTINUOUS
10
127.94
20
-93.0312
11
127.944
21
-93.0363
0
LINE
8
BLACK
6
CONTINUOUS
10
127.944
20
-93.0363
11
127.949
21
-93.0406
0
LINE
8
BLACK
6
CONTINUOUS
10
127.949
20
-93.0406
11
127.952
21
-93.0464
0
LINE
8
BLACK
6
CONTINUOUS
10
127.952
20
-93.0464
11
127.957
21
-93.0514
0
LINE
8
BLACK
6
CONTINUOUS
10
127.957
20
-93.0514
11
127.959
21
-93.0577
0
LINE
8
BLACK
6
CONTINUOUS
10
127.959
20
-93.0577
11
127.962
21
-93.0635
0
LINE
8
BLACK
6
CONTINUOUS
10
127.962
20
-93.0635
11
127.963
21
-93.0701
0
LINE
8
BLACK
6
CONTINUOUS
10
127.963
20
-93.0701
11
127.966
21
-93.0763
0
LINE
8
BLACK
6
CONTINUOUS
10
127.966
20
-93.0763
11
127.966
21
-93.083
0
LINE
8
BLACK
6
CONTINUOUS
10
127.966
20
-93.083
11
127.967
21
-93.0896
0
LINE
8
BLACK
6
CONTINUOUS
10
127.967
20
-93.0896
11
127.967
21
-96.9988
0
LINE
8
BLACK
6
CONTINUOUS
10
127.967
20
-96.9988
11
127.966
21
-97.0053
0
LINE
8
BLACK
6
CONTINUOUS
10
127.966
20
-97.0053
11
127.966
21
-97.012
0
LINE
8
BLACK
6
CONTINUOUS
10
127.966
20
-97.012
11
127.963
21
-97.0182
0
LINE
8
BLACK
6
CONTINUOUS
10
127.963
20
-97.0182
11
127.962
21
-97.0248
0
LINE
8
BLACK
6
CONTINUOUS
10
127.962
20
-97.0248
11
127.959
21
-97.0306
0
LINE
8
BLACK
6
CONTINUOUS
10
127.959
20
-97.0306
11
127.957
21
-97.0369
0
LINE
8
BLACK
6
CONTINUOUS
10
127.957
20
-97.0369
11
127.952
21
-97.042
0
LINE
8
BLACK
6
CONTINUOUS
10
127.952
20
-97.042
11
127.949
21
-97.0477
0
LINE
8
BLACK
6
CONTINUOUS
10
127.949
20
-97.0477
11
127.944
21
-97.052
0
LINE
8
BLACK
6
CONTINUOUS
10
127.944
20
-97.052
11
127.94
21
-97.0571
0
LINE
8
BLACK
6
CONTINUOUS
10
127.94
20
-97.0571
11
127.934
21
-97.0605
0
LINE
8
BLACK
6
CONTINUOUS
10
127.934
20
-97.0605
11
127.929
21
-97.0647
0
LINE
8
BLACK
6
CONTINUOUS
10
127.929
20
-97.0647
11
127.922
21
-97.067
0
LINE
8
BLACK
6
CONTINUOUS
10
127.922
20
-97.067
11
127.917
21
-97.0704
0
LINE
8
BLACK
6
CONTINUOUS
10
127.917
20
-97.0704
11
127.91
21
-97.0715
0
LINE
8
BLACK
6
CONTINUOUS
10
127.91
20
-97.0715
11
127.904
21
-97.0738
0
LINE
8
BLACK
6
CONTINUOUS
10
127.904
20
-97.0738
11
127.897
21
-97.0738
0
LINE
8
BLACK
6
CONTINUOUS
10
127.897
20
-97.0738
11
127.891
21
-97.075
0
LINE
8
BLACK
6
CONTINUOUS
10
127.891
20
-97.075
11
111.3
21
-97.075
0
LINE
8
BLACK
6
CONTINUOUS
10
111.3
20
-97.075
11
111.293
21
-97.0738
0
LINE
8
BLACK
6
CONTINUOUS
10
111.293
20
-97.0738
11
111.286
21
-97.0738
0
LINE
8
BLACK
6
CONTINUOUS
10
111.286
20
-97.0738
11
111.28
21
-97.0715
0
LINE
8
BLACK
6
CONTINUOUS
10
111.28
20
-97.0715
11
111.274
21
-97.0704
0
LINE
8
BLACK
6
CONTINUOUS
10
111.274
20
-97.0704
11
111.268
21
-97.067
0
LINE
8
BLACK
6
CONTINUOUS
10
111.268
20
-97.067
11
111.262
21
-97.0647
0
LINE
8
BLACK
6
CONTINUOUS
10
111.262
20
-97.0647
11
111.256
21
-97.0605
0
LINE
8
BLACK
6
CONTINUOUS
10
111.256
20
-97.0605
11
111.251
21
-97.0571
0
LINE
8
BLACK
6
CONTINUOUS
10
111.251
20
-97.0571
11
111.246
21
-97.052
0
LINE
8
BLACK
6
CONTINUOUS
10
111.246
20
-97.052
11
111.241
21
-97.0477
0
LINE
8
BLACK
6
CONTINUOUS
10
111.241
20
-97.0477
11
111.238
21
-97.042
0
LINE
8
BLACK
6
CONTINUOUS
10
111.238
20
-97.042
11
111.234
21
-97.0369
0
LINE
8
BLACK
6
CONTINUOUS
10
111.234
20
-97.0369
11
111.231
21
-97.0306
0
LINE
8
BLACK
6
CONTINUOUS
10
111.231
20
-97.0306
11
111.228
21
-97.0248
0
LINE
8
BLACK
6
CONTINUOUS
10
111.228
20
-97.0248
11
111.227
21
-97.0182
0
LINE
8
BLACK
6
CONTINUOUS
10
111.227
20
-97.0182
11
111.225
21
-97.012
0
LINE
8
BLACK
6
CONTINUOUS
10
111.225
20
-97.012
11
111.225
21
-97.0053
0
LINE
8
BLACK
6
CONTINUOUS
10
111.225
20
-97.0053
11
111.223
21
-96.9988
0
LINE
8
BLACK
6
CONTINUOUS
10
111.223
20
-96.9988
11
111.223
21
-91.1421
0
LINE
8
BLACK
6
CONTINUOUS
10
111.223
20
-91.1421
11
111.225
21
-91.1357
0
LINE
8
BLACK
6
CONTINUOUS
10
113.953
20
-94.1038
11
113.603
21
-94.2489
0
LINE
8
BLACK
6
CONTINUOUS
10
113.603
20
-94.2489
11
113.334
21
-94.517
0
LINE
8
BLACK
6
CONTINUOUS
10
113.334
20
-94.517
11
113.189
21
-94.8674
0
LINE
8
BLACK
6
CONTINUOUS
10
113.189
20
-94.8674
11
113.189
21
-95.2466
0
LINE
8
BLACK
6
CONTINUOUS
10
113.189
20
-95.2466
11
113.334
21
-95.5969
0
LINE
8
BLACK
6
CONTINUOUS
10
113.334
20
-95.5969
11
113.603
21
-95.865
0
LINE
8
BLACK
6
CONTINUOUS
10
113.603
20
-95.865
11
113.953
21
-96.0102
0
LINE
8
BLACK
6
CONTINUOUS
10
113.953
20
-96.0102
11
114.332
21
-96.0102
0
LINE
8
BLACK
6
CONTINUOUS
10
114.332
20
-96.0102
11
114.682
21
-95.865
0
LINE
8
BLACK
6
CONTINUOUS
10
114.682
20
-95.865
11
114.951
21
-95.5969
0
LINE
8
BLACK
6
CONTINUOUS
10
114.951
20
-95.5969
11
115.096
21
-95.2466
0
LINE
8
BLACK
6
CONTINUOUS
10
115.096
20
-95.2466
11
115.096
21
-94.8674
0
LINE
8
BLACK
6
CONTINUOUS
10
115.096
20
-94.8674
11
114.951
21
-94.517
0
LINE
8
BLACK
6
CONTINUOUS
10
114.951
20
-94.517
11
114.682
21
-94.2489
0
LINE
8
BLACK
6
CONTINUOUS
10
114.682
20
-94.2489
11
114.332
21
-94.1038
0
LINE
8
BLACK
6
CONTINUOUS
10
114.332
20
-94.1038
11
113.953
21
-94.1038
0
LINE
8
BLACK
6
CONTINUOUS
10
112.294
20
-80.6905
11
112.205
21
-80.7081
0
LINE
8
BLACK
6
CONTINUOUS
10
112.205
20
-80.7081
11
112.113
21
-80.7695
0
LINE
8
BLACK
6
CONTINUOUS
10
112.113
20
-80.7695
11
112.052
21
-80.8616
0
LINE
8
BLACK
6
CONTINUOUS
10
112.052
20
-80.8616
11
112.03
21
-80.9701
0
LINE
8
BLACK
6
CONTINUOUS
10
112.03
20
-80.9701
11
112.034
21
-80.9902
0
LINE
8
BLACK
6
CONTINUOUS
10
112.034
20
-80.9902
11
112.034
21
-80.9976
0
LINE
8
BLACK
6
CONTINUOUS
10
112.034
20
-80.9976
11
112.036
21
-81.005
0
LINE
8
BLACK
6
CONTINUOUS
10
112.036
20
-81.005
11
112.036
21
-83.3228
0
LINE
8
BLACK
6
CONTINUOUS
10
112.036
20
-83.3228
11
112.034
21
-83.3302
0
LINE
8
BLACK
6
CONTINUOUS
10
112.034
20
-83.3302
11
112.034
21
-83.3377
0
LINE
8
BLACK
6
CONTINUOUS
10
112.034
20
-83.3377
11
112.03
21
-83.3577
0
LINE
8
BLACK
6
CONTINUOUS
10
112.03
20
-83.3577
11
112.052
21
-83.4663
0
LINE
8
BLACK
6
CONTINUOUS
10
112.052
20
-83.4663
11
112.113
21
-83.5583
0
LINE
8
BLACK
6
CONTINUOUS
10
112.113
20
-83.5583
11
112.205
21
-83.6198
0
LINE
8
BLACK
6
CONTINUOUS
10
112.205
20
-83.6198
11
112.294
21
-83.6374
0
LINE
8
BLACK
6
CONTINUOUS
10
112.294
20
-83.6374
11
112.314
21
-83.6414
0
LINE
8
BLACK
6
CONTINUOUS
10
112.314
20
-83.6414
11
112.334
21
-83.6374
0
LINE
8
BLACK
6
CONTINUOUS
10
112.334
20
-83.6374
11
112.341
21
-83.6372
0
LINE
8
BLACK
6
CONTINUOUS
10
112.341
20
-83.6372
11
112.349
21
-83.6359
0
LINE
8
BLACK
6
CONTINUOUS
10
112.349
20
-83.6359
11
115.936
21
-83.6359
0
LINE
8
BLACK
6
CONTINUOUS
10
115.936
20
-83.6359
11
115.943
21
-83.6372
0
LINE
8
BLACK
6
CONTINUOUS
10
115.943
20
-83.6372
11
115.951
21
-83.6374
0
LINE
8
BLACK
6
CONTINUOUS
10
115.951
20
-83.6374
11
115.971
21
-83.6414
0
LINE
8
BLACK
6
CONTINUOUS
10
115.971
20
-83.6414
11
115.991
21
-83.6374
0
LINE
8
BLACK
6
CONTINUOUS
10
115.991
20
-83.6374
11
115.992
21
-83.6373
0
LINE
8
BLACK
6
CONTINUOUS
10
115.992
20
-83.6373
11
116.025
21
-83.6306
0
LINE
8
BLACK
6
CONTINUOUS
10
116.025
20
-83.6306
11
116.025
21
-83.6306
0
LINE
8
BLACK
6
CONTINUOUS
10
116.025
20
-83.6306
11
116.025
21
-83.6306
0
LINE
8
BLACK
6
CONTINUOUS
10
116.025
20
-83.6306
11
116.08
21
-83.62
0
LINE
8
BLACK
6
CONTINUOUS
10
116.08
20
-83.62
11
116.126
21
-83.5891
0
LINE
8
BLACK
6
CONTINUOUS
10
116.126
20
-83.5891
11
116.126
21
-83.5891
0
LINE
8
BLACK
6
CONTINUOUS
10
116.126
20
-83.5891
11
116.126
21
-83.589
0
LINE
8
BLACK
6
CONTINUOUS
10
116.126
20
-83.589
11
116.172
21
-83.5585
0
LINE
8
BLACK
6
CONTINUOUS
10
116.172
20
-83.5585
11
116.203
21
-83.5124
0
LINE
8
BLACK
6
CONTINUOUS
10
116.203
20
-83.5124
11
116.203
21
-83.5123
0
LINE
8
BLACK
6
CONTINUOUS
10
116.203
20
-83.5123
11
116.203
21
-83.5122
0
LINE
8
BLACK
6
CONTINUOUS
10
116.203
20
-83.5122
11
116.233
21
-83.4666
0
LINE
8
BLACK
6
CONTINUOUS
10
116.233
20
-83.4666
11
116.244
21
-83.412
0
LINE
8
BLACK
6
CONTINUOUS
10
116.244
20
-83.412
11
116.244
21
-83.4119
0
LINE
8
BLACK
6
CONTINUOUS
10
116.244
20
-83.4119
11
116.244
21
-83.4118
0
LINE
8
BLACK
6
CONTINUOUS
10
116.244
20
-83.4118
11
116.251
21
-83.3786
0
LINE
8
BLACK
6
CONTINUOUS
10
116.251
20
-83.3786
11
116.251
21
-83.3781
0
LINE
8
BLACK
6
CONTINUOUS
10
116.251
20
-83.3781
11
116.255
21
-83.3577
0
LINE
8
BLACK
6
CONTINUOUS
10
116.255
20
-83.3577
11
116.251
21
-83.3381
0
LINE
8
BLACK
6
CONTINUOUS
10
116.251
20
-83.3381
11
116.251
21
-83.3305
0
LINE
8
BLACK
6
CONTINUOUS
10
116.251
20
-83.3305
11
116.25
21
-83.323
0
LINE
8
BLACK
6
CONTINUOUS
10
116.25
20
-83.323
11
116.255
21
-81.0052
0
LINE
8
BLACK
6
CONTINUOUS
10
116.255
20
-81.0052
11
116.256
21
-80.9979
0
LINE
8
BLACK
6
CONTINUOUS
10
116.256
20
-80.9979
11
116.256
21
-80.9905
0
LINE
8
BLACK
6
CONTINUOUS
10
116.256
20
-80.9905
11
116.26
21
-80.9701
0
LINE
8
BLACK
6
CONTINUOUS
10
116.26
20
-80.9701
11
116.238
21
-80.8616
0
LINE
8
BLACK
6
CONTINUOUS
10
116.238
20
-80.8616
11
116.177
21
-80.7695
0
LINE
8
BLACK
6
CONTINUOUS
10
116.177
20
-80.7695
11
116.085
21
-80.7081
0
LINE
8
BLACK
6
CONTINUOUS
10
116.085
20
-80.7081
11
116.004
21
-80.6919
0
LINE
8
BLACK
6
CONTINUOUS
10
116.004
20
-80.6919
11
115.986
21
-80.6919
0
LINE
8
BLACK
6
CONTINUOUS
10
115.986
20
-80.6919
11
115.979
21
-80.6906
0
LINE
8
BLACK
6
CONTINUOUS
10
115.979
20
-80.6906
11
115.978
21
-80.6906
0
LINE
8
BLACK
6
CONTINUOUS
10
115.978
20
-80.6906
11
115.975
21
-80.6906
0
LINE
8
BLACK
6
CONTINUOUS
10
115.975
20
-80.6906
11
115.968
21
-80.6919
0
LINE
8
BLACK
6
CONTINUOUS
10
115.968
20
-80.6919
11
112.349
21
-80.6919
0
LINE
8
BLACK
6
CONTINUOUS
10
112.349
20
-80.6919
11
112.341
21
-80.6906
0
LINE
8
BLACK
6
CONTINUOUS
10
112.341
20
-80.6906
11
112.334
21
-80.6905
0
LINE
8
BLACK
6
CONTINUOUS
10
112.334
20
-80.6905
11
112.314
21
-80.6865
0
LINE
8
BLACK
6
CONTINUOUS
10
112.314
20
-80.6865
11
112.294
21
-80.6905
0
LINE
8
BLACK
6
CONTINUOUS
10
114.403
20
-94.3413
11
114.632
21
-94.4736
0
LINE
8
BLACK
6
CONTINUOUS
10
114.632
20
-94.4736
11
114.802
21
-94.6762
0
LINE
8
BLACK
6
CONTINUOUS
10
114.802
20
-94.6762
11
114.893
21
-94.9247
0
LINE
8
BLACK
6
CONTINUOUS
10
114.893
20
-94.9247
11
114.893
21
-95.1892
0
LINE
8
BLACK
6
CONTINUOUS
10
114.893
20
-95.1892
11
114.802
21
-95.4377
0
LINE
8
BLACK
6
CONTINUOUS
10
114.802
20
-95.4377
11
114.632
21
-95.6404
0
LINE
8
BLACK
6
CONTINUOUS
10
114.632
20
-95.6404
11
114.403
21
-95.7726
0
LINE
8
BLACK
6
CONTINUOUS
10
114.403
20
-95.7726
11
114.143
21
-95.8185
0
LINE
8
BLACK
6
CONTINUOUS
10
114.143
20
-95.8185
11
113.882
21
-95.7726
0
LINE
8
BLACK
6
CONTINUOUS
10
113.882
20
-95.7726
11
113.653
21
-95.6404
0
LINE
8
BLACK
6
CONTINUOUS
10
113.653
20
-95.6404
11
113.483
21
-95.4377
0
LINE
8
BLACK
6
CONTINUOUS
10
113.483
20
-95.4377
11
113.393
21
-95.1892
0
LINE
8
BLACK
6
CONTINUOUS
10
113.393
20
-95.1892
11
113.393
21
-94.9247
0
LINE
8
BLACK
6
CONTINUOUS
10
113.393
20
-94.9247
11
113.483
21
-94.6762
0
LINE
8
BLACK
6
CONTINUOUS
10
113.483
20
-94.6762
11
113.653
21
-94.4736
0
LINE
8
BLACK
6
CONTINUOUS
10
113.653
20
-94.4736
11
113.882
21
-94.3413
0
LINE
8
BLACK
6
CONTINUOUS
10
113.882
20
-94.3413
11
114.143
21
-94.2954
0
LINE
8
BLACK
6
CONTINUOUS
10
114.143
20
-94.2954
11
114.403
21
-94.3413
0
LINE
8
BLACK
6
CONTINUOUS
10
124.461
20
-93.3202
11
124.69
21
-93.4525
0
LINE
8
BLACK
6
CONTINUOUS
10
124.69
20
-93.4525
11
124.86
21
-93.6551
0
LINE
8
BLACK
6
CONTINUOUS
10
124.86
20
-93.6551
11
124.951
21
-93.9036
0
LINE
8
BLACK
6
CONTINUOUS
10
124.951
20
-93.9036
11
124.951
21
-94.1681
0
LINE
8
BLACK
6
CONTINUOUS
10
124.951
20
-94.1681
11
124.86
21
-94.4167
0
LINE
8
BLACK
6
CONTINUOUS
10
124.86
20
-94.4167
11
124.69
21
-94.6193
0
LINE
8
BLACK
6
CONTINUOUS
10
124.69
20
-94.6193
11
124.461
21
-94.7515
0
LINE
8
BLACK
6
CONTINUOUS
10
124.461
20
-94.7515
11
124.201
21
-94.7974
0
LINE
8
BLACK
6
CONTINUOUS
10
124.201
20
-94.7974
11
123.94
21
-94.7515
0
LINE
8
BLACK
6
CONTINUOUS
10
123.94
20
-94.7515
11
123.711
21
-94.6193
0
LINE
8
BLACK
6
CONTINUOUS
10
123.711
20
-94.6193
11
123.541
21
-94.4167
0
LINE
8
BLACK
6
CONTINUOUS
10
123.541
20
-94.4167
11
123.451
21
-94.1681
0
LINE
8
BLACK
6
CONTINUOUS
10
123.451
20
-94.1681
11
123.451
21
-93.9036
0
LINE
8
BLACK
6
CONTINUOUS
10
123.451
20
-93.9036
11
123.541
21
-93.6551
0
LINE
8
BLACK
6
CONTINUOUS
10
123.541
20
-93.6551
11
123.711
21
-93.4525
0
LINE
8
BLACK
6
CONTINUOUS
10
123.711
20
-93.4525
11
123.94
21
-93.3202
0
LINE
8
BLACK
6
CONTINUOUS
10
123.94
20
-93.3202
11
124.201
21
-93.2743
0
LINE
8
BLACK
6
CONTINUOUS
10
124.201
20
-93.2743
11
124.461
21
-93.3202
0
CIRCLE
8
BLACK
10
127.142
20
-93.919
40
0.2286
0
CIRCLE
8
BLACK
10
116.383
20
-76.9332
40
0.1524
0
CIRCLE
8
BLACK
10
116.383
20
-77.7646
40
0.1524
0
CIRCLE
8
BLACK
10
116.439
20
-78.7197
40
0.1524
0
CIRCLE
8
BLACK
10
116.586
20
-79.5325
40
0.1524
0
CIRCLE
8
BLACK
10
123.566
20
-96.7283
40
0.1524
  0
ENDSEC
  0
EOF
