G04 #@! TF.GenerationSoftware,KiCad,Pcbnew,(5.0.2)-1*
G04 #@! TF.CreationDate,2019-05-03T15:30:51-04:00*
G04 #@! TF.ProjectId,TrafMasterV1,54726166-4d61-4737-9465-7256312e6b69,V1*
G04 #@! TF.SameCoordinates,Original*
G04 #@! TF.FileFunction,Other,Fab,Top*
%FSLAX46Y46*%
G04 Gerber Fmt 4.6, Leading zero omitted, Abs format (unit mm)*
G04 Created by KiCad (PCBNEW (5.0.2)-1) date 5/3/2019 3:30:51 PM*
%MOMM*%
%LPD*%
G01*
G04 APERTURE LIST*
%ADD10C,0.150000*%
%ADD11C,0.100000*%
G04 APERTURE END LIST*
D10*
G04 #@! TO.C,P4*
X25740360Y-20091400D02*
G75*
G03X25740360Y-20091400I-950000J0D01*
G01*
G04 #@! TO.C,P5*
X20736560Y-18084800D02*
G75*
G03X20736560Y-18084800I-950000J0D01*
G01*
G04 #@! TO.C,P13*
X39135200Y-61891160D02*
X39135200Y-65891160D01*
X39235200Y-65891160D02*
X41435200Y-65891160D01*
X41535200Y-65891160D02*
X41535200Y-61891160D01*
X41335200Y-61891160D02*
X39135200Y-61891160D01*
X40335200Y-61791160D02*
X40335200Y-61291160D01*
G04 #@! TO.C,P14*
X43338500Y-36836500D02*
X39338500Y-36836500D01*
X39338500Y-36936500D02*
X39338500Y-39136500D01*
X39338500Y-39236500D02*
X43338500Y-39236500D01*
X43338500Y-39036500D02*
X43338500Y-36836500D01*
X43438500Y-38036500D02*
X43938500Y-38036500D01*
G04 #@! TD*
G04 #@! TO.C,P4*
D11*
X24495161Y-20272352D02*
X24495161Y-19872352D01*
X24647542Y-19872352D01*
X24685638Y-19891400D01*
X24704685Y-19910447D01*
X24723733Y-19948542D01*
X24723733Y-20005685D01*
X24704685Y-20043780D01*
X24685638Y-20062828D01*
X24647542Y-20081876D01*
X24495161Y-20081876D01*
X25066590Y-20005685D02*
X25066590Y-20272352D01*
X24971352Y-19853304D02*
X24876114Y-20139019D01*
X25123733Y-20139019D01*
G04 #@! TO.C,P5*
X19491361Y-18265752D02*
X19491361Y-17865752D01*
X19643742Y-17865752D01*
X19681838Y-17884800D01*
X19700885Y-17903847D01*
X19719933Y-17941942D01*
X19719933Y-17999085D01*
X19700885Y-18037180D01*
X19681838Y-18056228D01*
X19643742Y-18075276D01*
X19491361Y-18075276D01*
X20081838Y-17865752D02*
X19891361Y-17865752D01*
X19872314Y-18056228D01*
X19891361Y-18037180D01*
X19929457Y-18018133D01*
X20024695Y-18018133D01*
X20062790Y-18037180D01*
X20081838Y-18056228D01*
X20100885Y-18094323D01*
X20100885Y-18189561D01*
X20081838Y-18227657D01*
X20062790Y-18246704D01*
X20024695Y-18265752D01*
X19929457Y-18265752D01*
X19891361Y-18246704D01*
X19872314Y-18227657D01*
G04 #@! TO.C,P13*
X40561390Y-64498302D02*
X40061390Y-64498302D01*
X40061390Y-64307826D01*
X40085200Y-64260207D01*
X40109009Y-64236398D01*
X40156628Y-64212588D01*
X40228057Y-64212588D01*
X40275676Y-64236398D01*
X40299485Y-64260207D01*
X40323295Y-64307826D01*
X40323295Y-64498302D01*
X40561390Y-63736398D02*
X40561390Y-64022112D01*
X40561390Y-63879255D02*
X40061390Y-63879255D01*
X40132819Y-63926874D01*
X40180438Y-63974493D01*
X40204247Y-64022112D01*
X40061390Y-63569731D02*
X40061390Y-63260207D01*
X40251866Y-63426874D01*
X40251866Y-63355445D01*
X40275676Y-63307826D01*
X40299485Y-63284017D01*
X40347104Y-63260207D01*
X40466152Y-63260207D01*
X40513771Y-63284017D01*
X40537580Y-63307826D01*
X40561390Y-63355445D01*
X40561390Y-63498302D01*
X40537580Y-63545921D01*
X40513771Y-63569731D01*
G04 #@! TO.C,P14*
X40731357Y-38262690D02*
X40731357Y-37762690D01*
X40921833Y-37762690D01*
X40969452Y-37786500D01*
X40993261Y-37810309D01*
X41017071Y-37857928D01*
X41017071Y-37929357D01*
X40993261Y-37976976D01*
X40969452Y-38000785D01*
X40921833Y-38024595D01*
X40731357Y-38024595D01*
X41493261Y-38262690D02*
X41207547Y-38262690D01*
X41350404Y-38262690D02*
X41350404Y-37762690D01*
X41302785Y-37834119D01*
X41255166Y-37881738D01*
X41207547Y-37905547D01*
X41921833Y-37929357D02*
X41921833Y-38262690D01*
X41802785Y-37738880D02*
X41683738Y-38096023D01*
X41993261Y-38096023D01*
G04 #@! TD*
M02*
