G04 #@! TF.GenerationSoftware,KiCad,Pcbnew,(5.0.2)-1*
G04 #@! TF.CreationDate,2019-05-03T13:45:30-04:00*
G04 #@! TF.ProjectId,PowConnV1,506f7743-6f6e-46e5-9631-2e6b69636164,V2*
G04 #@! TF.SameCoordinates,Original*
G04 #@! TF.FileFunction,Other,Fab,Bot*
%FSLAX46Y46*%
G04 Gerber Fmt 4.6, Leading zero omitted, Abs format (unit mm)*
G04 Created by KiCad (PCBNEW (5.0.2)-1) date 5/3/2019 1:45:30 PM*
%MOMM*%
%LPD*%
G01*
G04 APERTURE LIST*
%ADD10C,0.150000*%
%ADD11C,0.015000*%
%ADD12C,0.100000*%
%ADD13C,0.050000*%
G04 APERTURE END LIST*
D10*
G04 #@! TO.C,P1*
X39039480Y-94331480D02*
X39039480Y-98531480D01*
X41539480Y-94331480D02*
X41539480Y-98531480D01*
X39039480Y-98531480D02*
X41539480Y-98531480D01*
X39039480Y-94331480D02*
X41539480Y-94331480D01*
D11*
G04 #@! TO.C,P4*
X52410200Y-114360960D02*
G75*
G03X52410200Y-114360960I-10000J0D01*
G01*
D10*
X53454951Y-114360960D02*
G75*
G03X53454951Y-114360960I-1054751J0D01*
G01*
G04 #@! TO.C,P5*
X48466391Y-112354360D02*
G75*
G03X48466391Y-112354360I-1054751J0D01*
G01*
D11*
X47421640Y-112354360D02*
G75*
G03X47421640Y-112354360I-10000J0D01*
G01*
G04 #@! TD*
G04 #@! TO.C,P1*
D12*
X40584718Y-96612432D02*
X40584718Y-96212432D01*
X40432337Y-96212432D01*
X40394241Y-96231480D01*
X40375194Y-96250527D01*
X40356146Y-96288622D01*
X40356146Y-96345765D01*
X40375194Y-96383860D01*
X40394241Y-96402908D01*
X40432337Y-96421956D01*
X40584718Y-96421956D01*
X39975194Y-96612432D02*
X40203765Y-96612432D01*
X40089480Y-96612432D02*
X40089480Y-96212432D01*
X40127575Y-96269575D01*
X40165670Y-96307670D01*
X40203765Y-96326718D01*
G04 #@! TO.C,P4*
D13*
X52647819Y-114001436D02*
X52647819Y-113801436D01*
X52571628Y-113801436D01*
X52552580Y-113810960D01*
X52543057Y-113820483D01*
X52533533Y-113839531D01*
X52533533Y-113868102D01*
X52543057Y-113887150D01*
X52552580Y-113896674D01*
X52571628Y-113906198D01*
X52647819Y-113906198D01*
X52362104Y-113868102D02*
X52362104Y-114001436D01*
X52409723Y-113791912D02*
X52457342Y-113934769D01*
X52333533Y-113934769D01*
G04 #@! TO.C,P5*
X47659259Y-111994836D02*
X47659259Y-111794836D01*
X47583068Y-111794836D01*
X47564020Y-111804360D01*
X47554497Y-111813883D01*
X47544973Y-111832931D01*
X47544973Y-111861502D01*
X47554497Y-111880550D01*
X47564020Y-111890074D01*
X47583068Y-111899598D01*
X47659259Y-111899598D01*
X47364020Y-111794836D02*
X47459259Y-111794836D01*
X47468782Y-111890074D01*
X47459259Y-111880550D01*
X47440211Y-111871026D01*
X47392592Y-111871026D01*
X47373544Y-111880550D01*
X47364020Y-111890074D01*
X47354497Y-111909121D01*
X47354497Y-111956740D01*
X47364020Y-111975788D01*
X47373544Y-111985312D01*
X47392592Y-111994836D01*
X47440211Y-111994836D01*
X47459259Y-111985312D01*
X47468782Y-111975788D01*
G04 #@! TD*
M02*
