G04 #@! TF.FileFunction,Copper,L6,Bot,Signal*
%FSLAX46Y46*%
G04 Gerber Fmt 4.6, Leading zero omitted, Abs format (unit mm)*
G04 Created by KiCad (PCBNEW 4.0.2-stable) date 11/15/2017 1:36:56 PM*
%MOMM*%
G01*
G04 APERTURE LIST*
%ADD10C,0.050000*%
%ADD11C,0.635000*%
%ADD12C,0.152400*%
%ADD13C,0.889000*%
%ADD14C,0.508000*%
%ADD15C,0.203200*%
G04 APERTURE END LIST*
D10*
D11*
X33218742Y-104234415D03*
X39263942Y-103929615D03*
X43023142Y-103955015D03*
X37104508Y-103953391D03*
X36546142Y-106012415D03*
X39619542Y-107130015D03*
X36774742Y-111803615D03*
X29517247Y-104287681D03*
X31059742Y-109924015D03*
X30475542Y-112489415D03*
X30551742Y-116807415D03*
X39721142Y-112286215D03*
X39746542Y-117086815D03*
X42743742Y-110914615D03*
X41626142Y-32809615D03*
X41524542Y-30269615D03*
X41499142Y-27450215D03*
X35067862Y-35461375D03*
X31069902Y-35369935D03*
X28453702Y-27800735D03*
X38994702Y-24803535D03*
X30978462Y-24996575D03*
X35108502Y-24635895D03*
X28443542Y-115258015D03*
X33929942Y-103878815D03*
X34260142Y-111956015D03*
X41905542Y-103904215D03*
X36774742Y-115435815D03*
X42667542Y-114775415D03*
X30297742Y-104183615D03*
X31872542Y-111956015D03*
X40432342Y-103904215D03*
X34336342Y-115486615D03*
X36266742Y-103980415D03*
X31897942Y-115461215D03*
D12*
X41829342Y-27475615D02*
X41829342Y-29964815D01*
X41829342Y-29964815D02*
X41524542Y-30269615D01*
D13*
X28443542Y-115258015D02*
X29154743Y-114546814D01*
X29154743Y-114546814D02*
X31669343Y-114546814D01*
X31669343Y-114546814D02*
X33942643Y-112273514D01*
X33942643Y-112273514D02*
X34260142Y-111956015D01*
X34260142Y-111956015D02*
X34260142Y-104018077D01*
X34260142Y-104018077D02*
X34146917Y-103904852D01*
X34146917Y-103904852D02*
X34025411Y-103783346D01*
D14*
X34260142Y-111956015D02*
X34260142Y-104209015D01*
X34260142Y-104209015D02*
X33929942Y-103878815D01*
D13*
X42667542Y-114775415D02*
X41829341Y-113937214D01*
X41829341Y-103980416D02*
X41905542Y-103904215D01*
X41829341Y-113937214D02*
X41829341Y-103980416D01*
X36774742Y-115435815D02*
X42007142Y-115435815D01*
X42007142Y-115435815D02*
X42667542Y-114775415D01*
D15*
X31872542Y-111956015D02*
X30272342Y-110355815D01*
X30272342Y-110355815D02*
X30272342Y-104209015D01*
X30272342Y-104209015D02*
X30297742Y-104183615D01*
D14*
X34336342Y-115486615D02*
X40432342Y-109390615D01*
X40432342Y-109390615D02*
X40432342Y-109368091D01*
X40432342Y-109368091D02*
X40432342Y-103904215D01*
D15*
X35530142Y-113480015D02*
X35530142Y-104717015D01*
X35530142Y-104717015D02*
X36266742Y-103980415D01*
X35047542Y-113962615D02*
X35530142Y-113480015D01*
X33929942Y-113962615D02*
X35047542Y-113962615D01*
X32431342Y-115461215D02*
X33929942Y-113962615D01*
X31897942Y-115461215D02*
X32431342Y-115461215D01*
G36*
X35728642Y-115435815D02*
X35808272Y-115836140D01*
X36035038Y-116175519D01*
X36374417Y-116402285D01*
X36774742Y-116481915D01*
X42007142Y-116481915D01*
X42407467Y-116402285D01*
X42746846Y-116175519D01*
X43058231Y-115864134D01*
X43057850Y-118264415D01*
X27519512Y-118264415D01*
X27517894Y-115719435D01*
X27703838Y-115997719D01*
X28043217Y-116224485D01*
X28443542Y-116304114D01*
X28843867Y-116224485D01*
X29183246Y-115997719D01*
X29588051Y-115592914D01*
X30978727Y-115592914D01*
X30978683Y-115643233D01*
X31118313Y-115981163D01*
X31376634Y-116239936D01*
X31714320Y-116380155D01*
X32079960Y-116380474D01*
X32417890Y-116240844D01*
X32510158Y-116148738D01*
X32700445Y-116110887D01*
X32928579Y-115958452D01*
X33417256Y-115469775D01*
X33417083Y-115668633D01*
X33556713Y-116006563D01*
X33815034Y-116265336D01*
X34152720Y-116405555D01*
X34518360Y-116405874D01*
X34856290Y-116266244D01*
X35115063Y-116007923D01*
X35178990Y-115853969D01*
X35761294Y-115271665D01*
X35728642Y-115435815D01*
X35728642Y-115435815D01*
G37*
X35728642Y-115435815D02*
X35808272Y-115836140D01*
X36035038Y-116175519D01*
X36374417Y-116402285D01*
X36774742Y-116481915D01*
X42007142Y-116481915D01*
X42407467Y-116402285D01*
X42746846Y-116175519D01*
X43058231Y-115864134D01*
X43057850Y-118264415D01*
X27519512Y-118264415D01*
X27517894Y-115719435D01*
X27703838Y-115997719D01*
X28043217Y-116224485D01*
X28443542Y-116304114D01*
X28843867Y-116224485D01*
X29183246Y-115997719D01*
X29588051Y-115592914D01*
X30978727Y-115592914D01*
X30978683Y-115643233D01*
X31118313Y-115981163D01*
X31376634Y-116239936D01*
X31714320Y-116380155D01*
X32079960Y-116380474D01*
X32417890Y-116240844D01*
X32510158Y-116148738D01*
X32700445Y-116110887D01*
X32928579Y-115958452D01*
X33417256Y-115469775D01*
X33417083Y-115668633D01*
X33556713Y-116006563D01*
X33815034Y-116265336D01*
X34152720Y-116405555D01*
X34518360Y-116405874D01*
X34856290Y-116266244D01*
X35115063Y-116007923D01*
X35178990Y-115853969D01*
X35761294Y-115271665D01*
X35728642Y-115435815D01*
G36*
X41787742Y-50920329D02*
X41331840Y-51224953D01*
X40984657Y-51744549D01*
X40862742Y-52357455D01*
X40862742Y-102928855D01*
X40897193Y-103102051D01*
X40615964Y-102985275D01*
X40250324Y-102984956D01*
X39912394Y-103124586D01*
X39653621Y-103382907D01*
X39513402Y-103720593D01*
X39513083Y-104086233D01*
X39576742Y-104240299D01*
X39576742Y-109036214D01*
X36233342Y-112379613D01*
X36233342Y-105008289D01*
X36342051Y-104899581D01*
X36448760Y-104899674D01*
X36786690Y-104760044D01*
X37045463Y-104501723D01*
X37185682Y-104164037D01*
X37186001Y-103798397D01*
X37046371Y-103460467D01*
X36788050Y-103201694D01*
X36450364Y-103061475D01*
X36084724Y-103061156D01*
X35746794Y-103200786D01*
X35488021Y-103459107D01*
X35347802Y-103796793D01*
X35347708Y-103904975D01*
X35294357Y-103958326D01*
X35226612Y-103617752D01*
X35182271Y-103551391D01*
X34999846Y-103278372D01*
X34886623Y-103165150D01*
X34886621Y-103165147D01*
X34765115Y-103043642D01*
X34425736Y-102816876D01*
X34025411Y-102737247D01*
X33625086Y-102816876D01*
X33285707Y-103043642D01*
X33058941Y-103383021D01*
X32979312Y-103783346D01*
X33010787Y-103941583D01*
X33010683Y-104060833D01*
X33056622Y-104172015D01*
X33058941Y-104183671D01*
X33065486Y-104193466D01*
X33150313Y-104398763D01*
X33214042Y-104462604D01*
X33214042Y-111522707D01*
X33202942Y-111533807D01*
X33202939Y-111533809D01*
X32791652Y-111945096D01*
X32791801Y-111773997D01*
X32652171Y-111436067D01*
X32393850Y-111177294D01*
X32056164Y-111037075D01*
X31947982Y-111036981D01*
X30975542Y-110064541D01*
X30975542Y-104805668D01*
X31076463Y-104704923D01*
X31216682Y-104367237D01*
X31217001Y-104001597D01*
X31077371Y-103663667D01*
X30819050Y-103404894D01*
X30481364Y-103264675D01*
X30115724Y-103264356D01*
X29777794Y-103403986D01*
X29519021Y-103662307D01*
X29378802Y-103999993D01*
X29378483Y-104365633D01*
X29518113Y-104703563D01*
X29569142Y-104754681D01*
X29569142Y-110355815D01*
X29622670Y-110624918D01*
X29775105Y-110853052D01*
X30953376Y-112031324D01*
X30953283Y-112138033D01*
X31092913Y-112475963D01*
X31351234Y-112734736D01*
X31688920Y-112874955D01*
X31861643Y-112875106D01*
X31236035Y-113500714D01*
X29154743Y-113500714D01*
X28754418Y-113580344D01*
X28415039Y-113807110D01*
X27703838Y-114518311D01*
X27517308Y-114797472D01*
X27510740Y-104466028D01*
X27706942Y-104505055D01*
X28319848Y-104383140D01*
X28839444Y-104035957D01*
X29186627Y-103516361D01*
X29308542Y-102903455D01*
X29308542Y-52332055D01*
X29186627Y-51719149D01*
X28839444Y-51199553D01*
X28383542Y-50894929D01*
X28383542Y-24940119D01*
X29304857Y-23910415D01*
X41787742Y-23910415D01*
X41787742Y-50920329D01*
X41787742Y-50920329D01*
G37*
X41787742Y-50920329D02*
X41331840Y-51224953D01*
X40984657Y-51744549D01*
X40862742Y-52357455D01*
X40862742Y-102928855D01*
X40897193Y-103102051D01*
X40615964Y-102985275D01*
X40250324Y-102984956D01*
X39912394Y-103124586D01*
X39653621Y-103382907D01*
X39513402Y-103720593D01*
X39513083Y-104086233D01*
X39576742Y-104240299D01*
X39576742Y-109036214D01*
X36233342Y-112379613D01*
X36233342Y-105008289D01*
X36342051Y-104899581D01*
X36448760Y-104899674D01*
X36786690Y-104760044D01*
X37045463Y-104501723D01*
X37185682Y-104164037D01*
X37186001Y-103798397D01*
X37046371Y-103460467D01*
X36788050Y-103201694D01*
X36450364Y-103061475D01*
X36084724Y-103061156D01*
X35746794Y-103200786D01*
X35488021Y-103459107D01*
X35347802Y-103796793D01*
X35347708Y-103904975D01*
X35294357Y-103958326D01*
X35226612Y-103617752D01*
X35182271Y-103551391D01*
X34999846Y-103278372D01*
X34886623Y-103165150D01*
X34886621Y-103165147D01*
X34765115Y-103043642D01*
X34425736Y-102816876D01*
X34025411Y-102737247D01*
X33625086Y-102816876D01*
X33285707Y-103043642D01*
X33058941Y-103383021D01*
X32979312Y-103783346D01*
X33010787Y-103941583D01*
X33010683Y-104060833D01*
X33056622Y-104172015D01*
X33058941Y-104183671D01*
X33065486Y-104193466D01*
X33150313Y-104398763D01*
X33214042Y-104462604D01*
X33214042Y-111522707D01*
X33202942Y-111533807D01*
X33202939Y-111533809D01*
X32791652Y-111945096D01*
X32791801Y-111773997D01*
X32652171Y-111436067D01*
X32393850Y-111177294D01*
X32056164Y-111037075D01*
X31947982Y-111036981D01*
X30975542Y-110064541D01*
X30975542Y-104805668D01*
X31076463Y-104704923D01*
X31216682Y-104367237D01*
X31217001Y-104001597D01*
X31077371Y-103663667D01*
X30819050Y-103404894D01*
X30481364Y-103264675D01*
X30115724Y-103264356D01*
X29777794Y-103403986D01*
X29519021Y-103662307D01*
X29378802Y-103999993D01*
X29378483Y-104365633D01*
X29518113Y-104703563D01*
X29569142Y-104754681D01*
X29569142Y-110355815D01*
X29622670Y-110624918D01*
X29775105Y-110853052D01*
X30953376Y-112031324D01*
X30953283Y-112138033D01*
X31092913Y-112475963D01*
X31351234Y-112734736D01*
X31688920Y-112874955D01*
X31861643Y-112875106D01*
X31236035Y-113500714D01*
X29154743Y-113500714D01*
X28754418Y-113580344D01*
X28415039Y-113807110D01*
X27703838Y-114518311D01*
X27517308Y-114797472D01*
X27510740Y-104466028D01*
X27706942Y-104505055D01*
X28319848Y-104383140D01*
X28839444Y-104035957D01*
X29186627Y-103516361D01*
X29308542Y-102903455D01*
X29308542Y-52332055D01*
X29186627Y-51719149D01*
X28839444Y-51199553D01*
X28383542Y-50894929D01*
X28383542Y-24940119D01*
X29304857Y-23910415D01*
X41787742Y-23910415D01*
X41787742Y-50920329D01*
G36*
X40783241Y-113937214D02*
X40824869Y-114146489D01*
X40862871Y-114337539D01*
X40897734Y-114389715D01*
X36774742Y-114389715D01*
X36610592Y-114422367D01*
X40783241Y-110249717D01*
X40783241Y-113937214D01*
X40783241Y-113937214D01*
G37*
X40783241Y-113937214D02*
X40824869Y-114146489D01*
X40862871Y-114337539D01*
X40897734Y-114389715D01*
X36774742Y-114389715D01*
X36610592Y-114422367D01*
X40783241Y-110249717D01*
X40783241Y-113937214D01*
M02*
