M48
INCH,TZ
T1C0.012
%
G90
G05
T1
X11198Y-45377
X11202Y-10945
X11621Y-41058
X11928Y-41017
X11998Y-44287
X12028Y-45987
X12196Y-9841
X12228Y-43277
X12232Y-13925
X12548Y-44077
X12558Y-45457
X13078Y-41037
X13358Y-40897
X13488Y-44077
X13518Y-45467
X13806Y-13961
X13822Y-9699
X14278Y-40937
X14388Y-41737
X14478Y-44017
X14478Y-45447
X14608Y-40927
X15352Y-9765
X15458Y-40917
X15598Y-42177
X15638Y-44207
X15648Y-46097
X15918Y-40907
X16338Y-10807
X16348Y-11917
X16388Y-12917
X16498Y-40907
X16798Y-45187
X16828Y-43667
X16938Y-40927
T0
M30
