G04 #@! TF.GenerationSoftware,KiCad,Pcbnew,(5.0.2)-1*
G04 #@! TF.CreationDate,2019-05-03T15:30:51-04:00*
G04 #@! TF.ProjectId,TrafMasterV1,54726166-4d61-4737-9465-7256312e6b69,V1*
G04 #@! TF.SameCoordinates,Original*
G04 #@! TF.FileFunction,Paste,Bot*
G04 #@! TF.FilePolarity,Positive*
%FSLAX46Y46*%
G04 Gerber Fmt 4.6, Leading zero omitted, Abs format (unit mm)*
G04 Created by KiCad (PCBNEW (5.0.2)-1) date 5/3/2019 3:30:51 PM*
%MOMM*%
%LPD*%
G01*
G04 APERTURE LIST*
%ADD10R,0.900000X1.250000*%
%ADD11R,0.705000X0.705000*%
%ADD12R,0.600000X1.550000*%
%ADD13R,1.524000X2.000000*%
%ADD14R,3.600000X1.200000*%
%ADD15R,2.440000X2.220000*%
%ADD16R,1.120000X3.390000*%
%ADD17R,1.250000X0.900000*%
%ADD18R,1.900000X4.100000*%
%ADD19R,1.524000X1.905000*%
%ADD20C,0.900000*%
%ADD21C,0.150000*%
%ADD22R,0.300000X0.900000*%
%ADD23R,0.300000X1.000000*%
%ADD24R,1.905000X1.524000*%
%ADD25R,0.800000X0.900000*%
%ADD26R,0.900000X0.800000*%
%ADD27R,4.100000X1.900000*%
%ADD28R,3.556000X2.540000*%
G04 APERTURE END LIST*
D10*
G04 #@! TO.C,C14*
X46246760Y-54137560D03*
X44146760Y-54137560D03*
G04 #@! TD*
D11*
G04 #@! TO.C,U2*
X50241960Y-51722780D03*
X49066960Y-51722780D03*
X50241960Y-50547780D03*
X49066960Y-50547780D03*
D12*
X51559460Y-48435280D03*
X50289460Y-48435280D03*
X49019460Y-48435280D03*
X47749460Y-48435280D03*
X47749460Y-53835280D03*
X49019460Y-53835280D03*
X50289460Y-53835280D03*
X51559460Y-53835280D03*
G04 #@! TD*
D13*
G04 #@! TO.C,D1*
X48228500Y-37782500D03*
X52228500Y-37782500D03*
G04 #@! TD*
D14*
G04 #@! TO.C,C19*
X51641000Y-43307000D03*
X45641000Y-43307000D03*
G04 #@! TD*
D15*
G04 #@! TO.C,P9*
X25870700Y-31841900D03*
X41210700Y-31841900D03*
D16*
X37040700Y-35521900D03*
X34540700Y-35521900D03*
X32540700Y-35521900D03*
X30040700Y-35521900D03*
G04 #@! TD*
D17*
G04 #@! TO.C,C16*
X53461920Y-45614880D03*
X53461920Y-47714880D03*
G04 #@! TD*
D10*
G04 #@! TO.C,C13*
X49470600Y-56393080D03*
X51570600Y-56393080D03*
G04 #@! TD*
D17*
G04 #@! TO.C,C12*
X53380640Y-50474880D03*
X53380640Y-52574880D03*
G04 #@! TD*
G04 #@! TO.C,C17*
X45628560Y-48444440D03*
X45628560Y-50544440D03*
G04 #@! TD*
D10*
G04 #@! TO.C,R9*
X45621920Y-52181760D03*
X43521920Y-52181760D03*
G04 #@! TD*
D18*
G04 #@! TO.C,L2*
X46964960Y-58049160D03*
X42564960Y-58049160D03*
G04 #@! TD*
D17*
G04 #@! TO.C,R8*
X43510200Y-50458080D03*
X43510200Y-48358080D03*
G04 #@! TD*
D19*
G04 #@! TO.C,C18*
X43144440Y-62143640D03*
X46700440Y-62143640D03*
G04 #@! TD*
G04 #@! TO.C,C15*
X43185080Y-64764920D03*
X46741080Y-64764920D03*
G04 #@! TD*
G04 #@! TO.C,C11*
X22606000Y-54686200D03*
X19050000Y-54686200D03*
G04 #@! TD*
D11*
G04 #@! TO.C,U1*
X23148800Y-44040300D03*
X24323800Y-44040300D03*
X23148800Y-45215300D03*
X24323800Y-45215300D03*
D12*
X21831300Y-47327800D03*
X23101300Y-47327800D03*
X24371300Y-47327800D03*
X25641300Y-47327800D03*
X25641300Y-41927800D03*
X24371300Y-41927800D03*
X23101300Y-41927800D03*
X21831300Y-41927800D03*
G04 #@! TD*
D20*
G04 #@! TO.C,C5*
X25778735Y-39691630D03*
D21*
G36*
X25524874Y-40418734D02*
X25008656Y-39681497D01*
X26032596Y-38964526D01*
X26548814Y-39701763D01*
X25524874Y-40418734D01*
X25524874Y-40418734D01*
G37*
D20*
X24574225Y-37971410D03*
D21*
G36*
X24320364Y-38698514D02*
X23804146Y-37961277D01*
X24828086Y-37244306D01*
X25344304Y-37981543D01*
X24320364Y-38698514D01*
X24320364Y-38698514D01*
G37*
G04 #@! TD*
D10*
G04 #@! TO.C,R1*
X34994180Y-60469700D03*
X32894180Y-60469700D03*
G04 #@! TD*
D22*
G04 #@! TO.C,P1*
X31320800Y-40228000D03*
X31820800Y-40228000D03*
X32320800Y-40228000D03*
X32820800Y-40228000D03*
X33320800Y-40228000D03*
X33820800Y-40228000D03*
X34320800Y-40228000D03*
X34820800Y-40228000D03*
D23*
X30530800Y-42978000D03*
X36610800Y-42978000D03*
D22*
X35320800Y-40228000D03*
X35820800Y-40228000D03*
G04 #@! TD*
D24*
G04 #@! TO.C,C1*
X27594180Y-60596700D03*
X27594180Y-64152700D03*
G04 #@! TD*
G04 #@! TO.C,C2*
X19761200Y-47879000D03*
X19761200Y-51435000D03*
G04 #@! TD*
D25*
G04 #@! TO.C,Q1*
X30612120Y-57855360D03*
X29662120Y-55855360D03*
X28712120Y-57855360D03*
G04 #@! TD*
D26*
G04 #@! TO.C,Q2*
X32588580Y-64467700D03*
X34588580Y-63517700D03*
X32588580Y-62567700D03*
G04 #@! TD*
D25*
G04 #@! TO.C,Q3*
X34182980Y-58447100D03*
X33232980Y-56447100D03*
X32282980Y-58447100D03*
G04 #@! TD*
D17*
G04 #@! TO.C,R2*
X26598880Y-56663880D03*
X26598880Y-58763880D03*
G04 #@! TD*
G04 #@! TO.C,R3*
X36992180Y-62213700D03*
X36992180Y-64313700D03*
G04 #@! TD*
D19*
G04 #@! TO.C,C6*
X22504400Y-31140400D03*
X18948400Y-31140400D03*
G04 #@! TD*
G04 #@! TO.C,C9*
X22504400Y-28524200D03*
X18948400Y-28524200D03*
G04 #@! TD*
D24*
G04 #@! TO.C,C10*
X30426280Y-64114600D03*
X30426280Y-60558600D03*
G04 #@! TD*
D27*
G04 #@! TO.C,L1*
X20497800Y-37947600D03*
X20497800Y-33547600D03*
G04 #@! TD*
D10*
G04 #@! TO.C,R4*
X24722800Y-50317400D03*
X22622800Y-50317400D03*
G04 #@! TD*
D17*
G04 #@! TO.C,R5*
X26517600Y-51392800D03*
X26517600Y-49292800D03*
G04 #@! TD*
G04 #@! TO.C,C3*
X19723100Y-45982600D03*
X19723100Y-43882600D03*
G04 #@! TD*
G04 #@! TO.C,C4*
X19710400Y-39869400D03*
X19710400Y-41969400D03*
G04 #@! TD*
D10*
G04 #@! TO.C,C7*
X22733000Y-52425600D03*
X24833000Y-52425600D03*
G04 #@! TD*
D17*
G04 #@! TO.C,C8*
X27762200Y-45703200D03*
X27762200Y-43603200D03*
G04 #@! TD*
G04 #@! TO.C,R6*
X27787600Y-41905900D03*
X27787600Y-39805900D03*
G04 #@! TD*
D28*
G04 #@! TO.C,F1*
X52328000Y-29314000D03*
X52328000Y-33886000D03*
G04 #@! TD*
D27*
G04 #@! TO.C,L3*
X46128000Y-30100000D03*
X46128000Y-34500000D03*
G04 #@! TD*
D10*
G04 #@! TO.C,R10*
X24844720Y-17724120D03*
X22744720Y-17724120D03*
G04 #@! TD*
D17*
G04 #@! TO.C,C20*
X42367200Y-42131560D03*
X42367200Y-44231560D03*
G04 #@! TD*
M02*
