G04 #@! TF.GenerationSoftware,KiCad,Pcbnew,(5.0.2)-1*
G04 #@! TF.CreationDate,2019-05-03T15:30:51-04:00*
G04 #@! TF.ProjectId,TrafMasterV1,54726166-4d61-4737-9465-7256312e6b69,V1*
G04 #@! TF.SameCoordinates,Original*
G04 #@! TF.FileFunction,Copper,L2,Bot*
G04 #@! TF.FilePolarity,Positive*
%FSLAX46Y46*%
G04 Gerber Fmt 4.6, Leading zero omitted, Abs format (unit mm)*
G04 Created by KiCad (PCBNEW (5.0.2)-1) date 5/3/2019 3:30:51 PM*
%MOMM*%
%LPD*%
G01*
G04 APERTURE LIST*
G04 #@! TA.AperFunction,ComponentPad*
%ADD10C,1.300000*%
G04 #@! TD*
G04 #@! TA.AperFunction,ComponentPad*
%ADD11C,1.500000*%
G04 #@! TD*
G04 #@! TA.AperFunction,SMDPad,CuDef*
%ADD12R,0.900000X1.250000*%
G04 #@! TD*
G04 #@! TA.AperFunction,SMDPad,CuDef*
%ADD13R,1.175000X1.175000*%
G04 #@! TD*
G04 #@! TA.AperFunction,SMDPad,CuDef*
%ADD14R,0.600000X1.550000*%
G04 #@! TD*
G04 #@! TA.AperFunction,SMDPad,CuDef*
%ADD15R,1.524000X2.000000*%
G04 #@! TD*
G04 #@! TA.AperFunction,SMDPad,CuDef*
%ADD16R,3.600000X1.200000*%
G04 #@! TD*
G04 #@! TA.AperFunction,SMDPad,CuDef*
%ADD17R,2.440000X2.220000*%
G04 #@! TD*
G04 #@! TA.AperFunction,ComponentPad*
%ADD18C,2.000000*%
G04 #@! TD*
G04 #@! TA.AperFunction,SMDPad,CuDef*
%ADD19R,1.120000X3.390000*%
G04 #@! TD*
G04 #@! TA.AperFunction,SMDPad,CuDef*
%ADD20R,1.250000X0.900000*%
G04 #@! TD*
G04 #@! TA.AperFunction,SMDPad,CuDef*
%ADD21R,1.900000X4.100000*%
G04 #@! TD*
G04 #@! TA.AperFunction,SMDPad,CuDef*
%ADD22R,1.524000X1.905000*%
G04 #@! TD*
G04 #@! TA.AperFunction,SMDPad,CuDef*
%ADD23C,0.900000*%
G04 #@! TD*
G04 #@! TA.AperFunction,Conductor*
%ADD24C,0.150000*%
G04 #@! TD*
G04 #@! TA.AperFunction,SMDPad,CuDef*
%ADD25R,0.300000X0.900000*%
G04 #@! TD*
G04 #@! TA.AperFunction,SMDPad,CuDef*
%ADD26R,0.300000X1.000000*%
G04 #@! TD*
G04 #@! TA.AperFunction,SMDPad,CuDef*
%ADD27R,1.905000X1.524000*%
G04 #@! TD*
G04 #@! TA.AperFunction,SMDPad,CuDef*
%ADD28R,0.800000X0.900000*%
G04 #@! TD*
G04 #@! TA.AperFunction,SMDPad,CuDef*
%ADD29R,0.900000X0.800000*%
G04 #@! TD*
G04 #@! TA.AperFunction,ComponentPad*
%ADD30C,1.200000*%
G04 #@! TD*
G04 #@! TA.AperFunction,ComponentPad*
%ADD31R,1.700000X2.700000*%
G04 #@! TD*
G04 #@! TA.AperFunction,SMDPad,CuDef*
%ADD32R,4.100000X1.900000*%
G04 #@! TD*
G04 #@! TA.AperFunction,ComponentPad*
%ADD33R,2.200000X1.600000*%
G04 #@! TD*
G04 #@! TA.AperFunction,SMDPad,CuDef*
%ADD34R,3.556000X2.540000*%
G04 #@! TD*
G04 #@! TA.AperFunction,ComponentPad*
%ADD35R,1.600000X2.200000*%
G04 #@! TD*
G04 #@! TA.AperFunction,ViaPad*
%ADD36C,0.635000*%
G04 #@! TD*
G04 #@! TA.AperFunction,ViaPad*
%ADD37C,0.889000*%
G04 #@! TD*
G04 #@! TA.AperFunction,Conductor*
%ADD38C,0.152400*%
G04 #@! TD*
G04 #@! TA.AperFunction,Conductor*
%ADD39C,0.381000*%
G04 #@! TD*
G04 #@! TA.AperFunction,Conductor*
%ADD40C,0.762000*%
G04 #@! TD*
G04 #@! TA.AperFunction,Conductor*
%ADD41C,0.203200*%
G04 #@! TD*
G04 #@! TA.AperFunction,Conductor*
%ADD42C,0.508000*%
G04 #@! TD*
G04 #@! TA.AperFunction,Conductor*
%ADD43C,0.254000*%
G04 #@! TD*
G04 #@! TA.AperFunction,Conductor*
%ADD44C,1.143000*%
G04 #@! TD*
G04 #@! TA.AperFunction,Conductor*
%ADD45C,1.651000*%
G04 #@! TD*
G04 APERTURE END LIST*
D10*
G04 #@! TO.P,P4,1*
G04 #@! TO.N,Dev+*
X24790400Y-20091400D03*
G04 #@! TD*
G04 #@! TO.P,P5,1*
G04 #@! TO.N,GND1*
X19786600Y-18084800D03*
G04 #@! TD*
D11*
G04 #@! TO.P,P10,*
G04 #@! TO.N,*
X29014800Y-49704000D03*
G04 #@! TD*
D12*
G04 #@! TO.P,C14,1*
G04 #@! TO.N,GND1*
X46246760Y-54137560D03*
G04 #@! TO.P,C14,2*
G04 #@! TO.N,5V*
X44146760Y-54137560D03*
G04 #@! TD*
D13*
G04 #@! TO.P,U2,9*
G04 #@! TO.N,GND1*
X50241960Y-51722780D03*
X49066960Y-51722780D03*
X50241960Y-50547780D03*
X49066960Y-50547780D03*
D14*
G04 #@! TO.P,U2,8*
G04 #@! TO.N,Net-(C16-Pad1)*
X51559460Y-48435280D03*
G04 #@! TO.P,U2,7*
G04 #@! TO.N,Net-(C20-Pad1)*
X50289460Y-48435280D03*
G04 #@! TO.P,U2,6*
G04 #@! TO.N,Net-(C17-Pad1)*
X49019460Y-48435280D03*
G04 #@! TO.P,U2,5*
G04 #@! TO.N,Net-(R8-Pad2)*
X47749460Y-48435280D03*
G04 #@! TO.P,U2,4*
G04 #@! TO.N,GND1*
X47749460Y-53835280D03*
G04 #@! TO.P,U2,3*
G04 #@! TO.N,Net-(C13-Pad1)*
X49019460Y-53835280D03*
G04 #@! TO.P,U2,2*
G04 #@! TO.N,12V*
X50289460Y-53835280D03*
G04 #@! TO.P,U2,1*
G04 #@! TO.N,Net-(C13-Pad2)*
X51559460Y-53835280D03*
G04 #@! TD*
D15*
G04 #@! TO.P,D1,1*
G04 #@! TO.N,12V*
X48228500Y-37782500D03*
G04 #@! TO.P,D1,2*
G04 #@! TO.N,GND1*
X52228500Y-37782500D03*
G04 #@! TD*
D16*
G04 #@! TO.P,C19,2*
G04 #@! TO.N,GND1*
X51641000Y-43307000D03*
G04 #@! TO.P,C19,1*
G04 #@! TO.N,12V*
X45641000Y-43307000D03*
G04 #@! TD*
D17*
G04 #@! TO.P,P9,5*
G04 #@! TO.N,GND1*
X25870700Y-31841900D03*
X41210700Y-31841900D03*
D18*
X37600700Y-27841900D03*
X29480700Y-27841900D03*
D19*
G04 #@! TO.P,P9,4*
X37040700Y-35521900D03*
G04 #@! TO.P,P9,3*
G04 #@! TO.N,D+*
X34540700Y-35521900D03*
G04 #@! TO.P,P9,2*
G04 #@! TO.N,D-*
X32540700Y-35521900D03*
G04 #@! TO.P,P9,1*
G04 #@! TO.N,5V*
X30040700Y-35521900D03*
G04 #@! TD*
D20*
G04 #@! TO.P,C16,1*
G04 #@! TO.N,Net-(C16-Pad1)*
X53461920Y-45614880D03*
G04 #@! TO.P,C16,2*
G04 #@! TO.N,GND1*
X53461920Y-47714880D03*
G04 #@! TD*
D12*
G04 #@! TO.P,C13,1*
G04 #@! TO.N,Net-(C13-Pad1)*
X49470600Y-56393080D03*
G04 #@! TO.P,C13,2*
G04 #@! TO.N,Net-(C13-Pad2)*
X51570600Y-56393080D03*
G04 #@! TD*
D20*
G04 #@! TO.P,C12,1*
G04 #@! TO.N,GND1*
X53380640Y-50474880D03*
G04 #@! TO.P,C12,2*
G04 #@! TO.N,12V*
X53380640Y-52574880D03*
G04 #@! TD*
G04 #@! TO.P,C17,1*
G04 #@! TO.N,Net-(C17-Pad1)*
X45628560Y-48444440D03*
G04 #@! TO.P,C17,2*
G04 #@! TO.N,GND1*
X45628560Y-50544440D03*
G04 #@! TD*
D12*
G04 #@! TO.P,R9,1*
G04 #@! TO.N,Net-(R8-Pad2)*
X45621920Y-52181760D03*
G04 #@! TO.P,R9,2*
G04 #@! TO.N,5V*
X43521920Y-52181760D03*
G04 #@! TD*
D21*
G04 #@! TO.P,L2,2*
G04 #@! TO.N,Net-(C13-Pad1)*
X46964960Y-58049160D03*
G04 #@! TO.P,L2,1*
G04 #@! TO.N,5V*
X42564960Y-58049160D03*
G04 #@! TD*
D20*
G04 #@! TO.P,R8,1*
G04 #@! TO.N,GND1*
X43510200Y-50458080D03*
G04 #@! TO.P,R8,2*
G04 #@! TO.N,Net-(R8-Pad2)*
X43510200Y-48358080D03*
G04 #@! TD*
D22*
G04 #@! TO.P,C18,2*
G04 #@! TO.N,5V*
X43144440Y-62143640D03*
G04 #@! TO.P,C18,1*
G04 #@! TO.N,GND1*
X46700440Y-62143640D03*
G04 #@! TD*
G04 #@! TO.P,C15,2*
G04 #@! TO.N,5V*
X43185080Y-64764920D03*
G04 #@! TO.P,C15,1*
G04 #@! TO.N,GND1*
X46741080Y-64764920D03*
G04 #@! TD*
G04 #@! TO.P,C11,2*
G04 #@! TO.N,12V*
X22606000Y-54686200D03*
G04 #@! TO.P,C11,1*
G04 #@! TO.N,GND1*
X19050000Y-54686200D03*
G04 #@! TD*
D13*
G04 #@! TO.P,U1,9*
G04 #@! TO.N,GND1*
X23148800Y-44040300D03*
X24323800Y-44040300D03*
X23148800Y-45215300D03*
X24323800Y-45215300D03*
D14*
G04 #@! TO.P,U1,8*
G04 #@! TO.N,Net-(C7-Pad1)*
X21831300Y-47327800D03*
G04 #@! TO.P,U1,7*
G04 #@! TO.N,Net-(R4-Pad1)*
X23101300Y-47327800D03*
G04 #@! TO.P,U1,6*
G04 #@! TO.N,Net-(C8-Pad1)*
X24371300Y-47327800D03*
G04 #@! TO.P,U1,5*
G04 #@! TO.N,Net-(R5-Pad2)*
X25641300Y-47327800D03*
G04 #@! TO.P,U1,4*
G04 #@! TO.N,GND1*
X25641300Y-41927800D03*
G04 #@! TO.P,U1,3*
G04 #@! TO.N,Net-(C4-Pad1)*
X24371300Y-41927800D03*
G04 #@! TO.P,U1,2*
G04 #@! TO.N,12V*
X23101300Y-41927800D03*
G04 #@! TO.P,U1,1*
G04 #@! TO.N,Net-(C4-Pad2)*
X21831300Y-41927800D03*
G04 #@! TD*
D23*
G04 #@! TO.P,C5,1*
G04 #@! TO.N,GND1*
X25778735Y-39691630D03*
D24*
G04 #@! TD*
G04 #@! TO.N,GND1*
G04 #@! TO.C,C5*
G36*
X25524874Y-40418734D02*
X25008656Y-39681497D01*
X26032596Y-38964526D01*
X26548814Y-39701763D01*
X25524874Y-40418734D01*
X25524874Y-40418734D01*
G37*
D23*
G04 #@! TO.P,C5,2*
G04 #@! TO.N,Dev+*
X24574225Y-37971410D03*
D24*
G04 #@! TD*
G04 #@! TO.N,Dev+*
G04 #@! TO.C,C5*
G36*
X24320364Y-38698514D02*
X23804146Y-37961277D01*
X24828086Y-37244306D01*
X25344304Y-37981543D01*
X24320364Y-38698514D01*
X24320364Y-38698514D01*
G37*
D12*
G04 #@! TO.P,R1,1*
G04 #@! TO.N,Net-(C1-Pad1)*
X34994180Y-60469700D03*
G04 #@! TO.P,R1,2*
G04 #@! TO.N,GND1*
X32894180Y-60469700D03*
G04 #@! TD*
D18*
G04 #@! TO.P,P2,*
G04 #@! TO.N,*
X51790600Y-24434800D03*
G04 #@! TD*
G04 #@! TO.P,P3,*
G04 #@! TO.N,*
X20777200Y-24434800D03*
G04 #@! TD*
G04 #@! TO.P,P6,*
G04 #@! TO.N,*
X20777200Y-63449200D03*
G04 #@! TD*
G04 #@! TO.P,P7,*
G04 #@! TO.N,*
X51765200Y-63449200D03*
G04 #@! TD*
D25*
G04 #@! TO.P,P1,10*
G04 #@! TO.N,GND1*
X31320800Y-40228000D03*
G04 #@! TO.P,P1,9*
G04 #@! TO.N,5V_USB_DEV*
X31820800Y-40228000D03*
G04 #@! TO.P,P1,8*
X32320800Y-40228000D03*
G04 #@! TO.P,P1,7*
X32820800Y-40228000D03*
G04 #@! TO.P,P1,6*
G04 #@! TO.N,ID*
X33320800Y-40228000D03*
G04 #@! TO.P,P1,5*
G04 #@! TO.N,GND1*
X33820800Y-40228000D03*
G04 #@! TO.P,P1,4*
G04 #@! TO.N,D+*
X34320800Y-40228000D03*
G04 #@! TO.P,P1,3*
G04 #@! TO.N,GND1*
X34820800Y-40228000D03*
D26*
G04 #@! TO.P,P1,~*
G04 #@! TO.N,N/C*
X30530800Y-42978000D03*
X36610800Y-42978000D03*
D25*
G04 #@! TO.P,P1,2*
G04 #@! TO.N,D-*
X35320800Y-40228000D03*
G04 #@! TO.P,P1,1*
G04 #@! TO.N,GND1*
X35820800Y-40228000D03*
G04 #@! TD*
D27*
G04 #@! TO.P,C1,2*
G04 #@! TO.N,12V*
X27594180Y-60596700D03*
G04 #@! TO.P,C1,1*
G04 #@! TO.N,Net-(C1-Pad1)*
X27594180Y-64152700D03*
G04 #@! TD*
G04 #@! TO.P,C2,2*
G04 #@! TO.N,12V*
X19761200Y-47879000D03*
G04 #@! TO.P,C2,1*
G04 #@! TO.N,GND1*
X19761200Y-51435000D03*
G04 #@! TD*
D28*
G04 #@! TO.P,Q1,1*
G04 #@! TO.N,Net-(Q1-Pad1)*
X30612120Y-57855360D03*
G04 #@! TO.P,Q1,3*
G04 #@! TO.N,5V_USB_DEV*
X29662120Y-55855360D03*
G04 #@! TO.P,Q1,2*
G04 #@! TO.N,5V*
X28712120Y-57855360D03*
G04 #@! TD*
D29*
G04 #@! TO.P,Q2,1*
G04 #@! TO.N,Net-(C1-Pad1)*
X32588580Y-64467700D03*
G04 #@! TO.P,Q2,3*
G04 #@! TO.N,Net-(Q1-Pad1)*
X34588580Y-63517700D03*
G04 #@! TO.P,Q2,2*
G04 #@! TO.N,GND1*
X32588580Y-62567700D03*
G04 #@! TD*
D28*
G04 #@! TO.P,Q3,1*
G04 #@! TO.N,Net-(Q1-Pad1)*
X34182980Y-58447100D03*
G04 #@! TO.P,Q3,3*
G04 #@! TO.N,ID*
X33232980Y-56447100D03*
G04 #@! TO.P,Q3,2*
G04 #@! TO.N,GND1*
X32282980Y-58447100D03*
G04 #@! TD*
D20*
G04 #@! TO.P,R2,1*
G04 #@! TO.N,5V*
X26598880Y-56663880D03*
G04 #@! TO.P,R2,2*
G04 #@! TO.N,Net-(Q1-Pad1)*
X26598880Y-58763880D03*
G04 #@! TD*
G04 #@! TO.P,R3,1*
G04 #@! TO.N,Net-(Q1-Pad1)*
X36992180Y-62213700D03*
G04 #@! TO.P,R3,2*
G04 #@! TO.N,GND1*
X36992180Y-64313700D03*
G04 #@! TD*
D11*
G04 #@! TO.P,P11,*
G04 #@! TO.N,*
X38798500Y-49847500D03*
G04 #@! TD*
D30*
G04 #@! TO.P,P8,*
G04 #@! TO.N,*
X46824900Y-22543600D03*
X44284900Y-22543600D03*
D31*
G04 #@! TO.P,P8,2*
G04 #@! TO.N,GND1*
X46824900Y-24993600D03*
G04 #@! TO.P,P8,1*
G04 #@! TO.N,12V_IN_RAW*
X44284900Y-24993600D03*
G04 #@! TD*
D22*
G04 #@! TO.P,C6,2*
G04 #@! TO.N,Dev+*
X22504400Y-31140400D03*
G04 #@! TO.P,C6,1*
G04 #@! TO.N,GND1*
X18948400Y-31140400D03*
G04 #@! TD*
G04 #@! TO.P,C9,2*
G04 #@! TO.N,Dev+*
X22504400Y-28524200D03*
G04 #@! TO.P,C9,1*
G04 #@! TO.N,GND1*
X18948400Y-28524200D03*
G04 #@! TD*
D27*
G04 #@! TO.P,C10,2*
G04 #@! TO.N,Net-(C1-Pad1)*
X30426280Y-64114600D03*
G04 #@! TO.P,C10,1*
G04 #@! TO.N,GND1*
X30426280Y-60558600D03*
G04 #@! TD*
D32*
G04 #@! TO.P,L1,2*
G04 #@! TO.N,Net-(C4-Pad1)*
X20497800Y-37947600D03*
G04 #@! TO.P,L1,1*
G04 #@! TO.N,Dev+*
X20497800Y-33547600D03*
G04 #@! TD*
D12*
G04 #@! TO.P,R4,1*
G04 #@! TO.N,Net-(R4-Pad1)*
X24722800Y-50317400D03*
G04 #@! TO.P,R4,2*
G04 #@! TO.N,12V*
X22622800Y-50317400D03*
G04 #@! TD*
D20*
G04 #@! TO.P,R5,1*
G04 #@! TO.N,GND1*
X26517600Y-51392800D03*
G04 #@! TO.P,R5,2*
G04 #@! TO.N,Net-(R5-Pad2)*
X26517600Y-49292800D03*
G04 #@! TD*
G04 #@! TO.P,C3,1*
G04 #@! TO.N,GND1*
X19723100Y-45982600D03*
G04 #@! TO.P,C3,2*
G04 #@! TO.N,12V*
X19723100Y-43882600D03*
G04 #@! TD*
G04 #@! TO.P,C4,1*
G04 #@! TO.N,Net-(C4-Pad1)*
X19710400Y-39869400D03*
G04 #@! TO.P,C4,2*
G04 #@! TO.N,Net-(C4-Pad2)*
X19710400Y-41969400D03*
G04 #@! TD*
D12*
G04 #@! TO.P,C7,1*
G04 #@! TO.N,Net-(C7-Pad1)*
X22733000Y-52425600D03*
G04 #@! TO.P,C7,2*
G04 #@! TO.N,GND1*
X24833000Y-52425600D03*
G04 #@! TD*
D20*
G04 #@! TO.P,C8,1*
G04 #@! TO.N,Net-(C8-Pad1)*
X27762200Y-45703200D03*
G04 #@! TO.P,C8,2*
G04 #@! TO.N,GND1*
X27762200Y-43603200D03*
G04 #@! TD*
G04 #@! TO.P,R6,1*
G04 #@! TO.N,Net-(R5-Pad2)*
X27787600Y-41905900D03*
G04 #@! TO.P,R6,2*
G04 #@! TO.N,Dev+*
X27787600Y-39805900D03*
G04 #@! TD*
D33*
G04 #@! TO.P,P13,2*
G04 #@! TO.N,GND1*
X40335200Y-65161160D03*
G04 #@! TO.P,P13,1*
G04 #@! TO.N,5V*
X40335200Y-62621160D03*
G04 #@! TD*
D34*
G04 #@! TO.P,F1,2*
G04 #@! TO.N,12V_IN_RAW*
X52328000Y-29314000D03*
G04 #@! TO.P,F1,1*
G04 #@! TO.N,Net-(F1-Pad1)*
X52328000Y-33886000D03*
G04 #@! TD*
D32*
G04 #@! TO.P,L3,2*
G04 #@! TO.N,Net-(F1-Pad1)*
X46128000Y-30100000D03*
G04 #@! TO.P,L3,1*
G04 #@! TO.N,12V*
X46128000Y-34500000D03*
G04 #@! TD*
D35*
G04 #@! TO.P,P14,2*
G04 #@! TO.N,GND1*
X40068500Y-38036500D03*
G04 #@! TO.P,P14,1*
G04 #@! TO.N,12V*
X42608500Y-38036500D03*
G04 #@! TD*
D12*
G04 #@! TO.P,R10,1*
G04 #@! TO.N,Net-(C20-Pad1)*
X24844720Y-17724120D03*
G04 #@! TO.P,R10,2*
G04 #@! TO.N,Dev+*
X22744720Y-17724120D03*
G04 #@! TD*
D20*
G04 #@! TO.P,C20,1*
G04 #@! TO.N,Net-(C20-Pad1)*
X42367200Y-42131560D03*
G04 #@! TO.P,C20,2*
G04 #@! TO.N,GND1*
X42367200Y-44231560D03*
G04 #@! TD*
D36*
G04 #@! TO.N,GND1*
X24323800Y-45215300D03*
X24323800Y-44040300D03*
X23148800Y-44040300D03*
X35709480Y-64313700D03*
X49066960Y-50547780D03*
X39283640Y-31892240D03*
X21463000Y-50419000D03*
X26187400Y-52527200D03*
X50241960Y-51722780D03*
X53512720Y-48803560D03*
X52228500Y-41493440D03*
X31892240Y-60622100D03*
X33177480Y-59032140D03*
X44963080Y-60863480D03*
X46741080Y-63555880D03*
X30447301Y-50896520D03*
X32832040Y-50576480D03*
D37*
X19070320Y-57109360D03*
D36*
X52837080Y-58506360D03*
X39436040Y-58343800D03*
X23148800Y-45215300D03*
X49066960Y-51722780D03*
X50241960Y-50547780D03*
X41224200Y-53456840D03*
X53660040Y-40269160D03*
X42382440Y-45689520D03*
X35742880Y-36565840D03*
X31267400Y-36550600D03*
X31137839Y-55003422D03*
X35683847Y-39359169D03*
X34223960Y-39090600D03*
X41625520Y-24384000D03*
X45212000Y-37906960D03*
D37*
X25857200Y-33832800D03*
X20193000Y-28067000D03*
G04 #@! TO.N,12V*
X33771840Y-51943000D03*
X29157641Y-51982081D03*
G04 #@! TD*
D38*
G04 #@! TO.N,*
X32750380Y-63289100D02*
X32657581Y-63196301D01*
X32750380Y-63416100D02*
X32750380Y-63289100D01*
G04 #@! TO.N,GND1*
X32741780Y-60622100D02*
X32894180Y-60469700D01*
X32588580Y-60775300D02*
X32894180Y-60469700D01*
X32588580Y-62567700D02*
X32588580Y-60775300D01*
X27053198Y-62567700D02*
X31986180Y-62567700D01*
X34123098Y-64313700D02*
X33268097Y-65168701D01*
X33268097Y-65168701D02*
X26484199Y-65168701D01*
X26484199Y-65168701D02*
X26413079Y-65097581D01*
X31986180Y-62567700D02*
X32588580Y-62567700D01*
X26413079Y-65097581D02*
X26413079Y-63207819D01*
X26413079Y-63207819D02*
X27053198Y-62567700D01*
X24323800Y-44040300D02*
X24323800Y-45215300D01*
X23148800Y-45215300D02*
X24323800Y-44040300D01*
X24323800Y-44040300D02*
X23148800Y-44040300D01*
X23148800Y-44040300D02*
X23148800Y-45215300D01*
X24323800Y-43720300D02*
X24323800Y-44040300D01*
X25641300Y-41927800D02*
X25641300Y-42402800D01*
X25641300Y-42402800D02*
X24323800Y-43720300D01*
X24760900Y-43603200D02*
X24323800Y-44040300D01*
X27762200Y-43603200D02*
X24760900Y-43603200D01*
D39*
X20729100Y-45982600D02*
X19723100Y-45982600D01*
X21056601Y-46310101D02*
X20729100Y-45982600D01*
X21056601Y-48996599D02*
X21056601Y-46310101D01*
X19761200Y-51435000D02*
X19761200Y-50292000D01*
X19761200Y-50292000D02*
X21056601Y-48996599D01*
X22381500Y-45982600D02*
X23148800Y-45215300D01*
X19723100Y-45982600D02*
X22381500Y-45982600D01*
D38*
X36992180Y-64313700D02*
X35709480Y-64313700D01*
X35709480Y-64313700D02*
X34123098Y-64313700D01*
X47749460Y-53360280D02*
X49066960Y-52042780D01*
X50241960Y-51722780D02*
X50241960Y-50547780D01*
X49066960Y-52042780D02*
X49066960Y-51722780D01*
X50241960Y-50547780D02*
X49066960Y-51722780D01*
X49066960Y-51722780D02*
X49066960Y-50547780D01*
X49066960Y-51722780D02*
X50241960Y-51722780D01*
X47749460Y-53835280D02*
X47749460Y-53360280D01*
D40*
X41210700Y-31841900D02*
X39333980Y-31841900D01*
X39333980Y-31841900D02*
X39283640Y-31892240D01*
D38*
X25870700Y-31841900D02*
X25870700Y-33819300D01*
X25870700Y-33819300D02*
X25857200Y-33832800D01*
X26517600Y-51995200D02*
X26517600Y-51392800D01*
X24833000Y-52425600D02*
X26087200Y-52425600D01*
X26087200Y-52425600D02*
X26517600Y-51995200D01*
X20967700Y-50419000D02*
X21463000Y-50419000D01*
X19761200Y-51435000D02*
X19951700Y-51435000D01*
X19951700Y-51435000D02*
X20967700Y-50419000D01*
X26517600Y-51392800D02*
X26517600Y-52197000D01*
X26517600Y-52197000D02*
X26187400Y-52527200D01*
D40*
X52228500Y-43259500D02*
X52276000Y-43307000D01*
X39555300Y-38036500D02*
X37040700Y-35521900D01*
X40068500Y-38036500D02*
X39555300Y-38036500D01*
D38*
X25641300Y-41927800D02*
X25641300Y-39829065D01*
D41*
X45542200Y-50458080D02*
X45628560Y-50544440D01*
X43510200Y-50458080D02*
X45542200Y-50458080D01*
X49063620Y-50544440D02*
X49066960Y-50547780D01*
X45628560Y-50544440D02*
X49063620Y-50544440D01*
X47447180Y-54137560D02*
X47749460Y-53835280D01*
X46246760Y-54137560D02*
X47447180Y-54137560D01*
D39*
X53380640Y-50474880D02*
X53205640Y-50474880D01*
X53205640Y-50474880D02*
X51691800Y-51988720D01*
X51210460Y-51722780D02*
X50241960Y-51722780D01*
X51691800Y-51988720D02*
X51425860Y-51722780D01*
X51425860Y-51722780D02*
X51210460Y-51722780D01*
D38*
X53461920Y-47714880D02*
X53461920Y-48752760D01*
X53461920Y-48752760D02*
X53512720Y-48803560D01*
X51641000Y-42080940D02*
X52228500Y-41493440D01*
X51641000Y-43307000D02*
X51641000Y-42080940D01*
D40*
X52228500Y-37782500D02*
X52228500Y-41493440D01*
X52228500Y-41493440D02*
X52228500Y-43259500D01*
D38*
X31828740Y-60558600D02*
X31892240Y-60622100D01*
X30426280Y-60558600D02*
X31828740Y-60558600D01*
X30489780Y-60622100D02*
X31892240Y-60622100D01*
X31892240Y-60622100D02*
X32741780Y-60622100D01*
X32282980Y-58447100D02*
X32592440Y-58447100D01*
X32592440Y-58447100D02*
X33177480Y-59032140D01*
X46700440Y-61953140D02*
X45610780Y-60863480D01*
X46700440Y-62143640D02*
X46700440Y-61953140D01*
X45610780Y-60863480D02*
X44963080Y-60863480D01*
D39*
X46741080Y-62184280D02*
X46700440Y-62143640D01*
X46741080Y-63555880D02*
X46741080Y-62184280D01*
X46741080Y-64764920D02*
X46741080Y-63555880D01*
D38*
X29908500Y-50986309D02*
X29998289Y-50896520D01*
X29908500Y-51206400D02*
X29908500Y-50986309D01*
X29998289Y-50896520D02*
X30447301Y-50896520D01*
X28981400Y-51206400D02*
X29908500Y-51206400D01*
X28371800Y-51816000D02*
X28981400Y-51206400D01*
X27718200Y-51816000D02*
X28371800Y-51816000D01*
X27295000Y-51392800D02*
X27718200Y-51816000D01*
X26517600Y-51392800D02*
X27295000Y-51392800D01*
D42*
X49066960Y-50547780D02*
X50241960Y-50547780D01*
D38*
X41051480Y-53284120D02*
X41224200Y-53456840D01*
X53660040Y-39452040D02*
X53660040Y-40269160D01*
X52228500Y-37782500D02*
X52228500Y-38020500D01*
X52228500Y-38020500D02*
X53660040Y-39452040D01*
X42367200Y-44231560D02*
X42367200Y-45674280D01*
X42367200Y-45674280D02*
X42382440Y-45689520D01*
X35742880Y-36107320D02*
X35742880Y-36565840D01*
X37040700Y-35521900D02*
X36328300Y-35521900D01*
X36328300Y-35521900D02*
X35742880Y-36107320D01*
X31267400Y-34128718D02*
X31267400Y-36550600D01*
X31797819Y-33598299D02*
X31267400Y-34128718D01*
X36252099Y-33598299D02*
X31797819Y-33598299D01*
X37040700Y-35521900D02*
X37040700Y-34386900D01*
X37040700Y-34386900D02*
X36252099Y-33598299D01*
X35820800Y-40328000D02*
X35820800Y-39496122D01*
X35820800Y-39496122D02*
X35683847Y-39359169D01*
X33820800Y-39716518D02*
X33820800Y-40328000D01*
X33987919Y-39549399D02*
X33820800Y-39716518D01*
X34653681Y-39549399D02*
X33987919Y-39549399D01*
X34820800Y-40328000D02*
X34820800Y-39716518D01*
X34820800Y-39716518D02*
X34653681Y-39549399D01*
X33820800Y-40328000D02*
X33820800Y-39493760D01*
X33820800Y-39493760D02*
X34223960Y-39090600D01*
D40*
X18948400Y-28524200D02*
X18948400Y-29845000D01*
X18948400Y-29845000D02*
X18948400Y-31140400D01*
D43*
X18948400Y-28524200D02*
X19735800Y-28524200D01*
X19735800Y-28524200D02*
X20193000Y-28067000D01*
D38*
G04 #@! TO.N,Dev+*
X27787600Y-35890200D02*
X27787600Y-39805900D01*
D43*
X27787600Y-35890200D02*
X27787600Y-22428200D01*
D41*
X21597800Y-33547600D02*
X20497800Y-33547600D01*
X23266400Y-35216200D02*
X21597800Y-33547600D01*
X23266400Y-36851545D02*
X23266400Y-35216200D01*
X24289745Y-37874890D02*
X23266400Y-36851545D01*
D38*
X24968041Y-38365226D02*
X24574225Y-37971410D01*
X25756602Y-38365226D02*
X24968041Y-38365226D01*
X27787600Y-39805900D02*
X27197276Y-39805900D01*
X27197276Y-39805900D02*
X25756602Y-38365226D01*
X22744720Y-18045720D02*
X22744720Y-17724120D01*
X24790400Y-20091400D02*
X22744720Y-18045720D01*
X27127200Y-22428200D02*
X24790400Y-20091400D01*
X27787600Y-22428200D02*
X27127200Y-22428200D01*
D39*
X20497800Y-33147000D02*
X22504400Y-31140400D01*
X20497800Y-33547600D02*
X20497800Y-33147000D01*
D40*
X22504400Y-31140400D02*
X22504400Y-28524200D01*
D38*
G04 #@! TO.N,D+*
X34487919Y-40906601D02*
X36153681Y-40906601D01*
X34320800Y-40328000D02*
X34320800Y-40739482D01*
X36242638Y-39106357D02*
X34433641Y-37297360D01*
X36153681Y-40906601D02*
X36242638Y-40817644D01*
X34320800Y-40739482D02*
X34487919Y-40906601D01*
X36242638Y-40817644D02*
X36242638Y-39106357D01*
X34433641Y-35628959D02*
X34540700Y-35521900D01*
X34433641Y-37297360D02*
X34433641Y-35628959D01*
G04 #@! TO.N,ID*
X33320800Y-40328000D02*
X33320800Y-40745600D01*
X32712670Y-41900721D02*
X32217359Y-42396031D01*
X33320800Y-40745600D02*
X32712670Y-41353730D01*
X32712670Y-41353730D02*
X32712670Y-41900721D01*
X33232980Y-56397100D02*
X33232980Y-56447100D01*
X32217359Y-55747919D02*
X32583799Y-55747919D01*
X32583799Y-55747919D02*
X33232980Y-56397100D01*
X33019360Y-55631080D02*
X32217359Y-55631080D01*
X33232980Y-55844700D02*
X33019360Y-55631080D01*
X33232980Y-56447100D02*
X33232980Y-55844700D01*
X32217359Y-42396031D02*
X32217359Y-55631080D01*
X32217359Y-55631080D02*
X32217359Y-55747919D01*
G04 #@! TO.N,D-*
X35137745Y-39568846D02*
X35137745Y-39621299D01*
X35320800Y-39804354D02*
X35320800Y-40328000D01*
X35137745Y-39621299D02*
X35320800Y-39804354D01*
X35137745Y-39568846D02*
X35137745Y-39007971D01*
X33416231Y-36397433D02*
X32540700Y-35521900D01*
X35137745Y-39007971D02*
X33416231Y-37286457D01*
X33416231Y-37286457D02*
X33416231Y-36397433D01*
D39*
G04 #@! TO.N,12V*
X20729100Y-43882600D02*
X19723100Y-43882600D01*
X21621500Y-43882600D02*
X20729100Y-43882600D01*
X23101300Y-41927800D02*
X23101300Y-42402800D01*
X23101300Y-42402800D02*
X21621500Y-43882600D01*
X19570700Y-47879000D02*
X19761200Y-47879000D01*
X18427700Y-46736000D02*
X19570700Y-47879000D01*
X18427700Y-45003000D02*
X18427700Y-46736000D01*
X19548100Y-43882600D02*
X18427700Y-45003000D01*
X19723100Y-43882600D02*
X19548100Y-43882600D01*
D40*
X48228500Y-36600500D02*
X46128000Y-34500000D01*
X48228500Y-37782500D02*
X48228500Y-36600500D01*
X46276000Y-44669000D02*
X46291500Y-44684500D01*
X46276000Y-43307000D02*
X46276000Y-44669000D01*
D42*
X22606000Y-54495700D02*
X22606000Y-54686200D01*
X21336000Y-53225700D02*
X22606000Y-54495700D01*
X19105878Y-53225700D02*
X21336000Y-53225700D01*
X18402299Y-52522121D02*
X19105878Y-53225700D01*
X19570700Y-47879000D02*
X18402299Y-49047401D01*
X18402299Y-49047401D02*
X18402299Y-52522121D01*
D43*
X27403680Y-60596700D02*
X27594180Y-60596700D01*
X37359491Y-65524311D02*
X26336900Y-65524310D01*
X26336900Y-65524310D02*
X26057469Y-65244879D01*
X26057469Y-65244879D02*
X26057469Y-61942911D01*
X26057469Y-61942911D02*
X27403680Y-60596700D01*
D38*
X22622800Y-50492400D02*
X22622800Y-50317400D01*
X21336000Y-53225700D02*
X21336000Y-51779200D01*
X21336000Y-51779200D02*
X22622800Y-50492400D01*
D41*
X50289460Y-53360280D02*
X51074860Y-52574880D01*
X50289460Y-53835280D02*
X50289460Y-53360280D01*
X51074860Y-52574880D02*
X52552440Y-52574880D01*
X52552440Y-52574880D02*
X53380640Y-52574880D01*
D38*
X53380640Y-51972480D02*
X53547280Y-51805840D01*
X53380640Y-52574880D02*
X53380640Y-51972480D01*
D43*
X54285041Y-49801359D02*
X54100042Y-49616360D01*
X54285041Y-51148401D02*
X54285041Y-49801359D01*
X53547280Y-51805840D02*
X53627602Y-51805840D01*
X53627602Y-51805840D02*
X54285041Y-51148401D01*
D40*
X46276000Y-44669000D02*
X48367240Y-44669000D01*
D42*
X22606000Y-56146700D02*
X22606000Y-54686200D01*
X22606000Y-57069020D02*
X22606000Y-56146700D01*
X27594180Y-60596700D02*
X26133680Y-60596700D01*
X26133680Y-60596700D02*
X22606000Y-57069020D01*
D40*
X25514139Y-53774501D02*
X24602440Y-54686200D01*
X24602440Y-54686200D02*
X22606000Y-54686200D01*
D42*
X26011473Y-53774501D02*
X26217374Y-53568600D01*
X25514139Y-53774501D02*
X26011473Y-53774501D01*
X26217374Y-53568600D02*
X27823160Y-53568600D01*
X41485238Y-43307000D02*
X40880718Y-43911520D01*
X45641000Y-43307000D02*
X41485238Y-43307000D01*
D44*
X42608500Y-39512238D02*
X42608500Y-38036500D01*
X40726360Y-41394378D02*
X42608500Y-39512238D01*
X40726360Y-43911520D02*
X40726360Y-41394378D01*
X40880718Y-43911520D02*
X40726360Y-43911520D01*
D42*
X45028000Y-34500000D02*
X46128000Y-34500000D01*
X42608500Y-38036500D02*
X42608500Y-36919500D01*
X42608500Y-36919500D02*
X45028000Y-34500000D01*
D39*
X49580800Y-45882560D02*
X49580800Y-47317379D01*
D40*
X48367240Y-44669000D02*
X49580800Y-45882560D01*
D43*
X49892618Y-49616360D02*
X52166520Y-49616360D01*
X49598861Y-49322603D02*
X49892618Y-49616360D01*
X49598861Y-47335440D02*
X49598861Y-49322603D01*
X49580800Y-47317379D02*
X49598861Y-47335440D01*
D42*
X54100042Y-49616360D02*
X52166520Y-49616360D01*
D40*
X28713142Y-52426580D02*
X29157641Y-51982081D01*
X27881002Y-53258720D02*
X28713142Y-52426580D01*
X27823160Y-53258720D02*
X27881002Y-53258720D01*
D45*
X40764299Y-43949459D02*
X40726360Y-43911520D01*
X40764299Y-45463881D02*
X40764299Y-43949459D01*
X40259000Y-51943000D02*
X41148000Y-51054000D01*
X33771840Y-51943000D02*
X40259000Y-51943000D01*
X41148000Y-46372274D02*
X41087039Y-46311313D01*
X41087039Y-46311313D02*
X41087039Y-45659461D01*
X40959879Y-45659461D02*
X40764299Y-45463881D01*
X41148000Y-51054000D02*
X41148000Y-46372274D01*
X41087039Y-45659461D02*
X40959879Y-45659461D01*
D38*
G04 #@! TO.N,Net-(C1-Pad1)*
X30464380Y-64152700D02*
X30489780Y-64178100D01*
X27594180Y-64152700D02*
X30464380Y-64152700D01*
X30489780Y-64178100D02*
X32775780Y-64178100D01*
X32638580Y-64467700D02*
X32588580Y-64467700D01*
X33190980Y-63915300D02*
X32638580Y-64467700D01*
X33190980Y-63406566D02*
X33190980Y-63915300D01*
X34994180Y-60469700D02*
X34994180Y-61603366D01*
X34994180Y-61603366D02*
X33190980Y-63406566D01*
X27632280Y-64114600D02*
X27594180Y-64152700D01*
X30426280Y-64114600D02*
X27632280Y-64114600D01*
G04 #@! TO.N,Net-(Q1-Pad1)*
X34735380Y-58447100D02*
X34182980Y-58447100D01*
X35672781Y-59384501D02*
X34735380Y-58447100D01*
X34588580Y-63517700D02*
X34588580Y-62965300D01*
X34588580Y-62965300D02*
X35672781Y-61881099D01*
X35340180Y-62213700D02*
X34588580Y-62965300D01*
X36992180Y-62213700D02*
X35340180Y-62213700D01*
X30612120Y-57905360D02*
X30612120Y-57855360D01*
X26598880Y-58763880D02*
X29753600Y-58763880D01*
X29753600Y-58763880D02*
X30612120Y-57905360D01*
X31732600Y-59578240D02*
X35672781Y-59578240D01*
X30612120Y-58457760D02*
X31732600Y-59578240D01*
X30612120Y-57855360D02*
X30612120Y-58457760D01*
X35672781Y-61881099D02*
X35672781Y-59578240D01*
X35672781Y-59578240D02*
X35672781Y-59384501D01*
G04 #@! TO.N,Net-(C4-Pad1)*
X19710400Y-38735000D02*
X20497800Y-37947600D01*
X19710400Y-39869400D02*
X19710400Y-38735000D01*
X24371300Y-41452800D02*
X23812500Y-40894000D01*
X24371300Y-41927800D02*
X24371300Y-41452800D01*
X23812500Y-40894000D02*
X19939000Y-40894000D01*
X19710400Y-40471800D02*
X19710400Y-39869400D01*
X19939000Y-40894000D02*
X19710400Y-40665400D01*
X19710400Y-40665400D02*
X19710400Y-40471800D01*
D39*
X24371300Y-40771800D02*
X24036300Y-40436800D01*
X24371300Y-41927800D02*
X24371300Y-40771800D01*
D40*
X21597800Y-37947600D02*
X20497800Y-37947600D01*
X24036300Y-40436800D02*
X24036300Y-40386100D01*
X24036300Y-40386100D02*
X21597800Y-37947600D01*
D38*
G04 #@! TO.N,Net-(C4-Pad2)*
X21789700Y-41969400D02*
X21831300Y-41927800D01*
X19710400Y-41969400D02*
X21789700Y-41969400D01*
G04 #@! TO.N,Net-(C7-Pad1)*
X21831300Y-47802800D02*
X21831300Y-47327800D01*
X23301401Y-49272901D02*
X21831300Y-47802800D01*
X23301401Y-51079799D02*
X23301401Y-49272901D01*
X22733000Y-52425600D02*
X22733000Y-51648200D01*
X22733000Y-51648200D02*
X23301401Y-51079799D01*
G04 #@! TO.N,Net-(C8-Pad1)*
X24371300Y-46852800D02*
X24371300Y-47327800D01*
X27762200Y-45703200D02*
X25520900Y-45703200D01*
X25520900Y-45703200D02*
X24371300Y-46852800D01*
D41*
G04 #@! TO.N,Net-(R4-Pad1)*
X23101300Y-48306000D02*
X23101300Y-47327800D01*
X23101300Y-48520900D02*
X23101300Y-48306000D01*
X24722800Y-50317400D02*
X24722800Y-50142400D01*
X24722800Y-50142400D02*
X23101300Y-48520900D01*
D38*
G04 #@! TO.N,Net-(R5-Pad2)*
X28615801Y-42559101D02*
X28615801Y-46752899D01*
X27787600Y-41905900D02*
X27962600Y-41905900D01*
X27962600Y-41905900D02*
X28615801Y-42559101D01*
D43*
X26517600Y-49292800D02*
X26517600Y-48031400D01*
X27796101Y-46752899D02*
X28615801Y-46752899D01*
X26517600Y-48031400D02*
X27796101Y-46752899D01*
X26770201Y-46752899D02*
X27796101Y-46752899D01*
X25641300Y-47327800D02*
X26195300Y-47327800D01*
X26195300Y-47327800D02*
X26770201Y-46752899D01*
D40*
G04 #@! TO.N,Net-(C13-Pad1)*
X47814520Y-58049160D02*
X49470600Y-56393080D01*
X46964960Y-58049160D02*
X47814520Y-58049160D01*
D43*
X49019460Y-55941940D02*
X49470600Y-56393080D01*
X49019460Y-53835280D02*
X49019460Y-55941940D01*
D39*
G04 #@! TO.N,Net-(C13-Pad2)*
X51559460Y-56381940D02*
X51570600Y-56393080D01*
X51559460Y-53835280D02*
X51559460Y-56381940D01*
D38*
G04 #@! TO.N,Net-(C16-Pad1)*
X53461920Y-46057820D02*
X53461920Y-45614880D01*
X51559460Y-48435280D02*
X51559460Y-47960280D01*
X51559460Y-47960280D02*
X53461920Y-46057820D01*
D41*
G04 #@! TO.N,Net-(C17-Pad1)*
X45803560Y-48444440D02*
X45628560Y-48444440D01*
X46823401Y-49464281D02*
X45803560Y-48444440D01*
X48465459Y-49464281D02*
X46823401Y-49464281D01*
X49019460Y-48435280D02*
X49019460Y-48910280D01*
X49019460Y-48910280D02*
X48465459Y-49464281D01*
D40*
G04 #@! TO.N,12V_IN_RAW*
X49788000Y-29314000D02*
X52328000Y-29314000D01*
X49090599Y-28616599D02*
X49788000Y-29314000D01*
X47407899Y-28616599D02*
X49090599Y-28616599D01*
X44284900Y-24993600D02*
X44284900Y-25493600D01*
X44284900Y-25493600D02*
X47407899Y-28616599D01*
D41*
G04 #@! TO.N,Net-(R8-Pad2)*
X47246260Y-48435280D02*
X47749460Y-48435280D01*
X46515860Y-47704880D02*
X47246260Y-48435280D01*
X44338400Y-47704880D02*
X46515860Y-47704880D01*
X43510200Y-48358080D02*
X43685200Y-48358080D01*
X43685200Y-48358080D02*
X44338400Y-47704880D01*
X43510200Y-49011280D02*
X43510200Y-48358080D01*
X44968720Y-52181760D02*
X43949041Y-51162081D01*
X45621920Y-52181760D02*
X44968720Y-52181760D01*
X43949041Y-51162081D02*
X42681999Y-51162081D01*
X42681999Y-51162081D02*
X42631199Y-51111281D01*
X42631199Y-51111281D02*
X42631199Y-49890281D01*
X42631199Y-49890281D02*
X43510200Y-49011280D01*
D40*
G04 #@! TO.N,Net-(F1-Pad1)*
X48034000Y-30100000D02*
X46128000Y-30100000D01*
X52328000Y-33886000D02*
X51820000Y-33886000D01*
X51820000Y-33886000D02*
X48034000Y-30100000D01*
D41*
G04 #@! TO.N,5V*
X43718160Y-58049160D02*
X42564960Y-58049160D01*
X44146760Y-54137560D02*
X44146760Y-57620560D01*
X44146760Y-57620560D02*
X43718160Y-58049160D01*
X43521920Y-53512720D02*
X44146760Y-54137560D01*
X43521920Y-52181760D02*
X43521920Y-53512720D01*
D39*
X40035200Y-62621160D02*
X40335200Y-62621160D01*
X28712120Y-57805360D02*
X29493120Y-57024360D01*
X28712120Y-57855360D02*
X28712120Y-57805360D01*
X29493120Y-57024360D02*
X32343018Y-57024360D01*
X32343018Y-57024360D02*
X32972857Y-57654199D01*
X32972857Y-57654199D02*
X35068239Y-57654199D01*
X35068239Y-57654199D02*
X40035200Y-62621160D01*
X27790360Y-57855360D02*
X26598880Y-56663880D01*
X28712120Y-57855360D02*
X27790360Y-57855360D01*
D42*
X27790360Y-57855360D02*
X27790360Y-56009320D01*
X30040700Y-37724900D02*
X30040700Y-35521900D01*
D38*
X40335200Y-62621160D02*
X42666920Y-62621160D01*
X42666920Y-62621160D02*
X43144440Y-62143640D01*
D39*
X43144440Y-62143640D02*
X43144440Y-58628640D01*
X43144440Y-58628640D02*
X42564960Y-58049160D01*
X43185080Y-64764920D02*
X43185080Y-62184280D01*
X43185080Y-62184280D02*
X43144440Y-62143640D01*
X27790360Y-56009320D02*
X27790360Y-55663880D01*
X27790360Y-55663880D02*
X29301440Y-54152800D01*
X30627641Y-54152800D02*
X31171201Y-53609240D01*
X29301440Y-54152800D02*
X30627641Y-54152800D01*
D42*
X29974399Y-44167919D02*
X29974399Y-37791201D01*
X31171201Y-45364721D02*
X29974399Y-44167919D01*
X29974399Y-37791201D02*
X30040700Y-37724900D01*
X31171201Y-53609240D02*
X31171201Y-45364721D01*
D39*
G04 #@! TO.N,5V_USB_DEV*
X31798249Y-44284911D02*
X31798249Y-55469401D01*
X30443120Y-55855360D02*
X29662120Y-55855360D01*
X31412290Y-55855360D02*
X30443120Y-55855360D01*
X31798249Y-55469401D02*
X31412290Y-55855360D01*
D38*
X32820800Y-40328000D02*
X32820800Y-40646160D01*
D39*
X31798249Y-44284911D02*
X31798249Y-42222431D01*
X31798249Y-42222431D02*
X32293560Y-41727120D01*
X32293560Y-41727120D02*
X32293560Y-41295320D01*
D38*
X31820800Y-40822560D02*
X32293560Y-41295320D01*
X31820800Y-40328000D02*
X31820800Y-40822560D01*
X32320800Y-41268080D02*
X32293560Y-41295320D01*
X32320800Y-40328000D02*
X32320800Y-41268080D01*
X32820800Y-40768080D02*
X32293560Y-41295320D01*
X32820800Y-40328000D02*
X32820800Y-40768080D01*
G04 #@! TO.N,Net-(C20-Pad1)*
X24888211Y-17724120D02*
X24844720Y-17724120D01*
X29470371Y-22306280D02*
X24888211Y-17724120D01*
X34416562Y-22306280D02*
X29470371Y-22306280D01*
X45431681Y-33321399D02*
X34416562Y-22306280D01*
X48303917Y-33321399D02*
X45431681Y-33321399D01*
X43144600Y-42131560D02*
X42367200Y-42131560D01*
X50095478Y-35112960D02*
X48303917Y-33321399D01*
X50289460Y-45143978D02*
X50289460Y-48684180D01*
X47277042Y-42131560D02*
X50289460Y-45143978D01*
X45882560Y-42131560D02*
X43144600Y-42131560D01*
X50095478Y-39234362D02*
X50095478Y-37962840D01*
X47198280Y-42131560D02*
X50095478Y-39234362D01*
X50095478Y-35112960D02*
X50095478Y-37962840D01*
X45882560Y-42131560D02*
X47198280Y-42131560D01*
X47198280Y-42131560D02*
X47277042Y-42131560D01*
G04 #@! TD*
G04 #@! TO.N,Dev+*
G36*
X19260137Y-18872707D02*
X19601731Y-19014200D01*
X19971469Y-19014200D01*
X20313063Y-18872707D01*
X20313570Y-18872200D01*
X25533397Y-18872200D01*
X26847800Y-20186603D01*
X26847800Y-30447027D01*
X24650700Y-30447027D01*
X24541684Y-30468712D01*
X24449264Y-30530464D01*
X24387512Y-30622884D01*
X24365827Y-30731900D01*
X24365827Y-32951900D01*
X24385972Y-33053173D01*
X23266929Y-33045402D01*
X23237729Y-33051000D01*
X23212894Y-33067346D01*
X23196205Y-33091951D01*
X23190240Y-33124057D01*
X23238503Y-34620200D01*
X22909409Y-34620200D01*
X22928800Y-34573385D01*
X22928800Y-33693650D01*
X22833550Y-33598400D01*
X20548600Y-33598400D01*
X20548600Y-33618400D01*
X20447000Y-33618400D01*
X20447000Y-33598400D01*
X20427000Y-33598400D01*
X20427000Y-33496800D01*
X20447000Y-33496800D01*
X20447000Y-32311850D01*
X20548600Y-32311850D01*
X20548600Y-33496800D01*
X22833550Y-33496800D01*
X22928800Y-33401550D01*
X22928800Y-32521815D01*
X22908953Y-32473900D01*
X23342185Y-32473900D01*
X23482219Y-32415896D01*
X23589396Y-32308720D01*
X23647400Y-32168686D01*
X23647400Y-31286450D01*
X23552150Y-31191200D01*
X22555200Y-31191200D01*
X22555200Y-31211200D01*
X22453600Y-31211200D01*
X22453600Y-31191200D01*
X21456650Y-31191200D01*
X21361400Y-31286450D01*
X21361400Y-32168686D01*
X21381247Y-32216600D01*
X20643850Y-32216600D01*
X20548600Y-32311850D01*
X20447000Y-32311850D01*
X20351750Y-32216600D01*
X19963777Y-32216600D01*
X19973588Y-32201916D01*
X19995273Y-32092900D01*
X19995273Y-30187900D01*
X19973588Y-30078884D01*
X19911836Y-29986464D01*
X19819416Y-29924712D01*
X19710400Y-29903027D01*
X19608800Y-29903027D01*
X19608800Y-29761573D01*
X19710400Y-29761573D01*
X19819416Y-29739888D01*
X19911836Y-29678136D01*
X19973588Y-29585716D01*
X19995273Y-29476700D01*
X19995273Y-28839597D01*
X20028797Y-28817197D01*
X20046940Y-28790044D01*
X20049007Y-28790900D01*
X20336993Y-28790900D01*
X20603056Y-28680693D01*
X20613499Y-28670250D01*
X21361400Y-28670250D01*
X21361400Y-29552486D01*
X21419404Y-29692520D01*
X21526581Y-29799696D01*
X21605294Y-29832300D01*
X21526581Y-29864904D01*
X21419404Y-29972080D01*
X21361400Y-30112114D01*
X21361400Y-30994350D01*
X21456650Y-31089600D01*
X22453600Y-31089600D01*
X22453600Y-29902150D01*
X22383750Y-29832300D01*
X22453600Y-29762450D01*
X22453600Y-28575000D01*
X22555200Y-28575000D01*
X22555200Y-29762450D01*
X22625050Y-29832300D01*
X22555200Y-29902150D01*
X22555200Y-31089600D01*
X23552150Y-31089600D01*
X23647400Y-30994350D01*
X23647400Y-30112114D01*
X23589396Y-29972080D01*
X23482219Y-29864904D01*
X23403506Y-29832300D01*
X23482219Y-29799696D01*
X23589396Y-29692520D01*
X23647400Y-29552486D01*
X23647400Y-28670250D01*
X23552150Y-28575000D01*
X22555200Y-28575000D01*
X22453600Y-28575000D01*
X21456650Y-28575000D01*
X21361400Y-28670250D01*
X20613499Y-28670250D01*
X20806693Y-28477056D01*
X20916900Y-28210993D01*
X20916900Y-27923007D01*
X20806693Y-27656944D01*
X20660749Y-27511000D01*
X21361400Y-27511000D01*
X21361400Y-28378150D01*
X21456650Y-28473400D01*
X22453600Y-28473400D01*
X22453600Y-27285950D01*
X22555200Y-27285950D01*
X22555200Y-28473400D01*
X23552150Y-28473400D01*
X23647400Y-28378150D01*
X23647400Y-27495914D01*
X23589396Y-27355880D01*
X23482219Y-27248704D01*
X23342185Y-27190700D01*
X22650450Y-27190700D01*
X22555200Y-27285950D01*
X22453600Y-27285950D01*
X22358350Y-27190700D01*
X22162366Y-27190700D01*
X22519727Y-27042676D01*
X23385076Y-26177327D01*
X23853400Y-25046694D01*
X23853400Y-23822906D01*
X23385076Y-22692273D01*
X22519727Y-21826924D01*
X21389094Y-21358600D01*
X20165306Y-21358600D01*
X19034673Y-21826924D01*
X18169324Y-22692273D01*
X18134400Y-22776587D01*
X18134400Y-20802323D01*
X24151319Y-20802323D01*
X24214341Y-20970703D01*
X24594686Y-21124218D01*
X25004827Y-21120496D01*
X25366459Y-20970703D01*
X25429481Y-20802323D01*
X24790400Y-20163242D01*
X24151319Y-20802323D01*
X18134400Y-20802323D01*
X18134400Y-19895686D01*
X23757582Y-19895686D01*
X23761304Y-20305827D01*
X23911097Y-20667459D01*
X24079477Y-20730481D01*
X24718558Y-20091400D01*
X24862242Y-20091400D01*
X25501323Y-20730481D01*
X25669703Y-20667459D01*
X25823218Y-20287114D01*
X25819496Y-19876973D01*
X25669703Y-19515341D01*
X25501323Y-19452319D01*
X24862242Y-20091400D01*
X24718558Y-20091400D01*
X24079477Y-19452319D01*
X23911097Y-19515341D01*
X23757582Y-19895686D01*
X18134400Y-19895686D01*
X18134400Y-19380477D01*
X24151319Y-19380477D01*
X24790400Y-20019558D01*
X25429481Y-19380477D01*
X25366459Y-19212097D01*
X24986114Y-19058582D01*
X24575973Y-19062304D01*
X24214341Y-19212097D01*
X24151319Y-19380477D01*
X18134400Y-19380477D01*
X18134400Y-18872200D01*
X19259630Y-18872200D01*
X19260137Y-18872707D01*
X19260137Y-18872707D01*
G37*
X19260137Y-18872707D02*
X19601731Y-19014200D01*
X19971469Y-19014200D01*
X20313063Y-18872707D01*
X20313570Y-18872200D01*
X25533397Y-18872200D01*
X26847800Y-20186603D01*
X26847800Y-30447027D01*
X24650700Y-30447027D01*
X24541684Y-30468712D01*
X24449264Y-30530464D01*
X24387512Y-30622884D01*
X24365827Y-30731900D01*
X24365827Y-32951900D01*
X24385972Y-33053173D01*
X23266929Y-33045402D01*
X23237729Y-33051000D01*
X23212894Y-33067346D01*
X23196205Y-33091951D01*
X23190240Y-33124057D01*
X23238503Y-34620200D01*
X22909409Y-34620200D01*
X22928800Y-34573385D01*
X22928800Y-33693650D01*
X22833550Y-33598400D01*
X20548600Y-33598400D01*
X20548600Y-33618400D01*
X20447000Y-33618400D01*
X20447000Y-33598400D01*
X20427000Y-33598400D01*
X20427000Y-33496800D01*
X20447000Y-33496800D01*
X20447000Y-32311850D01*
X20548600Y-32311850D01*
X20548600Y-33496800D01*
X22833550Y-33496800D01*
X22928800Y-33401550D01*
X22928800Y-32521815D01*
X22908953Y-32473900D01*
X23342185Y-32473900D01*
X23482219Y-32415896D01*
X23589396Y-32308720D01*
X23647400Y-32168686D01*
X23647400Y-31286450D01*
X23552150Y-31191200D01*
X22555200Y-31191200D01*
X22555200Y-31211200D01*
X22453600Y-31211200D01*
X22453600Y-31191200D01*
X21456650Y-31191200D01*
X21361400Y-31286450D01*
X21361400Y-32168686D01*
X21381247Y-32216600D01*
X20643850Y-32216600D01*
X20548600Y-32311850D01*
X20447000Y-32311850D01*
X20351750Y-32216600D01*
X19963777Y-32216600D01*
X19973588Y-32201916D01*
X19995273Y-32092900D01*
X19995273Y-30187900D01*
X19973588Y-30078884D01*
X19911836Y-29986464D01*
X19819416Y-29924712D01*
X19710400Y-29903027D01*
X19608800Y-29903027D01*
X19608800Y-29761573D01*
X19710400Y-29761573D01*
X19819416Y-29739888D01*
X19911836Y-29678136D01*
X19973588Y-29585716D01*
X19995273Y-29476700D01*
X19995273Y-28839597D01*
X20028797Y-28817197D01*
X20046940Y-28790044D01*
X20049007Y-28790900D01*
X20336993Y-28790900D01*
X20603056Y-28680693D01*
X20613499Y-28670250D01*
X21361400Y-28670250D01*
X21361400Y-29552486D01*
X21419404Y-29692520D01*
X21526581Y-29799696D01*
X21605294Y-29832300D01*
X21526581Y-29864904D01*
X21419404Y-29972080D01*
X21361400Y-30112114D01*
X21361400Y-30994350D01*
X21456650Y-31089600D01*
X22453600Y-31089600D01*
X22453600Y-29902150D01*
X22383750Y-29832300D01*
X22453600Y-29762450D01*
X22453600Y-28575000D01*
X22555200Y-28575000D01*
X22555200Y-29762450D01*
X22625050Y-29832300D01*
X22555200Y-29902150D01*
X22555200Y-31089600D01*
X23552150Y-31089600D01*
X23647400Y-30994350D01*
X23647400Y-30112114D01*
X23589396Y-29972080D01*
X23482219Y-29864904D01*
X23403506Y-29832300D01*
X23482219Y-29799696D01*
X23589396Y-29692520D01*
X23647400Y-29552486D01*
X23647400Y-28670250D01*
X23552150Y-28575000D01*
X22555200Y-28575000D01*
X22453600Y-28575000D01*
X21456650Y-28575000D01*
X21361400Y-28670250D01*
X20613499Y-28670250D01*
X20806693Y-28477056D01*
X20916900Y-28210993D01*
X20916900Y-27923007D01*
X20806693Y-27656944D01*
X20660749Y-27511000D01*
X21361400Y-27511000D01*
X21361400Y-28378150D01*
X21456650Y-28473400D01*
X22453600Y-28473400D01*
X22453600Y-27285950D01*
X22555200Y-27285950D01*
X22555200Y-28473400D01*
X23552150Y-28473400D01*
X23647400Y-28378150D01*
X23647400Y-27495914D01*
X23589396Y-27355880D01*
X23482219Y-27248704D01*
X23342185Y-27190700D01*
X22650450Y-27190700D01*
X22555200Y-27285950D01*
X22453600Y-27285950D01*
X22358350Y-27190700D01*
X22162366Y-27190700D01*
X22519727Y-27042676D01*
X23385076Y-26177327D01*
X23853400Y-25046694D01*
X23853400Y-23822906D01*
X23385076Y-22692273D01*
X22519727Y-21826924D01*
X21389094Y-21358600D01*
X20165306Y-21358600D01*
X19034673Y-21826924D01*
X18169324Y-22692273D01*
X18134400Y-22776587D01*
X18134400Y-20802323D01*
X24151319Y-20802323D01*
X24214341Y-20970703D01*
X24594686Y-21124218D01*
X25004827Y-21120496D01*
X25366459Y-20970703D01*
X25429481Y-20802323D01*
X24790400Y-20163242D01*
X24151319Y-20802323D01*
X18134400Y-20802323D01*
X18134400Y-19895686D01*
X23757582Y-19895686D01*
X23761304Y-20305827D01*
X23911097Y-20667459D01*
X24079477Y-20730481D01*
X24718558Y-20091400D01*
X24862242Y-20091400D01*
X25501323Y-20730481D01*
X25669703Y-20667459D01*
X25823218Y-20287114D01*
X25819496Y-19876973D01*
X25669703Y-19515341D01*
X25501323Y-19452319D01*
X24862242Y-20091400D01*
X24718558Y-20091400D01*
X24079477Y-19452319D01*
X23911097Y-19515341D01*
X23757582Y-19895686D01*
X18134400Y-19895686D01*
X18134400Y-19380477D01*
X24151319Y-19380477D01*
X24790400Y-20019558D01*
X25429481Y-19380477D01*
X25366459Y-19212097D01*
X24986114Y-19058582D01*
X24575973Y-19062304D01*
X24214341Y-19212097D01*
X24151319Y-19380477D01*
X18134400Y-19380477D01*
X18134400Y-18872200D01*
X19259630Y-18872200D01*
X19260137Y-18872707D01*
G04 #@! TO.N,GND1*
G36*
X44718687Y-48894440D02*
X44740372Y-49003456D01*
X44802124Y-49095876D01*
X44894544Y-49157628D01*
X45003560Y-49179313D01*
X45999618Y-49179313D01*
X46527459Y-49707155D01*
X46548715Y-49738967D01*
X46615373Y-49783506D01*
X46674742Y-49823175D01*
X46823401Y-49852745D01*
X46860925Y-49845281D01*
X48114703Y-49845281D01*
X48098460Y-49884494D01*
X48098460Y-50401730D01*
X48193710Y-50496980D01*
X49016160Y-50496980D01*
X49016160Y-49674530D01*
X48920910Y-49579280D01*
X48889275Y-49579280D01*
X48973402Y-49495153D01*
X49225384Y-49495153D01*
X49256882Y-49542292D01*
X49281596Y-49579280D01*
X49213010Y-49579280D01*
X49117760Y-49674530D01*
X49117760Y-50496980D01*
X50191160Y-50496980D01*
X50191160Y-50476980D01*
X50292760Y-50476980D01*
X50292760Y-50496980D01*
X51115210Y-50496980D01*
X51210460Y-50401730D01*
X51210460Y-50022760D01*
X51814648Y-50022760D01*
X51958398Y-50118811D01*
X52113989Y-50149760D01*
X52374640Y-50149760D01*
X52374640Y-50328830D01*
X52469890Y-50424080D01*
X53329840Y-50424080D01*
X53329840Y-50404080D01*
X53431440Y-50404080D01*
X53431440Y-50424080D01*
X53451440Y-50424080D01*
X53451440Y-50525680D01*
X53431440Y-50525680D01*
X53431440Y-51210630D01*
X53526690Y-51305880D01*
X53552827Y-51305880D01*
X53447351Y-51411356D01*
X53388711Y-51423020D01*
X53254283Y-51512843D01*
X53164460Y-51647271D01*
X53154902Y-51695325D01*
X53153956Y-51696270D01*
X53124268Y-51716107D01*
X53104432Y-51745794D01*
X53104430Y-51745796D01*
X53045673Y-51833733D01*
X53044425Y-51840007D01*
X52755640Y-51840007D01*
X52646624Y-51861692D01*
X52554204Y-51923444D01*
X52492452Y-52015864D01*
X52470767Y-52124880D01*
X52470767Y-52193880D01*
X51210460Y-52193880D01*
X51210460Y-51868830D01*
X51115210Y-51773580D01*
X50292760Y-51773580D01*
X50292760Y-52596030D01*
X50388010Y-52691280D01*
X50419645Y-52691280D01*
X50335518Y-52775407D01*
X49989460Y-52775407D01*
X49880444Y-52797092D01*
X49788024Y-52858844D01*
X49726272Y-52951264D01*
X49704587Y-53060280D01*
X49704587Y-54610280D01*
X49726272Y-54719296D01*
X49788024Y-54811716D01*
X49880444Y-54873468D01*
X49989460Y-54895153D01*
X50589460Y-54895153D01*
X50698476Y-54873468D01*
X50790896Y-54811716D01*
X50852648Y-54719296D01*
X50874333Y-54610280D01*
X50874333Y-53314222D01*
X50974587Y-53213968D01*
X50974587Y-54610280D01*
X50996272Y-54719296D01*
X51058024Y-54811716D01*
X51089560Y-54832788D01*
X51089561Y-55489381D01*
X51011584Y-55504892D01*
X50919164Y-55566644D01*
X50857412Y-55659064D01*
X50835727Y-55768080D01*
X50835727Y-57018080D01*
X50857412Y-57127096D01*
X50919164Y-57219516D01*
X51011584Y-57281268D01*
X51120600Y-57302953D01*
X52020600Y-57302953D01*
X52129616Y-57281268D01*
X52222036Y-57219516D01*
X52283788Y-57127096D01*
X52305473Y-57018080D01*
X52305473Y-55768080D01*
X52283788Y-55659064D01*
X52222036Y-55566644D01*
X52129616Y-55504892D01*
X52029360Y-55484950D01*
X52029360Y-54832787D01*
X52060896Y-54811716D01*
X52122648Y-54719296D01*
X52144333Y-54610280D01*
X52144333Y-53060280D01*
X52123566Y-52955880D01*
X52470767Y-52955880D01*
X52470767Y-53024880D01*
X52492452Y-53133896D01*
X52554204Y-53226316D01*
X52646624Y-53288068D01*
X52755640Y-53309753D01*
X54005640Y-53309753D01*
X54114656Y-53288068D01*
X54207076Y-53226316D01*
X54268828Y-53133896D01*
X54290513Y-53024880D01*
X54290513Y-52124880D01*
X54268828Y-52015864D01*
X54207076Y-51923444D01*
X54133736Y-51874441D01*
X54382600Y-51625577D01*
X54382600Y-60375800D01*
X51993800Y-60375800D01*
X51984721Y-60376343D01*
X51349721Y-60452543D01*
X51337612Y-60455005D01*
X50372412Y-60734405D01*
X50341607Y-60751894D01*
X49961907Y-61106281D01*
X49455249Y-61536940D01*
X49439983Y-61554614D01*
X49185983Y-61961014D01*
X49179098Y-61975057D01*
X48823498Y-62940257D01*
X48818849Y-62969320D01*
X48844249Y-63680520D01*
X48845680Y-63692744D01*
X48896480Y-63946744D01*
X48898140Y-63953448D01*
X49101340Y-64639248D01*
X49110219Y-64658676D01*
X49516619Y-65293676D01*
X49528186Y-65307720D01*
X50086986Y-65841120D01*
X50102594Y-65852611D01*
X50487774Y-66066600D01*
X47655685Y-66066600D01*
X47718899Y-66040416D01*
X47826076Y-65933240D01*
X47884080Y-65793206D01*
X47884080Y-64910970D01*
X47788830Y-64815720D01*
X46791880Y-64815720D01*
X46791880Y-64835720D01*
X46690280Y-64835720D01*
X46690280Y-64815720D01*
X45693330Y-64815720D01*
X45598080Y-64910970D01*
X45598080Y-65793206D01*
X45656084Y-65933240D01*
X45763261Y-66040416D01*
X45826475Y-66066600D01*
X41803916Y-66066600D01*
X41816200Y-66036945D01*
X41816200Y-65307210D01*
X41720950Y-65211960D01*
X40386000Y-65211960D01*
X40386000Y-65231960D01*
X40284400Y-65231960D01*
X40284400Y-65211960D01*
X38949450Y-65211960D01*
X38854200Y-65307210D01*
X38854200Y-66036945D01*
X38866484Y-66066600D01*
X23799800Y-66066600D01*
X23799800Y-63627000D01*
X23799257Y-63617921D01*
X23723057Y-62982921D01*
X23720595Y-62970812D01*
X23441195Y-62005612D01*
X23423706Y-61974807D01*
X23069319Y-61595107D01*
X22638660Y-61088449D01*
X22620986Y-61073183D01*
X22214586Y-60819183D01*
X22200543Y-60812298D01*
X21235343Y-60456698D01*
X21206280Y-60452049D01*
X20495080Y-60477449D01*
X20482856Y-60478880D01*
X20228856Y-60529680D01*
X20222152Y-60531340D01*
X19536352Y-60734540D01*
X19516924Y-60743419D01*
X18881924Y-61149819D01*
X18867880Y-61161386D01*
X18334480Y-61720186D01*
X18322989Y-61735794D01*
X18134400Y-62075254D01*
X18134400Y-55987468D01*
X18212215Y-56019700D01*
X18903950Y-56019700D01*
X18999200Y-55924450D01*
X18999200Y-54737000D01*
X19100800Y-54737000D01*
X19100800Y-55924450D01*
X19196050Y-56019700D01*
X19887785Y-56019700D01*
X20027819Y-55961696D01*
X20134996Y-55854520D01*
X20193000Y-55714486D01*
X20193000Y-54832250D01*
X20097750Y-54737000D01*
X19100800Y-54737000D01*
X18999200Y-54737000D01*
X18979200Y-54737000D01*
X18979200Y-54635400D01*
X18999200Y-54635400D01*
X18999200Y-54615400D01*
X19100800Y-54615400D01*
X19100800Y-54635400D01*
X20097750Y-54635400D01*
X20193000Y-54540150D01*
X20193000Y-53759100D01*
X21115060Y-53759100D01*
X21559127Y-54203167D01*
X21559127Y-55638700D01*
X21580812Y-55747716D01*
X21642564Y-55840136D01*
X21734984Y-55901888D01*
X21844000Y-55923573D01*
X22072600Y-55923573D01*
X22072600Y-56199230D01*
X22072601Y-56199235D01*
X22072600Y-57016494D01*
X22062152Y-57069020D01*
X22072600Y-57121546D01*
X22072600Y-57121550D01*
X22103549Y-57277141D01*
X22221441Y-57453579D01*
X22265977Y-57483337D01*
X25719365Y-60936726D01*
X25749121Y-60981259D01*
X25925558Y-61099151D01*
X26081149Y-61130100D01*
X26081153Y-61130100D01*
X26133680Y-61140548D01*
X26186207Y-61130100D01*
X26295545Y-61130100D01*
X25798402Y-61627243D01*
X25764473Y-61649914D01*
X25741802Y-61683843D01*
X25741801Y-61683844D01*
X25674650Y-61784342D01*
X25643109Y-61942911D01*
X25651070Y-61982934D01*
X25651069Y-65204861D01*
X25643109Y-65244879D01*
X25651069Y-65284897D01*
X25651069Y-65284901D01*
X25674649Y-65403447D01*
X25764472Y-65537876D01*
X25798403Y-65560548D01*
X26021234Y-65783380D01*
X26043903Y-65817306D01*
X26077829Y-65839975D01*
X26077832Y-65839978D01*
X26178330Y-65907129D01*
X26336899Y-65938670D01*
X26376922Y-65930709D01*
X37399513Y-65930711D01*
X37518059Y-65907131D01*
X37652487Y-65817308D01*
X37742310Y-65682880D01*
X37773851Y-65524311D01*
X37742311Y-65365743D01*
X37652488Y-65231315D01*
X37522861Y-65144700D01*
X37692966Y-65144700D01*
X37833000Y-65086696D01*
X37940176Y-64979519D01*
X37998180Y-64839485D01*
X37998180Y-64459750D01*
X37902930Y-64364500D01*
X37042980Y-64364500D01*
X37042980Y-64384500D01*
X36941380Y-64384500D01*
X36941380Y-64364500D01*
X36081430Y-64364500D01*
X35986180Y-64459750D01*
X35986180Y-64839485D01*
X36044184Y-64979519D01*
X36151360Y-65086696D01*
X36226722Y-65117912D01*
X33167017Y-65117911D01*
X33240016Y-65069136D01*
X33301768Y-64976716D01*
X33323453Y-64867700D01*
X33323453Y-64285721D01*
X33323799Y-64285375D01*
X38854200Y-64285375D01*
X38854200Y-65015110D01*
X38949450Y-65110360D01*
X40284400Y-65110360D01*
X40284400Y-64075410D01*
X40386000Y-64075410D01*
X40386000Y-65110360D01*
X41720950Y-65110360D01*
X41816200Y-65015110D01*
X41816200Y-64285375D01*
X41758196Y-64145341D01*
X41651020Y-64038164D01*
X41510986Y-63980160D01*
X40481250Y-63980160D01*
X40386000Y-64075410D01*
X40284400Y-64075410D01*
X40189150Y-63980160D01*
X39159414Y-63980160D01*
X39019380Y-64038164D01*
X38912204Y-64145341D01*
X38854200Y-64285375D01*
X33323799Y-64285375D01*
X33417663Y-64191511D01*
X33447353Y-64171673D01*
X33525947Y-64054048D01*
X33546580Y-63950320D01*
X33553546Y-63915300D01*
X33546580Y-63880280D01*
X33546580Y-63553860D01*
X33853707Y-63246733D01*
X33853707Y-63917700D01*
X33875392Y-64026716D01*
X33937144Y-64119136D01*
X34029564Y-64180888D01*
X34138580Y-64202573D01*
X35038580Y-64202573D01*
X35147596Y-64180888D01*
X35240016Y-64119136D01*
X35301768Y-64026716D01*
X35323453Y-63917700D01*
X35323453Y-63787915D01*
X35986180Y-63787915D01*
X35986180Y-64167650D01*
X36081430Y-64262900D01*
X36941380Y-64262900D01*
X36941380Y-63577950D01*
X37042980Y-63577950D01*
X37042980Y-64262900D01*
X37902930Y-64262900D01*
X37998180Y-64167650D01*
X37998180Y-63787915D01*
X37940176Y-63647881D01*
X37833000Y-63540704D01*
X37692966Y-63482700D01*
X37138230Y-63482700D01*
X37042980Y-63577950D01*
X36941380Y-63577950D01*
X36846130Y-63482700D01*
X36291394Y-63482700D01*
X36151360Y-63540704D01*
X36044184Y-63647881D01*
X35986180Y-63787915D01*
X35323453Y-63787915D01*
X35323453Y-63117700D01*
X35301768Y-63008684D01*
X35240016Y-62916264D01*
X35180366Y-62876408D01*
X35487475Y-62569300D01*
X36082307Y-62569300D01*
X36082307Y-62663700D01*
X36103992Y-62772716D01*
X36165744Y-62865136D01*
X36258164Y-62926888D01*
X36367180Y-62948573D01*
X37617180Y-62948573D01*
X37726196Y-62926888D01*
X37818616Y-62865136D01*
X37880368Y-62772716D01*
X37902053Y-62663700D01*
X37902053Y-61763700D01*
X37880368Y-61654684D01*
X37818616Y-61562264D01*
X37726196Y-61500512D01*
X37617180Y-61478827D01*
X36367180Y-61478827D01*
X36258164Y-61500512D01*
X36165744Y-61562264D01*
X36103992Y-61654684D01*
X36082307Y-61763700D01*
X36082307Y-61858100D01*
X36030772Y-61858100D01*
X36028381Y-61846079D01*
X36028381Y-59613259D01*
X36035347Y-59578240D01*
X36028381Y-59543220D01*
X36028381Y-59419519D01*
X36035347Y-59384500D01*
X36014182Y-59278100D01*
X36010850Y-59261348D01*
X38950327Y-62200826D01*
X38950327Y-63421160D01*
X38972012Y-63530176D01*
X39033764Y-63622596D01*
X39126184Y-63684348D01*
X39235200Y-63706033D01*
X41435200Y-63706033D01*
X41544216Y-63684348D01*
X41636636Y-63622596D01*
X41698388Y-63530176D01*
X41720073Y-63421160D01*
X41720073Y-62976760D01*
X42097567Y-62976760D01*
X42097567Y-63096140D01*
X42119252Y-63205156D01*
X42181004Y-63297576D01*
X42273424Y-63359328D01*
X42382440Y-63381013D01*
X42715181Y-63381013D01*
X42715180Y-63527547D01*
X42423080Y-63527547D01*
X42314064Y-63549232D01*
X42221644Y-63610984D01*
X42159892Y-63703404D01*
X42138207Y-63812420D01*
X42138207Y-65717420D01*
X42159892Y-65826436D01*
X42221644Y-65918856D01*
X42314064Y-65980608D01*
X42423080Y-66002293D01*
X43947080Y-66002293D01*
X44056096Y-65980608D01*
X44148516Y-65918856D01*
X44210268Y-65826436D01*
X44231953Y-65717420D01*
X44231953Y-63812420D01*
X44210268Y-63703404D01*
X44148516Y-63610984D01*
X44056096Y-63549232D01*
X43947080Y-63527547D01*
X43654980Y-63527547D01*
X43654980Y-63381013D01*
X43906440Y-63381013D01*
X44015456Y-63359328D01*
X44107876Y-63297576D01*
X44169628Y-63205156D01*
X44191313Y-63096140D01*
X44191313Y-62289690D01*
X45557440Y-62289690D01*
X45557440Y-63171926D01*
X45615444Y-63311960D01*
X45722621Y-63419136D01*
X45827786Y-63462697D01*
X45763261Y-63489424D01*
X45656084Y-63596600D01*
X45598080Y-63736634D01*
X45598080Y-64618870D01*
X45693330Y-64714120D01*
X46690280Y-64714120D01*
X46690280Y-63526670D01*
X46597570Y-63433960D01*
X46649640Y-63381890D01*
X46649640Y-62194440D01*
X46751240Y-62194440D01*
X46751240Y-63381890D01*
X46843950Y-63474600D01*
X46791880Y-63526670D01*
X46791880Y-64714120D01*
X47788830Y-64714120D01*
X47884080Y-64618870D01*
X47884080Y-63736634D01*
X47826076Y-63596600D01*
X47718899Y-63489424D01*
X47613734Y-63445863D01*
X47678259Y-63419136D01*
X47785436Y-63311960D01*
X47843440Y-63171926D01*
X47843440Y-62289690D01*
X47748190Y-62194440D01*
X46751240Y-62194440D01*
X46649640Y-62194440D01*
X45652690Y-62194440D01*
X45557440Y-62289690D01*
X44191313Y-62289690D01*
X44191313Y-61191140D01*
X44176238Y-61115354D01*
X45557440Y-61115354D01*
X45557440Y-61997590D01*
X45652690Y-62092840D01*
X46649640Y-62092840D01*
X46649640Y-60905390D01*
X46751240Y-60905390D01*
X46751240Y-62092840D01*
X47748190Y-62092840D01*
X47843440Y-61997590D01*
X47843440Y-61115354D01*
X47785436Y-60975320D01*
X47678259Y-60868144D01*
X47538225Y-60810140D01*
X46846490Y-60810140D01*
X46751240Y-60905390D01*
X46649640Y-60905390D01*
X46554390Y-60810140D01*
X45862655Y-60810140D01*
X45722621Y-60868144D01*
X45615444Y-60975320D01*
X45557440Y-61115354D01*
X44176238Y-61115354D01*
X44169628Y-61082124D01*
X44107876Y-60989704D01*
X44015456Y-60927952D01*
X43906440Y-60906267D01*
X43614340Y-60906267D01*
X43614340Y-60364265D01*
X43623976Y-60362348D01*
X43716396Y-60300596D01*
X43778148Y-60208176D01*
X43799833Y-60099160D01*
X43799833Y-58421378D01*
X43866819Y-58408054D01*
X43992846Y-58323846D01*
X44014104Y-58292031D01*
X44389634Y-57916502D01*
X44421446Y-57895246D01*
X44505654Y-57769219D01*
X44527760Y-57658084D01*
X44535224Y-57620560D01*
X44527760Y-57583036D01*
X44527760Y-55999160D01*
X45730087Y-55999160D01*
X45730087Y-60099160D01*
X45751772Y-60208176D01*
X45813524Y-60300596D01*
X45905944Y-60362348D01*
X46014960Y-60384033D01*
X47914960Y-60384033D01*
X48023976Y-60362348D01*
X48116396Y-60300596D01*
X48178148Y-60208176D01*
X48199833Y-60099160D01*
X48199833Y-58585958D01*
X48290642Y-58525282D01*
X48327490Y-58470135D01*
X49494673Y-57302953D01*
X49920600Y-57302953D01*
X50029616Y-57281268D01*
X50122036Y-57219516D01*
X50183788Y-57127096D01*
X50205473Y-57018080D01*
X50205473Y-55768080D01*
X50183788Y-55659064D01*
X50122036Y-55566644D01*
X50029616Y-55504892D01*
X49920600Y-55483207D01*
X49425860Y-55483207D01*
X49425860Y-54873988D01*
X49428476Y-54873468D01*
X49520896Y-54811716D01*
X49582648Y-54719296D01*
X49604333Y-54610280D01*
X49604333Y-53060280D01*
X49582648Y-52951264D01*
X49520896Y-52858844D01*
X49428476Y-52797092D01*
X49319460Y-52775407D01*
X48719460Y-52775407D01*
X48610444Y-52797092D01*
X48518024Y-52858844D01*
X48456272Y-52951264D01*
X48434587Y-53060280D01*
X48434587Y-54610280D01*
X48456272Y-54719296D01*
X48518024Y-54811716D01*
X48610444Y-54873468D01*
X48613060Y-54873988D01*
X48613061Y-55901917D01*
X48605100Y-55941940D01*
X48636641Y-56100509D01*
X48702606Y-56199231D01*
X48713780Y-56215954D01*
X48199833Y-56729901D01*
X48199833Y-55999160D01*
X48178148Y-55890144D01*
X48116396Y-55797724D01*
X48023976Y-55735972D01*
X47914960Y-55714287D01*
X46014960Y-55714287D01*
X45905944Y-55735972D01*
X45813524Y-55797724D01*
X45751772Y-55890144D01*
X45730087Y-55999160D01*
X44527760Y-55999160D01*
X44527760Y-55047433D01*
X44596760Y-55047433D01*
X44705776Y-55025748D01*
X44798196Y-54963996D01*
X44859948Y-54871576D01*
X44881633Y-54762560D01*
X44881633Y-54283610D01*
X45415760Y-54283610D01*
X45415760Y-54838346D01*
X45473764Y-54978380D01*
X45580941Y-55085556D01*
X45720975Y-55143560D01*
X46100710Y-55143560D01*
X46195960Y-55048310D01*
X46195960Y-54188360D01*
X45511010Y-54188360D01*
X45415760Y-54283610D01*
X44881633Y-54283610D01*
X44881633Y-53512560D01*
X44866558Y-53436774D01*
X45415760Y-53436774D01*
X45415760Y-53991510D01*
X45511010Y-54086760D01*
X46195960Y-54086760D01*
X46195960Y-53226810D01*
X46297560Y-53226810D01*
X46297560Y-54086760D01*
X46317560Y-54086760D01*
X46317560Y-54188360D01*
X46297560Y-54188360D01*
X46297560Y-55048310D01*
X46392810Y-55143560D01*
X46772545Y-55143560D01*
X46912579Y-55085556D01*
X47019756Y-54978380D01*
X47077760Y-54838346D01*
X47077760Y-54708518D01*
X47126464Y-54826100D01*
X47233641Y-54933276D01*
X47373675Y-54991280D01*
X47603410Y-54991280D01*
X47698660Y-54896030D01*
X47698660Y-53886080D01*
X47800260Y-53886080D01*
X47800260Y-54896030D01*
X47895510Y-54991280D01*
X48125245Y-54991280D01*
X48265279Y-54933276D01*
X48372456Y-54826100D01*
X48430460Y-54686066D01*
X48430460Y-53981330D01*
X48335210Y-53886080D01*
X47800260Y-53886080D01*
X47698660Y-53886080D01*
X47678660Y-53886080D01*
X47678660Y-53784480D01*
X47698660Y-53784480D01*
X47698660Y-52774530D01*
X47800260Y-52774530D01*
X47800260Y-53784480D01*
X48335210Y-53784480D01*
X48430460Y-53689230D01*
X48430460Y-52984494D01*
X48372456Y-52844460D01*
X48265279Y-52737284D01*
X48125245Y-52679280D01*
X47895510Y-52679280D01*
X47800260Y-52774530D01*
X47698660Y-52774530D01*
X47603410Y-52679280D01*
X47373675Y-52679280D01*
X47233641Y-52737284D01*
X47126464Y-52844460D01*
X47068460Y-52984494D01*
X47068460Y-53414322D01*
X47019756Y-53296740D01*
X46912579Y-53189564D01*
X46772545Y-53131560D01*
X46392810Y-53131560D01*
X46297560Y-53226810D01*
X46195960Y-53226810D01*
X46100710Y-53131560D01*
X45720975Y-53131560D01*
X45580941Y-53189564D01*
X45473764Y-53296740D01*
X45415760Y-53436774D01*
X44866558Y-53436774D01*
X44859948Y-53403544D01*
X44798196Y-53311124D01*
X44705776Y-53249372D01*
X44596760Y-53227687D01*
X43902920Y-53227687D01*
X43902920Y-53091633D01*
X43971920Y-53091633D01*
X44080936Y-53069948D01*
X44173356Y-53008196D01*
X44235108Y-52915776D01*
X44256793Y-52806760D01*
X44256793Y-52008649D01*
X44672778Y-52424634D01*
X44694034Y-52456446D01*
X44725845Y-52477701D01*
X44820061Y-52540654D01*
X44887047Y-52553978D01*
X44887047Y-52806760D01*
X44908732Y-52915776D01*
X44970484Y-53008196D01*
X45062904Y-53069948D01*
X45171920Y-53091633D01*
X46071920Y-53091633D01*
X46180936Y-53069948D01*
X46273356Y-53008196D01*
X46335108Y-52915776D01*
X46356793Y-52806760D01*
X46356793Y-51868830D01*
X48098460Y-51868830D01*
X48098460Y-52386066D01*
X48156464Y-52526100D01*
X48263641Y-52633276D01*
X48403675Y-52691280D01*
X48920910Y-52691280D01*
X49016160Y-52596030D01*
X49016160Y-51773580D01*
X49117760Y-51773580D01*
X49117760Y-52596030D01*
X49213010Y-52691280D01*
X50095910Y-52691280D01*
X50191160Y-52596030D01*
X50191160Y-51773580D01*
X49117760Y-51773580D01*
X49016160Y-51773580D01*
X48193710Y-51773580D01*
X48098460Y-51868830D01*
X46356793Y-51868830D01*
X46356793Y-51556760D01*
X46335108Y-51447744D01*
X46286797Y-51375440D01*
X46329346Y-51375440D01*
X46469380Y-51317436D01*
X46576556Y-51210259D01*
X46634560Y-51070225D01*
X46634560Y-50693830D01*
X48098460Y-50693830D01*
X48098460Y-51576730D01*
X48193710Y-51671980D01*
X49016160Y-51671980D01*
X49016160Y-50598580D01*
X49117760Y-50598580D01*
X49117760Y-51671980D01*
X50191160Y-51671980D01*
X50191160Y-50598580D01*
X50292760Y-50598580D01*
X50292760Y-51671980D01*
X51115210Y-51671980D01*
X51210460Y-51576730D01*
X51210460Y-50693830D01*
X51137560Y-50620930D01*
X52374640Y-50620930D01*
X52374640Y-51000665D01*
X52432644Y-51140699D01*
X52539820Y-51247876D01*
X52679854Y-51305880D01*
X53234590Y-51305880D01*
X53329840Y-51210630D01*
X53329840Y-50525680D01*
X52469890Y-50525680D01*
X52374640Y-50620930D01*
X51137560Y-50620930D01*
X51115210Y-50598580D01*
X50292760Y-50598580D01*
X50191160Y-50598580D01*
X49117760Y-50598580D01*
X49016160Y-50598580D01*
X48193710Y-50598580D01*
X48098460Y-50693830D01*
X46634560Y-50693830D01*
X46634560Y-50690490D01*
X46539310Y-50595240D01*
X45679360Y-50595240D01*
X45679360Y-50615240D01*
X45577760Y-50615240D01*
X45577760Y-50595240D01*
X44717810Y-50595240D01*
X44622560Y-50690490D01*
X44622560Y-51070225D01*
X44680564Y-51210259D01*
X44787740Y-51317436D01*
X44927774Y-51375440D01*
X44957043Y-51375440D01*
X44908732Y-51447744D01*
X44887047Y-51556760D01*
X44887047Y-51561271D01*
X44453935Y-51128160D01*
X44458196Y-51123899D01*
X44516200Y-50983865D01*
X44516200Y-50604130D01*
X44420950Y-50508880D01*
X43561000Y-50508880D01*
X43561000Y-50528880D01*
X43459400Y-50528880D01*
X43459400Y-50508880D01*
X43439400Y-50508880D01*
X43439400Y-50407280D01*
X43459400Y-50407280D01*
X43459400Y-49722330D01*
X43561000Y-49722330D01*
X43561000Y-50407280D01*
X44420950Y-50407280D01*
X44516200Y-50312030D01*
X44516200Y-50018655D01*
X44622560Y-50018655D01*
X44622560Y-50398390D01*
X44717810Y-50493640D01*
X45577760Y-50493640D01*
X45577760Y-49808690D01*
X45679360Y-49808690D01*
X45679360Y-50493640D01*
X46539310Y-50493640D01*
X46634560Y-50398390D01*
X46634560Y-50018655D01*
X46576556Y-49878621D01*
X46469380Y-49771444D01*
X46329346Y-49713440D01*
X45774610Y-49713440D01*
X45679360Y-49808690D01*
X45577760Y-49808690D01*
X45482510Y-49713440D01*
X44927774Y-49713440D01*
X44787740Y-49771444D01*
X44680564Y-49878621D01*
X44622560Y-50018655D01*
X44516200Y-50018655D01*
X44516200Y-49932295D01*
X44458196Y-49792261D01*
X44351020Y-49685084D01*
X44210986Y-49627080D01*
X43656250Y-49627080D01*
X43561000Y-49722330D01*
X43459400Y-49722330D01*
X43398683Y-49661613D01*
X43753074Y-49307221D01*
X43784886Y-49285966D01*
X43869094Y-49159939D01*
X43882418Y-49092953D01*
X44135200Y-49092953D01*
X44244216Y-49071268D01*
X44336636Y-49009516D01*
X44398388Y-48917096D01*
X44420073Y-48808080D01*
X44420073Y-48162022D01*
X44496215Y-48085880D01*
X44718687Y-48085880D01*
X44718687Y-48894440D01*
X44718687Y-48894440D01*
G37*
X44718687Y-48894440D02*
X44740372Y-49003456D01*
X44802124Y-49095876D01*
X44894544Y-49157628D01*
X45003560Y-49179313D01*
X45999618Y-49179313D01*
X46527459Y-49707155D01*
X46548715Y-49738967D01*
X46615373Y-49783506D01*
X46674742Y-49823175D01*
X46823401Y-49852745D01*
X46860925Y-49845281D01*
X48114703Y-49845281D01*
X48098460Y-49884494D01*
X48098460Y-50401730D01*
X48193710Y-50496980D01*
X49016160Y-50496980D01*
X49016160Y-49674530D01*
X48920910Y-49579280D01*
X48889275Y-49579280D01*
X48973402Y-49495153D01*
X49225384Y-49495153D01*
X49256882Y-49542292D01*
X49281596Y-49579280D01*
X49213010Y-49579280D01*
X49117760Y-49674530D01*
X49117760Y-50496980D01*
X50191160Y-50496980D01*
X50191160Y-50476980D01*
X50292760Y-50476980D01*
X50292760Y-50496980D01*
X51115210Y-50496980D01*
X51210460Y-50401730D01*
X51210460Y-50022760D01*
X51814648Y-50022760D01*
X51958398Y-50118811D01*
X52113989Y-50149760D01*
X52374640Y-50149760D01*
X52374640Y-50328830D01*
X52469890Y-50424080D01*
X53329840Y-50424080D01*
X53329840Y-50404080D01*
X53431440Y-50404080D01*
X53431440Y-50424080D01*
X53451440Y-50424080D01*
X53451440Y-50525680D01*
X53431440Y-50525680D01*
X53431440Y-51210630D01*
X53526690Y-51305880D01*
X53552827Y-51305880D01*
X53447351Y-51411356D01*
X53388711Y-51423020D01*
X53254283Y-51512843D01*
X53164460Y-51647271D01*
X53154902Y-51695325D01*
X53153956Y-51696270D01*
X53124268Y-51716107D01*
X53104432Y-51745794D01*
X53104430Y-51745796D01*
X53045673Y-51833733D01*
X53044425Y-51840007D01*
X52755640Y-51840007D01*
X52646624Y-51861692D01*
X52554204Y-51923444D01*
X52492452Y-52015864D01*
X52470767Y-52124880D01*
X52470767Y-52193880D01*
X51210460Y-52193880D01*
X51210460Y-51868830D01*
X51115210Y-51773580D01*
X50292760Y-51773580D01*
X50292760Y-52596030D01*
X50388010Y-52691280D01*
X50419645Y-52691280D01*
X50335518Y-52775407D01*
X49989460Y-52775407D01*
X49880444Y-52797092D01*
X49788024Y-52858844D01*
X49726272Y-52951264D01*
X49704587Y-53060280D01*
X49704587Y-54610280D01*
X49726272Y-54719296D01*
X49788024Y-54811716D01*
X49880444Y-54873468D01*
X49989460Y-54895153D01*
X50589460Y-54895153D01*
X50698476Y-54873468D01*
X50790896Y-54811716D01*
X50852648Y-54719296D01*
X50874333Y-54610280D01*
X50874333Y-53314222D01*
X50974587Y-53213968D01*
X50974587Y-54610280D01*
X50996272Y-54719296D01*
X51058024Y-54811716D01*
X51089560Y-54832788D01*
X51089561Y-55489381D01*
X51011584Y-55504892D01*
X50919164Y-55566644D01*
X50857412Y-55659064D01*
X50835727Y-55768080D01*
X50835727Y-57018080D01*
X50857412Y-57127096D01*
X50919164Y-57219516D01*
X51011584Y-57281268D01*
X51120600Y-57302953D01*
X52020600Y-57302953D01*
X52129616Y-57281268D01*
X52222036Y-57219516D01*
X52283788Y-57127096D01*
X52305473Y-57018080D01*
X52305473Y-55768080D01*
X52283788Y-55659064D01*
X52222036Y-55566644D01*
X52129616Y-55504892D01*
X52029360Y-55484950D01*
X52029360Y-54832787D01*
X52060896Y-54811716D01*
X52122648Y-54719296D01*
X52144333Y-54610280D01*
X52144333Y-53060280D01*
X52123566Y-52955880D01*
X52470767Y-52955880D01*
X52470767Y-53024880D01*
X52492452Y-53133896D01*
X52554204Y-53226316D01*
X52646624Y-53288068D01*
X52755640Y-53309753D01*
X54005640Y-53309753D01*
X54114656Y-53288068D01*
X54207076Y-53226316D01*
X54268828Y-53133896D01*
X54290513Y-53024880D01*
X54290513Y-52124880D01*
X54268828Y-52015864D01*
X54207076Y-51923444D01*
X54133736Y-51874441D01*
X54382600Y-51625577D01*
X54382600Y-60375800D01*
X51993800Y-60375800D01*
X51984721Y-60376343D01*
X51349721Y-60452543D01*
X51337612Y-60455005D01*
X50372412Y-60734405D01*
X50341607Y-60751894D01*
X49961907Y-61106281D01*
X49455249Y-61536940D01*
X49439983Y-61554614D01*
X49185983Y-61961014D01*
X49179098Y-61975057D01*
X48823498Y-62940257D01*
X48818849Y-62969320D01*
X48844249Y-63680520D01*
X48845680Y-63692744D01*
X48896480Y-63946744D01*
X48898140Y-63953448D01*
X49101340Y-64639248D01*
X49110219Y-64658676D01*
X49516619Y-65293676D01*
X49528186Y-65307720D01*
X50086986Y-65841120D01*
X50102594Y-65852611D01*
X50487774Y-66066600D01*
X47655685Y-66066600D01*
X47718899Y-66040416D01*
X47826076Y-65933240D01*
X47884080Y-65793206D01*
X47884080Y-64910970D01*
X47788830Y-64815720D01*
X46791880Y-64815720D01*
X46791880Y-64835720D01*
X46690280Y-64835720D01*
X46690280Y-64815720D01*
X45693330Y-64815720D01*
X45598080Y-64910970D01*
X45598080Y-65793206D01*
X45656084Y-65933240D01*
X45763261Y-66040416D01*
X45826475Y-66066600D01*
X41803916Y-66066600D01*
X41816200Y-66036945D01*
X41816200Y-65307210D01*
X41720950Y-65211960D01*
X40386000Y-65211960D01*
X40386000Y-65231960D01*
X40284400Y-65231960D01*
X40284400Y-65211960D01*
X38949450Y-65211960D01*
X38854200Y-65307210D01*
X38854200Y-66036945D01*
X38866484Y-66066600D01*
X23799800Y-66066600D01*
X23799800Y-63627000D01*
X23799257Y-63617921D01*
X23723057Y-62982921D01*
X23720595Y-62970812D01*
X23441195Y-62005612D01*
X23423706Y-61974807D01*
X23069319Y-61595107D01*
X22638660Y-61088449D01*
X22620986Y-61073183D01*
X22214586Y-60819183D01*
X22200543Y-60812298D01*
X21235343Y-60456698D01*
X21206280Y-60452049D01*
X20495080Y-60477449D01*
X20482856Y-60478880D01*
X20228856Y-60529680D01*
X20222152Y-60531340D01*
X19536352Y-60734540D01*
X19516924Y-60743419D01*
X18881924Y-61149819D01*
X18867880Y-61161386D01*
X18334480Y-61720186D01*
X18322989Y-61735794D01*
X18134400Y-62075254D01*
X18134400Y-55987468D01*
X18212215Y-56019700D01*
X18903950Y-56019700D01*
X18999200Y-55924450D01*
X18999200Y-54737000D01*
X19100800Y-54737000D01*
X19100800Y-55924450D01*
X19196050Y-56019700D01*
X19887785Y-56019700D01*
X20027819Y-55961696D01*
X20134996Y-55854520D01*
X20193000Y-55714486D01*
X20193000Y-54832250D01*
X20097750Y-54737000D01*
X19100800Y-54737000D01*
X18999200Y-54737000D01*
X18979200Y-54737000D01*
X18979200Y-54635400D01*
X18999200Y-54635400D01*
X18999200Y-54615400D01*
X19100800Y-54615400D01*
X19100800Y-54635400D01*
X20097750Y-54635400D01*
X20193000Y-54540150D01*
X20193000Y-53759100D01*
X21115060Y-53759100D01*
X21559127Y-54203167D01*
X21559127Y-55638700D01*
X21580812Y-55747716D01*
X21642564Y-55840136D01*
X21734984Y-55901888D01*
X21844000Y-55923573D01*
X22072600Y-55923573D01*
X22072600Y-56199230D01*
X22072601Y-56199235D01*
X22072600Y-57016494D01*
X22062152Y-57069020D01*
X22072600Y-57121546D01*
X22072600Y-57121550D01*
X22103549Y-57277141D01*
X22221441Y-57453579D01*
X22265977Y-57483337D01*
X25719365Y-60936726D01*
X25749121Y-60981259D01*
X25925558Y-61099151D01*
X26081149Y-61130100D01*
X26081153Y-61130100D01*
X26133680Y-61140548D01*
X26186207Y-61130100D01*
X26295545Y-61130100D01*
X25798402Y-61627243D01*
X25764473Y-61649914D01*
X25741802Y-61683843D01*
X25741801Y-61683844D01*
X25674650Y-61784342D01*
X25643109Y-61942911D01*
X25651070Y-61982934D01*
X25651069Y-65204861D01*
X25643109Y-65244879D01*
X25651069Y-65284897D01*
X25651069Y-65284901D01*
X25674649Y-65403447D01*
X25764472Y-65537876D01*
X25798403Y-65560548D01*
X26021234Y-65783380D01*
X26043903Y-65817306D01*
X26077829Y-65839975D01*
X26077832Y-65839978D01*
X26178330Y-65907129D01*
X26336899Y-65938670D01*
X26376922Y-65930709D01*
X37399513Y-65930711D01*
X37518059Y-65907131D01*
X37652487Y-65817308D01*
X37742310Y-65682880D01*
X37773851Y-65524311D01*
X37742311Y-65365743D01*
X37652488Y-65231315D01*
X37522861Y-65144700D01*
X37692966Y-65144700D01*
X37833000Y-65086696D01*
X37940176Y-64979519D01*
X37998180Y-64839485D01*
X37998180Y-64459750D01*
X37902930Y-64364500D01*
X37042980Y-64364500D01*
X37042980Y-64384500D01*
X36941380Y-64384500D01*
X36941380Y-64364500D01*
X36081430Y-64364500D01*
X35986180Y-64459750D01*
X35986180Y-64839485D01*
X36044184Y-64979519D01*
X36151360Y-65086696D01*
X36226722Y-65117912D01*
X33167017Y-65117911D01*
X33240016Y-65069136D01*
X33301768Y-64976716D01*
X33323453Y-64867700D01*
X33323453Y-64285721D01*
X33323799Y-64285375D01*
X38854200Y-64285375D01*
X38854200Y-65015110D01*
X38949450Y-65110360D01*
X40284400Y-65110360D01*
X40284400Y-64075410D01*
X40386000Y-64075410D01*
X40386000Y-65110360D01*
X41720950Y-65110360D01*
X41816200Y-65015110D01*
X41816200Y-64285375D01*
X41758196Y-64145341D01*
X41651020Y-64038164D01*
X41510986Y-63980160D01*
X40481250Y-63980160D01*
X40386000Y-64075410D01*
X40284400Y-64075410D01*
X40189150Y-63980160D01*
X39159414Y-63980160D01*
X39019380Y-64038164D01*
X38912204Y-64145341D01*
X38854200Y-64285375D01*
X33323799Y-64285375D01*
X33417663Y-64191511D01*
X33447353Y-64171673D01*
X33525947Y-64054048D01*
X33546580Y-63950320D01*
X33553546Y-63915300D01*
X33546580Y-63880280D01*
X33546580Y-63553860D01*
X33853707Y-63246733D01*
X33853707Y-63917700D01*
X33875392Y-64026716D01*
X33937144Y-64119136D01*
X34029564Y-64180888D01*
X34138580Y-64202573D01*
X35038580Y-64202573D01*
X35147596Y-64180888D01*
X35240016Y-64119136D01*
X35301768Y-64026716D01*
X35323453Y-63917700D01*
X35323453Y-63787915D01*
X35986180Y-63787915D01*
X35986180Y-64167650D01*
X36081430Y-64262900D01*
X36941380Y-64262900D01*
X36941380Y-63577950D01*
X37042980Y-63577950D01*
X37042980Y-64262900D01*
X37902930Y-64262900D01*
X37998180Y-64167650D01*
X37998180Y-63787915D01*
X37940176Y-63647881D01*
X37833000Y-63540704D01*
X37692966Y-63482700D01*
X37138230Y-63482700D01*
X37042980Y-63577950D01*
X36941380Y-63577950D01*
X36846130Y-63482700D01*
X36291394Y-63482700D01*
X36151360Y-63540704D01*
X36044184Y-63647881D01*
X35986180Y-63787915D01*
X35323453Y-63787915D01*
X35323453Y-63117700D01*
X35301768Y-63008684D01*
X35240016Y-62916264D01*
X35180366Y-62876408D01*
X35487475Y-62569300D01*
X36082307Y-62569300D01*
X36082307Y-62663700D01*
X36103992Y-62772716D01*
X36165744Y-62865136D01*
X36258164Y-62926888D01*
X36367180Y-62948573D01*
X37617180Y-62948573D01*
X37726196Y-62926888D01*
X37818616Y-62865136D01*
X37880368Y-62772716D01*
X37902053Y-62663700D01*
X37902053Y-61763700D01*
X37880368Y-61654684D01*
X37818616Y-61562264D01*
X37726196Y-61500512D01*
X37617180Y-61478827D01*
X36367180Y-61478827D01*
X36258164Y-61500512D01*
X36165744Y-61562264D01*
X36103992Y-61654684D01*
X36082307Y-61763700D01*
X36082307Y-61858100D01*
X36030772Y-61858100D01*
X36028381Y-61846079D01*
X36028381Y-59613259D01*
X36035347Y-59578240D01*
X36028381Y-59543220D01*
X36028381Y-59419519D01*
X36035347Y-59384500D01*
X36014182Y-59278100D01*
X36010850Y-59261348D01*
X38950327Y-62200826D01*
X38950327Y-63421160D01*
X38972012Y-63530176D01*
X39033764Y-63622596D01*
X39126184Y-63684348D01*
X39235200Y-63706033D01*
X41435200Y-63706033D01*
X41544216Y-63684348D01*
X41636636Y-63622596D01*
X41698388Y-63530176D01*
X41720073Y-63421160D01*
X41720073Y-62976760D01*
X42097567Y-62976760D01*
X42097567Y-63096140D01*
X42119252Y-63205156D01*
X42181004Y-63297576D01*
X42273424Y-63359328D01*
X42382440Y-63381013D01*
X42715181Y-63381013D01*
X42715180Y-63527547D01*
X42423080Y-63527547D01*
X42314064Y-63549232D01*
X42221644Y-63610984D01*
X42159892Y-63703404D01*
X42138207Y-63812420D01*
X42138207Y-65717420D01*
X42159892Y-65826436D01*
X42221644Y-65918856D01*
X42314064Y-65980608D01*
X42423080Y-66002293D01*
X43947080Y-66002293D01*
X44056096Y-65980608D01*
X44148516Y-65918856D01*
X44210268Y-65826436D01*
X44231953Y-65717420D01*
X44231953Y-63812420D01*
X44210268Y-63703404D01*
X44148516Y-63610984D01*
X44056096Y-63549232D01*
X43947080Y-63527547D01*
X43654980Y-63527547D01*
X43654980Y-63381013D01*
X43906440Y-63381013D01*
X44015456Y-63359328D01*
X44107876Y-63297576D01*
X44169628Y-63205156D01*
X44191313Y-63096140D01*
X44191313Y-62289690D01*
X45557440Y-62289690D01*
X45557440Y-63171926D01*
X45615444Y-63311960D01*
X45722621Y-63419136D01*
X45827786Y-63462697D01*
X45763261Y-63489424D01*
X45656084Y-63596600D01*
X45598080Y-63736634D01*
X45598080Y-64618870D01*
X45693330Y-64714120D01*
X46690280Y-64714120D01*
X46690280Y-63526670D01*
X46597570Y-63433960D01*
X46649640Y-63381890D01*
X46649640Y-62194440D01*
X46751240Y-62194440D01*
X46751240Y-63381890D01*
X46843950Y-63474600D01*
X46791880Y-63526670D01*
X46791880Y-64714120D01*
X47788830Y-64714120D01*
X47884080Y-64618870D01*
X47884080Y-63736634D01*
X47826076Y-63596600D01*
X47718899Y-63489424D01*
X47613734Y-63445863D01*
X47678259Y-63419136D01*
X47785436Y-63311960D01*
X47843440Y-63171926D01*
X47843440Y-62289690D01*
X47748190Y-62194440D01*
X46751240Y-62194440D01*
X46649640Y-62194440D01*
X45652690Y-62194440D01*
X45557440Y-62289690D01*
X44191313Y-62289690D01*
X44191313Y-61191140D01*
X44176238Y-61115354D01*
X45557440Y-61115354D01*
X45557440Y-61997590D01*
X45652690Y-62092840D01*
X46649640Y-62092840D01*
X46649640Y-60905390D01*
X46751240Y-60905390D01*
X46751240Y-62092840D01*
X47748190Y-62092840D01*
X47843440Y-61997590D01*
X47843440Y-61115354D01*
X47785436Y-60975320D01*
X47678259Y-60868144D01*
X47538225Y-60810140D01*
X46846490Y-60810140D01*
X46751240Y-60905390D01*
X46649640Y-60905390D01*
X46554390Y-60810140D01*
X45862655Y-60810140D01*
X45722621Y-60868144D01*
X45615444Y-60975320D01*
X45557440Y-61115354D01*
X44176238Y-61115354D01*
X44169628Y-61082124D01*
X44107876Y-60989704D01*
X44015456Y-60927952D01*
X43906440Y-60906267D01*
X43614340Y-60906267D01*
X43614340Y-60364265D01*
X43623976Y-60362348D01*
X43716396Y-60300596D01*
X43778148Y-60208176D01*
X43799833Y-60099160D01*
X43799833Y-58421378D01*
X43866819Y-58408054D01*
X43992846Y-58323846D01*
X44014104Y-58292031D01*
X44389634Y-57916502D01*
X44421446Y-57895246D01*
X44505654Y-57769219D01*
X44527760Y-57658084D01*
X44535224Y-57620560D01*
X44527760Y-57583036D01*
X44527760Y-55999160D01*
X45730087Y-55999160D01*
X45730087Y-60099160D01*
X45751772Y-60208176D01*
X45813524Y-60300596D01*
X45905944Y-60362348D01*
X46014960Y-60384033D01*
X47914960Y-60384033D01*
X48023976Y-60362348D01*
X48116396Y-60300596D01*
X48178148Y-60208176D01*
X48199833Y-60099160D01*
X48199833Y-58585958D01*
X48290642Y-58525282D01*
X48327490Y-58470135D01*
X49494673Y-57302953D01*
X49920600Y-57302953D01*
X50029616Y-57281268D01*
X50122036Y-57219516D01*
X50183788Y-57127096D01*
X50205473Y-57018080D01*
X50205473Y-55768080D01*
X50183788Y-55659064D01*
X50122036Y-55566644D01*
X50029616Y-55504892D01*
X49920600Y-55483207D01*
X49425860Y-55483207D01*
X49425860Y-54873988D01*
X49428476Y-54873468D01*
X49520896Y-54811716D01*
X49582648Y-54719296D01*
X49604333Y-54610280D01*
X49604333Y-53060280D01*
X49582648Y-52951264D01*
X49520896Y-52858844D01*
X49428476Y-52797092D01*
X49319460Y-52775407D01*
X48719460Y-52775407D01*
X48610444Y-52797092D01*
X48518024Y-52858844D01*
X48456272Y-52951264D01*
X48434587Y-53060280D01*
X48434587Y-54610280D01*
X48456272Y-54719296D01*
X48518024Y-54811716D01*
X48610444Y-54873468D01*
X48613060Y-54873988D01*
X48613061Y-55901917D01*
X48605100Y-55941940D01*
X48636641Y-56100509D01*
X48702606Y-56199231D01*
X48713780Y-56215954D01*
X48199833Y-56729901D01*
X48199833Y-55999160D01*
X48178148Y-55890144D01*
X48116396Y-55797724D01*
X48023976Y-55735972D01*
X47914960Y-55714287D01*
X46014960Y-55714287D01*
X45905944Y-55735972D01*
X45813524Y-55797724D01*
X45751772Y-55890144D01*
X45730087Y-55999160D01*
X44527760Y-55999160D01*
X44527760Y-55047433D01*
X44596760Y-55047433D01*
X44705776Y-55025748D01*
X44798196Y-54963996D01*
X44859948Y-54871576D01*
X44881633Y-54762560D01*
X44881633Y-54283610D01*
X45415760Y-54283610D01*
X45415760Y-54838346D01*
X45473764Y-54978380D01*
X45580941Y-55085556D01*
X45720975Y-55143560D01*
X46100710Y-55143560D01*
X46195960Y-55048310D01*
X46195960Y-54188360D01*
X45511010Y-54188360D01*
X45415760Y-54283610D01*
X44881633Y-54283610D01*
X44881633Y-53512560D01*
X44866558Y-53436774D01*
X45415760Y-53436774D01*
X45415760Y-53991510D01*
X45511010Y-54086760D01*
X46195960Y-54086760D01*
X46195960Y-53226810D01*
X46297560Y-53226810D01*
X46297560Y-54086760D01*
X46317560Y-54086760D01*
X46317560Y-54188360D01*
X46297560Y-54188360D01*
X46297560Y-55048310D01*
X46392810Y-55143560D01*
X46772545Y-55143560D01*
X46912579Y-55085556D01*
X47019756Y-54978380D01*
X47077760Y-54838346D01*
X47077760Y-54708518D01*
X47126464Y-54826100D01*
X47233641Y-54933276D01*
X47373675Y-54991280D01*
X47603410Y-54991280D01*
X47698660Y-54896030D01*
X47698660Y-53886080D01*
X47800260Y-53886080D01*
X47800260Y-54896030D01*
X47895510Y-54991280D01*
X48125245Y-54991280D01*
X48265279Y-54933276D01*
X48372456Y-54826100D01*
X48430460Y-54686066D01*
X48430460Y-53981330D01*
X48335210Y-53886080D01*
X47800260Y-53886080D01*
X47698660Y-53886080D01*
X47678660Y-53886080D01*
X47678660Y-53784480D01*
X47698660Y-53784480D01*
X47698660Y-52774530D01*
X47800260Y-52774530D01*
X47800260Y-53784480D01*
X48335210Y-53784480D01*
X48430460Y-53689230D01*
X48430460Y-52984494D01*
X48372456Y-52844460D01*
X48265279Y-52737284D01*
X48125245Y-52679280D01*
X47895510Y-52679280D01*
X47800260Y-52774530D01*
X47698660Y-52774530D01*
X47603410Y-52679280D01*
X47373675Y-52679280D01*
X47233641Y-52737284D01*
X47126464Y-52844460D01*
X47068460Y-52984494D01*
X47068460Y-53414322D01*
X47019756Y-53296740D01*
X46912579Y-53189564D01*
X46772545Y-53131560D01*
X46392810Y-53131560D01*
X46297560Y-53226810D01*
X46195960Y-53226810D01*
X46100710Y-53131560D01*
X45720975Y-53131560D01*
X45580941Y-53189564D01*
X45473764Y-53296740D01*
X45415760Y-53436774D01*
X44866558Y-53436774D01*
X44859948Y-53403544D01*
X44798196Y-53311124D01*
X44705776Y-53249372D01*
X44596760Y-53227687D01*
X43902920Y-53227687D01*
X43902920Y-53091633D01*
X43971920Y-53091633D01*
X44080936Y-53069948D01*
X44173356Y-53008196D01*
X44235108Y-52915776D01*
X44256793Y-52806760D01*
X44256793Y-52008649D01*
X44672778Y-52424634D01*
X44694034Y-52456446D01*
X44725845Y-52477701D01*
X44820061Y-52540654D01*
X44887047Y-52553978D01*
X44887047Y-52806760D01*
X44908732Y-52915776D01*
X44970484Y-53008196D01*
X45062904Y-53069948D01*
X45171920Y-53091633D01*
X46071920Y-53091633D01*
X46180936Y-53069948D01*
X46273356Y-53008196D01*
X46335108Y-52915776D01*
X46356793Y-52806760D01*
X46356793Y-51868830D01*
X48098460Y-51868830D01*
X48098460Y-52386066D01*
X48156464Y-52526100D01*
X48263641Y-52633276D01*
X48403675Y-52691280D01*
X48920910Y-52691280D01*
X49016160Y-52596030D01*
X49016160Y-51773580D01*
X49117760Y-51773580D01*
X49117760Y-52596030D01*
X49213010Y-52691280D01*
X50095910Y-52691280D01*
X50191160Y-52596030D01*
X50191160Y-51773580D01*
X49117760Y-51773580D01*
X49016160Y-51773580D01*
X48193710Y-51773580D01*
X48098460Y-51868830D01*
X46356793Y-51868830D01*
X46356793Y-51556760D01*
X46335108Y-51447744D01*
X46286797Y-51375440D01*
X46329346Y-51375440D01*
X46469380Y-51317436D01*
X46576556Y-51210259D01*
X46634560Y-51070225D01*
X46634560Y-50693830D01*
X48098460Y-50693830D01*
X48098460Y-51576730D01*
X48193710Y-51671980D01*
X49016160Y-51671980D01*
X49016160Y-50598580D01*
X49117760Y-50598580D01*
X49117760Y-51671980D01*
X50191160Y-51671980D01*
X50191160Y-50598580D01*
X50292760Y-50598580D01*
X50292760Y-51671980D01*
X51115210Y-51671980D01*
X51210460Y-51576730D01*
X51210460Y-50693830D01*
X51137560Y-50620930D01*
X52374640Y-50620930D01*
X52374640Y-51000665D01*
X52432644Y-51140699D01*
X52539820Y-51247876D01*
X52679854Y-51305880D01*
X53234590Y-51305880D01*
X53329840Y-51210630D01*
X53329840Y-50525680D01*
X52469890Y-50525680D01*
X52374640Y-50620930D01*
X51137560Y-50620930D01*
X51115210Y-50598580D01*
X50292760Y-50598580D01*
X50191160Y-50598580D01*
X49117760Y-50598580D01*
X49016160Y-50598580D01*
X48193710Y-50598580D01*
X48098460Y-50693830D01*
X46634560Y-50693830D01*
X46634560Y-50690490D01*
X46539310Y-50595240D01*
X45679360Y-50595240D01*
X45679360Y-50615240D01*
X45577760Y-50615240D01*
X45577760Y-50595240D01*
X44717810Y-50595240D01*
X44622560Y-50690490D01*
X44622560Y-51070225D01*
X44680564Y-51210259D01*
X44787740Y-51317436D01*
X44927774Y-51375440D01*
X44957043Y-51375440D01*
X44908732Y-51447744D01*
X44887047Y-51556760D01*
X44887047Y-51561271D01*
X44453935Y-51128160D01*
X44458196Y-51123899D01*
X44516200Y-50983865D01*
X44516200Y-50604130D01*
X44420950Y-50508880D01*
X43561000Y-50508880D01*
X43561000Y-50528880D01*
X43459400Y-50528880D01*
X43459400Y-50508880D01*
X43439400Y-50508880D01*
X43439400Y-50407280D01*
X43459400Y-50407280D01*
X43459400Y-49722330D01*
X43561000Y-49722330D01*
X43561000Y-50407280D01*
X44420950Y-50407280D01*
X44516200Y-50312030D01*
X44516200Y-50018655D01*
X44622560Y-50018655D01*
X44622560Y-50398390D01*
X44717810Y-50493640D01*
X45577760Y-50493640D01*
X45577760Y-49808690D01*
X45679360Y-49808690D01*
X45679360Y-50493640D01*
X46539310Y-50493640D01*
X46634560Y-50398390D01*
X46634560Y-50018655D01*
X46576556Y-49878621D01*
X46469380Y-49771444D01*
X46329346Y-49713440D01*
X45774610Y-49713440D01*
X45679360Y-49808690D01*
X45577760Y-49808690D01*
X45482510Y-49713440D01*
X44927774Y-49713440D01*
X44787740Y-49771444D01*
X44680564Y-49878621D01*
X44622560Y-50018655D01*
X44516200Y-50018655D01*
X44516200Y-49932295D01*
X44458196Y-49792261D01*
X44351020Y-49685084D01*
X44210986Y-49627080D01*
X43656250Y-49627080D01*
X43561000Y-49722330D01*
X43459400Y-49722330D01*
X43398683Y-49661613D01*
X43753074Y-49307221D01*
X43784886Y-49285966D01*
X43869094Y-49159939D01*
X43882418Y-49092953D01*
X44135200Y-49092953D01*
X44244216Y-49071268D01*
X44336636Y-49009516D01*
X44398388Y-48917096D01*
X44420073Y-48808080D01*
X44420073Y-48162022D01*
X44496215Y-48085880D01*
X44718687Y-48085880D01*
X44718687Y-48894440D01*
G36*
X29194162Y-22532966D02*
X29213998Y-22562653D01*
X29243685Y-22582489D01*
X29243686Y-22582490D01*
X29331623Y-22641247D01*
X29470371Y-22668846D01*
X29505391Y-22661880D01*
X34269268Y-22661880D01*
X38205154Y-26597766D01*
X37879794Y-26461782D01*
X37330401Y-26460032D01*
X36822158Y-26668660D01*
X36814703Y-26673642D01*
X36709023Y-26878381D01*
X37600700Y-27770058D01*
X37614843Y-27755916D01*
X37686685Y-27827758D01*
X37672542Y-27841900D01*
X38564219Y-28733577D01*
X38768958Y-28627897D01*
X38980818Y-28120994D01*
X38982568Y-27571601D01*
X38845796Y-27238409D01*
X41958287Y-30350900D01*
X41356750Y-30350900D01*
X41261500Y-30446150D01*
X41261500Y-31791100D01*
X42716450Y-31791100D01*
X42811700Y-31695850D01*
X42811700Y-31204313D01*
X44872514Y-33265127D01*
X44078000Y-33265127D01*
X43968984Y-33286812D01*
X43876564Y-33348564D01*
X43814812Y-33440984D01*
X43793127Y-33550000D01*
X43793127Y-34980532D01*
X42268475Y-36505185D01*
X42223942Y-36534941D01*
X42194186Y-36579474D01*
X42194185Y-36579475D01*
X42145974Y-36651627D01*
X41808500Y-36651627D01*
X41699484Y-36673312D01*
X41607064Y-36735064D01*
X41545312Y-36827484D01*
X41523627Y-36936500D01*
X41523627Y-39136500D01*
X41545312Y-39245516D01*
X41596002Y-39321381D01*
X40183945Y-40733439D01*
X40112896Y-40780913D01*
X40018777Y-40921773D01*
X39924830Y-41062374D01*
X39858790Y-41394378D01*
X39875461Y-41478188D01*
X39875460Y-43196215D01*
X39685568Y-43480410D01*
X39599815Y-43911520D01*
X39659399Y-44211069D01*
X39659399Y-45355064D01*
X39637754Y-45463881D01*
X39659399Y-45572698D01*
X39659399Y-45572702D01*
X39723506Y-45894990D01*
X39766659Y-45959573D01*
X39854190Y-46090572D01*
X39967711Y-46260469D01*
X39970268Y-46262177D01*
X39960494Y-46311313D01*
X39982139Y-46420130D01*
X39982139Y-46420134D01*
X40043101Y-46726611D01*
X40043100Y-50596335D01*
X39801336Y-50838100D01*
X39096931Y-50838100D01*
X39381608Y-50720183D01*
X39671183Y-50430608D01*
X39827900Y-50052260D01*
X39827900Y-49642740D01*
X39671183Y-49264392D01*
X39381608Y-48974817D01*
X39003260Y-48818100D01*
X38593740Y-48818100D01*
X38215392Y-48974817D01*
X37925817Y-49264392D01*
X37769100Y-49642740D01*
X37769100Y-50052260D01*
X37925817Y-50430608D01*
X38215392Y-50720183D01*
X38500069Y-50838100D01*
X33663018Y-50838100D01*
X33340730Y-50902207D01*
X32975252Y-51146412D01*
X32731047Y-51511890D01*
X32645294Y-51943000D01*
X32731047Y-52374110D01*
X32975252Y-52739588D01*
X33340730Y-52983793D01*
X33663018Y-53047900D01*
X40150183Y-53047900D01*
X40259000Y-53069545D01*
X40367817Y-53047900D01*
X40367822Y-53047900D01*
X40690110Y-52983793D01*
X41055588Y-52739588D01*
X41117230Y-52647334D01*
X41852336Y-51912229D01*
X41944588Y-51850588D01*
X42006229Y-51758336D01*
X42006231Y-51758334D01*
X42132537Y-51569304D01*
X42188793Y-51485110D01*
X42252900Y-51162822D01*
X42252900Y-51162817D01*
X42252943Y-51162600D01*
X42272305Y-51259939D01*
X42356513Y-51385967D01*
X42386965Y-51406315D01*
X42407313Y-51436767D01*
X42533340Y-51520975D01*
X42593513Y-51532944D01*
X42681998Y-51550545D01*
X42719522Y-51543081D01*
X42789768Y-51543081D01*
X42787047Y-51556760D01*
X42787047Y-52806760D01*
X42808732Y-52915776D01*
X42870484Y-53008196D01*
X42962904Y-53069948D01*
X43071920Y-53091633D01*
X43140921Y-53091633D01*
X43140921Y-53475191D01*
X43133456Y-53512720D01*
X43163026Y-53661378D01*
X43201644Y-53719174D01*
X43247235Y-53787406D01*
X43279047Y-53808662D01*
X43411887Y-53941502D01*
X43411887Y-54762560D01*
X43433572Y-54871576D01*
X43495324Y-54963996D01*
X43587744Y-55025748D01*
X43696760Y-55047433D01*
X43765760Y-55047433D01*
X43765760Y-55871604D01*
X43716396Y-55797724D01*
X43623976Y-55735972D01*
X43514960Y-55714287D01*
X41614960Y-55714287D01*
X41505944Y-55735972D01*
X41413524Y-55797724D01*
X41351772Y-55890144D01*
X41330087Y-55999160D01*
X41330087Y-60099160D01*
X41351772Y-60208176D01*
X41413524Y-60300596D01*
X41505944Y-60362348D01*
X41614960Y-60384033D01*
X42674541Y-60384033D01*
X42674540Y-60906267D01*
X42382440Y-60906267D01*
X42273424Y-60927952D01*
X42181004Y-60989704D01*
X42119252Y-61082124D01*
X42097567Y-61191140D01*
X42097567Y-62265560D01*
X41720073Y-62265560D01*
X41720073Y-61821160D01*
X41698388Y-61712144D01*
X41636636Y-61619724D01*
X41544216Y-61557972D01*
X41435200Y-61536287D01*
X39614866Y-61536287D01*
X35433231Y-57354653D01*
X35407017Y-57315421D01*
X35251585Y-57211564D01*
X35114515Y-57184299D01*
X35114511Y-57184299D01*
X35068239Y-57175095D01*
X35021967Y-57184299D01*
X33167496Y-57184299D01*
X33165170Y-57181973D01*
X33632980Y-57181973D01*
X33741996Y-57160288D01*
X33834416Y-57098536D01*
X33896168Y-57006116D01*
X33917853Y-56897100D01*
X33917853Y-55997100D01*
X33896168Y-55888084D01*
X33834416Y-55795664D01*
X33741996Y-55733912D01*
X33632980Y-55712227D01*
X33569195Y-55712227D01*
X33567947Y-55705952D01*
X33489353Y-55588327D01*
X33459660Y-55568487D01*
X33295572Y-55404398D01*
X33275733Y-55374707D01*
X33158108Y-55296113D01*
X33054380Y-55275480D01*
X33019360Y-55268514D01*
X32984340Y-55275480D01*
X32572959Y-55275480D01*
X32572959Y-42543325D01*
X32638284Y-42478000D01*
X36175927Y-42478000D01*
X36175927Y-43478000D01*
X36197612Y-43587016D01*
X36259364Y-43679436D01*
X36351784Y-43741188D01*
X36460800Y-43762873D01*
X36760800Y-43762873D01*
X36869816Y-43741188D01*
X36962236Y-43679436D01*
X37023988Y-43587016D01*
X37045673Y-43478000D01*
X37045673Y-42478000D01*
X37023988Y-42368984D01*
X36962236Y-42276564D01*
X36869816Y-42214812D01*
X36760800Y-42193127D01*
X36460800Y-42193127D01*
X36351784Y-42214812D01*
X36259364Y-42276564D01*
X36197612Y-42368984D01*
X36175927Y-42478000D01*
X32638284Y-42478000D01*
X32939352Y-42176932D01*
X32969043Y-42157094D01*
X33020110Y-42080666D01*
X33047637Y-42039470D01*
X33075236Y-41900722D01*
X33068270Y-41865702D01*
X33068270Y-41501024D01*
X33535109Y-41034186D01*
X33595014Y-41059000D01*
X33674750Y-41059000D01*
X33770000Y-40963750D01*
X33770000Y-40278800D01*
X33755673Y-40278800D01*
X33755673Y-40177200D01*
X33770000Y-40177200D01*
X33770000Y-39492250D01*
X33674750Y-39397000D01*
X33595014Y-39397000D01*
X33454980Y-39455004D01*
X33416857Y-39493127D01*
X33170800Y-39493127D01*
X33070800Y-39513019D01*
X32970800Y-39493127D01*
X32670800Y-39493127D01*
X32570800Y-39513019D01*
X32470800Y-39493127D01*
X32170800Y-39493127D01*
X32070800Y-39513019D01*
X31970800Y-39493127D01*
X31724743Y-39493127D01*
X31686620Y-39455004D01*
X31546586Y-39397000D01*
X31466850Y-39397000D01*
X31371600Y-39492250D01*
X31371600Y-40177200D01*
X31385927Y-40177200D01*
X31385927Y-40278800D01*
X31371600Y-40278800D01*
X31371600Y-40963750D01*
X31466850Y-41059000D01*
X31546586Y-41059000D01*
X31550129Y-41057533D01*
X31564428Y-41078933D01*
X31594115Y-41098769D01*
X31823661Y-41328315D01*
X31823660Y-41532481D01*
X31498701Y-41857441D01*
X31459472Y-41883653D01*
X31433260Y-41922882D01*
X31433258Y-41922884D01*
X31355614Y-42039086D01*
X31319145Y-42222431D01*
X31328350Y-42268708D01*
X31328349Y-44238635D01*
X31328349Y-44767527D01*
X30507799Y-43946979D01*
X30507799Y-43762873D01*
X30680800Y-43762873D01*
X30789816Y-43741188D01*
X30882236Y-43679436D01*
X30943988Y-43587016D01*
X30965673Y-43478000D01*
X30965673Y-42478000D01*
X30943988Y-42368984D01*
X30882236Y-42276564D01*
X30789816Y-42214812D01*
X30680800Y-42193127D01*
X30507799Y-42193127D01*
X30507799Y-40374050D01*
X30789800Y-40374050D01*
X30789800Y-40753785D01*
X30847804Y-40893819D01*
X30954980Y-41000996D01*
X31095014Y-41059000D01*
X31174750Y-41059000D01*
X31270000Y-40963750D01*
X31270000Y-40278800D01*
X30885050Y-40278800D01*
X30789800Y-40374050D01*
X30507799Y-40374050D01*
X30507799Y-39702215D01*
X30789800Y-39702215D01*
X30789800Y-40081950D01*
X30885050Y-40177200D01*
X31270000Y-40177200D01*
X31270000Y-39492250D01*
X31174750Y-39397000D01*
X31095014Y-39397000D01*
X30954980Y-39455004D01*
X30847804Y-39562181D01*
X30789800Y-39702215D01*
X30507799Y-39702215D01*
X30507799Y-37985930D01*
X30543151Y-37933022D01*
X30574100Y-37777431D01*
X30574100Y-37777427D01*
X30584548Y-37724900D01*
X30574100Y-37672373D01*
X30574100Y-37501773D01*
X30600700Y-37501773D01*
X30709716Y-37480088D01*
X30802136Y-37418336D01*
X30863888Y-37325916D01*
X30885573Y-37216900D01*
X30885573Y-33826900D01*
X31695827Y-33826900D01*
X31695827Y-37216900D01*
X31717512Y-37325916D01*
X31779264Y-37418336D01*
X31871684Y-37480088D01*
X31980700Y-37501773D01*
X33100700Y-37501773D01*
X33128703Y-37496203D01*
X33159858Y-37542829D01*
X33189546Y-37562666D01*
X34782146Y-39155266D01*
X34782145Y-39397000D01*
X34769998Y-39397000D01*
X34769998Y-39492248D01*
X34674750Y-39397000D01*
X34595014Y-39397000D01*
X34454980Y-39455004D01*
X34416857Y-39493127D01*
X34224743Y-39493127D01*
X34186620Y-39455004D01*
X34046586Y-39397000D01*
X33966850Y-39397000D01*
X33871600Y-39492250D01*
X33871600Y-40177200D01*
X33885927Y-40177200D01*
X33885927Y-40278800D01*
X33871600Y-40278800D01*
X33871600Y-40963750D01*
X33966850Y-41059000D01*
X34046586Y-41059000D01*
X34110818Y-41032394D01*
X34211708Y-41133284D01*
X34231546Y-41162974D01*
X34326045Y-41226116D01*
X34349171Y-41241568D01*
X34487919Y-41269167D01*
X34522939Y-41262201D01*
X36118661Y-41262201D01*
X36153681Y-41269167D01*
X36188701Y-41262201D01*
X36292429Y-41241568D01*
X36410054Y-41162974D01*
X36429893Y-41133283D01*
X36469321Y-41093855D01*
X36499010Y-41074017D01*
X36577605Y-40956392D01*
X36598238Y-40852664D01*
X36598238Y-40852663D01*
X36605204Y-40817645D01*
X36598238Y-40782626D01*
X36598238Y-39141376D01*
X36605204Y-39106356D01*
X36577605Y-38967609D01*
X36558338Y-38938774D01*
X36499011Y-38849984D01*
X36469321Y-38830146D01*
X35821725Y-38182550D01*
X38887500Y-38182550D01*
X38887500Y-39212286D01*
X38945504Y-39352320D01*
X39052681Y-39459496D01*
X39192715Y-39517500D01*
X39922450Y-39517500D01*
X40017700Y-39422250D01*
X40017700Y-38087300D01*
X40119300Y-38087300D01*
X40119300Y-39422250D01*
X40214550Y-39517500D01*
X40944285Y-39517500D01*
X41084319Y-39459496D01*
X41191496Y-39352320D01*
X41249500Y-39212286D01*
X41249500Y-38182550D01*
X41154250Y-38087300D01*
X40119300Y-38087300D01*
X40017700Y-38087300D01*
X38982750Y-38087300D01*
X38887500Y-38182550D01*
X35821725Y-38182550D01*
X35134270Y-37495095D01*
X35209716Y-37480088D01*
X35302136Y-37418336D01*
X35363888Y-37325916D01*
X35385573Y-37216900D01*
X35385573Y-35667950D01*
X36099700Y-35667950D01*
X36099700Y-37292685D01*
X36157704Y-37432719D01*
X36264880Y-37539896D01*
X36404914Y-37597900D01*
X36894650Y-37597900D01*
X36989900Y-37502650D01*
X36989900Y-35572700D01*
X37091500Y-35572700D01*
X37091500Y-37502650D01*
X37186750Y-37597900D01*
X37676486Y-37597900D01*
X37816520Y-37539896D01*
X37923696Y-37432719D01*
X37981700Y-37292685D01*
X37981700Y-36860714D01*
X38887500Y-36860714D01*
X38887500Y-37890450D01*
X38982750Y-37985700D01*
X40017700Y-37985700D01*
X40017700Y-36650750D01*
X40119300Y-36650750D01*
X40119300Y-37985700D01*
X41154250Y-37985700D01*
X41249500Y-37890450D01*
X41249500Y-36860714D01*
X41191496Y-36720680D01*
X41084319Y-36613504D01*
X40944285Y-36555500D01*
X40214550Y-36555500D01*
X40119300Y-36650750D01*
X40017700Y-36650750D01*
X39922450Y-36555500D01*
X39192715Y-36555500D01*
X39052681Y-36613504D01*
X38945504Y-36720680D01*
X38887500Y-36860714D01*
X37981700Y-36860714D01*
X37981700Y-35667950D01*
X37886450Y-35572700D01*
X37091500Y-35572700D01*
X36989900Y-35572700D01*
X36194950Y-35572700D01*
X36099700Y-35667950D01*
X35385573Y-35667950D01*
X35385573Y-33826900D01*
X35370499Y-33751115D01*
X36099700Y-33751115D01*
X36099700Y-35375850D01*
X36194950Y-35471100D01*
X36989900Y-35471100D01*
X36989900Y-33541150D01*
X37091500Y-33541150D01*
X37091500Y-35471100D01*
X37886450Y-35471100D01*
X37981700Y-35375850D01*
X37981700Y-33751115D01*
X37923696Y-33611081D01*
X37816520Y-33503904D01*
X37676486Y-33445900D01*
X37186750Y-33445900D01*
X37091500Y-33541150D01*
X36989900Y-33541150D01*
X36894650Y-33445900D01*
X36404914Y-33445900D01*
X36264880Y-33503904D01*
X36157704Y-33611081D01*
X36099700Y-33751115D01*
X35370499Y-33751115D01*
X35363888Y-33717884D01*
X35302136Y-33625464D01*
X35209716Y-33563712D01*
X35100700Y-33542027D01*
X33980700Y-33542027D01*
X33871684Y-33563712D01*
X33779264Y-33625464D01*
X33717512Y-33717884D01*
X33695827Y-33826900D01*
X33695827Y-36175816D01*
X33692441Y-36170748D01*
X33692440Y-36170747D01*
X33672604Y-36141060D01*
X33642917Y-36121224D01*
X33385573Y-35863880D01*
X33385573Y-33826900D01*
X33363888Y-33717884D01*
X33302136Y-33625464D01*
X33209716Y-33563712D01*
X33100700Y-33542027D01*
X31980700Y-33542027D01*
X31871684Y-33563712D01*
X31779264Y-33625464D01*
X31717512Y-33717884D01*
X31695827Y-33826900D01*
X30885573Y-33826900D01*
X30863888Y-33717884D01*
X30802136Y-33625464D01*
X30709716Y-33563712D01*
X30600700Y-33542027D01*
X29480700Y-33542027D01*
X29371684Y-33563712D01*
X29279264Y-33625464D01*
X29217512Y-33717884D01*
X29195827Y-33826900D01*
X29195827Y-37216900D01*
X29217512Y-37325916D01*
X29279264Y-37418336D01*
X29371684Y-37480088D01*
X29480700Y-37501773D01*
X29507300Y-37501773D01*
X29507300Y-37530172D01*
X29471949Y-37583079D01*
X29430551Y-37791201D01*
X29441000Y-37843732D01*
X29440999Y-44115393D01*
X29430551Y-44167919D01*
X29440999Y-44220445D01*
X29440999Y-44220449D01*
X29471948Y-44376040D01*
X29589840Y-44552478D01*
X29634376Y-44582236D01*
X30637802Y-45585664D01*
X30637801Y-53478101D01*
X30433003Y-53682900D01*
X29347712Y-53682900D01*
X29301440Y-53673696D01*
X29255168Y-53682900D01*
X29255164Y-53682900D01*
X29118094Y-53710165D01*
X28962662Y-53814022D01*
X28936449Y-53853252D01*
X27490812Y-55298890D01*
X27451583Y-55325102D01*
X27425371Y-55364331D01*
X27425369Y-55364333D01*
X27347725Y-55480535D01*
X27333369Y-55552708D01*
X27320460Y-55617604D01*
X27320460Y-55617608D01*
X27311256Y-55663880D01*
X27320460Y-55710152D01*
X27320460Y-55752484D01*
X27287910Y-55801198D01*
X27261018Y-55936394D01*
X27223880Y-55929007D01*
X25973880Y-55929007D01*
X25864864Y-55950692D01*
X25772444Y-56012444D01*
X25710692Y-56104864D01*
X25689007Y-56213880D01*
X25689007Y-57113880D01*
X25710692Y-57222896D01*
X25772444Y-57315316D01*
X25864864Y-57377068D01*
X25973880Y-57398753D01*
X26669215Y-57398753D01*
X27276479Y-58006018D01*
X27283407Y-58040848D01*
X27223880Y-58029007D01*
X25973880Y-58029007D01*
X25864864Y-58050692D01*
X25772444Y-58112444D01*
X25710692Y-58204864D01*
X25689007Y-58313880D01*
X25689007Y-59213880D01*
X25710692Y-59322896D01*
X25772444Y-59415316D01*
X25864864Y-59477068D01*
X25973880Y-59498753D01*
X27223880Y-59498753D01*
X27332896Y-59477068D01*
X27425316Y-59415316D01*
X27487068Y-59322896D01*
X27508753Y-59213880D01*
X27508753Y-59119480D01*
X29718580Y-59119480D01*
X29753600Y-59126446D01*
X29788620Y-59119480D01*
X29892348Y-59098847D01*
X30009973Y-59020253D01*
X30029811Y-58990563D01*
X30335919Y-58684456D01*
X30355748Y-58714133D01*
X30385435Y-58733969D01*
X31067065Y-59415600D01*
X30572330Y-59415600D01*
X30477080Y-59510850D01*
X30477080Y-60507800D01*
X31664530Y-60507800D01*
X31759780Y-60412550D01*
X31759780Y-59935399D01*
X31767619Y-59933840D01*
X32063180Y-59933840D01*
X32063180Y-60323650D01*
X32158430Y-60418900D01*
X32843380Y-60418900D01*
X32843380Y-60398900D01*
X32944980Y-60398900D01*
X32944980Y-60418900D01*
X33629930Y-60418900D01*
X33725180Y-60323650D01*
X33725180Y-59933840D01*
X34259307Y-59933840D01*
X34259307Y-61094700D01*
X34280992Y-61203716D01*
X34342744Y-61296136D01*
X34435164Y-61357888D01*
X34544180Y-61379573D01*
X34638581Y-61379573D01*
X34638581Y-61456070D01*
X33400241Y-62694411D01*
X33324330Y-62618500D01*
X32639380Y-62618500D01*
X32639380Y-62638500D01*
X32537780Y-62638500D01*
X32537780Y-62618500D01*
X31852830Y-62618500D01*
X31757580Y-62713750D01*
X31757580Y-63043486D01*
X31815584Y-63183520D01*
X31922761Y-63290696D01*
X32062795Y-63348700D01*
X32331736Y-63348700D01*
X32381371Y-63422985D01*
X32394780Y-63436394D01*
X32394780Y-63451119D01*
X32415413Y-63554847D01*
X32494007Y-63672472D01*
X32611632Y-63751067D01*
X32750380Y-63778666D01*
X32835381Y-63761758D01*
X32835381Y-63768005D01*
X32820559Y-63782827D01*
X32138580Y-63782827D01*
X32029564Y-63804512D01*
X32002643Y-63822500D01*
X31663653Y-63822500D01*
X31663653Y-63352600D01*
X31641968Y-63243584D01*
X31580216Y-63151164D01*
X31487796Y-63089412D01*
X31378780Y-63067727D01*
X29473780Y-63067727D01*
X29364764Y-63089412D01*
X29272344Y-63151164D01*
X29210592Y-63243584D01*
X29188907Y-63352600D01*
X29188907Y-63759000D01*
X28831553Y-63759000D01*
X28831553Y-63390700D01*
X28809868Y-63281684D01*
X28748116Y-63189264D01*
X28655696Y-63127512D01*
X28546680Y-63105827D01*
X26641680Y-63105827D01*
X26532664Y-63127512D01*
X26463869Y-63173479D01*
X26463869Y-62111246D01*
X26483201Y-62091914D01*
X31757580Y-62091914D01*
X31757580Y-62421650D01*
X31852830Y-62516900D01*
X32537780Y-62516900D01*
X32537780Y-61881950D01*
X32639380Y-61881950D01*
X32639380Y-62516900D01*
X33324330Y-62516900D01*
X33419580Y-62421650D01*
X33419580Y-62091914D01*
X33361576Y-61951880D01*
X33254399Y-61844704D01*
X33114365Y-61786700D01*
X32734630Y-61786700D01*
X32639380Y-61881950D01*
X32537780Y-61881950D01*
X32442530Y-61786700D01*
X32062795Y-61786700D01*
X31922761Y-61844704D01*
X31815584Y-61951880D01*
X31757580Y-62091914D01*
X26483201Y-62091914D01*
X26931542Y-61643573D01*
X28546680Y-61643573D01*
X28655696Y-61621888D01*
X28748116Y-61560136D01*
X28809868Y-61467716D01*
X28831553Y-61358700D01*
X28831553Y-60704650D01*
X29092780Y-60704650D01*
X29092780Y-61396385D01*
X29150784Y-61536419D01*
X29257960Y-61643596D01*
X29397994Y-61701600D01*
X30280230Y-61701600D01*
X30375480Y-61606350D01*
X30375480Y-60609400D01*
X30477080Y-60609400D01*
X30477080Y-61606350D01*
X30572330Y-61701600D01*
X31454566Y-61701600D01*
X31594600Y-61643596D01*
X31701776Y-61536419D01*
X31759780Y-61396385D01*
X31759780Y-60704650D01*
X31670880Y-60615750D01*
X32063180Y-60615750D01*
X32063180Y-61170486D01*
X32121184Y-61310520D01*
X32228361Y-61417696D01*
X32368395Y-61475700D01*
X32748130Y-61475700D01*
X32843380Y-61380450D01*
X32843380Y-60520500D01*
X32944980Y-60520500D01*
X32944980Y-61380450D01*
X33040230Y-61475700D01*
X33419965Y-61475700D01*
X33559999Y-61417696D01*
X33667176Y-61310520D01*
X33725180Y-61170486D01*
X33725180Y-60615750D01*
X33629930Y-60520500D01*
X32944980Y-60520500D01*
X32843380Y-60520500D01*
X32158430Y-60520500D01*
X32063180Y-60615750D01*
X31670880Y-60615750D01*
X31664530Y-60609400D01*
X30477080Y-60609400D01*
X30375480Y-60609400D01*
X29188030Y-60609400D01*
X29092780Y-60704650D01*
X28831553Y-60704650D01*
X28831553Y-59834700D01*
X28809868Y-59725684D01*
X28806615Y-59720815D01*
X29092780Y-59720815D01*
X29092780Y-60412550D01*
X29188030Y-60507800D01*
X30375480Y-60507800D01*
X30375480Y-59510850D01*
X30280230Y-59415600D01*
X29397994Y-59415600D01*
X29257960Y-59473604D01*
X29150784Y-59580781D01*
X29092780Y-59720815D01*
X28806615Y-59720815D01*
X28748116Y-59633264D01*
X28655696Y-59571512D01*
X28546680Y-59549827D01*
X26641680Y-59549827D01*
X26532664Y-59571512D01*
X26440244Y-59633264D01*
X26378492Y-59725684D01*
X26356807Y-59834700D01*
X26356807Y-60063300D01*
X26354621Y-60063300D01*
X23139400Y-56848080D01*
X23139400Y-55923573D01*
X23368000Y-55923573D01*
X23477016Y-55901888D01*
X23569436Y-55840136D01*
X23631188Y-55747716D01*
X23652873Y-55638700D01*
X23652873Y-55346600D01*
X24537398Y-55346600D01*
X24602440Y-55359538D01*
X24667482Y-55346600D01*
X24667483Y-55346600D01*
X24860115Y-55308283D01*
X25078562Y-55162322D01*
X25115409Y-55107176D01*
X25914686Y-54307901D01*
X25958947Y-54307901D01*
X26011473Y-54318349D01*
X26063999Y-54307901D01*
X26064004Y-54307901D01*
X26219595Y-54276952D01*
X26396032Y-54159060D01*
X26425790Y-54114524D01*
X26438314Y-54102000D01*
X27875691Y-54102000D01*
X28031282Y-54071051D01*
X28207719Y-53953159D01*
X28325611Y-53776722D01*
X28330388Y-53752706D01*
X28357124Y-53734842D01*
X28393971Y-53679696D01*
X29226107Y-52847561D01*
X29226108Y-52847559D01*
X29414394Y-52659274D01*
X29567697Y-52595774D01*
X29771334Y-52392137D01*
X29881541Y-52126074D01*
X29881541Y-51838088D01*
X29771334Y-51572025D01*
X29567697Y-51368388D01*
X29301634Y-51258181D01*
X29013648Y-51258181D01*
X28747585Y-51368388D01*
X28543948Y-51572025D01*
X28480448Y-51725328D01*
X28292163Y-51913614D01*
X28292161Y-51913615D01*
X27570047Y-52635730D01*
X27565485Y-52636637D01*
X27347038Y-52782598D01*
X27201077Y-53001045D01*
X27194283Y-53035200D01*
X26269900Y-53035200D01*
X26217374Y-53024752D01*
X26164848Y-53035200D01*
X26164843Y-53035200D01*
X26009252Y-53066149D01*
X25832815Y-53184041D01*
X25828594Y-53190358D01*
X25771814Y-53152419D01*
X25662245Y-53130624D01*
X25664000Y-53126386D01*
X25664000Y-52571650D01*
X25568750Y-52476400D01*
X24883800Y-52476400D01*
X24883800Y-53336350D01*
X24951072Y-53403622D01*
X24328895Y-54025800D01*
X23652873Y-54025800D01*
X23652873Y-53733700D01*
X23631188Y-53624684D01*
X23569436Y-53532264D01*
X23477016Y-53470512D01*
X23368000Y-53448827D01*
X22313467Y-53448827D01*
X22179532Y-53314892D01*
X22283000Y-53335473D01*
X23183000Y-53335473D01*
X23292016Y-53313788D01*
X23384436Y-53252036D01*
X23446188Y-53159616D01*
X23467873Y-53050600D01*
X23467873Y-52571650D01*
X24002000Y-52571650D01*
X24002000Y-53126386D01*
X24060004Y-53266420D01*
X24167181Y-53373596D01*
X24307215Y-53431600D01*
X24686950Y-53431600D01*
X24782200Y-53336350D01*
X24782200Y-52476400D01*
X24097250Y-52476400D01*
X24002000Y-52571650D01*
X23467873Y-52571650D01*
X23467873Y-51800600D01*
X23452798Y-51724814D01*
X24002000Y-51724814D01*
X24002000Y-52279550D01*
X24097250Y-52374800D01*
X24782200Y-52374800D01*
X24782200Y-51514850D01*
X24883800Y-51514850D01*
X24883800Y-52374800D01*
X25568750Y-52374800D01*
X25664000Y-52279550D01*
X25664000Y-52153016D01*
X25676780Y-52165796D01*
X25816814Y-52223800D01*
X26371550Y-52223800D01*
X26466800Y-52128550D01*
X26466800Y-51443600D01*
X26568400Y-51443600D01*
X26568400Y-52128550D01*
X26663650Y-52223800D01*
X27218386Y-52223800D01*
X27358420Y-52165796D01*
X27465596Y-52058619D01*
X27523600Y-51918585D01*
X27523600Y-51538850D01*
X27428350Y-51443600D01*
X26568400Y-51443600D01*
X26466800Y-51443600D01*
X25606850Y-51443600D01*
X25535833Y-51514617D01*
X25498819Y-51477604D01*
X25358785Y-51419600D01*
X24979050Y-51419600D01*
X24883800Y-51514850D01*
X24782200Y-51514850D01*
X24686950Y-51419600D01*
X24307215Y-51419600D01*
X24167181Y-51477604D01*
X24060004Y-51584780D01*
X24002000Y-51724814D01*
X23452798Y-51724814D01*
X23446188Y-51691584D01*
X23384436Y-51599164D01*
X23324786Y-51559308D01*
X23528086Y-51356008D01*
X23557773Y-51336172D01*
X23636368Y-51218547D01*
X23657001Y-51114819D01*
X23657001Y-51114815D01*
X23663966Y-51079800D01*
X23657001Y-51044785D01*
X23657001Y-49615416D01*
X23987927Y-49946342D01*
X23987927Y-50942400D01*
X24009612Y-51051416D01*
X24071364Y-51143836D01*
X24163784Y-51205588D01*
X24272800Y-51227273D01*
X25172800Y-51227273D01*
X25281816Y-51205588D01*
X25374236Y-51143836D01*
X25435988Y-51051416D01*
X25457673Y-50942400D01*
X25457673Y-50867015D01*
X25511600Y-50867015D01*
X25511600Y-51246750D01*
X25606850Y-51342000D01*
X26466800Y-51342000D01*
X26466800Y-50657050D01*
X26568400Y-50657050D01*
X26568400Y-51342000D01*
X27428350Y-51342000D01*
X27523600Y-51246750D01*
X27523600Y-50867015D01*
X27465596Y-50726981D01*
X27358420Y-50619804D01*
X27218386Y-50561800D01*
X26663650Y-50561800D01*
X26568400Y-50657050D01*
X26466800Y-50657050D01*
X26371550Y-50561800D01*
X25816814Y-50561800D01*
X25676780Y-50619804D01*
X25569604Y-50726981D01*
X25511600Y-50867015D01*
X25457673Y-50867015D01*
X25457673Y-49692400D01*
X25435988Y-49583384D01*
X25374236Y-49490964D01*
X25281816Y-49429212D01*
X25172800Y-49407527D01*
X24526742Y-49407527D01*
X23489370Y-48370155D01*
X23510316Y-48365988D01*
X23602736Y-48304236D01*
X23664488Y-48211816D01*
X23686173Y-48102800D01*
X23686173Y-46552800D01*
X23786427Y-46552800D01*
X23786427Y-48102800D01*
X23808112Y-48211816D01*
X23869864Y-48304236D01*
X23962284Y-48365988D01*
X24071300Y-48387673D01*
X24671300Y-48387673D01*
X24780316Y-48365988D01*
X24872736Y-48304236D01*
X24934488Y-48211816D01*
X24956173Y-48102800D01*
X24956173Y-46770821D01*
X25056427Y-46670567D01*
X25056427Y-48102800D01*
X25078112Y-48211816D01*
X25139864Y-48304236D01*
X25232284Y-48365988D01*
X25341300Y-48387673D01*
X25941300Y-48387673D01*
X26050316Y-48365988D01*
X26111201Y-48325307D01*
X26111201Y-48557927D01*
X25892600Y-48557927D01*
X25783584Y-48579612D01*
X25691164Y-48641364D01*
X25629412Y-48733784D01*
X25607727Y-48842800D01*
X25607727Y-49742800D01*
X25629412Y-49851816D01*
X25691164Y-49944236D01*
X25783584Y-50005988D01*
X25892600Y-50027673D01*
X27142600Y-50027673D01*
X27251616Y-50005988D01*
X27344036Y-49944236D01*
X27405788Y-49851816D01*
X27427473Y-49742800D01*
X27427473Y-49499240D01*
X27985400Y-49499240D01*
X27985400Y-49908760D01*
X28142117Y-50287108D01*
X28431692Y-50576683D01*
X28810040Y-50733400D01*
X29219560Y-50733400D01*
X29597908Y-50576683D01*
X29887483Y-50287108D01*
X30044200Y-49908760D01*
X30044200Y-49499240D01*
X29887483Y-49120892D01*
X29597908Y-48831317D01*
X29219560Y-48674600D01*
X28810040Y-48674600D01*
X28431692Y-48831317D01*
X28142117Y-49120892D01*
X27985400Y-49499240D01*
X27427473Y-49499240D01*
X27427473Y-48842800D01*
X27405788Y-48733784D01*
X27344036Y-48641364D01*
X27251616Y-48579612D01*
X27142600Y-48557927D01*
X26924000Y-48557927D01*
X26924000Y-48199735D01*
X27964437Y-47159299D01*
X28655824Y-47159299D01*
X28774370Y-47135719D01*
X28908798Y-47045896D01*
X28998621Y-46911468D01*
X29030162Y-46752899D01*
X28998621Y-46594330D01*
X28971401Y-46553593D01*
X28971401Y-42594121D01*
X28978367Y-42559101D01*
X28950768Y-42420353D01*
X28892011Y-42332416D01*
X28892008Y-42332413D01*
X28872173Y-42302728D01*
X28842489Y-42282894D01*
X28697473Y-42137878D01*
X28697473Y-41455900D01*
X28675788Y-41346884D01*
X28614036Y-41254464D01*
X28521616Y-41192712D01*
X28412600Y-41171027D01*
X27162600Y-41171027D01*
X27053584Y-41192712D01*
X26961164Y-41254464D01*
X26899412Y-41346884D01*
X26877727Y-41455900D01*
X26877727Y-42355900D01*
X26899412Y-42464916D01*
X26961164Y-42557336D01*
X27053584Y-42619088D01*
X27162600Y-42640773D01*
X28194578Y-42640773D01*
X28260201Y-42706396D01*
X28260201Y-42772200D01*
X27908250Y-42772200D01*
X27813000Y-42867450D01*
X27813000Y-43552400D01*
X27833000Y-43552400D01*
X27833000Y-43654000D01*
X27813000Y-43654000D01*
X27813000Y-44338950D01*
X27908250Y-44434200D01*
X28260201Y-44434200D01*
X28260202Y-44968327D01*
X27137200Y-44968327D01*
X27028184Y-44990012D01*
X26935764Y-45051764D01*
X26874012Y-45144184D01*
X26852327Y-45253200D01*
X26852327Y-45347600D01*
X25555920Y-45347600D01*
X25520900Y-45340634D01*
X25485880Y-45347600D01*
X25382152Y-45368233D01*
X25292300Y-45428270D01*
X25292300Y-45361350D01*
X25197050Y-45266100D01*
X24374600Y-45266100D01*
X24374600Y-46088550D01*
X24469850Y-46183800D01*
X24537406Y-46183800D01*
X24453279Y-46267927D01*
X24071300Y-46267927D01*
X23962284Y-46289612D01*
X23869864Y-46351364D01*
X23808112Y-46443784D01*
X23786427Y-46552800D01*
X23686173Y-46552800D01*
X23664488Y-46443784D01*
X23602736Y-46351364D01*
X23510316Y-46289612D01*
X23401300Y-46267927D01*
X22801300Y-46267927D01*
X22692284Y-46289612D01*
X22599864Y-46351364D01*
X22538112Y-46443784D01*
X22516427Y-46552800D01*
X22516427Y-47985033D01*
X22416173Y-47884779D01*
X22416173Y-46552800D01*
X22394488Y-46443784D01*
X22332736Y-46351364D01*
X22240316Y-46289612D01*
X22131300Y-46267927D01*
X21531300Y-46267927D01*
X21422284Y-46289612D01*
X21329864Y-46351364D01*
X21268112Y-46443784D01*
X21246427Y-46552800D01*
X21246427Y-48102800D01*
X21268112Y-48211816D01*
X21329864Y-48304236D01*
X21422284Y-48365988D01*
X21531300Y-48387673D01*
X21913279Y-48387673D01*
X22933132Y-49407527D01*
X22172800Y-49407527D01*
X22063784Y-49429212D01*
X21971364Y-49490964D01*
X21909612Y-49583384D01*
X21887927Y-49692400D01*
X21887927Y-50724378D01*
X21109315Y-51502991D01*
X21079628Y-51522827D01*
X21062344Y-51548694D01*
X20999450Y-51485800D01*
X19812000Y-51485800D01*
X19812000Y-52482750D01*
X19907250Y-52578000D01*
X20789486Y-52578000D01*
X20929520Y-52519996D01*
X20980401Y-52469115D01*
X20980400Y-52692300D01*
X19326819Y-52692300D01*
X19212519Y-52578000D01*
X19615150Y-52578000D01*
X19710400Y-52482750D01*
X19710400Y-51485800D01*
X19690400Y-51485800D01*
X19690400Y-51384200D01*
X19710400Y-51384200D01*
X19710400Y-50387250D01*
X19812000Y-50387250D01*
X19812000Y-51384200D01*
X20999450Y-51384200D01*
X21094700Y-51288950D01*
X21094700Y-50597215D01*
X21036696Y-50457181D01*
X20929520Y-50350004D01*
X20789486Y-50292000D01*
X19907250Y-50292000D01*
X19812000Y-50387250D01*
X19710400Y-50387250D01*
X19615150Y-50292000D01*
X18935699Y-50292000D01*
X18935699Y-49268341D01*
X19278168Y-48925873D01*
X20713700Y-48925873D01*
X20822716Y-48904188D01*
X20915136Y-48842436D01*
X20976888Y-48750016D01*
X20998573Y-48641000D01*
X20998573Y-47117000D01*
X20976888Y-47007984D01*
X20915136Y-46915564D01*
X20822716Y-46853812D01*
X20713700Y-46832127D01*
X19188365Y-46832127D01*
X19169838Y-46813600D01*
X19577050Y-46813600D01*
X19672300Y-46718350D01*
X19672300Y-46033400D01*
X19773900Y-46033400D01*
X19773900Y-46718350D01*
X19869150Y-46813600D01*
X20423886Y-46813600D01*
X20563920Y-46755596D01*
X20671096Y-46648419D01*
X20729100Y-46508385D01*
X20729100Y-46128650D01*
X20633850Y-46033400D01*
X19773900Y-46033400D01*
X19672300Y-46033400D01*
X19652300Y-46033400D01*
X19652300Y-45931800D01*
X19672300Y-45931800D01*
X19672300Y-45246850D01*
X19773900Y-45246850D01*
X19773900Y-45931800D01*
X20633850Y-45931800D01*
X20729100Y-45836550D01*
X20729100Y-45456815D01*
X20689558Y-45361350D01*
X22180300Y-45361350D01*
X22180300Y-45878586D01*
X22238304Y-46018620D01*
X22345481Y-46125796D01*
X22485515Y-46183800D01*
X23002750Y-46183800D01*
X23098000Y-46088550D01*
X23098000Y-45266100D01*
X23199600Y-45266100D01*
X23199600Y-46088550D01*
X23294850Y-46183800D01*
X24177750Y-46183800D01*
X24273000Y-46088550D01*
X24273000Y-45266100D01*
X23199600Y-45266100D01*
X23098000Y-45266100D01*
X22275550Y-45266100D01*
X22180300Y-45361350D01*
X20689558Y-45361350D01*
X20671096Y-45316781D01*
X20563920Y-45209604D01*
X20423886Y-45151600D01*
X19869150Y-45151600D01*
X19773900Y-45246850D01*
X19672300Y-45246850D01*
X19577050Y-45151600D01*
X19022314Y-45151600D01*
X18897600Y-45203258D01*
X18897600Y-45197638D01*
X19477766Y-44617473D01*
X20348100Y-44617473D01*
X20457116Y-44595788D01*
X20549536Y-44534036D01*
X20611288Y-44441616D01*
X20629015Y-44352500D01*
X21575228Y-44352500D01*
X21621500Y-44361704D01*
X21667772Y-44352500D01*
X21667776Y-44352500D01*
X21804846Y-44325235D01*
X21960278Y-44221378D01*
X21983682Y-44186350D01*
X22180300Y-44186350D01*
X22180300Y-45069250D01*
X22275550Y-45164500D01*
X23098000Y-45164500D01*
X23098000Y-44091100D01*
X23199600Y-44091100D01*
X23199600Y-45164500D01*
X24273000Y-45164500D01*
X24273000Y-44091100D01*
X24374600Y-44091100D01*
X24374600Y-45164500D01*
X25197050Y-45164500D01*
X25292300Y-45069250D01*
X25292300Y-44186350D01*
X25197050Y-44091100D01*
X24374600Y-44091100D01*
X24273000Y-44091100D01*
X23199600Y-44091100D01*
X23098000Y-44091100D01*
X22275550Y-44091100D01*
X22180300Y-44186350D01*
X21983682Y-44186350D01*
X21986492Y-44182146D01*
X22227344Y-43941294D01*
X22275550Y-43989500D01*
X23098000Y-43989500D01*
X23098000Y-43167050D01*
X23199600Y-43167050D01*
X23199600Y-43989500D01*
X24273000Y-43989500D01*
X24273000Y-43167050D01*
X24374600Y-43167050D01*
X24374600Y-43989500D01*
X25197050Y-43989500D01*
X25292300Y-43894250D01*
X25292300Y-43749250D01*
X26756200Y-43749250D01*
X26756200Y-44128985D01*
X26814204Y-44269019D01*
X26921380Y-44376196D01*
X27061414Y-44434200D01*
X27616150Y-44434200D01*
X27711400Y-44338950D01*
X27711400Y-43654000D01*
X26851450Y-43654000D01*
X26756200Y-43749250D01*
X25292300Y-43749250D01*
X25292300Y-43377014D01*
X25234296Y-43236980D01*
X25127119Y-43129804D01*
X24987085Y-43071800D01*
X24469850Y-43071800D01*
X24374600Y-43167050D01*
X24273000Y-43167050D01*
X24177750Y-43071800D01*
X23294850Y-43071800D01*
X23199600Y-43167050D01*
X23098000Y-43167050D01*
X23049794Y-43118844D01*
X23180966Y-42987673D01*
X23401300Y-42987673D01*
X23510316Y-42965988D01*
X23602736Y-42904236D01*
X23664488Y-42811816D01*
X23686173Y-42702800D01*
X23686173Y-41270567D01*
X23786427Y-41370821D01*
X23786427Y-42702800D01*
X23808112Y-42811816D01*
X23869864Y-42904236D01*
X23962284Y-42965988D01*
X24071300Y-42987673D01*
X24671300Y-42987673D01*
X24780316Y-42965988D01*
X24872736Y-42904236D01*
X24934488Y-42811816D01*
X24956173Y-42702800D01*
X24956173Y-42073850D01*
X24960300Y-42073850D01*
X24960300Y-42778586D01*
X25018304Y-42918620D01*
X25125481Y-43025796D01*
X25265515Y-43083800D01*
X25495250Y-43083800D01*
X25590500Y-42988550D01*
X25590500Y-41978600D01*
X25692100Y-41978600D01*
X25692100Y-42988550D01*
X25787350Y-43083800D01*
X26017085Y-43083800D01*
X26032499Y-43077415D01*
X26756200Y-43077415D01*
X26756200Y-43457150D01*
X26851450Y-43552400D01*
X27711400Y-43552400D01*
X27711400Y-42867450D01*
X27616150Y-42772200D01*
X27061414Y-42772200D01*
X26921380Y-42830204D01*
X26814204Y-42937381D01*
X26756200Y-43077415D01*
X26032499Y-43077415D01*
X26157119Y-43025796D01*
X26264296Y-42918620D01*
X26322300Y-42778586D01*
X26322300Y-42073850D01*
X26227050Y-41978600D01*
X25692100Y-41978600D01*
X25590500Y-41978600D01*
X25055550Y-41978600D01*
X24960300Y-42073850D01*
X24956173Y-42073850D01*
X24956173Y-41152800D01*
X24941098Y-41077014D01*
X24960300Y-41077014D01*
X24960300Y-41781750D01*
X25055550Y-41877000D01*
X25590500Y-41877000D01*
X25590500Y-41857000D01*
X25692100Y-41857000D01*
X25692100Y-41877000D01*
X26227050Y-41877000D01*
X26322300Y-41781750D01*
X26322300Y-41077014D01*
X26264296Y-40936980D01*
X26157119Y-40829804D01*
X26017085Y-40771800D01*
X25787350Y-40771800D01*
X25692102Y-40867048D01*
X25692102Y-40771800D01*
X25684897Y-40771800D01*
X26135740Y-40456116D01*
X26159131Y-40323459D01*
X25766260Y-39762381D01*
X25061830Y-40255628D01*
X25038439Y-40388285D01*
X25169308Y-40575186D01*
X25256246Y-40699346D01*
X25369976Y-40771800D01*
X25265515Y-40771800D01*
X25125481Y-40829804D01*
X25018304Y-40936980D01*
X24960300Y-41077014D01*
X24941098Y-41077014D01*
X24934488Y-41043784D01*
X24872736Y-40951364D01*
X24841200Y-40930293D01*
X24841200Y-40818072D01*
X24850404Y-40771800D01*
X24841200Y-40725528D01*
X24841200Y-40725524D01*
X24813935Y-40588454D01*
X24710078Y-40433022D01*
X24701451Y-40427258D01*
X24709638Y-40386100D01*
X24658383Y-40128424D01*
X24587242Y-40021955D01*
X24512422Y-39909978D01*
X24457278Y-39873132D01*
X24274117Y-39689971D01*
X24620284Y-39689971D01*
X24653090Y-39837950D01*
X24740028Y-39962110D01*
X24870897Y-40149011D01*
X25003555Y-40172402D01*
X25707984Y-39679155D01*
X25315113Y-39118077D01*
X25182456Y-39094685D01*
X24728043Y-39412869D01*
X24646603Y-39540703D01*
X24620284Y-39689971D01*
X24274117Y-39689971D01*
X22832673Y-38248528D01*
X22832673Y-36997600D01*
X22810988Y-36888584D01*
X22749236Y-36796164D01*
X22656816Y-36734412D01*
X22547800Y-36712727D01*
X18447800Y-36712727D01*
X18338784Y-36734412D01*
X18246364Y-36796164D01*
X18184612Y-36888584D01*
X18162927Y-36997600D01*
X18162927Y-38897600D01*
X18184612Y-39006616D01*
X18246364Y-39099036D01*
X18338784Y-39160788D01*
X18447800Y-39182473D01*
X18937081Y-39182473D01*
X18883964Y-39217964D01*
X18822212Y-39310384D01*
X18800527Y-39419400D01*
X18800527Y-40319400D01*
X18822212Y-40428416D01*
X18883964Y-40520836D01*
X18976384Y-40582588D01*
X19085400Y-40604273D01*
X19354800Y-40604273D01*
X19354800Y-40630380D01*
X19347834Y-40665400D01*
X19375433Y-40804147D01*
X19432539Y-40889612D01*
X19454027Y-40921772D01*
X19483715Y-40941609D01*
X19662789Y-41120683D01*
X19682627Y-41150373D01*
X19800252Y-41228967D01*
X19828204Y-41234527D01*
X19085400Y-41234527D01*
X18976384Y-41256212D01*
X18883964Y-41317964D01*
X18822212Y-41410384D01*
X18800527Y-41519400D01*
X18800527Y-42419400D01*
X18822212Y-42528416D01*
X18883964Y-42620836D01*
X18976384Y-42682588D01*
X19085400Y-42704273D01*
X20335400Y-42704273D01*
X20444416Y-42682588D01*
X20536836Y-42620836D01*
X20598588Y-42528416D01*
X20620273Y-42419400D01*
X20620273Y-42325000D01*
X21246427Y-42325000D01*
X21246427Y-42702800D01*
X21268112Y-42811816D01*
X21329864Y-42904236D01*
X21422284Y-42965988D01*
X21531300Y-42987673D01*
X21851889Y-42987673D01*
X21426862Y-43412700D01*
X20629015Y-43412700D01*
X20611288Y-43323584D01*
X20549536Y-43231164D01*
X20457116Y-43169412D01*
X20348100Y-43147727D01*
X19098100Y-43147727D01*
X18989084Y-43169412D01*
X18896664Y-43231164D01*
X18834912Y-43323584D01*
X18813227Y-43432600D01*
X18813227Y-43952934D01*
X18134400Y-44631762D01*
X18134400Y-34975800D01*
X22487184Y-34975800D01*
X22885401Y-35374017D01*
X22885400Y-36814021D01*
X22877936Y-36851545D01*
X22885400Y-36889068D01*
X22907506Y-37000203D01*
X22991714Y-37126231D01*
X23023529Y-37147489D01*
X23622757Y-37746717D01*
X23563887Y-37808215D01*
X23523601Y-37911809D01*
X23526026Y-38022935D01*
X23570792Y-38124673D01*
X24087010Y-38861910D01*
X24167302Y-38938774D01*
X24270896Y-38979059D01*
X24382022Y-38976634D01*
X24483761Y-38931868D01*
X24821788Y-38695179D01*
X24829293Y-38700193D01*
X24968041Y-38727792D01*
X25003061Y-38720826D01*
X25609308Y-38720826D01*
X25653405Y-38764923D01*
X25421730Y-38927144D01*
X25398339Y-39059801D01*
X25791210Y-39620879D01*
X25807593Y-39609407D01*
X25865869Y-39692634D01*
X25849486Y-39704105D01*
X26242357Y-40265183D01*
X26375014Y-40288575D01*
X26829427Y-39970391D01*
X26840886Y-39952405D01*
X26877727Y-39989246D01*
X26877727Y-40255900D01*
X26899412Y-40364916D01*
X26961164Y-40457336D01*
X27053584Y-40519088D01*
X27162600Y-40540773D01*
X28412600Y-40540773D01*
X28521616Y-40519088D01*
X28614036Y-40457336D01*
X28675788Y-40364916D01*
X28697473Y-40255900D01*
X28697473Y-39355900D01*
X28675788Y-39246884D01*
X28614036Y-39154464D01*
X28521616Y-39092712D01*
X28412600Y-39071027D01*
X28143200Y-39071027D01*
X28143200Y-36089506D01*
X28170420Y-36048769D01*
X28194000Y-35930223D01*
X28194000Y-31987950D01*
X39609700Y-31987950D01*
X39609700Y-33027685D01*
X39667704Y-33167719D01*
X39774880Y-33274896D01*
X39914914Y-33332900D01*
X41064650Y-33332900D01*
X41159900Y-33237650D01*
X41159900Y-31892700D01*
X41261500Y-31892700D01*
X41261500Y-33237650D01*
X41356750Y-33332900D01*
X42506486Y-33332900D01*
X42646520Y-33274896D01*
X42753696Y-33167719D01*
X42811700Y-33027685D01*
X42811700Y-31987950D01*
X42716450Y-31892700D01*
X41261500Y-31892700D01*
X41159900Y-31892700D01*
X39704950Y-31892700D01*
X39609700Y-31987950D01*
X28194000Y-31987950D01*
X28194000Y-30656115D01*
X39609700Y-30656115D01*
X39609700Y-31695850D01*
X39704950Y-31791100D01*
X41159900Y-31791100D01*
X41159900Y-30446150D01*
X41064650Y-30350900D01*
X39914914Y-30350900D01*
X39774880Y-30408904D01*
X39667704Y-30516081D01*
X39609700Y-30656115D01*
X28194000Y-30656115D01*
X28194000Y-28805419D01*
X28589023Y-28805419D01*
X28694703Y-29010158D01*
X29201606Y-29222018D01*
X29750999Y-29223768D01*
X30259242Y-29015140D01*
X30266697Y-29010158D01*
X30372377Y-28805419D01*
X36709023Y-28805419D01*
X36814703Y-29010158D01*
X37321606Y-29222018D01*
X37870999Y-29223768D01*
X38379242Y-29015140D01*
X38386697Y-29010158D01*
X38492377Y-28805419D01*
X37600700Y-27913742D01*
X36709023Y-28805419D01*
X30372377Y-28805419D01*
X29480700Y-27913742D01*
X28589023Y-28805419D01*
X28194000Y-28805419D01*
X28194000Y-28344040D01*
X28307460Y-28620442D01*
X28312442Y-28627897D01*
X28517181Y-28733577D01*
X29408858Y-27841900D01*
X29552542Y-27841900D01*
X30444219Y-28733577D01*
X30648958Y-28627897D01*
X30860818Y-28120994D01*
X30860846Y-28112199D01*
X36218832Y-28112199D01*
X36427460Y-28620442D01*
X36432442Y-28627897D01*
X36637181Y-28733577D01*
X37528858Y-27841900D01*
X36637181Y-26950223D01*
X36432442Y-27055903D01*
X36220582Y-27562806D01*
X36218832Y-28112199D01*
X30860846Y-28112199D01*
X30862568Y-27571601D01*
X30653940Y-27063358D01*
X30648958Y-27055903D01*
X30444219Y-26950223D01*
X29552542Y-27841900D01*
X29408858Y-27841900D01*
X28517181Y-26950223D01*
X28312442Y-27055903D01*
X28194000Y-27339291D01*
X28194000Y-26878381D01*
X28589023Y-26878381D01*
X29480700Y-27770058D01*
X30372377Y-26878381D01*
X30266697Y-26673642D01*
X29759794Y-26461782D01*
X29210401Y-26460032D01*
X28702158Y-26668660D01*
X28694703Y-26673642D01*
X28589023Y-26878381D01*
X28194000Y-26878381D01*
X28194000Y-22388177D01*
X28170420Y-22269631D01*
X28080597Y-22135203D01*
X27946169Y-22045380D01*
X27787600Y-22013839D01*
X27629032Y-22045380D01*
X27588295Y-22072600D01*
X27274494Y-22072600D01*
X27203400Y-22001506D01*
X27203400Y-20542204D01*
X29194162Y-22532966D01*
X29194162Y-22532966D01*
G37*
X29194162Y-22532966D02*
X29213998Y-22562653D01*
X29243685Y-22582489D01*
X29243686Y-22582490D01*
X29331623Y-22641247D01*
X29470371Y-22668846D01*
X29505391Y-22661880D01*
X34269268Y-22661880D01*
X38205154Y-26597766D01*
X37879794Y-26461782D01*
X37330401Y-26460032D01*
X36822158Y-26668660D01*
X36814703Y-26673642D01*
X36709023Y-26878381D01*
X37600700Y-27770058D01*
X37614843Y-27755916D01*
X37686685Y-27827758D01*
X37672542Y-27841900D01*
X38564219Y-28733577D01*
X38768958Y-28627897D01*
X38980818Y-28120994D01*
X38982568Y-27571601D01*
X38845796Y-27238409D01*
X41958287Y-30350900D01*
X41356750Y-30350900D01*
X41261500Y-30446150D01*
X41261500Y-31791100D01*
X42716450Y-31791100D01*
X42811700Y-31695850D01*
X42811700Y-31204313D01*
X44872514Y-33265127D01*
X44078000Y-33265127D01*
X43968984Y-33286812D01*
X43876564Y-33348564D01*
X43814812Y-33440984D01*
X43793127Y-33550000D01*
X43793127Y-34980532D01*
X42268475Y-36505185D01*
X42223942Y-36534941D01*
X42194186Y-36579474D01*
X42194185Y-36579475D01*
X42145974Y-36651627D01*
X41808500Y-36651627D01*
X41699484Y-36673312D01*
X41607064Y-36735064D01*
X41545312Y-36827484D01*
X41523627Y-36936500D01*
X41523627Y-39136500D01*
X41545312Y-39245516D01*
X41596002Y-39321381D01*
X40183945Y-40733439D01*
X40112896Y-40780913D01*
X40018777Y-40921773D01*
X39924830Y-41062374D01*
X39858790Y-41394378D01*
X39875461Y-41478188D01*
X39875460Y-43196215D01*
X39685568Y-43480410D01*
X39599815Y-43911520D01*
X39659399Y-44211069D01*
X39659399Y-45355064D01*
X39637754Y-45463881D01*
X39659399Y-45572698D01*
X39659399Y-45572702D01*
X39723506Y-45894990D01*
X39766659Y-45959573D01*
X39854190Y-46090572D01*
X39967711Y-46260469D01*
X39970268Y-46262177D01*
X39960494Y-46311313D01*
X39982139Y-46420130D01*
X39982139Y-46420134D01*
X40043101Y-46726611D01*
X40043100Y-50596335D01*
X39801336Y-50838100D01*
X39096931Y-50838100D01*
X39381608Y-50720183D01*
X39671183Y-50430608D01*
X39827900Y-50052260D01*
X39827900Y-49642740D01*
X39671183Y-49264392D01*
X39381608Y-48974817D01*
X39003260Y-48818100D01*
X38593740Y-48818100D01*
X38215392Y-48974817D01*
X37925817Y-49264392D01*
X37769100Y-49642740D01*
X37769100Y-50052260D01*
X37925817Y-50430608D01*
X38215392Y-50720183D01*
X38500069Y-50838100D01*
X33663018Y-50838100D01*
X33340730Y-50902207D01*
X32975252Y-51146412D01*
X32731047Y-51511890D01*
X32645294Y-51943000D01*
X32731047Y-52374110D01*
X32975252Y-52739588D01*
X33340730Y-52983793D01*
X33663018Y-53047900D01*
X40150183Y-53047900D01*
X40259000Y-53069545D01*
X40367817Y-53047900D01*
X40367822Y-53047900D01*
X40690110Y-52983793D01*
X41055588Y-52739588D01*
X41117230Y-52647334D01*
X41852336Y-51912229D01*
X41944588Y-51850588D01*
X42006229Y-51758336D01*
X42006231Y-51758334D01*
X42132537Y-51569304D01*
X42188793Y-51485110D01*
X42252900Y-51162822D01*
X42252900Y-51162817D01*
X42252943Y-51162600D01*
X42272305Y-51259939D01*
X42356513Y-51385967D01*
X42386965Y-51406315D01*
X42407313Y-51436767D01*
X42533340Y-51520975D01*
X42593513Y-51532944D01*
X42681998Y-51550545D01*
X42719522Y-51543081D01*
X42789768Y-51543081D01*
X42787047Y-51556760D01*
X42787047Y-52806760D01*
X42808732Y-52915776D01*
X42870484Y-53008196D01*
X42962904Y-53069948D01*
X43071920Y-53091633D01*
X43140921Y-53091633D01*
X43140921Y-53475191D01*
X43133456Y-53512720D01*
X43163026Y-53661378D01*
X43201644Y-53719174D01*
X43247235Y-53787406D01*
X43279047Y-53808662D01*
X43411887Y-53941502D01*
X43411887Y-54762560D01*
X43433572Y-54871576D01*
X43495324Y-54963996D01*
X43587744Y-55025748D01*
X43696760Y-55047433D01*
X43765760Y-55047433D01*
X43765760Y-55871604D01*
X43716396Y-55797724D01*
X43623976Y-55735972D01*
X43514960Y-55714287D01*
X41614960Y-55714287D01*
X41505944Y-55735972D01*
X41413524Y-55797724D01*
X41351772Y-55890144D01*
X41330087Y-55999160D01*
X41330087Y-60099160D01*
X41351772Y-60208176D01*
X41413524Y-60300596D01*
X41505944Y-60362348D01*
X41614960Y-60384033D01*
X42674541Y-60384033D01*
X42674540Y-60906267D01*
X42382440Y-60906267D01*
X42273424Y-60927952D01*
X42181004Y-60989704D01*
X42119252Y-61082124D01*
X42097567Y-61191140D01*
X42097567Y-62265560D01*
X41720073Y-62265560D01*
X41720073Y-61821160D01*
X41698388Y-61712144D01*
X41636636Y-61619724D01*
X41544216Y-61557972D01*
X41435200Y-61536287D01*
X39614866Y-61536287D01*
X35433231Y-57354653D01*
X35407017Y-57315421D01*
X35251585Y-57211564D01*
X35114515Y-57184299D01*
X35114511Y-57184299D01*
X35068239Y-57175095D01*
X35021967Y-57184299D01*
X33167496Y-57184299D01*
X33165170Y-57181973D01*
X33632980Y-57181973D01*
X33741996Y-57160288D01*
X33834416Y-57098536D01*
X33896168Y-57006116D01*
X33917853Y-56897100D01*
X33917853Y-55997100D01*
X33896168Y-55888084D01*
X33834416Y-55795664D01*
X33741996Y-55733912D01*
X33632980Y-55712227D01*
X33569195Y-55712227D01*
X33567947Y-55705952D01*
X33489353Y-55588327D01*
X33459660Y-55568487D01*
X33295572Y-55404398D01*
X33275733Y-55374707D01*
X33158108Y-55296113D01*
X33054380Y-55275480D01*
X33019360Y-55268514D01*
X32984340Y-55275480D01*
X32572959Y-55275480D01*
X32572959Y-42543325D01*
X32638284Y-42478000D01*
X36175927Y-42478000D01*
X36175927Y-43478000D01*
X36197612Y-43587016D01*
X36259364Y-43679436D01*
X36351784Y-43741188D01*
X36460800Y-43762873D01*
X36760800Y-43762873D01*
X36869816Y-43741188D01*
X36962236Y-43679436D01*
X37023988Y-43587016D01*
X37045673Y-43478000D01*
X37045673Y-42478000D01*
X37023988Y-42368984D01*
X36962236Y-42276564D01*
X36869816Y-42214812D01*
X36760800Y-42193127D01*
X36460800Y-42193127D01*
X36351784Y-42214812D01*
X36259364Y-42276564D01*
X36197612Y-42368984D01*
X36175927Y-42478000D01*
X32638284Y-42478000D01*
X32939352Y-42176932D01*
X32969043Y-42157094D01*
X33020110Y-42080666D01*
X33047637Y-42039470D01*
X33075236Y-41900722D01*
X33068270Y-41865702D01*
X33068270Y-41501024D01*
X33535109Y-41034186D01*
X33595014Y-41059000D01*
X33674750Y-41059000D01*
X33770000Y-40963750D01*
X33770000Y-40278800D01*
X33755673Y-40278800D01*
X33755673Y-40177200D01*
X33770000Y-40177200D01*
X33770000Y-39492250D01*
X33674750Y-39397000D01*
X33595014Y-39397000D01*
X33454980Y-39455004D01*
X33416857Y-39493127D01*
X33170800Y-39493127D01*
X33070800Y-39513019D01*
X32970800Y-39493127D01*
X32670800Y-39493127D01*
X32570800Y-39513019D01*
X32470800Y-39493127D01*
X32170800Y-39493127D01*
X32070800Y-39513019D01*
X31970800Y-39493127D01*
X31724743Y-39493127D01*
X31686620Y-39455004D01*
X31546586Y-39397000D01*
X31466850Y-39397000D01*
X31371600Y-39492250D01*
X31371600Y-40177200D01*
X31385927Y-40177200D01*
X31385927Y-40278800D01*
X31371600Y-40278800D01*
X31371600Y-40963750D01*
X31466850Y-41059000D01*
X31546586Y-41059000D01*
X31550129Y-41057533D01*
X31564428Y-41078933D01*
X31594115Y-41098769D01*
X31823661Y-41328315D01*
X31823660Y-41532481D01*
X31498701Y-41857441D01*
X31459472Y-41883653D01*
X31433260Y-41922882D01*
X31433258Y-41922884D01*
X31355614Y-42039086D01*
X31319145Y-42222431D01*
X31328350Y-42268708D01*
X31328349Y-44238635D01*
X31328349Y-44767527D01*
X30507799Y-43946979D01*
X30507799Y-43762873D01*
X30680800Y-43762873D01*
X30789816Y-43741188D01*
X30882236Y-43679436D01*
X30943988Y-43587016D01*
X30965673Y-43478000D01*
X30965673Y-42478000D01*
X30943988Y-42368984D01*
X30882236Y-42276564D01*
X30789816Y-42214812D01*
X30680800Y-42193127D01*
X30507799Y-42193127D01*
X30507799Y-40374050D01*
X30789800Y-40374050D01*
X30789800Y-40753785D01*
X30847804Y-40893819D01*
X30954980Y-41000996D01*
X31095014Y-41059000D01*
X31174750Y-41059000D01*
X31270000Y-40963750D01*
X31270000Y-40278800D01*
X30885050Y-40278800D01*
X30789800Y-40374050D01*
X30507799Y-40374050D01*
X30507799Y-39702215D01*
X30789800Y-39702215D01*
X30789800Y-40081950D01*
X30885050Y-40177200D01*
X31270000Y-40177200D01*
X31270000Y-39492250D01*
X31174750Y-39397000D01*
X31095014Y-39397000D01*
X30954980Y-39455004D01*
X30847804Y-39562181D01*
X30789800Y-39702215D01*
X30507799Y-39702215D01*
X30507799Y-37985930D01*
X30543151Y-37933022D01*
X30574100Y-37777431D01*
X30574100Y-37777427D01*
X30584548Y-37724900D01*
X30574100Y-37672373D01*
X30574100Y-37501773D01*
X30600700Y-37501773D01*
X30709716Y-37480088D01*
X30802136Y-37418336D01*
X30863888Y-37325916D01*
X30885573Y-37216900D01*
X30885573Y-33826900D01*
X31695827Y-33826900D01*
X31695827Y-37216900D01*
X31717512Y-37325916D01*
X31779264Y-37418336D01*
X31871684Y-37480088D01*
X31980700Y-37501773D01*
X33100700Y-37501773D01*
X33128703Y-37496203D01*
X33159858Y-37542829D01*
X33189546Y-37562666D01*
X34782146Y-39155266D01*
X34782145Y-39397000D01*
X34769998Y-39397000D01*
X34769998Y-39492248D01*
X34674750Y-39397000D01*
X34595014Y-39397000D01*
X34454980Y-39455004D01*
X34416857Y-39493127D01*
X34224743Y-39493127D01*
X34186620Y-39455004D01*
X34046586Y-39397000D01*
X33966850Y-39397000D01*
X33871600Y-39492250D01*
X33871600Y-40177200D01*
X33885927Y-40177200D01*
X33885927Y-40278800D01*
X33871600Y-40278800D01*
X33871600Y-40963750D01*
X33966850Y-41059000D01*
X34046586Y-41059000D01*
X34110818Y-41032394D01*
X34211708Y-41133284D01*
X34231546Y-41162974D01*
X34326045Y-41226116D01*
X34349171Y-41241568D01*
X34487919Y-41269167D01*
X34522939Y-41262201D01*
X36118661Y-41262201D01*
X36153681Y-41269167D01*
X36188701Y-41262201D01*
X36292429Y-41241568D01*
X36410054Y-41162974D01*
X36429893Y-41133283D01*
X36469321Y-41093855D01*
X36499010Y-41074017D01*
X36577605Y-40956392D01*
X36598238Y-40852664D01*
X36598238Y-40852663D01*
X36605204Y-40817645D01*
X36598238Y-40782626D01*
X36598238Y-39141376D01*
X36605204Y-39106356D01*
X36577605Y-38967609D01*
X36558338Y-38938774D01*
X36499011Y-38849984D01*
X36469321Y-38830146D01*
X35821725Y-38182550D01*
X38887500Y-38182550D01*
X38887500Y-39212286D01*
X38945504Y-39352320D01*
X39052681Y-39459496D01*
X39192715Y-39517500D01*
X39922450Y-39517500D01*
X40017700Y-39422250D01*
X40017700Y-38087300D01*
X40119300Y-38087300D01*
X40119300Y-39422250D01*
X40214550Y-39517500D01*
X40944285Y-39517500D01*
X41084319Y-39459496D01*
X41191496Y-39352320D01*
X41249500Y-39212286D01*
X41249500Y-38182550D01*
X41154250Y-38087300D01*
X40119300Y-38087300D01*
X40017700Y-38087300D01*
X38982750Y-38087300D01*
X38887500Y-38182550D01*
X35821725Y-38182550D01*
X35134270Y-37495095D01*
X35209716Y-37480088D01*
X35302136Y-37418336D01*
X35363888Y-37325916D01*
X35385573Y-37216900D01*
X35385573Y-35667950D01*
X36099700Y-35667950D01*
X36099700Y-37292685D01*
X36157704Y-37432719D01*
X36264880Y-37539896D01*
X36404914Y-37597900D01*
X36894650Y-37597900D01*
X36989900Y-37502650D01*
X36989900Y-35572700D01*
X37091500Y-35572700D01*
X37091500Y-37502650D01*
X37186750Y-37597900D01*
X37676486Y-37597900D01*
X37816520Y-37539896D01*
X37923696Y-37432719D01*
X37981700Y-37292685D01*
X37981700Y-36860714D01*
X38887500Y-36860714D01*
X38887500Y-37890450D01*
X38982750Y-37985700D01*
X40017700Y-37985700D01*
X40017700Y-36650750D01*
X40119300Y-36650750D01*
X40119300Y-37985700D01*
X41154250Y-37985700D01*
X41249500Y-37890450D01*
X41249500Y-36860714D01*
X41191496Y-36720680D01*
X41084319Y-36613504D01*
X40944285Y-36555500D01*
X40214550Y-36555500D01*
X40119300Y-36650750D01*
X40017700Y-36650750D01*
X39922450Y-36555500D01*
X39192715Y-36555500D01*
X39052681Y-36613504D01*
X38945504Y-36720680D01*
X38887500Y-36860714D01*
X37981700Y-36860714D01*
X37981700Y-35667950D01*
X37886450Y-35572700D01*
X37091500Y-35572700D01*
X36989900Y-35572700D01*
X36194950Y-35572700D01*
X36099700Y-35667950D01*
X35385573Y-35667950D01*
X35385573Y-33826900D01*
X35370499Y-33751115D01*
X36099700Y-33751115D01*
X36099700Y-35375850D01*
X36194950Y-35471100D01*
X36989900Y-35471100D01*
X36989900Y-33541150D01*
X37091500Y-33541150D01*
X37091500Y-35471100D01*
X37886450Y-35471100D01*
X37981700Y-35375850D01*
X37981700Y-33751115D01*
X37923696Y-33611081D01*
X37816520Y-33503904D01*
X37676486Y-33445900D01*
X37186750Y-33445900D01*
X37091500Y-33541150D01*
X36989900Y-33541150D01*
X36894650Y-33445900D01*
X36404914Y-33445900D01*
X36264880Y-33503904D01*
X36157704Y-33611081D01*
X36099700Y-33751115D01*
X35370499Y-33751115D01*
X35363888Y-33717884D01*
X35302136Y-33625464D01*
X35209716Y-33563712D01*
X35100700Y-33542027D01*
X33980700Y-33542027D01*
X33871684Y-33563712D01*
X33779264Y-33625464D01*
X33717512Y-33717884D01*
X33695827Y-33826900D01*
X33695827Y-36175816D01*
X33692441Y-36170748D01*
X33692440Y-36170747D01*
X33672604Y-36141060D01*
X33642917Y-36121224D01*
X33385573Y-35863880D01*
X33385573Y-33826900D01*
X33363888Y-33717884D01*
X33302136Y-33625464D01*
X33209716Y-33563712D01*
X33100700Y-33542027D01*
X31980700Y-33542027D01*
X31871684Y-33563712D01*
X31779264Y-33625464D01*
X31717512Y-33717884D01*
X31695827Y-33826900D01*
X30885573Y-33826900D01*
X30863888Y-33717884D01*
X30802136Y-33625464D01*
X30709716Y-33563712D01*
X30600700Y-33542027D01*
X29480700Y-33542027D01*
X29371684Y-33563712D01*
X29279264Y-33625464D01*
X29217512Y-33717884D01*
X29195827Y-33826900D01*
X29195827Y-37216900D01*
X29217512Y-37325916D01*
X29279264Y-37418336D01*
X29371684Y-37480088D01*
X29480700Y-37501773D01*
X29507300Y-37501773D01*
X29507300Y-37530172D01*
X29471949Y-37583079D01*
X29430551Y-37791201D01*
X29441000Y-37843732D01*
X29440999Y-44115393D01*
X29430551Y-44167919D01*
X29440999Y-44220445D01*
X29440999Y-44220449D01*
X29471948Y-44376040D01*
X29589840Y-44552478D01*
X29634376Y-44582236D01*
X30637802Y-45585664D01*
X30637801Y-53478101D01*
X30433003Y-53682900D01*
X29347712Y-53682900D01*
X29301440Y-53673696D01*
X29255168Y-53682900D01*
X29255164Y-53682900D01*
X29118094Y-53710165D01*
X28962662Y-53814022D01*
X28936449Y-53853252D01*
X27490812Y-55298890D01*
X27451583Y-55325102D01*
X27425371Y-55364331D01*
X27425369Y-55364333D01*
X27347725Y-55480535D01*
X27333369Y-55552708D01*
X27320460Y-55617604D01*
X27320460Y-55617608D01*
X27311256Y-55663880D01*
X27320460Y-55710152D01*
X27320460Y-55752484D01*
X27287910Y-55801198D01*
X27261018Y-55936394D01*
X27223880Y-55929007D01*
X25973880Y-55929007D01*
X25864864Y-55950692D01*
X25772444Y-56012444D01*
X25710692Y-56104864D01*
X25689007Y-56213880D01*
X25689007Y-57113880D01*
X25710692Y-57222896D01*
X25772444Y-57315316D01*
X25864864Y-57377068D01*
X25973880Y-57398753D01*
X26669215Y-57398753D01*
X27276479Y-58006018D01*
X27283407Y-58040848D01*
X27223880Y-58029007D01*
X25973880Y-58029007D01*
X25864864Y-58050692D01*
X25772444Y-58112444D01*
X25710692Y-58204864D01*
X25689007Y-58313880D01*
X25689007Y-59213880D01*
X25710692Y-59322896D01*
X25772444Y-59415316D01*
X25864864Y-59477068D01*
X25973880Y-59498753D01*
X27223880Y-59498753D01*
X27332896Y-59477068D01*
X27425316Y-59415316D01*
X27487068Y-59322896D01*
X27508753Y-59213880D01*
X27508753Y-59119480D01*
X29718580Y-59119480D01*
X29753600Y-59126446D01*
X29788620Y-59119480D01*
X29892348Y-59098847D01*
X30009973Y-59020253D01*
X30029811Y-58990563D01*
X30335919Y-58684456D01*
X30355748Y-58714133D01*
X30385435Y-58733969D01*
X31067065Y-59415600D01*
X30572330Y-59415600D01*
X30477080Y-59510850D01*
X30477080Y-60507800D01*
X31664530Y-60507800D01*
X31759780Y-60412550D01*
X31759780Y-59935399D01*
X31767619Y-59933840D01*
X32063180Y-59933840D01*
X32063180Y-60323650D01*
X32158430Y-60418900D01*
X32843380Y-60418900D01*
X32843380Y-60398900D01*
X32944980Y-60398900D01*
X32944980Y-60418900D01*
X33629930Y-60418900D01*
X33725180Y-60323650D01*
X33725180Y-59933840D01*
X34259307Y-59933840D01*
X34259307Y-61094700D01*
X34280992Y-61203716D01*
X34342744Y-61296136D01*
X34435164Y-61357888D01*
X34544180Y-61379573D01*
X34638581Y-61379573D01*
X34638581Y-61456070D01*
X33400241Y-62694411D01*
X33324330Y-62618500D01*
X32639380Y-62618500D01*
X32639380Y-62638500D01*
X32537780Y-62638500D01*
X32537780Y-62618500D01*
X31852830Y-62618500D01*
X31757580Y-62713750D01*
X31757580Y-63043486D01*
X31815584Y-63183520D01*
X31922761Y-63290696D01*
X32062795Y-63348700D01*
X32331736Y-63348700D01*
X32381371Y-63422985D01*
X32394780Y-63436394D01*
X32394780Y-63451119D01*
X32415413Y-63554847D01*
X32494007Y-63672472D01*
X32611632Y-63751067D01*
X32750380Y-63778666D01*
X32835381Y-63761758D01*
X32835381Y-63768005D01*
X32820559Y-63782827D01*
X32138580Y-63782827D01*
X32029564Y-63804512D01*
X32002643Y-63822500D01*
X31663653Y-63822500D01*
X31663653Y-63352600D01*
X31641968Y-63243584D01*
X31580216Y-63151164D01*
X31487796Y-63089412D01*
X31378780Y-63067727D01*
X29473780Y-63067727D01*
X29364764Y-63089412D01*
X29272344Y-63151164D01*
X29210592Y-63243584D01*
X29188907Y-63352600D01*
X29188907Y-63759000D01*
X28831553Y-63759000D01*
X28831553Y-63390700D01*
X28809868Y-63281684D01*
X28748116Y-63189264D01*
X28655696Y-63127512D01*
X28546680Y-63105827D01*
X26641680Y-63105827D01*
X26532664Y-63127512D01*
X26463869Y-63173479D01*
X26463869Y-62111246D01*
X26483201Y-62091914D01*
X31757580Y-62091914D01*
X31757580Y-62421650D01*
X31852830Y-62516900D01*
X32537780Y-62516900D01*
X32537780Y-61881950D01*
X32639380Y-61881950D01*
X32639380Y-62516900D01*
X33324330Y-62516900D01*
X33419580Y-62421650D01*
X33419580Y-62091914D01*
X33361576Y-61951880D01*
X33254399Y-61844704D01*
X33114365Y-61786700D01*
X32734630Y-61786700D01*
X32639380Y-61881950D01*
X32537780Y-61881950D01*
X32442530Y-61786700D01*
X32062795Y-61786700D01*
X31922761Y-61844704D01*
X31815584Y-61951880D01*
X31757580Y-62091914D01*
X26483201Y-62091914D01*
X26931542Y-61643573D01*
X28546680Y-61643573D01*
X28655696Y-61621888D01*
X28748116Y-61560136D01*
X28809868Y-61467716D01*
X28831553Y-61358700D01*
X28831553Y-60704650D01*
X29092780Y-60704650D01*
X29092780Y-61396385D01*
X29150784Y-61536419D01*
X29257960Y-61643596D01*
X29397994Y-61701600D01*
X30280230Y-61701600D01*
X30375480Y-61606350D01*
X30375480Y-60609400D01*
X30477080Y-60609400D01*
X30477080Y-61606350D01*
X30572330Y-61701600D01*
X31454566Y-61701600D01*
X31594600Y-61643596D01*
X31701776Y-61536419D01*
X31759780Y-61396385D01*
X31759780Y-60704650D01*
X31670880Y-60615750D01*
X32063180Y-60615750D01*
X32063180Y-61170486D01*
X32121184Y-61310520D01*
X32228361Y-61417696D01*
X32368395Y-61475700D01*
X32748130Y-61475700D01*
X32843380Y-61380450D01*
X32843380Y-60520500D01*
X32944980Y-60520500D01*
X32944980Y-61380450D01*
X33040230Y-61475700D01*
X33419965Y-61475700D01*
X33559999Y-61417696D01*
X33667176Y-61310520D01*
X33725180Y-61170486D01*
X33725180Y-60615750D01*
X33629930Y-60520500D01*
X32944980Y-60520500D01*
X32843380Y-60520500D01*
X32158430Y-60520500D01*
X32063180Y-60615750D01*
X31670880Y-60615750D01*
X31664530Y-60609400D01*
X30477080Y-60609400D01*
X30375480Y-60609400D01*
X29188030Y-60609400D01*
X29092780Y-60704650D01*
X28831553Y-60704650D01*
X28831553Y-59834700D01*
X28809868Y-59725684D01*
X28806615Y-59720815D01*
X29092780Y-59720815D01*
X29092780Y-60412550D01*
X29188030Y-60507800D01*
X30375480Y-60507800D01*
X30375480Y-59510850D01*
X30280230Y-59415600D01*
X29397994Y-59415600D01*
X29257960Y-59473604D01*
X29150784Y-59580781D01*
X29092780Y-59720815D01*
X28806615Y-59720815D01*
X28748116Y-59633264D01*
X28655696Y-59571512D01*
X28546680Y-59549827D01*
X26641680Y-59549827D01*
X26532664Y-59571512D01*
X26440244Y-59633264D01*
X26378492Y-59725684D01*
X26356807Y-59834700D01*
X26356807Y-60063300D01*
X26354621Y-60063300D01*
X23139400Y-56848080D01*
X23139400Y-55923573D01*
X23368000Y-55923573D01*
X23477016Y-55901888D01*
X23569436Y-55840136D01*
X23631188Y-55747716D01*
X23652873Y-55638700D01*
X23652873Y-55346600D01*
X24537398Y-55346600D01*
X24602440Y-55359538D01*
X24667482Y-55346600D01*
X24667483Y-55346600D01*
X24860115Y-55308283D01*
X25078562Y-55162322D01*
X25115409Y-55107176D01*
X25914686Y-54307901D01*
X25958947Y-54307901D01*
X26011473Y-54318349D01*
X26063999Y-54307901D01*
X26064004Y-54307901D01*
X26219595Y-54276952D01*
X26396032Y-54159060D01*
X26425790Y-54114524D01*
X26438314Y-54102000D01*
X27875691Y-54102000D01*
X28031282Y-54071051D01*
X28207719Y-53953159D01*
X28325611Y-53776722D01*
X28330388Y-53752706D01*
X28357124Y-53734842D01*
X28393971Y-53679696D01*
X29226107Y-52847561D01*
X29226108Y-52847559D01*
X29414394Y-52659274D01*
X29567697Y-52595774D01*
X29771334Y-52392137D01*
X29881541Y-52126074D01*
X29881541Y-51838088D01*
X29771334Y-51572025D01*
X29567697Y-51368388D01*
X29301634Y-51258181D01*
X29013648Y-51258181D01*
X28747585Y-51368388D01*
X28543948Y-51572025D01*
X28480448Y-51725328D01*
X28292163Y-51913614D01*
X28292161Y-51913615D01*
X27570047Y-52635730D01*
X27565485Y-52636637D01*
X27347038Y-52782598D01*
X27201077Y-53001045D01*
X27194283Y-53035200D01*
X26269900Y-53035200D01*
X26217374Y-53024752D01*
X26164848Y-53035200D01*
X26164843Y-53035200D01*
X26009252Y-53066149D01*
X25832815Y-53184041D01*
X25828594Y-53190358D01*
X25771814Y-53152419D01*
X25662245Y-53130624D01*
X25664000Y-53126386D01*
X25664000Y-52571650D01*
X25568750Y-52476400D01*
X24883800Y-52476400D01*
X24883800Y-53336350D01*
X24951072Y-53403622D01*
X24328895Y-54025800D01*
X23652873Y-54025800D01*
X23652873Y-53733700D01*
X23631188Y-53624684D01*
X23569436Y-53532264D01*
X23477016Y-53470512D01*
X23368000Y-53448827D01*
X22313467Y-53448827D01*
X22179532Y-53314892D01*
X22283000Y-53335473D01*
X23183000Y-53335473D01*
X23292016Y-53313788D01*
X23384436Y-53252036D01*
X23446188Y-53159616D01*
X23467873Y-53050600D01*
X23467873Y-52571650D01*
X24002000Y-52571650D01*
X24002000Y-53126386D01*
X24060004Y-53266420D01*
X24167181Y-53373596D01*
X24307215Y-53431600D01*
X24686950Y-53431600D01*
X24782200Y-53336350D01*
X24782200Y-52476400D01*
X24097250Y-52476400D01*
X24002000Y-52571650D01*
X23467873Y-52571650D01*
X23467873Y-51800600D01*
X23452798Y-51724814D01*
X24002000Y-51724814D01*
X24002000Y-52279550D01*
X24097250Y-52374800D01*
X24782200Y-52374800D01*
X24782200Y-51514850D01*
X24883800Y-51514850D01*
X24883800Y-52374800D01*
X25568750Y-52374800D01*
X25664000Y-52279550D01*
X25664000Y-52153016D01*
X25676780Y-52165796D01*
X25816814Y-52223800D01*
X26371550Y-52223800D01*
X26466800Y-52128550D01*
X26466800Y-51443600D01*
X26568400Y-51443600D01*
X26568400Y-52128550D01*
X26663650Y-52223800D01*
X27218386Y-52223800D01*
X27358420Y-52165796D01*
X27465596Y-52058619D01*
X27523600Y-51918585D01*
X27523600Y-51538850D01*
X27428350Y-51443600D01*
X26568400Y-51443600D01*
X26466800Y-51443600D01*
X25606850Y-51443600D01*
X25535833Y-51514617D01*
X25498819Y-51477604D01*
X25358785Y-51419600D01*
X24979050Y-51419600D01*
X24883800Y-51514850D01*
X24782200Y-51514850D01*
X24686950Y-51419600D01*
X24307215Y-51419600D01*
X24167181Y-51477604D01*
X24060004Y-51584780D01*
X24002000Y-51724814D01*
X23452798Y-51724814D01*
X23446188Y-51691584D01*
X23384436Y-51599164D01*
X23324786Y-51559308D01*
X23528086Y-51356008D01*
X23557773Y-51336172D01*
X23636368Y-51218547D01*
X23657001Y-51114819D01*
X23657001Y-51114815D01*
X23663966Y-51079800D01*
X23657001Y-51044785D01*
X23657001Y-49615416D01*
X23987927Y-49946342D01*
X23987927Y-50942400D01*
X24009612Y-51051416D01*
X24071364Y-51143836D01*
X24163784Y-51205588D01*
X24272800Y-51227273D01*
X25172800Y-51227273D01*
X25281816Y-51205588D01*
X25374236Y-51143836D01*
X25435988Y-51051416D01*
X25457673Y-50942400D01*
X25457673Y-50867015D01*
X25511600Y-50867015D01*
X25511600Y-51246750D01*
X25606850Y-51342000D01*
X26466800Y-51342000D01*
X26466800Y-50657050D01*
X26568400Y-50657050D01*
X26568400Y-51342000D01*
X27428350Y-51342000D01*
X27523600Y-51246750D01*
X27523600Y-50867015D01*
X27465596Y-50726981D01*
X27358420Y-50619804D01*
X27218386Y-50561800D01*
X26663650Y-50561800D01*
X26568400Y-50657050D01*
X26466800Y-50657050D01*
X26371550Y-50561800D01*
X25816814Y-50561800D01*
X25676780Y-50619804D01*
X25569604Y-50726981D01*
X25511600Y-50867015D01*
X25457673Y-50867015D01*
X25457673Y-49692400D01*
X25435988Y-49583384D01*
X25374236Y-49490964D01*
X25281816Y-49429212D01*
X25172800Y-49407527D01*
X24526742Y-49407527D01*
X23489370Y-48370155D01*
X23510316Y-48365988D01*
X23602736Y-48304236D01*
X23664488Y-48211816D01*
X23686173Y-48102800D01*
X23686173Y-46552800D01*
X23786427Y-46552800D01*
X23786427Y-48102800D01*
X23808112Y-48211816D01*
X23869864Y-48304236D01*
X23962284Y-48365988D01*
X24071300Y-48387673D01*
X24671300Y-48387673D01*
X24780316Y-48365988D01*
X24872736Y-48304236D01*
X24934488Y-48211816D01*
X24956173Y-48102800D01*
X24956173Y-46770821D01*
X25056427Y-46670567D01*
X25056427Y-48102800D01*
X25078112Y-48211816D01*
X25139864Y-48304236D01*
X25232284Y-48365988D01*
X25341300Y-48387673D01*
X25941300Y-48387673D01*
X26050316Y-48365988D01*
X26111201Y-48325307D01*
X26111201Y-48557927D01*
X25892600Y-48557927D01*
X25783584Y-48579612D01*
X25691164Y-48641364D01*
X25629412Y-48733784D01*
X25607727Y-48842800D01*
X25607727Y-49742800D01*
X25629412Y-49851816D01*
X25691164Y-49944236D01*
X25783584Y-50005988D01*
X25892600Y-50027673D01*
X27142600Y-50027673D01*
X27251616Y-50005988D01*
X27344036Y-49944236D01*
X27405788Y-49851816D01*
X27427473Y-49742800D01*
X27427473Y-49499240D01*
X27985400Y-49499240D01*
X27985400Y-49908760D01*
X28142117Y-50287108D01*
X28431692Y-50576683D01*
X28810040Y-50733400D01*
X29219560Y-50733400D01*
X29597908Y-50576683D01*
X29887483Y-50287108D01*
X30044200Y-49908760D01*
X30044200Y-49499240D01*
X29887483Y-49120892D01*
X29597908Y-48831317D01*
X29219560Y-48674600D01*
X28810040Y-48674600D01*
X28431692Y-48831317D01*
X28142117Y-49120892D01*
X27985400Y-49499240D01*
X27427473Y-49499240D01*
X27427473Y-48842800D01*
X27405788Y-48733784D01*
X27344036Y-48641364D01*
X27251616Y-48579612D01*
X27142600Y-48557927D01*
X26924000Y-48557927D01*
X26924000Y-48199735D01*
X27964437Y-47159299D01*
X28655824Y-47159299D01*
X28774370Y-47135719D01*
X28908798Y-47045896D01*
X28998621Y-46911468D01*
X29030162Y-46752899D01*
X28998621Y-46594330D01*
X28971401Y-46553593D01*
X28971401Y-42594121D01*
X28978367Y-42559101D01*
X28950768Y-42420353D01*
X28892011Y-42332416D01*
X28892008Y-42332413D01*
X28872173Y-42302728D01*
X28842489Y-42282894D01*
X28697473Y-42137878D01*
X28697473Y-41455900D01*
X28675788Y-41346884D01*
X28614036Y-41254464D01*
X28521616Y-41192712D01*
X28412600Y-41171027D01*
X27162600Y-41171027D01*
X27053584Y-41192712D01*
X26961164Y-41254464D01*
X26899412Y-41346884D01*
X26877727Y-41455900D01*
X26877727Y-42355900D01*
X26899412Y-42464916D01*
X26961164Y-42557336D01*
X27053584Y-42619088D01*
X27162600Y-42640773D01*
X28194578Y-42640773D01*
X28260201Y-42706396D01*
X28260201Y-42772200D01*
X27908250Y-42772200D01*
X27813000Y-42867450D01*
X27813000Y-43552400D01*
X27833000Y-43552400D01*
X27833000Y-43654000D01*
X27813000Y-43654000D01*
X27813000Y-44338950D01*
X27908250Y-44434200D01*
X28260201Y-44434200D01*
X28260202Y-44968327D01*
X27137200Y-44968327D01*
X27028184Y-44990012D01*
X26935764Y-45051764D01*
X26874012Y-45144184D01*
X26852327Y-45253200D01*
X26852327Y-45347600D01*
X25555920Y-45347600D01*
X25520900Y-45340634D01*
X25485880Y-45347600D01*
X25382152Y-45368233D01*
X25292300Y-45428270D01*
X25292300Y-45361350D01*
X25197050Y-45266100D01*
X24374600Y-45266100D01*
X24374600Y-46088550D01*
X24469850Y-46183800D01*
X24537406Y-46183800D01*
X24453279Y-46267927D01*
X24071300Y-46267927D01*
X23962284Y-46289612D01*
X23869864Y-46351364D01*
X23808112Y-46443784D01*
X23786427Y-46552800D01*
X23686173Y-46552800D01*
X23664488Y-46443784D01*
X23602736Y-46351364D01*
X23510316Y-46289612D01*
X23401300Y-46267927D01*
X22801300Y-46267927D01*
X22692284Y-46289612D01*
X22599864Y-46351364D01*
X22538112Y-46443784D01*
X22516427Y-46552800D01*
X22516427Y-47985033D01*
X22416173Y-47884779D01*
X22416173Y-46552800D01*
X22394488Y-46443784D01*
X22332736Y-46351364D01*
X22240316Y-46289612D01*
X22131300Y-46267927D01*
X21531300Y-46267927D01*
X21422284Y-46289612D01*
X21329864Y-46351364D01*
X21268112Y-46443784D01*
X21246427Y-46552800D01*
X21246427Y-48102800D01*
X21268112Y-48211816D01*
X21329864Y-48304236D01*
X21422284Y-48365988D01*
X21531300Y-48387673D01*
X21913279Y-48387673D01*
X22933132Y-49407527D01*
X22172800Y-49407527D01*
X22063784Y-49429212D01*
X21971364Y-49490964D01*
X21909612Y-49583384D01*
X21887927Y-49692400D01*
X21887927Y-50724378D01*
X21109315Y-51502991D01*
X21079628Y-51522827D01*
X21062344Y-51548694D01*
X20999450Y-51485800D01*
X19812000Y-51485800D01*
X19812000Y-52482750D01*
X19907250Y-52578000D01*
X20789486Y-52578000D01*
X20929520Y-52519996D01*
X20980401Y-52469115D01*
X20980400Y-52692300D01*
X19326819Y-52692300D01*
X19212519Y-52578000D01*
X19615150Y-52578000D01*
X19710400Y-52482750D01*
X19710400Y-51485800D01*
X19690400Y-51485800D01*
X19690400Y-51384200D01*
X19710400Y-51384200D01*
X19710400Y-50387250D01*
X19812000Y-50387250D01*
X19812000Y-51384200D01*
X20999450Y-51384200D01*
X21094700Y-51288950D01*
X21094700Y-50597215D01*
X21036696Y-50457181D01*
X20929520Y-50350004D01*
X20789486Y-50292000D01*
X19907250Y-50292000D01*
X19812000Y-50387250D01*
X19710400Y-50387250D01*
X19615150Y-50292000D01*
X18935699Y-50292000D01*
X18935699Y-49268341D01*
X19278168Y-48925873D01*
X20713700Y-48925873D01*
X20822716Y-48904188D01*
X20915136Y-48842436D01*
X20976888Y-48750016D01*
X20998573Y-48641000D01*
X20998573Y-47117000D01*
X20976888Y-47007984D01*
X20915136Y-46915564D01*
X20822716Y-46853812D01*
X20713700Y-46832127D01*
X19188365Y-46832127D01*
X19169838Y-46813600D01*
X19577050Y-46813600D01*
X19672300Y-46718350D01*
X19672300Y-46033400D01*
X19773900Y-46033400D01*
X19773900Y-46718350D01*
X19869150Y-46813600D01*
X20423886Y-46813600D01*
X20563920Y-46755596D01*
X20671096Y-46648419D01*
X20729100Y-46508385D01*
X20729100Y-46128650D01*
X20633850Y-46033400D01*
X19773900Y-46033400D01*
X19672300Y-46033400D01*
X19652300Y-46033400D01*
X19652300Y-45931800D01*
X19672300Y-45931800D01*
X19672300Y-45246850D01*
X19773900Y-45246850D01*
X19773900Y-45931800D01*
X20633850Y-45931800D01*
X20729100Y-45836550D01*
X20729100Y-45456815D01*
X20689558Y-45361350D01*
X22180300Y-45361350D01*
X22180300Y-45878586D01*
X22238304Y-46018620D01*
X22345481Y-46125796D01*
X22485515Y-46183800D01*
X23002750Y-46183800D01*
X23098000Y-46088550D01*
X23098000Y-45266100D01*
X23199600Y-45266100D01*
X23199600Y-46088550D01*
X23294850Y-46183800D01*
X24177750Y-46183800D01*
X24273000Y-46088550D01*
X24273000Y-45266100D01*
X23199600Y-45266100D01*
X23098000Y-45266100D01*
X22275550Y-45266100D01*
X22180300Y-45361350D01*
X20689558Y-45361350D01*
X20671096Y-45316781D01*
X20563920Y-45209604D01*
X20423886Y-45151600D01*
X19869150Y-45151600D01*
X19773900Y-45246850D01*
X19672300Y-45246850D01*
X19577050Y-45151600D01*
X19022314Y-45151600D01*
X18897600Y-45203258D01*
X18897600Y-45197638D01*
X19477766Y-44617473D01*
X20348100Y-44617473D01*
X20457116Y-44595788D01*
X20549536Y-44534036D01*
X20611288Y-44441616D01*
X20629015Y-44352500D01*
X21575228Y-44352500D01*
X21621500Y-44361704D01*
X21667772Y-44352500D01*
X21667776Y-44352500D01*
X21804846Y-44325235D01*
X21960278Y-44221378D01*
X21983682Y-44186350D01*
X22180300Y-44186350D01*
X22180300Y-45069250D01*
X22275550Y-45164500D01*
X23098000Y-45164500D01*
X23098000Y-44091100D01*
X23199600Y-44091100D01*
X23199600Y-45164500D01*
X24273000Y-45164500D01*
X24273000Y-44091100D01*
X24374600Y-44091100D01*
X24374600Y-45164500D01*
X25197050Y-45164500D01*
X25292300Y-45069250D01*
X25292300Y-44186350D01*
X25197050Y-44091100D01*
X24374600Y-44091100D01*
X24273000Y-44091100D01*
X23199600Y-44091100D01*
X23098000Y-44091100D01*
X22275550Y-44091100D01*
X22180300Y-44186350D01*
X21983682Y-44186350D01*
X21986492Y-44182146D01*
X22227344Y-43941294D01*
X22275550Y-43989500D01*
X23098000Y-43989500D01*
X23098000Y-43167050D01*
X23199600Y-43167050D01*
X23199600Y-43989500D01*
X24273000Y-43989500D01*
X24273000Y-43167050D01*
X24374600Y-43167050D01*
X24374600Y-43989500D01*
X25197050Y-43989500D01*
X25292300Y-43894250D01*
X25292300Y-43749250D01*
X26756200Y-43749250D01*
X26756200Y-44128985D01*
X26814204Y-44269019D01*
X26921380Y-44376196D01*
X27061414Y-44434200D01*
X27616150Y-44434200D01*
X27711400Y-44338950D01*
X27711400Y-43654000D01*
X26851450Y-43654000D01*
X26756200Y-43749250D01*
X25292300Y-43749250D01*
X25292300Y-43377014D01*
X25234296Y-43236980D01*
X25127119Y-43129804D01*
X24987085Y-43071800D01*
X24469850Y-43071800D01*
X24374600Y-43167050D01*
X24273000Y-43167050D01*
X24177750Y-43071800D01*
X23294850Y-43071800D01*
X23199600Y-43167050D01*
X23098000Y-43167050D01*
X23049794Y-43118844D01*
X23180966Y-42987673D01*
X23401300Y-42987673D01*
X23510316Y-42965988D01*
X23602736Y-42904236D01*
X23664488Y-42811816D01*
X23686173Y-42702800D01*
X23686173Y-41270567D01*
X23786427Y-41370821D01*
X23786427Y-42702800D01*
X23808112Y-42811816D01*
X23869864Y-42904236D01*
X23962284Y-42965988D01*
X24071300Y-42987673D01*
X24671300Y-42987673D01*
X24780316Y-42965988D01*
X24872736Y-42904236D01*
X24934488Y-42811816D01*
X24956173Y-42702800D01*
X24956173Y-42073850D01*
X24960300Y-42073850D01*
X24960300Y-42778586D01*
X25018304Y-42918620D01*
X25125481Y-43025796D01*
X25265515Y-43083800D01*
X25495250Y-43083800D01*
X25590500Y-42988550D01*
X25590500Y-41978600D01*
X25692100Y-41978600D01*
X25692100Y-42988550D01*
X25787350Y-43083800D01*
X26017085Y-43083800D01*
X26032499Y-43077415D01*
X26756200Y-43077415D01*
X26756200Y-43457150D01*
X26851450Y-43552400D01*
X27711400Y-43552400D01*
X27711400Y-42867450D01*
X27616150Y-42772200D01*
X27061414Y-42772200D01*
X26921380Y-42830204D01*
X26814204Y-42937381D01*
X26756200Y-43077415D01*
X26032499Y-43077415D01*
X26157119Y-43025796D01*
X26264296Y-42918620D01*
X26322300Y-42778586D01*
X26322300Y-42073850D01*
X26227050Y-41978600D01*
X25692100Y-41978600D01*
X25590500Y-41978600D01*
X25055550Y-41978600D01*
X24960300Y-42073850D01*
X24956173Y-42073850D01*
X24956173Y-41152800D01*
X24941098Y-41077014D01*
X24960300Y-41077014D01*
X24960300Y-41781750D01*
X25055550Y-41877000D01*
X25590500Y-41877000D01*
X25590500Y-41857000D01*
X25692100Y-41857000D01*
X25692100Y-41877000D01*
X26227050Y-41877000D01*
X26322300Y-41781750D01*
X26322300Y-41077014D01*
X26264296Y-40936980D01*
X26157119Y-40829804D01*
X26017085Y-40771800D01*
X25787350Y-40771800D01*
X25692102Y-40867048D01*
X25692102Y-40771800D01*
X25684897Y-40771800D01*
X26135740Y-40456116D01*
X26159131Y-40323459D01*
X25766260Y-39762381D01*
X25061830Y-40255628D01*
X25038439Y-40388285D01*
X25169308Y-40575186D01*
X25256246Y-40699346D01*
X25369976Y-40771800D01*
X25265515Y-40771800D01*
X25125481Y-40829804D01*
X25018304Y-40936980D01*
X24960300Y-41077014D01*
X24941098Y-41077014D01*
X24934488Y-41043784D01*
X24872736Y-40951364D01*
X24841200Y-40930293D01*
X24841200Y-40818072D01*
X24850404Y-40771800D01*
X24841200Y-40725528D01*
X24841200Y-40725524D01*
X24813935Y-40588454D01*
X24710078Y-40433022D01*
X24701451Y-40427258D01*
X24709638Y-40386100D01*
X24658383Y-40128424D01*
X24587242Y-40021955D01*
X24512422Y-39909978D01*
X24457278Y-39873132D01*
X24274117Y-39689971D01*
X24620284Y-39689971D01*
X24653090Y-39837950D01*
X24740028Y-39962110D01*
X24870897Y-40149011D01*
X25003555Y-40172402D01*
X25707984Y-39679155D01*
X25315113Y-39118077D01*
X25182456Y-39094685D01*
X24728043Y-39412869D01*
X24646603Y-39540703D01*
X24620284Y-39689971D01*
X24274117Y-39689971D01*
X22832673Y-38248528D01*
X22832673Y-36997600D01*
X22810988Y-36888584D01*
X22749236Y-36796164D01*
X22656816Y-36734412D01*
X22547800Y-36712727D01*
X18447800Y-36712727D01*
X18338784Y-36734412D01*
X18246364Y-36796164D01*
X18184612Y-36888584D01*
X18162927Y-36997600D01*
X18162927Y-38897600D01*
X18184612Y-39006616D01*
X18246364Y-39099036D01*
X18338784Y-39160788D01*
X18447800Y-39182473D01*
X18937081Y-39182473D01*
X18883964Y-39217964D01*
X18822212Y-39310384D01*
X18800527Y-39419400D01*
X18800527Y-40319400D01*
X18822212Y-40428416D01*
X18883964Y-40520836D01*
X18976384Y-40582588D01*
X19085400Y-40604273D01*
X19354800Y-40604273D01*
X19354800Y-40630380D01*
X19347834Y-40665400D01*
X19375433Y-40804147D01*
X19432539Y-40889612D01*
X19454027Y-40921772D01*
X19483715Y-40941609D01*
X19662789Y-41120683D01*
X19682627Y-41150373D01*
X19800252Y-41228967D01*
X19828204Y-41234527D01*
X19085400Y-41234527D01*
X18976384Y-41256212D01*
X18883964Y-41317964D01*
X18822212Y-41410384D01*
X18800527Y-41519400D01*
X18800527Y-42419400D01*
X18822212Y-42528416D01*
X18883964Y-42620836D01*
X18976384Y-42682588D01*
X19085400Y-42704273D01*
X20335400Y-42704273D01*
X20444416Y-42682588D01*
X20536836Y-42620836D01*
X20598588Y-42528416D01*
X20620273Y-42419400D01*
X20620273Y-42325000D01*
X21246427Y-42325000D01*
X21246427Y-42702800D01*
X21268112Y-42811816D01*
X21329864Y-42904236D01*
X21422284Y-42965988D01*
X21531300Y-42987673D01*
X21851889Y-42987673D01*
X21426862Y-43412700D01*
X20629015Y-43412700D01*
X20611288Y-43323584D01*
X20549536Y-43231164D01*
X20457116Y-43169412D01*
X20348100Y-43147727D01*
X19098100Y-43147727D01*
X18989084Y-43169412D01*
X18896664Y-43231164D01*
X18834912Y-43323584D01*
X18813227Y-43432600D01*
X18813227Y-43952934D01*
X18134400Y-44631762D01*
X18134400Y-34975800D01*
X22487184Y-34975800D01*
X22885401Y-35374017D01*
X22885400Y-36814021D01*
X22877936Y-36851545D01*
X22885400Y-36889068D01*
X22907506Y-37000203D01*
X22991714Y-37126231D01*
X23023529Y-37147489D01*
X23622757Y-37746717D01*
X23563887Y-37808215D01*
X23523601Y-37911809D01*
X23526026Y-38022935D01*
X23570792Y-38124673D01*
X24087010Y-38861910D01*
X24167302Y-38938774D01*
X24270896Y-38979059D01*
X24382022Y-38976634D01*
X24483761Y-38931868D01*
X24821788Y-38695179D01*
X24829293Y-38700193D01*
X24968041Y-38727792D01*
X25003061Y-38720826D01*
X25609308Y-38720826D01*
X25653405Y-38764923D01*
X25421730Y-38927144D01*
X25398339Y-39059801D01*
X25791210Y-39620879D01*
X25807593Y-39609407D01*
X25865869Y-39692634D01*
X25849486Y-39704105D01*
X26242357Y-40265183D01*
X26375014Y-40288575D01*
X26829427Y-39970391D01*
X26840886Y-39952405D01*
X26877727Y-39989246D01*
X26877727Y-40255900D01*
X26899412Y-40364916D01*
X26961164Y-40457336D01*
X27053584Y-40519088D01*
X27162600Y-40540773D01*
X28412600Y-40540773D01*
X28521616Y-40519088D01*
X28614036Y-40457336D01*
X28675788Y-40364916D01*
X28697473Y-40255900D01*
X28697473Y-39355900D01*
X28675788Y-39246884D01*
X28614036Y-39154464D01*
X28521616Y-39092712D01*
X28412600Y-39071027D01*
X28143200Y-39071027D01*
X28143200Y-36089506D01*
X28170420Y-36048769D01*
X28194000Y-35930223D01*
X28194000Y-31987950D01*
X39609700Y-31987950D01*
X39609700Y-33027685D01*
X39667704Y-33167719D01*
X39774880Y-33274896D01*
X39914914Y-33332900D01*
X41064650Y-33332900D01*
X41159900Y-33237650D01*
X41159900Y-31892700D01*
X41261500Y-31892700D01*
X41261500Y-33237650D01*
X41356750Y-33332900D01*
X42506486Y-33332900D01*
X42646520Y-33274896D01*
X42753696Y-33167719D01*
X42811700Y-33027685D01*
X42811700Y-31987950D01*
X42716450Y-31892700D01*
X41261500Y-31892700D01*
X41159900Y-31892700D01*
X39704950Y-31892700D01*
X39609700Y-31987950D01*
X28194000Y-31987950D01*
X28194000Y-30656115D01*
X39609700Y-30656115D01*
X39609700Y-31695850D01*
X39704950Y-31791100D01*
X41159900Y-31791100D01*
X41159900Y-30446150D01*
X41064650Y-30350900D01*
X39914914Y-30350900D01*
X39774880Y-30408904D01*
X39667704Y-30516081D01*
X39609700Y-30656115D01*
X28194000Y-30656115D01*
X28194000Y-28805419D01*
X28589023Y-28805419D01*
X28694703Y-29010158D01*
X29201606Y-29222018D01*
X29750999Y-29223768D01*
X30259242Y-29015140D01*
X30266697Y-29010158D01*
X30372377Y-28805419D01*
X36709023Y-28805419D01*
X36814703Y-29010158D01*
X37321606Y-29222018D01*
X37870999Y-29223768D01*
X38379242Y-29015140D01*
X38386697Y-29010158D01*
X38492377Y-28805419D01*
X37600700Y-27913742D01*
X36709023Y-28805419D01*
X30372377Y-28805419D01*
X29480700Y-27913742D01*
X28589023Y-28805419D01*
X28194000Y-28805419D01*
X28194000Y-28344040D01*
X28307460Y-28620442D01*
X28312442Y-28627897D01*
X28517181Y-28733577D01*
X29408858Y-27841900D01*
X29552542Y-27841900D01*
X30444219Y-28733577D01*
X30648958Y-28627897D01*
X30860818Y-28120994D01*
X30860846Y-28112199D01*
X36218832Y-28112199D01*
X36427460Y-28620442D01*
X36432442Y-28627897D01*
X36637181Y-28733577D01*
X37528858Y-27841900D01*
X36637181Y-26950223D01*
X36432442Y-27055903D01*
X36220582Y-27562806D01*
X36218832Y-28112199D01*
X30860846Y-28112199D01*
X30862568Y-27571601D01*
X30653940Y-27063358D01*
X30648958Y-27055903D01*
X30444219Y-26950223D01*
X29552542Y-27841900D01*
X29408858Y-27841900D01*
X28517181Y-26950223D01*
X28312442Y-27055903D01*
X28194000Y-27339291D01*
X28194000Y-26878381D01*
X28589023Y-26878381D01*
X29480700Y-27770058D01*
X30372377Y-26878381D01*
X30266697Y-26673642D01*
X29759794Y-26461782D01*
X29210401Y-26460032D01*
X28702158Y-26668660D01*
X28694703Y-26673642D01*
X28589023Y-26878381D01*
X28194000Y-26878381D01*
X28194000Y-22388177D01*
X28170420Y-22269631D01*
X28080597Y-22135203D01*
X27946169Y-22045380D01*
X27787600Y-22013839D01*
X27629032Y-22045380D01*
X27588295Y-22072600D01*
X27274494Y-22072600D01*
X27203400Y-22001506D01*
X27203400Y-20542204D01*
X29194162Y-22532966D01*
G36*
X35887039Y-39253652D02*
X35887039Y-39476811D01*
X35871600Y-39492250D01*
X35871600Y-40177200D01*
X35887038Y-40177200D01*
X35887038Y-40278800D01*
X35871600Y-40278800D01*
X35871600Y-40298800D01*
X35770000Y-40298800D01*
X35770000Y-40278800D01*
X35755673Y-40278800D01*
X35755673Y-40177200D01*
X35770000Y-40177200D01*
X35770000Y-39492250D01*
X35674750Y-39397000D01*
X35595014Y-39397000D01*
X35493345Y-39439113D01*
X35493345Y-39042985D01*
X35500310Y-39007970D01*
X35493345Y-38972955D01*
X35493345Y-38972951D01*
X35472712Y-38869223D01*
X35412508Y-38779121D01*
X35887039Y-39253652D01*
X35887039Y-39253652D01*
G37*
X35887039Y-39253652D02*
X35887039Y-39476811D01*
X35871600Y-39492250D01*
X35871600Y-40177200D01*
X35887038Y-40177200D01*
X35887038Y-40278800D01*
X35871600Y-40278800D01*
X35871600Y-40298800D01*
X35770000Y-40298800D01*
X35770000Y-40278800D01*
X35755673Y-40278800D01*
X35755673Y-40177200D01*
X35770000Y-40177200D01*
X35770000Y-39492250D01*
X35674750Y-39397000D01*
X35595014Y-39397000D01*
X35493345Y-39439113D01*
X35493345Y-39042985D01*
X35500310Y-39007970D01*
X35493345Y-38972955D01*
X35493345Y-38972951D01*
X35472712Y-38869223D01*
X35412508Y-38779121D01*
X35887039Y-39253652D01*
G36*
X34871600Y-40177200D02*
X34885927Y-40177200D01*
X34885927Y-40278800D01*
X34871600Y-40278800D01*
X34871600Y-40298800D01*
X34770000Y-40298800D01*
X34770000Y-40278800D01*
X34755673Y-40278800D01*
X34755673Y-40177200D01*
X34770000Y-40177200D01*
X34770000Y-40157200D01*
X34871600Y-40157200D01*
X34871600Y-40177200D01*
X34871600Y-40177200D01*
G37*
X34871600Y-40177200D02*
X34885927Y-40177200D01*
X34885927Y-40278800D01*
X34871600Y-40278800D01*
X34871600Y-40298800D01*
X34770000Y-40298800D01*
X34770000Y-40278800D01*
X34755673Y-40278800D01*
X34755673Y-40177200D01*
X34770000Y-40177200D01*
X34770000Y-40157200D01*
X34871600Y-40157200D01*
X34871600Y-40177200D01*
G36*
X32270220Y-57616100D02*
X32232178Y-57616100D01*
X32232178Y-57711348D01*
X32136930Y-57616100D01*
X31807194Y-57616100D01*
X31667160Y-57674104D01*
X31559984Y-57781281D01*
X31501980Y-57921315D01*
X31501980Y-58301050D01*
X31597230Y-58396300D01*
X32232180Y-58396300D01*
X32232180Y-58376300D01*
X32333780Y-58376300D01*
X32333780Y-58396300D01*
X32968730Y-58396300D01*
X33063980Y-58301050D01*
X33063980Y-58124099D01*
X33498107Y-58124099D01*
X33498107Y-58897100D01*
X33519792Y-59006116D01*
X33581544Y-59098536D01*
X33673964Y-59160288D01*
X33782980Y-59181973D01*
X34582980Y-59181973D01*
X34691996Y-59160288D01*
X34784416Y-59098536D01*
X34824272Y-59038886D01*
X35008026Y-59222640D01*
X32892658Y-59222640D01*
X32898800Y-59220096D01*
X33005976Y-59112919D01*
X33063980Y-58972885D01*
X33063980Y-58593150D01*
X32968730Y-58497900D01*
X32333780Y-58497900D01*
X32333780Y-58517900D01*
X32232180Y-58517900D01*
X32232180Y-58497900D01*
X31597230Y-58497900D01*
X31501980Y-58593150D01*
X31501980Y-58844725D01*
X31183879Y-58526625D01*
X31213556Y-58506796D01*
X31275308Y-58414376D01*
X31296993Y-58305360D01*
X31296993Y-57494260D01*
X32148380Y-57494260D01*
X32270220Y-57616100D01*
X32270220Y-57616100D01*
G37*
X32270220Y-57616100D02*
X32232178Y-57616100D01*
X32232178Y-57711348D01*
X32136930Y-57616100D01*
X31807194Y-57616100D01*
X31667160Y-57674104D01*
X31559984Y-57781281D01*
X31501980Y-57921315D01*
X31501980Y-58301050D01*
X31597230Y-58396300D01*
X32232180Y-58396300D01*
X32232180Y-58376300D01*
X32333780Y-58376300D01*
X32333780Y-58396300D01*
X32968730Y-58396300D01*
X33063980Y-58301050D01*
X33063980Y-58124099D01*
X33498107Y-58124099D01*
X33498107Y-58897100D01*
X33519792Y-59006116D01*
X33581544Y-59098536D01*
X33673964Y-59160288D01*
X33782980Y-59181973D01*
X34582980Y-59181973D01*
X34691996Y-59160288D01*
X34784416Y-59098536D01*
X34824272Y-59038886D01*
X35008026Y-59222640D01*
X32892658Y-59222640D01*
X32898800Y-59220096D01*
X33005976Y-59112919D01*
X33063980Y-58972885D01*
X33063980Y-58593150D01*
X32968730Y-58497900D01*
X32333780Y-58497900D01*
X32333780Y-58517900D01*
X32232180Y-58517900D01*
X32232180Y-58497900D01*
X31597230Y-58497900D01*
X31501980Y-58593150D01*
X31501980Y-58844725D01*
X31183879Y-58526625D01*
X31213556Y-58506796D01*
X31275308Y-58414376D01*
X31296993Y-58305360D01*
X31296993Y-57494260D01*
X32148380Y-57494260D01*
X32270220Y-57616100D01*
G36*
X31328350Y-55274761D02*
X31217652Y-55385460D01*
X30343035Y-55385460D01*
X30325308Y-55296344D01*
X30263556Y-55203924D01*
X30171136Y-55142172D01*
X30062120Y-55120487D01*
X29262120Y-55120487D01*
X29153104Y-55142172D01*
X29060684Y-55203924D01*
X28998932Y-55296344D01*
X28977247Y-55405360D01*
X28977247Y-56305360D01*
X28998932Y-56414376D01*
X29060684Y-56506796D01*
X29153104Y-56568548D01*
X29262120Y-56590233D01*
X29297041Y-56590233D01*
X29154342Y-56685582D01*
X29128129Y-56724812D01*
X28732455Y-57120487D01*
X28323760Y-57120487D01*
X28323760Y-55956789D01*
X28296920Y-55821858D01*
X29496079Y-54622700D01*
X30581369Y-54622700D01*
X30627641Y-54631904D01*
X30673913Y-54622700D01*
X30673917Y-54622700D01*
X30810987Y-54595435D01*
X30966419Y-54491578D01*
X30992633Y-54452346D01*
X31321858Y-54123121D01*
X31328350Y-54121830D01*
X31328350Y-55274761D01*
X31328350Y-55274761D01*
G37*
X31328350Y-55274761D02*
X31217652Y-55385460D01*
X30343035Y-55385460D01*
X30325308Y-55296344D01*
X30263556Y-55203924D01*
X30171136Y-55142172D01*
X30062120Y-55120487D01*
X29262120Y-55120487D01*
X29153104Y-55142172D01*
X29060684Y-55203924D01*
X28998932Y-55296344D01*
X28977247Y-55405360D01*
X28977247Y-56305360D01*
X28998932Y-56414376D01*
X29060684Y-56506796D01*
X29153104Y-56568548D01*
X29262120Y-56590233D01*
X29297041Y-56590233D01*
X29154342Y-56685582D01*
X29128129Y-56724812D01*
X28732455Y-57120487D01*
X28323760Y-57120487D01*
X28323760Y-55956789D01*
X28296920Y-55821858D01*
X29496079Y-54622700D01*
X30581369Y-54622700D01*
X30627641Y-54631904D01*
X30673913Y-54622700D01*
X30673917Y-54622700D01*
X30810987Y-54595435D01*
X30966419Y-54491578D01*
X30992633Y-54452346D01*
X31321858Y-54123121D01*
X31328350Y-54121830D01*
X31328350Y-55274761D01*
G36*
X43556127Y-43907000D02*
X43577812Y-44016016D01*
X43639564Y-44108436D01*
X43731984Y-44170188D01*
X43841000Y-44191873D01*
X45615601Y-44191873D01*
X45615601Y-44603952D01*
X45602662Y-44669000D01*
X45653917Y-44926675D01*
X45799878Y-45145122D01*
X45855022Y-45181968D01*
X45870519Y-45197465D01*
X46033825Y-45306582D01*
X46291499Y-45357837D01*
X46434461Y-45329400D01*
X48093695Y-45329400D01*
X49110900Y-46346606D01*
X49110901Y-47363655D01*
X49113239Y-47375407D01*
X48719460Y-47375407D01*
X48610444Y-47397092D01*
X48518024Y-47458844D01*
X48456272Y-47551264D01*
X48434587Y-47660280D01*
X48434587Y-48956338D01*
X48334333Y-49056592D01*
X48334333Y-47660280D01*
X48312648Y-47551264D01*
X48250896Y-47458844D01*
X48158476Y-47397092D01*
X48049460Y-47375407D01*
X47449460Y-47375407D01*
X47340444Y-47397092D01*
X47248024Y-47458844D01*
X47186272Y-47551264D01*
X47164587Y-47660280D01*
X47164587Y-47814792D01*
X46811804Y-47462009D01*
X46790546Y-47430194D01*
X46664519Y-47345986D01*
X46553384Y-47323880D01*
X46515860Y-47316416D01*
X46478336Y-47323880D01*
X44375922Y-47323880D01*
X44338399Y-47316416D01*
X44300876Y-47323880D01*
X44189741Y-47345986D01*
X44063714Y-47430194D01*
X44042456Y-47462009D01*
X43881258Y-47623207D01*
X42885200Y-47623207D01*
X42776184Y-47644892D01*
X42683764Y-47706644D01*
X42622012Y-47799064D01*
X42600327Y-47908080D01*
X42600327Y-48808080D01*
X42622012Y-48917096D01*
X42683764Y-49009516D01*
X42776184Y-49071268D01*
X42885200Y-49092953D01*
X42889711Y-49092953D01*
X42388326Y-49594339D01*
X42356514Y-49615595D01*
X42335258Y-49647407D01*
X42272305Y-49741623D01*
X42252900Y-49839178D01*
X42252900Y-46481091D01*
X42274545Y-46372274D01*
X42252900Y-46263457D01*
X42252900Y-46263452D01*
X42191939Y-45956980D01*
X42191939Y-45768283D01*
X42213585Y-45659461D01*
X42127832Y-45228351D01*
X42017054Y-45062560D01*
X42221150Y-45062560D01*
X42316400Y-44967310D01*
X42316400Y-44282360D01*
X42418000Y-44282360D01*
X42418000Y-44967310D01*
X42513250Y-45062560D01*
X43067986Y-45062560D01*
X43208020Y-45004556D01*
X43315196Y-44897379D01*
X43373200Y-44757345D01*
X43373200Y-44377610D01*
X43277950Y-44282360D01*
X42418000Y-44282360D01*
X42316400Y-44282360D01*
X42296400Y-44282360D01*
X42296400Y-44180760D01*
X42316400Y-44180760D01*
X42316400Y-44160760D01*
X42418000Y-44160760D01*
X42418000Y-44180760D01*
X43277950Y-44180760D01*
X43373200Y-44085510D01*
X43373200Y-43840400D01*
X43556127Y-43840400D01*
X43556127Y-43907000D01*
X43556127Y-43907000D01*
G37*
X43556127Y-43907000D02*
X43577812Y-44016016D01*
X43639564Y-44108436D01*
X43731984Y-44170188D01*
X43841000Y-44191873D01*
X45615601Y-44191873D01*
X45615601Y-44603952D01*
X45602662Y-44669000D01*
X45653917Y-44926675D01*
X45799878Y-45145122D01*
X45855022Y-45181968D01*
X45870519Y-45197465D01*
X46033825Y-45306582D01*
X46291499Y-45357837D01*
X46434461Y-45329400D01*
X48093695Y-45329400D01*
X49110900Y-46346606D01*
X49110901Y-47363655D01*
X49113239Y-47375407D01*
X48719460Y-47375407D01*
X48610444Y-47397092D01*
X48518024Y-47458844D01*
X48456272Y-47551264D01*
X48434587Y-47660280D01*
X48434587Y-48956338D01*
X48334333Y-49056592D01*
X48334333Y-47660280D01*
X48312648Y-47551264D01*
X48250896Y-47458844D01*
X48158476Y-47397092D01*
X48049460Y-47375407D01*
X47449460Y-47375407D01*
X47340444Y-47397092D01*
X47248024Y-47458844D01*
X47186272Y-47551264D01*
X47164587Y-47660280D01*
X47164587Y-47814792D01*
X46811804Y-47462009D01*
X46790546Y-47430194D01*
X46664519Y-47345986D01*
X46553384Y-47323880D01*
X46515860Y-47316416D01*
X46478336Y-47323880D01*
X44375922Y-47323880D01*
X44338399Y-47316416D01*
X44300876Y-47323880D01*
X44189741Y-47345986D01*
X44063714Y-47430194D01*
X44042456Y-47462009D01*
X43881258Y-47623207D01*
X42885200Y-47623207D01*
X42776184Y-47644892D01*
X42683764Y-47706644D01*
X42622012Y-47799064D01*
X42600327Y-47908080D01*
X42600327Y-48808080D01*
X42622012Y-48917096D01*
X42683764Y-49009516D01*
X42776184Y-49071268D01*
X42885200Y-49092953D01*
X42889711Y-49092953D01*
X42388326Y-49594339D01*
X42356514Y-49615595D01*
X42335258Y-49647407D01*
X42272305Y-49741623D01*
X42252900Y-49839178D01*
X42252900Y-46481091D01*
X42274545Y-46372274D01*
X42252900Y-46263457D01*
X42252900Y-46263452D01*
X42191939Y-45956980D01*
X42191939Y-45768283D01*
X42213585Y-45659461D01*
X42127832Y-45228351D01*
X42017054Y-45062560D01*
X42221150Y-45062560D01*
X42316400Y-44967310D01*
X42316400Y-44282360D01*
X42418000Y-44282360D01*
X42418000Y-44967310D01*
X42513250Y-45062560D01*
X43067986Y-45062560D01*
X43208020Y-45004556D01*
X43315196Y-44897379D01*
X43373200Y-44757345D01*
X43373200Y-44377610D01*
X43277950Y-44282360D01*
X42418000Y-44282360D01*
X42316400Y-44282360D01*
X42296400Y-44282360D01*
X42296400Y-44180760D01*
X42316400Y-44180760D01*
X42316400Y-44160760D01*
X42418000Y-44160760D01*
X42418000Y-44180760D01*
X43277950Y-44180760D01*
X43373200Y-44085510D01*
X43373200Y-43840400D01*
X43556127Y-43840400D01*
X43556127Y-43907000D01*
G36*
X54382600Y-47021745D02*
X54302740Y-46941884D01*
X54162706Y-46883880D01*
X53607970Y-46883880D01*
X53512720Y-46979130D01*
X53512720Y-47664080D01*
X53532720Y-47664080D01*
X53532720Y-47765680D01*
X53512720Y-47765680D01*
X53512720Y-48450630D01*
X53607970Y-48545880D01*
X54162706Y-48545880D01*
X54302740Y-48487876D01*
X54382600Y-48408015D01*
X54382600Y-49163646D01*
X54308164Y-49113909D01*
X54152573Y-49082960D01*
X52144333Y-49082960D01*
X52144333Y-47878301D01*
X52161704Y-47860930D01*
X52455920Y-47860930D01*
X52455920Y-48240665D01*
X52513924Y-48380699D01*
X52621100Y-48487876D01*
X52761134Y-48545880D01*
X53315870Y-48545880D01*
X53411120Y-48450630D01*
X53411120Y-47765680D01*
X52551170Y-47765680D01*
X52455920Y-47860930D01*
X52161704Y-47860930D01*
X52455920Y-47566714D01*
X52455920Y-47568830D01*
X52551170Y-47664080D01*
X53411120Y-47664080D01*
X53411120Y-46979130D01*
X53315870Y-46883880D01*
X53138755Y-46883880D01*
X53672882Y-46349753D01*
X54086920Y-46349753D01*
X54195936Y-46328068D01*
X54288356Y-46266316D01*
X54350108Y-46173896D01*
X54371793Y-46064880D01*
X54371793Y-45164880D01*
X54350108Y-45055864D01*
X54288356Y-44963444D01*
X54195936Y-44901692D01*
X54086920Y-44880007D01*
X52836920Y-44880007D01*
X52727904Y-44901692D01*
X52635484Y-44963444D01*
X52573732Y-45055864D01*
X52552047Y-45164880D01*
X52552047Y-46064880D01*
X52573732Y-46173896D01*
X52635484Y-46266316D01*
X52704449Y-46312396D01*
X51641439Y-47375407D01*
X51259460Y-47375407D01*
X51150444Y-47397092D01*
X51058024Y-47458844D01*
X50996272Y-47551264D01*
X50974587Y-47660280D01*
X50974587Y-49209960D01*
X50874333Y-49209960D01*
X50874333Y-47660280D01*
X50852648Y-47551264D01*
X50790896Y-47458844D01*
X50698476Y-47397092D01*
X50645060Y-47386467D01*
X50645060Y-45178992D01*
X50652025Y-45143977D01*
X50645060Y-45108962D01*
X50645060Y-45108958D01*
X50624427Y-45005230D01*
X50545832Y-44887605D01*
X50516145Y-44867769D01*
X49936376Y-44288000D01*
X51494950Y-44288000D01*
X51590200Y-44192750D01*
X51590200Y-43357800D01*
X51691800Y-43357800D01*
X51691800Y-44192750D01*
X51787050Y-44288000D01*
X53516785Y-44288000D01*
X53656819Y-44229996D01*
X53763996Y-44122820D01*
X53822000Y-43982786D01*
X53822000Y-43453050D01*
X53726750Y-43357800D01*
X51691800Y-43357800D01*
X51590200Y-43357800D01*
X49555250Y-43357800D01*
X49460000Y-43453050D01*
X49460000Y-43811624D01*
X48279590Y-42631214D01*
X49460000Y-42631214D01*
X49460000Y-43160950D01*
X49555250Y-43256200D01*
X51590200Y-43256200D01*
X51590200Y-42421250D01*
X51691800Y-42421250D01*
X51691800Y-43256200D01*
X53726750Y-43256200D01*
X53822000Y-43160950D01*
X53822000Y-42631214D01*
X53763996Y-42491180D01*
X53656819Y-42384004D01*
X53516785Y-42326000D01*
X51787050Y-42326000D01*
X51691800Y-42421250D01*
X51590200Y-42421250D01*
X51494950Y-42326000D01*
X49765215Y-42326000D01*
X49625181Y-42384004D01*
X49518004Y-42491180D01*
X49460000Y-42631214D01*
X48279590Y-42631214D01*
X47740555Y-42092179D01*
X50322166Y-39510569D01*
X50351850Y-39490735D01*
X50371685Y-39461050D01*
X50371688Y-39461047D01*
X50430445Y-39373110D01*
X50458044Y-39234362D01*
X50451078Y-39199342D01*
X50451078Y-37928550D01*
X51085500Y-37928550D01*
X51085500Y-38858286D01*
X51143504Y-38998320D01*
X51250681Y-39105496D01*
X51390715Y-39163500D01*
X52082450Y-39163500D01*
X52177700Y-39068250D01*
X52177700Y-37833300D01*
X52279300Y-37833300D01*
X52279300Y-39068250D01*
X52374550Y-39163500D01*
X53066285Y-39163500D01*
X53206319Y-39105496D01*
X53313496Y-38998320D01*
X53371500Y-38858286D01*
X53371500Y-37928550D01*
X53276250Y-37833300D01*
X52279300Y-37833300D01*
X52177700Y-37833300D01*
X51180750Y-37833300D01*
X51085500Y-37928550D01*
X50451078Y-37928550D01*
X50451078Y-36706714D01*
X51085500Y-36706714D01*
X51085500Y-37636450D01*
X51180750Y-37731700D01*
X52177700Y-37731700D01*
X52177700Y-36496750D01*
X52279300Y-36496750D01*
X52279300Y-37731700D01*
X53276250Y-37731700D01*
X53371500Y-37636450D01*
X53371500Y-36706714D01*
X53313496Y-36566680D01*
X53206319Y-36459504D01*
X53066285Y-36401500D01*
X52374550Y-36401500D01*
X52279300Y-36496750D01*
X52177700Y-36496750D01*
X52082450Y-36401500D01*
X51390715Y-36401500D01*
X51250681Y-36459504D01*
X51143504Y-36566680D01*
X51085500Y-36706714D01*
X50451078Y-36706714D01*
X50451078Y-35421196D01*
X50550000Y-35440873D01*
X54106000Y-35440873D01*
X54215016Y-35419188D01*
X54307436Y-35357436D01*
X54369188Y-35265016D01*
X54382601Y-35197587D01*
X54382600Y-47021745D01*
X54382600Y-47021745D01*
G37*
X54382600Y-47021745D02*
X54302740Y-46941884D01*
X54162706Y-46883880D01*
X53607970Y-46883880D01*
X53512720Y-46979130D01*
X53512720Y-47664080D01*
X53532720Y-47664080D01*
X53532720Y-47765680D01*
X53512720Y-47765680D01*
X53512720Y-48450630D01*
X53607970Y-48545880D01*
X54162706Y-48545880D01*
X54302740Y-48487876D01*
X54382600Y-48408015D01*
X54382600Y-49163646D01*
X54308164Y-49113909D01*
X54152573Y-49082960D01*
X52144333Y-49082960D01*
X52144333Y-47878301D01*
X52161704Y-47860930D01*
X52455920Y-47860930D01*
X52455920Y-48240665D01*
X52513924Y-48380699D01*
X52621100Y-48487876D01*
X52761134Y-48545880D01*
X53315870Y-48545880D01*
X53411120Y-48450630D01*
X53411120Y-47765680D01*
X52551170Y-47765680D01*
X52455920Y-47860930D01*
X52161704Y-47860930D01*
X52455920Y-47566714D01*
X52455920Y-47568830D01*
X52551170Y-47664080D01*
X53411120Y-47664080D01*
X53411120Y-46979130D01*
X53315870Y-46883880D01*
X53138755Y-46883880D01*
X53672882Y-46349753D01*
X54086920Y-46349753D01*
X54195936Y-46328068D01*
X54288356Y-46266316D01*
X54350108Y-46173896D01*
X54371793Y-46064880D01*
X54371793Y-45164880D01*
X54350108Y-45055864D01*
X54288356Y-44963444D01*
X54195936Y-44901692D01*
X54086920Y-44880007D01*
X52836920Y-44880007D01*
X52727904Y-44901692D01*
X52635484Y-44963444D01*
X52573732Y-45055864D01*
X52552047Y-45164880D01*
X52552047Y-46064880D01*
X52573732Y-46173896D01*
X52635484Y-46266316D01*
X52704449Y-46312396D01*
X51641439Y-47375407D01*
X51259460Y-47375407D01*
X51150444Y-47397092D01*
X51058024Y-47458844D01*
X50996272Y-47551264D01*
X50974587Y-47660280D01*
X50974587Y-49209960D01*
X50874333Y-49209960D01*
X50874333Y-47660280D01*
X50852648Y-47551264D01*
X50790896Y-47458844D01*
X50698476Y-47397092D01*
X50645060Y-47386467D01*
X50645060Y-45178992D01*
X50652025Y-45143977D01*
X50645060Y-45108962D01*
X50645060Y-45108958D01*
X50624427Y-45005230D01*
X50545832Y-44887605D01*
X50516145Y-44867769D01*
X49936376Y-44288000D01*
X51494950Y-44288000D01*
X51590200Y-44192750D01*
X51590200Y-43357800D01*
X51691800Y-43357800D01*
X51691800Y-44192750D01*
X51787050Y-44288000D01*
X53516785Y-44288000D01*
X53656819Y-44229996D01*
X53763996Y-44122820D01*
X53822000Y-43982786D01*
X53822000Y-43453050D01*
X53726750Y-43357800D01*
X51691800Y-43357800D01*
X51590200Y-43357800D01*
X49555250Y-43357800D01*
X49460000Y-43453050D01*
X49460000Y-43811624D01*
X48279590Y-42631214D01*
X49460000Y-42631214D01*
X49460000Y-43160950D01*
X49555250Y-43256200D01*
X51590200Y-43256200D01*
X51590200Y-42421250D01*
X51691800Y-42421250D01*
X51691800Y-43256200D01*
X53726750Y-43256200D01*
X53822000Y-43160950D01*
X53822000Y-42631214D01*
X53763996Y-42491180D01*
X53656819Y-42384004D01*
X53516785Y-42326000D01*
X51787050Y-42326000D01*
X51691800Y-42421250D01*
X51590200Y-42421250D01*
X51494950Y-42326000D01*
X49765215Y-42326000D01*
X49625181Y-42384004D01*
X49518004Y-42491180D01*
X49460000Y-42631214D01*
X48279590Y-42631214D01*
X47740555Y-42092179D01*
X50322166Y-39510569D01*
X50351850Y-39490735D01*
X50371685Y-39461050D01*
X50371688Y-39461047D01*
X50430445Y-39373110D01*
X50458044Y-39234362D01*
X50451078Y-39199342D01*
X50451078Y-37928550D01*
X51085500Y-37928550D01*
X51085500Y-38858286D01*
X51143504Y-38998320D01*
X51250681Y-39105496D01*
X51390715Y-39163500D01*
X52082450Y-39163500D01*
X52177700Y-39068250D01*
X52177700Y-37833300D01*
X52279300Y-37833300D01*
X52279300Y-39068250D01*
X52374550Y-39163500D01*
X53066285Y-39163500D01*
X53206319Y-39105496D01*
X53313496Y-38998320D01*
X53371500Y-38858286D01*
X53371500Y-37928550D01*
X53276250Y-37833300D01*
X52279300Y-37833300D01*
X52177700Y-37833300D01*
X51180750Y-37833300D01*
X51085500Y-37928550D01*
X50451078Y-37928550D01*
X50451078Y-36706714D01*
X51085500Y-36706714D01*
X51085500Y-37636450D01*
X51180750Y-37731700D01*
X52177700Y-37731700D01*
X52177700Y-36496750D01*
X52279300Y-36496750D01*
X52279300Y-37731700D01*
X53276250Y-37731700D01*
X53371500Y-37636450D01*
X53371500Y-36706714D01*
X53313496Y-36566680D01*
X53206319Y-36459504D01*
X53066285Y-36401500D01*
X52374550Y-36401500D01*
X52279300Y-36496750D01*
X52177700Y-36496750D01*
X52082450Y-36401500D01*
X51390715Y-36401500D01*
X51250681Y-36459504D01*
X51143504Y-36566680D01*
X51085500Y-36706714D01*
X50451078Y-36706714D01*
X50451078Y-35421196D01*
X50550000Y-35440873D01*
X54106000Y-35440873D01*
X54215016Y-35419188D01*
X54307436Y-35357436D01*
X54369188Y-35265016D01*
X54382601Y-35197587D01*
X54382600Y-47021745D01*
G36*
X49739878Y-35260255D02*
X49739879Y-37927820D01*
X49739878Y-39087067D01*
X47050986Y-41775960D01*
X43277073Y-41775960D01*
X43277073Y-41681560D01*
X43255388Y-41572544D01*
X43193636Y-41480124D01*
X43101216Y-41418372D01*
X42992200Y-41396687D01*
X41927405Y-41396687D01*
X43150918Y-40173175D01*
X43221965Y-40125703D01*
X43329264Y-39965119D01*
X43410030Y-39844243D01*
X43445563Y-39665606D01*
X43459400Y-39596044D01*
X43459400Y-39596043D01*
X43476070Y-39512238D01*
X43459400Y-39428433D01*
X43459400Y-39411248D01*
X43517516Y-39399688D01*
X43609936Y-39337936D01*
X43671688Y-39245516D01*
X43693373Y-39136500D01*
X43693373Y-36936500D01*
X43671688Y-36827484D01*
X43609936Y-36735064D01*
X43572374Y-36709966D01*
X44547468Y-35734873D01*
X46428928Y-35734873D01*
X47271091Y-36577037D01*
X47265064Y-36581064D01*
X47203312Y-36673484D01*
X47181627Y-36782500D01*
X47181627Y-38782500D01*
X47203312Y-38891516D01*
X47265064Y-38983936D01*
X47357484Y-39045688D01*
X47466500Y-39067373D01*
X48990500Y-39067373D01*
X49099516Y-39045688D01*
X49191936Y-38983936D01*
X49253688Y-38891516D01*
X49275373Y-38782500D01*
X49275373Y-36782500D01*
X49253688Y-36673484D01*
X49191936Y-36581064D01*
X49099516Y-36519312D01*
X48990500Y-36497627D01*
X48881375Y-36497627D01*
X48850583Y-36342824D01*
X48743923Y-36183197D01*
X48704622Y-36124378D01*
X48649478Y-36087532D01*
X48277105Y-35715159D01*
X48287016Y-35713188D01*
X48379436Y-35651436D01*
X48441188Y-35559016D01*
X48462873Y-35450000D01*
X48462873Y-33983249D01*
X49739878Y-35260255D01*
X49739878Y-35260255D01*
G37*
X49739878Y-35260255D02*
X49739879Y-37927820D01*
X49739878Y-39087067D01*
X47050986Y-41775960D01*
X43277073Y-41775960D01*
X43277073Y-41681560D01*
X43255388Y-41572544D01*
X43193636Y-41480124D01*
X43101216Y-41418372D01*
X42992200Y-41396687D01*
X41927405Y-41396687D01*
X43150918Y-40173175D01*
X43221965Y-40125703D01*
X43329264Y-39965119D01*
X43410030Y-39844243D01*
X43445563Y-39665606D01*
X43459400Y-39596044D01*
X43459400Y-39596043D01*
X43476070Y-39512238D01*
X43459400Y-39428433D01*
X43459400Y-39411248D01*
X43517516Y-39399688D01*
X43609936Y-39337936D01*
X43671688Y-39245516D01*
X43693373Y-39136500D01*
X43693373Y-36936500D01*
X43671688Y-36827484D01*
X43609936Y-36735064D01*
X43572374Y-36709966D01*
X44547468Y-35734873D01*
X46428928Y-35734873D01*
X47271091Y-36577037D01*
X47265064Y-36581064D01*
X47203312Y-36673484D01*
X47181627Y-36782500D01*
X47181627Y-38782500D01*
X47203312Y-38891516D01*
X47265064Y-38983936D01*
X47357484Y-39045688D01*
X47466500Y-39067373D01*
X48990500Y-39067373D01*
X49099516Y-39045688D01*
X49191936Y-38983936D01*
X49253688Y-38891516D01*
X49275373Y-38782500D01*
X49275373Y-36782500D01*
X49253688Y-36673484D01*
X49191936Y-36581064D01*
X49099516Y-36519312D01*
X48990500Y-36497627D01*
X48881375Y-36497627D01*
X48850583Y-36342824D01*
X48743923Y-36183197D01*
X48704622Y-36124378D01*
X48649478Y-36087532D01*
X48277105Y-35715159D01*
X48287016Y-35713188D01*
X48379436Y-35651436D01*
X48441188Y-35559016D01*
X48462873Y-35450000D01*
X48462873Y-33983249D01*
X49739878Y-35260255D01*
G36*
X27381200Y-35930222D02*
X27404780Y-36048768D01*
X27432000Y-36089506D01*
X27432001Y-39071027D01*
X27162600Y-39071027D01*
X27053584Y-39092712D01*
X27013659Y-39119388D01*
X26032813Y-38138543D01*
X26012975Y-38108853D01*
X25895350Y-38030259D01*
X25791622Y-38009626D01*
X25756602Y-38002660D01*
X25721582Y-38009626D01*
X25624382Y-38009626D01*
X25622424Y-37919885D01*
X25577658Y-37818147D01*
X25061440Y-37080910D01*
X24981148Y-37004046D01*
X24877554Y-36963761D01*
X24766428Y-36966186D01*
X24664689Y-37010952D01*
X24252935Y-37299265D01*
X23647400Y-36693730D01*
X23647400Y-35253724D01*
X23654864Y-35216200D01*
X23625294Y-35067541D01*
X23593160Y-35019449D01*
X23541086Y-34941514D01*
X23509274Y-34920258D01*
X23495085Y-34906069D01*
X23521033Y-34887493D01*
X23578645Y-34794944D01*
X23596455Y-34687392D01*
X23555023Y-33403011D01*
X26922060Y-33426393D01*
X27030922Y-33405132D01*
X27121566Y-33344566D01*
X27129361Y-33332900D01*
X27166486Y-33332900D01*
X27306520Y-33274896D01*
X27381200Y-33200215D01*
X27381200Y-35930222D01*
X27381200Y-35930222D01*
G37*
X27381200Y-35930222D02*
X27404780Y-36048768D01*
X27432000Y-36089506D01*
X27432001Y-39071027D01*
X27162600Y-39071027D01*
X27053584Y-39092712D01*
X27013659Y-39119388D01*
X26032813Y-38138543D01*
X26012975Y-38108853D01*
X25895350Y-38030259D01*
X25791622Y-38009626D01*
X25756602Y-38002660D01*
X25721582Y-38009626D01*
X25624382Y-38009626D01*
X25622424Y-37919885D01*
X25577658Y-37818147D01*
X25061440Y-37080910D01*
X24981148Y-37004046D01*
X24877554Y-36963761D01*
X24766428Y-36966186D01*
X24664689Y-37010952D01*
X24252935Y-37299265D01*
X23647400Y-36693730D01*
X23647400Y-35253724D01*
X23654864Y-35216200D01*
X23625294Y-35067541D01*
X23593160Y-35019449D01*
X23541086Y-34941514D01*
X23509274Y-34920258D01*
X23495085Y-34906069D01*
X23521033Y-34887493D01*
X23578645Y-34794944D01*
X23596455Y-34687392D01*
X23555023Y-33403011D01*
X26922060Y-33426393D01*
X27030922Y-33405132D01*
X27121566Y-33344566D01*
X27129361Y-33332900D01*
X27166486Y-33332900D01*
X27306520Y-33274896D01*
X27381200Y-33200215D01*
X27381200Y-35930222D01*
G36*
X29385041Y-21556250D02*
X29385042Y-21556250D01*
X29712802Y-21665504D01*
X29725184Y-21671353D01*
X29745848Y-21676519D01*
X29766041Y-21683250D01*
X29779619Y-21684962D01*
X30207306Y-21791883D01*
X30214720Y-21796837D01*
X30275412Y-21808910D01*
X30300906Y-21815283D01*
X30309574Y-21815705D01*
X30318096Y-21817400D01*
X30344402Y-21817400D01*
X30406183Y-21820407D01*
X30414575Y-21817400D01*
X43767441Y-21817400D01*
X43539381Y-22045460D01*
X43405500Y-22368677D01*
X43405500Y-22718523D01*
X43539381Y-23041740D01*
X43786760Y-23289119D01*
X43954808Y-23358727D01*
X43434900Y-23358727D01*
X43325884Y-23380412D01*
X43233464Y-23442164D01*
X43171712Y-23534584D01*
X43150027Y-23643600D01*
X43150027Y-26343600D01*
X43171712Y-26452616D01*
X43233464Y-26545036D01*
X43325884Y-26606788D01*
X43434900Y-26628473D01*
X44485828Y-26628473D01*
X46722481Y-28865127D01*
X44078000Y-28865127D01*
X43968984Y-28886812D01*
X43876564Y-28948564D01*
X43814812Y-29040984D01*
X43793127Y-29150000D01*
X43793127Y-31050000D01*
X43814812Y-31159016D01*
X43876564Y-31251436D01*
X43968984Y-31313188D01*
X44078000Y-31334873D01*
X48178000Y-31334873D01*
X48287016Y-31313188D01*
X48302738Y-31302683D01*
X50265127Y-33265073D01*
X50265127Y-34779714D01*
X48580128Y-33094716D01*
X48560290Y-33065026D01*
X48442665Y-32986432D01*
X48338937Y-32965799D01*
X48303917Y-32958833D01*
X48268897Y-32965799D01*
X45578976Y-32965799D01*
X34692773Y-22079597D01*
X34672935Y-22049907D01*
X34555310Y-21971313D01*
X34451582Y-21950680D01*
X34416562Y-21943714D01*
X34381542Y-21950680D01*
X29617666Y-21950680D01*
X29142333Y-21475347D01*
X29385041Y-21556250D01*
X29385041Y-21556250D01*
G37*
X29385041Y-21556250D02*
X29385042Y-21556250D01*
X29712802Y-21665504D01*
X29725184Y-21671353D01*
X29745848Y-21676519D01*
X29766041Y-21683250D01*
X29779619Y-21684962D01*
X30207306Y-21791883D01*
X30214720Y-21796837D01*
X30275412Y-21808910D01*
X30300906Y-21815283D01*
X30309574Y-21815705D01*
X30318096Y-21817400D01*
X30344402Y-21817400D01*
X30406183Y-21820407D01*
X30414575Y-21817400D01*
X43767441Y-21817400D01*
X43539381Y-22045460D01*
X43405500Y-22368677D01*
X43405500Y-22718523D01*
X43539381Y-23041740D01*
X43786760Y-23289119D01*
X43954808Y-23358727D01*
X43434900Y-23358727D01*
X43325884Y-23380412D01*
X43233464Y-23442164D01*
X43171712Y-23534584D01*
X43150027Y-23643600D01*
X43150027Y-26343600D01*
X43171712Y-26452616D01*
X43233464Y-26545036D01*
X43325884Y-26606788D01*
X43434900Y-26628473D01*
X44485828Y-26628473D01*
X46722481Y-28865127D01*
X44078000Y-28865127D01*
X43968984Y-28886812D01*
X43876564Y-28948564D01*
X43814812Y-29040984D01*
X43793127Y-29150000D01*
X43793127Y-31050000D01*
X43814812Y-31159016D01*
X43876564Y-31251436D01*
X43968984Y-31313188D01*
X44078000Y-31334873D01*
X48178000Y-31334873D01*
X48287016Y-31313188D01*
X48302738Y-31302683D01*
X50265127Y-33265073D01*
X50265127Y-34779714D01*
X48580128Y-33094716D01*
X48560290Y-33065026D01*
X48442665Y-32986432D01*
X48338937Y-32965799D01*
X48303917Y-32958833D01*
X48268897Y-32965799D01*
X45578976Y-32965799D01*
X34692773Y-22079597D01*
X34672935Y-22049907D01*
X34555310Y-21971313D01*
X34451582Y-21950680D01*
X34416562Y-21943714D01*
X34381542Y-21950680D01*
X29617666Y-21950680D01*
X29142333Y-21475347D01*
X29385041Y-21556250D01*
G36*
X46079381Y-22045460D02*
X45945500Y-22368677D01*
X45945500Y-22718523D01*
X46079381Y-23041740D01*
X46300241Y-23262600D01*
X45899114Y-23262600D01*
X45759080Y-23320604D01*
X45651904Y-23427781D01*
X45593900Y-23567815D01*
X45593900Y-24847550D01*
X45689150Y-24942800D01*
X46774100Y-24942800D01*
X46774100Y-24922800D01*
X46875700Y-24922800D01*
X46875700Y-24942800D01*
X47960650Y-24942800D01*
X48055900Y-24847550D01*
X48055900Y-23567815D01*
X47997896Y-23427781D01*
X47890720Y-23320604D01*
X47750686Y-23262600D01*
X47349559Y-23262600D01*
X47570419Y-23041740D01*
X47704300Y-22718523D01*
X47704300Y-22368677D01*
X47570419Y-22045460D01*
X47342359Y-21817400D01*
X50234222Y-21817400D01*
X49885707Y-22142681D01*
X49379049Y-22573340D01*
X49363783Y-22591014D01*
X49109783Y-22997414D01*
X49102898Y-23011457D01*
X48747298Y-23976657D01*
X48742649Y-24005720D01*
X48768049Y-24716920D01*
X48769480Y-24729144D01*
X48820280Y-24983144D01*
X48821940Y-24989848D01*
X49025140Y-25675648D01*
X49034019Y-25695076D01*
X49440419Y-26330076D01*
X49451986Y-26344120D01*
X50010786Y-26877520D01*
X50026394Y-26889011D01*
X50712194Y-27270011D01*
X50737436Y-27278687D01*
X51550236Y-27405687D01*
X51559995Y-27406574D01*
X52525195Y-27431974D01*
X52527200Y-27432000D01*
X54382601Y-27432000D01*
X54382601Y-28002414D01*
X54369188Y-27934984D01*
X54307436Y-27842564D01*
X54215016Y-27780812D01*
X54106000Y-27759127D01*
X50550000Y-27759127D01*
X50440984Y-27780812D01*
X50348564Y-27842564D01*
X50286812Y-27934984D01*
X50265127Y-28044000D01*
X50265127Y-28653600D01*
X50061546Y-28653600D01*
X49603568Y-28195623D01*
X49566721Y-28140477D01*
X49348274Y-27994516D01*
X49155642Y-27956199D01*
X49155641Y-27956199D01*
X49090599Y-27943261D01*
X49025557Y-27956199D01*
X47681445Y-27956199D01*
X46449846Y-26724600D01*
X46678850Y-26724600D01*
X46774100Y-26629350D01*
X46774100Y-25044400D01*
X46875700Y-25044400D01*
X46875700Y-26629350D01*
X46970950Y-26724600D01*
X47750686Y-26724600D01*
X47890720Y-26666596D01*
X47997896Y-26559419D01*
X48055900Y-26419385D01*
X48055900Y-25139650D01*
X47960650Y-25044400D01*
X46875700Y-25044400D01*
X46774100Y-25044400D01*
X45689150Y-25044400D01*
X45593900Y-25139650D01*
X45593900Y-25868655D01*
X45419773Y-25694528D01*
X45419773Y-23643600D01*
X45398088Y-23534584D01*
X45336336Y-23442164D01*
X45243916Y-23380412D01*
X45134900Y-23358727D01*
X44614992Y-23358727D01*
X44783040Y-23289119D01*
X45030419Y-23041740D01*
X45164300Y-22718523D01*
X45164300Y-22368677D01*
X45030419Y-22045460D01*
X44802359Y-21817400D01*
X46307441Y-21817400D01*
X46079381Y-22045460D01*
X46079381Y-22045460D01*
G37*
X46079381Y-22045460D02*
X45945500Y-22368677D01*
X45945500Y-22718523D01*
X46079381Y-23041740D01*
X46300241Y-23262600D01*
X45899114Y-23262600D01*
X45759080Y-23320604D01*
X45651904Y-23427781D01*
X45593900Y-23567815D01*
X45593900Y-24847550D01*
X45689150Y-24942800D01*
X46774100Y-24942800D01*
X46774100Y-24922800D01*
X46875700Y-24922800D01*
X46875700Y-24942800D01*
X47960650Y-24942800D01*
X48055900Y-24847550D01*
X48055900Y-23567815D01*
X47997896Y-23427781D01*
X47890720Y-23320604D01*
X47750686Y-23262600D01*
X47349559Y-23262600D01*
X47570419Y-23041740D01*
X47704300Y-22718523D01*
X47704300Y-22368677D01*
X47570419Y-22045460D01*
X47342359Y-21817400D01*
X50234222Y-21817400D01*
X49885707Y-22142681D01*
X49379049Y-22573340D01*
X49363783Y-22591014D01*
X49109783Y-22997414D01*
X49102898Y-23011457D01*
X48747298Y-23976657D01*
X48742649Y-24005720D01*
X48768049Y-24716920D01*
X48769480Y-24729144D01*
X48820280Y-24983144D01*
X48821940Y-24989848D01*
X49025140Y-25675648D01*
X49034019Y-25695076D01*
X49440419Y-26330076D01*
X49451986Y-26344120D01*
X50010786Y-26877520D01*
X50026394Y-26889011D01*
X50712194Y-27270011D01*
X50737436Y-27278687D01*
X51550236Y-27405687D01*
X51559995Y-27406574D01*
X52525195Y-27431974D01*
X52527200Y-27432000D01*
X54382601Y-27432000D01*
X54382601Y-28002414D01*
X54369188Y-27934984D01*
X54307436Y-27842564D01*
X54215016Y-27780812D01*
X54106000Y-27759127D01*
X50550000Y-27759127D01*
X50440984Y-27780812D01*
X50348564Y-27842564D01*
X50286812Y-27934984D01*
X50265127Y-28044000D01*
X50265127Y-28653600D01*
X50061546Y-28653600D01*
X49603568Y-28195623D01*
X49566721Y-28140477D01*
X49348274Y-27994516D01*
X49155642Y-27956199D01*
X49155641Y-27956199D01*
X49090599Y-27943261D01*
X49025557Y-27956199D01*
X47681445Y-27956199D01*
X46449846Y-26724600D01*
X46678850Y-26724600D01*
X46774100Y-26629350D01*
X46774100Y-25044400D01*
X46875700Y-25044400D01*
X46875700Y-26629350D01*
X46970950Y-26724600D01*
X47750686Y-26724600D01*
X47890720Y-26666596D01*
X47997896Y-26559419D01*
X48055900Y-26419385D01*
X48055900Y-25139650D01*
X47960650Y-25044400D01*
X46875700Y-25044400D01*
X46774100Y-25044400D01*
X45689150Y-25044400D01*
X45593900Y-25139650D01*
X45593900Y-25868655D01*
X45419773Y-25694528D01*
X45419773Y-23643600D01*
X45398088Y-23534584D01*
X45336336Y-23442164D01*
X45243916Y-23380412D01*
X45134900Y-23358727D01*
X44614992Y-23358727D01*
X44783040Y-23289119D01*
X45030419Y-23041740D01*
X45164300Y-22718523D01*
X45164300Y-22368677D01*
X45030419Y-22045460D01*
X44802359Y-21817400D01*
X46307441Y-21817400D01*
X46079381Y-22045460D01*
G36*
X19210541Y-17205497D02*
X19147519Y-17373877D01*
X19786600Y-18012958D01*
X20425681Y-17373877D01*
X20362659Y-17205497D01*
X20146870Y-17118400D01*
X22009847Y-17118400D01*
X22009847Y-18349120D01*
X22031532Y-18458136D01*
X22070596Y-18516600D01*
X20724129Y-18516600D01*
X20819418Y-18280514D01*
X20815696Y-17870373D01*
X20665903Y-17508741D01*
X20497523Y-17445719D01*
X19858442Y-18084800D01*
X19872585Y-18098943D01*
X19800743Y-18170785D01*
X19786600Y-18156642D01*
X19772458Y-18170785D01*
X19700616Y-18098943D01*
X19714758Y-18084800D01*
X19075677Y-17445719D01*
X18907297Y-17508741D01*
X18753782Y-17889086D01*
X18757504Y-18299227D01*
X18847543Y-18516600D01*
X18134400Y-18516600D01*
X18134400Y-17118400D01*
X19420812Y-17118400D01*
X19210541Y-17205497D01*
X19210541Y-17205497D01*
G37*
X19210541Y-17205497D02*
X19147519Y-17373877D01*
X19786600Y-18012958D01*
X20425681Y-17373877D01*
X20362659Y-17205497D01*
X20146870Y-17118400D01*
X22009847Y-17118400D01*
X22009847Y-18349120D01*
X22031532Y-18458136D01*
X22070596Y-18516600D01*
X20724129Y-18516600D01*
X20819418Y-18280514D01*
X20815696Y-17870373D01*
X20665903Y-17508741D01*
X20497523Y-17445719D01*
X19858442Y-18084800D01*
X19872585Y-18098943D01*
X19800743Y-18170785D01*
X19786600Y-18156642D01*
X19772458Y-18170785D01*
X19700616Y-18098943D01*
X19714758Y-18084800D01*
X19075677Y-17445719D01*
X18907297Y-17508741D01*
X18753782Y-17889086D01*
X18757504Y-18299227D01*
X18847543Y-18516600D01*
X18134400Y-18516600D01*
X18134400Y-17118400D01*
X19420812Y-17118400D01*
X19210541Y-17205497D01*
G04 #@! TD*
M02*
