  0
SECTION
  2
HEADER
  9
$ANGBASE
  50
0.0
  9
$ANGDIR
  70
  1
  9
$MEASUREMENT
  70
0
  0
ENDSEC
  0
SECTION
  2
TABLES
  0
TABLE
  2
LTYPE
  70
4
  0
LTYPE
  5
40F
  2
CONTINUOUS
  70
0
  3
Solid line
  72
65
  73
0
  40
0.0
  0
LTYPE
  5
410
  2
DASHDOT
 70
0
  3
Dash Dot ____ _ ____ _
 72
65
 73
4
 40
2.0
 49
1.25
 49
-0.25
 49
0.25
 49
-0.25
  0
LTYPE
  5
411
  2
DASHED
 70
0
  3
Dashed __ __ __ __ __
 72
65
 73
2
 40
0.75
 49
0.5
 49
-0.25
  0
LTYPE
  5
43B
  2
DOTTED
 70
0
  3
Dotted .  .  .  .
 72
65
 73
2
 40
0.2
 49
0.0
 49
-0.2
  0
ENDTAB
  0
TABLE
  2
STYLE
  70
4
  0
STYLE
  2
KICAD
  70
0
  40
0
  41
1
  42
1
  50
0
  71
0
  3
isocp.shx
  0
STYLE
  2
KICADB
  70
0
  40
0
  41
1
  42
1
  50
0
  71
0
  3
isocp.shx
  0
STYLE
  2
KICADI
  70
0
  40
0
  41
1
  42
1
  50
15
  71
0
  3
isocp.shx
  0
STYLE
  2
KICADBI
  70
0
  40
0
  41
1
  42
1
  50
15
  71
0
  3
isocp.shx
  0
ENDTAB
  0
TABLE
  2
LAYER
  70
30
  0
LAYER
  2
BLACK
  70
0
  62
7
  6
CONTINUOUS
  0
LAYER
  2
GRAY1
  70
0
  62
251
  6
CONTINUOUS
  0
LAYER
  2
GRAY2
  70
0
  62
8
  6
CONTINUOUS
  0
LAYER
  2
GRAY3
  70
0
  62
9
  6
CONTINUOUS
  0
LAYER
  2
WHITE
  70
0
  62
7
  6
CONTINUOUS
  0
LAYER
  2
LYELLOW
  70
0
  62
51
  6
CONTINUOUS
  0
LAYER
  2
BLUE1
  70
0
  62
178
  6
CONTINUOUS
  0
LAYER
  2
GREEN1
  70
0
  62
98
  6
CONTINUOUS
  0
LAYER
  2
CYAN1
  70
0
  62
138
  6
CONTINUOUS
  0
LAYER
  2
RED1
  70
0
  62
18
  6
CONTINUOUS
  0
LAYER
  2
MAGENTA1
  70
0
  62
228
  6
CONTINUOUS
  0
LAYER
  2
BROWN1
  70
0
  62
58
  6
CONTINUOUS
  0
LAYER
  2
BLUE2
  70
0
  62
5
  6
CONTINUOUS
  0
LAYER
  2
GREEN2
  70
0
  62
3
  6
CONTINUOUS
  0
LAYER
  2
CYAN2
  70
0
  62
4
  6
CONTINUOUS
  0
LAYER
  2
RED2
  70
0
  62
1
  6
CONTINUOUS
  0
LAYER
  2
MAGENTA2
  70
0
  62
6
  6
CONTINUOUS
  0
LAYER
  2
BROWN2
  70
0
  62
54
  6
CONTINUOUS
  0
LAYER
  2
BLUE3
  70
0
  62
171
  6
CONTINUOUS
  0
LAYER
  2
GREEN3
  70
0
  62
91
  6
CONTINUOUS
  0
LAYER
  2
CYAN3
  70
0
  62
131
  6
CONTINUOUS
  0
LAYER
  2
RED3
  70
0
  62
11
  6
CONTINUOUS
  0
LAYER
  2
MAGENTA3
  70
0
  62
221
  6
CONTINUOUS
  0
LAYER
  2
YELLOW3
  70
0
  62
2
  6
CONTINUOUS
  0
LAYER
  2
BLUE4
  70
0
  62
5
  6
CONTINUOUS
  0
LAYER
  2
GREEN4
  70
0
  62
3
  6
CONTINUOUS
  0
LAYER
  2
CYAN4
  70
0
  62
4
  6
CONTINUOUS
  0
LAYER
  2
RED4
  70
0
  62
1
  6
CONTINUOUS
  0
LAYER
  2
MAGENTA4
  70
0
  62
6
  6
CONTINUOUS
  0
LAYER
  2
YELLOW4
  70
0
  62
2
  6
CONTINUOUS
  0
ENDTAB
  0
ENDSEC
  0
SECTION
  2
ENTITIES
0
LINE
8
BLACK
6
CONTINUOUS
10
113.398
20
-61.6643
11
113.353
21
-61.5971
0
LINE
8
BLACK
6
CONTINUOUS
10
113.353
20
-61.5971
11
113.286
21
-61.5522
0
LINE
8
BLACK
6
CONTINUOUS
10
113.286
20
-61.5522
11
113.199
21
-61.5349
0
LINE
8
BLACK
6
CONTINUOUS
10
113.199
20
-61.5349
11
112.687
21
-61.5349
0
LINE
8
BLACK
6
CONTINUOUS
10
112.687
20
-61.5349
11
112.676
21
-61.5329
0
LINE
8
BLACK
6
CONTINUOUS
10
112.676
20
-61.5329
11
112.664
21
-61.5314
0
LINE
8
BLACK
6
CONTINUOUS
10
112.664
20
-61.5314
11
112.663
21
-61.5306
0
LINE
8
BLACK
6
CONTINUOUS
10
112.663
20
-61.5306
11
112.661
21
-61.5303
0
LINE
8
BLACK
6
CONTINUOUS
10
112.661
20
-61.5303
11
112.651
21
-61.5245
0
LINE
8
BLACK
6
CONTINUOUS
10
112.651
20
-61.5245
11
112.641
21
-61.5192
0
LINE
8
BLACK
6
CONTINUOUS
10
112.641
20
-61.5192
11
112.639
21
-61.5179
0
LINE
8
BLACK
6
CONTINUOUS
10
112.639
20
-61.5179
11
112.638
21
-61.5171
0
LINE
8
BLACK
6
CONTINUOUS
10
112.638
20
-61.5171
11
112.631
21
-61.5082
0
LINE
8
BLACK
6
CONTINUOUS
10
112.631
20
-61.5082
11
112.623
21
-61.4997
0
LINE
8
BLACK
6
CONTINUOUS
10
112.623
20
-61.4997
11
112.622
21
-61.4981
0
LINE
8
BLACK
6
CONTINUOUS
10
112.622
20
-61.4981
11
112.621
21
-61.4968
0
LINE
8
BLACK
6
CONTINUOUS
10
112.621
20
-61.4968
11
112.617
21
-61.4859
0
LINE
8
BLACK
6
CONTINUOUS
10
112.617
20
-61.4859
11
112.613
21
-61.4752
0
LINE
8
BLACK
6
CONTINUOUS
10
112.613
20
-61.4752
11
112.613
21
-61.4735
0
LINE
8
BLACK
6
CONTINUOUS
10
112.613
20
-61.4735
11
112.612
21
-61.472
0
LINE
8
BLACK
6
CONTINUOUS
10
112.612
20
-61.472
11
112.612
21
-61.4604
0
LINE
8
BLACK
6
CONTINUOUS
10
112.612
20
-61.4604
11
112.611
21
-61.4488
0
LINE
8
BLACK
6
CONTINUOUS
10
112.611
20
-61.4488
11
112.612
21
-61.4472
0
LINE
8
BLACK
6
CONTINUOUS
10
112.612
20
-61.4472
11
112.612
21
-61.4455
0
LINE
8
BLACK
6
CONTINUOUS
10
112.612
20
-61.4455
11
112.616
21
-61.4346
0
LINE
8
BLACK
6
CONTINUOUS
10
112.616
20
-61.4346
11
112.619
21
-61.4235
0
LINE
8
BLACK
6
CONTINUOUS
10
112.619
20
-61.4235
11
112.62
21
-61.4222
0
LINE
8
BLACK
6
CONTINUOUS
10
112.62
20
-61.4222
11
112.621
21
-61.4206
0
LINE
8
BLACK
6
CONTINUOUS
10
112.621
20
-61.4206
11
112.628
21
-61.4118
0
LINE
8
BLACK
6
CONTINUOUS
10
112.628
20
-61.4118
11
112.636
21
-61.4025
0
LINE
8
BLACK
6
CONTINUOUS
10
112.636
20
-61.4025
11
112.637
21
-61.4016
0
LINE
8
BLACK
6
CONTINUOUS
10
112.637
20
-61.4016
11
112.638
21
-61.4004
0
LINE
8
BLACK
6
CONTINUOUS
10
112.638
20
-61.4004
11
112.648
21
-61.3946
0
LINE
8
BLACK
6
CONTINUOUS
10
112.648
20
-61.3946
11
112.658
21
-61.3883
0
LINE
8
BLACK
6
CONTINUOUS
10
112.658
20
-61.3883
11
112.812
21
-61.3245
0
LINE
8
BLACK
6
CONTINUOUS
10
112.812
20
-61.3245
11
113.038
21
-61.0986
0
LINE
8
BLACK
6
CONTINUOUS
10
113.038
20
-61.0986
11
113.16
21
-60.8034
0
LINE
8
BLACK
6
CONTINUOUS
10
113.16
20
-60.8034
11
113.16
21
-60.4838
0
LINE
8
BLACK
6
CONTINUOUS
10
113.16
20
-60.4838
11
113.038
21
-60.1886
0
LINE
8
BLACK
6
CONTINUOUS
10
113.038
20
-60.1886
11
112.82
21
-59.9713
0
LINE
8
BLACK
6
CONTINUOUS
10
112.82
20
-59.9713
11
112.815
21
-59.9631
0
LINE
8
BLACK
6
CONTINUOUS
10
112.815
20
-59.9631
11
112.808
21
-59.9555
0
LINE
8
BLACK
6
CONTINUOUS
10
112.808
20
-59.9555
11
112.807
21
-59.9524
0
LINE
8
BLACK
6
CONTINUOUS
10
112.807
20
-59.9524
11
112.805
21
-59.9496
0
LINE
8
BLACK
6
CONTINUOUS
10
112.805
20
-59.9496
11
112.803
21
-59.94
0
LINE
8
BLACK
6
CONTINUOUS
10
112.803
20
-59.94
11
112.799
21
-59.9306
0
LINE
8
BLACK
6
CONTINUOUS
10
112.799
20
-59.9306
11
112.799
21
-59.9273
0
LINE
8
BLACK
6
CONTINUOUS
10
112.799
20
-59.9273
11
112.798
21
-59.924
0
LINE
8
BLACK
6
CONTINUOUS
10
112.798
20
-59.924
11
112.799
21
-59.9141
0
LINE
8
BLACK
6
CONTINUOUS
10
112.799
20
-59.9141
11
112.799
21
-59.9042
0
LINE
8
BLACK
6
CONTINUOUS
10
112.799
20
-59.9042
11
112.8
21
-59.901
0
LINE
8
BLACK
6
CONTINUOUS
10
112.8
20
-59.901
11
112.801
21
-59.8977
0
LINE
8
BLACK
6
CONTINUOUS
10
112.801
20
-59.8977
11
112.805
21
-59.8887
0
LINE
8
BLACK
6
CONTINUOUS
10
112.805
20
-59.8887
11
112.808
21
-59.8793
0
LINE
8
BLACK
6
CONTINUOUS
10
112.808
20
-59.8793
11
112.811
21
-59.8767
0
LINE
8
BLACK
6
CONTINUOUS
10
112.811
20
-59.8767
11
112.812
21
-59.8737
0
LINE
8
BLACK
6
CONTINUOUS
10
112.812
20
-59.8737
11
112.819
21
-59.8667
0
LINE
8
BLACK
6
CONTINUOUS
10
112.819
20
-59.8667
11
112.825
21
-59.859
0
LINE
8
BLACK
6
CONTINUOUS
10
112.825
20
-59.859
11
112.828
21
-59.8573
0
LINE
8
BLACK
6
CONTINUOUS
10
112.828
20
-59.8573
11
112.831
21
-59.855
0
LINE
8
BLACK
6
CONTINUOUS
10
112.831
20
-59.855
11
112.84
21
-59.8508
0
LINE
8
BLACK
6
CONTINUOUS
10
112.84
20
-59.8508
11
112.848
21
-59.8458
0
LINE
8
BLACK
6
CONTINUOUS
10
112.848
20
-59.8458
11
112.852
21
-59.8452
0
LINE
8
BLACK
6
CONTINUOUS
10
112.852
20
-59.8452
11
112.855
21
-59.8438
0
LINE
8
BLACK
6
CONTINUOUS
10
112.855
20
-59.8438
11
112.865
21
-59.8429
0
LINE
8
BLACK
6
CONTINUOUS
10
112.865
20
-59.8429
11
112.874
21
-59.8412
0
LINE
8
BLACK
6
CONTINUOUS
10
112.874
20
-59.8412
11
114.379
21
-59.8412
0
LINE
8
BLACK
6
CONTINUOUS
10
114.379
20
-59.8412
11
114.389
21
-59.8429
0
LINE
8
BLACK
6
CONTINUOUS
10
114.389
20
-59.8429
11
114.399
21
-59.8438
0
LINE
8
BLACK
6
CONTINUOUS
10
114.399
20
-59.8438
11
114.402
21
-59.8452
0
LINE
8
BLACK
6
CONTINUOUS
10
114.402
20
-59.8452
11
114.406
21
-59.8458
0
LINE
8
BLACK
6
CONTINUOUS
10
114.406
20
-59.8458
11
114.414
21
-59.8508
0
LINE
8
BLACK
6
CONTINUOUS
10
114.414
20
-59.8508
11
114.423
21
-59.855
0
LINE
8
BLACK
6
CONTINUOUS
10
114.423
20
-59.855
11
114.426
21
-59.8574
0
LINE
8
BLACK
6
CONTINUOUS
10
114.426
20
-59.8574
11
114.428
21
-59.859
0
LINE
8
BLACK
6
CONTINUOUS
10
114.428
20
-59.859
11
114.435
21
-59.8667
0
LINE
8
BLACK
6
CONTINUOUS
10
114.435
20
-59.8667
11
114.442
21
-59.8737
0
LINE
8
BLACK
6
CONTINUOUS
10
114.442
20
-59.8737
11
114.443
21
-59.8767
0
LINE
8
BLACK
6
CONTINUOUS
10
114.443
20
-59.8767
11
114.445
21
-59.8793
0
LINE
8
BLACK
6
CONTINUOUS
10
114.445
20
-59.8793
11
114.449
21
-59.8887
0
LINE
8
BLACK
6
CONTINUOUS
10
114.449
20
-59.8887
11
114.453
21
-59.8977
0
LINE
8
BLACK
6
CONTINUOUS
10
114.453
20
-59.8977
11
114.453
21
-59.901
0
LINE
8
BLACK
6
CONTINUOUS
10
114.453
20
-59.901
11
114.454
21
-59.9042
0
LINE
8
BLACK
6
CONTINUOUS
10
114.454
20
-59.9042
11
114.454
21
-59.9141
0
LINE
8
BLACK
6
CONTINUOUS
10
114.454
20
-59.9141
11
114.455
21
-59.924
0
LINE
8
BLACK
6
CONTINUOUS
10
114.455
20
-59.924
11
114.454
21
-59.9273
0
LINE
8
BLACK
6
CONTINUOUS
10
114.454
20
-59.9273
11
114.454
21
-59.9306
0
LINE
8
BLACK
6
CONTINUOUS
10
114.454
20
-59.9306
11
114.451
21
-59.94
0
LINE
8
BLACK
6
CONTINUOUS
10
114.451
20
-59.94
11
114.449
21
-59.9496
0
LINE
8
BLACK
6
CONTINUOUS
10
114.449
20
-59.9496
11
114.447
21
-59.9523
0
LINE
8
BLACK
6
CONTINUOUS
10
114.447
20
-59.9523
11
114.445
21
-59.9555
0
LINE
8
BLACK
6
CONTINUOUS
10
114.445
20
-59.9555
11
114.439
21
-59.9631
0
LINE
8
BLACK
6
CONTINUOUS
10
114.439
20
-59.9631
11
114.433
21
-59.9713
0
LINE
8
BLACK
6
CONTINUOUS
10
114.433
20
-59.9713
11
114.216
21
-60.1886
0
LINE
8
BLACK
6
CONTINUOUS
10
114.216
20
-60.1886
11
114.094
21
-60.4838
0
LINE
8
BLACK
6
CONTINUOUS
10
114.094
20
-60.4838
11
114.094
21
-60.8034
0
LINE
8
BLACK
6
CONTINUOUS
10
114.094
20
-60.8034
11
114.216
21
-61.0986
0
LINE
8
BLACK
6
CONTINUOUS
10
114.216
20
-61.0986
11
114.426
21
-61.3087
0
LINE
8
BLACK
6
CONTINUOUS
10
114.426
20
-61.3087
11
114.432
21
-61.3169
0
LINE
8
BLACK
6
CONTINUOUS
10
114.432
20
-61.3169
11
114.438
21
-61.3245
0
LINE
8
BLACK
6
CONTINUOUS
10
114.438
20
-61.3245
11
114.439
21
-61.3276
0
LINE
8
BLACK
6
CONTINUOUS
10
114.439
20
-61.3276
11
114.441
21
-61.3304
0
LINE
8
BLACK
6
CONTINUOUS
10
114.441
20
-61.3304
11
114.444
21
-61.34
0
LINE
8
BLACK
6
CONTINUOUS
10
114.444
20
-61.34
11
114.447
21
-61.3494
0
LINE
8
BLACK
6
CONTINUOUS
10
114.447
20
-61.3494
11
114.447
21
-61.3527
0
LINE
8
BLACK
6
CONTINUOUS
10
114.447
20
-61.3527
11
114.448
21
-61.356
0
LINE
8
BLACK
6
CONTINUOUS
10
114.448
20
-61.356
11
114.447
21
-61.3659
0
LINE
8
BLACK
6
CONTINUOUS
10
114.447
20
-61.3659
11
114.447
21
-61.3758
0
LINE
8
BLACK
6
CONTINUOUS
10
114.447
20
-61.3758
11
114.446
21
-61.379
0
LINE
8
BLACK
6
CONTINUOUS
10
114.446
20
-61.379
11
114.446
21
-61.3823
0
LINE
8
BLACK
6
CONTINUOUS
10
114.446
20
-61.3823
11
114.442
21
-61.3913
0
LINE
8
BLACK
6
CONTINUOUS
10
114.442
20
-61.3913
11
114.438
21
-61.4007
0
LINE
8
BLACK
6
CONTINUOUS
10
114.438
20
-61.4007
11
114.436
21
-61.4033
0
LINE
8
BLACK
6
CONTINUOUS
10
114.436
20
-61.4033
11
114.435
21
-61.4063
0
LINE
8
BLACK
6
CONTINUOUS
10
114.435
20
-61.4063
11
114.428
21
-61.4133
0
LINE
8
BLACK
6
CONTINUOUS
10
114.428
20
-61.4133
11
114.421
21
-61.421
0
LINE
8
BLACK
6
CONTINUOUS
10
114.421
20
-61.421
11
114.418
21
-61.4227
0
LINE
8
BLACK
6
CONTINUOUS
10
114.418
20
-61.4227
11
114.416
21
-61.425
0
LINE
8
BLACK
6
CONTINUOUS
10
114.416
20
-61.425
11
114.407
21
-61.4292
0
LINE
8
BLACK
6
CONTINUOUS
10
114.407
20
-61.4292
11
114.398
21
-61.4342
0
LINE
8
BLACK
6
CONTINUOUS
10
114.398
20
-61.4342
11
114.395
21
-61.4348
0
LINE
8
BLACK
6
CONTINUOUS
10
114.395
20
-61.4348
11
114.392
21
-61.4362
0
LINE
8
BLACK
6
CONTINUOUS
10
114.392
20
-61.4362
11
114.382
21
-61.4371
0
LINE
8
BLACK
6
CONTINUOUS
10
114.382
20
-61.4371
11
114.372
21
-61.4388
0
LINE
8
BLACK
6
CONTINUOUS
10
114.372
20
-61.4388
11
113.986
21
-61.4388
0
LINE
8
BLACK
6
CONTINUOUS
10
113.986
20
-61.4388
11
113.874
21
-61.4852
0
LINE
8
BLACK
6
CONTINUOUS
10
113.874
20
-61.4852
11
113.789
21
-61.5709
0
LINE
8
BLACK
6
CONTINUOUS
10
113.789
20
-61.5709
11
113.742
21
-61.683
0
LINE
8
BLACK
6
CONTINUOUS
10
113.742
20
-61.683
11
113.742
21
-62.916
0
LINE
8
BLACK
6
CONTINUOUS
10
113.742
20
-62.916
11
113.793
21
-62.9666
0
LINE
8
BLACK
6
CONTINUOUS
10
113.793
20
-62.9666
11
114.047
21
-62.9666
0
LINE
8
BLACK
6
CONTINUOUS
10
114.047
20
-62.9666
11
114.047
21
-61.7436
0
LINE
8
BLACK
6
CONTINUOUS
10
114.047
20
-61.7436
11
115.747
21
-61.7436
0
LINE
8
BLACK
6
CONTINUOUS
10
115.747
20
-61.7436
11
115.747
21
-62.9666
0
LINE
8
BLACK
6
CONTINUOUS
10
115.747
20
-62.9666
11
116.001
21
-62.9666
0
LINE
8
BLACK
6
CONTINUOUS
10
116.001
20
-62.9666
11
116.052
21
-62.916
0
LINE
8
BLACK
6
CONTINUOUS
10
116.052
20
-62.916
11
116.052
21
-61.683
0
LINE
8
BLACK
6
CONTINUOUS
10
116.052
20
-61.683
11
116.005
21
-61.5709
0
LINE
8
BLACK
6
CONTINUOUS
10
116.005
20
-61.5709
11
115.92
21
-61.4852
0
LINE
8
BLACK
6
CONTINUOUS
10
115.92
20
-61.4852
11
115.808
21
-61.4388
0
LINE
8
BLACK
6
CONTINUOUS
10
115.808
20
-61.4388
11
115.422
21
-61.4388
0
LINE
8
BLACK
6
CONTINUOUS
10
115.422
20
-61.4388
11
115.412
21
-61.4371
0
LINE
8
BLACK
6
CONTINUOUS
10
115.412
20
-61.4371
11
115.402
21
-61.4362
0
LINE
8
BLACK
6
CONTINUOUS
10
115.402
20
-61.4362
11
115.399
21
-61.4348
0
LINE
8
BLACK
6
CONTINUOUS
10
115.399
20
-61.4348
11
115.395
21
-61.4342
0
LINE
8
BLACK
6
CONTINUOUS
10
115.395
20
-61.4342
11
115.387
21
-61.4292
0
LINE
8
BLACK
6
CONTINUOUS
10
115.387
20
-61.4292
11
115.378
21
-61.425
0
LINE
8
BLACK
6
CONTINUOUS
10
115.378
20
-61.425
11
115.375
21
-61.4227
0
LINE
8
BLACK
6
CONTINUOUS
10
115.375
20
-61.4227
11
115.373
21
-61.421
0
LINE
8
BLACK
6
CONTINUOUS
10
115.373
20
-61.421
11
115.366
21
-61.4133
0
LINE
8
BLACK
6
CONTINUOUS
10
115.366
20
-61.4133
11
115.359
21
-61.4063
0
LINE
8
BLACK
6
CONTINUOUS
10
115.359
20
-61.4063
11
115.358
21
-61.4033
0
LINE
8
BLACK
6
CONTINUOUS
10
115.358
20
-61.4033
11
115.356
21
-61.4007
0
LINE
8
BLACK
6
CONTINUOUS
10
115.356
20
-61.4007
11
115.352
21
-61.3913
0
LINE
8
BLACK
6
CONTINUOUS
10
115.352
20
-61.3913
11
115.348
21
-61.3823
0
LINE
8
BLACK
6
CONTINUOUS
10
115.348
20
-61.3823
11
115.348
21
-61.379
0
LINE
8
BLACK
6
CONTINUOUS
10
115.348
20
-61.379
11
115.347
21
-61.3758
0
LINE
8
BLACK
6
CONTINUOUS
10
115.347
20
-61.3758
11
115.347
21
-61.3659
0
LINE
8
BLACK
6
CONTINUOUS
10
115.347
20
-61.3659
11
115.346
21
-61.356
0
LINE
8
BLACK
6
CONTINUOUS
10
115.346
20
-61.356
11
115.347
21
-61.3527
0
LINE
8
BLACK
6
CONTINUOUS
10
115.347
20
-61.3527
11
115.347
21
-61.3494
0
LINE
8
BLACK
6
CONTINUOUS
10
115.347
20
-61.3494
11
115.35
21
-61.34
0
LINE
8
BLACK
6
CONTINUOUS
10
115.35
20
-61.34
11
115.352
21
-61.3304
0
LINE
8
BLACK
6
CONTINUOUS
10
115.352
20
-61.3304
11
115.354
21
-61.3276
0
LINE
8
BLACK
6
CONTINUOUS
10
115.354
20
-61.3276
11
115.356
21
-61.3245
0
LINE
8
BLACK
6
CONTINUOUS
10
115.356
20
-61.3245
11
115.362
21
-61.3169
0
LINE
8
BLACK
6
CONTINUOUS
10
115.362
20
-61.3169
11
115.368
21
-61.3087
0
LINE
8
BLACK
6
CONTINUOUS
10
115.368
20
-61.3087
11
115.578
21
-61.0986
0
LINE
8
BLACK
6
CONTINUOUS
10
115.578
20
-61.0986
11
115.7
21
-60.8034
0
LINE
8
BLACK
6
CONTINUOUS
10
115.7
20
-60.8034
11
115.7
21
-60.4838
0
LINE
8
BLACK
6
CONTINUOUS
10
115.7
20
-60.4838
11
115.578
21
-60.1886
0
LINE
8
BLACK
6
CONTINUOUS
10
115.578
20
-60.1886
11
115.36
21
-59.9713
0
LINE
8
BLACK
6
CONTINUOUS
10
115.36
20
-59.9713
11
115.355
21
-59.9631
0
LINE
8
BLACK
6
CONTINUOUS
10
115.355
20
-59.9631
11
115.348
21
-59.9555
0
LINE
8
BLACK
6
CONTINUOUS
10
115.348
20
-59.9555
11
115.347
21
-59.9524
0
LINE
8
BLACK
6
CONTINUOUS
10
115.347
20
-59.9524
11
115.345
21
-59.9496
0
LINE
8
BLACK
6
CONTINUOUS
10
115.345
20
-59.9496
11
115.343
21
-59.94
0
LINE
8
BLACK
6
CONTINUOUS
10
115.343
20
-59.94
11
115.339
21
-59.9306
0
LINE
8
BLACK
6
CONTINUOUS
10
115.339
20
-59.9306
11
115.339
21
-59.9273
0
LINE
8
BLACK
6
CONTINUOUS
10
115.339
20
-59.9273
11
115.338
21
-59.924
0
LINE
8
BLACK
6
CONTINUOUS
10
115.338
20
-59.924
11
115.339
21
-59.9141
0
LINE
8
BLACK
6
CONTINUOUS
10
115.339
20
-59.9141
11
115.339
21
-59.9042
0
LINE
8
BLACK
6
CONTINUOUS
10
115.339
20
-59.9042
11
115.34
21
-59.901
0
LINE
8
BLACK
6
CONTINUOUS
10
115.34
20
-59.901
11
115.341
21
-59.8977
0
LINE
8
BLACK
6
CONTINUOUS
10
115.341
20
-59.8977
11
115.345
21
-59.8887
0
LINE
8
BLACK
6
CONTINUOUS
10
115.345
20
-59.8887
11
115.348
21
-59.8793
0
LINE
8
BLACK
6
CONTINUOUS
10
115.348
20
-59.8793
11
115.351
21
-59.8767
0
LINE
8
BLACK
6
CONTINUOUS
10
115.351
20
-59.8767
11
115.352
21
-59.8737
0
LINE
8
BLACK
6
CONTINUOUS
10
115.352
20
-59.8737
11
115.359
21
-59.8667
0
LINE
8
BLACK
6
CONTINUOUS
10
115.359
20
-59.8667
11
115.365
21
-59.859
0
LINE
8
BLACK
6
CONTINUOUS
10
115.365
20
-59.859
11
115.368
21
-59.8573
0
LINE
8
BLACK
6
CONTINUOUS
10
115.368
20
-59.8573
11
115.371
21
-59.855
0
LINE
8
BLACK
6
CONTINUOUS
10
115.371
20
-59.855
11
115.38
21
-59.8508
0
LINE
8
BLACK
6
CONTINUOUS
10
115.38
20
-59.8508
11
115.388
21
-59.8458
0
LINE
8
BLACK
6
CONTINUOUS
10
115.388
20
-59.8458
11
115.392
21
-59.8452
0
LINE
8
BLACK
6
CONTINUOUS
10
115.392
20
-59.8452
11
115.395
21
-59.8438
0
LINE
8
BLACK
6
CONTINUOUS
10
115.395
20
-59.8438
11
115.405
21
-59.8429
0
LINE
8
BLACK
6
CONTINUOUS
10
115.405
20
-59.8429
11
115.414
21
-59.8412
0
LINE
8
BLACK
6
CONTINUOUS
10
115.414
20
-59.8412
11
118.306
21
-59.8412
0
LINE
8
BLACK
6
CONTINUOUS
10
118.306
20
-59.8412
11
118.317
21
-59.8432
0
LINE
8
BLACK
6
CONTINUOUS
10
118.317
20
-59.8432
11
118.328
21
-59.8445
0
LINE
8
BLACK
6
CONTINUOUS
10
118.328
20
-59.8445
11
118.33
21
-59.8454
0
LINE
8
BLACK
6
CONTINUOUS
10
118.33
20
-59.8454
11
118.332
21
-59.8458
0
LINE
8
BLACK
6
CONTINUOUS
10
118.332
20
-59.8458
11
118.342
21
-59.8514
0
LINE
8
BLACK
6
CONTINUOUS
10
118.342
20
-59.8514
11
118.352
21
-59.8565
0
LINE
8
BLACK
6
CONTINUOUS
10
118.352
20
-59.8565
11
118.353
21
-59.858
0
LINE
8
BLACK
6
CONTINUOUS
10
118.353
20
-59.858
11
118.355
21
-59.859
0
LINE
8
BLACK
6
CONTINUOUS
10
118.355
20
-59.859
11
118.362
21
-59.8677
0
LINE
8
BLACK
6
CONTINUOUS
10
118.362
20
-59.8677
11
118.37
21
-59.8759
0
LINE
8
BLACK
6
CONTINUOUS
10
118.37
20
-59.8759
11
118.371
21
-59.8777
0
LINE
8
BLACK
6
CONTINUOUS
10
118.371
20
-59.8777
11
118.372
21
-59.8793
0
LINE
8
BLACK
6
CONTINUOUS
10
118.372
20
-59.8793
11
118.376
21
-59.8899
0
LINE
8
BLACK
6
CONTINUOUS
10
118.376
20
-59.8899
11
118.38
21
-59.9002
0
LINE
8
BLACK
6
CONTINUOUS
10
118.38
20
-59.9002
11
118.381
21
-59.9023
0
LINE
8
BLACK
6
CONTINUOUS
10
118.381
20
-59.9023
11
118.381
21
-59.9042
0
LINE
8
BLACK
6
CONTINUOUS
10
118.381
20
-59.9042
11
118.381
21
-59.9154
0
LINE
8
BLACK
6
CONTINUOUS
10
118.381
20
-59.9154
11
118.382
21
-59.9267
0
LINE
8
BLACK
6
CONTINUOUS
10
118.382
20
-59.9267
11
118.381
21
-59.9286
0
LINE
8
BLACK
6
CONTINUOUS
10
118.381
20
-59.9286
11
118.381
21
-59.9306
0
LINE
8
BLACK
6
CONTINUOUS
10
118.381
20
-59.9306
11
118.377
21
-59.9412
0
LINE
8
BLACK
6
CONTINUOUS
10
118.377
20
-59.9412
11
118.374
21
-59.952
0
LINE
8
BLACK
6
CONTINUOUS
10
118.374
20
-59.952
11
118.373
21
-59.9536
0
LINE
8
BLACK
6
CONTINUOUS
10
118.373
20
-59.9536
11
118.372
21
-59.9555
0
LINE
8
BLACK
6
CONTINUOUS
10
118.372
20
-59.9555
11
118.365
21
-59.9641
0
LINE
8
BLACK
6
CONTINUOUS
10
118.365
20
-59.9641
11
118.358
21
-59.9731
0
LINE
8
BLACK
6
CONTINUOUS
10
118.358
20
-59.9731
11
118.01
21
-60.2984
0
LINE
8
BLACK
6
CONTINUOUS
10
118.01
20
-60.2984
11
118.008
21
-60.2994
0
LINE
8
BLACK
6
CONTINUOUS
10
118.008
20
-60.2994
11
118.007
21
-60.3007
0
LINE
8
BLACK
6
CONTINUOUS
10
118.007
20
-60.3007
11
117.505
21
-60.7276
0
LINE
8
BLACK
6
CONTINUOUS
10
117.505
20
-60.7276
11
117.497
21
-60.7364
0
LINE
8
BLACK
6
CONTINUOUS
10
117.497
20
-60.7364
11
117.248
21
-61.1345
0
LINE
8
BLACK
6
CONTINUOUS
10
117.248
20
-61.1345
11
117.245
21
-61.1415
0
LINE
8
BLACK
6
CONTINUOUS
10
117.245
20
-61.1415
11
116.893
21
-62.096
0
LINE
8
BLACK
6
CONTINUOUS
10
116.893
20
-62.096
11
116.891
21
-62.1104
0
LINE
8
BLACK
6
CONTINUOUS
10
116.891
20
-62.1104
11
116.916
21
-62.8111
0
LINE
8
BLACK
6
CONTINUOUS
10
116.916
20
-62.8111
11
116.917
21
-62.8172
0
LINE
8
BLACK
6
CONTINUOUS
10
116.917
20
-62.8172
11
116.967
21
-63.0665
0
LINE
8
BLACK
6
CONTINUOUS
10
116.967
20
-63.0665
11
116.967
21
-63.0699
0
LINE
8
BLACK
6
CONTINUOUS
10
116.967
20
-63.0699
11
117.169
21
-63.7489
0
LINE
8
BLACK
6
CONTINUOUS
10
117.169
20
-63.7489
11
117.173
21
-63.7585
0
LINE
8
BLACK
6
CONTINUOUS
10
117.173
20
-63.7585
11
117.574
21
-64.3852
0
LINE
8
BLACK
6
CONTINUOUS
10
117.574
20
-64.3852
11
117.58
21
-64.3922
0
LINE
8
BLACK
6
CONTINUOUS
10
117.58
20
-64.3922
11
118.132
21
-64.919
0
LINE
8
BLACK
6
CONTINUOUS
10
118.132
20
-64.919
11
118.14
21
-64.9248
0
LINE
8
BLACK
6
CONTINUOUS
10
118.14
20
-64.9248
11
118.815
21
-65.3001
0
LINE
8
BLACK
6
CONTINUOUS
10
118.815
20
-65.3001
11
118.828
21
-65.3044
0
LINE
8
BLACK
6
CONTINUOUS
10
118.828
20
-65.3044
11
119.632
21
-65.43
0
LINE
8
BLACK
6
CONTINUOUS
10
119.632
20
-65.43
11
119.636
21
-65.4305
0
LINE
8
BLACK
6
CONTINUOUS
10
119.636
20
-65.4305
11
120.599
21
-65.4558
0
LINE
8
BLACK
6
CONTINUOUS
10
120.599
20
-65.4558
11
120.6
21
-65.4558
0
LINE
8
BLACK
6
CONTINUOUS
10
120.6
20
-65.4558
11
122.455
21
-65.4558
0
LINE
8
BLACK
6
CONTINUOUS
10
122.455
20
-65.4558
11
122.461
21
-65.457
0
LINE
8
BLACK
6
CONTINUOUS
10
122.461
20
-65.457
11
122.468
21
-65.457
0
LINE
8
BLACK
6
CONTINUOUS
10
122.468
20
-65.457
11
122.474
21
-65.4592
0
LINE
8
BLACK
6
CONTINUOUS
10
122.474
20
-65.4592
11
122.481
21
-65.4604
0
LINE
8
BLACK
6
CONTINUOUS
10
122.481
20
-65.4604
11
122.486
21
-65.4637
0
LINE
8
BLACK
6
CONTINUOUS
10
122.486
20
-65.4637
11
122.493
21
-65.466
0
LINE
8
BLACK
6
CONTINUOUS
10
122.493
20
-65.466
11
122.498
21
-65.4703
0
LINE
8
BLACK
6
CONTINUOUS
10
122.498
20
-65.4703
11
122.504
21
-65.4736
0
LINE
8
BLACK
6
CONTINUOUS
10
122.504
20
-65.4736
11
122.508
21
-65.4787
0
LINE
8
BLACK
6
CONTINUOUS
10
122.508
20
-65.4787
11
122.513
21
-65.483
0
LINE
8
BLACK
6
CONTINUOUS
10
122.513
20
-65.483
11
122.516
21
-65.4888
0
LINE
8
BLACK
6
CONTINUOUS
10
122.516
20
-65.4888
11
122.521
21
-65.4939
0
LINE
8
BLACK
6
CONTINUOUS
10
122.521
20
-65.4939
11
122.523
21
-65.5002
0
LINE
8
BLACK
6
CONTINUOUS
10
122.523
20
-65.5002
11
122.526
21
-65.5059
0
LINE
8
BLACK
6
CONTINUOUS
10
122.526
20
-65.5059
11
122.527
21
-65.5125
0
LINE
8
BLACK
6
CONTINUOUS
10
122.527
20
-65.5125
11
122.53
21
-65.5188
0
LINE
8
BLACK
6
CONTINUOUS
10
122.53
20
-65.5188
11
122.53
21
-65.5254
0
LINE
8
BLACK
6
CONTINUOUS
10
122.53
20
-65.5254
11
122.531
21
-65.532
0
LINE
8
BLACK
6
CONTINUOUS
10
122.531
20
-65.532
11
122.531
21
-98.4758
0
LINE
8
BLACK
6
CONTINUOUS
10
122.531
20
-98.4758
11
122.53
21
-98.4824
0
LINE
8
BLACK
6
CONTINUOUS
10
122.53
20
-98.4824
11
122.53
21
-98.489
0
LINE
8
BLACK
6
CONTINUOUS
10
122.53
20
-98.489
11
122.527
21
-98.4953
0
LINE
8
BLACK
6
CONTINUOUS
10
122.527
20
-98.4953
11
122.526
21
-98.5019
0
LINE
8
BLACK
6
CONTINUOUS
10
122.526
20
-98.5019
11
122.523
21
-98.5076
0
LINE
8
BLACK
6
CONTINUOUS
10
122.523
20
-98.5076
11
122.521
21
-98.5139
0
LINE
8
BLACK
6
CONTINUOUS
10
122.521
20
-98.5139
11
122.516
21
-98.519
0
LINE
8
BLACK
6
CONTINUOUS
10
122.516
20
-98.519
11
122.513
21
-98.5248
0
LINE
8
BLACK
6
CONTINUOUS
10
122.513
20
-98.5248
11
122.508
21
-98.5291
0
LINE
8
BLACK
6
CONTINUOUS
10
122.508
20
-98.5291
11
122.504
21
-98.5342
0
LINE
8
BLACK
6
CONTINUOUS
10
122.504
20
-98.5342
11
122.498
21
-98.5375
0
LINE
8
BLACK
6
CONTINUOUS
10
122.498
20
-98.5375
11
122.493
21
-98.5418
0
LINE
8
BLACK
6
CONTINUOUS
10
122.493
20
-98.5418
11
122.486
21
-98.5441
0
LINE
8
BLACK
6
CONTINUOUS
10
122.486
20
-98.5441
11
122.481
21
-98.5474
0
LINE
8
BLACK
6
CONTINUOUS
10
122.481
20
-98.5474
11
122.474
21
-98.5486
0
LINE
8
BLACK
6
CONTINUOUS
10
122.474
20
-98.5486
11
122.468
21
-98.5508
0
LINE
8
BLACK
6
CONTINUOUS
10
122.468
20
-98.5508
11
122.461
21
-98.5508
0
LINE
8
BLACK
6
CONTINUOUS
10
122.461
20
-98.5508
11
122.455
21
-98.552
0
LINE
8
BLACK
6
CONTINUOUS
10
122.455
20
-98.552
11
120.068
21
-98.552
0
LINE
8
BLACK
6
CONTINUOUS
10
120.068
20
-98.552
11
120.064
21
-98.5523
0
LINE
8
BLACK
6
CONTINUOUS
10
120.064
20
-98.5523
11
119.434
21
-98.6278
0
LINE
8
BLACK
6
CONTINUOUS
10
119.434
20
-98.6278
11
119.428
21
-98.6291
0
LINE
8
BLACK
6
CONTINUOUS
10
119.428
20
-98.6291
11
118.474
21
-98.9051
0
LINE
8
BLACK
6
CONTINUOUS
10
118.474
20
-98.9051
11
118.459
21
-98.9137
0
LINE
8
BLACK
6
CONTINUOUS
10
118.459
20
-98.9137
11
118.086
21
-99.262
0
LINE
8
BLACK
6
CONTINUOUS
10
118.086
20
-99.262
11
118.084
21
-99.263
0
LINE
8
BLACK
6
CONTINUOUS
10
118.084
20
-99.263
11
118.083
21
-99.2643
0
LINE
8
BLACK
6
CONTINUOUS
10
118.083
20
-99.2643
11
117.581
21
-99.6912
0
LINE
8
BLACK
6
CONTINUOUS
10
117.581
20
-99.6912
11
117.573
21
-99.7
0
LINE
8
BLACK
6
CONTINUOUS
10
117.573
20
-99.7
11
117.325
21
-100.098
0
LINE
8
BLACK
6
CONTINUOUS
10
117.325
20
-100.098
11
117.321
21
-100.105
0
LINE
8
BLACK
6
CONTINUOUS
10
117.321
20
-100.105
11
116.97
21
-101.06
0
LINE
8
BLACK
6
CONTINUOUS
10
116.97
20
-101.06
11
116.967
21
-101.074
0
LINE
8
BLACK
6
CONTINUOUS
10
116.967
20
-101.074
11
116.992
21
-101.775
0
LINE
8
BLACK
6
CONTINUOUS
10
116.992
20
-101.775
11
116.993
21
-101.781
0
LINE
8
BLACK
6
CONTINUOUS
10
116.993
20
-101.781
11
117.043
21
-102.03
0
LINE
8
BLACK
6
CONTINUOUS
10
117.043
20
-102.03
11
117.044
21
-102.033
0
LINE
8
BLACK
6
CONTINUOUS
10
117.044
20
-102.033
11
117.245
21
-102.712
0
LINE
8
BLACK
6
CONTINUOUS
10
117.245
20
-102.712
11
117.249
21
-102.722
0
LINE
8
BLACK
6
CONTINUOUS
10
117.249
20
-102.722
11
117.65
21
-103.349
0
LINE
8
BLACK
6
CONTINUOUS
10
117.65
20
-103.349
11
117.656
21
-103.356
0
LINE
8
BLACK
6
CONTINUOUS
10
117.656
20
-103.356
11
118.208
21
-103.883
0
LINE
8
BLACK
6
CONTINUOUS
10
118.208
20
-103.883
11
118.216
21
-103.888
0
LINE
8
BLACK
6
CONTINUOUS
10
118.216
20
-103.888
11
118.597
21
-104.1
0
LINE
8
BLACK
6
CONTINUOUS
10
118.597
20
-104.1
11
118.602
21
-104.105
0
LINE
8
BLACK
6
CONTINUOUS
10
118.602
20
-104.105
11
118.609
21
-104.108
0
LINE
8
BLACK
6
CONTINUOUS
10
118.609
20
-104.108
11
118.613
21
-104.113
0
LINE
8
BLACK
6
CONTINUOUS
10
118.613
20
-104.113
11
118.617
21
-104.117
0
LINE
8
BLACK
6
CONTINUOUS
10
118.617
20
-104.117
11
118.621
21
-104.123
0
LINE
8
BLACK
6
CONTINUOUS
10
118.621
20
-104.123
11
118.626
21
-104.128
0
LINE
8
BLACK
6
CONTINUOUS
10
118.626
20
-104.128
11
118.628
21
-104.134
0
LINE
8
BLACK
6
CONTINUOUS
10
118.628
20
-104.134
11
118.631
21
-104.139
0
LINE
8
BLACK
6
CONTINUOUS
10
118.631
20
-104.139
11
118.632
21
-104.147
0
LINE
8
BLACK
6
CONTINUOUS
10
118.632
20
-104.147
11
118.635
21
-104.153
0
LINE
8
BLACK
6
CONTINUOUS
10
118.635
20
-104.153
11
118.635
21
-104.159
0
LINE
8
BLACK
6
CONTINUOUS
10
118.635
20
-104.159
11
118.636
21
-104.165
0
LINE
8
BLACK
6
CONTINUOUS
10
118.636
20
-104.165
11
118.635
21
-104.173
0
LINE
8
BLACK
6
CONTINUOUS
10
118.635
20
-104.173
11
118.635
21
-104.18
0
LINE
8
BLACK
6
CONTINUOUS
10
118.635
20
-104.18
11
118.633
21
-104.186
0
LINE
8
BLACK
6
CONTINUOUS
10
118.633
20
-104.186
11
118.632
21
-104.191
0
LINE
8
BLACK
6
CONTINUOUS
10
118.632
20
-104.191
11
118.628
21
-104.198
0
LINE
8
BLACK
6
CONTINUOUS
10
118.628
20
-104.198
11
118.626
21
-104.205
0
LINE
8
BLACK
6
CONTINUOUS
10
118.626
20
-104.205
11
118.622
21
-104.209
0
LINE
8
BLACK
6
CONTINUOUS
10
118.622
20
-104.209
11
118.619
21
-104.215
0
LINE
8
BLACK
6
CONTINUOUS
10
118.619
20
-104.215
11
118.613
21
-104.219
0
LINE
8
BLACK
6
CONTINUOUS
10
118.613
20
-104.219
11
118.609
21
-104.225
0
LINE
8
BLACK
6
CONTINUOUS
10
118.609
20
-104.225
11
118.604
21
-104.228
0
LINE
8
BLACK
6
CONTINUOUS
10
118.604
20
-104.228
11
118.599
21
-104.232
0
LINE
8
BLACK
6
CONTINUOUS
10
118.599
20
-104.232
11
118.592
21
-104.235
0
LINE
8
BLACK
6
CONTINUOUS
10
118.592
20
-104.235
11
118.586
21
-104.238
0
LINE
8
BLACK
6
CONTINUOUS
10
118.586
20
-104.238
11
118.58
21
-104.239
0
LINE
8
BLACK
6
CONTINUOUS
10
118.58
20
-104.239
11
118.574
21
-104.241
0
LINE
8
BLACK
6
CONTINUOUS
10
118.574
20
-104.241
11
118.567
21
-104.242
0
LINE
8
BLACK
6
CONTINUOUS
10
118.567
20
-104.242
11
118.56
21
-104.243
0
LINE
8
BLACK
6
CONTINUOUS
10
118.56
20
-104.243
11
109.876
21
-104.243
0
LINE
8
BLACK
6
CONTINUOUS
10
109.876
20
-104.243
11
109.868
21
-104.241
0
LINE
8
BLACK
6
CONTINUOUS
10
109.868
20
-104.241
11
109.859
21
-104.241
0
LINE
8
BLACK
6
CONTINUOUS
10
109.859
20
-104.241
11
109.855
21
-104.239
0
LINE
8
BLACK
6
CONTINUOUS
10
109.855
20
-104.239
11
109.85
21
-104.238
0
LINE
8
BLACK
6
CONTINUOUS
10
109.85
20
-104.238
11
109.843
21
-104.234
0
LINE
8
BLACK
6
CONTINUOUS
10
109.843
20
-104.234
11
109.835
21
-104.231
0
LINE
8
BLACK
6
CONTINUOUS
10
109.835
20
-104.231
11
109.831
21
-104.227
0
LINE
8
BLACK
6
CONTINUOUS
10
109.831
20
-104.227
11
109.827
21
-104.225
0
LINE
8
BLACK
6
CONTINUOUS
10
109.827
20
-104.225
11
109.822
21
-104.219
0
LINE
8
BLACK
6
CONTINUOUS
10
109.822
20
-104.219
11
109.815
21
-104.213
0
LINE
8
BLACK
6
CONTINUOUS
10
109.815
20
-104.213
11
109.813
21
-104.209
0
LINE
8
BLACK
6
CONTINUOUS
10
109.813
20
-104.209
11
109.81
21
-104.205
0
LINE
8
BLACK
6
CONTINUOUS
10
109.81
20
-104.205
11
109.807
21
-104.197
0
LINE
8
BLACK
6
CONTINUOUS
10
109.807
20
-104.197
11
109.803
21
-104.19
0
LINE
8
BLACK
6
CONTINUOUS
10
109.803
20
-104.19
11
109.803
21
-104.185
0
LINE
8
BLACK
6
CONTINUOUS
10
109.803
20
-104.185
11
109.801
21
-104.18
0
LINE
8
BLACK
6
CONTINUOUS
10
109.801
20
-104.18
11
109.801
21
-104.172
0
LINE
8
BLACK
6
CONTINUOUS
10
109.801
20
-104.172
11
109.8
21
-104.163
0
LINE
8
BLACK
6
CONTINUOUS
10
109.8
20
-104.163
11
109.801
21
-104.158
0
LINE
8
BLACK
6
CONTINUOUS
10
109.801
20
-104.158
11
109.801
21
-104.153
0
LINE
8
BLACK
6
CONTINUOUS
10
109.801
20
-104.153
11
109.804
21
-104.146
0
LINE
8
BLACK
6
CONTINUOUS
10
109.804
20
-104.146
11
109.806
21
-104.137
0
LINE
8
BLACK
6
CONTINUOUS
10
109.806
20
-104.137
11
109.812
21
-104.122
0
LINE
8
BLACK
6
CONTINUOUS
10
109.812
20
-104.122
11
109.812
21
-103.439
0
LINE
8
BLACK
6
CONTINUOUS
10
109.812
20
-103.439
11
109.761
21
-103.388
0
LINE
8
BLACK
6
CONTINUOUS
10
109.761
20
-103.388
11
109.507
21
-103.388
0
LINE
8
BLACK
6
CONTINUOUS
10
109.507
20
-103.388
11
109.507
21
-104.061
0
LINE
8
BLACK
6
CONTINUOUS
10
109.507
20
-104.061
11
107.307
21
-104.061
0
LINE
8
BLACK
6
CONTINUOUS
10
107.307
20
-104.061
11
107.307
21
-103.388
0
LINE
8
BLACK
6
CONTINUOUS
10
107.307
20
-103.388
11
107.053
21
-103.388
0
LINE
8
BLACK
6
CONTINUOUS
10
107.053
20
-103.388
11
107.002
21
-103.439
0
LINE
8
BLACK
6
CONTINUOUS
10
107.002
20
-103.439
11
107.002
21
-104.122
0
LINE
8
BLACK
6
CONTINUOUS
10
107.002
20
-104.122
11
107.009
21
-104.137
0
LINE
8
BLACK
6
CONTINUOUS
10
107.009
20
-104.137
11
107.011
21
-104.146
0
LINE
8
BLACK
6
CONTINUOUS
10
107.011
20
-104.146
11
107.014
21
-104.153
0
LINE
8
BLACK
6
CONTINUOUS
10
107.014
20
-104.153
11
107.014
21
-104.158
0
LINE
8
BLACK
6
CONTINUOUS
10
107.014
20
-104.158
11
107.015
21
-104.163
0
LINE
8
BLACK
6
CONTINUOUS
10
107.015
20
-104.163
11
107.014
21
-104.172
0
LINE
8
BLACK
6
CONTINUOUS
10
107.014
20
-104.172
11
107.014
21
-104.18
0
LINE
8
BLACK
6
CONTINUOUS
10
107.014
20
-104.18
11
107.012
21
-104.185
0
LINE
8
BLACK
6
CONTINUOUS
10
107.012
20
-104.185
11
107.011
21
-104.19
0
LINE
8
BLACK
6
CONTINUOUS
10
107.011
20
-104.19
11
107.007
21
-104.197
0
LINE
8
BLACK
6
CONTINUOUS
10
107.007
20
-104.197
11
107.004
21
-104.205
0
LINE
8
BLACK
6
CONTINUOUS
10
107.004
20
-104.205
11
107.001
21
-104.209
0
LINE
8
BLACK
6
CONTINUOUS
10
107.001
20
-104.209
11
106.999
21
-104.213
0
LINE
8
BLACK
6
CONTINUOUS
10
106.999
20
-104.213
11
106.993
21
-104.219
0
LINE
8
BLACK
6
CONTINUOUS
10
106.993
20
-104.219
11
106.987
21
-104.225
0
LINE
8
BLACK
6
CONTINUOUS
10
106.987
20
-104.225
11
106.983
21
-104.227
0
LINE
8
BLACK
6
CONTINUOUS
10
106.983
20
-104.227
11
106.979
21
-104.231
0
LINE
8
BLACK
6
CONTINUOUS
10
106.979
20
-104.231
11
106.972
21
-104.234
0
LINE
8
BLACK
6
CONTINUOUS
10
106.972
20
-104.234
11
106.965
21
-104.238
0
LINE
8
BLACK
6
CONTINUOUS
10
106.965
20
-104.238
11
106.96
21
-104.239
0
LINE
8
BLACK
6
CONTINUOUS
10
106.96
20
-104.239
11
106.955
21
-104.241
0
LINE
8
BLACK
6
CONTINUOUS
10
106.955
20
-104.241
11
106.947
21
-104.241
0
LINE
8
BLACK
6
CONTINUOUS
10
106.947
20
-104.241
11
106.938
21
-104.243
0
LINE
8
BLACK
6
CONTINUOUS
10
106.938
20
-104.243
11
91.8718
21
-104.243
0
LINE
8
BLACK
6
CONTINUOUS
10
91.8718
20
-104.243
11
91.8652
21
-104.242
0
LINE
8
BLACK
6
CONTINUOUS
10
91.8652
20
-104.242
11
91.8586
21
-104.242
0
LINE
8
BLACK
6
CONTINUOUS
10
91.8586
20
-104.242
11
91.8523
21
-104.239
0
LINE
8
BLACK
6
CONTINUOUS
10
91.8523
20
-104.239
11
91.8457
21
-104.238
0
LINE
8
BLACK
6
CONTINUOUS
10
91.8457
20
-104.238
11
91.84
21
-104.235
0
LINE
8
BLACK
6
CONTINUOUS
10
91.84
20
-104.235
11
91.8337
21
-104.233
0
LINE
8
BLACK
6
CONTINUOUS
10
91.8337
20
-104.233
11
91.8286
21
-104.228
0
LINE
8
BLACK
6
CONTINUOUS
10
91.8286
20
-104.228
11
91.8228
21
-104.225
0
LINE
8
BLACK
6
CONTINUOUS
10
91.8228
20
-104.225
11
91.8185
21
-104.22
0
LINE
8
BLACK
6
CONTINUOUS
10
91.8185
20
-104.22
11
91.8134
21
-104.216
0
LINE
8
BLACK
6
CONTINUOUS
10
91.8134
20
-104.216
11
91.8101
21
-104.21
0
LINE
8
BLACK
6
CONTINUOUS
10
91.8101
20
-104.21
11
91.8058
21
-104.205
0
LINE
8
BLACK
6
CONTINUOUS
10
91.8058
20
-104.205
11
91.8035
21
-104.198
0
LINE
8
BLACK
6
CONTINUOUS
10
91.8035
20
-104.198
11
91.8002
21
-104.193
0
LINE
8
BLACK
6
CONTINUOUS
10
91.8002
20
-104.193
11
91.799
21
-104.186
0
LINE
8
BLACK
6
CONTINUOUS
10
91.799
20
-104.186
11
91.7968
21
-104.18
0
LINE
8
BLACK
6
CONTINUOUS
10
91.7968
20
-104.18
11
91.7968
21
-104.173
0
LINE
8
BLACK
6
CONTINUOUS
10
91.7968
20
-104.173
11
91.7956
21
-104.167
0
LINE
8
BLACK
6
CONTINUOUS
10
91.7956
20
-104.167
11
91.7956
21
-101.729
0
LINE
8
BLACK
6
CONTINUOUS
10
91.7956
20
-101.729
11
91.7953
21
-101.725
0
LINE
8
BLACK
6
CONTINUOUS
10
91.7953
20
-101.725
11
91.7198
21
-101.095
0
LINE
8
BLACK
6
CONTINUOUS
10
91.7198
20
-101.095
11
91.7185
21
-101.089
0
LINE
8
BLACK
6
CONTINUOUS
10
91.7185
20
-101.089
11
91.4425
21
-100.135
0
LINE
8
BLACK
6
CONTINUOUS
10
91.4425
20
-100.135
11
91.4339
21
-100.12
0
LINE
8
BLACK
6
CONTINUOUS
10
91.4339
20
-100.12
11
91.2966
21
-99.9732
0
LINE
8
BLACK
6
CONTINUOUS
10
91.2966
20
-99.9732
11
91.0856
21
-99.7471
0
LINE
8
BLACK
6
CONTINUOUS
10
91.0856
20
-99.7471
11
91.0846
21
-99.7456
0
LINE
8
BLACK
6
CONTINUOUS
10
91.0846
20
-99.7456
11
91.0833
21
-99.7445
0
LINE
8
BLACK
6
CONTINUOUS
10
91.0833
20
-99.7445
11
90.6564
21
-99.2423
0
LINE
8
BLACK
6
CONTINUOUS
10
90.6564
20
-99.2423
11
90.6476
21
-99.2347
0
LINE
8
BLACK
6
CONTINUOUS
10
90.6476
20
-99.2347
11
90.2495
21
-98.9859
0
LINE
8
BLACK
6
CONTINUOUS
10
90.2495
20
-98.9859
11
90.2425
21
-98.9824
0
LINE
8
BLACK
6
CONTINUOUS
10
90.2425
20
-98.9824
11
89.288
21
-98.6308
0
LINE
8
BLACK
6
CONTINUOUS
10
89.288
20
-98.6308
11
89.2736
21
-98.6285
0
LINE
8
BLACK
6
CONTINUOUS
10
89.2736
20
-98.6285
11
88.5729
21
-98.6535
0
LINE
8
BLACK
6
CONTINUOUS
10
88.5729
20
-98.6535
11
88.5668
21
-98.6542
0
LINE
8
BLACK
6
CONTINUOUS
10
88.5668
20
-98.6542
11
88.3175
21
-98.7041
0
LINE
8
BLACK
6
CONTINUOUS
10
88.3175
20
-98.7041
11
88.3142
21
-98.7049
0
LINE
8
BLACK
6
CONTINUOUS
10
88.3142
20
-98.7049
11
87.6351
21
-98.9061
0
LINE
8
BLACK
6
CONTINUOUS
10
87.6351
20
-98.9061
11
87.6255
21
-98.9105
0
LINE
8
BLACK
6
CONTINUOUS
10
87.6255
20
-98.9105
11
86.9988
21
-99.3115
0
LINE
8
BLACK
6
CONTINUOUS
10
86.9988
20
-99.3115
11
86.9918
21
-99.3173
0
LINE
8
BLACK
6
CONTINUOUS
10
86.9918
20
-99.3173
11
86.465
21
-99.8693
0
LINE
8
BLACK
6
CONTINUOUS
10
86.465
20
-99.8693
11
86.4592
21
-99.877
0
LINE
8
BLACK
6
CONTINUOUS
10
86.4592
20
-99.877
11
86.273
21
-100.212
0
LINE
8
BLACK
6
CONTINUOUS
10
86.273
20
-100.212
11
86.2684
21
-100.218
0
LINE
8
BLACK
6
CONTINUOUS
10
86.2684
20
-100.218
11
86.2648
21
-100.224
0
LINE
8
BLACK
6
CONTINUOUS
10
86.2648
20
-100.224
11
86.2601
21
-100.228
0
LINE
8
BLACK
6
CONTINUOUS
10
86.2601
20
-100.228
11
86.2563
21
-100.233
0
LINE
8
BLACK
6
CONTINUOUS
10
86.2563
20
-100.233
11
86.2501
21
-100.237
0
LINE
8
BLACK
6
CONTINUOUS
10
86.2501
20
-100.237
11
86.2445
21
-100.241
0
LINE
8
BLACK
6
CONTINUOUS
10
86.2445
20
-100.241
11
86.2388
21
-100.243
0
LINE
8
BLACK
6
CONTINUOUS
10
86.2388
20
-100.243
11
86.2336
21
-100.246
0
LINE
8
BLACK
6
CONTINUOUS
10
86.2336
20
-100.246
11
86.2265
21
-100.248
0
LINE
8
BLACK
6
CONTINUOUS
10
86.2265
20
-100.248
11
86.2196
21
-100.25
0
LINE
8
BLACK
6
CONTINUOUS
10
86.2196
20
-100.25
11
86.2136
21
-100.25
0
LINE
8
BLACK
6
CONTINUOUS
10
86.2136
20
-100.25
11
86.2077
21
-100.251
0
LINE
8
BLACK
6
CONTINUOUS
10
86.2077
20
-100.251
11
86.2005
21
-100.25
0
LINE
8
BLACK
6
CONTINUOUS
10
86.2005
20
-100.25
11
86.1932
21
-100.25
0
LINE
8
BLACK
6
CONTINUOUS
10
86.1932
20
-100.25
11
86.1875
21
-100.248
0
LINE
8
BLACK
6
CONTINUOUS
10
86.1875
20
-100.248
11
86.1815
21
-100.247
0
LINE
8
BLACK
6
CONTINUOUS
10
86.1815
20
-100.247
11
86.1752
21
-100.244
0
LINE
8
BLACK
6
CONTINUOUS
10
86.1752
20
-100.244
11
86.1683
21
-100.241
0
LINE
8
BLACK
6
CONTINUOUS
10
86.1683
20
-100.241
11
86.1637
21
-100.237
0
LINE
8
BLACK
6
CONTINUOUS
10
86.1637
20
-100.237
11
86.1584
21
-100.234
0
LINE
8
BLACK
6
CONTINUOUS
10
86.1584
20
-100.234
11
86.1536
21
-100.229
0
LINE
8
BLACK
6
CONTINUOUS
10
86.1536
20
-100.229
11
86.148
21
-100.224
0
LINE
8
BLACK
6
CONTINUOUS
10
86.148
20
-100.224
11
86.145
21
-100.219
0
LINE
8
BLACK
6
CONTINUOUS
10
86.145
20
-100.219
11
86.141
21
-100.214
0
LINE
8
BLACK
6
CONTINUOUS
10
86.141
20
-100.214
11
86.1384
21
-100.208
0
LINE
8
BLACK
6
CONTINUOUS
10
86.1384
20
-100.208
11
86.1348
21
-100.201
0
LINE
8
BLACK
6
CONTINUOUS
10
86.1348
20
-100.201
11
86.1337
21
-100.195
0
LINE
8
BLACK
6
CONTINUOUS
10
86.1337
20
-100.195
11
86.1316
21
-100.19
0
LINE
8
BLACK
6
CONTINUOUS
10
86.1316
20
-100.19
11
86.1315
21
-100.182
0
LINE
8
BLACK
6
CONTINUOUS
10
86.1315
20
-100.182
11
86.1302
21
-100.175
0
LINE
8
BLACK
6
CONTINUOUS
10
86.1302
20
-100.175
11
86.1302
21
-55.2184
0
LINE
8
BLACK
6
CONTINUOUS
10
86.1302
20
-55.2184
11
86.1314
21
-55.2118
0
LINE
8
BLACK
6
CONTINUOUS
10
86.1314
20
-55.2118
11
86.1314
21
-55.2052
0
LINE
8
BLACK
6
CONTINUOUS
10
86.1314
20
-55.2052
11
86.1336
21
-55.1989
0
LINE
8
BLACK
6
CONTINUOUS
10
86.1336
20
-55.1989
11
86.1348
21
-55.1923
0
LINE
8
BLACK
6
CONTINUOUS
10
86.1348
20
-55.1923
11
86.1381
21
-55.1866
0
LINE
8
BLACK
6
CONTINUOUS
10
86.1381
20
-55.1866
11
86.1404
21
-55.1803
0
LINE
8
BLACK
6
CONTINUOUS
10
86.1404
20
-55.1803
11
86.1447
21
-55.1752
0
LINE
8
BLACK
6
CONTINUOUS
10
86.1447
20
-55.1752
11
86.148
21
-55.1694
0
LINE
8
BLACK
6
CONTINUOUS
10
86.148
20
-55.1694
11
86.1531
21
-55.1651
0
LINE
8
BLACK
6
CONTINUOUS
10
86.1531
20
-55.1651
11
86.1574
21
-55.16
0
LINE
8
BLACK
6
CONTINUOUS
10
86.1574
20
-55.16
11
86.1632
21
-55.1567
0
LINE
8
BLACK
6
CONTINUOUS
10
86.1632
20
-55.1567
11
86.1683
21
-55.1524
0
LINE
8
BLACK
6
CONTINUOUS
10
86.1683
20
-55.1524
11
86.1746
21
-55.1501
0
LINE
8
BLACK
6
CONTINUOUS
10
86.1746
20
-55.1501
11
86.1803
21
-55.1468
0
LINE
8
BLACK
6
CONTINUOUS
10
86.1803
20
-55.1468
11
86.1869
21
-55.1456
0
LINE
8
BLACK
6
CONTINUOUS
10
86.1869
20
-55.1456
11
86.1932
21
-55.1434
0
LINE
8
BLACK
6
CONTINUOUS
10
86.1932
20
-55.1434
11
86.1998
21
-55.1434
0
LINE
8
BLACK
6
CONTINUOUS
10
86.1998
20
-55.1434
11
86.2064
21
-55.1422
0
LINE
8
BLACK
6
CONTINUOUS
10
86.2064
20
-55.1422
11
86.8204
21
-55.1422
0
LINE
8
BLACK
6
CONTINUOUS
10
86.8204
20
-55.1422
11
86.8237
21
-55.1428
0
LINE
8
BLACK
6
CONTINUOUS
10
86.8237
20
-55.1428
11
86.827
21
-55.1425
0
LINE
8
BLACK
6
CONTINUOUS
10
86.827
20
-55.1425
11
86.8366
21
-55.1451
0
LINE
8
BLACK
6
CONTINUOUS
10
86.8366
20
-55.1451
11
86.8464
21
-55.1468
0
LINE
8
BLACK
6
CONTINUOUS
10
86.8464
20
-55.1468
11
86.8493
21
-55.1485
0
LINE
8
BLACK
6
CONTINUOUS
10
86.8493
20
-55.1485
11
86.8526
21
-55.1493
0
LINE
8
BLACK
6
CONTINUOUS
10
86.8526
20
-55.1493
11
86.8607
21
-55.1551
0
LINE
8
BLACK
6
CONTINUOUS
10
86.8607
20
-55.1551
11
86.8613
21
-55.1554
0
LINE
8
BLACK
6
CONTINUOUS
10
86.8613
20
-55.1554
11
86.8625
21
-55.1559
0
LINE
8
BLACK
6
CONTINUOUS
10
86.8625
20
-55.1559
11
86.8632
21
-55.1565
0
LINE
8
BLACK
6
CONTINUOUS
10
86.8632
20
-55.1565
11
86.8693
21
-55.16
0
LINE
8
BLACK
6
CONTINUOUS
10
86.8693
20
-55.16
11
86.8715
21
-55.1626
0
LINE
8
BLACK
6
CONTINUOUS
10
86.8715
20
-55.1626
11
86.8742
21
-55.1645
0
LINE
8
BLACK
6
CONTINUOUS
10
86.8742
20
-55.1645
11
86.8768
21
-55.1671
0
LINE
8
BLACK
6
CONTINUOUS
10
86.8768
20
-55.1671
11
86.8792
21
-55.1705
0
LINE
8
BLACK
6
CONTINUOUS
10
86.8792
20
-55.1705
11
86.8824
21
-55.1733
0
LINE
8
BLACK
6
CONTINUOUS
10
86.8824
20
-55.1733
11
86.886
21
-55.1798
0
LINE
8
BLACK
6
CONTINUOUS
10
86.886
20
-55.1798
11
86.8863
21
-55.1803
0
LINE
8
BLACK
6
CONTINUOUS
10
86.8863
20
-55.1803
11
86.8866
21
-55.181
0
LINE
8
BLACK
6
CONTINUOUS
10
86.8866
20
-55.181
11
86.8868
21
-55.1813
0
LINE
8
BLACK
6
CONTINUOUS
10
86.8868
20
-55.1813
11
86.892
21
-55.1888
0
LINE
8
BLACK
6
CONTINUOUS
10
86.892
20
-55.1888
11
86.8931
21
-55.1928
0
LINE
8
BLACK
6
CONTINUOUS
10
86.8931
20
-55.1928
11
86.8951
21
-55.1965
0
LINE
8
BLACK
6
CONTINUOUS
10
86.8951
20
-55.1965
11
86.8965
21
-55.2055
0
LINE
8
BLACK
6
CONTINUOUS
10
86.8965
20
-55.2055
11
86.8988
21
-55.2143
0
LINE
8
BLACK
6
CONTINUOUS
10
86.8988
20
-55.2143
11
86.8985
21
-55.2185
0
LINE
8
BLACK
6
CONTINUOUS
10
86.8985
20
-55.2185
11
86.8991
21
-55.2227
0
LINE
8
BLACK
6
CONTINUOUS
10
86.8991
20
-55.2227
11
86.8973
21
-55.2316
0
LINE
8
BLACK
6
CONTINUOUS
10
86.8973
20
-55.2316
11
86.8965
21
-55.2407
0
LINE
8
BLACK
6
CONTINUOUS
10
86.8965
20
-55.2407
11
86.8948
21
-55.2445
0
LINE
8
BLACK
6
CONTINUOUS
10
86.8948
20
-55.2445
11
86.8939
21
-55.2486
0
LINE
8
BLACK
6
CONTINUOUS
10
86.8939
20
-55.2486
11
86.8892
21
-55.2564
0
LINE
8
BLACK
6
CONTINUOUS
10
86.8892
20
-55.2564
11
86.8854
21
-55.2647
0
LINE
8
BLACK
6
CONTINUOUS
10
86.8854
20
-55.2647
11
86.8824
21
-55.2677
0
LINE
8
BLACK
6
CONTINUOUS
10
86.8824
20
-55.2677
11
86.8802
21
-55.2713
0
LINE
8
BLACK
6
CONTINUOUS
10
86.8802
20
-55.2713
11
86.8731
21
-55.277
0
LINE
8
BLACK
6
CONTINUOUS
10
86.8731
20
-55.277
11
86.8666
21
-55.2834
0
LINE
8
BLACK
6
CONTINUOUS
10
86.8666
20
-55.2834
11
86.8628
21
-55.2852
0
LINE
8
BLACK
6
CONTINUOUS
10
86.8628
20
-55.2852
11
86.8595
21
-55.2878
0
LINE
8
BLACK
6
CONTINUOUS
10
86.8595
20
-55.2878
11
86.6677
21
-55.3929
0
LINE
8
BLACK
6
CONTINUOUS
10
86.6677
20
-55.3929
11
86.4554
21
-55.8975
0
LINE
8
BLACK
6
CONTINUOUS
10
86.4554
20
-55.8975
11
86.4523
21
-56.4563
0
LINE
8
BLACK
6
CONTINUOUS
10
86.4523
20
-56.4563
11
86.6634
21
-56.9743
0
LINE
8
BLACK
6
CONTINUOUS
10
86.6634
20
-56.9743
11
86.8094
21
-57.0543
0
LINE
8
BLACK
6
CONTINUOUS
10
86.8094
20
-57.0543
11
86.9959
21
-56.8679
0
LINE
8
BLACK
6
CONTINUOUS
10
86.9959
20
-56.8679
11
86.8913
21
-56.7433
0
LINE
8
BLACK
6
CONTINUOUS
10
86.8913
20
-56.7433
11
86.7586
21
-56.3788
0
LINE
8
BLACK
6
CONTINUOUS
10
86.7586
20
-56.3788
11
86.7586
21
-55.9908
0
LINE
8
BLACK
6
CONTINUOUS
10
86.7586
20
-55.9908
11
86.8913
21
-55.6263
0
LINE
8
BLACK
6
CONTINUOUS
10
86.8913
20
-55.6263
11
87.1406
21
-55.3292
0
LINE
8
BLACK
6
CONTINUOUS
10
87.1406
20
-55.3292
11
87.4766
21
-55.1352
0
LINE
8
BLACK
6
CONTINUOUS
10
87.4766
20
-55.1352
11
87.8586
21
-55.0678
0
LINE
8
BLACK
6
CONTINUOUS
10
87.8586
20
-55.0678
11
88.2406
21
-55.1352
0
LINE
8
BLACK
6
CONTINUOUS
10
88.2406
20
-55.1352
11
88.5766
21
-55.3292
0
LINE
8
BLACK
6
CONTINUOUS
10
88.5766
20
-55.3292
11
88.8259
21
-55.6263
0
LINE
8
BLACK
6
CONTINUOUS
10
88.8259
20
-55.6263
11
88.9586
21
-55.9908
0
LINE
8
BLACK
6
CONTINUOUS
10
88.9586
20
-55.9908
11
88.9586
21
-56.3788
0
LINE
8
BLACK
6
CONTINUOUS
10
88.9586
20
-56.3788
11
88.8259
21
-56.7433
0
LINE
8
BLACK
6
CONTINUOUS
10
88.8259
20
-56.7433
11
88.7213
21
-56.8679
0
LINE
8
BLACK
6
CONTINUOUS
10
88.7213
20
-56.8679
11
88.9078
21
-57.0543
0
LINE
8
BLACK
6
CONTINUOUS
10
88.9078
20
-57.0543
11
89.0495
21
-56.9767
0
LINE
8
BLACK
6
CONTINUOUS
10
89.0495
20
-56.9767
11
89.2618
21
-56.4721
0
LINE
8
BLACK
6
CONTINUOUS
10
89.2618
20
-56.4721
11
89.2649
21
-55.9133
0
LINE
8
BLACK
6
CONTINUOUS
10
89.2649
20
-55.9133
11
89.0538
21
-55.3953
0
LINE
8
BLACK
6
CONTINUOUS
10
89.0538
20
-55.3953
11
88.8577
21
-55.2878
0
LINE
8
BLACK
6
CONTINUOUS
10
88.8577
20
-55.2878
11
88.8544
21
-55.2852
0
LINE
8
BLACK
6
CONTINUOUS
10
88.8544
20
-55.2852
11
88.8506
21
-55.2834
0
LINE
8
BLACK
6
CONTINUOUS
10
88.8506
20
-55.2834
11
88.8441
21
-55.277
0
LINE
8
BLACK
6
CONTINUOUS
10
88.8441
20
-55.277
11
88.837
21
-55.2713
0
LINE
8
BLACK
6
CONTINUOUS
10
88.837
20
-55.2713
11
88.8348
21
-55.2677
0
LINE
8
BLACK
6
CONTINUOUS
10
88.8348
20
-55.2677
11
88.8318
21
-55.2647
0
LINE
8
BLACK
6
CONTINUOUS
10
88.8318
20
-55.2647
11
88.828
21
-55.2564
0
LINE
8
BLACK
6
CONTINUOUS
10
88.828
20
-55.2564
11
88.8233
21
-55.2486
0
LINE
8
BLACK
6
CONTINUOUS
10
88.8233
20
-55.2486
11
88.8224
21
-55.2445
0
LINE
8
BLACK
6
CONTINUOUS
10
88.8224
20
-55.2445
11
88.8207
21
-55.2407
0
LINE
8
BLACK
6
CONTINUOUS
10
88.8207
20
-55.2407
11
88.8199
21
-55.2316
0
LINE
8
BLACK
6
CONTINUOUS
10
88.8199
20
-55.2316
11
88.8181
21
-55.2227
0
LINE
8
BLACK
6
CONTINUOUS
10
88.8181
20
-55.2227
11
88.8187
21
-55.2185
0
LINE
8
BLACK
6
CONTINUOUS
10
88.8187
20
-55.2185
11
88.8184
21
-55.2143
0
LINE
8
BLACK
6
CONTINUOUS
10
88.8184
20
-55.2143
11
88.8207
21
-55.2055
0
LINE
8
BLACK
6
CONTINUOUS
10
88.8207
20
-55.2055
11
88.8221
21
-55.1965
0
LINE
8
BLACK
6
CONTINUOUS
10
88.8221
20
-55.1965
11
88.8241
21
-55.1928
0
LINE
8
BLACK
6
CONTINUOUS
10
88.8241
20
-55.1928
11
88.8252
21
-55.1888
0
LINE
8
BLACK
6
CONTINUOUS
10
88.8252
20
-55.1888
11
88.8304
21
-55.1813
0
LINE
8
BLACK
6
CONTINUOUS
10
88.8304
20
-55.1813
11
88.8306
21
-55.181
0
LINE
8
BLACK
6
CONTINUOUS
10
88.8306
20
-55.181
11
88.8309
21
-55.1803
0
LINE
8
BLACK
6
CONTINUOUS
10
88.8309
20
-55.1803
11
88.8312
21
-55.1798
0
LINE
8
BLACK
6
CONTINUOUS
10
88.8312
20
-55.1798
11
88.8348
21
-55.1733
0
LINE
8
BLACK
6
CONTINUOUS
10
88.8348
20
-55.1733
11
88.838
21
-55.1705
0
LINE
8
BLACK
6
CONTINUOUS
10
88.838
20
-55.1705
11
88.8404
21
-55.1671
0
LINE
8
BLACK
6
CONTINUOUS
10
88.8404
20
-55.1671
11
88.843
21
-55.1645
0
LINE
8
BLACK
6
CONTINUOUS
10
88.843
20
-55.1645
11
88.8457
21
-55.1626
0
LINE
8
BLACK
6
CONTINUOUS
10
88.8457
20
-55.1626
11
88.8479
21
-55.16
0
LINE
8
BLACK
6
CONTINUOUS
10
88.8479
20
-55.16
11
88.8539
21
-55.1565
0
LINE
8
BLACK
6
CONTINUOUS
10
88.8539
20
-55.1565
11
88.8547
21
-55.1559
0
LINE
8
BLACK
6
CONTINUOUS
10
88.8547
20
-55.1559
11
88.8559
21
-55.1554
0
LINE
8
BLACK
6
CONTINUOUS
10
88.8559
20
-55.1554
11
88.8565
21
-55.155
0
LINE
8
BLACK
6
CONTINUOUS
10
88.8565
20
-55.155
11
88.8646
21
-55.1493
0
LINE
8
BLACK
6
CONTINUOUS
10
88.8646
20
-55.1493
11
88.8679
21
-55.1485
0
LINE
8
BLACK
6
CONTINUOUS
10
88.8679
20
-55.1485
11
88.8708
21
-55.1468
0
LINE
8
BLACK
6
CONTINUOUS
10
88.8708
20
-55.1468
11
88.8806
21
-55.1451
0
LINE
8
BLACK
6
CONTINUOUS
10
88.8806
20
-55.1451
11
88.8902
21
-55.1425
0
LINE
8
BLACK
6
CONTINUOUS
10
88.8902
20
-55.1425
11
88.8935
21
-55.1428
0
LINE
8
BLACK
6
CONTINUOUS
10
88.8935
20
-55.1428
11
88.8968
21
-55.1422
0
LINE
8
BLACK
6
CONTINUOUS
10
88.8968
20
-55.1422
11
94.5146
21
-55.1422
0
LINE
8
BLACK
6
CONTINUOUS
10
94.5146
20
-55.1422
11
94.5212
21
-55.1434
0
LINE
8
BLACK
6
CONTINUOUS
10
94.5212
20
-55.1434
11
94.5278
21
-55.1434
0
LINE
8
BLACK
6
CONTINUOUS
10
94.5278
20
-55.1434
11
94.5341
21
-55.1456
0
LINE
8
BLACK
6
CONTINUOUS
10
94.5341
20
-55.1456
11
94.5407
21
-55.1468
0
LINE
8
BLACK
6
CONTINUOUS
10
94.5407
20
-55.1468
11
94.5464
21
-55.1501
0
LINE
8
BLACK
6
CONTINUOUS
10
94.5464
20
-55.1501
11
94.5527
21
-55.1524
0
LINE
8
BLACK
6
CONTINUOUS
10
94.5527
20
-55.1524
11
94.5578
21
-55.1567
0
LINE
8
BLACK
6
CONTINUOUS
10
94.5578
20
-55.1567
11
94.5636
21
-55.16
0
LINE
8
BLACK
6
CONTINUOUS
10
94.5636
20
-55.16
11
94.5679
21
-55.1651
0
LINE
8
BLACK
6
CONTINUOUS
10
94.5679
20
-55.1651
11
94.573
21
-55.1694
0
LINE
8
BLACK
6
CONTINUOUS
10
94.573
20
-55.1694
11
94.5763
21
-55.1752
0
LINE
8
BLACK
6
CONTINUOUS
10
94.5763
20
-55.1752
11
94.5806
21
-55.1803
0
LINE
8
BLACK
6
CONTINUOUS
10
94.5806
20
-55.1803
11
94.5829
21
-55.1866
0
LINE
8
BLACK
6
CONTINUOUS
10
94.5829
20
-55.1866
11
94.5862
21
-55.1923
0
LINE
8
BLACK
6
CONTINUOUS
10
94.5862
20
-55.1923
11
94.5874
21
-55.1989
0
LINE
8
BLACK
6
CONTINUOUS
10
94.5874
20
-55.1989
11
94.5896
21
-55.2052
0
LINE
8
BLACK
6
CONTINUOUS
10
94.5896
20
-55.2052
11
94.5896
21
-55.2118
0
LINE
8
BLACK
6
CONTINUOUS
10
94.5896
20
-55.2118
11
94.5908
21
-55.2184
0
LINE
8
BLACK
6
CONTINUOUS
10
94.5908
20
-55.2184
11
94.5908
21
-55.4819
0
LINE
8
BLACK
6
CONTINUOUS
10
94.5908
20
-55.4819
11
94.5902
21
-55.4855
0
LINE
8
BLACK
6
CONTINUOUS
10
94.5902
20
-55.4855
11
94.5904
21
-55.4892
0
LINE
8
BLACK
6
CONTINUOUS
10
94.5904
20
-55.4892
11
94.5895
21
-55.4994
0
LINE
8
BLACK
6
CONTINUOUS
10
94.5895
20
-55.4994
11
94.5904
21
-55.5091
0
LINE
8
BLACK
6
CONTINUOUS
10
94.5904
20
-55.5091
11
94.5901
21
-55.5129
0
LINE
8
BLACK
6
CONTINUOUS
10
94.5901
20
-55.5129
11
94.5908
21
-55.5167
0
LINE
8
BLACK
6
CONTINUOUS
10
94.5908
20
-55.5167
11
94.5908
21
-55.5264
0
LINE
8
BLACK
6
CONTINUOUS
10
94.5908
20
-55.5264
11
94.5928
21
-55.5365
0
LINE
8
BLACK
6
CONTINUOUS
10
94.5928
20
-55.5365
11
94.5929
21
-55.5402
0
LINE
8
BLACK
6
CONTINUOUS
10
94.5929
20
-55.5402
11
94.5939
21
-55.5437
0
LINE
8
BLACK
6
CONTINUOUS
10
94.5939
20
-55.5437
11
94.7152
21
-56.7568
0
LINE
8
BLACK
6
CONTINUOUS
10
94.7152
20
-56.7568
11
94.7146
21
-56.7654
0
LINE
8
BLACK
6
CONTINUOUS
10
94.7146
20
-56.7654
11
94.715
21
-56.7739
0
LINE
8
BLACK
6
CONTINUOUS
10
94.715
20
-56.7739
11
94.7131
21
-56.7891
0
LINE
8
BLACK
6
CONTINUOUS
10
94.7131
20
-56.7891
11
94.7198
21
-56.8138
0
LINE
8
BLACK
6
CONTINUOUS
10
94.7198
20
-56.8138
11
94.7203
21
-56.8185
0
LINE
8
BLACK
6
CONTINUOUS
10
94.7203
20
-56.8185
11
94.7284
21
-56.8453
0
LINE
8
BLACK
6
CONTINUOUS
10
94.7284
20
-56.8453
11
94.7286
21
-56.8464
0
LINE
8
BLACK
6
CONTINUOUS
10
94.7286
20
-56.8464
11
94.729
21
-56.8474
0
LINE
8
BLACK
6
CONTINUOUS
10
94.729
20
-56.8474
11
94.7364
21
-56.8744
0
LINE
8
BLACK
6
CONTINUOUS
10
94.7364
20
-56.8744
11
94.7386
21
-56.8786
0
LINE
8
BLACK
6
CONTINUOUS
10
94.7386
20
-56.8786
11
94.746
21
-56.9031
0
LINE
8
BLACK
6
CONTINUOUS
10
94.746
20
-56.9031
11
94.7558
21
-56.9149
0
LINE
8
BLACK
6
CONTINUOUS
10
94.7558
20
-56.9149
11
94.76
21
-56.9224
0
LINE
8
BLACK
6
CONTINUOUS
10
94.76
20
-56.9224
11
94.7651
21
-56.9292
0
LINE
8
BLACK
6
CONTINUOUS
10
94.7651
20
-56.9292
11
94.9856
21
-57.3702
0
LINE
8
BLACK
6
CONTINUOUS
10
94.9856
20
-57.3702
11
94.9856
21
-57.3702
0
LINE
8
BLACK
6
CONTINUOUS
10
94.9856
20
-57.3702
11
95.2539
21
-57.9068
0
LINE
8
BLACK
6
CONTINUOUS
10
95.2539
20
-57.9068
11
95.2541
21
-57.9074
0
LINE
8
BLACK
6
CONTINUOUS
10
95.2541
20
-57.9074
11
95.2544
21
-57.9079
0
LINE
8
BLACK
6
CONTINUOUS
10
95.2544
20
-57.9079
11
95.266
21
-57.9321
0
LINE
8
BLACK
6
CONTINUOUS
10
95.266
20
-57.9321
11
95.2824
21
-57.9533
0
LINE
8
BLACK
6
CONTINUOUS
10
95.2824
20
-57.9533
11
95.2827
21
-57.9538
0
LINE
8
BLACK
6
CONTINUOUS
10
95.2827
20
-57.9538
11
95.2832
21
-57.9543
0
LINE
8
BLACK
6
CONTINUOUS
10
95.2832
20
-57.9543
11
95.6357
21
-58.4243
0
LINE
8
BLACK
6
CONTINUOUS
10
95.6357
20
-58.4243
11
95.64
21
-58.4328
0
LINE
8
BLACK
6
CONTINUOUS
10
95.64
20
-58.4328
11
95.6452
21
-58.4408
0
LINE
8
BLACK
6
CONTINUOUS
10
95.6452
20
-58.4408
11
95.6493
21
-58.4508
0
LINE
8
BLACK
6
CONTINUOUS
10
95.6493
20
-58.4508
11
95.6705
21
-58.472
0
LINE
8
BLACK
6
CONTINUOUS
10
95.6705
20
-58.472
11
95.6737
21
-58.4765
0
LINE
8
BLACK
6
CONTINUOUS
10
95.6737
20
-58.4765
11
95.6777
21
-58.4802
0
LINE
8
BLACK
6
CONTINUOUS
10
95.6777
20
-58.4802
11
95.6789
21
-58.4818
0
LINE
8
BLACK
6
CONTINUOUS
10
95.6789
20
-58.4818
11
95.6922
21
-58.4938
0
LINE
8
BLACK
6
CONTINUOUS
10
95.6922
20
-58.4938
11
95.6935
21
-58.4954
0
LINE
8
BLACK
6
CONTINUOUS
10
95.6935
20
-58.4954
11
95.6952
21
-58.4966
0
LINE
8
BLACK
6
CONTINUOUS
10
95.6952
20
-58.4966
11
95.7079
21
-58.5093
0
LINE
8
BLACK
6
CONTINUOUS
10
95.7079
20
-58.5093
11
95.7096
21
-58.5104
0
LINE
8
BLACK
6
CONTINUOUS
10
95.7096
20
-58.5104
11
95.7135
21
-58.5142
0
LINE
8
BLACK
6
CONTINUOUS
10
95.7135
20
-58.5142
11
95.7182
21
-58.5171
0
LINE
8
BLACK
6
CONTINUOUS
10
95.7182
20
-58.5171
11
95.7405
21
-58.5371
0
LINE
8
BLACK
6
CONTINUOUS
10
95.7405
20
-58.5371
11
95.7507
21
-58.5407
0
LINE
8
BLACK
6
CONTINUOUS
10
95.7507
20
-58.5407
11
95.759
21
-58.5453
0
LINE
8
BLACK
6
CONTINUOUS
10
95.759
20
-58.5453
11
95.7677
21
-58.5492
0
LINE
8
BLACK
6
CONTINUOUS
10
95.7677
20
-58.5492
11
96.0825
21
-58.759
0
LINE
8
BLACK
6
CONTINUOUS
10
96.0825
20
-58.759
11
96.0879
21
-58.7642
0
LINE
8
BLACK
6
CONTINUOUS
10
96.0879
20
-58.7642
11
96.0941
21
-58.7685
0
LINE
8
BLACK
6
CONTINUOUS
10
96.0941
20
-58.7685
11
96.4166
21
-59.091
0
LINE
8
BLACK
6
CONTINUOUS
10
96.4166
20
-59.091
11
96.4224
21
-59.0994
0
LINE
8
BLACK
6
CONTINUOUS
10
96.4224
20
-59.0994
11
96.4289
21
-59.1072
0
LINE
8
BLACK
6
CONTINUOUS
10
96.4289
20
-59.1072
11
96.4327
21
-59.1138
0
LINE
8
BLACK
6
CONTINUOUS
10
96.4327
20
-59.1138
11
96.4588
21
-59.1341
0
LINE
8
BLACK
6
CONTINUOUS
10
96.4588
20
-59.1341
11
96.4621
21
-59.1377
0
LINE
8
BLACK
6
CONTINUOUS
10
96.4621
20
-59.1377
11
96.466
21
-59.1404
0
LINE
8
BLACK
6
CONTINUOUS
10
96.466
20
-59.1404
11
96.4697
21
-59.1441
0
LINE
8
BLACK
6
CONTINUOUS
10
96.4697
20
-59.1441
11
96.482
21
-59.1523
0
LINE
8
BLACK
6
CONTINUOUS
10
96.482
20
-59.1523
11
96.484
21
-59.1542
0
LINE
8
BLACK
6
CONTINUOUS
10
96.484
20
-59.1542
11
96.4864
21
-59.1555
0
LINE
8
BLACK
6
CONTINUOUS
10
96.4864
20
-59.1555
11
96.4981
21
-59.1646
0
LINE
8
BLACK
6
CONTINUOUS
10
96.4981
20
-59.1646
11
96.5027
21
-59.1669
0
LINE
8
BLACK
6
CONTINUOUS
10
96.5027
20
-59.1669
11
96.5065
21
-59.1697
0
LINE
8
BLACK
6
CONTINUOUS
10
96.5065
20
-59.1697
11
96.5109
21
-59.1717
0
LINE
8
BLACK
6
CONTINUOUS
10
96.5109
20
-59.1717
11
96.5385
21
-59.1901
0
LINE
8
BLACK
6
CONTINUOUS
10
96.5385
20
-59.1901
11
96.546
21
-59.1916
0
LINE
8
BLACK
6
CONTINUOUS
10
96.546
20
-59.1916
11
96.5555
21
-59.1952
0
LINE
8
BLACK
6
CONTINUOUS
10
96.5555
20
-59.1952
11
96.5652
21
-59.1981
0
LINE
8
BLACK
6
CONTINUOUS
10
96.5652
20
-59.1981
11
97.022
21
-59.4265
0
LINE
8
BLACK
6
CONTINUOUS
10
97.022
20
-59.4265
11
97.0237
21
-59.4278
0
LINE
8
BLACK
6
CONTINUOUS
10
97.0237
20
-59.4278
11
97.0256
21
-59.4285
0
LINE
8
BLACK
6
CONTINUOUS
10
97.0256
20
-59.4285
11
97.041
21
-59.4373
0
LINE
8
BLACK
6
CONTINUOUS
10
97.041
20
-59.4373
11
97.0431
21
-59.438
0
LINE
8
BLACK
6
CONTINUOUS
10
97.0431
20
-59.438
11
97.0479
21
-59.4405
0
LINE
8
BLACK
6
CONTINUOUS
10
97.0479
20
-59.4405
11
97.0531
21
-59.4421
0
LINE
8
BLACK
6
CONTINUOUS
10
97.0531
20
-59.4421
11
97.0551
21
-59.4431
0
LINE
8
BLACK
6
CONTINUOUS
10
97.0551
20
-59.4431
11
97.0722
21
-59.4478
0
LINE
8
BLACK
6
CONTINUOUS
10
97.0722
20
-59.4478
11
97.0741
21
-59.4487
0
LINE
8
BLACK
6
CONTINUOUS
10
97.0741
20
-59.4487
11
97.0762
21
-59.449
0
LINE
8
BLACK
6
CONTINUOUS
10
97.0762
20
-59.449
11
97.4811
21
-59.584
0
LINE
8
BLACK
6
CONTINUOUS
10
97.4811
20
-59.584
11
97.4811
21
-59.584
0
LINE
8
BLACK
6
CONTINUOUS
10
97.4811
20
-59.584
11
97.8089
21
-59.6932
0
LINE
8
BLACK
6
CONTINUOUS
10
97.8089
20
-59.6932
11
97.8129
21
-59.6954
0
LINE
8
BLACK
6
CONTINUOUS
10
97.8129
20
-59.6954
11
97.8173
21
-59.6966
0
LINE
8
BLACK
6
CONTINUOUS
10
97.8173
20
-59.6966
11
97.8229
21
-59.6992
0
LINE
8
BLACK
6
CONTINUOUS
10
97.8229
20
-59.6992
11
97.8363
21
-59.7026
0
LINE
8
BLACK
6
CONTINUOUS
10
97.8363
20
-59.7026
11
97.839
21
-59.7038
0
LINE
8
BLACK
6
CONTINUOUS
10
97.839
20
-59.7038
11
97.8419
21
-59.7042
0
LINE
8
BLACK
6
CONTINUOUS
10
97.8419
20
-59.7042
11
97.855
21
-59.7086
0
LINE
8
BLACK
6
CONTINUOUS
10
97.855
20
-59.7086
11
97.8612
21
-59.7094
0
LINE
8
BLACK
6
CONTINUOUS
10
97.8612
20
-59.7094
11
97.8655
21
-59.7107
0
LINE
8
BLACK
6
CONTINUOUS
10
97.8655
20
-59.7107
11
97.8701
21
-59.711
0
LINE
8
BLACK
6
CONTINUOUS
10
97.8701
20
-59.711
11
98.2978
21
-59.818
0
LINE
8
BLACK
6
CONTINUOUS
10
98.2978
20
-59.818
11
98.3097
21
-59.8233
0
LINE
8
BLACK
6
CONTINUOUS
10
98.3097
20
-59.8233
11
98.3115
21
-59.8241
0
LINE
8
BLACK
6
CONTINUOUS
10
98.3115
20
-59.8241
11
98.3623
21
-59.8342
0
LINE
8
BLACK
6
CONTINUOUS
10
98.3623
20
-59.8342
11
98.364
21
-59.8349
0
LINE
8
BLACK
6
CONTINUOUS
10
98.364
20
-59.8349
11
98.3659
21
-59.835
0
LINE
8
BLACK
6
CONTINUOUS
10
98.3659
20
-59.835
11
98.3841
21
-59.8395
0
LINE
8
BLACK
6
CONTINUOUS
10
98.3841
20
-59.8395
11
98.3853
21
-59.8396
0
LINE
8
BLACK
6
CONTINUOUS
10
98.3853
20
-59.8396
11
98.3908
21
-59.8408
0
LINE
8
BLACK
6
CONTINUOUS
10
98.3908
20
-59.8408
11
98.3964
21
-59.841
0
LINE
8
BLACK
6
CONTINUOUS
10
98.3964
20
-59.841
11
98.3976
21
-59.8412
0
LINE
8
BLACK
6
CONTINUOUS
10
98.3976
20
-59.8412
11
98.4164
21
-59.8412
0
LINE
8
BLACK
6
CONTINUOUS
10
98.4164
20
-59.8412
11
98.4182
21
-59.8415
0
LINE
8
BLACK
6
CONTINUOUS
10
98.4182
20
-59.8415
11
98.4201
21
-59.8413
0
LINE
8
BLACK
6
CONTINUOUS
10
98.4201
20
-59.8413
11
98.4718
21
-59.8438
0
LINE
8
BLACK
6
CONTINUOUS
10
98.4718
20
-59.8438
11
98.4737
21
-59.8435
0
LINE
8
BLACK
6
CONTINUOUS
10
98.4737
20
-59.8435
11
98.4866
21
-59.8412
0
LINE
8
BLACK
6
CONTINUOUS
10
98.4866
20
-59.8412
11
103.39
21
-59.8412
0
LINE
8
BLACK
6
CONTINUOUS
10
103.39
20
-59.8412
11
103.397
21
-59.8424
0
LINE
8
BLACK
6
CONTINUOUS
10
103.397
20
-59.8424
11
103.403
21
-59.8424
0
LINE
8
BLACK
6
CONTINUOUS
10
103.403
20
-59.8424
11
103.41
21
-59.8446
0
LINE
8
BLACK
6
CONTINUOUS
10
103.41
20
-59.8446
11
103.416
21
-59.8458
0
LINE
8
BLACK
6
CONTINUOUS
10
103.416
20
-59.8458
11
103.422
21
-59.8491
0
LINE
8
BLACK
6
CONTINUOUS
10
103.422
20
-59.8491
11
103.428
21
-59.8514
0
LINE
8
BLACK
6
CONTINUOUS
10
103.428
20
-59.8514
11
103.433
21
-59.8557
0
LINE
8
BLACK
6
CONTINUOUS
10
103.433
20
-59.8557
11
103.439
21
-59.859
0
LINE
8
BLACK
6
CONTINUOUS
10
103.439
20
-59.859
11
103.443
21
-59.8641
0
LINE
8
BLACK
6
CONTINUOUS
10
103.443
20
-59.8641
11
103.448
21
-59.8684
0
LINE
8
BLACK
6
CONTINUOUS
10
103.448
20
-59.8684
11
103.452
21
-59.8742
0
LINE
8
BLACK
6
CONTINUOUS
10
103.452
20
-59.8742
11
103.456
21
-59.8793
0
LINE
8
BLACK
6
CONTINUOUS
10
103.456
20
-59.8793
11
103.458
21
-59.8856
0
LINE
8
BLACK
6
CONTINUOUS
10
103.458
20
-59.8856
11
103.462
21
-59.8913
0
LINE
8
BLACK
6
CONTINUOUS
10
103.462
20
-59.8913
11
103.463
21
-59.8979
0
LINE
8
BLACK
6
CONTINUOUS
10
103.463
20
-59.8979
11
103.465
21
-59.9042
0
LINE
8
BLACK
6
CONTINUOUS
10
103.465
20
-59.9042
11
103.465
21
-59.9108
0
LINE
8
BLACK
6
CONTINUOUS
10
103.465
20
-59.9108
11
103.466
21
-59.9174
0
LINE
8
BLACK
6
CONTINUOUS
10
103.466
20
-59.9174
11
103.466
21
-61.3442
0
LINE
8
BLACK
6
CONTINUOUS
10
103.466
20
-61.3442
11
110.839
21
-61.3442
0
LINE
8
BLACK
6
CONTINUOUS
10
110.839
20
-61.3442
11
110.839
21
-59.9174
0
LINE
8
BLACK
6
CONTINUOUS
10
110.839
20
-59.9174
11
110.84
21
-59.9108
0
LINE
8
BLACK
6
CONTINUOUS
10
110.84
20
-59.9108
11
110.84
21
-59.9042
0
LINE
8
BLACK
6
CONTINUOUS
10
110.84
20
-59.9042
11
110.842
21
-59.8979
0
LINE
8
BLACK
6
CONTINUOUS
10
110.842
20
-59.8979
11
110.843
21
-59.8913
0
LINE
8
BLACK
6
CONTINUOUS
10
110.843
20
-59.8913
11
110.847
21
-59.8856
0
LINE
8
BLACK
6
CONTINUOUS
10
110.847
20
-59.8856
11
110.849
21
-59.8793
0
LINE
8
BLACK
6
CONTINUOUS
10
110.849
20
-59.8793
11
110.853
21
-59.8742
0
LINE
8
BLACK
6
CONTINUOUS
10
110.853
20
-59.8742
11
110.856
21
-59.8684
0
LINE
8
BLACK
6
CONTINUOUS
10
110.856
20
-59.8684
11
110.862
21
-59.8641
0
LINE
8
BLACK
6
CONTINUOUS
10
110.862
20
-59.8641
11
110.866
21
-59.859
0
LINE
8
BLACK
6
CONTINUOUS
10
110.866
20
-59.859
11
110.872
21
-59.8557
0
LINE
8
BLACK
6
CONTINUOUS
10
110.872
20
-59.8557
11
110.877
21
-59.8514
0
LINE
8
BLACK
6
CONTINUOUS
10
110.877
20
-59.8514
11
110.883
21
-59.8491
0
LINE
8
BLACK
6
CONTINUOUS
10
110.883
20
-59.8491
11
110.889
21
-59.8458
0
LINE
8
BLACK
6
CONTINUOUS
10
110.889
20
-59.8458
11
110.895
21
-59.8446
0
LINE
8
BLACK
6
CONTINUOUS
10
110.895
20
-59.8446
11
110.902
21
-59.8424
0
LINE
8
BLACK
6
CONTINUOUS
10
110.902
20
-59.8424
11
110.908
21
-59.8424
0
LINE
8
BLACK
6
CONTINUOUS
10
110.908
20
-59.8424
11
110.915
21
-59.8412
0
LINE
8
BLACK
6
CONTINUOUS
10
110.915
20
-59.8412
11
111.839
21
-59.8412
0
LINE
8
BLACK
6
CONTINUOUS
10
111.839
20
-59.8412
11
111.849
21
-59.8429
0
LINE
8
BLACK
6
CONTINUOUS
10
111.849
20
-59.8429
11
111.859
21
-59.8438
0
LINE
8
BLACK
6
CONTINUOUS
10
111.859
20
-59.8438
11
111.862
21
-59.8452
0
LINE
8
BLACK
6
CONTINUOUS
10
111.862
20
-59.8452
11
111.866
21
-59.8458
0
LINE
8
BLACK
6
CONTINUOUS
10
111.866
20
-59.8458
11
111.874
21
-59.8508
0
LINE
8
BLACK
6
CONTINUOUS
10
111.874
20
-59.8508
11
111.883
21
-59.855
0
LINE
8
BLACK
6
CONTINUOUS
10
111.883
20
-59.855
11
111.886
21
-59.8574
0
LINE
8
BLACK
6
CONTINUOUS
10
111.886
20
-59.8574
11
111.888
21
-59.859
0
LINE
8
BLACK
6
CONTINUOUS
10
111.888
20
-59.859
11
111.895
21
-59.8667
0
LINE
8
BLACK
6
CONTINUOUS
10
111.895
20
-59.8667
11
111.902
21
-59.8737
0
LINE
8
BLACK
6
CONTINUOUS
10
111.902
20
-59.8737
11
111.903
21
-59.8767
0
LINE
8
BLACK
6
CONTINUOUS
10
111.903
20
-59.8767
11
111.905
21
-59.8793
0
LINE
8
BLACK
6
CONTINUOUS
10
111.905
20
-59.8793
11
111.909
21
-59.8887
0
LINE
8
BLACK
6
CONTINUOUS
10
111.909
20
-59.8887
11
111.913
21
-59.8977
0
LINE
8
BLACK
6
CONTINUOUS
10
111.913
20
-59.8977
11
111.913
21
-59.901
0
LINE
8
BLACK
6
CONTINUOUS
10
111.913
20
-59.901
11
111.914
21
-59.9042
0
LINE
8
BLACK
6
CONTINUOUS
10
111.914
20
-59.9042
11
111.914
21
-59.9141
0
LINE
8
BLACK
6
CONTINUOUS
10
111.914
20
-59.9141
11
111.915
21
-59.924
0
LINE
8
BLACK
6
CONTINUOUS
10
111.915
20
-59.924
11
111.914
21
-59.9273
0
LINE
8
BLACK
6
CONTINUOUS
10
111.914
20
-59.9273
11
111.914
21
-59.9306
0
LINE
8
BLACK
6
CONTINUOUS
10
111.914
20
-59.9306
11
111.911
21
-59.94
0
LINE
8
BLACK
6
CONTINUOUS
10
111.911
20
-59.94
11
111.909
21
-59.9496
0
LINE
8
BLACK
6
CONTINUOUS
10
111.909
20
-59.9496
11
111.907
21
-59.9523
0
LINE
8
BLACK
6
CONTINUOUS
10
111.907
20
-59.9523
11
111.905
21
-59.9555
0
LINE
8
BLACK
6
CONTINUOUS
10
111.905
20
-59.9555
11
111.899
21
-59.9631
0
LINE
8
BLACK
6
CONTINUOUS
10
111.899
20
-59.9631
11
111.893
21
-59.9713
0
LINE
8
BLACK
6
CONTINUOUS
10
111.893
20
-59.9713
11
111.676
21
-60.1886
0
LINE
8
BLACK
6
CONTINUOUS
10
111.676
20
-60.1886
11
111.554
21
-60.4838
0
LINE
8
BLACK
6
CONTINUOUS
10
111.554
20
-60.4838
11
111.554
21
-60.8034
0
LINE
8
BLACK
6
CONTINUOUS
10
111.554
20
-60.8034
11
111.676
21
-61.0986
0
LINE
8
BLACK
6
CONTINUOUS
10
111.676
20
-61.0986
11
111.902
21
-61.3245
0
LINE
8
BLACK
6
CONTINUOUS
10
111.902
20
-61.3245
11
112.056
21
-61.3883
0
LINE
8
BLACK
6
CONTINUOUS
10
112.056
20
-61.3883
11
112.066
21
-61.3946
0
LINE
8
BLACK
6
CONTINUOUS
10
112.066
20
-61.3946
11
112.076
21
-61.4004
0
LINE
8
BLACK
6
CONTINUOUS
10
112.076
20
-61.4004
11
112.077
21
-61.4016
0
LINE
8
BLACK
6
CONTINUOUS
10
112.077
20
-61.4016
11
112.078
21
-61.4025
0
LINE
8
BLACK
6
CONTINUOUS
10
112.078
20
-61.4025
11
112.085
21
-61.4118
0
LINE
8
BLACK
6
CONTINUOUS
10
112.085
20
-61.4118
11
112.093
21
-61.4206
0
LINE
8
BLACK
6
CONTINUOUS
10
112.093
20
-61.4206
11
112.093
21
-61.4222
0
LINE
8
BLACK
6
CONTINUOUS
10
112.093
20
-61.4222
11
112.094
21
-61.4235
0
LINE
8
BLACK
6
CONTINUOUS
10
112.094
20
-61.4235
11
112.098
21
-61.4346
0
LINE
8
BLACK
6
CONTINUOUS
10
112.098
20
-61.4346
11
112.102
21
-61.4455
0
LINE
8
BLACK
6
CONTINUOUS
10
112.102
20
-61.4455
11
112.102
21
-61.4472
0
LINE
8
BLACK
6
CONTINUOUS
10
112.102
20
-61.4472
11
112.102
21
-61.4488
0
LINE
8
BLACK
6
CONTINUOUS
10
112.102
20
-61.4488
11
112.102
21
-61.4604
0
LINE
8
BLACK
6
CONTINUOUS
10
112.102
20
-61.4604
11
112.102
21
-61.472
0
LINE
8
BLACK
6
CONTINUOUS
10
112.102
20
-61.472
11
112.101
21
-61.4735
0
LINE
8
BLACK
6
CONTINUOUS
10
112.101
20
-61.4735
11
112.101
21
-61.4752
0
LINE
8
BLACK
6
CONTINUOUS
10
112.101
20
-61.4752
11
112.097
21
-61.4859
0
LINE
8
BLACK
6
CONTINUOUS
10
112.097
20
-61.4859
11
112.093
21
-61.4968
0
LINE
8
BLACK
6
CONTINUOUS
10
112.093
20
-61.4968
11
112.092
21
-61.4981
0
LINE
8
BLACK
6
CONTINUOUS
10
112.092
20
-61.4981
11
112.091
21
-61.4997
0
LINE
8
BLACK
6
CONTINUOUS
10
112.091
20
-61.4997
11
112.083
21
-61.5082
0
LINE
8
BLACK
6
CONTINUOUS
10
112.083
20
-61.5082
11
112.076
21
-61.5171
0
LINE
8
BLACK
6
CONTINUOUS
10
112.076
20
-61.5171
11
112.074
21
-61.5179
0
LINE
8
BLACK
6
CONTINUOUS
10
112.074
20
-61.5179
11
112.073
21
-61.5192
0
LINE
8
BLACK
6
CONTINUOUS
10
112.073
20
-61.5192
11
112.063
21
-61.5245
0
LINE
8
BLACK
6
CONTINUOUS
10
112.063
20
-61.5245
11
112.053
21
-61.5303
0
LINE
8
BLACK
6
CONTINUOUS
10
112.053
20
-61.5303
11
112.051
21
-61.5306
0
LINE
8
BLACK
6
CONTINUOUS
10
112.051
20
-61.5306
11
112.05
21
-61.5314
0
LINE
8
BLACK
6
CONTINUOUS
10
112.05
20
-61.5314
11
112.038
21
-61.5329
0
LINE
8
BLACK
6
CONTINUOUS
10
112.038
20
-61.5329
11
112.027
21
-61.5349
0
LINE
8
BLACK
6
CONTINUOUS
10
112.027
20
-61.5349
11
111.514
21
-61.5349
0
LINE
8
BLACK
6
CONTINUOUS
10
111.514
20
-61.5349
11
111.428
21
-61.5522
0
LINE
8
BLACK
6
CONTINUOUS
10
111.428
20
-61.5522
11
111.36
21
-61.5971
0
LINE
8
BLACK
6
CONTINUOUS
10
111.36
20
-61.5971
11
111.315
21
-61.6643
0
LINE
8
BLACK
6
CONTINUOUS
10
111.315
20
-61.6643
11
111.298
21
-61.7511
0
LINE
8
BLACK
6
CONTINUOUS
10
111.298
20
-61.7511
11
111.298
21
-64.4361
0
LINE
8
BLACK
6
CONTINUOUS
10
111.298
20
-64.4361
11
111.315
21
-64.5229
0
LINE
8
BLACK
6
CONTINUOUS
10
111.315
20
-64.5229
11
111.36
21
-64.5901
0
LINE
8
BLACK
6
CONTINUOUS
10
111.36
20
-64.5901
11
111.428
21
-64.635
0
LINE
8
BLACK
6
CONTINUOUS
10
111.428
20
-64.635
11
111.514
21
-64.6523
0
LINE
8
BLACK
6
CONTINUOUS
10
111.514
20
-64.6523
11
113.199
21
-64.6523
0
LINE
8
BLACK
6
CONTINUOUS
10
113.199
20
-64.6523
11
113.286
21
-64.635
0
LINE
8
BLACK
6
CONTINUOUS
10
113.286
20
-64.635
11
113.353
21
-64.5901
0
LINE
8
BLACK
6
CONTINUOUS
10
113.353
20
-64.5901
11
113.398
21
-64.5229
0
LINE
8
BLACK
6
CONTINUOUS
10
113.398
20
-64.5229
11
113.416
21
-64.4361
0
LINE
8
BLACK
6
CONTINUOUS
10
113.416
20
-64.4361
11
113.416
21
-61.7511
0
LINE
8
BLACK
6
CONTINUOUS
10
113.416
20
-61.7511
11
113.398
21
-61.6643
0
LINE
8
BLACK
6
CONTINUOUS
10
108.585
20
-102.156
11
108.534
21
-102.207
0
LINE
8
BLACK
6
CONTINUOUS
10
108.534
20
-102.207
11
108.534
21
-102.461
0
LINE
8
BLACK
6
CONTINUOUS
10
108.534
20
-102.461
11
109.507
21
-102.461
0
LINE
8
BLACK
6
CONTINUOUS
10
109.507
20
-102.461
11
109.507
21
-103.134
0
LINE
8
BLACK
6
CONTINUOUS
10
109.507
20
-103.134
11
109.761
21
-103.134
0
LINE
8
BLACK
6
CONTINUOUS
10
109.761
20
-103.134
11
109.812
21
-103.084
0
LINE
8
BLACK
6
CONTINUOUS
10
109.812
20
-103.084
11
109.812
21
-102.401
0
LINE
8
BLACK
6
CONTINUOUS
10
109.812
20
-102.401
11
109.766
21
-102.289
0
LINE
8
BLACK
6
CONTINUOUS
10
109.766
20
-102.289
11
109.68
21
-102.203
0
LINE
8
BLACK
6
CONTINUOUS
10
109.68
20
-102.203
11
109.568
21
-102.156
0
LINE
8
BLACK
6
CONTINUOUS
10
109.568
20
-102.156
11
108.585
21
-102.156
0
LINE
8
BLACK
6
CONTINUOUS
10
107.247
20
-102.156
11
107.135
21
-102.203
0
LINE
8
BLACK
6
CONTINUOUS
10
107.135
20
-102.203
11
107.049
21
-102.289
0
LINE
8
BLACK
6
CONTINUOUS
10
107.049
20
-102.289
11
107.002
21
-102.401
0
LINE
8
BLACK
6
CONTINUOUS
10
107.002
20
-102.401
11
107.002
21
-103.084
0
LINE
8
BLACK
6
CONTINUOUS
10
107.002
20
-103.084
11
107.053
21
-103.134
0
LINE
8
BLACK
6
CONTINUOUS
10
107.053
20
-103.134
11
107.307
21
-103.134
0
LINE
8
BLACK
6
CONTINUOUS
10
107.307
20
-103.134
11
107.307
21
-102.461
0
LINE
8
BLACK
6
CONTINUOUS
10
107.307
20
-102.461
11
108.28
21
-102.461
0
LINE
8
BLACK
6
CONTINUOUS
10
108.28
20
-102.461
11
108.28
21
-102.207
0
LINE
8
BLACK
6
CONTINUOUS
10
108.28
20
-102.207
11
108.23
21
-102.156
0
LINE
8
BLACK
6
CONTINUOUS
10
108.23
20
-102.156
11
107.247
21
-102.156
0
LINE
8
BLACK
6
CONTINUOUS
10
107.315
20
-99.7125
11
107.228
21
-99.7298
0
LINE
8
BLACK
6
CONTINUOUS
10
107.228
20
-99.7298
11
107.161
21
-99.7747
0
LINE
8
BLACK
6
CONTINUOUS
10
107.161
20
-99.7747
11
107.116
21
-99.8419
0
LINE
8
BLACK
6
CONTINUOUS
10
107.116
20
-99.8419
11
107.099
21
-99.9287
0
LINE
8
BLACK
6
CONTINUOUS
10
107.099
20
-99.9287
11
107.099
21
-101.514
0
LINE
8
BLACK
6
CONTINUOUS
10
107.099
20
-101.514
11
107.116
21
-101.6
0
LINE
8
BLACK
6
CONTINUOUS
10
107.116
20
-101.6
11
107.161
21
-101.668
0
LINE
8
BLACK
6
CONTINUOUS
10
107.161
20
-101.668
11
107.228
21
-101.713
0
LINE
8
BLACK
6
CONTINUOUS
10
107.228
20
-101.713
11
107.315
21
-101.73
0
LINE
8
BLACK
6
CONTINUOUS
10
107.315
20
-101.73
11
109.5
21
-101.73
0
LINE
8
BLACK
6
CONTINUOUS
10
109.5
20
-101.73
11
109.586
21
-101.713
0
LINE
8
BLACK
6
CONTINUOUS
10
109.586
20
-101.713
11
109.654
21
-101.668
0
LINE
8
BLACK
6
CONTINUOUS
10
109.654
20
-101.668
11
109.699
21
-101.6
0
LINE
8
BLACK
6
CONTINUOUS
10
109.699
20
-101.6
11
109.716
21
-101.514
0
LINE
8
BLACK
6
CONTINUOUS
10
109.716
20
-101.514
11
109.716
21
-99.9287
0
LINE
8
BLACK
6
CONTINUOUS
10
109.716
20
-99.9287
11
109.699
21
-99.8419
0
LINE
8
BLACK
6
CONTINUOUS
10
109.699
20
-99.8419
11
109.654
21
-99.7747
0
LINE
8
BLACK
6
CONTINUOUS
10
109.654
20
-99.7747
11
109.586
21
-99.7298
0
LINE
8
BLACK
6
CONTINUOUS
10
109.586
20
-99.7298
11
109.5
21
-99.7125
0
LINE
8
BLACK
6
CONTINUOUS
10
109.5
20
-99.7125
11
107.315
21
-99.7125
0
LINE
8
BLACK
6
CONTINUOUS
10
98.0951
20
-89.3082
11
97.8737
21
-89.4561
0
LINE
8
BLACK
6
CONTINUOUS
10
97.8737
20
-89.4561
11
97.8653
21
-89.4598
0
LINE
8
BLACK
6
CONTINUOUS
10
97.8653
20
-89.4598
11
97.8574
21
-89.4644
0
LINE
8
BLACK
6
CONTINUOUS
10
97.8574
20
-89.4644
11
97.8533
21
-89.4651
0
LINE
8
BLACK
6
CONTINUOUS
10
97.8533
20
-89.4651
11
97.8495
21
-89.4668
0
LINE
8
BLACK
6
CONTINUOUS
10
97.8495
20
-89.4668
11
97.8403
21
-89.4674
0
LINE
8
BLACK
6
CONTINUOUS
10
97.8403
20
-89.4674
11
97.8314
21
-89.469
0
LINE
8
BLACK
6
CONTINUOUS
10
97.8314
20
-89.469
11
97.498
21
-89.469
0
LINE
8
BLACK
6
CONTINUOUS
10
97.498
20
-89.469
11
97.4964
21
-89.4687
0
LINE
8
BLACK
6
CONTINUOUS
10
97.4964
20
-89.4687
11
97.4947
21
-89.4689
0
LINE
8
BLACK
6
CONTINUOUS
10
97.4947
20
-89.4689
11
97.4834
21
-89.4664
0
LINE
8
BLACK
6
CONTINUOUS
10
97.4834
20
-89.4664
11
97.472
21
-89.4644
0
LINE
8
BLACK
6
CONTINUOUS
10
97.472
20
-89.4644
11
97.4705
21
-89.4635
0
LINE
8
BLACK
6
CONTINUOUS
10
97.4705
20
-89.4635
11
97.4689
21
-89.4632
0
LINE
8
BLACK
6
CONTINUOUS
10
97.4689
20
-89.4632
11
97.3296
21
-89.4055
0
LINE
8
BLACK
6
CONTINUOUS
10
97.3296
20
-89.4055
11
97.0719
21
-89.4055
0
LINE
8
BLACK
6
CONTINUOUS
10
97.0719
20
-89.4055
11
96.8338
21
-89.5041
0
LINE
8
BLACK
6
CONTINUOUS
10
96.8338
20
-89.5041
11
96.6516
21
-89.6863
0
LINE
8
BLACK
6
CONTINUOUS
10
96.6516
20
-89.6863
11
96.553
21
-89.9243
0
LINE
8
BLACK
6
CONTINUOUS
10
96.553
20
-89.9243
11
96.553
21
-90.182
0
LINE
8
BLACK
6
CONTINUOUS
10
96.553
20
-90.182
11
96.6516
21
-90.4201
0
LINE
8
BLACK
6
CONTINUOUS
10
96.6516
20
-90.4201
11
96.8338
21
-90.6023
0
LINE
8
BLACK
6
CONTINUOUS
10
96.8338
20
-90.6023
11
97.0719
21
-90.7009
0
LINE
8
BLACK
6
CONTINUOUS
10
97.0719
20
-90.7009
11
97.3296
21
-90.7009
0
LINE
8
BLACK
6
CONTINUOUS
10
97.3296
20
-90.7009
11
97.4689
21
-90.6432
0
LINE
8
BLACK
6
CONTINUOUS
10
97.4689
20
-90.6432
11
97.4705
21
-90.6428
0
LINE
8
BLACK
6
CONTINUOUS
10
97.4705
20
-90.6428
11
97.472
21
-90.642
0
LINE
8
BLACK
6
CONTINUOUS
10
97.472
20
-90.642
11
97.4834
21
-90.6399
0
LINE
8
BLACK
6
CONTINUOUS
10
97.4834
20
-90.6399
11
97.4947
21
-90.6374
0
LINE
8
BLACK
6
CONTINUOUS
10
97.4947
20
-90.6374
11
97.4964
21
-90.6377
0
LINE
8
BLACK
6
CONTINUOUS
10
97.4964
20
-90.6377
11
97.498
21
-90.6374
0
LINE
8
BLACK
6
CONTINUOUS
10
97.498
20
-90.6374
11
97.8643
21
-90.6374
0
LINE
8
BLACK
6
CONTINUOUS
10
97.8643
20
-90.6374
11
97.8733
21
-90.6389
0
LINE
8
BLACK
6
CONTINUOUS
10
97.8733
20
-90.6389
11
97.8824
21
-90.6395
0
LINE
8
BLACK
6
CONTINUOUS
10
97.8824
20
-90.6395
11
97.8862
21
-90.6412
0
LINE
8
BLACK
6
CONTINUOUS
10
97.8862
20
-90.6412
11
97.8903
21
-90.642
0
LINE
8
BLACK
6
CONTINUOUS
10
97.8903
20
-90.642
11
97.8983
21
-90.6465
0
LINE
8
BLACK
6
CONTINUOUS
10
97.8983
20
-90.6465
11
97.9066
21
-90.6502
0
LINE
8
BLACK
6
CONTINUOUS
10
97.9066
20
-90.6502
11
98.09
21
-90.7728
0
LINE
8
BLACK
6
CONTINUOUS
10
98.09
20
-90.7728
11
98.3974
21
-90.8339
0
LINE
8
BLACK
6
CONTINUOUS
10
98.3974
20
-90.8339
11
98.4714
21
-90.8192
0
LINE
8
BLACK
6
CONTINUOUS
10
98.4714
20
-90.8192
11
98.4789
21
-90.819
0
LINE
8
BLACK
6
CONTINUOUS
10
98.4789
20
-90.819
11
98.4863
21
-90.8177
0
LINE
8
BLACK
6
CONTINUOUS
10
98.4863
20
-90.8177
11
101.92
21
-90.8177
0
LINE
8
BLACK
6
CONTINUOUS
10
101.92
20
-90.8177
11
102.146
21
-90.7728
0
LINE
8
BLACK
6
CONTINUOUS
10
102.146
20
-90.7728
11
102.402
21
-90.6015
0
LINE
8
BLACK
6
CONTINUOUS
10
102.402
20
-90.6015
11
102.574
21
-90.3453
0
LINE
8
BLACK
6
CONTINUOUS
10
102.574
20
-90.3453
11
102.634
21
-90.043
0
LINE
8
BLACK
6
CONTINUOUS
10
102.634
20
-90.043
11
102.574
21
-89.7407
0
LINE
8
BLACK
6
CONTINUOUS
10
102.574
20
-89.7407
11
102.402
21
-89.4845
0
LINE
8
BLACK
6
CONTINUOUS
10
102.402
20
-89.4845
11
102.146
21
-89.3132
0
LINE
8
BLACK
6
CONTINUOUS
10
102.146
20
-89.3132
11
101.92
21
-89.2683
0
LINE
8
BLACK
6
CONTINUOUS
10
101.92
20
-89.2683
11
98.6836
21
-89.2683
0
LINE
8
BLACK
6
CONTINUOUS
10
98.6836
20
-89.2683
11
98.6296
21
-89.2995
0
LINE
8
BLACK
6
CONTINUOUS
10
98.6296
20
-89.2995
11
98.5193
21
-89.3189
0
LINE
8
BLACK
6
CONTINUOUS
10
98.5193
20
-89.3189
11
98.409
21
-89.2995
0
LINE
8
BLACK
6
CONTINUOUS
10
98.409
20
-89.2995
11
98.3398
21
-89.2595
0
LINE
8
BLACK
6
CONTINUOUS
10
98.3398
20
-89.2595
11
98.0951
21
-89.3082
0
LINE
8
BLACK
6
CONTINUOUS
10
105.212
20
-83.8508
11
104.862
21
-83.9959
0
LINE
8
BLACK
6
CONTINUOUS
10
104.862
20
-83.9959
11
104.594
21
-84.2641
0
LINE
8
BLACK
6
CONTINUOUS
10
104.594
20
-84.2641
11
104.449
21
-84.6144
0
LINE
8
BLACK
6
CONTINUOUS
10
104.449
20
-84.6144
11
104.449
21
-84.9936
0
LINE
8
BLACK
6
CONTINUOUS
10
104.449
20
-84.9936
11
104.594
21
-85.3439
0
LINE
8
BLACK
6
CONTINUOUS
10
104.594
20
-85.3439
11
104.862
21
-85.6121
0
LINE
8
BLACK
6
CONTINUOUS
10
104.862
20
-85.6121
11
105.212
21
-85.7572
0
LINE
8
BLACK
6
CONTINUOUS
10
105.212
20
-85.7572
11
105.592
21
-85.7572
0
LINE
8
BLACK
6
CONTINUOUS
10
105.592
20
-85.7572
11
105.942
21
-85.6121
0
LINE
8
BLACK
6
CONTINUOUS
10
105.942
20
-85.6121
11
106.21
21
-85.3439
0
LINE
8
BLACK
6
CONTINUOUS
10
106.21
20
-85.3439
11
106.355
21
-84.9936
0
LINE
8
BLACK
6
CONTINUOUS
10
106.355
20
-84.9936
11
106.355
21
-84.6144
0
LINE
8
BLACK
6
CONTINUOUS
10
106.355
20
-84.6144
11
106.21
21
-84.2641
0
LINE
8
BLACK
6
CONTINUOUS
10
106.21
20
-84.2641
11
105.942
21
-83.9959
0
LINE
8
BLACK
6
CONTINUOUS
10
105.942
20
-83.9959
11
105.592
21
-83.8508
0
LINE
8
BLACK
6
CONTINUOUS
10
105.592
20
-83.8508
11
105.212
21
-83.8508
0
LINE
8
BLACK
6
CONTINUOUS
10
97.8972
20
-83.8508
11
97.5469
21
-83.9959
0
LINE
8
BLACK
6
CONTINUOUS
10
97.5469
20
-83.9959
11
97.2787
21
-84.2641
0
LINE
8
BLACK
6
CONTINUOUS
10
97.2787
20
-84.2641
11
97.1336
21
-84.6144
0
LINE
8
BLACK
6
CONTINUOUS
10
97.1336
20
-84.6144
11
97.1336
21
-84.9936
0
LINE
8
BLACK
6
CONTINUOUS
10
97.1336
20
-84.9936
11
97.2787
21
-85.3439
0
LINE
8
BLACK
6
CONTINUOUS
10
97.2787
20
-85.3439
11
97.5469
21
-85.6121
0
LINE
8
BLACK
6
CONTINUOUS
10
97.5469
20
-85.6121
11
97.8972
21
-85.7572
0
LINE
8
BLACK
6
CONTINUOUS
10
97.8972
20
-85.7572
11
98.2764
21
-85.7572
0
LINE
8
BLACK
6
CONTINUOUS
10
98.2764
20
-85.7572
11
98.6267
21
-85.6121
0
LINE
8
BLACK
6
CONTINUOUS
10
98.6267
20
-85.6121
11
98.8949
21
-85.3439
0
LINE
8
BLACK
6
CONTINUOUS
10
98.8949
20
-85.3439
11
99.04
21
-84.9936
0
LINE
8
BLACK
6
CONTINUOUS
10
99.04
20
-84.9936
11
99.04
21
-84.6144
0
LINE
8
BLACK
6
CONTINUOUS
10
99.04
20
-84.6144
11
98.8949
21
-84.2641
0
LINE
8
BLACK
6
CONTINUOUS
10
98.8949
20
-84.2641
11
98.6267
21
-83.9959
0
LINE
8
BLACK
6
CONTINUOUS
10
98.6267
20
-83.9959
11
98.2764
21
-83.8508
0
LINE
8
BLACK
6
CONTINUOUS
10
98.2764
20
-83.8508
11
97.8972
21
-83.8508
0
LINE
8
BLACK
6
CONTINUOUS
10
108.941
20
-76.2635
11
108.941
21
-77.2365
0
LINE
8
BLACK
6
CONTINUOUS
10
108.941
20
-77.2365
11
108.267
21
-77.2365
0
LINE
8
BLACK
6
CONTINUOUS
10
108.267
20
-77.2365
11
108.267
21
-77.4907
0
LINE
8
BLACK
6
CONTINUOUS
10
108.267
20
-77.4907
11
108.318
21
-77.5413
0
LINE
8
BLACK
6
CONTINUOUS
10
108.318
20
-77.5413
11
109.001
21
-77.5413
0
LINE
8
BLACK
6
CONTINUOUS
10
109.001
20
-77.5413
11
109.113
21
-77.4949
0
LINE
8
BLACK
6
CONTINUOUS
10
109.113
20
-77.4949
11
109.199
21
-77.4092
0
LINE
8
BLACK
6
CONTINUOUS
10
109.199
20
-77.4092
11
109.245
21
-77.2971
0
LINE
8
BLACK
6
CONTINUOUS
10
109.245
20
-77.2971
11
109.245
21
-76.3141
0
LINE
8
BLACK
6
CONTINUOUS
10
109.245
20
-76.3141
11
109.195
21
-76.2635
0
LINE
8
BLACK
6
CONTINUOUS
10
109.195
20
-76.2635
11
108.941
21
-76.2635
0
LINE
8
BLACK
6
CONTINUOUS
10
107.086
20
-76.2635
11
107.036
21
-76.3141
0
LINE
8
BLACK
6
CONTINUOUS
10
107.036
20
-76.3141
11
107.036
21
-77.2971
0
LINE
8
BLACK
6
CONTINUOUS
10
107.036
20
-77.2971
11
107.082
21
-77.4092
0
LINE
8
BLACK
6
CONTINUOUS
10
107.082
20
-77.4092
11
107.168
21
-77.4949
0
LINE
8
BLACK
6
CONTINUOUS
10
107.168
20
-77.4949
11
107.28
21
-77.5413
0
LINE
8
BLACK
6
CONTINUOUS
10
107.28
20
-77.5413
11
107.963
21
-77.5413
0
LINE
8
BLACK
6
CONTINUOUS
10
107.963
20
-77.5413
11
108.013
21
-77.4907
0
LINE
8
BLACK
6
CONTINUOUS
10
108.013
20
-77.4907
11
108.013
21
-77.2365
0
LINE
8
BLACK
6
CONTINUOUS
10
108.013
20
-77.2365
11
107.34
21
-77.2365
0
LINE
8
BLACK
6
CONTINUOUS
10
107.34
20
-77.2365
11
107.34
21
-76.2635
0
LINE
8
BLACK
6
CONTINUOUS
10
107.34
20
-76.2635
11
107.086
21
-76.2635
0
LINE
8
BLACK
6
CONTINUOUS
10
109.888
20
-74.8278
11
109.801
21
-74.8451
0
LINE
8
BLACK
6
CONTINUOUS
10
109.801
20
-74.8451
11
109.734
21
-74.89
0
LINE
8
BLACK
6
CONTINUOUS
10
109.734
20
-74.89
11
109.689
21
-74.9572
0
LINE
8
BLACK
6
CONTINUOUS
10
109.689
20
-74.9572
11
109.672
21
-75.044
0
LINE
8
BLACK
6
CONTINUOUS
10
109.672
20
-75.044
11
109.672
21
-77.229
0
LINE
8
BLACK
6
CONTINUOUS
10
109.672
20
-77.229
11
109.689
21
-77.3158
0
LINE
8
BLACK
6
CONTINUOUS
10
109.689
20
-77.3158
11
109.734
21
-77.383
0
LINE
8
BLACK
6
CONTINUOUS
10
109.734
20
-77.383
11
109.801
21
-77.4279
0
LINE
8
BLACK
6
CONTINUOUS
10
109.801
20
-77.4279
11
109.888
21
-77.4452
0
LINE
8
BLACK
6
CONTINUOUS
10
109.888
20
-77.4452
11
111.473
21
-77.4452
0
LINE
8
BLACK
6
CONTINUOUS
10
111.473
20
-77.4452
11
111.56
21
-77.4279
0
LINE
8
BLACK
6
CONTINUOUS
10
111.56
20
-77.4279
11
111.627
21
-77.383
0
LINE
8
BLACK
6
CONTINUOUS
10
111.627
20
-77.383
11
111.672
21
-77.3158
0
LINE
8
BLACK
6
CONTINUOUS
10
111.672
20
-77.3158
11
111.689
21
-77.229
0
LINE
8
BLACK
6
CONTINUOUS
10
111.689
20
-77.229
11
111.689
21
-75.044
0
LINE
8
BLACK
6
CONTINUOUS
10
111.689
20
-75.044
11
111.672
21
-74.9572
0
LINE
8
BLACK
6
CONTINUOUS
10
111.672
20
-74.9572
11
111.627
21
-74.89
0
LINE
8
BLACK
6
CONTINUOUS
10
111.627
20
-74.89
11
111.56
21
-74.8451
0
LINE
8
BLACK
6
CONTINUOUS
10
111.56
20
-74.8451
11
111.473
21
-74.8278
0
LINE
8
BLACK
6
CONTINUOUS
10
111.473
20
-74.8278
11
109.888
21
-74.8278
0
LINE
8
BLACK
6
CONTINUOUS
10
109.199
20
-74.8638
11
109.113
21
-74.7781
0
LINE
8
BLACK
6
CONTINUOUS
10
109.113
20
-74.7781
11
109.001
21
-74.7317
0
LINE
8
BLACK
6
CONTINUOUS
10
109.001
20
-74.7317
11
108.318
21
-74.7317
0
LINE
8
BLACK
6
CONTINUOUS
10
108.318
20
-74.7317
11
108.267
21
-74.7823
0
LINE
8
BLACK
6
CONTINUOUS
10
108.267
20
-74.7823
11
108.267
21
-75.0365
0
LINE
8
BLACK
6
CONTINUOUS
10
108.267
20
-75.0365
11
108.941
21
-75.0365
0
LINE
8
BLACK
6
CONTINUOUS
10
108.941
20
-75.0365
11
108.941
21
-76.0095
0
LINE
8
BLACK
6
CONTINUOUS
10
108.941
20
-76.0095
11
109.195
21
-76.0095
0
LINE
8
BLACK
6
CONTINUOUS
10
109.195
20
-76.0095
11
109.245
21
-75.9589
0
LINE
8
BLACK
6
CONTINUOUS
10
109.245
20
-75.9589
11
109.245
21
-74.9759
0
LINE
8
BLACK
6
CONTINUOUS
10
109.245
20
-74.9759
11
109.199
21
-74.8638
0
LINE
8
BLACK
6
CONTINUOUS
10
107.28
20
-74.7317
11
107.168
21
-74.7781
0
LINE
8
BLACK
6
CONTINUOUS
10
107.168
20
-74.7781
11
107.082
21
-74.8638
0
LINE
8
BLACK
6
CONTINUOUS
10
107.082
20
-74.8638
11
107.036
21
-74.9759
0
LINE
8
BLACK
6
CONTINUOUS
10
107.036
20
-74.9759
11
107.036
21
-75.9589
0
LINE
8
BLACK
6
CONTINUOUS
10
107.036
20
-75.9589
11
107.086
21
-76.0095
0
LINE
8
BLACK
6
CONTINUOUS
10
107.086
20
-76.0095
11
107.34
21
-76.0095
0
LINE
8
BLACK
6
CONTINUOUS
10
107.34
20
-76.0095
11
107.34
21
-75.0365
0
LINE
8
BLACK
6
CONTINUOUS
10
107.34
20
-75.0365
11
108.013
21
-75.0365
0
LINE
8
BLACK
6
CONTINUOUS
10
108.013
20
-75.0365
11
108.013
21
-74.7823
0
LINE
8
BLACK
6
CONTINUOUS
10
108.013
20
-74.7823
11
107.963
21
-74.7317
0
LINE
8
BLACK
6
CONTINUOUS
10
107.963
20
-74.7317
11
107.28
21
-74.7317
0
LINE
8
BLACK
6
CONTINUOUS
10
97.9
20
-66.8961
11
97.5527
21
-66.9573
0
LINE
8
BLACK
6
CONTINUOUS
10
97.5527
20
-66.9573
11
97.2054
21
-66.8961
0
LINE
8
BLACK
6
CONTINUOUS
10
97.2054
20
-66.8961
11
96.9345
21
-66.7397
0
LINE
8
BLACK
6
CONTINUOUS
10
96.9345
20
-66.7397
11
96.7543
21
-66.9199
0
LINE
8
BLACK
6
CONTINUOUS
10
96.7543
20
-66.9199
11
96.8217
21
-67.0506
0
LINE
8
BLACK
6
CONTINUOUS
10
96.8217
20
-67.0506
11
97.289
21
-67.2459
0
LINE
8
BLACK
6
CONTINUOUS
10
97.289
20
-67.2459
11
97.8081
21
-67.2475
0
LINE
8
BLACK
6
CONTINUOUS
10
97.8081
20
-67.2475
11
98.2826
21
-67.0527
0
LINE
8
BLACK
6
CONTINUOUS
10
98.2826
20
-67.0527
11
98.3511
21
-66.9199
0
LINE
8
BLACK
6
CONTINUOUS
10
98.3511
20
-66.9199
11
98.1709
21
-66.7397
0
LINE
8
BLACK
6
CONTINUOUS
10
98.1709
20
-66.7397
11
97.9
21
-66.8961
0
LINE
8
BLACK
6
CONTINUOUS
10
106.02
20
-66.8961
11
105.673
21
-66.9573
0
LINE
8
BLACK
6
CONTINUOUS
10
105.673
20
-66.9573
11
105.325
21
-66.8961
0
LINE
8
BLACK
6
CONTINUOUS
10
105.325
20
-66.8961
11
105.055
21
-66.7397
0
LINE
8
BLACK
6
CONTINUOUS
10
105.055
20
-66.7397
11
104.874
21
-66.9199
0
LINE
8
BLACK
6
CONTINUOUS
10
104.874
20
-66.9199
11
104.942
21
-67.0506
0
LINE
8
BLACK
6
CONTINUOUS
10
104.942
20
-67.0506
11
105.409
21
-67.2459
0
LINE
8
BLACK
6
CONTINUOUS
10
105.409
20
-67.2459
11
105.928
21
-67.2475
0
LINE
8
BLACK
6
CONTINUOUS
10
105.928
20
-67.2475
11
106.403
21
-67.0527
0
LINE
8
BLACK
6
CONTINUOUS
10
106.403
20
-67.0527
11
106.471
21
-66.9199
0
LINE
8
BLACK
6
CONTINUOUS
10
106.471
20
-66.9199
11
106.291
21
-66.7397
0
LINE
8
BLACK
6
CONTINUOUS
10
106.291
20
-66.7397
11
106.02
21
-66.8961
0
LINE
8
BLACK
6
CONTINUOUS
10
96.444
20
-65.2109
11
96.2487
21
-65.6782
0
LINE
8
BLACK
6
CONTINUOUS
10
96.2487
20
-65.6782
11
96.2471
21
-66.1973
0
LINE
8
BLACK
6
CONTINUOUS
10
96.2471
20
-66.1973
11
96.4419
21
-66.6718
0
LINE
8
BLACK
6
CONTINUOUS
10
96.4419
20
-66.6718
11
96.5747
21
-66.7403
0
LINE
8
BLACK
6
CONTINUOUS
10
96.5747
20
-66.7403
11
96.7609
21
-66.554
0
LINE
8
BLACK
6
CONTINUOUS
10
96.7609
20
-66.554
11
96.6733
21
-66.4496
0
LINE
8
BLACK
6
CONTINUOUS
10
96.6733
20
-66.4496
11
96.5527
21
-66.1182
0
LINE
8
BLACK
6
CONTINUOUS
10
96.5527
20
-66.1182
11
96.5527
21
-65.7656
0
LINE
8
BLACK
6
CONTINUOUS
10
96.5527
20
-65.7656
11
96.6733
21
-65.4342
0
LINE
8
BLACK
6
CONTINUOUS
10
96.6733
20
-65.4342
11
96.7609
21
-65.3298
0
LINE
8
BLACK
6
CONTINUOUS
10
96.7609
20
-65.3298
11
96.5747
21
-65.1435
0
LINE
8
BLACK
6
CONTINUOUS
10
96.5747
20
-65.1435
11
96.444
21
-65.2109
0
LINE
8
BLACK
6
CONTINUOUS
10
98.3445
20
-65.3298
11
98.4321
21
-65.4342
0
LINE
8
BLACK
6
CONTINUOUS
10
98.4321
20
-65.4342
11
98.5527
21
-65.7656
0
LINE
8
BLACK
6
CONTINUOUS
10
98.5527
20
-65.7656
11
98.5527
21
-66.1182
0
LINE
8
BLACK
6
CONTINUOUS
10
98.5527
20
-66.1182
11
98.4321
21
-66.4496
0
LINE
8
BLACK
6
CONTINUOUS
10
98.4321
20
-66.4496
11
98.3445
21
-66.554
0
LINE
8
BLACK
6
CONTINUOUS
10
98.3445
20
-66.554
11
98.5307
21
-66.7403
0
LINE
8
BLACK
6
CONTINUOUS
10
98.5307
20
-66.7403
11
98.6614
21
-66.6729
0
LINE
8
BLACK
6
CONTINUOUS
10
98.6614
20
-66.6729
11
98.8567
21
-66.2056
0
LINE
8
BLACK
6
CONTINUOUS
10
98.8567
20
-66.2056
11
98.8583
21
-65.6865
0
LINE
8
BLACK
6
CONTINUOUS
10
98.8583
20
-65.6865
11
98.6635
21
-65.212
0
LINE
8
BLACK
6
CONTINUOUS
10
98.6635
20
-65.212
11
98.5307
21
-65.1435
0
LINE
8
BLACK
6
CONTINUOUS
10
98.5307
20
-65.1435
11
98.3445
21
-65.3298
0
LINE
8
BLACK
6
CONTINUOUS
10
104.564
20
-65.2109
11
104.369
21
-65.6782
0
LINE
8
BLACK
6
CONTINUOUS
10
104.369
20
-65.6782
11
104.367
21
-66.1973
0
LINE
8
BLACK
6
CONTINUOUS
10
104.367
20
-66.1973
11
104.562
21
-66.6718
0
LINE
8
BLACK
6
CONTINUOUS
10
104.562
20
-66.6718
11
104.695
21
-66.7403
0
LINE
8
BLACK
6
CONTINUOUS
10
104.695
20
-66.7403
11
104.881
21
-66.554
0
LINE
8
BLACK
6
CONTINUOUS
10
104.881
20
-66.554
11
104.793
21
-66.4496
0
LINE
8
BLACK
6
CONTINUOUS
10
104.793
20
-66.4496
11
104.673
21
-66.1182
0
LINE
8
BLACK
6
CONTINUOUS
10
104.673
20
-66.1182
11
104.673
21
-65.7656
0
LINE
8
BLACK
6
CONTINUOUS
10
104.673
20
-65.7656
11
104.793
21
-65.4342
0
LINE
8
BLACK
6
CONTINUOUS
10
104.793
20
-65.4342
11
104.881
21
-65.3298
0
LINE
8
BLACK
6
CONTINUOUS
10
104.881
20
-65.3298
11
104.695
21
-65.1435
0
LINE
8
BLACK
6
CONTINUOUS
10
104.695
20
-65.1435
11
104.564
21
-65.2109
0
LINE
8
BLACK
6
CONTINUOUS
10
106.464
20
-65.3298
11
106.552
21
-65.4342
0
LINE
8
BLACK
6
CONTINUOUS
10
106.552
20
-65.4342
11
106.673
21
-65.7656
0
LINE
8
BLACK
6
CONTINUOUS
10
106.673
20
-65.7656
11
106.673
21
-66.1182
0
LINE
8
BLACK
6
CONTINUOUS
10
106.673
20
-66.1182
11
106.552
21
-66.4496
0
LINE
8
BLACK
6
CONTINUOUS
10
106.552
20
-66.4496
11
106.464
21
-66.554
0
LINE
8
BLACK
6
CONTINUOUS
10
106.464
20
-66.554
11
106.651
21
-66.7403
0
LINE
8
BLACK
6
CONTINUOUS
10
106.651
20
-66.7403
11
106.781
21
-66.6729
0
LINE
8
BLACK
6
CONTINUOUS
10
106.781
20
-66.6729
11
106.977
21
-66.2056
0
LINE
8
BLACK
6
CONTINUOUS
10
106.977
20
-66.2056
11
106.978
21
-65.6865
0
LINE
8
BLACK
6
CONTINUOUS
10
106.978
20
-65.6865
11
106.784
21
-65.212
0
LINE
8
BLACK
6
CONTINUOUS
10
106.784
20
-65.212
11
106.651
21
-65.1435
0
LINE
8
BLACK
6
CONTINUOUS
10
106.651
20
-65.1435
11
106.464
21
-65.3298
0
LINE
8
BLACK
6
CONTINUOUS
10
96.8228
20
-64.8311
11
96.7543
21
-64.9639
0
LINE
8
BLACK
6
CONTINUOUS
10
96.7543
20
-64.9639
11
96.9345
21
-65.1441
0
LINE
8
BLACK
6
CONTINUOUS
10
96.9345
20
-65.1441
11
97.2054
21
-64.9877
0
LINE
8
BLACK
6
CONTINUOUS
10
97.2054
20
-64.9877
11
97.5527
21
-64.9265
0
LINE
8
BLACK
6
CONTINUOUS
10
97.5527
20
-64.9265
11
97.9
21
-64.9877
0
LINE
8
BLACK
6
CONTINUOUS
10
97.9
20
-64.9877
11
98.1709
21
-65.1441
0
LINE
8
BLACK
6
CONTINUOUS
10
98.1709
20
-65.1441
11
98.3511
21
-64.9639
0
LINE
8
BLACK
6
CONTINUOUS
10
98.3511
20
-64.9639
11
98.2837
21
-64.8332
0
LINE
8
BLACK
6
CONTINUOUS
10
98.2837
20
-64.8332
11
97.8164
21
-64.6379
0
LINE
8
BLACK
6
CONTINUOUS
10
97.8164
20
-64.6379
11
97.2973
21
-64.6363
0
LINE
8
BLACK
6
CONTINUOUS
10
97.2973
20
-64.6363
11
96.8228
21
-64.8311
0
LINE
8
BLACK
6
CONTINUOUS
10
104.943
20
-64.8311
11
104.874
21
-64.9639
0
LINE
8
BLACK
6
CONTINUOUS
10
104.874
20
-64.9639
11
105.055
21
-65.1441
0
LINE
8
BLACK
6
CONTINUOUS
10
105.055
20
-65.1441
11
105.325
21
-64.9877
0
LINE
8
BLACK
6
CONTINUOUS
10
105.325
20
-64.9877
11
105.673
21
-64.9265
0
LINE
8
BLACK
6
CONTINUOUS
10
105.673
20
-64.9265
11
106.02
21
-64.9877
0
LINE
8
BLACK
6
CONTINUOUS
10
106.02
20
-64.9877
11
106.291
21
-65.1441
0
LINE
8
BLACK
6
CONTINUOUS
10
106.291
20
-65.1441
11
106.471
21
-64.9639
0
LINE
8
BLACK
6
CONTINUOUS
10
106.471
20
-64.9639
11
106.404
21
-64.8332
0
LINE
8
BLACK
6
CONTINUOUS
10
106.404
20
-64.8332
11
105.936
21
-64.6379
0
LINE
8
BLACK
6
CONTINUOUS
10
105.936
20
-64.6379
11
105.417
21
-64.6363
0
LINE
8
BLACK
6
CONTINUOUS
10
105.417
20
-64.6363
11
104.943
21
-64.8311
0
LINE
8
BLACK
6
CONTINUOUS
10
115.747
20
-63.2206
11
115.747
21
-64.4436
0
LINE
8
BLACK
6
CONTINUOUS
10
115.747
20
-64.4436
11
115.024
21
-64.4436
0
LINE
8
BLACK
6
CONTINUOUS
10
115.024
20
-64.4436
11
115.024
21
-64.6978
0
LINE
8
BLACK
6
CONTINUOUS
10
115.024
20
-64.6978
11
115.075
21
-64.7484
0
LINE
8
BLACK
6
CONTINUOUS
10
115.075
20
-64.7484
11
115.808
21
-64.7484
0
LINE
8
BLACK
6
CONTINUOUS
10
115.808
20
-64.7484
11
115.92
21
-64.702
0
LINE
8
BLACK
6
CONTINUOUS
10
115.92
20
-64.702
11
116.005
21
-64.6163
0
LINE
8
BLACK
6
CONTINUOUS
10
116.005
20
-64.6163
11
116.052
21
-64.5042
0
LINE
8
BLACK
6
CONTINUOUS
10
116.052
20
-64.5042
11
116.052
21
-63.2712
0
LINE
8
BLACK
6
CONTINUOUS
10
116.052
20
-63.2712
11
116.001
21
-63.2206
0
LINE
8
BLACK
6
CONTINUOUS
10
116.001
20
-63.2206
11
115.747
21
-63.2206
0
LINE
8
BLACK
6
CONTINUOUS
10
113.793
20
-63.2206
11
113.742
21
-63.2712
0
LINE
8
BLACK
6
CONTINUOUS
10
113.742
20
-63.2712
11
113.742
21
-64.5042
0
LINE
8
BLACK
6
CONTINUOUS
10
113.742
20
-64.5042
11
113.789
21
-64.6163
0
LINE
8
BLACK
6
CONTINUOUS
10
113.789
20
-64.6163
11
113.874
21
-64.702
0
LINE
8
BLACK
6
CONTINUOUS
10
113.874
20
-64.702
11
113.986
21
-64.7484
0
LINE
8
BLACK
6
CONTINUOUS
10
113.986
20
-64.7484
11
114.719
21
-64.7484
0
LINE
8
BLACK
6
CONTINUOUS
10
114.719
20
-64.7484
11
114.77
21
-64.6978
0
LINE
8
BLACK
6
CONTINUOUS
10
114.77
20
-64.6978
11
114.77
21
-64.4436
0
LINE
8
BLACK
6
CONTINUOUS
10
114.77
20
-64.4436
11
114.047
21
-64.4436
0
LINE
8
BLACK
6
CONTINUOUS
10
114.047
20
-64.4436
11
114.047
21
-63.2206
0
LINE
8
BLACK
6
CONTINUOUS
10
114.047
20
-63.2206
11
113.793
21
-63.2206
0
LINE
8
BLACK
6
CONTINUOUS
10
88.5735
20
-60.9634
11
88.0786
21
-61.149
0
LINE
8
BLACK
6
CONTINUOUS
10
88.0786
20
-61.149
11
88.0709
21
-61.1529
0
LINE
8
BLACK
6
CONTINUOUS
10
88.0709
20
-61.1529
11
87.6981
21
-61.4014
0
LINE
8
BLACK
6
CONTINUOUS
10
87.6981
20
-61.4014
11
87.69
21
-61.4087
0
LINE
8
BLACK
6
CONTINUOUS
10
87.69
20
-61.4087
11
87.3828
21
-61.7774
0
LINE
8
BLACK
6
CONTINUOUS
10
87.3828
20
-61.7774
11
87.3745
21
-61.796
0
LINE
8
BLACK
6
CONTINUOUS
10
87.3745
20
-61.796
11
87.3134
21
-62.2236
0
LINE
8
BLACK
6
CONTINUOUS
10
87.3134
20
-62.2236
11
87.3138
21
-62.2364
0
LINE
8
BLACK
6
CONTINUOUS
10
87.3138
20
-62.2364
11
87.3745
21
-62.5401
0
LINE
8
BLACK
6
CONTINUOUS
10
87.3745
20
-62.5401
11
87.3747
21
-62.5476
0
LINE
8
BLACK
6
CONTINUOUS
10
87.3747
20
-62.5476
11
87.376
21
-62.555
0
LINE
8
BLACK
6
CONTINUOUS
10
87.376
20
-62.555
11
87.376
21
-63.0531
0
LINE
8
BLACK
6
CONTINUOUS
10
87.376
20
-63.0531
11
87.3763
21
-63.0578
0
LINE
8
BLACK
6
CONTINUOUS
10
87.3763
20
-63.0578
11
87.4384
21
-63.5547
0
LINE
8
BLACK
6
CONTINUOUS
10
87.4384
20
-63.5547
11
87.4418
21
-63.5637
0
LINE
8
BLACK
6
CONTINUOUS
10
87.4418
20
-63.5637
11
87.4457
21
-63.5677
0
LINE
8
BLACK
6
CONTINUOUS
10
87.4457
20
-63.5677
11
87.8176
21
-63.8156
0
LINE
8
BLACK
6
CONTINUOUS
10
87.8176
20
-63.8156
11
87.8237
21
-63.8189
0
LINE
8
BLACK
6
CONTINUOUS
10
87.8237
20
-63.8189
11
88.2635
21
-64.0074
0
LINE
8
BLACK
6
CONTINUOUS
10
88.2635
20
-64.0074
11
88.2665
21
-64.0085
0
LINE
8
BLACK
6
CONTINUOUS
10
88.2665
20
-64.0085
11
88.6357
21
-64.1316
0
LINE
8
BLACK
6
CONTINUOUS
10
88.6357
20
-64.1316
11
88.6565
21
-64.1324
0
LINE
8
BLACK
6
CONTINUOUS
10
88.6565
20
-64.1324
11
89.144
21
-64.0105
0
LINE
8
BLACK
6
CONTINUOUS
10
89.144
20
-64.0105
11
89.157
21
-64.0031
0
LINE
8
BLACK
6
CONTINUOUS
10
89.157
20
-64.0031
11
89.1591
21
-64
0
LINE
8
BLACK
6
CONTINUOUS
10
89.1591
20
-64
11
89.1643
21
-63.9963
0
LINE
8
BLACK
6
CONTINUOUS
10
89.1643
20
-63.9963
11
89.1686
21
-63.9918
0
LINE
8
BLACK
6
CONTINUOUS
10
89.1686
20
-63.9918
11
89.1749
21
-63.9887
0
LINE
8
BLACK
6
CONTINUOUS
10
89.1749
20
-63.9887
11
89.1806
21
-63.9846
0
LINE
8
BLACK
6
CONTINUOUS
10
89.1806
20
-63.9846
11
89.1867
21
-63.9828
0
LINE
8
BLACK
6
CONTINUOUS
10
89.1867
20
-63.9828
11
89.1923
21
-63.9801
0
LINE
8
BLACK
6
CONTINUOUS
10
89.1923
20
-63.9801
11
89.1993
21
-63.9793
0
LINE
8
BLACK
6
CONTINUOUS
10
89.1993
20
-63.9793
11
89.2061
21
-63.9774
0
LINE
8
BLACK
6
CONTINUOUS
10
89.2061
20
-63.9774
11
89.5297
21
-63.945
0
LINE
8
BLACK
6
CONTINUOUS
10
89.5297
20
-63.945
11
89.54
21
-63.9425
0
LINE
8
BLACK
6
CONTINUOUS
10
89.54
20
-63.9425
11
89.8433
21
-63.8212
0
LINE
8
BLACK
6
CONTINUOUS
10
89.8433
20
-63.8212
11
89.8587
21
-63.8098
0
LINE
8
BLACK
6
CONTINUOUS
10
89.8587
20
-63.8098
11
90.103
21
-63.5044
0
LINE
8
BLACK
6
CONTINUOUS
10
90.103
20
-63.5044
11
90.1086
21
-63.4948
0
LINE
8
BLACK
6
CONTINUOUS
10
90.1086
20
-63.4948
11
90.2325
21
-63.1849
0
LINE
8
BLACK
6
CONTINUOUS
10
90.2325
20
-63.1849
11
90.2341
21
-63.18
0
LINE
8
BLACK
6
CONTINUOUS
10
90.2341
20
-63.18
11
90.3586
21
-62.6821
0
LINE
8
BLACK
6
CONTINUOUS
10
90.3586
20
-62.6821
11
90.3592
21
-62.6668
0
LINE
8
BLACK
6
CONTINUOUS
10
90.3592
20
-62.6668
11
90.2974
21
-62.2956
0
LINE
8
BLACK
6
CONTINUOUS
10
90.2974
20
-62.2956
11
90.2964
21
-62.2914
0
LINE
8
BLACK
6
CONTINUOUS
10
90.2964
20
-62.2914
11
90.1702
21
-61.8498
0
LINE
8
BLACK
6
CONTINUOUS
10
90.1702
20
-61.8498
11
90.1697
21
-61.8482
0
LINE
8
BLACK
6
CONTINUOUS
10
90.1697
20
-61.8482
11
90.1074
21
-61.6613
0
LINE
8
BLACK
6
CONTINUOUS
10
90.1074
20
-61.6613
11
90.107
21
-61.6584
0
LINE
8
BLACK
6
CONTINUOUS
10
90.107
20
-61.6584
11
90.1058
21
-61.6557
0
LINE
8
BLACK
6
CONTINUOUS
10
90.1058
20
-61.6557
11
90.0448
21
-61.4118
0
LINE
8
BLACK
6
CONTINUOUS
10
90.0448
20
-61.4118
11
90.0418
21
-61.4054
0
LINE
8
BLACK
6
CONTINUOUS
10
90.0418
20
-61.4054
11
90.0366
21
-61.4006
0
LINE
8
BLACK
6
CONTINUOUS
10
90.0366
20
-61.4006
11
89.4169
21
-61.0288
0
LINE
8
BLACK
6
CONTINUOUS
10
89.4169
20
-61.0288
11
89.3976
21
-61.0235
0
LINE
8
BLACK
6
CONTINUOUS
10
89.3976
20
-61.0235
11
89.0324
21
-61.0235
0
LINE
8
BLACK
6
CONTINUOUS
10
89.0324
20
-61.0235
11
89.0271
21
-61.0226
0
LINE
8
BLACK
6
CONTINUOUS
10
89.0271
20
-61.0226
11
89.0216
21
-61.0227
0
LINE
8
BLACK
6
CONTINUOUS
10
89.0216
20
-61.0227
11
88.592
21
-60.9614
0
LINE
8
BLACK
6
CONTINUOUS
10
88.592
20
-60.9614
11
88.5735
21
-60.9634
0
LINE
8
BLACK
6
CONTINUOUS
10
92.6032
20
-56.8882
11
92.1242
21
-57.0866
0
LINE
8
BLACK
6
CONTINUOUS
10
92.1242
20
-57.0866
11
91.7576
21
-57.4532
0
LINE
8
BLACK
6
CONTINUOUS
10
91.7576
20
-57.4532
11
91.5592
21
-57.9322
0
LINE
8
BLACK
6
CONTINUOUS
10
91.5592
20
-57.9322
11
91.5592
21
-58.4506
0
LINE
8
BLACK
6
CONTINUOUS
10
91.5592
20
-58.4506
11
91.7576
21
-58.9296
0
LINE
8
BLACK
6
CONTINUOUS
10
91.7576
20
-58.9296
11
92.1242
21
-59.2962
0
LINE
8
BLACK
6
CONTINUOUS
10
92.1242
20
-59.2962
11
92.6032
21
-59.4946
0
LINE
8
BLACK
6
CONTINUOUS
10
92.6032
20
-59.4946
11
93.1216
21
-59.4946
0
LINE
8
BLACK
6
CONTINUOUS
10
93.1216
20
-59.4946
11
93.6006
21
-59.2962
0
LINE
8
BLACK
6
CONTINUOUS
10
93.6006
20
-59.2962
11
93.9672
21
-58.9296
0
LINE
8
BLACK
6
CONTINUOUS
10
93.9672
20
-58.9296
11
94.1656
21
-58.4506
0
LINE
8
BLACK
6
CONTINUOUS
10
94.1656
20
-58.4506
11
94.1656
21
-57.9322
0
LINE
8
BLACK
6
CONTINUOUS
10
94.1656
20
-57.9322
11
93.9672
21
-57.4532
0
LINE
8
BLACK
6
CONTINUOUS
10
93.9672
20
-57.4532
11
93.6006
21
-57.0866
0
LINE
8
BLACK
6
CONTINUOUS
10
93.6006
20
-57.0866
11
93.1216
21
-56.8882
0
LINE
8
BLACK
6
CONTINUOUS
10
93.1216
20
-56.8882
11
92.6032
21
-56.8882
0
LINE
8
BLACK
6
CONTINUOUS
10
88.2406
20
-57.2344
11
87.8586
21
-57.3018
0
LINE
8
BLACK
6
CONTINUOUS
10
87.8586
20
-57.3018
11
87.4766
21
-57.2344
0
LINE
8
BLACK
6
CONTINUOUS
10
87.4766
20
-57.2344
11
87.1672
21
-57.0558
0
LINE
8
BLACK
6
CONTINUOUS
10
87.1672
20
-57.0558
11
86.9891
21
-57.234
0
LINE
8
BLACK
6
CONTINUOUS
10
86.9891
20
-57.234
11
87.0667
21
-57.3757
0
LINE
8
BLACK
6
CONTINUOUS
10
87.0667
20
-57.3757
11
87.5713
21
-57.588
0
LINE
8
BLACK
6
CONTINUOUS
10
87.5713
20
-57.588
11
88.1301
21
-57.5911
0
LINE
8
BLACK
6
CONTINUOUS
10
88.1301
20
-57.5911
11
88.6481
21
-57.38
0
LINE
8
BLACK
6
CONTINUOUS
10
88.6481
20
-57.38
11
88.7281
21
-57.234
0
LINE
8
BLACK
6
CONTINUOUS
10
88.7281
20
-57.234
11
88.55
21
-57.0558
0
LINE
8
BLACK
6
CONTINUOUS
10
88.55
20
-57.0558
11
88.2406
21
-57.2344
0
LINE
8
BLACK
6
CONTINUOUS
10
109.507
20
-101.521
11
107.307
21
-101.521
0
LINE
8
BLACK
6
CONTINUOUS
10
107.307
20
-101.521
11
107.307
21
-99.9212
0
LINE
8
BLACK
6
CONTINUOUS
10
107.307
20
-99.9212
11
109.507
21
-99.9212
0
LINE
8
BLACK
6
CONTINUOUS
10
109.507
20
-99.9212
11
109.507
21
-101.521
0
LINE
8
BLACK
6
CONTINUOUS
10
98.4916
20
-89.4715
11
101.894
21
-89.4715
0
LINE
8
BLACK
6
CONTINUOUS
10
101.894
20
-89.4715
11
102.042
21
-89.4977
0
LINE
8
BLACK
6
CONTINUOUS
10
102.042
20
-89.4977
11
102.217
21
-89.5985
0
LINE
8
BLACK
6
CONTINUOUS
10
102.217
20
-89.5985
11
102.346
21
-89.7528
0
LINE
8
BLACK
6
CONTINUOUS
10
102.346
20
-89.7528
11
102.415
21
-89.9422
0
LINE
8
BLACK
6
CONTINUOUS
10
102.415
20
-89.9422
11
102.415
21
-90.1438
0
LINE
8
BLACK
6
CONTINUOUS
10
102.415
20
-90.1438
11
102.346
21
-90.3332
0
LINE
8
BLACK
6
CONTINUOUS
10
102.346
20
-90.3332
11
102.217
21
-90.4875
0
LINE
8
BLACK
6
CONTINUOUS
10
102.217
20
-90.4875
11
102.042
21
-90.5883
0
LINE
8
BLACK
6
CONTINUOUS
10
102.042
20
-90.5883
11
101.894
21
-90.6145
0
LINE
8
BLACK
6
CONTINUOUS
10
101.894
20
-90.6145
11
98.4675
21
-90.6145
0
LINE
8
BLACK
6
CONTINUOUS
10
98.4675
20
-90.6145
11
98.4429
21
-90.6211
0
LINE
8
BLACK
6
CONTINUOUS
10
98.4429
20
-90.6211
11
98.3974
21
-90.6171
0
LINE
8
BLACK
6
CONTINUOUS
10
98.3974
20
-90.6171
11
98.3519
21
-90.6211
0
LINE
8
BLACK
6
CONTINUOUS
10
98.3519
20
-90.6211
11
98.3078
21
-90.6093
0
LINE
8
BLACK
6
CONTINUOUS
10
98.3078
20
-90.6093
11
98.2421
21
-90.6035
0
LINE
8
BLACK
6
CONTINUOUS
10
98.2421
20
-90.6035
11
98.2128
21
-90.5899
0
LINE
8
BLACK
6
CONTINUOUS
10
98.2128
20
-90.5899
11
98.204
21
-90.5883
0
LINE
8
BLACK
6
CONTINUOUS
10
98.204
20
-90.5883
11
98.1819
21
-90.5756
0
LINE
8
BLACK
6
CONTINUOUS
10
98.1819
20
-90.5756
11
98.1572
21
-90.5689
0
LINE
8
BLACK
6
CONTINUOUS
10
98.1572
20
-90.5689
11
98.1359
21
-90.554
0
LINE
8
BLACK
6
CONTINUOUS
10
98.1359
20
-90.554
11
98.0594
21
-90.5184
0
LINE
8
BLACK
6
CONTINUOUS
10
98.0594
20
-90.5184
11
97.9752
21
-90.4342
0
LINE
8
BLACK
6
CONTINUOUS
10
97.9752
20
-90.4342
11
97.4298
21
-90.4342
0
LINE
8
BLACK
6
CONTINUOUS
10
97.4298
20
-90.4342
11
97.3551
21
-90.4773
0
LINE
8
BLACK
6
CONTINUOUS
10
97.3551
20
-90.4773
11
97.2007
21
-90.5045
0
LINE
8
BLACK
6
CONTINUOUS
10
97.2007
20
-90.5045
11
97.0463
21
-90.4773
0
LINE
8
BLACK
6
CONTINUOUS
10
97.0463
20
-90.4773
11
96.9106
21
-90.3989
0
LINE
8
BLACK
6
CONTINUOUS
10
96.9106
20
-90.3989
11
96.8098
21
-90.2788
0
LINE
8
BLACK
6
CONTINUOUS
10
96.8098
20
-90.2788
11
96.7562
21
-90.1315
0
LINE
8
BLACK
6
CONTINUOUS
10
96.7562
20
-90.1315
11
96.7562
21
-89.9748
0
LINE
8
BLACK
6
CONTINUOUS
10
96.7562
20
-89.9748
11
96.8098
21
-89.8275
0
LINE
8
BLACK
6
CONTINUOUS
10
96.8098
20
-89.8275
11
96.9106
21
-89.7074
0
LINE
8
BLACK
6
CONTINUOUS
10
96.9106
20
-89.7074
11
97.0463
21
-89.629
0
LINE
8
BLACK
6
CONTINUOUS
10
97.0463
20
-89.629
11
97.2007
21
-89.6018
0
LINE
8
BLACK
6
CONTINUOUS
10
97.2007
20
-89.6018
11
97.3551
21
-89.629
0
LINE
8
BLACK
6
CONTINUOUS
10
97.3551
20
-89.629
11
97.4298
21
-89.6722
0
LINE
8
BLACK
6
CONTINUOUS
10
97.4298
20
-89.6722
11
97.9549
21
-89.6722
0
LINE
8
BLACK
6
CONTINUOUS
10
97.9549
20
-89.6722
11
97.9906
21
-89.6365
0
LINE
8
BLACK
6
CONTINUOUS
10
97.9906
20
-89.6365
11
98.0286
21
-89.5985
0
LINE
8
BLACK
6
CONTINUOUS
10
98.0286
20
-89.5985
11
98.0286
21
-89.5985
0
LINE
8
BLACK
6
CONTINUOUS
10
98.0286
20
-89.5985
11
98.0645
21
-89.5626
0
LINE
8
BLACK
6
CONTINUOUS
10
98.0645
20
-89.5626
11
98.1105
21
-89.5411
0
LINE
8
BLACK
6
CONTINUOUS
10
98.1105
20
-89.5411
11
98.1521
21
-89.512
0
LINE
8
BLACK
6
CONTINUOUS
10
98.1521
20
-89.512
11
98.2012
21
-89.4988
0
LINE
8
BLACK
6
CONTINUOUS
10
98.2012
20
-89.4988
11
98.2472
21
-89.4774
0
LINE
8
BLACK
6
CONTINUOUS
10
98.2472
20
-89.4774
11
98.2978
21
-89.473
0
LINE
8
BLACK
6
CONTINUOUS
10
98.2978
20
-89.473
11
98.3468
21
-89.4598
0
LINE
8
BLACK
6
CONTINUOUS
10
98.3468
20
-89.4598
11
98.3974
21
-89.4642
0
LINE
8
BLACK
6
CONTINUOUS
10
98.3974
20
-89.4642
11
98.448
21
-89.4598
0
LINE
8
BLACK
6
CONTINUOUS
10
98.448
20
-89.4598
11
98.4916
21
-89.4715
0
LINE
8
BLACK
6
CONTINUOUS
10
105.662
20
-84.0884
11
105.892
21
-84.2206
0
LINE
8
BLACK
6
CONTINUOUS
10
105.892
20
-84.2206
11
106.062
21
-84.4232
0
LINE
8
BLACK
6
CONTINUOUS
10
106.062
20
-84.4232
11
106.152
21
-84.6718
0
LINE
8
BLACK
6
CONTINUOUS
10
106.152
20
-84.6718
11
106.152
21
-84.9362
0
LINE
8
BLACK
6
CONTINUOUS
10
106.152
20
-84.9362
11
106.062
21
-85.1848
0
LINE
8
BLACK
6
CONTINUOUS
10
106.062
20
-85.1848
11
105.892
21
-85.3874
0
LINE
8
BLACK
6
CONTINUOUS
10
105.892
20
-85.3874
11
105.662
21
-85.5196
0
LINE
8
BLACK
6
CONTINUOUS
10
105.662
20
-85.5196
11
105.402
21
-85.5656
0
LINE
8
BLACK
6
CONTINUOUS
10
105.402
20
-85.5656
11
105.142
21
-85.5196
0
LINE
8
BLACK
6
CONTINUOUS
10
105.142
20
-85.5196
11
104.912
21
-85.3874
0
LINE
8
BLACK
6
CONTINUOUS
10
104.912
20
-85.3874
11
104.742
21
-85.1848
0
LINE
8
BLACK
6
CONTINUOUS
10
104.742
20
-85.1848
11
104.652
21
-84.9362
0
LINE
8
BLACK
6
CONTINUOUS
10
104.652
20
-84.9362
11
104.652
21
-84.6718
0
LINE
8
BLACK
6
CONTINUOUS
10
104.652
20
-84.6718
11
104.742
21
-84.4232
0
LINE
8
BLACK
6
CONTINUOUS
10
104.742
20
-84.4232
11
104.912
21
-84.2206
0
LINE
8
BLACK
6
CONTINUOUS
10
104.912
20
-84.2206
11
105.142
21
-84.0884
0
LINE
8
BLACK
6
CONTINUOUS
10
105.142
20
-84.0884
11
105.402
21
-84.0424
0
LINE
8
BLACK
6
CONTINUOUS
10
105.402
20
-84.0424
11
105.662
21
-84.0884
0
LINE
8
BLACK
6
CONTINUOUS
10
98.3473
20
-84.0884
11
98.5763
21
-84.2206
0
LINE
8
BLACK
6
CONTINUOUS
10
98.5763
20
-84.2206
11
98.7463
21
-84.4232
0
LINE
8
BLACK
6
CONTINUOUS
10
98.7463
20
-84.4232
11
98.8368
21
-84.6718
0
LINE
8
BLACK
6
CONTINUOUS
10
98.8368
20
-84.6718
11
98.8368
21
-84.9362
0
LINE
8
BLACK
6
CONTINUOUS
10
98.8368
20
-84.9362
11
98.7463
21
-85.1848
0
LINE
8
BLACK
6
CONTINUOUS
10
98.7463
20
-85.1848
11
98.5763
21
-85.3874
0
LINE
8
BLACK
6
CONTINUOUS
10
98.5763
20
-85.3874
11
98.3473
21
-85.5196
0
LINE
8
BLACK
6
CONTINUOUS
10
98.3473
20
-85.5196
11
98.0868
21
-85.5656
0
LINE
8
BLACK
6
CONTINUOUS
10
98.0868
20
-85.5656
11
97.8263
21
-85.5196
0
LINE
8
BLACK
6
CONTINUOUS
10
97.8263
20
-85.5196
11
97.5973
21
-85.3874
0
LINE
8
BLACK
6
CONTINUOUS
10
97.5973
20
-85.3874
11
97.4273
21
-85.1848
0
LINE
8
BLACK
6
CONTINUOUS
10
97.4273
20
-85.1848
11
97.3368
21
-84.9362
0
LINE
8
BLACK
6
CONTINUOUS
10
97.3368
20
-84.9362
11
97.3368
21
-84.6718
0
LINE
8
BLACK
6
CONTINUOUS
10
97.3368
20
-84.6718
11
97.4273
21
-84.4232
0
LINE
8
BLACK
6
CONTINUOUS
10
97.4273
20
-84.4232
11
97.5973
21
-84.2206
0
LINE
8
BLACK
6
CONTINUOUS
10
97.5973
20
-84.2206
11
97.8263
21
-84.0884
0
LINE
8
BLACK
6
CONTINUOUS
10
97.8263
20
-84.0884
11
98.0868
21
-84.0424
0
LINE
8
BLACK
6
CONTINUOUS
10
98.0868
20
-84.0424
11
98.3473
21
-84.0884
0
LINE
8
BLACK
6
CONTINUOUS
10
111.48
20
-77.2365
11
109.88
21
-77.2365
0
LINE
8
BLACK
6
CONTINUOUS
10
109.88
20
-77.2365
11
109.88
21
-75.0365
0
LINE
8
BLACK
6
CONTINUOUS
10
109.88
20
-75.0365
11
111.48
21
-75.0365
0
LINE
8
BLACK
6
CONTINUOUS
10
111.48
20
-75.0365
11
111.48
21
-77.2365
0
LINE
8
BLACK
6
CONTINUOUS
10
89.1965
20
-61.5806
11
89.5019
21
-61.7569
0
LINE
8
BLACK
6
CONTINUOUS
10
89.5019
20
-61.7569
11
89.7286
21
-62.0271
0
LINE
8
BLACK
6
CONTINUOUS
10
89.7286
20
-62.0271
11
89.8492
21
-62.3585
0
LINE
8
BLACK
6
CONTINUOUS
10
89.8492
20
-62.3585
11
89.8492
21
-62.7111
0
LINE
8
BLACK
6
CONTINUOUS
10
89.8492
20
-62.7111
11
89.7286
21
-63.0425
0
LINE
8
BLACK
6
CONTINUOUS
10
89.7286
20
-63.0425
11
89.5019
21
-63.3127
0
LINE
8
BLACK
6
CONTINUOUS
10
89.5019
20
-63.3127
11
89.1965
21
-63.489
0
LINE
8
BLACK
6
CONTINUOUS
10
89.1965
20
-63.489
11
88.8492
21
-63.5502
0
LINE
8
BLACK
6
CONTINUOUS
10
88.8492
20
-63.5502
11
88.5019
21
-63.489
0
LINE
8
BLACK
6
CONTINUOUS
10
88.5019
20
-63.489
11
88.1965
21
-63.3127
0
LINE
8
BLACK
6
CONTINUOUS
10
88.1965
20
-63.3127
11
87.9698
21
-63.0425
0
LINE
8
BLACK
6
CONTINUOUS
10
87.9698
20
-63.0425
11
87.8492
21
-62.7111
0
LINE
8
BLACK
6
CONTINUOUS
10
87.8492
20
-62.7111
11
87.8492
21
-62.3585
0
LINE
8
BLACK
6
CONTINUOUS
10
87.8492
20
-62.3585
11
87.9698
21
-62.0271
0
LINE
8
BLACK
6
CONTINUOUS
10
87.9698
20
-62.0271
11
88.1965
21
-61.7569
0
LINE
8
BLACK
6
CONTINUOUS
10
88.1965
20
-61.7569
11
88.5019
21
-61.5806
0
LINE
8
BLACK
6
CONTINUOUS
10
88.5019
20
-61.5806
11
88.8492
21
-61.5194
0
LINE
8
BLACK
6
CONTINUOUS
10
88.8492
20
-61.5194
11
89.1965
21
-61.5806
0
LINE
8
BLACK
6
CONTINUOUS
10
93.2444
20
-57.1418
11
93.5804
21
-57.3358
0
LINE
8
BLACK
6
CONTINUOUS
10
93.5804
20
-57.3358
11
93.8297
21
-57.6329
0
LINE
8
BLACK
6
CONTINUOUS
10
93.8297
20
-57.6329
11
93.9624
21
-57.9974
0
LINE
8
BLACK
6
CONTINUOUS
10
93.9624
20
-57.9974
11
93.9624
21
-58.3854
0
LINE
8
BLACK
6
CONTINUOUS
10
93.9624
20
-58.3854
11
93.8297
21
-58.7499
0
LINE
8
BLACK
6
CONTINUOUS
10
93.8297
20
-58.7499
11
93.5804
21
-59.047
0
LINE
8
BLACK
6
CONTINUOUS
10
93.5804
20
-59.047
11
93.2444
21
-59.241
0
LINE
8
BLACK
6
CONTINUOUS
10
93.2444
20
-59.241
11
92.8624
21
-59.3084
0
LINE
8
BLACK
6
CONTINUOUS
10
92.8624
20
-59.3084
11
92.4804
21
-59.241
0
LINE
8
BLACK
6
CONTINUOUS
10
92.4804
20
-59.241
11
92.1444
21
-59.047
0
LINE
8
BLACK
6
CONTINUOUS
10
92.1444
20
-59.047
11
91.8951
21
-58.7499
0
LINE
8
BLACK
6
CONTINUOUS
10
91.8951
20
-58.7499
11
91.7624
21
-58.3854
0
LINE
8
BLACK
6
CONTINUOUS
10
91.7624
20
-58.3854
11
91.7624
21
-57.9974
0
LINE
8
BLACK
6
CONTINUOUS
10
91.7624
20
-57.9974
11
91.8951
21
-57.6329
0
LINE
8
BLACK
6
CONTINUOUS
10
91.8951
20
-57.6329
11
92.1444
21
-57.3358
0
LINE
8
BLACK
6
CONTINUOUS
10
92.1444
20
-57.3358
11
92.4804
21
-57.1418
0
LINE
8
BLACK
6
CONTINUOUS
10
92.4804
20
-57.1418
11
92.8624
21
-57.0744
0
LINE
8
BLACK
6
CONTINUOUS
10
92.8624
20
-57.0744
11
93.2444
21
-57.1418
0
LINE
8
BLACK
6
CONTINUOUS
10
89.1965
20
-100.595
11
89.5019
21
-100.771
0
LINE
8
BLACK
6
CONTINUOUS
10
89.5019
20
-100.771
11
89.7286
21
-101.041
0
LINE
8
BLACK
6
CONTINUOUS
10
89.7286
20
-101.041
11
89.8492
21
-101.373
0
LINE
8
BLACK
6
CONTINUOUS
10
89.8492
20
-101.373
11
89.8492
21
-101.726
0
LINE
8
BLACK
6
CONTINUOUS
10
89.8492
20
-101.726
11
89.7286
21
-102.057
0
LINE
8
BLACK
6
CONTINUOUS
10
89.7286
20
-102.057
11
89.5019
21
-102.327
0
LINE
8
BLACK
6
CONTINUOUS
10
89.5019
20
-102.327
11
89.1965
21
-102.503
0
LINE
8
BLACK
6
CONTINUOUS
10
89.1965
20
-102.503
11
88.8492
21
-102.565
0
LINE
8
BLACK
6
CONTINUOUS
10
88.8492
20
-102.565
11
88.5019
21
-102.503
0
LINE
8
BLACK
6
CONTINUOUS
10
88.5019
20
-102.503
11
88.1965
21
-102.327
0
LINE
8
BLACK
6
CONTINUOUS
10
88.1965
20
-102.327
11
87.9698
21
-102.057
0
LINE
8
BLACK
6
CONTINUOUS
10
87.9698
20
-102.057
11
87.8492
21
-101.726
0
LINE
8
BLACK
6
CONTINUOUS
10
87.8492
20
-101.726
11
87.8492
21
-101.373
0
LINE
8
BLACK
6
CONTINUOUS
10
87.8492
20
-101.373
11
87.9698
21
-101.041
0
LINE
8
BLACK
6
CONTINUOUS
10
87.9698
20
-101.041
11
88.1965
21
-100.771
0
LINE
8
BLACK
6
CONTINUOUS
10
88.1965
20
-100.771
11
88.5019
21
-100.595
0
LINE
8
BLACK
6
CONTINUOUS
10
88.5019
20
-100.595
11
88.8492
21
-100.534
0
LINE
8
BLACK
6
CONTINUOUS
10
88.8492
20
-100.534
11
89.1965
21
-100.595
0
LINE
8
BLACK
6
CONTINUOUS
10
120.184
20
-100.595
11
120.49
21
-100.771
0
LINE
8
BLACK
6
CONTINUOUS
10
120.49
20
-100.771
11
120.717
21
-101.041
0
LINE
8
BLACK
6
CONTINUOUS
10
120.717
20
-101.041
11
120.837
21
-101.373
0
LINE
8
BLACK
6
CONTINUOUS
10
120.837
20
-101.373
11
120.837
21
-101.726
0
LINE
8
BLACK
6
CONTINUOUS
10
120.837
20
-101.726
11
120.717
21
-102.057
0
LINE
8
BLACK
6
CONTINUOUS
10
120.717
20
-102.057
11
120.49
21
-102.327
0
LINE
8
BLACK
6
CONTINUOUS
10
120.49
20
-102.327
11
120.184
21
-102.503
0
LINE
8
BLACK
6
CONTINUOUS
10
120.184
20
-102.503
11
119.837
21
-102.565
0
LINE
8
BLACK
6
CONTINUOUS
10
119.837
20
-102.565
11
119.49
21
-102.503
0
LINE
8
BLACK
6
CONTINUOUS
10
119.49
20
-102.503
11
119.184
21
-102.327
0
LINE
8
BLACK
6
CONTINUOUS
10
119.184
20
-102.327
11
118.958
21
-102.057
0
LINE
8
BLACK
6
CONTINUOUS
10
118.958
20
-102.057
11
118.837
21
-101.726
0
LINE
8
BLACK
6
CONTINUOUS
10
118.837
20
-101.726
11
118.837
21
-101.373
0
LINE
8
BLACK
6
CONTINUOUS
10
118.837
20
-101.373
11
118.958
21
-101.041
0
LINE
8
BLACK
6
CONTINUOUS
10
118.958
20
-101.041
11
119.184
21
-100.771
0
LINE
8
BLACK
6
CONTINUOUS
10
119.184
20
-100.771
11
119.49
21
-100.595
0
LINE
8
BLACK
6
CONTINUOUS
10
119.49
20
-100.595
11
119.837
21
-100.534
0
LINE
8
BLACK
6
CONTINUOUS
10
119.837
20
-100.534
11
120.184
21
-100.595
0
LINE
8
BLACK
6
CONTINUOUS
10
113.207
20
-64.4436
11
111.507
21
-64.4436
0
LINE
8
BLACK
6
CONTINUOUS
10
111.507
20
-64.4436
11
111.507
21
-61.7436
0
LINE
8
BLACK
6
CONTINUOUS
10
111.507
20
-61.7436
11
113.207
21
-61.7436
0
LINE
8
BLACK
6
CONTINUOUS
10
113.207
20
-61.7436
11
113.207
21
-64.4436
0
LINE
8
BLACK
6
CONTINUOUS
10
120.21
20
-61.5806
11
120.515
21
-61.7569
0
LINE
8
BLACK
6
CONTINUOUS
10
120.515
20
-61.7569
11
120.742
21
-62.0271
0
LINE
8
BLACK
6
CONTINUOUS
10
120.742
20
-62.0271
11
120.863
21
-62.3585
0
LINE
8
BLACK
6
CONTINUOUS
10
120.863
20
-62.3585
11
120.863
21
-62.7111
0
LINE
8
BLACK
6
CONTINUOUS
10
120.863
20
-62.7111
11
120.742
21
-63.0425
0
LINE
8
BLACK
6
CONTINUOUS
10
120.742
20
-63.0425
11
120.515
21
-63.3127
0
LINE
8
BLACK
6
CONTINUOUS
10
120.515
20
-63.3127
11
120.21
21
-63.489
0
LINE
8
BLACK
6
CONTINUOUS
10
120.21
20
-63.489
11
119.863
21
-63.5502
0
LINE
8
BLACK
6
CONTINUOUS
10
119.863
20
-63.5502
11
119.515
21
-63.489
0
LINE
8
BLACK
6
CONTINUOUS
10
119.515
20
-63.489
11
119.21
21
-63.3127
0
LINE
8
BLACK
6
CONTINUOUS
10
119.21
20
-63.3127
11
118.983
21
-63.0425
0
LINE
8
BLACK
6
CONTINUOUS
10
118.983
20
-63.0425
11
118.863
21
-62.7111
0
LINE
8
BLACK
6
CONTINUOUS
10
118.863
20
-62.7111
11
118.863
21
-62.3585
0
LINE
8
BLACK
6
CONTINUOUS
10
118.863
20
-62.3585
11
118.983
21
-62.0271
0
LINE
8
BLACK
6
CONTINUOUS
10
118.983
20
-62.0271
11
119.21
21
-61.7569
0
LINE
8
BLACK
6
CONTINUOUS
10
119.21
20
-61.7569
11
119.515
21
-61.5806
0
LINE
8
BLACK
6
CONTINUOUS
10
119.515
20
-61.5806
11
119.863
21
-61.5194
0
LINE
8
BLACK
6
CONTINUOUS
10
119.863
20
-61.5194
11
120.21
21
-61.5806
0
LINE
8
BLACK
6
CONTINUOUS
10
112.565
20
-60.0711
11
112.749
21
-60.1769
0
LINE
8
BLACK
6
CONTINUOUS
10
112.749
20
-60.1769
11
112.885
21
-60.339
0
LINE
8
BLACK
6
CONTINUOUS
10
112.885
20
-60.339
11
112.957
21
-60.5378
0
LINE
8
BLACK
6
CONTINUOUS
10
112.957
20
-60.5378
11
112.957
21
-60.7494
0
LINE
8
BLACK
6
CONTINUOUS
10
112.957
20
-60.7494
11
112.885
21
-60.9482
0
LINE
8
BLACK
6
CONTINUOUS
10
112.885
20
-60.9482
11
112.749
21
-61.1103
0
LINE
8
BLACK
6
CONTINUOUS
10
112.749
20
-61.1103
11
112.565
21
-61.2161
0
LINE
8
BLACK
6
CONTINUOUS
10
112.565
20
-61.2161
11
112.357
21
-61.2529
0
LINE
8
BLACK
6
CONTINUOUS
10
112.357
20
-61.2529
11
112.149
21
-61.2161
0
LINE
8
BLACK
6
CONTINUOUS
10
112.149
20
-61.2161
11
111.965
21
-61.1103
0
LINE
8
BLACK
6
CONTINUOUS
10
111.965
20
-61.1103
11
111.829
21
-60.9482
0
LINE
8
BLACK
6
CONTINUOUS
10
111.829
20
-60.9482
11
111.757
21
-60.7494
0
LINE
8
BLACK
6
CONTINUOUS
10
111.757
20
-60.7494
11
111.757
21
-60.5378
0
LINE
8
BLACK
6
CONTINUOUS
10
111.757
20
-60.5378
11
111.829
21
-60.339
0
LINE
8
BLACK
6
CONTINUOUS
10
111.829
20
-60.339
11
111.965
21
-60.1769
0
LINE
8
BLACK
6
CONTINUOUS
10
111.965
20
-60.1769
11
112.149
21
-60.0711
0
LINE
8
BLACK
6
CONTINUOUS
10
112.149
20
-60.0711
11
112.357
21
-60.0343
0
LINE
8
BLACK
6
CONTINUOUS
10
112.357
20
-60.0343
11
112.565
21
-60.0711
0
LINE
8
BLACK
6
CONTINUOUS
10
115.105
20
-60.0711
11
115.289
21
-60.1769
0
LINE
8
BLACK
6
CONTINUOUS
10
115.289
20
-60.1769
11
115.425
21
-60.339
0
LINE
8
BLACK
6
CONTINUOUS
10
115.425
20
-60.339
11
115.497
21
-60.5378
0
LINE
8
BLACK
6
CONTINUOUS
10
115.497
20
-60.5378
11
115.497
21
-60.7494
0
LINE
8
BLACK
6
CONTINUOUS
10
115.497
20
-60.7494
11
115.425
21
-60.9482
0
LINE
8
BLACK
6
CONTINUOUS
10
115.425
20
-60.9482
11
115.289
21
-61.1103
0
LINE
8
BLACK
6
CONTINUOUS
10
115.289
20
-61.1103
11
115.105
21
-61.2161
0
LINE
8
BLACK
6
CONTINUOUS
10
115.105
20
-61.2161
11
114.897
21
-61.2529
0
LINE
8
BLACK
6
CONTINUOUS
10
114.897
20
-61.2529
11
114.689
21
-61.2161
0
LINE
8
BLACK
6
CONTINUOUS
10
114.689
20
-61.2161
11
114.505
21
-61.1103
0
LINE
8
BLACK
6
CONTINUOUS
10
114.505
20
-61.1103
11
114.369
21
-60.9482
0
LINE
8
BLACK
6
CONTINUOUS
10
114.369
20
-60.9482
11
114.297
21
-60.7494
0
LINE
8
BLACK
6
CONTINUOUS
10
114.297
20
-60.7494
11
114.297
21
-60.5378
0
LINE
8
BLACK
6
CONTINUOUS
10
114.297
20
-60.5378
11
114.369
21
-60.339
0
LINE
8
BLACK
6
CONTINUOUS
10
114.369
20
-60.339
11
114.505
21
-60.1769
0
LINE
8
BLACK
6
CONTINUOUS
10
114.505
20
-60.1769
11
114.689
21
-60.0711
0
LINE
8
BLACK
6
CONTINUOUS
10
114.689
20
-60.0711
11
114.897
21
-60.0343
0
LINE
8
BLACK
6
CONTINUOUS
10
114.897
20
-60.0343
11
115.105
21
-60.0711
0
LINE
8
BLACK
6
CONTINUOUS
10
106.971
20
-60.2363
11
106.975
21
-60.236
0
LINE
8
BLACK
6
CONTINUOUS
10
106.975
20
-60.236
11
106.984
21
-60.2386
0
LINE
8
BLACK
6
CONTINUOUS
10
106.984
20
-60.2386
11
106.993
21
-60.2403
0
LINE
8
BLACK
6
CONTINUOUS
10
106.993
20
-60.2403
11
106.997
21
-60.2425
0
LINE
8
BLACK
6
CONTINUOUS
10
106.997
20
-60.2425
11
107.002
21
-60.2438
0
LINE
8
BLACK
6
CONTINUOUS
10
107.002
20
-60.2438
11
107.069
21
-60.2777
0
LINE
8
BLACK
6
CONTINUOUS
10
107.069
20
-60.2777
11
107.079
21
-60.2847
0
LINE
8
BLACK
6
CONTINUOUS
10
107.079
20
-60.2847
11
107.088
21
-60.2911
0
LINE
8
BLACK
6
CONTINUOUS
10
107.088
20
-60.2911
11
107.09
21
-60.2928
0
LINE
8
BLACK
6
CONTINUOUS
10
107.09
20
-60.2928
11
107.092
21
-60.2941
0
LINE
8
BLACK
6
CONTINUOUS
10
107.092
20
-60.2941
11
107.098
21
-60.3039
0
LINE
8
BLACK
6
CONTINUOUS
10
107.098
20
-60.3039
11
107.105
21
-60.3132
0
LINE
8
BLACK
6
CONTINUOUS
10
107.105
20
-60.3132
11
107.139
21
-60.3809
0
LINE
8
BLACK
6
CONTINUOUS
10
107.139
20
-60.3809
11
107.14
21
-60.3853
0
LINE
8
BLACK
6
CONTINUOUS
10
107.14
20
-60.3853
11
107.142
21
-60.3893
0
LINE
8
BLACK
6
CONTINUOUS
10
107.142
20
-60.3893
11
107.144
21
-60.3984
0
LINE
8
BLACK
6
CONTINUOUS
10
107.144
20
-60.3984
11
107.147
21
-60.4074
0
LINE
8
BLACK
6
CONTINUOUS
10
107.147
20
-60.4074
11
107.146
21
-60.4119
0
LINE
8
BLACK
6
CONTINUOUS
10
107.146
20
-60.4119
11
107.147
21
-60.4164
0
LINE
8
BLACK
6
CONTINUOUS
10
107.147
20
-60.4164
11
107.147
21
-60.789
0
LINE
8
BLACK
6
CONTINUOUS
10
107.147
20
-60.789
11
107.142
21
-60.8161
0
LINE
8
BLACK
6
CONTINUOUS
10
107.142
20
-60.8161
11
107.129
21
-60.84
0
LINE
8
BLACK
6
CONTINUOUS
10
107.129
20
-60.84
11
107.107
21
-60.8577
0
LINE
8
BLACK
6
CONTINUOUS
10
107.107
20
-60.8577
11
107.082
21
-60.8671
0
LINE
8
BLACK
6
CONTINUOUS
10
107.082
20
-60.8671
11
107.054
21
-60.8671
0
LINE
8
BLACK
6
CONTINUOUS
10
107.054
20
-60.8671
11
107.035
21
-60.8602
0
LINE
8
BLACK
6
CONTINUOUS
10
107.035
20
-60.8602
11
107.031
21
-60.8613
0
LINE
8
BLACK
6
CONTINUOUS
10
107.031
20
-60.8613
11
107.027
21
-60.8636
0
LINE
8
BLACK
6
CONTINUOUS
10
107.027
20
-60.8636
11
107.018
21
-60.8652
0
LINE
8
BLACK
6
CONTINUOUS
10
107.018
20
-60.8652
11
107.009
21
-60.8678
0
LINE
8
BLACK
6
CONTINUOUS
10
107.009
20
-60.8678
11
107.005
21
-60.8676
0
LINE
8
BLACK
6
CONTINUOUS
10
107.005
20
-60.8676
11
107
21
-60.8683
0
LINE
8
BLACK
6
CONTINUOUS
10
107
20
-60.8683
11
106.831
21
-60.8683
0
LINE
8
BLACK
6
CONTINUOUS
10
106.831
20
-60.8683
11
106.826
21
-60.8676
0
LINE
8
BLACK
6
CONTINUOUS
10
106.826
20
-60.8676
11
106.822
21
-60.8678
0
LINE
8
BLACK
6
CONTINUOUS
10
106.822
20
-60.8678
11
106.813
21
-60.8652
0
LINE
8
BLACK
6
CONTINUOUS
10
106.813
20
-60.8652
11
106.804
21
-60.8636
0
LINE
8
BLACK
6
CONTINUOUS
10
106.804
20
-60.8636
11
106.8
21
-60.8613
0
LINE
8
BLACK
6
CONTINUOUS
10
106.8
20
-60.8613
11
106.795
21
-60.86
0
LINE
8
BLACK
6
CONTINUOUS
10
106.795
20
-60.86
11
106.727
21
-60.8261
0
LINE
8
BLACK
6
CONTINUOUS
10
106.727
20
-60.8261
11
106.718
21
-60.8192
0
LINE
8
BLACK
6
CONTINUOUS
10
106.718
20
-60.8192
11
106.708
21
-60.8127
0
LINE
8
BLACK
6
CONTINUOUS
10
106.708
20
-60.8127
11
106.707
21
-60.811
0
LINE
8
BLACK
6
CONTINUOUS
10
106.707
20
-60.811
11
106.705
21
-60.8097
0
LINE
8
BLACK
6
CONTINUOUS
10
106.705
20
-60.8097
11
106.699
21
-60.8
0
LINE
8
BLACK
6
CONTINUOUS
10
106.699
20
-60.8
11
106.692
21
-60.7906
0
LINE
8
BLACK
6
CONTINUOUS
10
106.692
20
-60.7906
11
106.658
21
-60.7229
0
LINE
8
BLACK
6
CONTINUOUS
10
106.658
20
-60.7229
11
106.657
21
-60.7185
0
LINE
8
BLACK
6
CONTINUOUS
10
106.657
20
-60.7185
11
106.655
21
-60.7145
0
LINE
8
BLACK
6
CONTINUOUS
10
106.655
20
-60.7145
11
106.653
21
-60.7054
0
LINE
8
BLACK
6
CONTINUOUS
10
106.653
20
-60.7054
11
106.65
21
-60.6964
0
LINE
8
BLACK
6
CONTINUOUS
10
106.65
20
-60.6964
11
106.651
21
-60.6919
0
LINE
8
BLACK
6
CONTINUOUS
10
106.651
20
-60.6919
11
106.65
21
-60.6874
0
LINE
8
BLACK
6
CONTINUOUS
10
106.65
20
-60.6874
11
106.65
21
-60.6196
0
LINE
8
BLACK
6
CONTINUOUS
10
106.65
20
-60.6196
11
106.651
21
-60.6151
0
LINE
8
BLACK
6
CONTINUOUS
10
106.651
20
-60.6151
11
106.65
21
-60.6106
0
LINE
8
BLACK
6
CONTINUOUS
10
106.65
20
-60.6106
11
106.653
21
-60.6017
0
LINE
8
BLACK
6
CONTINUOUS
10
106.653
20
-60.6017
11
106.655
21
-60.5925
0
LINE
8
BLACK
6
CONTINUOUS
10
106.655
20
-60.5925
11
106.657
21
-60.5885
0
LINE
8
BLACK
6
CONTINUOUS
10
106.657
20
-60.5885
11
106.658
21
-60.5841
0
LINE
8
BLACK
6
CONTINUOUS
10
106.658
20
-60.5841
11
106.692
21
-60.5164
0
LINE
8
BLACK
6
CONTINUOUS
10
106.692
20
-60.5164
11
106.699
21
-60.507
0
LINE
8
BLACK
6
CONTINUOUS
10
106.699
20
-60.507
11
106.705
21
-60.4973
0
LINE
8
BLACK
6
CONTINUOUS
10
106.705
20
-60.4973
11
106.707
21
-60.496
0
LINE
8
BLACK
6
CONTINUOUS
10
106.707
20
-60.496
11
106.708
21
-60.4943
0
LINE
8
BLACK
6
CONTINUOUS
10
106.708
20
-60.4943
11
106.718
21
-60.4878
0
LINE
8
BLACK
6
CONTINUOUS
10
106.718
20
-60.4878
11
106.727
21
-60.4809
0
LINE
8
BLACK
6
CONTINUOUS
10
106.727
20
-60.4809
11
106.795
21
-60.447
0
LINE
8
BLACK
6
CONTINUOUS
10
106.795
20
-60.447
11
106.8
21
-60.4457
0
LINE
8
BLACK
6
CONTINUOUS
10
106.8
20
-60.4457
11
106.804
21
-60.4435
0
LINE
8
BLACK
6
CONTINUOUS
10
106.804
20
-60.4435
11
106.813
21
-60.4418
0
LINE
8
BLACK
6
CONTINUOUS
10
106.813
20
-60.4418
11
106.822
21
-60.4392
0
LINE
8
BLACK
6
CONTINUOUS
10
106.822
20
-60.4392
11
106.826
21
-60.4395
0
LINE
8
BLACK
6
CONTINUOUS
10
106.826
20
-60.4395
11
106.831
21
-60.4387
0
LINE
8
BLACK
6
CONTINUOUS
10
106.831
20
-60.4387
11
106.981
21
-60.4387
0
LINE
8
BLACK
6
CONTINUOUS
10
106.981
20
-60.4387
11
106.988
21
-60.4351
0
LINE
8
BLACK
6
CONTINUOUS
10
106.988
20
-60.4351
11
106.975
21
-60.4079
0
LINE
8
BLACK
6
CONTINUOUS
10
106.975
20
-60.4079
11
106.947
21
-60.3942
0
LINE
8
BLACK
6
CONTINUOUS
10
106.947
20
-60.3942
11
106.849
21
-60.3942
0
LINE
8
BLACK
6
CONTINUOUS
10
106.849
20
-60.3942
11
106.798
21
-60.4197
0
LINE
8
BLACK
6
CONTINUOUS
10
106.798
20
-60.4197
11
106.772
21
-60.4276
0
LINE
8
BLACK
6
CONTINUOUS
10
106.772
20
-60.4276
11
106.745
21
-60.4259
0
LINE
8
BLACK
6
CONTINUOUS
10
106.745
20
-60.4259
11
106.719
21
-60.4149
0
LINE
8
BLACK
6
CONTINUOUS
10
106.719
20
-60.4149
11
106.699
21
-60.396
0
LINE
8
BLACK
6
CONTINUOUS
10
106.699
20
-60.396
11
106.687
21
-60.3713
0
LINE
8
BLACK
6
CONTINUOUS
10
106.687
20
-60.3713
11
106.684
21
-60.3439
0
LINE
8
BLACK
6
CONTINUOUS
10
106.684
20
-60.3439
11
106.69
21
-60.3171
0
LINE
8
BLACK
6
CONTINUOUS
10
106.69
20
-60.3171
11
106.705
21
-60.2941
0
LINE
8
BLACK
6
CONTINUOUS
10
106.705
20
-60.2941
11
106.727
21
-60.2777
0
LINE
8
BLACK
6
CONTINUOUS
10
106.727
20
-60.2777
11
106.795
21
-60.2438
0
LINE
8
BLACK
6
CONTINUOUS
10
106.795
20
-60.2438
11
106.8
21
-60.2425
0
LINE
8
BLACK
6
CONTINUOUS
10
106.8
20
-60.2425
11
106.804
21
-60.2403
0
LINE
8
BLACK
6
CONTINUOUS
10
106.804
20
-60.2403
11
106.813
21
-60.2386
0
LINE
8
BLACK
6
CONTINUOUS
10
106.813
20
-60.2386
11
106.822
21
-60.236
0
LINE
8
BLACK
6
CONTINUOUS
10
106.822
20
-60.236
11
106.826
21
-60.2363
0
LINE
8
BLACK
6
CONTINUOUS
10
106.826
20
-60.2363
11
106.831
21
-60.2355
0
LINE
8
BLACK
6
CONTINUOUS
10
106.831
20
-60.2355
11
106.966
21
-60.2355
0
LINE
8
BLACK
6
CONTINUOUS
10
106.966
20
-60.2355
11
106.971
21
-60.2363
0
LINE
8
BLACK
6
CONTINUOUS
10
106.849
20
-60.5974
11
106.822
21
-60.6111
0
LINE
8
BLACK
6
CONTINUOUS
10
106.822
20
-60.6111
11
106.808
21
-60.6384
0
LINE
8
BLACK
6
CONTINUOUS
10
106.808
20
-60.6384
11
106.808
21
-60.6686
0
LINE
8
BLACK
6
CONTINUOUS
10
106.808
20
-60.6686
11
106.822
21
-60.6959
0
LINE
8
BLACK
6
CONTINUOUS
10
106.822
20
-60.6959
11
106.849
21
-60.7096
0
LINE
8
BLACK
6
CONTINUOUS
10
106.849
20
-60.7096
11
106.981
21
-60.7096
0
LINE
8
BLACK
6
CONTINUOUS
10
106.981
20
-60.7096
11
106.988
21
-60.706
0
LINE
8
BLACK
6
CONTINUOUS
10
106.988
20
-60.706
11
106.988
21
-60.5974
0
LINE
8
BLACK
6
CONTINUOUS
10
106.988
20
-60.5974
11
106.849
21
-60.5974
0
LINE
8
BLACK
6
CONTINUOUS
10
108.596
20
-60.2363
11
108.601
21
-60.236
0
LINE
8
BLACK
6
CONTINUOUS
10
108.601
20
-60.236
11
108.61
21
-60.2386
0
LINE
8
BLACK
6
CONTINUOUS
10
108.61
20
-60.2386
11
108.619
21
-60.2403
0
LINE
8
BLACK
6
CONTINUOUS
10
108.619
20
-60.2403
11
108.623
21
-60.2425
0
LINE
8
BLACK
6
CONTINUOUS
10
108.623
20
-60.2425
11
108.627
21
-60.2438
0
LINE
8
BLACK
6
CONTINUOUS
10
108.627
20
-60.2438
11
108.695
21
-60.2777
0
LINE
8
BLACK
6
CONTINUOUS
10
108.695
20
-60.2777
11
108.704
21
-60.2847
0
LINE
8
BLACK
6
CONTINUOUS
10
108.704
20
-60.2847
11
108.714
21
-60.2911
0
LINE
8
BLACK
6
CONTINUOUS
10
108.714
20
-60.2911
11
108.715
21
-60.2928
0
LINE
8
BLACK
6
CONTINUOUS
10
108.715
20
-60.2928
11
108.717
21
-60.2941
0
LINE
8
BLACK
6
CONTINUOUS
10
108.717
20
-60.2941
11
108.724
21
-60.3039
0
LINE
8
BLACK
6
CONTINUOUS
10
108.724
20
-60.3039
11
108.731
21
-60.3132
0
LINE
8
BLACK
6
CONTINUOUS
10
108.731
20
-60.3132
11
108.764
21
-60.3809
0
LINE
8
BLACK
6
CONTINUOUS
10
108.764
20
-60.3809
11
108.766
21
-60.3853
0
LINE
8
BLACK
6
CONTINUOUS
10
108.766
20
-60.3853
11
108.768
21
-60.3893
0
LINE
8
BLACK
6
CONTINUOUS
10
108.768
20
-60.3893
11
108.77
21
-60.3984
0
LINE
8
BLACK
6
CONTINUOUS
10
108.77
20
-60.3984
11
108.772
21
-60.4074
0
LINE
8
BLACK
6
CONTINUOUS
10
108.772
20
-60.4074
11
108.772
21
-60.4119
0
LINE
8
BLACK
6
CONTINUOUS
10
108.772
20
-60.4119
11
108.773
21
-60.4164
0
LINE
8
BLACK
6
CONTINUOUS
10
108.773
20
-60.4164
11
108.773
21
-60.4842
0
LINE
8
BLACK
6
CONTINUOUS
10
108.773
20
-60.4842
11
108.771
21
-60.4969
0
LINE
8
BLACK
6
CONTINUOUS
10
108.771
20
-60.4969
11
108.769
21
-60.5096
0
LINE
8
BLACK
6
CONTINUOUS
10
108.769
20
-60.5096
11
108.768
21
-60.5104
0
LINE
8
BLACK
6
CONTINUOUS
10
108.768
20
-60.5104
11
108.768
21
-60.5113
0
LINE
8
BLACK
6
CONTINUOUS
10
108.768
20
-60.5113
11
108.762
21
-60.5225
0
LINE
8
BLACK
6
CONTINUOUS
10
108.762
20
-60.5225
11
108.755
21
-60.5338
0
LINE
8
BLACK
6
CONTINUOUS
10
108.755
20
-60.5338
11
108.755
21
-60.5344
0
LINE
8
BLACK
6
CONTINUOUS
10
108.755
20
-60.5344
11
108.754
21
-60.5352
0
LINE
8
BLACK
6
CONTINUOUS
10
108.754
20
-60.5352
11
108.744
21
-60.5435
0
LINE
8
BLACK
6
CONTINUOUS
10
108.744
20
-60.5435
11
108.735
21
-60.552
0
LINE
8
BLACK
6
CONTINUOUS
10
108.735
20
-60.552
11
108.734
21
-60.5523
0
LINE
8
BLACK
6
CONTINUOUS
10
108.734
20
-60.5523
11
108.733
21
-60.5529
0
LINE
8
BLACK
6
CONTINUOUS
10
108.733
20
-60.5529
11
108.721
21
-60.5573
0
LINE
8
BLACK
6
CONTINUOUS
10
108.721
20
-60.5573
11
108.709
21
-60.562
0
LINE
8
BLACK
6
CONTINUOUS
10
108.709
20
-60.562
11
108.434
21
-60.617
0
LINE
8
BLACK
6
CONTINUOUS
10
108.434
20
-60.617
11
108.434
21
-60.6686
0
LINE
8
BLACK
6
CONTINUOUS
10
108.434
20
-60.6686
11
108.448
21
-60.6959
0
LINE
8
BLACK
6
CONTINUOUS
10
108.448
20
-60.6959
11
108.475
21
-60.7096
0
LINE
8
BLACK
6
CONTINUOUS
10
108.475
20
-60.7096
11
108.573
21
-60.7096
0
LINE
8
BLACK
6
CONTINUOUS
10
108.573
20
-60.7096
11
108.624
21
-60.6841
0
LINE
8
BLACK
6
CONTINUOUS
10
108.624
20
-60.6841
11
108.65
21
-60.6763
0
LINE
8
BLACK
6
CONTINUOUS
10
108.65
20
-60.6763
11
108.678
21
-60.6779
0
LINE
8
BLACK
6
CONTINUOUS
10
108.678
20
-60.6779
11
108.703
21
-60.6889
0
LINE
8
BLACK
6
CONTINUOUS
10
108.703
20
-60.6889
11
108.723
21
-60.7078
0
LINE
8
BLACK
6
CONTINUOUS
10
108.723
20
-60.7078
11
108.736
21
-60.7325
0
LINE
8
BLACK
6
CONTINUOUS
10
108.736
20
-60.7325
11
108.739
21
-60.7599
0
LINE
8
BLACK
6
CONTINUOUS
10
108.739
20
-60.7599
11
108.732
21
-60.7867
0
LINE
8
BLACK
6
CONTINUOUS
10
108.732
20
-60.7867
11
108.717
21
-60.8097
0
LINE
8
BLACK
6
CONTINUOUS
10
108.717
20
-60.8097
11
108.695
21
-60.8261
0
LINE
8
BLACK
6
CONTINUOUS
10
108.695
20
-60.8261
11
108.627
21
-60.86
0
LINE
8
BLACK
6
CONTINUOUS
10
108.627
20
-60.86
11
108.623
21
-60.8613
0
LINE
8
BLACK
6
CONTINUOUS
10
108.623
20
-60.8613
11
108.619
21
-60.8636
0
LINE
8
BLACK
6
CONTINUOUS
10
108.619
20
-60.8636
11
108.61
21
-60.8652
0
LINE
8
BLACK
6
CONTINUOUS
10
108.61
20
-60.8652
11
108.601
21
-60.8678
0
LINE
8
BLACK
6
CONTINUOUS
10
108.601
20
-60.8678
11
108.596
21
-60.8676
0
LINE
8
BLACK
6
CONTINUOUS
10
108.596
20
-60.8676
11
108.592
21
-60.8683
0
LINE
8
BLACK
6
CONTINUOUS
10
108.592
20
-60.8683
11
108.456
21
-60.8683
0
LINE
8
BLACK
6
CONTINUOUS
10
108.456
20
-60.8683
11
108.452
21
-60.8676
0
LINE
8
BLACK
6
CONTINUOUS
10
108.452
20
-60.8676
11
108.447
21
-60.8678
0
LINE
8
BLACK
6
CONTINUOUS
10
108.447
20
-60.8678
11
108.438
21
-60.8652
0
LINE
8
BLACK
6
CONTINUOUS
10
108.438
20
-60.8652
11
108.429
21
-60.8636
0
LINE
8
BLACK
6
CONTINUOUS
10
108.429
20
-60.8636
11
108.425
21
-60.8613
0
LINE
8
BLACK
6
CONTINUOUS
10
108.425
20
-60.8613
11
108.421
21
-60.86
0
LINE
8
BLACK
6
CONTINUOUS
10
108.421
20
-60.86
11
108.353
21
-60.8261
0
LINE
8
BLACK
6
CONTINUOUS
10
108.353
20
-60.8261
11
108.344
21
-60.8192
0
LINE
8
BLACK
6
CONTINUOUS
10
108.344
20
-60.8192
11
108.334
21
-60.8127
0
LINE
8
BLACK
6
CONTINUOUS
10
108.334
20
-60.8127
11
108.333
21
-60.811
0
LINE
8
BLACK
6
CONTINUOUS
10
108.333
20
-60.811
11
108.331
21
-60.8097
0
LINE
8
BLACK
6
CONTINUOUS
10
108.331
20
-60.8097
11
108.325
21
-60.8
0
LINE
8
BLACK
6
CONTINUOUS
10
108.325
20
-60.8
11
108.318
21
-60.7906
0
LINE
8
BLACK
6
CONTINUOUS
10
108.318
20
-60.7906
11
108.284
21
-60.7229
0
LINE
8
BLACK
6
CONTINUOUS
10
108.284
20
-60.7229
11
108.282
21
-60.7185
0
LINE
8
BLACK
6
CONTINUOUS
10
108.282
20
-60.7185
11
108.28
21
-60.7145
0
LINE
8
BLACK
6
CONTINUOUS
10
108.28
20
-60.7145
11
108.279
21
-60.7054
0
LINE
8
BLACK
6
CONTINUOUS
10
108.279
20
-60.7054
11
108.276
21
-60.6964
0
LINE
8
BLACK
6
CONTINUOUS
10
108.276
20
-60.6964
11
108.276
21
-60.6919
0
LINE
8
BLACK
6
CONTINUOUS
10
108.276
20
-60.6919
11
108.275
21
-60.6874
0
LINE
8
BLACK
6
CONTINUOUS
10
108.275
20
-60.6874
11
108.275
21
-60.4164
0
LINE
8
BLACK
6
CONTINUOUS
10
108.275
20
-60.4164
11
108.276
21
-60.4119
0
LINE
8
BLACK
6
CONTINUOUS
10
108.276
20
-60.4119
11
108.276
21
-60.4074
0
LINE
8
BLACK
6
CONTINUOUS
10
108.276
20
-60.4074
11
108.279
21
-60.3985
0
LINE
8
BLACK
6
CONTINUOUS
10
108.279
20
-60.3985
11
108.28
21
-60.3893
0
LINE
8
BLACK
6
CONTINUOUS
10
108.28
20
-60.3893
11
108.282
21
-60.3853
0
LINE
8
BLACK
6
CONTINUOUS
10
108.282
20
-60.3853
11
108.284
21
-60.3809
0
LINE
8
BLACK
6
CONTINUOUS
10
108.284
20
-60.3809
11
108.318
21
-60.3132
0
LINE
8
BLACK
6
CONTINUOUS
10
108.318
20
-60.3132
11
108.325
21
-60.3038
0
LINE
8
BLACK
6
CONTINUOUS
10
108.325
20
-60.3038
11
108.331
21
-60.2941
0
LINE
8
BLACK
6
CONTINUOUS
10
108.331
20
-60.2941
11
108.333
21
-60.2928
0
LINE
8
BLACK
6
CONTINUOUS
10
108.333
20
-60.2928
11
108.334
21
-60.2911
0
LINE
8
BLACK
6
CONTINUOUS
10
108.334
20
-60.2911
11
108.344
21
-60.2846
0
LINE
8
BLACK
6
CONTINUOUS
10
108.344
20
-60.2846
11
108.353
21
-60.2777
0
LINE
8
BLACK
6
CONTINUOUS
10
108.353
20
-60.2777
11
108.421
21
-60.2438
0
LINE
8
BLACK
6
CONTINUOUS
10
108.421
20
-60.2438
11
108.425
21
-60.2425
0
LINE
8
BLACK
6
CONTINUOUS
10
108.425
20
-60.2425
11
108.429
21
-60.2403
0
LINE
8
BLACK
6
CONTINUOUS
10
108.429
20
-60.2403
11
108.438
21
-60.2386
0
LINE
8
BLACK
6
CONTINUOUS
10
108.438
20
-60.2386
11
108.447
21
-60.236
0
LINE
8
BLACK
6
CONTINUOUS
10
108.447
20
-60.236
11
108.452
21
-60.2363
0
LINE
8
BLACK
6
CONTINUOUS
10
108.452
20
-60.2363
11
108.456
21
-60.2355
0
LINE
8
BLACK
6
CONTINUOUS
10
108.456
20
-60.2355
11
108.592
21
-60.2355
0
LINE
8
BLACK
6
CONTINUOUS
10
108.592
20
-60.2355
11
108.596
21
-60.2363
0
LINE
8
BLACK
6
CONTINUOUS
10
108.475
20
-60.3942
11
108.448
21
-60.4079
0
LINE
8
BLACK
6
CONTINUOUS
10
108.448
20
-60.4079
11
108.434
21
-60.4352
0
LINE
8
BLACK
6
CONTINUOUS
10
108.434
20
-60.4352
11
108.434
21
-60.4551
0
LINE
8
BLACK
6
CONTINUOUS
10
108.434
20
-60.4551
11
108.607
21
-60.4206
0
LINE
8
BLACK
6
CONTINUOUS
10
108.607
20
-60.4206
11
108.6
21
-60.4079
0
LINE
8
BLACK
6
CONTINUOUS
10
108.6
20
-60.4079
11
108.573
21
-60.3942
0
LINE
8
BLACK
6
CONTINUOUS
10
108.573
20
-60.3942
11
108.475
21
-60.3942
0
LINE
8
BLACK
6
CONTINUOUS
10
105.108
20
-60.2363
11
105.113
21
-60.236
0
LINE
8
BLACK
6
CONTINUOUS
10
105.113
20
-60.236
11
105.121
21
-60.2386
0
LINE
8
BLACK
6
CONTINUOUS
10
105.121
20
-60.2386
11
105.131
21
-60.2403
0
LINE
8
BLACK
6
CONTINUOUS
10
105.131
20
-60.2403
11
105.135
21
-60.2425
0
LINE
8
BLACK
6
CONTINUOUS
10
105.135
20
-60.2425
11
105.139
21
-60.2438
0
LINE
8
BLACK
6
CONTINUOUS
10
105.139
20
-60.2438
11
105.207
21
-60.2777
0
LINE
8
BLACK
6
CONTINUOUS
10
105.207
20
-60.2777
11
105.216
21
-60.2846
0
LINE
8
BLACK
6
CONTINUOUS
10
105.216
20
-60.2846
11
105.226
21
-60.2911
0
LINE
8
BLACK
6
CONTINUOUS
10
105.226
20
-60.2911
11
105.227
21
-60.2928
0
LINE
8
BLACK
6
CONTINUOUS
10
105.227
20
-60.2928
11
105.229
21
-60.2941
0
LINE
8
BLACK
6
CONTINUOUS
10
105.229
20
-60.2941
11
105.235
21
-60.3038
0
LINE
8
BLACK
6
CONTINUOUS
10
105.235
20
-60.3038
11
105.242
21
-60.3132
0
LINE
8
BLACK
6
CONTINUOUS
10
105.242
20
-60.3132
11
105.276
21
-60.3809
0
LINE
8
BLACK
6
CONTINUOUS
10
105.276
20
-60.3809
11
105.277
21
-60.3853
0
LINE
8
BLACK
6
CONTINUOUS
10
105.277
20
-60.3853
11
105.28
21
-60.3893
0
LINE
8
BLACK
6
CONTINUOUS
10
105.28
20
-60.3893
11
105.281
21
-60.3985
0
LINE
8
BLACK
6
CONTINUOUS
10
105.281
20
-60.3985
11
105.284
21
-60.4074
0
LINE
8
BLACK
6
CONTINUOUS
10
105.284
20
-60.4074
11
105.284
21
-60.4119
0
LINE
8
BLACK
6
CONTINUOUS
10
105.284
20
-60.4119
11
105.284
21
-60.4164
0
LINE
8
BLACK
6
CONTINUOUS
10
105.284
20
-60.4164
11
105.284
21
-60.789
0
LINE
8
BLACK
6
CONTINUOUS
10
105.284
20
-60.789
11
105.28
21
-60.8161
0
LINE
8
BLACK
6
CONTINUOUS
10
105.28
20
-60.8161
11
105.266
21
-60.84
0
LINE
8
BLACK
6
CONTINUOUS
10
105.266
20
-60.84
11
105.245
21
-60.8577
0
LINE
8
BLACK
6
CONTINUOUS
10
105.245
20
-60.8577
11
105.219
21
-60.8671
0
LINE
8
BLACK
6
CONTINUOUS
10
105.219
20
-60.8671
11
105.191
21
-60.8671
0
LINE
8
BLACK
6
CONTINUOUS
10
105.191
20
-60.8671
11
105.172
21
-60.8602
0
LINE
8
BLACK
6
CONTINUOUS
10
105.172
20
-60.8602
11
105.168
21
-60.8613
0
LINE
8
BLACK
6
CONTINUOUS
10
105.168
20
-60.8613
11
105.165
21
-60.8636
0
LINE
8
BLACK
6
CONTINUOUS
10
105.165
20
-60.8636
11
105.155
21
-60.8652
0
LINE
8
BLACK
6
CONTINUOUS
10
105.155
20
-60.8652
11
105.146
21
-60.8678
0
LINE
8
BLACK
6
CONTINUOUS
10
105.146
20
-60.8678
11
105.142
21
-60.8676
0
LINE
8
BLACK
6
CONTINUOUS
10
105.142
20
-60.8676
11
105.137
21
-60.8683
0
LINE
8
BLACK
6
CONTINUOUS
10
105.137
20
-60.8683
11
104.968
21
-60.8683
0
LINE
8
BLACK
6
CONTINUOUS
10
104.968
20
-60.8683
11
104.964
21
-60.8676
0
LINE
8
BLACK
6
CONTINUOUS
10
104.964
20
-60.8676
11
104.959
21
-60.8678
0
LINE
8
BLACK
6
CONTINUOUS
10
104.959
20
-60.8678
11
104.95
21
-60.8652
0
LINE
8
BLACK
6
CONTINUOUS
10
104.95
20
-60.8652
11
104.941
21
-60.8636
0
LINE
8
BLACK
6
CONTINUOUS
10
104.941
20
-60.8636
11
104.937
21
-60.8613
0
LINE
8
BLACK
6
CONTINUOUS
10
104.937
20
-60.8613
11
104.933
21
-60.86
0
LINE
8
BLACK
6
CONTINUOUS
10
104.933
20
-60.86
11
104.865
21
-60.8261
0
LINE
8
BLACK
6
CONTINUOUS
10
104.865
20
-60.8261
11
104.855
21
-60.8192
0
LINE
8
BLACK
6
CONTINUOUS
10
104.855
20
-60.8192
11
104.846
21
-60.8127
0
LINE
8
BLACK
6
CONTINUOUS
10
104.846
20
-60.8127
11
104.844
21
-60.811
0
LINE
8
BLACK
6
CONTINUOUS
10
104.844
20
-60.811
11
104.843
21
-60.8097
0
LINE
8
BLACK
6
CONTINUOUS
10
104.843
20
-60.8097
11
104.836
21
-60.8
0
LINE
8
BLACK
6
CONTINUOUS
10
104.836
20
-60.8
11
104.829
21
-60.7906
0
LINE
8
BLACK
6
CONTINUOUS
10
104.829
20
-60.7906
11
104.795
21
-60.7229
0
LINE
8
BLACK
6
CONTINUOUS
10
104.795
20
-60.7229
11
104.794
21
-60.7185
0
LINE
8
BLACK
6
CONTINUOUS
10
104.794
20
-60.7185
11
104.792
21
-60.7145
0
LINE
8
BLACK
6
CONTINUOUS
10
104.792
20
-60.7145
11
104.79
21
-60.7054
0
LINE
8
BLACK
6
CONTINUOUS
10
104.79
20
-60.7054
11
104.788
21
-60.6964
0
LINE
8
BLACK
6
CONTINUOUS
10
104.788
20
-60.6964
11
104.788
21
-60.6919
0
LINE
8
BLACK
6
CONTINUOUS
10
104.788
20
-60.6919
11
104.787
21
-60.6874
0
LINE
8
BLACK
6
CONTINUOUS
10
104.787
20
-60.6874
11
104.787
21
-60.6196
0
LINE
8
BLACK
6
CONTINUOUS
10
104.787
20
-60.6196
11
104.788
21
-60.6151
0
LINE
8
BLACK
6
CONTINUOUS
10
104.788
20
-60.6151
11
104.788
21
-60.6106
0
LINE
8
BLACK
6
CONTINUOUS
10
104.788
20
-60.6106
11
104.79
21
-60.6016
0
LINE
8
BLACK
6
CONTINUOUS
10
104.79
20
-60.6016
11
104.792
21
-60.5925
0
LINE
8
BLACK
6
CONTINUOUS
10
104.792
20
-60.5925
11
104.794
21
-60.5885
0
LINE
8
BLACK
6
CONTINUOUS
10
104.794
20
-60.5885
11
104.795
21
-60.5841
0
LINE
8
BLACK
6
CONTINUOUS
10
104.795
20
-60.5841
11
104.829
21
-60.5164
0
LINE
8
BLACK
6
CONTINUOUS
10
104.829
20
-60.5164
11
104.836
21
-60.5071
0
LINE
8
BLACK
6
CONTINUOUS
10
104.836
20
-60.5071
11
104.843
21
-60.4973
0
LINE
8
BLACK
6
CONTINUOUS
10
104.843
20
-60.4973
11
104.844
21
-60.496
0
LINE
8
BLACK
6
CONTINUOUS
10
104.844
20
-60.496
11
104.846
21
-60.4943
0
LINE
8
BLACK
6
CONTINUOUS
10
104.846
20
-60.4943
11
104.855
21
-60.4879
0
LINE
8
BLACK
6
CONTINUOUS
10
104.855
20
-60.4879
11
104.865
21
-60.4809
0
LINE
8
BLACK
6
CONTINUOUS
10
104.865
20
-60.4809
11
104.933
21
-60.447
0
LINE
8
BLACK
6
CONTINUOUS
10
104.933
20
-60.447
11
104.937
21
-60.4457
0
LINE
8
BLACK
6
CONTINUOUS
10
104.937
20
-60.4457
11
104.941
21
-60.4435
0
LINE
8
BLACK
6
CONTINUOUS
10
104.941
20
-60.4435
11
104.95
21
-60.4418
0
LINE
8
BLACK
6
CONTINUOUS
10
104.95
20
-60.4418
11
104.959
21
-60.4392
0
LINE
8
BLACK
6
CONTINUOUS
10
104.959
20
-60.4392
11
104.964
21
-60.4395
0
LINE
8
BLACK
6
CONTINUOUS
10
104.964
20
-60.4395
11
104.968
21
-60.4387
0
LINE
8
BLACK
6
CONTINUOUS
10
104.968
20
-60.4387
11
105.119
21
-60.4387
0
LINE
8
BLACK
6
CONTINUOUS
10
105.119
20
-60.4387
11
105.126
21
-60.4351
0
LINE
8
BLACK
6
CONTINUOUS
10
105.126
20
-60.4351
11
105.112
21
-60.4079
0
LINE
8
BLACK
6
CONTINUOUS
10
105.112
20
-60.4079
11
105.085
21
-60.3942
0
LINE
8
BLACK
6
CONTINUOUS
10
105.085
20
-60.3942
11
104.987
21
-60.3942
0
LINE
8
BLACK
6
CONTINUOUS
10
104.987
20
-60.3942
11
104.936
21
-60.4197
0
LINE
8
BLACK
6
CONTINUOUS
10
104.936
20
-60.4197
11
104.909
21
-60.4276
0
LINE
8
BLACK
6
CONTINUOUS
10
104.909
20
-60.4276
11
104.882
21
-60.4259
0
LINE
8
BLACK
6
CONTINUOUS
10
104.882
20
-60.4259
11
104.857
21
-60.4149
0
LINE
8
BLACK
6
CONTINUOUS
10
104.857
20
-60.4149
11
104.837
21
-60.396
0
LINE
8
BLACK
6
CONTINUOUS
10
104.837
20
-60.396
11
104.824
21
-60.3713
0
LINE
8
BLACK
6
CONTINUOUS
10
104.824
20
-60.3713
11
104.821
21
-60.3439
0
LINE
8
BLACK
6
CONTINUOUS
10
104.821
20
-60.3439
11
104.827
21
-60.3171
0
LINE
8
BLACK
6
CONTINUOUS
10
104.827
20
-60.3171
11
104.843
21
-60.2941
0
LINE
8
BLACK
6
CONTINUOUS
10
104.843
20
-60.2941
11
104.865
21
-60.2777
0
LINE
8
BLACK
6
CONTINUOUS
10
104.865
20
-60.2777
11
104.933
21
-60.2438
0
LINE
8
BLACK
6
CONTINUOUS
10
104.933
20
-60.2438
11
104.937
21
-60.2425
0
LINE
8
BLACK
6
CONTINUOUS
10
104.937
20
-60.2425
11
104.941
21
-60.2403
0
LINE
8
BLACK
6
CONTINUOUS
10
104.941
20
-60.2403
11
104.95
21
-60.2386
0
LINE
8
BLACK
6
CONTINUOUS
10
104.95
20
-60.2386
11
104.959
21
-60.236
0
LINE
8
BLACK
6
CONTINUOUS
10
104.959
20
-60.236
11
104.964
21
-60.2363
0
LINE
8
BLACK
6
CONTINUOUS
10
104.964
20
-60.2363
11
104.968
21
-60.2355
0
LINE
8
BLACK
6
CONTINUOUS
10
104.968
20
-60.2355
11
105.104
21
-60.2355
0
LINE
8
BLACK
6
CONTINUOUS
10
105.104
20
-60.2355
11
105.108
21
-60.2363
0
LINE
8
BLACK
6
CONTINUOUS
10
104.987
20
-60.5974
11
104.959
21
-60.6111
0
LINE
8
BLACK
6
CONTINUOUS
10
104.959
20
-60.6111
11
104.946
21
-60.6384
0
LINE
8
BLACK
6
CONTINUOUS
10
104.946
20
-60.6384
11
104.946
21
-60.6686
0
LINE
8
BLACK
6
CONTINUOUS
10
104.946
20
-60.6686
11
104.959
21
-60.6959
0
LINE
8
BLACK
6
CONTINUOUS
10
104.959
20
-60.6959
11
104.987
21
-60.7096
0
LINE
8
BLACK
6
CONTINUOUS
10
104.987
20
-60.7096
11
105.119
21
-60.7096
0
LINE
8
BLACK
6
CONTINUOUS
10
105.119
20
-60.7096
11
105.126
21
-60.706
0
LINE
8
BLACK
6
CONTINUOUS
10
105.126
20
-60.706
11
105.126
21
-60.5974
0
LINE
8
BLACK
6
CONTINUOUS
10
105.126
20
-60.5974
11
104.987
21
-60.5974
0
LINE
8
BLACK
6
CONTINUOUS
10
110.227
20
-59.9996
11
110.231
21
-59.9996
0
LINE
8
BLACK
6
CONTINUOUS
10
110.231
20
-59.9996
11
110.24
21
-60.0028
0
LINE
8
BLACK
6
CONTINUOUS
10
110.24
20
-60.0028
11
110.249
21
-60.0051
0
LINE
8
BLACK
6
CONTINUOUS
10
110.249
20
-60.0051
11
110.253
21
-60.0075
0
LINE
8
BLACK
6
CONTINUOUS
10
110.253
20
-60.0075
11
110.257
21
-60.009
0
LINE
8
BLACK
6
CONTINUOUS
10
110.257
20
-60.009
11
110.264
21
-60.0151
0
LINE
8
BLACK
6
CONTINUOUS
10
110.264
20
-60.0151
11
110.272
21
-60.0204
0
LINE
8
BLACK
6
CONTINUOUS
10
110.272
20
-60.0204
11
110.275
21
-60.0239
0
LINE
8
BLACK
6
CONTINUOUS
10
110.275
20
-60.0239
11
110.278
21
-60.0268
0
LINE
8
BLACK
6
CONTINUOUS
10
110.278
20
-60.0268
11
110.283
21
-60.035
0
LINE
8
BLACK
6
CONTINUOUS
10
110.283
20
-60.035
11
110.289
21
-60.0426
0
LINE
8
BLACK
6
CONTINUOUS
10
110.289
20
-60.0426
11
110.29
21
-60.0468
0
LINE
8
BLACK
6
CONTINUOUS
10
110.29
20
-60.0468
11
110.292
21
-60.0506
0
LINE
8
BLACK
6
CONTINUOUS
10
110.292
20
-60.0506
11
110.294
21
-60.06
0
LINE
8
BLACK
6
CONTINUOUS
10
110.294
20
-60.06
11
110.296
21
-60.069
0
LINE
8
BLACK
6
CONTINUOUS
10
110.296
20
-60.069
11
110.296
21
-60.0734
0
LINE
8
BLACK
6
CONTINUOUS
10
110.296
20
-60.0734
11
110.297
21
-60.0778
0
LINE
8
BLACK
6
CONTINUOUS
10
110.297
20
-60.0778
11
110.297
21
-60.7096
0
LINE
8
BLACK
6
CONTINUOUS
10
110.297
20
-60.7096
11
110.421
21
-60.7096
0
LINE
8
BLACK
6
CONTINUOUS
10
110.421
20
-60.7096
11
110.448
21
-60.7144
0
LINE
8
BLACK
6
CONTINUOUS
10
110.448
20
-60.7144
11
110.472
21
-60.7282
0
LINE
8
BLACK
6
CONTINUOUS
10
110.472
20
-60.7282
11
110.489
21
-60.7493
0
LINE
8
BLACK
6
CONTINUOUS
10
110.489
20
-60.7493
11
110.499
21
-60.7752
0
LINE
8
BLACK
6
CONTINUOUS
10
110.499
20
-60.7752
11
110.499
21
-60.8028
0
LINE
8
BLACK
6
CONTINUOUS
10
110.499
20
-60.8028
11
110.489
21
-60.8287
0
LINE
8
BLACK
6
CONTINUOUS
10
110.489
20
-60.8287
11
110.472
21
-60.8498
0
LINE
8
BLACK
6
CONTINUOUS
10
110.472
20
-60.8498
11
110.448
21
-60.8636
0
LINE
8
BLACK
6
CONTINUOUS
10
110.448
20
-60.8636
11
110.421
21
-60.8683
0
LINE
8
BLACK
6
CONTINUOUS
10
110.421
20
-60.8683
11
110.014
21
-60.8683
0
LINE
8
BLACK
6
CONTINUOUS
10
110.014
20
-60.8683
11
109.987
21
-60.8636
0
LINE
8
BLACK
6
CONTINUOUS
10
109.987
20
-60.8636
11
109.963
21
-60.8498
0
LINE
8
BLACK
6
CONTINUOUS
10
109.963
20
-60.8498
11
109.945
21
-60.8287
0
LINE
8
BLACK
6
CONTINUOUS
10
109.945
20
-60.8287
11
109.936
21
-60.8028
0
LINE
8
BLACK
6
CONTINUOUS
10
109.936
20
-60.8028
11
109.936
21
-60.7752
0
LINE
8
BLACK
6
CONTINUOUS
10
109.936
20
-60.7752
11
109.945
21
-60.7493
0
LINE
8
BLACK
6
CONTINUOUS
10
109.945
20
-60.7493
11
109.963
21
-60.7282
0
LINE
8
BLACK
6
CONTINUOUS
10
109.963
20
-60.7282
11
109.987
21
-60.7144
0
LINE
8
BLACK
6
CONTINUOUS
10
109.987
20
-60.7144
11
110.014
21
-60.7096
0
LINE
8
BLACK
6
CONTINUOUS
10
110.014
20
-60.7096
11
110.138
21
-60.7096
0
LINE
8
BLACK
6
CONTINUOUS
10
110.138
20
-60.7096
11
110.138
21
-60.3033
0
LINE
8
BLACK
6
CONTINUOUS
10
110.138
20
-60.3033
11
110.128
21
-60.3105
0
LINE
8
BLACK
6
CONTINUOUS
10
110.128
20
-60.3105
11
110.117
21
-60.3181
0
LINE
8
BLACK
6
CONTINUOUS
10
110.117
20
-60.3181
11
110.05
21
-60.352
0
LINE
8
BLACK
6
CONTINUOUS
10
110.05
20
-60.352
11
110.023
21
-60.3598
0
LINE
8
BLACK
6
CONTINUOUS
10
110.023
20
-60.3598
11
109.996
21
-60.3582
0
LINE
8
BLACK
6
CONTINUOUS
10
109.996
20
-60.3582
11
109.97
21
-60.3472
0
LINE
8
BLACK
6
CONTINUOUS
10
109.97
20
-60.3472
11
109.95
21
-60.3283
0
LINE
8
BLACK
6
CONTINUOUS
10
109.95
20
-60.3283
11
109.938
21
-60.3036
0
LINE
8
BLACK
6
CONTINUOUS
10
109.938
20
-60.3036
11
109.935
21
-60.2762
0
LINE
8
BLACK
6
CONTINUOUS
10
109.935
20
-60.2762
11
109.941
21
-60.2494
0
LINE
8
BLACK
6
CONTINUOUS
10
109.941
20
-60.2494
11
109.957
21
-60.2264
0
LINE
8
BLACK
6
CONTINUOUS
10
109.957
20
-60.2264
11
109.979
21
-60.21
0
LINE
8
BLACK
6
CONTINUOUS
10
109.979
20
-60.21
11
110.035
21
-60.1819
0
LINE
8
BLACK
6
CONTINUOUS
10
110.035
20
-60.1819
11
110.088
21
-60.1288
0
LINE
8
BLACK
6
CONTINUOUS
10
110.088
20
-60.1288
11
110.151
21
-60.0337
0
LINE
8
BLACK
6
CONTINUOUS
10
110.151
20
-60.0337
11
110.154
21
-60.0306
0
LINE
8
BLACK
6
CONTINUOUS
10
110.154
20
-60.0306
11
110.157
21
-60.0268
0
LINE
8
BLACK
6
CONTINUOUS
10
110.157
20
-60.0268
11
110.164
21
-60.0207
0
LINE
8
BLACK
6
CONTINUOUS
10
110.164
20
-60.0207
11
110.17
21
-60.0138
0
LINE
8
BLACK
6
CONTINUOUS
10
110.17
20
-60.0138
11
110.174
21
-60.0119
0
LINE
8
BLACK
6
CONTINUOUS
10
110.174
20
-60.0119
11
110.178
21
-60.009
0
LINE
8
BLACK
6
CONTINUOUS
10
110.178
20
-60.009
11
110.187
21
-60.0058
0
LINE
8
BLACK
6
CONTINUOUS
10
110.187
20
-60.0058
11
110.195
21
-60.0016
0
LINE
8
BLACK
6
CONTINUOUS
10
110.195
20
-60.0016
11
110.199
21
-60.0011
0
LINE
8
BLACK
6
CONTINUOUS
10
110.199
20
-60.0011
11
110.204
21
-59.9996
0
LINE
8
BLACK
6
CONTINUOUS
10
110.204
20
-59.9996
11
110.213
21
-59.9996
0
LINE
8
BLACK
6
CONTINUOUS
10
110.213
20
-59.9996
11
110.222
21
-59.9986
0
LINE
8
BLACK
6
CONTINUOUS
10
110.222
20
-59.9986
11
110.227
21
-59.9996
0
LINE
8
BLACK
6
CONTINUOUS
10
107.58
20
-60.2363
11
107.585
21
-60.236
0
LINE
8
BLACK
6
CONTINUOUS
10
107.585
20
-60.236
11
107.594
21
-60.2386
0
LINE
8
BLACK
6
CONTINUOUS
10
107.594
20
-60.2386
11
107.603
21
-60.2403
0
LINE
8
BLACK
6
CONTINUOUS
10
107.603
20
-60.2403
11
107.607
21
-60.2425
0
LINE
8
BLACK
6
CONTINUOUS
10
107.607
20
-60.2425
11
107.611
21
-60.2438
0
LINE
8
BLACK
6
CONTINUOUS
10
107.611
20
-60.2438
11
107.679
21
-60.2777
0
LINE
8
BLACK
6
CONTINUOUS
10
107.679
20
-60.2777
11
107.701
21
-60.2941
0
LINE
8
BLACK
6
CONTINUOUS
10
107.701
20
-60.2941
11
107.716
21
-60.3171
0
LINE
8
BLACK
6
CONTINUOUS
10
107.716
20
-60.3171
11
107.723
21
-60.344
0
LINE
8
BLACK
6
CONTINUOUS
10
107.723
20
-60.344
11
107.72
21
-60.3713
0
LINE
8
BLACK
6
CONTINUOUS
10
107.72
20
-60.3713
11
107.707
21
-60.396
0
LINE
8
BLACK
6
CONTINUOUS
10
107.707
20
-60.396
11
107.687
21
-60.4149
0
LINE
8
BLACK
6
CONTINUOUS
10
107.687
20
-60.4149
11
107.662
21
-60.4259
0
LINE
8
BLACK
6
CONTINUOUS
10
107.662
20
-60.4259
11
107.634
21
-60.4276
0
LINE
8
BLACK
6
CONTINUOUS
10
107.634
20
-60.4276
11
107.608
21
-60.4197
0
LINE
8
BLACK
6
CONTINUOUS
10
107.608
20
-60.4197
11
107.557
21
-60.3942
0
LINE
8
BLACK
6
CONTINUOUS
10
107.557
20
-60.3942
11
107.493
21
-60.3942
0
LINE
8
BLACK
6
CONTINUOUS
10
107.493
20
-60.3942
11
107.466
21
-60.4079
0
LINE
8
BLACK
6
CONTINUOUS
10
107.466
20
-60.4079
11
107.453
21
-60.4334
0
LINE
8
BLACK
6
CONTINUOUS
10
107.453
20
-60.4334
11
107.466
21
-60.4589
0
LINE
8
BLACK
6
CONTINUOUS
10
107.466
20
-60.4589
11
107.493
21
-60.4725
0
LINE
8
BLACK
6
CONTINUOUS
10
107.493
20
-60.4725
11
107.576
21
-60.4725
0
LINE
8
BLACK
6
CONTINUOUS
10
107.576
20
-60.4725
11
107.58
21
-60.4733
0
LINE
8
BLACK
6
CONTINUOUS
10
107.58
20
-60.4733
11
107.585
21
-60.4731
0
LINE
8
BLACK
6
CONTINUOUS
10
107.585
20
-60.4731
11
107.594
21
-60.4757
0
LINE
8
BLACK
6
CONTINUOUS
10
107.594
20
-60.4757
11
107.603
21
-60.4773
0
LINE
8
BLACK
6
CONTINUOUS
10
107.603
20
-60.4773
11
107.607
21
-60.4796
0
LINE
8
BLACK
6
CONTINUOUS
10
107.607
20
-60.4796
11
107.611
21
-60.4809
0
LINE
8
BLACK
6
CONTINUOUS
10
107.611
20
-60.4809
11
107.679
21
-60.5148
0
LINE
8
BLACK
6
CONTINUOUS
10
107.679
20
-60.5148
11
107.688
21
-60.5217
0
LINE
8
BLACK
6
CONTINUOUS
10
107.688
20
-60.5217
11
107.698
21
-60.5281
0
LINE
8
BLACK
6
CONTINUOUS
10
107.698
20
-60.5281
11
107.699
21
-60.5299
0
LINE
8
BLACK
6
CONTINUOUS
10
107.699
20
-60.5299
11
107.701
21
-60.5312
0
LINE
8
BLACK
6
CONTINUOUS
10
107.701
20
-60.5312
11
107.708
21
-60.5409
0
LINE
8
BLACK
6
CONTINUOUS
10
107.708
20
-60.5409
11
107.715
21
-60.5503
0
LINE
8
BLACK
6
CONTINUOUS
10
107.715
20
-60.5503
11
107.748
21
-60.618
0
LINE
8
BLACK
6
CONTINUOUS
10
107.748
20
-60.618
11
107.75
21
-60.6224
0
LINE
8
BLACK
6
CONTINUOUS
10
107.75
20
-60.6224
11
107.752
21
-60.6264
0
LINE
8
BLACK
6
CONTINUOUS
10
107.752
20
-60.6264
11
107.754
21
-60.6355
0
LINE
8
BLACK
6
CONTINUOUS
10
107.754
20
-60.6355
11
107.756
21
-60.6444
0
LINE
8
BLACK
6
CONTINUOUS
10
107.756
20
-60.6444
11
107.756
21
-60.649
0
LINE
8
BLACK
6
CONTINUOUS
10
107.756
20
-60.649
11
107.757
21
-60.6535
0
LINE
8
BLACK
6
CONTINUOUS
10
107.757
20
-60.6535
11
107.757
21
-60.6874
0
LINE
8
BLACK
6
CONTINUOUS
10
107.757
20
-60.6874
11
107.756
21
-60.6919
0
LINE
8
BLACK
6
CONTINUOUS
10
107.756
20
-60.6919
11
107.756
21
-60.6964
0
LINE
8
BLACK
6
CONTINUOUS
10
107.756
20
-60.6964
11
107.754
21
-60.7054
0
LINE
8
BLACK
6
CONTINUOUS
10
107.754
20
-60.7054
11
107.752
21
-60.7145
0
LINE
8
BLACK
6
CONTINUOUS
10
107.752
20
-60.7145
11
107.75
21
-60.7185
0
LINE
8
BLACK
6
CONTINUOUS
10
107.75
20
-60.7185
11
107.748
21
-60.7229
0
LINE
8
BLACK
6
CONTINUOUS
10
107.748
20
-60.7229
11
107.715
21
-60.7906
0
LINE
8
BLACK
6
CONTINUOUS
10
107.715
20
-60.7906
11
107.708
21
-60.8
0
LINE
8
BLACK
6
CONTINUOUS
10
107.708
20
-60.8
11
107.701
21
-60.8097
0
LINE
8
BLACK
6
CONTINUOUS
10
107.701
20
-60.8097
11
107.699
21
-60.811
0
LINE
8
BLACK
6
CONTINUOUS
10
107.699
20
-60.811
11
107.698
21
-60.8127
0
LINE
8
BLACK
6
CONTINUOUS
10
107.698
20
-60.8127
11
107.688
21
-60.8192
0
LINE
8
BLACK
6
CONTINUOUS
10
107.688
20
-60.8192
11
107.679
21
-60.8261
0
LINE
8
BLACK
6
CONTINUOUS
10
107.679
20
-60.8261
11
107.611
21
-60.86
0
LINE
8
BLACK
6
CONTINUOUS
10
107.611
20
-60.86
11
107.607
21
-60.8613
0
LINE
8
BLACK
6
CONTINUOUS
10
107.607
20
-60.8613
11
107.603
21
-60.8636
0
LINE
8
BLACK
6
CONTINUOUS
10
107.603
20
-60.8636
11
107.594
21
-60.8652
0
LINE
8
BLACK
6
CONTINUOUS
10
107.594
20
-60.8652
11
107.585
21
-60.8678
0
LINE
8
BLACK
6
CONTINUOUS
10
107.585
20
-60.8678
11
107.58
21
-60.8676
0
LINE
8
BLACK
6
CONTINUOUS
10
107.58
20
-60.8676
11
107.576
21
-60.8683
0
LINE
8
BLACK
6
CONTINUOUS
10
107.576
20
-60.8683
11
107.44
21
-60.8683
0
LINE
8
BLACK
6
CONTINUOUS
10
107.44
20
-60.8683
11
107.436
21
-60.8676
0
LINE
8
BLACK
6
CONTINUOUS
10
107.436
20
-60.8676
11
107.431
21
-60.8678
0
LINE
8
BLACK
6
CONTINUOUS
10
107.431
20
-60.8678
11
107.422
21
-60.8652
0
LINE
8
BLACK
6
CONTINUOUS
10
107.422
20
-60.8652
11
107.413
21
-60.8636
0
LINE
8
BLACK
6
CONTINUOUS
10
107.413
20
-60.8636
11
107.409
21
-60.8613
0
LINE
8
BLACK
6
CONTINUOUS
10
107.409
20
-60.8613
11
107.405
21
-60.86
0
LINE
8
BLACK
6
CONTINUOUS
10
107.405
20
-60.86
11
107.337
21
-60.8261
0
LINE
8
BLACK
6
CONTINUOUS
10
107.337
20
-60.8261
11
107.315
21
-60.8097
0
LINE
8
BLACK
6
CONTINUOUS
10
107.315
20
-60.8097
11
107.3
21
-60.7867
0
LINE
8
BLACK
6
CONTINUOUS
10
107.3
20
-60.7867
11
107.293
21
-60.7599
0
LINE
8
BLACK
6
CONTINUOUS
10
107.293
20
-60.7599
11
107.296
21
-60.7325
0
LINE
8
BLACK
6
CONTINUOUS
10
107.296
20
-60.7325
11
107.309
21
-60.7078
0
LINE
8
BLACK
6
CONTINUOUS
10
107.309
20
-60.7078
11
107.329
21
-60.6889
0
LINE
8
BLACK
6
CONTINUOUS
10
107.329
20
-60.6889
11
107.354
21
-60.6779
0
LINE
8
BLACK
6
CONTINUOUS
10
107.354
20
-60.6779
11
107.382
21
-60.6763
0
LINE
8
BLACK
6
CONTINUOUS
10
107.382
20
-60.6763
11
107.408
21
-60.6841
0
LINE
8
BLACK
6
CONTINUOUS
10
107.408
20
-60.6841
11
107.459
21
-60.7096
0
LINE
8
BLACK
6
CONTINUOUS
10
107.459
20
-60.7096
11
107.557
21
-60.7096
0
LINE
8
BLACK
6
CONTINUOUS
10
107.557
20
-60.7096
11
107.584
21
-60.6959
0
LINE
8
BLACK
6
CONTINUOUS
10
107.584
20
-60.6959
11
107.597
21
-60.6704
0
LINE
8
BLACK
6
CONTINUOUS
10
107.597
20
-60.6704
11
107.584
21
-60.6449
0
LINE
8
BLACK
6
CONTINUOUS
10
107.584
20
-60.6449
11
107.557
21
-60.6313
0
LINE
8
BLACK
6
CONTINUOUS
10
107.557
20
-60.6313
11
107.474
21
-60.6313
0
LINE
8
BLACK
6
CONTINUOUS
10
107.474
20
-60.6313
11
107.47
21
-60.6305
0
LINE
8
BLACK
6
CONTINUOUS
10
107.47
20
-60.6305
11
107.465
21
-60.6308
0
LINE
8
BLACK
6
CONTINUOUS
10
107.465
20
-60.6308
11
107.456
21
-60.6281
0
LINE
8
BLACK
6
CONTINUOUS
10
107.456
20
-60.6281
11
107.447
21
-60.6265
0
LINE
8
BLACK
6
CONTINUOUS
10
107.447
20
-60.6265
11
107.443
21
-60.6242
0
LINE
8
BLACK
6
CONTINUOUS
10
107.443
20
-60.6242
11
107.439
21
-60.6229
0
LINE
8
BLACK
6
CONTINUOUS
10
107.439
20
-60.6229
11
107.371
21
-60.589
0
LINE
8
BLACK
6
CONTINUOUS
10
107.371
20
-60.589
11
107.362
21
-60.5821
0
LINE
8
BLACK
6
CONTINUOUS
10
107.362
20
-60.5821
11
107.352
21
-60.5757
0
LINE
8
BLACK
6
CONTINUOUS
10
107.352
20
-60.5757
11
107.351
21
-60.5739
0
LINE
8
BLACK
6
CONTINUOUS
10
107.351
20
-60.5739
11
107.349
21
-60.5726
0
LINE
8
BLACK
6
CONTINUOUS
10
107.349
20
-60.5726
11
107.342
21
-60.5629
0
LINE
8
BLACK
6
CONTINUOUS
10
107.342
20
-60.5629
11
107.335
21
-60.5535
0
LINE
8
BLACK
6
CONTINUOUS
10
107.335
20
-60.5535
11
107.302
21
-60.4858
0
LINE
8
BLACK
6
CONTINUOUS
10
107.302
20
-60.4858
11
107.3
21
-60.4814
0
LINE
8
BLACK
6
CONTINUOUS
10
107.3
20
-60.4814
11
107.298
21
-60.4775
0
LINE
8
BLACK
6
CONTINUOUS
10
107.298
20
-60.4775
11
107.296
21
-60.4683
0
LINE
8
BLACK
6
CONTINUOUS
10
107.296
20
-60.4683
11
107.294
21
-60.4594
0
LINE
8
BLACK
6
CONTINUOUS
10
107.294
20
-60.4594
11
107.294
21
-60.4548
0
LINE
8
BLACK
6
CONTINUOUS
10
107.294
20
-60.4548
11
107.293
21
-60.4503
0
LINE
8
BLACK
6
CONTINUOUS
10
107.293
20
-60.4503
11
107.293
21
-60.4164
0
LINE
8
BLACK
6
CONTINUOUS
10
107.293
20
-60.4164
11
107.294
21
-60.4119
0
LINE
8
BLACK
6
CONTINUOUS
10
107.294
20
-60.4119
11
107.294
21
-60.4074
0
LINE
8
BLACK
6
CONTINUOUS
10
107.294
20
-60.4074
11
107.296
21
-60.3985
0
LINE
8
BLACK
6
CONTINUOUS
10
107.296
20
-60.3985
11
107.298
21
-60.3893
0
LINE
8
BLACK
6
CONTINUOUS
10
107.298
20
-60.3893
11
107.3
21
-60.3853
0
LINE
8
BLACK
6
CONTINUOUS
10
107.3
20
-60.3853
11
107.302
21
-60.3809
0
LINE
8
BLACK
6
CONTINUOUS
10
107.302
20
-60.3809
11
107.335
21
-60.3132
0
LINE
8
BLACK
6
CONTINUOUS
10
107.335
20
-60.3132
11
107.342
21
-60.3038
0
LINE
8
BLACK
6
CONTINUOUS
10
107.342
20
-60.3038
11
107.349
21
-60.2941
0
LINE
8
BLACK
6
CONTINUOUS
10
107.349
20
-60.2941
11
107.351
21
-60.2928
0
LINE
8
BLACK
6
CONTINUOUS
10
107.351
20
-60.2928
11
107.352
21
-60.2911
0
LINE
8
BLACK
6
CONTINUOUS
10
107.352
20
-60.2911
11
107.362
21
-60.2846
0
LINE
8
BLACK
6
CONTINUOUS
10
107.362
20
-60.2846
11
107.371
21
-60.2777
0
LINE
8
BLACK
6
CONTINUOUS
10
107.371
20
-60.2777
11
107.439
21
-60.2438
0
LINE
8
BLACK
6
CONTINUOUS
10
107.439
20
-60.2438
11
107.443
21
-60.2425
0
LINE
8
BLACK
6
CONTINUOUS
10
107.443
20
-60.2425
11
107.447
21
-60.2403
0
LINE
8
BLACK
6
CONTINUOUS
10
107.447
20
-60.2403
11
107.456
21
-60.2386
0
LINE
8
BLACK
6
CONTINUOUS
10
107.456
20
-60.2386
11
107.465
21
-60.236
0
LINE
8
BLACK
6
CONTINUOUS
10
107.465
20
-60.236
11
107.47
21
-60.2363
0
LINE
8
BLACK
6
CONTINUOUS
10
107.47
20
-60.2363
11
107.474
21
-60.2355
0
LINE
8
BLACK
6
CONTINUOUS
10
107.474
20
-60.2355
11
107.576
21
-60.2355
0
LINE
8
BLACK
6
CONTINUOUS
10
107.576
20
-60.2355
11
107.58
21
-60.2363
0
LINE
8
BLACK
6
CONTINUOUS
10
108.022
20
-60.009
11
108.043
21
-60.0268
0
LINE
8
BLACK
6
CONTINUOUS
10
108.043
20
-60.0268
11
108.057
21
-60.0506
0
LINE
8
BLACK
6
CONTINUOUS
10
108.057
20
-60.0506
11
108.062
21
-60.0778
0
LINE
8
BLACK
6
CONTINUOUS
10
108.062
20
-60.0778
11
108.062
21
-60.2355
0
LINE
8
BLACK
6
CONTINUOUS
10
108.062
20
-60.2355
11
108.152
21
-60.2355
0
LINE
8
BLACK
6
CONTINUOUS
10
108.152
20
-60.2355
11
108.179
21
-60.2403
0
LINE
8
BLACK
6
CONTINUOUS
10
108.179
20
-60.2403
11
108.203
21
-60.254
0
LINE
8
BLACK
6
CONTINUOUS
10
108.203
20
-60.254
11
108.22
21
-60.2752
0
LINE
8
BLACK
6
CONTINUOUS
10
108.22
20
-60.2752
11
108.23
21
-60.3011
0
LINE
8
BLACK
6
CONTINUOUS
10
108.23
20
-60.3011
11
108.23
21
-60.3286
0
LINE
8
BLACK
6
CONTINUOUS
10
108.23
20
-60.3286
11
108.22
21
-60.3545
0
LINE
8
BLACK
6
CONTINUOUS
10
108.22
20
-60.3545
11
108.203
21
-60.3756
0
LINE
8
BLACK
6
CONTINUOUS
10
108.203
20
-60.3756
11
108.179
21
-60.3894
0
LINE
8
BLACK
6
CONTINUOUS
10
108.179
20
-60.3894
11
108.152
21
-60.3942
0
LINE
8
BLACK
6
CONTINUOUS
10
108.152
20
-60.3942
11
108.062
21
-60.3942
0
LINE
8
BLACK
6
CONTINUOUS
10
108.062
20
-60.3942
11
108.062
21
-60.6686
0
LINE
8
BLACK
6
CONTINUOUS
10
108.062
20
-60.6686
11
108.075
21
-60.6959
0
LINE
8
BLACK
6
CONTINUOUS
10
108.075
20
-60.6959
11
108.103
21
-60.7096
0
LINE
8
BLACK
6
CONTINUOUS
10
108.103
20
-60.7096
11
108.152
21
-60.7096
0
LINE
8
BLACK
6
CONTINUOUS
10
108.152
20
-60.7096
11
108.179
21
-60.7144
0
LINE
8
BLACK
6
CONTINUOUS
10
108.179
20
-60.7144
11
108.203
21
-60.7282
0
LINE
8
BLACK
6
CONTINUOUS
10
108.203
20
-60.7282
11
108.22
21
-60.7493
0
LINE
8
BLACK
6
CONTINUOUS
10
108.22
20
-60.7493
11
108.23
21
-60.7752
0
LINE
8
BLACK
6
CONTINUOUS
10
108.23
20
-60.7752
11
108.23
21
-60.8028
0
LINE
8
BLACK
6
CONTINUOUS
10
108.23
20
-60.8028
11
108.22
21
-60.8287
0
LINE
8
BLACK
6
CONTINUOUS
10
108.22
20
-60.8287
11
108.203
21
-60.8498
0
LINE
8
BLACK
6
CONTINUOUS
10
108.203
20
-60.8498
11
108.179
21
-60.8636
0
LINE
8
BLACK
6
CONTINUOUS
10
108.179
20
-60.8636
11
108.152
21
-60.8683
0
LINE
8
BLACK
6
CONTINUOUS
10
108.152
20
-60.8683
11
108.084
21
-60.8683
0
LINE
8
BLACK
6
CONTINUOUS
10
108.084
20
-60.8683
11
108.079
21
-60.8676
0
LINE
8
BLACK
6
CONTINUOUS
10
108.079
20
-60.8676
11
108.075
21
-60.8678
0
LINE
8
BLACK
6
CONTINUOUS
10
108.075
20
-60.8678
11
108.066
21
-60.8652
0
LINE
8
BLACK
6
CONTINUOUS
10
108.066
20
-60.8652
11
108.057
21
-60.8636
0
LINE
8
BLACK
6
CONTINUOUS
10
108.057
20
-60.8636
11
108.053
21
-60.8613
0
LINE
8
BLACK
6
CONTINUOUS
10
108.053
20
-60.8613
11
108.048
21
-60.86
0
LINE
8
BLACK
6
CONTINUOUS
10
108.048
20
-60.86
11
107.981
21
-60.8261
0
LINE
8
BLACK
6
CONTINUOUS
10
107.981
20
-60.8261
11
107.971
21
-60.8192
0
LINE
8
BLACK
6
CONTINUOUS
10
107.971
20
-60.8192
11
107.961
21
-60.8127
0
LINE
8
BLACK
6
CONTINUOUS
10
107.961
20
-60.8127
11
107.96
21
-60.811
0
LINE
8
BLACK
6
CONTINUOUS
10
107.96
20
-60.811
11
107.958
21
-60.8097
0
LINE
8
BLACK
6
CONTINUOUS
10
107.958
20
-60.8097
11
107.952
21
-60.8
0
LINE
8
BLACK
6
CONTINUOUS
10
107.952
20
-60.8
11
107.945
21
-60.7906
0
LINE
8
BLACK
6
CONTINUOUS
10
107.945
20
-60.7906
11
107.911
21
-60.7229
0
LINE
8
BLACK
6
CONTINUOUS
10
107.911
20
-60.7229
11
107.91
21
-60.7185
0
LINE
8
BLACK
6
CONTINUOUS
10
107.91
20
-60.7185
11
107.908
21
-60.7145
0
LINE
8
BLACK
6
CONTINUOUS
10
107.908
20
-60.7145
11
107.906
21
-60.7054
0
LINE
8
BLACK
6
CONTINUOUS
10
107.906
20
-60.7054
11
107.903
21
-60.6964
0
LINE
8
BLACK
6
CONTINUOUS
10
107.903
20
-60.6964
11
107.904
21
-60.6919
0
LINE
8
BLACK
6
CONTINUOUS
10
107.904
20
-60.6919
11
107.903
21
-60.6874
0
LINE
8
BLACK
6
CONTINUOUS
10
107.903
20
-60.6874
11
107.903
21
-60.3942
0
LINE
8
BLACK
6
CONTINUOUS
10
107.903
20
-60.3942
11
107.881
21
-60.3942
0
LINE
8
BLACK
6
CONTINUOUS
10
107.881
20
-60.3942
11
107.853
21
-60.3894
0
LINE
8
BLACK
6
CONTINUOUS
10
107.853
20
-60.3894
11
107.83
21
-60.3756
0
LINE
8
BLACK
6
CONTINUOUS
10
107.83
20
-60.3756
11
107.812
21
-60.3545
0
LINE
8
BLACK
6
CONTINUOUS
10
107.812
20
-60.3545
11
107.802
21
-60.3286
0
LINE
8
BLACK
6
CONTINUOUS
10
107.802
20
-60.3286
11
107.802
21
-60.3011
0
LINE
8
BLACK
6
CONTINUOUS
10
107.802
20
-60.3011
11
107.812
21
-60.2752
0
LINE
8
BLACK
6
CONTINUOUS
10
107.812
20
-60.2752
11
107.83
21
-60.254
0
LINE
8
BLACK
6
CONTINUOUS
10
107.83
20
-60.254
11
107.853
21
-60.2403
0
LINE
8
BLACK
6
CONTINUOUS
10
107.853
20
-60.2403
11
107.881
21
-60.2355
0
LINE
8
BLACK
6
CONTINUOUS
10
107.881
20
-60.2355
11
107.903
21
-60.2355
0
LINE
8
BLACK
6
CONTINUOUS
10
107.903
20
-60.2355
11
107.903
21
-60.0778
0
LINE
8
BLACK
6
CONTINUOUS
10
107.903
20
-60.0778
11
107.908
21
-60.0506
0
LINE
8
BLACK
6
CONTINUOUS
10
107.908
20
-60.0506
11
107.921
21
-60.0268
0
LINE
8
BLACK
6
CONTINUOUS
10
107.921
20
-60.0268
11
107.942
21
-60.009
0
LINE
8
BLACK
6
CONTINUOUS
10
107.942
20
-60.009
11
107.968
21
-59.9996
0
LINE
8
BLACK
6
CONTINUOUS
10
107.968
20
-59.9996
11
107.996
21
-59.9996
0
LINE
8
BLACK
6
CONTINUOUS
10
107.996
20
-59.9996
11
108.022
21
-60.009
0
LINE
8
BLACK
6
CONTINUOUS
10
109.849
20
-60.008
11
109.87
21
-60.0251
0
LINE
8
BLACK
6
CONTINUOUS
10
109.87
20
-60.0251
11
109.885
21
-60.0486
0
LINE
8
BLACK
6
CONTINUOUS
10
109.885
20
-60.0486
11
109.89
21
-60.0756
0
LINE
8
BLACK
6
CONTINUOUS
10
109.89
20
-60.0756
11
109.886
21
-60.1029
0
LINE
8
BLACK
6
CONTINUOUS
10
109.886
20
-60.1029
11
109.649
21
-60.8141
0
LINE
8
BLACK
6
CONTINUOUS
10
109.649
20
-60.8141
11
109.648
21
-60.816
0
LINE
8
BLACK
6
CONTINUOUS
10
109.648
20
-60.816
11
109.648
21
-60.8181
0
LINE
8
BLACK
6
CONTINUOUS
10
109.648
20
-60.8181
11
109.642
21
-60.8281
0
LINE
8
BLACK
6
CONTINUOUS
10
109.642
20
-60.8281
11
109.636
21
-60.8383
0
LINE
8
BLACK
6
CONTINUOUS
10
109.636
20
-60.8383
11
109.634
21
-60.8398
0
LINE
8
BLACK
6
CONTINUOUS
10
109.634
20
-60.8398
11
109.633
21
-60.8416
0
LINE
8
BLACK
6
CONTINUOUS
10
109.633
20
-60.8416
11
109.624
21
-60.8489
0
LINE
8
BLACK
6
CONTINUOUS
10
109.624
20
-60.8489
11
109.615
21
-60.8566
0
LINE
8
BLACK
6
CONTINUOUS
10
109.615
20
-60.8566
11
109.613
21
-60.8574
0
LINE
8
BLACK
6
CONTINUOUS
10
109.613
20
-60.8574
11
109.612
21
-60.8588
0
LINE
8
BLACK
6
CONTINUOUS
10
109.612
20
-60.8588
11
109.601
21
-60.8625
0
LINE
8
BLACK
6
CONTINUOUS
10
109.601
20
-60.8625
11
109.59
21
-60.8667
0
LINE
8
BLACK
6
CONTINUOUS
10
109.59
20
-60.8667
11
109.588
21
-60.8668
0
LINE
8
BLACK
6
CONTINUOUS
10
109.588
20
-60.8668
11
109.586
21
-60.8675
0
LINE
8
BLACK
6
CONTINUOUS
10
109.586
20
-60.8675
11
109.574
21
-60.8672
0
LINE
8
BLACK
6
CONTINUOUS
10
109.574
20
-60.8672
11
109.562
21
-60.8675
0
LINE
8
BLACK
6
CONTINUOUS
10
109.562
20
-60.8675
11
109.56
21
-60.8668
0
LINE
8
BLACK
6
CONTINUOUS
10
109.56
20
-60.8668
11
109.558
21
-60.8667
0
LINE
8
BLACK
6
CONTINUOUS
10
109.558
20
-60.8667
11
109.547
21
-60.8625
0
LINE
8
BLACK
6
CONTINUOUS
10
109.547
20
-60.8625
11
109.536
21
-60.8588
0
LINE
8
BLACK
6
CONTINUOUS
10
109.536
20
-60.8588
11
109.534
21
-60.8574
0
LINE
8
BLACK
6
CONTINUOUS
10
109.534
20
-60.8574
11
109.532
21
-60.8566
0
LINE
8
BLACK
6
CONTINUOUS
10
109.532
20
-60.8566
11
109.524
21
-60.8489
0
LINE
8
BLACK
6
CONTINUOUS
10
109.524
20
-60.8489
11
109.515
21
-60.8416
0
LINE
8
BLACK
6
CONTINUOUS
10
109.515
20
-60.8416
11
109.513
21
-60.8398
0
LINE
8
BLACK
6
CONTINUOUS
10
109.513
20
-60.8398
11
109.512
21
-60.8383
0
LINE
8
BLACK
6
CONTINUOUS
10
109.512
20
-60.8383
11
109.506
21
-60.8281
0
LINE
8
BLACK
6
CONTINUOUS
10
109.506
20
-60.8281
11
109.5
21
-60.8181
0
LINE
8
BLACK
6
CONTINUOUS
10
109.5
20
-60.8181
11
109.5
21
-60.816
0
LINE
8
BLACK
6
CONTINUOUS
10
109.5
20
-60.816
11
109.499
21
-60.8141
0
LINE
8
BLACK
6
CONTINUOUS
10
109.499
20
-60.8141
11
109.262
21
-60.1029
0
LINE
8
BLACK
6
CONTINUOUS
10
109.262
20
-60.1029
11
109.257
21
-60.0756
0
LINE
8
BLACK
6
CONTINUOUS
10
109.257
20
-60.0756
11
109.263
21
-60.0486
0
LINE
8
BLACK
6
CONTINUOUS
10
109.263
20
-60.0486
11
109.277
21
-60.0251
0
LINE
8
BLACK
6
CONTINUOUS
10
109.277
20
-60.0251
11
109.299
21
-60.008
0
LINE
8
BLACK
6
CONTINUOUS
10
109.299
20
-60.008
11
109.325
21
-59.9993
0
LINE
8
BLACK
6
CONTINUOUS
10
109.325
20
-59.9993
11
109.353
21
-60
0
LINE
8
BLACK
6
CONTINUOUS
10
109.353
20
-60
11
109.378
21
-60.0101
0
LINE
8
BLACK
6
CONTINUOUS
10
109.378
20
-60.0101
11
109.399
21
-60.0284
0
LINE
8
BLACK
6
CONTINUOUS
10
109.399
20
-60.0284
11
109.412
21
-60.0527
0
LINE
8
BLACK
6
CONTINUOUS
10
109.412
20
-60.0527
11
109.574
21
-60.538
0
LINE
8
BLACK
6
CONTINUOUS
10
109.574
20
-60.538
11
109.736
21
-60.0527
0
LINE
8
BLACK
6
CONTINUOUS
10
109.736
20
-60.0527
11
109.749
21
-60.0284
0
LINE
8
BLACK
6
CONTINUOUS
10
109.749
20
-60.0284
11
109.769
21
-60.0101
0
LINE
8
BLACK
6
CONTINUOUS
10
109.769
20
-60.0101
11
109.795
21
-60
0
LINE
8
BLACK
6
CONTINUOUS
10
109.795
20
-60
11
109.823
21
-59.9993
0
LINE
8
BLACK
6
CONTINUOUS
10
109.823
20
-59.9993
11
109.849
21
-60.008
0
LINE
8
BLACK
6
CONTINUOUS
10
106.428
20
-59.9996
11
106.438
21
-59.9996
0
LINE
8
BLACK
6
CONTINUOUS
10
106.438
20
-59.9996
11
106.441
21
-60.0008
0
LINE
8
BLACK
6
CONTINUOUS
10
106.441
20
-60.0008
11
106.445
21
-60.0011
0
LINE
8
BLACK
6
CONTINUOUS
10
106.445
20
-60.0011
11
106.454
21
-60.0055
0
LINE
8
BLACK
6
CONTINUOUS
10
106.454
20
-60.0055
11
106.464
21
-60.009
0
LINE
8
BLACK
6
CONTINUOUS
10
106.464
20
-60.009
11
106.467
21
-60.0113
0
LINE
8
BLACK
6
CONTINUOUS
10
106.467
20
-60.0113
11
106.47
21
-60.0128
0
LINE
8
BLACK
6
CONTINUOUS
10
106.47
20
-60.0128
11
106.477
21
-60.0201
0
LINE
8
BLACK
6
CONTINUOUS
10
106.477
20
-60.0201
11
106.485
21
-60.0268
0
LINE
8
BLACK
6
CONTINUOUS
10
106.485
20
-60.0268
11
106.487
21
-60.0298
0
LINE
8
BLACK
6
CONTINUOUS
10
106.487
20
-60.0298
11
106.489
21
-60.0323
0
LINE
8
BLACK
6
CONTINUOUS
10
106.489
20
-60.0323
11
106.494
21
-60.0417
0
LINE
8
BLACK
6
CONTINUOUS
10
106.494
20
-60.0417
11
106.499
21
-60.0506
0
LINE
8
BLACK
6
CONTINUOUS
10
106.499
20
-60.0506
11
106.5
21
-60.0541
0
LINE
8
BLACK
6
CONTINUOUS
10
106.5
20
-60.0541
11
106.501
21
-60.0573
0
LINE
8
BLACK
6
CONTINUOUS
10
106.501
20
-60.0573
11
106.502
21
-60.0676
0
LINE
8
BLACK
6
CONTINUOUS
10
106.502
20
-60.0676
11
106.504
21
-60.0778
0
LINE
8
BLACK
6
CONTINUOUS
10
106.504
20
-60.0778
11
106.504
21
-60.789
0
LINE
8
BLACK
6
CONTINUOUS
10
106.504
20
-60.789
11
106.499
21
-60.8161
0
LINE
8
BLACK
6
CONTINUOUS
10
106.499
20
-60.8161
11
106.485
21
-60.84
0
LINE
8
BLACK
6
CONTINUOUS
10
106.485
20
-60.84
11
106.464
21
-60.8577
0
LINE
8
BLACK
6
CONTINUOUS
10
106.464
20
-60.8577
11
106.438
21
-60.8671
0
LINE
8
BLACK
6
CONTINUOUS
10
106.438
20
-60.8671
11
106.411
21
-60.8671
0
LINE
8
BLACK
6
CONTINUOUS
10
106.411
20
-60.8671
11
106.385
21
-60.8577
0
LINE
8
BLACK
6
CONTINUOUS
10
106.385
20
-60.8577
11
106.364
21
-60.84
0
LINE
8
BLACK
6
CONTINUOUS
10
106.364
20
-60.84
11
106.35
21
-60.8161
0
LINE
8
BLACK
6
CONTINUOUS
10
106.35
20
-60.8161
11
106.345
21
-60.789
0
LINE
8
BLACK
6
CONTINUOUS
10
106.345
20
-60.789
11
106.345
21
-60.4356
0
LINE
8
BLACK
6
CONTINUOUS
10
106.345
20
-60.4356
11
106.259
21
-60.6193
0
LINE
8
BLACK
6
CONTINUOUS
10
106.259
20
-60.6193
11
106.255
21
-60.625
0
LINE
8
BLACK
6
CONTINUOUS
10
106.255
20
-60.625
11
106.252
21
-60.6313
0
LINE
8
BLACK
6
CONTINUOUS
10
106.252
20
-60.6313
11
106.247
21
-60.6362
0
LINE
8
BLACK
6
CONTINUOUS
10
106.247
20
-60.6362
11
106.243
21
-60.6419
0
LINE
8
BLACK
6
CONTINUOUS
10
106.243
20
-60.6419
11
106.238
21
-60.6459
0
LINE
8
BLACK
6
CONTINUOUS
10
106.238
20
-60.6459
11
106.233
21
-60.6508
0
LINE
8
BLACK
6
CONTINUOUS
10
106.233
20
-60.6508
11
106.226
21
-60.6537
0
LINE
8
BLACK
6
CONTINUOUS
10
106.226
20
-60.6537
11
106.221
21
-60.6577
0
LINE
8
BLACK
6
CONTINUOUS
10
106.221
20
-60.6577
11
106.214
21
-60.6595
0
LINE
8
BLACK
6
CONTINUOUS
10
106.214
20
-60.6595
11
106.208
21
-60.6624
0
LINE
8
BLACK
6
CONTINUOUS
10
106.208
20
-60.6624
11
106.201
21
-60.663
0
LINE
8
BLACK
6
CONTINUOUS
10
106.201
20
-60.663
11
106.194
21
-60.6648
0
LINE
8
BLACK
6
CONTINUOUS
10
106.194
20
-60.6648
11
106.187
21
-60.6642
0
LINE
8
BLACK
6
CONTINUOUS
10
106.187
20
-60.6642
11
106.18
21
-60.6648
0
LINE
8
BLACK
6
CONTINUOUS
10
106.18
20
-60.6648
11
106.174
21
-60.663
0
LINE
8
BLACK
6
CONTINUOUS
10
106.174
20
-60.663
11
106.167
21
-60.6624
0
LINE
8
BLACK
6
CONTINUOUS
10
106.167
20
-60.6624
11
106.16
21
-60.6595
0
LINE
8
BLACK
6
CONTINUOUS
10
106.16
20
-60.6595
11
106.154
21
-60.6577
0
LINE
8
BLACK
6
CONTINUOUS
10
106.154
20
-60.6577
11
106.148
21
-60.6537
0
LINE
8
BLACK
6
CONTINUOUS
10
106.148
20
-60.6537
11
106.142
21
-60.6508
0
LINE
8
BLACK
6
CONTINUOUS
10
106.142
20
-60.6508
11
106.137
21
-60.6459
0
LINE
8
BLACK
6
CONTINUOUS
10
106.137
20
-60.6459
11
106.131
21
-60.6419
0
LINE
8
BLACK
6
CONTINUOUS
10
106.131
20
-60.6419
11
106.127
21
-60.6362
0
LINE
8
BLACK
6
CONTINUOUS
10
106.127
20
-60.6362
11
106.122
21
-60.6313
0
LINE
8
BLACK
6
CONTINUOUS
10
106.122
20
-60.6313
11
106.119
21
-60.625
0
LINE
8
BLACK
6
CONTINUOUS
10
106.119
20
-60.625
11
106.115
21
-60.6193
0
LINE
8
BLACK
6
CONTINUOUS
10
106.115
20
-60.6193
11
106.03
21
-60.4356
0
LINE
8
BLACK
6
CONTINUOUS
10
106.03
20
-60.4356
11
106.03
21
-60.789
0
LINE
8
BLACK
6
CONTINUOUS
10
106.03
20
-60.789
11
106.025
21
-60.8161
0
LINE
8
BLACK
6
CONTINUOUS
10
106.025
20
-60.8161
11
106.011
21
-60.84
0
LINE
8
BLACK
6
CONTINUOUS
10
106.011
20
-60.84
11
105.99
21
-60.8577
0
LINE
8
BLACK
6
CONTINUOUS
10
105.99
20
-60.8577
11
105.964
21
-60.8671
0
LINE
8
BLACK
6
CONTINUOUS
10
105.964
20
-60.8671
11
105.936
21
-60.8671
0
LINE
8
BLACK
6
CONTINUOUS
10
105.936
20
-60.8671
11
105.91
21
-60.8577
0
LINE
8
BLACK
6
CONTINUOUS
10
105.91
20
-60.8577
11
105.889
21
-60.84
0
LINE
8
BLACK
6
CONTINUOUS
10
105.889
20
-60.84
11
105.876
21
-60.8161
0
LINE
8
BLACK
6
CONTINUOUS
10
105.876
20
-60.8161
11
105.871
21
-60.789
0
LINE
8
BLACK
6
CONTINUOUS
10
105.871
20
-60.789
11
105.871
21
-60.0778
0
LINE
8
BLACK
6
CONTINUOUS
10
105.871
20
-60.0778
11
105.873
21
-60.0676
0
LINE
8
BLACK
6
CONTINUOUS
10
105.873
20
-60.0676
11
105.873
21
-60.0573
0
LINE
8
BLACK
6
CONTINUOUS
10
105.873
20
-60.0573
11
105.875
21
-60.0541
0
LINE
8
BLACK
6
CONTINUOUS
10
105.875
20
-60.0541
11
105.876
21
-60.0506
0
LINE
8
BLACK
6
CONTINUOUS
10
105.876
20
-60.0506
11
105.881
21
-60.0417
0
LINE
8
BLACK
6
CONTINUOUS
10
105.881
20
-60.0417
11
105.885
21
-60.0323
0
LINE
8
BLACK
6
CONTINUOUS
10
105.885
20
-60.0323
11
105.888
21
-60.0298
0
LINE
8
BLACK
6
CONTINUOUS
10
105.888
20
-60.0298
11
105.889
21
-60.0268
0
LINE
8
BLACK
6
CONTINUOUS
10
105.889
20
-60.0268
11
105.897
21
-60.0201
0
LINE
8
BLACK
6
CONTINUOUS
10
105.897
20
-60.0201
11
105.905
21
-60.0128
0
LINE
8
BLACK
6
CONTINUOUS
10
105.905
20
-60.0128
11
105.908
21
-60.0113
0
LINE
8
BLACK
6
CONTINUOUS
10
105.908
20
-60.0113
11
105.91
21
-60.009
0
LINE
8
BLACK
6
CONTINUOUS
10
105.91
20
-60.009
11
105.92
21
-60.0055
0
LINE
8
BLACK
6
CONTINUOUS
10
105.92
20
-60.0055
11
105.93
21
-60.0011
0
LINE
8
BLACK
6
CONTINUOUS
10
105.93
20
-60.0011
11
105.933
21
-60.0008
0
LINE
8
BLACK
6
CONTINUOUS
10
105.933
20
-60.0008
11
105.936
21
-59.9996
0
LINE
8
BLACK
6
CONTINUOUS
10
105.936
20
-59.9996
11
105.947
21
-59.9996
0
LINE
8
BLACK
6
CONTINUOUS
10
105.947
20
-59.9996
11
105.957
21
-59.9987
0
LINE
8
BLACK
6
CONTINUOUS
10
105.957
20
-59.9987
11
105.96
21
-59.9996
0
LINE
8
BLACK
6
CONTINUOUS
10
105.96
20
-59.9996
11
105.964
21
-59.9996
0
LINE
8
BLACK
6
CONTINUOUS
10
105.964
20
-59.9996
11
105.974
21
-60.0031
0
LINE
8
BLACK
6
CONTINUOUS
10
105.974
20
-60.0031
11
105.984
21
-60.0058
0
LINE
8
BLACK
6
CONTINUOUS
10
105.984
20
-60.0058
11
105.987
21
-60.0078
0
LINE
8
BLACK
6
CONTINUOUS
10
105.987
20
-60.0078
11
105.99
21
-60.009
0
LINE
8
BLACK
6
CONTINUOUS
10
105.99
20
-60.009
11
105.998
21
-60.0157
0
LINE
8
BLACK
6
CONTINUOUS
10
105.998
20
-60.0157
11
106.006
21
-60.0216
0
LINE
8
BLACK
6
CONTINUOUS
10
106.006
20
-60.0216
11
106.008
21
-60.0245
0
LINE
8
BLACK
6
CONTINUOUS
10
106.008
20
-60.0245
11
106.011
21
-60.0268
0
LINE
8
BLACK
6
CONTINUOUS
10
106.011
20
-60.0268
11
106.016
21
-60.0357
0
LINE
8
BLACK
6
CONTINUOUS
10
106.016
20
-60.0357
11
106.022
21
-60.0442
0
LINE
8
BLACK
6
CONTINUOUS
10
106.022
20
-60.0442
11
106.187
21
-60.3981
0
LINE
8
BLACK
6
CONTINUOUS
10
106.187
20
-60.3981
11
106.352
21
-60.0442
0
LINE
8
BLACK
6
CONTINUOUS
10
106.352
20
-60.0442
11
106.358
21
-60.0357
0
LINE
8
BLACK
6
CONTINUOUS
10
106.358
20
-60.0357
11
106.364
21
-60.0268
0
LINE
8
BLACK
6
CONTINUOUS
10
106.364
20
-60.0268
11
106.366
21
-60.0245
0
LINE
8
BLACK
6
CONTINUOUS
10
106.366
20
-60.0245
11
106.368
21
-60.0216
0
LINE
8
BLACK
6
CONTINUOUS
10
106.368
20
-60.0216
11
106.377
21
-60.0157
0
LINE
8
BLACK
6
CONTINUOUS
10
106.377
20
-60.0157
11
106.385
21
-60.009
0
LINE
8
BLACK
6
CONTINUOUS
10
106.385
20
-60.009
11
106.388
21
-60.0078
0
LINE
8
BLACK
6
CONTINUOUS
10
106.388
20
-60.0078
11
106.391
21
-60.0058
0
LINE
8
BLACK
6
CONTINUOUS
10
106.391
20
-60.0058
11
106.401
21
-60.0031
0
LINE
8
BLACK
6
CONTINUOUS
10
106.401
20
-60.0031
11
106.411
21
-59.9996
0
LINE
8
BLACK
6
CONTINUOUS
10
106.411
20
-59.9996
11
106.414
21
-59.9996
0
LINE
8
BLACK
6
CONTINUOUS
10
106.414
20
-59.9996
11
106.417
21
-59.9987
0
LINE
8
BLACK
6
CONTINUOUS
10
106.417
20
-59.9987
11
106.428
21
-59.9996
0
LINE
8
BLACK
6
CONTINUOUS
10
105.74
20
-60.0032
11
105.764
21
-60.017
0
LINE
8
BLACK
6
CONTINUOUS
10
105.764
20
-60.017
11
105.782
21
-60.0381
0
LINE
8
BLACK
6
CONTINUOUS
10
105.782
20
-60.0381
11
105.791
21
-60.064
0
LINE
8
BLACK
6
CONTINUOUS
10
105.791
20
-60.064
11
105.791
21
-60.0916
0
LINE
8
BLACK
6
CONTINUOUS
10
105.791
20
-60.0916
11
105.782
21
-60.1175
0
LINE
8
BLACK
6
CONTINUOUS
10
105.782
20
-60.1175
11
105.764
21
-60.1386
0
LINE
8
BLACK
6
CONTINUOUS
10
105.764
20
-60.1386
11
105.74
21
-60.1524
0
LINE
8
BLACK
6
CONTINUOUS
10
105.74
20
-60.1524
11
105.713
21
-60.1571
0
LINE
8
BLACK
6
CONTINUOUS
10
105.713
20
-60.1571
11
105.664
21
-60.1571
0
LINE
8
BLACK
6
CONTINUOUS
10
105.664
20
-60.1571
11
105.637
21
-60.1708
0
LINE
8
BLACK
6
CONTINUOUS
10
105.637
20
-60.1708
11
105.623
21
-60.1981
0
LINE
8
BLACK
6
CONTINUOUS
10
105.623
20
-60.1981
11
105.623
21
-60.2355
0
LINE
8
BLACK
6
CONTINUOUS
10
105.623
20
-60.2355
11
105.713
21
-60.2355
0
LINE
8
BLACK
6
CONTINUOUS
10
105.713
20
-60.2355
11
105.74
21
-60.2403
0
LINE
8
BLACK
6
CONTINUOUS
10
105.74
20
-60.2403
11
105.764
21
-60.254
0
LINE
8
BLACK
6
CONTINUOUS
10
105.764
20
-60.254
11
105.782
21
-60.2752
0
LINE
8
BLACK
6
CONTINUOUS
10
105.782
20
-60.2752
11
105.791
21
-60.3011
0
LINE
8
BLACK
6
CONTINUOUS
10
105.791
20
-60.3011
11
105.791
21
-60.3286
0
LINE
8
BLACK
6
CONTINUOUS
10
105.791
20
-60.3286
11
105.782
21
-60.3545
0
LINE
8
BLACK
6
CONTINUOUS
10
105.782
20
-60.3545
11
105.764
21
-60.3756
0
LINE
8
BLACK
6
CONTINUOUS
10
105.764
20
-60.3756
11
105.74
21
-60.3894
0
LINE
8
BLACK
6
CONTINUOUS
10
105.74
20
-60.3894
11
105.713
21
-60.3942
0
LINE
8
BLACK
6
CONTINUOUS
10
105.713
20
-60.3942
11
105.623
21
-60.3942
0
LINE
8
BLACK
6
CONTINUOUS
10
105.623
20
-60.3942
11
105.623
21
-60.789
0
LINE
8
BLACK
6
CONTINUOUS
10
105.623
20
-60.789
11
105.618
21
-60.8161
0
LINE
8
BLACK
6
CONTINUOUS
10
105.618
20
-60.8161
11
105.605
21
-60.84
0
LINE
8
BLACK
6
CONTINUOUS
10
105.605
20
-60.84
11
105.583
21
-60.8577
0
LINE
8
BLACK
6
CONTINUOUS
10
105.583
20
-60.8577
11
105.558
21
-60.8671
0
LINE
8
BLACK
6
CONTINUOUS
10
105.558
20
-60.8671
11
105.53
21
-60.8671
0
LINE
8
BLACK
6
CONTINUOUS
10
105.53
20
-60.8671
11
105.504
21
-60.8577
0
LINE
8
BLACK
6
CONTINUOUS
10
105.504
20
-60.8577
11
105.483
21
-60.84
0
LINE
8
BLACK
6
CONTINUOUS
10
105.483
20
-60.84
11
105.469
21
-60.8161
0
LINE
8
BLACK
6
CONTINUOUS
10
105.469
20
-60.8161
11
105.464
21
-60.789
0
LINE
8
BLACK
6
CONTINUOUS
10
105.464
20
-60.789
11
105.464
21
-60.3942
0
LINE
8
BLACK
6
CONTINUOUS
10
105.464
20
-60.3942
11
105.442
21
-60.3942
0
LINE
8
BLACK
6
CONTINUOUS
10
105.442
20
-60.3942
11
105.415
21
-60.3894
0
LINE
8
BLACK
6
CONTINUOUS
10
105.415
20
-60.3894
11
105.391
21
-60.3756
0
LINE
8
BLACK
6
CONTINUOUS
10
105.391
20
-60.3756
11
105.373
21
-60.3545
0
LINE
8
BLACK
6
CONTINUOUS
10
105.373
20
-60.3545
11
105.364
21
-60.3286
0
LINE
8
BLACK
6
CONTINUOUS
10
105.364
20
-60.3286
11
105.364
21
-60.3011
0
LINE
8
BLACK
6
CONTINUOUS
10
105.364
20
-60.3011
11
105.373
21
-60.2752
0
LINE
8
BLACK
6
CONTINUOUS
10
105.373
20
-60.2752
11
105.391
21
-60.254
0
LINE
8
BLACK
6
CONTINUOUS
10
105.391
20
-60.254
11
105.415
21
-60.2403
0
LINE
8
BLACK
6
CONTINUOUS
10
105.415
20
-60.2403
11
105.442
21
-60.2355
0
LINE
8
BLACK
6
CONTINUOUS
10
105.442
20
-60.2355
11
105.464
21
-60.2355
0
LINE
8
BLACK
6
CONTINUOUS
10
105.464
20
-60.2355
11
105.464
21
-60.1794
0
LINE
8
BLACK
6
CONTINUOUS
10
105.464
20
-60.1794
11
105.465
21
-60.1749
0
LINE
8
BLACK
6
CONTINUOUS
10
105.465
20
-60.1749
11
105.465
21
-60.1703
0
LINE
8
BLACK
6
CONTINUOUS
10
105.465
20
-60.1703
11
105.468
21
-60.1614
0
LINE
8
BLACK
6
CONTINUOUS
10
105.468
20
-60.1614
11
105.469
21
-60.1522
0
LINE
8
BLACK
6
CONTINUOUS
10
105.469
20
-60.1522
11
105.471
21
-60.1483
0
LINE
8
BLACK
6
CONTINUOUS
10
105.471
20
-60.1483
11
105.473
21
-60.1439
0
LINE
8
BLACK
6
CONTINUOUS
10
105.473
20
-60.1439
11
105.507
21
-60.0761
0
LINE
8
BLACK
6
CONTINUOUS
10
105.507
20
-60.0761
11
105.514
21
-60.0668
0
LINE
8
BLACK
6
CONTINUOUS
10
105.514
20
-60.0668
11
105.52
21
-60.0571
0
LINE
8
BLACK
6
CONTINUOUS
10
105.52
20
-60.0571
11
105.522
21
-60.0558
0
LINE
8
BLACK
6
CONTINUOUS
10
105.522
20
-60.0558
11
105.523
21
-60.054
0
LINE
8
BLACK
6
CONTINUOUS
10
105.523
20
-60.054
11
105.533
21
-60.0476
0
LINE
8
BLACK
6
CONTINUOUS
10
105.533
20
-60.0476
11
105.542
21
-60.0406
0
LINE
8
BLACK
6
CONTINUOUS
10
105.542
20
-60.0406
11
105.61
21
-60.0068
0
LINE
8
BLACK
6
CONTINUOUS
10
105.61
20
-60.0068
11
105.614
21
-60.0055
0
LINE
8
BLACK
6
CONTINUOUS
10
105.614
20
-60.0055
11
105.618
21
-60.0032
0
LINE
8
BLACK
6
CONTINUOUS
10
105.618
20
-60.0032
11
105.627
21
-60.0016
0
LINE
8
BLACK
6
CONTINUOUS
10
105.627
20
-60.0016
11
105.636
21
-59.9989
0
LINE
8
BLACK
6
CONTINUOUS
10
105.636
20
-59.9989
11
105.641
21
-59.9992
0
LINE
8
BLACK
6
CONTINUOUS
10
105.641
20
-59.9992
11
105.645
21
-59.9984
0
LINE
8
BLACK
6
CONTINUOUS
10
105.645
20
-59.9984
11
105.713
21
-59.9984
0
LINE
8
BLACK
6
CONTINUOUS
10
105.713
20
-59.9984
11
105.74
21
-60.0032
0
LINE
8
BLACK
6
CONTINUOUS
10
104.25
20
-60.0032
11
104.274
21
-60.017
0
LINE
8
BLACK
6
CONTINUOUS
10
104.274
20
-60.017
11
104.292
21
-60.0381
0
LINE
8
BLACK
6
CONTINUOUS
10
104.292
20
-60.0381
11
104.301
21
-60.064
0
LINE
8
BLACK
6
CONTINUOUS
10
104.301
20
-60.064
11
104.301
21
-60.0916
0
LINE
8
BLACK
6
CONTINUOUS
10
104.301
20
-60.0916
11
104.292
21
-60.1175
0
LINE
8
BLACK
6
CONTINUOUS
10
104.292
20
-60.1175
11
104.274
21
-60.1386
0
LINE
8
BLACK
6
CONTINUOUS
10
104.274
20
-60.1386
11
104.25
21
-60.1524
0
LINE
8
BLACK
6
CONTINUOUS
10
104.25
20
-60.1524
11
104.223
21
-60.1571
0
LINE
8
BLACK
6
CONTINUOUS
10
104.223
20
-60.1571
11
104.099
21
-60.1571
0
LINE
8
BLACK
6
CONTINUOUS
10
104.099
20
-60.1571
11
104.099
21
-60.789
0
LINE
8
BLACK
6
CONTINUOUS
10
104.099
20
-60.789
11
104.094
21
-60.8161
0
LINE
8
BLACK
6
CONTINUOUS
10
104.094
20
-60.8161
11
104.081
21
-60.84
0
LINE
8
BLACK
6
CONTINUOUS
10
104.081
20
-60.84
11
104.059
21
-60.8577
0
LINE
8
BLACK
6
CONTINUOUS
10
104.059
20
-60.8577
11
104.034
21
-60.8671
0
LINE
8
BLACK
6
CONTINUOUS
10
104.034
20
-60.8671
11
104.006
21
-60.8671
0
LINE
8
BLACK
6
CONTINUOUS
10
104.006
20
-60.8671
11
103.98
21
-60.8577
0
LINE
8
BLACK
6
CONTINUOUS
10
103.98
20
-60.8577
11
103.959
21
-60.84
0
LINE
8
BLACK
6
CONTINUOUS
10
103.959
20
-60.84
11
103.945
21
-60.8161
0
LINE
8
BLACK
6
CONTINUOUS
10
103.945
20
-60.8161
11
103.94
21
-60.789
0
LINE
8
BLACK
6
CONTINUOUS
10
103.94
20
-60.789
11
103.94
21
-60.1571
0
LINE
8
BLACK
6
CONTINUOUS
10
103.94
20
-60.1571
11
103.817
21
-60.1571
0
LINE
8
BLACK
6
CONTINUOUS
10
103.817
20
-60.1571
11
103.789
21
-60.1524
0
LINE
8
BLACK
6
CONTINUOUS
10
103.789
20
-60.1524
11
103.766
21
-60.1386
0
LINE
8
BLACK
6
CONTINUOUS
10
103.766
20
-60.1386
11
103.748
21
-60.1175
0
LINE
8
BLACK
6
CONTINUOUS
10
103.748
20
-60.1175
11
103.738
21
-60.0916
0
LINE
8
BLACK
6
CONTINUOUS
10
103.738
20
-60.0916
11
103.738
21
-60.064
0
LINE
8
BLACK
6
CONTINUOUS
10
103.738
20
-60.064
11
103.748
21
-60.0381
0
LINE
8
BLACK
6
CONTINUOUS
10
103.748
20
-60.0381
11
103.766
21
-60.017
0
LINE
8
BLACK
6
CONTINUOUS
10
103.766
20
-60.017
11
103.789
21
-60.0032
0
LINE
8
BLACK
6
CONTINUOUS
10
103.789
20
-60.0032
11
103.817
21
-59.9984
0
LINE
8
BLACK
6
CONTINUOUS
10
103.817
20
-59.9984
11
104.223
21
-59.9984
0
LINE
8
BLACK
6
CONTINUOUS
10
104.223
20
-59.9984
11
104.25
21
-60.0032
0
LINE
8
BLACK
6
CONTINUOUS
10
104.69
20
-60.2403
11
104.714
21
-60.254
0
LINE
8
BLACK
6
CONTINUOUS
10
104.714
20
-60.254
11
104.732
21
-60.2752
0
LINE
8
BLACK
6
CONTINUOUS
10
104.732
20
-60.2752
11
104.741
21
-60.3011
0
LINE
8
BLACK
6
CONTINUOUS
10
104.741
20
-60.3011
11
104.741
21
-60.3286
0
LINE
8
BLACK
6
CONTINUOUS
10
104.741
20
-60.3286
11
104.732
21
-60.3545
0
LINE
8
BLACK
6
CONTINUOUS
10
104.732
20
-60.3545
11
104.714
21
-60.3756
0
LINE
8
BLACK
6
CONTINUOUS
10
104.714
20
-60.3756
11
104.69
21
-60.3894
0
LINE
8
BLACK
6
CONTINUOUS
10
104.69
20
-60.3894
11
104.663
21
-60.3942
0
LINE
8
BLACK
6
CONTINUOUS
10
104.663
20
-60.3942
11
104.614
21
-60.3942
0
LINE
8
BLACK
6
CONTINUOUS
10
104.614
20
-60.3942
11
104.575
21
-60.4139
0
LINE
8
BLACK
6
CONTINUOUS
10
104.575
20
-60.4139
11
104.559
21
-60.4296
0
LINE
8
BLACK
6
CONTINUOUS
10
104.559
20
-60.4296
11
104.539
21
-60.469
0
LINE
8
BLACK
6
CONTINUOUS
10
104.539
20
-60.469
11
104.539
21
-60.789
0
LINE
8
BLACK
6
CONTINUOUS
10
104.539
20
-60.789
11
104.535
21
-60.8161
0
LINE
8
BLACK
6
CONTINUOUS
10
104.535
20
-60.8161
11
104.521
21
-60.84
0
LINE
8
BLACK
6
CONTINUOUS
10
104.521
20
-60.84
11
104.5
21
-60.8577
0
LINE
8
BLACK
6
CONTINUOUS
10
104.5
20
-60.8577
11
104.474
21
-60.8671
0
LINE
8
BLACK
6
CONTINUOUS
10
104.474
20
-60.8671
11
104.446
21
-60.8671
0
LINE
8
BLACK
6
CONTINUOUS
10
104.446
20
-60.8671
11
104.42
21
-60.8577
0
LINE
8
BLACK
6
CONTINUOUS
10
104.42
20
-60.8577
11
104.399
21
-60.84
0
LINE
8
BLACK
6
CONTINUOUS
10
104.399
20
-60.84
11
104.385
21
-60.8161
0
LINE
8
BLACK
6
CONTINUOUS
10
104.385
20
-60.8161
11
104.381
21
-60.789
0
LINE
8
BLACK
6
CONTINUOUS
10
104.381
20
-60.789
11
104.381
21
-60.3148
0
LINE
8
BLACK
6
CONTINUOUS
10
104.381
20
-60.3148
11
104.385
21
-60.2877
0
LINE
8
BLACK
6
CONTINUOUS
10
104.385
20
-60.2877
11
104.399
21
-60.2638
0
LINE
8
BLACK
6
CONTINUOUS
10
104.399
20
-60.2638
11
104.42
21
-60.2461
0
LINE
8
BLACK
6
CONTINUOUS
10
104.42
20
-60.2461
11
104.446
21
-60.2367
0
LINE
8
BLACK
6
CONTINUOUS
10
104.446
20
-60.2367
11
104.474
21
-60.2367
0
LINE
8
BLACK
6
CONTINUOUS
10
104.474
20
-60.2367
11
104.5
21
-60.2461
0
LINE
8
BLACK
6
CONTINUOUS
10
104.5
20
-60.2461
11
104.521
21
-60.2636
0
LINE
8
BLACK
6
CONTINUOUS
10
104.521
20
-60.2636
11
104.56
21
-60.2438
0
LINE
8
BLACK
6
CONTINUOUS
10
104.56
20
-60.2438
11
104.564
21
-60.2425
0
LINE
8
BLACK
6
CONTINUOUS
10
104.564
20
-60.2425
11
104.568
21
-60.2403
0
LINE
8
BLACK
6
CONTINUOUS
10
104.568
20
-60.2403
11
104.578
21
-60.2386
0
LINE
8
BLACK
6
CONTINUOUS
10
104.578
20
-60.2386
11
104.586
21
-60.236
0
LINE
8
BLACK
6
CONTINUOUS
10
104.586
20
-60.236
11
104.591
21
-60.2363
0
LINE
8
BLACK
6
CONTINUOUS
10
104.591
20
-60.2363
11
104.596
21
-60.2355
0
LINE
8
BLACK
6
CONTINUOUS
10
104.596
20
-60.2355
11
104.663
21
-60.2355
0
LINE
8
BLACK
6
CONTINUOUS
10
104.663
20
-60.2355
11
104.69
21
-60.2403
0
LINE
8
BLACK
6
CONTINUOUS
10
109.229
20
-60.2403
11
109.252
21
-60.254
0
LINE
8
BLACK
6
CONTINUOUS
10
109.252
20
-60.254
11
109.27
21
-60.2752
0
LINE
8
BLACK
6
CONTINUOUS
10
109.27
20
-60.2752
11
109.28
21
-60.3011
0
LINE
8
BLACK
6
CONTINUOUS
10
109.28
20
-60.3011
11
109.28
21
-60.3286
0
LINE
8
BLACK
6
CONTINUOUS
10
109.28
20
-60.3286
11
109.27
21
-60.3545
0
LINE
8
BLACK
6
CONTINUOUS
10
109.27
20
-60.3545
11
109.252
21
-60.3756
0
LINE
8
BLACK
6
CONTINUOUS
10
109.252
20
-60.3756
11
109.229
21
-60.3894
0
LINE
8
BLACK
6
CONTINUOUS
10
109.229
20
-60.3894
11
109.201
21
-60.3942
0
LINE
8
BLACK
6
CONTINUOUS
10
109.201
20
-60.3942
11
109.152
21
-60.3942
0
LINE
8
BLACK
6
CONTINUOUS
10
109.152
20
-60.3942
11
109.113
21
-60.4139
0
LINE
8
BLACK
6
CONTINUOUS
10
109.113
20
-60.4139
11
109.097
21
-60.4296
0
LINE
8
BLACK
6
CONTINUOUS
10
109.097
20
-60.4296
11
109.078
21
-60.469
0
LINE
8
BLACK
6
CONTINUOUS
10
109.078
20
-60.469
11
109.078
21
-60.789
0
LINE
8
BLACK
6
CONTINUOUS
10
109.078
20
-60.789
11
109.073
21
-60.8161
0
LINE
8
BLACK
6
CONTINUOUS
10
109.073
20
-60.8161
11
109.059
21
-60.84
0
LINE
8
BLACK
6
CONTINUOUS
10
109.059
20
-60.84
11
109.038
21
-60.8577
0
LINE
8
BLACK
6
CONTINUOUS
10
109.038
20
-60.8577
11
109.012
21
-60.8671
0
LINE
8
BLACK
6
CONTINUOUS
10
109.012
20
-60.8671
11
108.984
21
-60.8671
0
LINE
8
BLACK
6
CONTINUOUS
10
108.984
20
-60.8671
11
108.958
21
-60.8577
0
LINE
8
BLACK
6
CONTINUOUS
10
108.958
20
-60.8577
11
108.937
21
-60.84
0
LINE
8
BLACK
6
CONTINUOUS
10
108.937
20
-60.84
11
108.924
21
-60.8161
0
LINE
8
BLACK
6
CONTINUOUS
10
108.924
20
-60.8161
11
108.919
21
-60.789
0
LINE
8
BLACK
6
CONTINUOUS
10
108.919
20
-60.789
11
108.919
21
-60.3148
0
LINE
8
BLACK
6
CONTINUOUS
10
108.919
20
-60.3148
11
108.924
21
-60.2877
0
LINE
8
BLACK
6
CONTINUOUS
10
108.924
20
-60.2877
11
108.937
21
-60.2638
0
LINE
8
BLACK
6
CONTINUOUS
10
108.937
20
-60.2638
11
108.958
21
-60.2461
0
LINE
8
BLACK
6
CONTINUOUS
10
108.958
20
-60.2461
11
108.984
21
-60.2367
0
LINE
8
BLACK
6
CONTINUOUS
10
108.984
20
-60.2367
11
109.012
21
-60.2367
0
LINE
8
BLACK
6
CONTINUOUS
10
109.012
20
-60.2367
11
109.038
21
-60.2461
0
LINE
8
BLACK
6
CONTINUOUS
10
109.038
20
-60.2461
11
109.059
21
-60.2636
0
LINE
8
BLACK
6
CONTINUOUS
10
109.059
20
-60.2636
11
109.098
21
-60.2438
0
LINE
8
BLACK
6
CONTINUOUS
10
109.098
20
-60.2438
11
109.103
21
-60.2425
0
LINE
8
BLACK
6
CONTINUOUS
10
109.103
20
-60.2425
11
109.106
21
-60.2403
0
LINE
8
BLACK
6
CONTINUOUS
10
109.106
20
-60.2403
11
109.116
21
-60.2386
0
LINE
8
BLACK
6
CONTINUOUS
10
109.116
20
-60.2386
11
109.125
21
-60.236
0
LINE
8
BLACK
6
CONTINUOUS
10
109.125
20
-60.236
11
109.129
21
-60.2363
0
LINE
8
BLACK
6
CONTINUOUS
10
109.129
20
-60.2363
11
109.134
21
-60.2355
0
LINE
8
BLACK
6
CONTINUOUS
10
109.134
20
-60.2355
11
109.201
21
-60.2355
0
LINE
8
BLACK
6
CONTINUOUS
10
109.201
20
-60.2355
11
109.229
21
-60.2403
0
CIRCLE
8
BLACK
10
92.3958
20
-83.3153
40
0.1524
0
CIRCLE
8
BLACK
10
92.3958
20
-82.1403
40
0.1524
0
CIRCLE
8
BLACK
10
91.2208
20
-82.1403
40
0.1524
0
CIRCLE
8
BLACK
10
103.781
20
-102.414
40
0.1524
0
CIRCLE
8
BLACK
10
117.139
20
-88.6478
40
0.1524
0
CIRCLE
8
BLACK
10
107.356
20
-69.9922
40
0.1524
0
CIRCLE
8
BLACK
10
90.5764
20
-67.945
40
0.1524
0
CIRCLE
8
BLACK
10
93.9292
20
-71.9328
40
0.1524
0
CIRCLE
8
BLACK
10
90.5764
20
-65.1256
40
0.1524
0
CIRCLE
8
BLACK
10
89.535
20
-88.519
40
0.1524
0
CIRCLE
8
BLACK
10
94.2594
20
-90.6272
40
0.1524
0
CIRCLE
8
BLACK
10
118.314
20
-89.8228
40
0.1524
0
CIRCLE
8
BLACK
10
121.585
20
-86.9036
40
0.1524
0
CIRCLE
8
BLACK
10
120.3
20
-79.5934
40
0.1524
0
CIRCLE
8
BLACK
10
99.9642
20
-98.7221
40
0.1524
0
CIRCLE
8
BLACK
10
101.249
20
-97.1321
40
0.1524
0
CIRCLE
8
BLACK
10
113.035
20
-98.9635
40
0.1524
0
CIRCLE
8
BLACK
10
114.813
20
-101.656
40
0.1524
0
CIRCLE
8
BLACK
10
98.5193
20
-88.9965
40
0.1524
0
CIRCLE
8
BLACK
10
100.904
20
-88.6765
40
0.1524
0
CIRCLE
8
BLACK
10
87.1423
20
-95.2094
40
0.1524
0
CIRCLE
8
BLACK
10
120.909
20
-96.6064
40
0.1524
0
CIRCLE
8
BLACK
10
107.508
20
-96.4438
40
0.1524
0
CIRCLE
8
BLACK
10
91.2208
20
-83.3153
40
0.1524
0
CIRCLE
8
BLACK
10
117.139
20
-89.8228
40
0.1524
0
CIRCLE
8
BLACK
10
118.314
20
-88.6478
40
0.1524
0
CIRCLE
8
BLACK
10
109.296
20
-91.5568
40
0.1524
0
CIRCLE
8
BLACK
10
121.732
20
-78.3692
40
0.1524
0
CIRCLE
8
BLACK
10
110.454
20
-83.7895
40
0.1524
0
CIRCLE
8
BLACK
10
103.815
20
-74.6658
40
0.1524
0
CIRCLE
8
BLACK
10
99.3394
20
-74.6506
40
0.1524
0
CIRCLE
8
BLACK
10
99.2098
20
-93.1034
40
0.1524
0
CIRCLE
8
BLACK
10
103.756
20
-77.4592
40
0.1524
0
CIRCLE
8
BLACK
10
102.296
20
-77.1906
40
0.1524
0
CIRCLE
8
BLACK
10
109.698
20
-62.484
40
0.1524
0
CIRCLE
8
BLACK
10
113.284
20
-76.007
40
0.1524
0
CIRCLE
8
BLACK
10
97.2007
20
-90.0532
40
0.2286
0
CIRCLE
8
BLACK
10
101.844
20
-90.043
40
0.2286
  0
ENDSEC
  0
EOF
