G04 #@! TF.GenerationSoftware,KiCad,Pcbnew,(5.0.1)-4*
G04 #@! TF.CreationDate,2018-12-06T20:38:25-05:00*
G04 #@! TF.ProjectId,TrafMasterV1,547261664D617374657256312E6B6963,V1*
G04 #@! TF.SameCoordinates,Original*
G04 #@! TF.FileFunction,Other,Fab,Bot*
%FSLAX46Y46*%
G04 Gerber Fmt 4.6, Leading zero omitted, Abs format (unit mm)*
G04 Created by KiCad (PCBNEW (5.0.1)-4) date 12/6/2018 8:38:25 PM*
%MOMM*%
%LPD*%
G01*
G04 APERTURE LIST*
%ADD10C,0.150000*%
%ADD11C,0.075000*%
%ADD12C,0.100000*%
%ADD13C,0.125000*%
%ADD14C,0.082500*%
G04 APERTURE END LIST*
D10*
G04 #@! TO.C,C14*
X114318760Y-91562560D02*
X112218760Y-91562560D01*
X114318760Y-92912560D02*
X112218760Y-92912560D01*
X114318760Y-92912560D02*
X114318760Y-91562560D01*
X112218760Y-92912560D02*
X112218760Y-91562560D01*
G04 #@! TO.C,U2*
X119176460Y-91185280D02*
X120176460Y-90185280D01*
X115276460Y-91185280D02*
X119176460Y-91185280D01*
X115276460Y-87285280D02*
X115276460Y-91185280D01*
X120176460Y-87285280D02*
X115276460Y-87285280D01*
X120176460Y-90185280D02*
X120176460Y-87285280D01*
G04 #@! TO.C,D1*
X116450500Y-74682500D02*
X116450500Y-77082500D01*
X116010500Y-74422500D02*
X120590500Y-74422500D01*
X116010500Y-77342500D02*
X120590500Y-77342500D01*
X116010500Y-74422500D02*
X116010500Y-77342500D01*
X120590500Y-74422500D02*
X120590500Y-77342500D01*
G04 #@! TO.C,C19*
X113913000Y-78007000D02*
X120113000Y-78007000D01*
X113813000Y-84807000D02*
X120113000Y-84807000D01*
X120113000Y-78007000D02*
X120113000Y-84807000D01*
X113313000Y-78607000D02*
X113313000Y-84307000D01*
X113913000Y-78007000D02*
X113313000Y-78607000D01*
X113313000Y-84307000D02*
X113813000Y-84807000D01*
G04 #@! TO.C,P9*
X109112700Y-59521900D02*
X109112700Y-60321900D01*
X109062700Y-60321900D02*
X108412700Y-60321900D01*
X94112700Y-59521900D02*
X94112700Y-60321900D01*
X94812700Y-60321900D02*
X94162700Y-60321900D01*
X109062700Y-59521900D02*
X94162700Y-59521900D01*
X105612700Y-61621900D02*
X104112700Y-66121900D01*
X105612700Y-61621900D02*
X107112700Y-66121900D01*
X97612700Y-61621900D02*
X99112700Y-66121900D01*
X97612700Y-61621900D02*
X96112700Y-66121900D01*
X94812700Y-73621900D02*
X108412700Y-73621900D01*
X108412700Y-73621900D02*
X108412700Y-59521900D01*
X94812700Y-73621900D02*
X94812700Y-59521900D01*
G04 #@! TO.C,C16*
X120858920Y-83714880D02*
X120858920Y-85814880D01*
X122208920Y-83714880D02*
X122208920Y-85814880D01*
X122208920Y-83714880D02*
X120858920Y-83714880D01*
X122208920Y-85814880D02*
X120858920Y-85814880D01*
G04 #@! TO.C,C13*
X117542600Y-95168080D02*
X119642600Y-95168080D01*
X117542600Y-93818080D02*
X119642600Y-93818080D01*
X117542600Y-93818080D02*
X117542600Y-95168080D01*
X119642600Y-93818080D02*
X119642600Y-95168080D01*
G04 #@! TO.C,C12*
X120777640Y-88574880D02*
X120777640Y-90674880D01*
X122127640Y-88574880D02*
X122127640Y-90674880D01*
X122127640Y-88574880D02*
X120777640Y-88574880D01*
X122127640Y-90674880D02*
X120777640Y-90674880D01*
G04 #@! TO.C,C17*
X113025560Y-86544440D02*
X113025560Y-88644440D01*
X114375560Y-86544440D02*
X114375560Y-88644440D01*
X114375560Y-86544440D02*
X113025560Y-86544440D01*
X114375560Y-88644440D02*
X113025560Y-88644440D01*
G04 #@! TO.C,R9*
X113693920Y-89606760D02*
X111593920Y-89606760D01*
X113693920Y-90956760D02*
X111593920Y-90956760D01*
X113693920Y-90956760D02*
X113693920Y-89606760D01*
X111593920Y-90956760D02*
X111593920Y-89606760D01*
G04 #@! TO.C,L2*
X111319803Y-96149160D02*
G75*
G03X111319803Y-96149160I-282843J0D01*
G01*
X110336960Y-98649160D02*
X110336960Y-93649160D01*
X115336960Y-98649160D02*
X110336960Y-98649160D01*
X115336960Y-93649160D02*
X115336960Y-98649160D01*
X110336960Y-93649160D02*
X115336960Y-93649160D01*
G04 #@! TO.C,R8*
X112257200Y-88558080D02*
X112257200Y-86458080D01*
X110907200Y-88558080D02*
X110907200Y-86458080D01*
X110907200Y-88558080D02*
X112257200Y-88558080D01*
X110907200Y-86458080D02*
X112257200Y-86458080D01*
G04 #@! TO.C,C18*
X115544440Y-101193640D02*
X110444440Y-101193640D01*
X110444440Y-101193640D02*
X110444440Y-99293640D01*
X110444440Y-99293640D02*
X115544440Y-99293640D01*
X115544440Y-99293640D02*
X115544440Y-101193640D01*
G04 #@! TO.C,C15*
X115585080Y-103814920D02*
X110485080Y-103814920D01*
X110485080Y-103814920D02*
X110485080Y-101914920D01*
X110485080Y-101914920D02*
X115585080Y-101914920D01*
X115585080Y-101914920D02*
X115585080Y-103814920D01*
G04 #@! TO.C,C11*
X86350000Y-91836200D02*
X91450000Y-91836200D01*
X91450000Y-91836200D02*
X91450000Y-93736200D01*
X91450000Y-93736200D02*
X86350000Y-93736200D01*
X86350000Y-93736200D02*
X86350000Y-91836200D01*
G04 #@! TO.C,U1*
X90358300Y-80777800D02*
X89358300Y-81777800D01*
X94258300Y-80777800D02*
X90358300Y-80777800D01*
X94258300Y-84677800D02*
X94258300Y-80777800D01*
X89358300Y-84677800D02*
X94258300Y-84677800D01*
X89358300Y-81777800D02*
X89358300Y-84677800D01*
G04 #@! TO.C,C5*
X94403663Y-77404466D02*
X93199152Y-75684246D01*
X93297808Y-78178794D02*
X92093297Y-76458574D01*
X93297808Y-78178794D02*
X94403663Y-77404466D01*
X92093297Y-76458574D02*
X93199152Y-75684246D01*
G04 #@! TO.C,R1*
X103066180Y-97894700D02*
X100966180Y-97894700D01*
X103066180Y-99244700D02*
X100966180Y-99244700D01*
X103066180Y-99244700D02*
X103066180Y-97894700D01*
X100966180Y-99244700D02*
X100966180Y-97894700D01*
G04 #@! TO.C,P1*
X105042800Y-81728000D02*
X98242800Y-81728000D01*
X105042800Y-81728000D02*
X105042800Y-78028000D01*
X105042800Y-78028000D02*
X104442800Y-78028000D01*
X104442800Y-78028000D02*
X104442800Y-78628000D01*
X104442800Y-78628000D02*
X98842800Y-78628000D01*
X98842800Y-78628000D02*
X98842800Y-78128000D01*
X98842800Y-78128000D02*
X98842800Y-78028000D01*
X98842800Y-78028000D02*
X98242800Y-78028000D01*
X98242800Y-78028000D02*
X98242800Y-81728000D01*
G04 #@! TO.C,C1*
X94716180Y-103024700D02*
X94716180Y-97924700D01*
X94716180Y-97924700D02*
X96616180Y-97924700D01*
X96616180Y-97924700D02*
X96616180Y-103024700D01*
X96616180Y-103024700D02*
X94716180Y-103024700D01*
G04 #@! TO.C,C2*
X86883200Y-90307000D02*
X86883200Y-85207000D01*
X86883200Y-85207000D02*
X88783200Y-85207000D01*
X88783200Y-85207000D02*
X88783200Y-90307000D01*
X88783200Y-90307000D02*
X86883200Y-90307000D01*
G04 #@! TO.C,Q1*
X99184120Y-94305360D02*
X99184120Y-95605360D01*
X99184120Y-95605360D02*
X96284120Y-95605360D01*
X96284120Y-94305360D02*
X96284120Y-95605360D01*
X99184120Y-94305360D02*
X96284120Y-94305360D01*
G04 #@! TO.C,Q2*
X102310580Y-103067700D02*
X101010580Y-103067700D01*
X101010580Y-103067700D02*
X101010580Y-100167700D01*
X102310580Y-100167700D02*
X101010580Y-100167700D01*
X102310580Y-103067700D02*
X102310580Y-100167700D01*
G04 #@! TO.C,Q3*
X102754980Y-94897100D02*
X102754980Y-96197100D01*
X102754980Y-96197100D02*
X99854980Y-96197100D01*
X99854980Y-94897100D02*
X99854980Y-96197100D01*
X102754980Y-94897100D02*
X99854980Y-94897100D01*
G04 #@! TO.C,R2*
X93995880Y-94763880D02*
X93995880Y-96863880D01*
X95345880Y-94763880D02*
X95345880Y-96863880D01*
X95345880Y-94763880D02*
X93995880Y-94763880D01*
X95345880Y-96863880D02*
X93995880Y-96863880D01*
G04 #@! TO.C,R3*
X104389180Y-100313700D02*
X104389180Y-102413700D01*
X105739180Y-100313700D02*
X105739180Y-102413700D01*
X105739180Y-100313700D02*
X104389180Y-100313700D01*
X105739180Y-102413700D02*
X104389180Y-102413700D01*
G04 #@! TO.C,P8*
X110626900Y-59893600D02*
X116626900Y-59893600D01*
X116626900Y-60343600D02*
X116626900Y-59893600D01*
X110626900Y-60343600D02*
X116626900Y-60343600D01*
X110626900Y-59893600D02*
X110626900Y-60343600D01*
X114876900Y-61593600D02*
X114626900Y-61343600D01*
X114876900Y-61593600D02*
X115126900Y-61343600D01*
X114876900Y-60593600D02*
X114876900Y-61593600D01*
X112376900Y-61593600D02*
X112626900Y-61343600D01*
X112376900Y-61593600D02*
X112126900Y-61343600D01*
X112376900Y-60593600D02*
X112376900Y-61593600D01*
X110856900Y-59993600D02*
X116396900Y-59993600D01*
X110856900Y-59993600D02*
X110856900Y-66193600D01*
X116396900Y-59993600D02*
X116396900Y-66193600D01*
X110856900Y-66193600D02*
X116396900Y-66193600D01*
G04 #@! TO.C,C6*
X91348400Y-70190400D02*
X86248400Y-70190400D01*
X86248400Y-70190400D02*
X86248400Y-68290400D01*
X86248400Y-68290400D02*
X91348400Y-68290400D01*
X91348400Y-68290400D02*
X91348400Y-70190400D01*
G04 #@! TO.C,C9*
X91348400Y-67574200D02*
X86248400Y-67574200D01*
X86248400Y-67574200D02*
X86248400Y-65674200D01*
X86248400Y-65674200D02*
X91348400Y-65674200D01*
X91348400Y-65674200D02*
X91348400Y-67574200D01*
G04 #@! TO.C,C10*
X99448280Y-97886600D02*
X99448280Y-102986600D01*
X99448280Y-102986600D02*
X97548280Y-102986600D01*
X97548280Y-102986600D02*
X97548280Y-97886600D01*
X97548280Y-97886600D02*
X99448280Y-97886600D01*
G04 #@! TO.C,L1*
X88852643Y-72047600D02*
G75*
G03X88852643Y-72047600I-282843J0D01*
G01*
X86069800Y-71347600D02*
X91069800Y-71347600D01*
X86069800Y-76347600D02*
X86069800Y-71347600D01*
X91069800Y-76347600D02*
X86069800Y-76347600D01*
X91069800Y-71347600D02*
X91069800Y-76347600D01*
G04 #@! TO.C,R4*
X92794800Y-87742400D02*
X90694800Y-87742400D01*
X92794800Y-89092400D02*
X90694800Y-89092400D01*
X92794800Y-89092400D02*
X92794800Y-87742400D01*
X90694800Y-89092400D02*
X90694800Y-87742400D01*
G04 #@! TO.C,R5*
X95264600Y-89492800D02*
X95264600Y-87392800D01*
X93914600Y-89492800D02*
X93914600Y-87392800D01*
X93914600Y-89492800D02*
X95264600Y-89492800D01*
X93914600Y-87392800D02*
X95264600Y-87392800D01*
G04 #@! TO.C,C3*
X88470100Y-84082600D02*
X88470100Y-81982600D01*
X87120100Y-84082600D02*
X87120100Y-81982600D01*
X87120100Y-84082600D02*
X88470100Y-84082600D01*
X87120100Y-81982600D02*
X88470100Y-81982600D01*
G04 #@! TO.C,C4*
X87107400Y-77969400D02*
X87107400Y-80069400D01*
X88457400Y-77969400D02*
X88457400Y-80069400D01*
X88457400Y-77969400D02*
X87107400Y-77969400D01*
X88457400Y-80069400D02*
X87107400Y-80069400D01*
G04 #@! TO.C,C7*
X90805000Y-91200600D02*
X92905000Y-91200600D01*
X90805000Y-89850600D02*
X92905000Y-89850600D01*
X90805000Y-89850600D02*
X90805000Y-91200600D01*
X92905000Y-89850600D02*
X92905000Y-91200600D01*
G04 #@! TO.C,C8*
X96509200Y-83803200D02*
X96509200Y-81703200D01*
X95159200Y-83803200D02*
X95159200Y-81703200D01*
X95159200Y-83803200D02*
X96509200Y-83803200D01*
X95159200Y-81703200D02*
X96509200Y-81703200D01*
G04 #@! TO.C,R6*
X96534600Y-80005900D02*
X96534600Y-77905900D01*
X95184600Y-80005900D02*
X95184600Y-77905900D01*
X95184600Y-80005900D02*
X96534600Y-80005900D01*
X95184600Y-77905900D02*
X96534600Y-77905900D01*
G04 #@! TO.C,F1*
X118650000Y-73250000D02*
X118650000Y-66150000D01*
X118650000Y-66150000D02*
X122200000Y-66150000D01*
X122200000Y-66150000D02*
X122200000Y-73250000D01*
X122200000Y-73250000D02*
X118650000Y-73250000D01*
G04 #@! TO.C,L3*
X114482843Y-72200000D02*
G75*
G03X114482843Y-72200000I-282843J0D01*
G01*
X116700000Y-72900000D02*
X111700000Y-72900000D01*
X116700000Y-67900000D02*
X116700000Y-72900000D01*
X111700000Y-67900000D02*
X116700000Y-67900000D01*
X111700000Y-72900000D02*
X111700000Y-67900000D01*
G04 #@! TO.C,R10*
X90816720Y-56499120D02*
X90816720Y-55149120D01*
X92916720Y-56499120D02*
X92916720Y-55149120D01*
X92916720Y-56499120D02*
X90816720Y-56499120D01*
X92916720Y-55149120D02*
X90816720Y-55149120D01*
G04 #@! TO.C,C20*
X109764200Y-80231560D02*
X109764200Y-82331560D01*
X111114200Y-80231560D02*
X111114200Y-82331560D01*
X111114200Y-80231560D02*
X109764200Y-80231560D01*
X111114200Y-82331560D02*
X109764200Y-82331560D01*
G04 #@! TD*
G04 #@! TO.C,C14*
D11*
X113493760Y-92362560D02*
X113510426Y-92379226D01*
X113560426Y-92395893D01*
X113593760Y-92395893D01*
X113643760Y-92379226D01*
X113677093Y-92345893D01*
X113693760Y-92312560D01*
X113710426Y-92245893D01*
X113710426Y-92195893D01*
X113693760Y-92129226D01*
X113677093Y-92095893D01*
X113643760Y-92062560D01*
X113593760Y-92045893D01*
X113560426Y-92045893D01*
X113510426Y-92062560D01*
X113493760Y-92079226D01*
X113160426Y-92395893D02*
X113360426Y-92395893D01*
X113260426Y-92395893D02*
X113260426Y-92045893D01*
X113293760Y-92095893D01*
X113327093Y-92129226D01*
X113360426Y-92145893D01*
X112860426Y-92162560D02*
X112860426Y-92395893D01*
X112943760Y-92029226D02*
X113027093Y-92279226D01*
X112810426Y-92279226D01*
G04 #@! TO.C,U2*
D10*
X117178840Y-88473375D02*
X117988364Y-88473375D01*
X118083602Y-88520994D01*
X118131221Y-88568613D01*
X118178840Y-88663851D01*
X118178840Y-88854327D01*
X118131221Y-88949565D01*
X118083602Y-88997184D01*
X117988364Y-89044803D01*
X117178840Y-89044803D01*
X117274079Y-89473375D02*
X117226460Y-89520994D01*
X117178840Y-89616232D01*
X117178840Y-89854327D01*
X117226460Y-89949565D01*
X117274079Y-89997184D01*
X117369317Y-90044803D01*
X117464555Y-90044803D01*
X117607412Y-89997184D01*
X118178840Y-89425756D01*
X118178840Y-90044803D01*
G04 #@! TO.C,D1*
D12*
X118619547Y-76058690D02*
X118619547Y-75558690D01*
X118500500Y-75558690D01*
X118429071Y-75582500D01*
X118381452Y-75630119D01*
X118357642Y-75677738D01*
X118333833Y-75772976D01*
X118333833Y-75844404D01*
X118357642Y-75939642D01*
X118381452Y-75987261D01*
X118429071Y-76034880D01*
X118500500Y-76058690D01*
X118619547Y-76058690D01*
X117857642Y-76058690D02*
X118143357Y-76058690D01*
X118000500Y-76058690D02*
X118000500Y-75558690D01*
X118048119Y-75630119D01*
X118095738Y-75677738D01*
X118143357Y-75701547D01*
G04 #@! TO.C,C19*
D10*
X119184428Y-81026047D02*
X119184428Y-81787952D01*
D13*
X116891571Y-81085571D02*
X116915380Y-81061761D01*
X116939190Y-80990333D01*
X116939190Y-80942714D01*
X116915380Y-80871285D01*
X116867761Y-80823666D01*
X116820142Y-80799857D01*
X116724904Y-80776047D01*
X116653476Y-80776047D01*
X116558238Y-80799857D01*
X116510619Y-80823666D01*
X116463000Y-80871285D01*
X116439190Y-80942714D01*
X116439190Y-80990333D01*
X116463000Y-81061761D01*
X116486809Y-81085571D01*
X116939190Y-81561761D02*
X116939190Y-81276047D01*
X116939190Y-81418904D02*
X116439190Y-81418904D01*
X116510619Y-81371285D01*
X116558238Y-81323666D01*
X116582047Y-81276047D01*
X116939190Y-81799857D02*
X116939190Y-81895095D01*
X116915380Y-81942714D01*
X116891571Y-81966523D01*
X116820142Y-82014142D01*
X116724904Y-82037952D01*
X116534428Y-82037952D01*
X116486809Y-82014142D01*
X116463000Y-81990333D01*
X116439190Y-81942714D01*
X116439190Y-81847476D01*
X116463000Y-81799857D01*
X116486809Y-81776047D01*
X116534428Y-81752238D01*
X116653476Y-81752238D01*
X116701095Y-81776047D01*
X116724904Y-81799857D01*
X116748714Y-81847476D01*
X116748714Y-81942714D01*
X116724904Y-81990333D01*
X116701095Y-82014142D01*
X116653476Y-82037952D01*
D10*
X114084428Y-81026047D02*
X114084428Y-81787952D01*
X114465380Y-81407000D02*
X113703476Y-81407000D01*
G04 #@! TO.C,P9*
X102350795Y-67074280D02*
X102350795Y-66074280D01*
X101969842Y-66074280D01*
X101874604Y-66121900D01*
X101826985Y-66169519D01*
X101779366Y-66264757D01*
X101779366Y-66407614D01*
X101826985Y-66502852D01*
X101874604Y-66550471D01*
X101969842Y-66598090D01*
X102350795Y-66598090D01*
X101303176Y-67074280D02*
X101112700Y-67074280D01*
X101017461Y-67026661D01*
X100969842Y-66979042D01*
X100874604Y-66836185D01*
X100826985Y-66645709D01*
X100826985Y-66264757D01*
X100874604Y-66169519D01*
X100922223Y-66121900D01*
X101017461Y-66074280D01*
X101207938Y-66074280D01*
X101303176Y-66121900D01*
X101350795Y-66169519D01*
X101398414Y-66264757D01*
X101398414Y-66502852D01*
X101350795Y-66598090D01*
X101303176Y-66645709D01*
X101207938Y-66693328D01*
X101017461Y-66693328D01*
X100922223Y-66645709D01*
X100874604Y-66598090D01*
X100826985Y-66502852D01*
G04 #@! TO.C,C16*
D11*
X121658920Y-84539880D02*
X121675586Y-84523213D01*
X121692253Y-84473213D01*
X121692253Y-84439880D01*
X121675586Y-84389880D01*
X121642253Y-84356546D01*
X121608920Y-84339880D01*
X121542253Y-84323213D01*
X121492253Y-84323213D01*
X121425586Y-84339880D01*
X121392253Y-84356546D01*
X121358920Y-84389880D01*
X121342253Y-84439880D01*
X121342253Y-84473213D01*
X121358920Y-84523213D01*
X121375586Y-84539880D01*
X121692253Y-84873213D02*
X121692253Y-84673213D01*
X121692253Y-84773213D02*
X121342253Y-84773213D01*
X121392253Y-84739880D01*
X121425586Y-84706546D01*
X121442253Y-84673213D01*
X121342253Y-85173213D02*
X121342253Y-85106546D01*
X121358920Y-85073213D01*
X121375586Y-85056546D01*
X121425586Y-85023213D01*
X121492253Y-85006546D01*
X121625586Y-85006546D01*
X121658920Y-85023213D01*
X121675586Y-85039880D01*
X121692253Y-85073213D01*
X121692253Y-85139880D01*
X121675586Y-85173213D01*
X121658920Y-85189880D01*
X121625586Y-85206546D01*
X121542253Y-85206546D01*
X121508920Y-85189880D01*
X121492253Y-85173213D01*
X121475586Y-85139880D01*
X121475586Y-85073213D01*
X121492253Y-85039880D01*
X121508920Y-85023213D01*
X121542253Y-85006546D01*
G04 #@! TO.C,C13*
X118817600Y-94618080D02*
X118834266Y-94634746D01*
X118884266Y-94651413D01*
X118917600Y-94651413D01*
X118967600Y-94634746D01*
X119000933Y-94601413D01*
X119017600Y-94568080D01*
X119034266Y-94501413D01*
X119034266Y-94451413D01*
X119017600Y-94384746D01*
X119000933Y-94351413D01*
X118967600Y-94318080D01*
X118917600Y-94301413D01*
X118884266Y-94301413D01*
X118834266Y-94318080D01*
X118817600Y-94334746D01*
X118484266Y-94651413D02*
X118684266Y-94651413D01*
X118584266Y-94651413D02*
X118584266Y-94301413D01*
X118617600Y-94351413D01*
X118650933Y-94384746D01*
X118684266Y-94401413D01*
X118367600Y-94301413D02*
X118150933Y-94301413D01*
X118267600Y-94434746D01*
X118217600Y-94434746D01*
X118184266Y-94451413D01*
X118167600Y-94468080D01*
X118150933Y-94501413D01*
X118150933Y-94584746D01*
X118167600Y-94618080D01*
X118184266Y-94634746D01*
X118217600Y-94651413D01*
X118317600Y-94651413D01*
X118350933Y-94634746D01*
X118367600Y-94618080D01*
G04 #@! TO.C,C12*
X121577640Y-89399880D02*
X121594306Y-89383213D01*
X121610973Y-89333213D01*
X121610973Y-89299880D01*
X121594306Y-89249880D01*
X121560973Y-89216546D01*
X121527640Y-89199880D01*
X121460973Y-89183213D01*
X121410973Y-89183213D01*
X121344306Y-89199880D01*
X121310973Y-89216546D01*
X121277640Y-89249880D01*
X121260973Y-89299880D01*
X121260973Y-89333213D01*
X121277640Y-89383213D01*
X121294306Y-89399880D01*
X121610973Y-89733213D02*
X121610973Y-89533213D01*
X121610973Y-89633213D02*
X121260973Y-89633213D01*
X121310973Y-89599880D01*
X121344306Y-89566546D01*
X121360973Y-89533213D01*
X121294306Y-89866546D02*
X121277640Y-89883213D01*
X121260973Y-89916546D01*
X121260973Y-89999880D01*
X121277640Y-90033213D01*
X121294306Y-90049880D01*
X121327640Y-90066546D01*
X121360973Y-90066546D01*
X121410973Y-90049880D01*
X121610973Y-89849880D01*
X121610973Y-90066546D01*
G04 #@! TO.C,C17*
X113825560Y-87369440D02*
X113842226Y-87352773D01*
X113858893Y-87302773D01*
X113858893Y-87269440D01*
X113842226Y-87219440D01*
X113808893Y-87186106D01*
X113775560Y-87169440D01*
X113708893Y-87152773D01*
X113658893Y-87152773D01*
X113592226Y-87169440D01*
X113558893Y-87186106D01*
X113525560Y-87219440D01*
X113508893Y-87269440D01*
X113508893Y-87302773D01*
X113525560Y-87352773D01*
X113542226Y-87369440D01*
X113858893Y-87702773D02*
X113858893Y-87502773D01*
X113858893Y-87602773D02*
X113508893Y-87602773D01*
X113558893Y-87569440D01*
X113592226Y-87536106D01*
X113608893Y-87502773D01*
X113508893Y-87819440D02*
X113508893Y-88052773D01*
X113858893Y-87902773D01*
G04 #@! TO.C,R9*
X112702253Y-90440093D02*
X112818920Y-90273426D01*
X112902253Y-90440093D02*
X112902253Y-90090093D01*
X112768920Y-90090093D01*
X112735586Y-90106760D01*
X112718920Y-90123426D01*
X112702253Y-90156760D01*
X112702253Y-90206760D01*
X112718920Y-90240093D01*
X112735586Y-90256760D01*
X112768920Y-90273426D01*
X112902253Y-90273426D01*
X112535586Y-90440093D02*
X112468920Y-90440093D01*
X112435586Y-90423426D01*
X112418920Y-90406760D01*
X112385586Y-90356760D01*
X112368920Y-90290093D01*
X112368920Y-90156760D01*
X112385586Y-90123426D01*
X112402253Y-90106760D01*
X112435586Y-90090093D01*
X112502253Y-90090093D01*
X112535586Y-90106760D01*
X112552253Y-90123426D01*
X112568920Y-90156760D01*
X112568920Y-90240093D01*
X112552253Y-90273426D01*
X112535586Y-90290093D01*
X112502253Y-90306760D01*
X112435586Y-90306760D01*
X112402253Y-90290093D01*
X112385586Y-90273426D01*
X112368920Y-90240093D01*
G04 #@! TO.C,L2*
D12*
X113017912Y-96082493D02*
X113017912Y-95892017D01*
X112617912Y-95892017D01*
X112656007Y-96196779D02*
X112636960Y-96215826D01*
X112617912Y-96253921D01*
X112617912Y-96349160D01*
X112636960Y-96387255D01*
X112656007Y-96406302D01*
X112694102Y-96425350D01*
X112732198Y-96425350D01*
X112789340Y-96406302D01*
X113017912Y-96177731D01*
X113017912Y-96425350D01*
G04 #@! TO.C,R8*
D11*
X111423866Y-87566413D02*
X111590533Y-87683080D01*
X111423866Y-87766413D02*
X111773866Y-87766413D01*
X111773866Y-87633080D01*
X111757200Y-87599746D01*
X111740533Y-87583080D01*
X111707200Y-87566413D01*
X111657200Y-87566413D01*
X111623866Y-87583080D01*
X111607200Y-87599746D01*
X111590533Y-87633080D01*
X111590533Y-87766413D01*
X111623866Y-87366413D02*
X111640533Y-87399746D01*
X111657200Y-87416413D01*
X111690533Y-87433080D01*
X111707200Y-87433080D01*
X111740533Y-87416413D01*
X111757200Y-87399746D01*
X111773866Y-87366413D01*
X111773866Y-87299746D01*
X111757200Y-87266413D01*
X111740533Y-87249746D01*
X111707200Y-87233080D01*
X111690533Y-87233080D01*
X111657200Y-87249746D01*
X111640533Y-87266413D01*
X111623866Y-87299746D01*
X111623866Y-87366413D01*
X111607200Y-87399746D01*
X111590533Y-87416413D01*
X111557200Y-87433080D01*
X111490533Y-87433080D01*
X111457200Y-87416413D01*
X111440533Y-87399746D01*
X111423866Y-87366413D01*
X111423866Y-87299746D01*
X111440533Y-87266413D01*
X111457200Y-87249746D01*
X111490533Y-87233080D01*
X111557200Y-87233080D01*
X111590533Y-87249746D01*
X111607200Y-87266413D01*
X111623866Y-87299746D01*
G04 #@! TO.C,C18*
D14*
X113286940Y-100406140D02*
X113308606Y-100427806D01*
X113373606Y-100449473D01*
X113416940Y-100449473D01*
X113481940Y-100427806D01*
X113525273Y-100384473D01*
X113546940Y-100341140D01*
X113568606Y-100254473D01*
X113568606Y-100189473D01*
X113546940Y-100102806D01*
X113525273Y-100059473D01*
X113481940Y-100016140D01*
X113416940Y-99994473D01*
X113373606Y-99994473D01*
X113308606Y-100016140D01*
X113286940Y-100037806D01*
X112853606Y-100449473D02*
X113113606Y-100449473D01*
X112983606Y-100449473D02*
X112983606Y-99994473D01*
X113026940Y-100059473D01*
X113070273Y-100102806D01*
X113113606Y-100124473D01*
X112593606Y-100189473D02*
X112636940Y-100167806D01*
X112658606Y-100146140D01*
X112680273Y-100102806D01*
X112680273Y-100081140D01*
X112658606Y-100037806D01*
X112636940Y-100016140D01*
X112593606Y-99994473D01*
X112506940Y-99994473D01*
X112463606Y-100016140D01*
X112441940Y-100037806D01*
X112420273Y-100081140D01*
X112420273Y-100102806D01*
X112441940Y-100146140D01*
X112463606Y-100167806D01*
X112506940Y-100189473D01*
X112593606Y-100189473D01*
X112636940Y-100211140D01*
X112658606Y-100232806D01*
X112680273Y-100276140D01*
X112680273Y-100362806D01*
X112658606Y-100406140D01*
X112636940Y-100427806D01*
X112593606Y-100449473D01*
X112506940Y-100449473D01*
X112463606Y-100427806D01*
X112441940Y-100406140D01*
X112420273Y-100362806D01*
X112420273Y-100276140D01*
X112441940Y-100232806D01*
X112463606Y-100211140D01*
X112506940Y-100189473D01*
G04 #@! TO.C,C15*
X113327580Y-103027420D02*
X113349246Y-103049086D01*
X113414246Y-103070753D01*
X113457580Y-103070753D01*
X113522580Y-103049086D01*
X113565913Y-103005753D01*
X113587580Y-102962420D01*
X113609246Y-102875753D01*
X113609246Y-102810753D01*
X113587580Y-102724086D01*
X113565913Y-102680753D01*
X113522580Y-102637420D01*
X113457580Y-102615753D01*
X113414246Y-102615753D01*
X113349246Y-102637420D01*
X113327580Y-102659086D01*
X112894246Y-103070753D02*
X113154246Y-103070753D01*
X113024246Y-103070753D02*
X113024246Y-102615753D01*
X113067580Y-102680753D01*
X113110913Y-102724086D01*
X113154246Y-102745753D01*
X112482580Y-102615753D02*
X112699246Y-102615753D01*
X112720913Y-102832420D01*
X112699246Y-102810753D01*
X112655913Y-102789086D01*
X112547580Y-102789086D01*
X112504246Y-102810753D01*
X112482580Y-102832420D01*
X112460913Y-102875753D01*
X112460913Y-102984086D01*
X112482580Y-103027420D01*
X112504246Y-103049086D01*
X112547580Y-103070753D01*
X112655913Y-103070753D01*
X112699246Y-103049086D01*
X112720913Y-103027420D01*
G04 #@! TO.C,C11*
X89192500Y-92948700D02*
X89214166Y-92970366D01*
X89279166Y-92992033D01*
X89322500Y-92992033D01*
X89387500Y-92970366D01*
X89430833Y-92927033D01*
X89452500Y-92883700D01*
X89474166Y-92797033D01*
X89474166Y-92732033D01*
X89452500Y-92645366D01*
X89430833Y-92602033D01*
X89387500Y-92558700D01*
X89322500Y-92537033D01*
X89279166Y-92537033D01*
X89214166Y-92558700D01*
X89192500Y-92580366D01*
X88759166Y-92992033D02*
X89019166Y-92992033D01*
X88889166Y-92992033D02*
X88889166Y-92537033D01*
X88932500Y-92602033D01*
X88975833Y-92645366D01*
X89019166Y-92667033D01*
X88325833Y-92992033D02*
X88585833Y-92992033D01*
X88455833Y-92992033D02*
X88455833Y-92537033D01*
X88499166Y-92602033D01*
X88542500Y-92645366D01*
X88585833Y-92667033D01*
G04 #@! TO.C,U1*
D10*
X91260680Y-81965895D02*
X92070204Y-81965895D01*
X92165442Y-82013514D01*
X92213061Y-82061133D01*
X92260680Y-82156371D01*
X92260680Y-82346847D01*
X92213061Y-82442085D01*
X92165442Y-82489704D01*
X92070204Y-82537323D01*
X91260680Y-82537323D01*
X92260680Y-83537323D02*
X92260680Y-82965895D01*
X92260680Y-83251609D02*
X91260680Y-83251609D01*
X91403538Y-83156371D01*
X91498776Y-83061133D01*
X91546395Y-82965895D01*
G04 #@! TO.C,C5*
D11*
X93179544Y-77051000D02*
X93175451Y-77074213D01*
X93190477Y-77124730D01*
X93209597Y-77152035D01*
X93251928Y-77183433D01*
X93298352Y-77191619D01*
X93335217Y-77186152D01*
X93399387Y-77161566D01*
X93440344Y-77132887D01*
X93485395Y-77080996D01*
X93503140Y-77048225D01*
X93511326Y-77001800D01*
X93496300Y-76951283D01*
X93477181Y-76923978D01*
X93434849Y-76892580D01*
X93411637Y-76888487D01*
X93257310Y-76609970D02*
X93352906Y-76746495D01*
X93225940Y-76855744D01*
X93230033Y-76832532D01*
X93224566Y-76795667D01*
X93176768Y-76727404D01*
X93143997Y-76709659D01*
X93120784Y-76705566D01*
X93083920Y-76711032D01*
X93015657Y-76758831D01*
X92997912Y-76791602D01*
X92993819Y-76814814D01*
X92999285Y-76851679D01*
X93047083Y-76919942D01*
X93079855Y-76937687D01*
X93103067Y-76941780D01*
G04 #@! TO.C,R1*
X102074513Y-98728033D02*
X102191180Y-98561366D01*
X102274513Y-98728033D02*
X102274513Y-98378033D01*
X102141180Y-98378033D01*
X102107846Y-98394700D01*
X102091180Y-98411366D01*
X102074513Y-98444700D01*
X102074513Y-98494700D01*
X102091180Y-98528033D01*
X102107846Y-98544700D01*
X102141180Y-98561366D01*
X102274513Y-98561366D01*
X101741180Y-98728033D02*
X101941180Y-98728033D01*
X101841180Y-98728033D02*
X101841180Y-98378033D01*
X101874513Y-98428033D01*
X101907846Y-98461366D01*
X101941180Y-98478033D01*
G04 #@! TO.C,P1*
D10*
X102380895Y-80430380D02*
X102380895Y-79430380D01*
X101999942Y-79430380D01*
X101904704Y-79478000D01*
X101857085Y-79525619D01*
X101809466Y-79620857D01*
X101809466Y-79763714D01*
X101857085Y-79858952D01*
X101904704Y-79906571D01*
X101999942Y-79954190D01*
X102380895Y-79954190D01*
X100857085Y-80430380D02*
X101428514Y-80430380D01*
X101142800Y-80430380D02*
X101142800Y-79430380D01*
X101238038Y-79573238D01*
X101333276Y-79668476D01*
X101428514Y-79716095D01*
G04 #@! TO.C,C1*
D14*
X95503680Y-100550533D02*
X95482013Y-100572200D01*
X95460346Y-100637200D01*
X95460346Y-100680533D01*
X95482013Y-100745533D01*
X95525346Y-100788866D01*
X95568680Y-100810533D01*
X95655346Y-100832200D01*
X95720346Y-100832200D01*
X95807013Y-100810533D01*
X95850346Y-100788866D01*
X95893680Y-100745533D01*
X95915346Y-100680533D01*
X95915346Y-100637200D01*
X95893680Y-100572200D01*
X95872013Y-100550533D01*
X95460346Y-100117200D02*
X95460346Y-100377200D01*
X95460346Y-100247200D02*
X95915346Y-100247200D01*
X95850346Y-100290533D01*
X95807013Y-100333866D01*
X95785346Y-100377200D01*
G04 #@! TO.C,C2*
X87670700Y-87832833D02*
X87649033Y-87854500D01*
X87627366Y-87919500D01*
X87627366Y-87962833D01*
X87649033Y-88027833D01*
X87692366Y-88071166D01*
X87735700Y-88092833D01*
X87822366Y-88114500D01*
X87887366Y-88114500D01*
X87974033Y-88092833D01*
X88017366Y-88071166D01*
X88060700Y-88027833D01*
X88082366Y-87962833D01*
X88082366Y-87919500D01*
X88060700Y-87854500D01*
X88039033Y-87832833D01*
X88039033Y-87659500D02*
X88060700Y-87637833D01*
X88082366Y-87594500D01*
X88082366Y-87486166D01*
X88060700Y-87442833D01*
X88039033Y-87421166D01*
X87995700Y-87399500D01*
X87952366Y-87399500D01*
X87887366Y-87421166D01*
X87627366Y-87681166D01*
X87627366Y-87399500D01*
G04 #@! TO.C,Q1*
D12*
X97781739Y-95229169D02*
X97829358Y-95205360D01*
X97876977Y-95157740D01*
X97948405Y-95086312D01*
X97996024Y-95062502D01*
X98043643Y-95062502D01*
X98019834Y-95181550D02*
X98067453Y-95157740D01*
X98115072Y-95110121D01*
X98138881Y-95014883D01*
X98138881Y-94848217D01*
X98115072Y-94752979D01*
X98067453Y-94705360D01*
X98019834Y-94681550D01*
X97924596Y-94681550D01*
X97876977Y-94705360D01*
X97829358Y-94752979D01*
X97805548Y-94848217D01*
X97805548Y-95014883D01*
X97829358Y-95110121D01*
X97876977Y-95157740D01*
X97924596Y-95181550D01*
X98019834Y-95181550D01*
X97329358Y-95181550D02*
X97615072Y-95181550D01*
X97472215Y-95181550D02*
X97472215Y-94681550D01*
X97519834Y-94752979D01*
X97567453Y-94800598D01*
X97615072Y-94824407D01*
G04 #@! TO.C,Q2*
X101934389Y-101570080D02*
X101910580Y-101522461D01*
X101862960Y-101474842D01*
X101791532Y-101403414D01*
X101767722Y-101355795D01*
X101767722Y-101308176D01*
X101886770Y-101331985D02*
X101862960Y-101284366D01*
X101815341Y-101236747D01*
X101720103Y-101212938D01*
X101553437Y-101212938D01*
X101458199Y-101236747D01*
X101410580Y-101284366D01*
X101386770Y-101331985D01*
X101386770Y-101427223D01*
X101410580Y-101474842D01*
X101458199Y-101522461D01*
X101553437Y-101546271D01*
X101720103Y-101546271D01*
X101815341Y-101522461D01*
X101862960Y-101474842D01*
X101886770Y-101427223D01*
X101886770Y-101331985D01*
X101434389Y-101736747D02*
X101410580Y-101760557D01*
X101386770Y-101808176D01*
X101386770Y-101927223D01*
X101410580Y-101974842D01*
X101434389Y-101998652D01*
X101482008Y-102022461D01*
X101529627Y-102022461D01*
X101601056Y-101998652D01*
X101886770Y-101712938D01*
X101886770Y-102022461D01*
G04 #@! TO.C,Q3*
X101352599Y-95820909D02*
X101400218Y-95797100D01*
X101447837Y-95749480D01*
X101519265Y-95678052D01*
X101566884Y-95654242D01*
X101614503Y-95654242D01*
X101590694Y-95773290D02*
X101638313Y-95749480D01*
X101685932Y-95701861D01*
X101709741Y-95606623D01*
X101709741Y-95439957D01*
X101685932Y-95344719D01*
X101638313Y-95297100D01*
X101590694Y-95273290D01*
X101495456Y-95273290D01*
X101447837Y-95297100D01*
X101400218Y-95344719D01*
X101376408Y-95439957D01*
X101376408Y-95606623D01*
X101400218Y-95701861D01*
X101447837Y-95749480D01*
X101495456Y-95773290D01*
X101590694Y-95773290D01*
X101209741Y-95273290D02*
X100900218Y-95273290D01*
X101066884Y-95463766D01*
X100995456Y-95463766D01*
X100947837Y-95487576D01*
X100924027Y-95511385D01*
X100900218Y-95559004D01*
X100900218Y-95678052D01*
X100924027Y-95725671D01*
X100947837Y-95749480D01*
X100995456Y-95773290D01*
X101138313Y-95773290D01*
X101185932Y-95749480D01*
X101209741Y-95725671D01*
G04 #@! TO.C,R2*
D11*
X94829213Y-95755546D02*
X94662546Y-95638880D01*
X94829213Y-95555546D02*
X94479213Y-95555546D01*
X94479213Y-95688880D01*
X94495880Y-95722213D01*
X94512546Y-95738880D01*
X94545880Y-95755546D01*
X94595880Y-95755546D01*
X94629213Y-95738880D01*
X94645880Y-95722213D01*
X94662546Y-95688880D01*
X94662546Y-95555546D01*
X94512546Y-95888880D02*
X94495880Y-95905546D01*
X94479213Y-95938880D01*
X94479213Y-96022213D01*
X94495880Y-96055546D01*
X94512546Y-96072213D01*
X94545880Y-96088880D01*
X94579213Y-96088880D01*
X94629213Y-96072213D01*
X94829213Y-95872213D01*
X94829213Y-96088880D01*
G04 #@! TO.C,R3*
X105222513Y-101305366D02*
X105055846Y-101188700D01*
X105222513Y-101105366D02*
X104872513Y-101105366D01*
X104872513Y-101238700D01*
X104889180Y-101272033D01*
X104905846Y-101288700D01*
X104939180Y-101305366D01*
X104989180Y-101305366D01*
X105022513Y-101288700D01*
X105039180Y-101272033D01*
X105055846Y-101238700D01*
X105055846Y-101105366D01*
X104872513Y-101422033D02*
X104872513Y-101638700D01*
X105005846Y-101522033D01*
X105005846Y-101572033D01*
X105022513Y-101605366D01*
X105039180Y-101622033D01*
X105072513Y-101638700D01*
X105155846Y-101638700D01*
X105189180Y-101622033D01*
X105205846Y-101605366D01*
X105222513Y-101572033D01*
X105222513Y-101472033D01*
X105205846Y-101438700D01*
X105189180Y-101422033D01*
G04 #@! TO.C,C6*
D14*
X88874233Y-69402900D02*
X88895900Y-69424566D01*
X88960900Y-69446233D01*
X89004233Y-69446233D01*
X89069233Y-69424566D01*
X89112566Y-69381233D01*
X89134233Y-69337900D01*
X89155900Y-69251233D01*
X89155900Y-69186233D01*
X89134233Y-69099566D01*
X89112566Y-69056233D01*
X89069233Y-69012900D01*
X89004233Y-68991233D01*
X88960900Y-68991233D01*
X88895900Y-69012900D01*
X88874233Y-69034566D01*
X88484233Y-68991233D02*
X88570900Y-68991233D01*
X88614233Y-69012900D01*
X88635900Y-69034566D01*
X88679233Y-69099566D01*
X88700900Y-69186233D01*
X88700900Y-69359566D01*
X88679233Y-69402900D01*
X88657566Y-69424566D01*
X88614233Y-69446233D01*
X88527566Y-69446233D01*
X88484233Y-69424566D01*
X88462566Y-69402900D01*
X88440900Y-69359566D01*
X88440900Y-69251233D01*
X88462566Y-69207900D01*
X88484233Y-69186233D01*
X88527566Y-69164566D01*
X88614233Y-69164566D01*
X88657566Y-69186233D01*
X88679233Y-69207900D01*
X88700900Y-69251233D01*
G04 #@! TO.C,C9*
X88874233Y-66786700D02*
X88895900Y-66808366D01*
X88960900Y-66830033D01*
X89004233Y-66830033D01*
X89069233Y-66808366D01*
X89112566Y-66765033D01*
X89134233Y-66721700D01*
X89155900Y-66635033D01*
X89155900Y-66570033D01*
X89134233Y-66483366D01*
X89112566Y-66440033D01*
X89069233Y-66396700D01*
X89004233Y-66375033D01*
X88960900Y-66375033D01*
X88895900Y-66396700D01*
X88874233Y-66418366D01*
X88657566Y-66830033D02*
X88570900Y-66830033D01*
X88527566Y-66808366D01*
X88505900Y-66786700D01*
X88462566Y-66721700D01*
X88440900Y-66635033D01*
X88440900Y-66461700D01*
X88462566Y-66418366D01*
X88484233Y-66396700D01*
X88527566Y-66375033D01*
X88614233Y-66375033D01*
X88657566Y-66396700D01*
X88679233Y-66418366D01*
X88700900Y-66461700D01*
X88700900Y-66570033D01*
X88679233Y-66613366D01*
X88657566Y-66635033D01*
X88614233Y-66656700D01*
X88527566Y-66656700D01*
X88484233Y-66635033D01*
X88462566Y-66613366D01*
X88440900Y-66570033D01*
G04 #@! TO.C,C10*
X98660780Y-100144100D02*
X98682446Y-100122433D01*
X98704113Y-100057433D01*
X98704113Y-100014100D01*
X98682446Y-99949100D01*
X98639113Y-99905766D01*
X98595780Y-99884100D01*
X98509113Y-99862433D01*
X98444113Y-99862433D01*
X98357446Y-99884100D01*
X98314113Y-99905766D01*
X98270780Y-99949100D01*
X98249113Y-100014100D01*
X98249113Y-100057433D01*
X98270780Y-100122433D01*
X98292446Y-100144100D01*
X98704113Y-100577433D02*
X98704113Y-100317433D01*
X98704113Y-100447433D02*
X98249113Y-100447433D01*
X98314113Y-100404100D01*
X98357446Y-100360766D01*
X98379113Y-100317433D01*
X98249113Y-100859100D02*
X98249113Y-100902433D01*
X98270780Y-100945766D01*
X98292446Y-100967433D01*
X98335780Y-100989100D01*
X98422446Y-101010766D01*
X98530780Y-101010766D01*
X98617446Y-100989100D01*
X98660780Y-100967433D01*
X98682446Y-100945766D01*
X98704113Y-100902433D01*
X98704113Y-100859100D01*
X98682446Y-100815766D01*
X98660780Y-100794100D01*
X98617446Y-100772433D01*
X98530780Y-100750766D01*
X98422446Y-100750766D01*
X98335780Y-100772433D01*
X98292446Y-100794100D01*
X98270780Y-100815766D01*
X98249113Y-100859100D01*
G04 #@! TO.C,L1*
D12*
X88636466Y-74028552D02*
X88826942Y-74028552D01*
X88826942Y-73628552D01*
X88293609Y-74028552D02*
X88522180Y-74028552D01*
X88407895Y-74028552D02*
X88407895Y-73628552D01*
X88445990Y-73685695D01*
X88484085Y-73723790D01*
X88522180Y-73742838D01*
G04 #@! TO.C,R4*
D11*
X91803133Y-88575733D02*
X91919800Y-88409066D01*
X92003133Y-88575733D02*
X92003133Y-88225733D01*
X91869800Y-88225733D01*
X91836466Y-88242400D01*
X91819800Y-88259066D01*
X91803133Y-88292400D01*
X91803133Y-88342400D01*
X91819800Y-88375733D01*
X91836466Y-88392400D01*
X91869800Y-88409066D01*
X92003133Y-88409066D01*
X91503133Y-88342400D02*
X91503133Y-88575733D01*
X91586466Y-88209066D02*
X91669800Y-88459066D01*
X91453133Y-88459066D01*
G04 #@! TO.C,R5*
X94431266Y-88501133D02*
X94597933Y-88617800D01*
X94431266Y-88701133D02*
X94781266Y-88701133D01*
X94781266Y-88567800D01*
X94764600Y-88534466D01*
X94747933Y-88517800D01*
X94714600Y-88501133D01*
X94664600Y-88501133D01*
X94631266Y-88517800D01*
X94614600Y-88534466D01*
X94597933Y-88567800D01*
X94597933Y-88701133D01*
X94781266Y-88184466D02*
X94781266Y-88351133D01*
X94614600Y-88367800D01*
X94631266Y-88351133D01*
X94647933Y-88317800D01*
X94647933Y-88234466D01*
X94631266Y-88201133D01*
X94614600Y-88184466D01*
X94581266Y-88167800D01*
X94497933Y-88167800D01*
X94464600Y-88184466D01*
X94447933Y-88201133D01*
X94431266Y-88234466D01*
X94431266Y-88317800D01*
X94447933Y-88351133D01*
X94464600Y-88367800D01*
G04 #@! TO.C,C3*
X87670100Y-83090933D02*
X87653433Y-83107600D01*
X87636766Y-83157600D01*
X87636766Y-83190933D01*
X87653433Y-83240933D01*
X87686766Y-83274266D01*
X87720100Y-83290933D01*
X87786766Y-83307600D01*
X87836766Y-83307600D01*
X87903433Y-83290933D01*
X87936766Y-83274266D01*
X87970100Y-83240933D01*
X87986766Y-83190933D01*
X87986766Y-83157600D01*
X87970100Y-83107600D01*
X87953433Y-83090933D01*
X87986766Y-82974266D02*
X87986766Y-82757600D01*
X87853433Y-82874266D01*
X87853433Y-82824266D01*
X87836766Y-82790933D01*
X87820100Y-82774266D01*
X87786766Y-82757600D01*
X87703433Y-82757600D01*
X87670100Y-82774266D01*
X87653433Y-82790933D01*
X87636766Y-82824266D01*
X87636766Y-82924266D01*
X87653433Y-82957600D01*
X87670100Y-82974266D01*
G04 #@! TO.C,C4*
X87907400Y-78961066D02*
X87924066Y-78944400D01*
X87940733Y-78894400D01*
X87940733Y-78861066D01*
X87924066Y-78811066D01*
X87890733Y-78777733D01*
X87857400Y-78761066D01*
X87790733Y-78744400D01*
X87740733Y-78744400D01*
X87674066Y-78761066D01*
X87640733Y-78777733D01*
X87607400Y-78811066D01*
X87590733Y-78861066D01*
X87590733Y-78894400D01*
X87607400Y-78944400D01*
X87624066Y-78961066D01*
X87707400Y-79261066D02*
X87940733Y-79261066D01*
X87574066Y-79177733D02*
X87824066Y-79094400D01*
X87824066Y-79311066D01*
G04 #@! TO.C,C7*
X91913333Y-90650600D02*
X91930000Y-90667266D01*
X91980000Y-90683933D01*
X92013333Y-90683933D01*
X92063333Y-90667266D01*
X92096666Y-90633933D01*
X92113333Y-90600600D01*
X92130000Y-90533933D01*
X92130000Y-90483933D01*
X92113333Y-90417266D01*
X92096666Y-90383933D01*
X92063333Y-90350600D01*
X92013333Y-90333933D01*
X91980000Y-90333933D01*
X91930000Y-90350600D01*
X91913333Y-90367266D01*
X91796666Y-90333933D02*
X91563333Y-90333933D01*
X91713333Y-90683933D01*
G04 #@! TO.C,C8*
X95709200Y-82811533D02*
X95692533Y-82828200D01*
X95675866Y-82878200D01*
X95675866Y-82911533D01*
X95692533Y-82961533D01*
X95725866Y-82994866D01*
X95759200Y-83011533D01*
X95825866Y-83028200D01*
X95875866Y-83028200D01*
X95942533Y-83011533D01*
X95975866Y-82994866D01*
X96009200Y-82961533D01*
X96025866Y-82911533D01*
X96025866Y-82878200D01*
X96009200Y-82828200D01*
X95992533Y-82811533D01*
X95875866Y-82611533D02*
X95892533Y-82644866D01*
X95909200Y-82661533D01*
X95942533Y-82678200D01*
X95959200Y-82678200D01*
X95992533Y-82661533D01*
X96009200Y-82644866D01*
X96025866Y-82611533D01*
X96025866Y-82544866D01*
X96009200Y-82511533D01*
X95992533Y-82494866D01*
X95959200Y-82478200D01*
X95942533Y-82478200D01*
X95909200Y-82494866D01*
X95892533Y-82511533D01*
X95875866Y-82544866D01*
X95875866Y-82611533D01*
X95859200Y-82644866D01*
X95842533Y-82661533D01*
X95809200Y-82678200D01*
X95742533Y-82678200D01*
X95709200Y-82661533D01*
X95692533Y-82644866D01*
X95675866Y-82611533D01*
X95675866Y-82544866D01*
X95692533Y-82511533D01*
X95709200Y-82494866D01*
X95742533Y-82478200D01*
X95809200Y-82478200D01*
X95842533Y-82494866D01*
X95859200Y-82511533D01*
X95875866Y-82544866D01*
G04 #@! TO.C,R6*
X95701266Y-79014233D02*
X95867933Y-79130900D01*
X95701266Y-79214233D02*
X96051266Y-79214233D01*
X96051266Y-79080900D01*
X96034600Y-79047566D01*
X96017933Y-79030900D01*
X95984600Y-79014233D01*
X95934600Y-79014233D01*
X95901266Y-79030900D01*
X95884600Y-79047566D01*
X95867933Y-79080900D01*
X95867933Y-79214233D01*
X96051266Y-78714233D02*
X96051266Y-78780900D01*
X96034600Y-78814233D01*
X96017933Y-78830900D01*
X95967933Y-78864233D01*
X95901266Y-78880900D01*
X95767933Y-78880900D01*
X95734600Y-78864233D01*
X95717933Y-78847566D01*
X95701266Y-78814233D01*
X95701266Y-78747566D01*
X95717933Y-78714233D01*
X95734600Y-78697566D01*
X95767933Y-78680900D01*
X95851266Y-78680900D01*
X95884600Y-78697566D01*
X95901266Y-78714233D01*
X95917933Y-78747566D01*
X95917933Y-78814233D01*
X95901266Y-78847566D01*
X95884600Y-78864233D01*
X95851266Y-78880900D01*
G04 #@! TO.C,F1*
D14*
X120439285Y-69883333D02*
X120439285Y-70066666D01*
X120151190Y-70066666D02*
X120701190Y-70066666D01*
X120701190Y-69804761D01*
X120151190Y-69307142D02*
X120151190Y-69621428D01*
X120151190Y-69464285D02*
X120701190Y-69464285D01*
X120622619Y-69516666D01*
X120570238Y-69569047D01*
X120544047Y-69621428D01*
G04 #@! TO.C,L3*
D12*
X114266666Y-70580952D02*
X114457142Y-70580952D01*
X114457142Y-70180952D01*
X114171428Y-70180952D02*
X113923809Y-70180952D01*
X114057142Y-70333333D01*
X114000000Y-70333333D01*
X113961904Y-70352380D01*
X113942857Y-70371428D01*
X113923809Y-70409523D01*
X113923809Y-70504761D01*
X113942857Y-70542857D01*
X113961904Y-70561904D01*
X114000000Y-70580952D01*
X114114285Y-70580952D01*
X114152380Y-70561904D01*
X114171428Y-70542857D01*
G04 #@! TO.C,R10*
D11*
X92091720Y-55982453D02*
X92208386Y-55815786D01*
X92291720Y-55982453D02*
X92291720Y-55632453D01*
X92158386Y-55632453D01*
X92125053Y-55649120D01*
X92108386Y-55665786D01*
X92091720Y-55699120D01*
X92091720Y-55749120D01*
X92108386Y-55782453D01*
X92125053Y-55799120D01*
X92158386Y-55815786D01*
X92291720Y-55815786D01*
X91758386Y-55982453D02*
X91958386Y-55982453D01*
X91858386Y-55982453D02*
X91858386Y-55632453D01*
X91891720Y-55682453D01*
X91925053Y-55715786D01*
X91958386Y-55732453D01*
X91541720Y-55632453D02*
X91508386Y-55632453D01*
X91475053Y-55649120D01*
X91458386Y-55665786D01*
X91441720Y-55699120D01*
X91425053Y-55765786D01*
X91425053Y-55849120D01*
X91441720Y-55915786D01*
X91458386Y-55949120D01*
X91475053Y-55965786D01*
X91508386Y-55982453D01*
X91541720Y-55982453D01*
X91575053Y-55965786D01*
X91591720Y-55949120D01*
X91608386Y-55915786D01*
X91625053Y-55849120D01*
X91625053Y-55765786D01*
X91608386Y-55699120D01*
X91591720Y-55665786D01*
X91575053Y-55649120D01*
X91541720Y-55632453D01*
G04 #@! TO.C,C20*
X110564200Y-81056560D02*
X110580866Y-81039893D01*
X110597533Y-80989893D01*
X110597533Y-80956560D01*
X110580866Y-80906560D01*
X110547533Y-80873226D01*
X110514200Y-80856560D01*
X110447533Y-80839893D01*
X110397533Y-80839893D01*
X110330866Y-80856560D01*
X110297533Y-80873226D01*
X110264200Y-80906560D01*
X110247533Y-80956560D01*
X110247533Y-80989893D01*
X110264200Y-81039893D01*
X110280866Y-81056560D01*
X110280866Y-81189893D02*
X110264200Y-81206560D01*
X110247533Y-81239893D01*
X110247533Y-81323226D01*
X110264200Y-81356560D01*
X110280866Y-81373226D01*
X110314200Y-81389893D01*
X110347533Y-81389893D01*
X110397533Y-81373226D01*
X110597533Y-81173226D01*
X110597533Y-81389893D01*
X110247533Y-81606560D02*
X110247533Y-81639893D01*
X110264200Y-81673226D01*
X110280866Y-81689893D01*
X110314200Y-81706560D01*
X110380866Y-81723226D01*
X110464200Y-81723226D01*
X110530866Y-81706560D01*
X110564200Y-81689893D01*
X110580866Y-81673226D01*
X110597533Y-81639893D01*
X110597533Y-81606560D01*
X110580866Y-81573226D01*
X110564200Y-81556560D01*
X110530866Y-81539893D01*
X110464200Y-81523226D01*
X110380866Y-81523226D01*
X110314200Y-81539893D01*
X110280866Y-81556560D01*
X110264200Y-81573226D01*
X110247533Y-81606560D01*
G04 #@! TD*
M02*
