  0
SECTION
  2
HEADER
  9
$ANGBASE
  50
0.0
  9
$ANGDIR
  70
  1
  9
$MEASUREMENT
  70
0
  0
ENDSEC
  0
SECTION
  2
TABLES
  0
TABLE
  2
LTYPE
  70
4
  0
LTYPE
  5
40F
  2
CONTINUOUS
  70
0
  3
Solid line
  72
65
  73
0
  40
0.0
  0
LTYPE
  5
410
  2
DASHDOT
 70
0
  3
Dash Dot ____ _ ____ _
 72
65
 73
4
 40
2.0
 49
1.25
 49
-0.25
 49
0.25
 49
-0.25
  0
LTYPE
  5
411
  2
DASHED
 70
0
  3
Dashed __ __ __ __ __
 72
65
 73
2
 40
0.75
 49
0.5
 49
-0.25
  0
LTYPE
  5
43B
  2
DOTTED
 70
0
  3
Dotted .  .  .  .
 72
65
 73
2
 40
0.2
 49
0.0
 49
-0.2
  0
ENDTAB
  0
TABLE
  2
STYLE
  70
4
  0
STYLE
  2
KICAD
  70
0
  40
0
  41
1
  42
1
  50
0
  71
0
  3
isocp.shx
  0
STYLE
  2
KICADB
  70
0
  40
0
  41
1
  42
1
  50
0
  71
0
  3
isocp.shx
  0
STYLE
  2
KICADI
  70
0
  40
0
  41
1
  42
1
  50
15
  71
0
  3
isocp.shx
  0
STYLE
  2
KICADBI
  70
0
  40
0
  41
1
  42
1
  50
15
  71
0
  3
isocp.shx
  0
ENDTAB
  0
TABLE
  2
LAYER
  70
30
  0
LAYER
  2
BLACK
  70
0
  62
7
  6
CONTINUOUS
  0
LAYER
  2
GRAY1
  70
0
  62
251
  6
CONTINUOUS
  0
LAYER
  2
GRAY2
  70
0
  62
8
  6
CONTINUOUS
  0
LAYER
  2
GRAY3
  70
0
  62
9
  6
CONTINUOUS
  0
LAYER
  2
WHITE
  70
0
  62
7
  6
CONTINUOUS
  0
LAYER
  2
LYELLOW
  70
0
  62
51
  6
CONTINUOUS
  0
LAYER
  2
BLUE1
  70
0
  62
178
  6
CONTINUOUS
  0
LAYER
  2
GREEN1
  70
0
  62
98
  6
CONTINUOUS
  0
LAYER
  2
CYAN1
  70
0
  62
138
  6
CONTINUOUS
  0
LAYER
  2
RED1
  70
0
  62
18
  6
CONTINUOUS
  0
LAYER
  2
MAGENTA1
  70
0
  62
228
  6
CONTINUOUS
  0
LAYER
  2
BROWN1
  70
0
  62
58
  6
CONTINUOUS
  0
LAYER
  2
BLUE2
  70
0
  62
5
  6
CONTINUOUS
  0
LAYER
  2
GREEN2
  70
0
  62
3
  6
CONTINUOUS
  0
LAYER
  2
CYAN2
  70
0
  62
4
  6
CONTINUOUS
  0
LAYER
  2
RED2
  70
0
  62
1
  6
CONTINUOUS
  0
LAYER
  2
MAGENTA2
  70
0
  62
6
  6
CONTINUOUS
  0
LAYER
  2
BROWN2
  70
0
  62
54
  6
CONTINUOUS
  0
LAYER
  2
BLUE3
  70
0
  62
171
  6
CONTINUOUS
  0
LAYER
  2
GREEN3
  70
0
  62
91
  6
CONTINUOUS
  0
LAYER
  2
CYAN3
  70
0
  62
131
  6
CONTINUOUS
  0
LAYER
  2
RED3
  70
0
  62
11
  6
CONTINUOUS
  0
LAYER
  2
MAGENTA3
  70
0
  62
221
  6
CONTINUOUS
  0
LAYER
  2
YELLOW3
  70
0
  62
2
  6
CONTINUOUS
  0
LAYER
  2
BLUE4
  70
0
  62
5
  6
CONTINUOUS
  0
LAYER
  2
GREEN4
  70
0
  62
3
  6
CONTINUOUS
  0
LAYER
  2
CYAN4
  70
0
  62
4
  6
CONTINUOUS
  0
LAYER
  2
RED4
  70
0
  62
1
  6
CONTINUOUS
  0
LAYER
  2
MAGENTA4
  70
0
  62
6
  6
CONTINUOUS
  0
LAYER
  2
YELLOW4
  70
0
  62
2
  6
CONTINUOUS
  0
ENDTAB
  0
ENDSEC
  0
SECTION
  2
ENTITIES
0
LINE
8
BLACK
6
CONTINUOUS
10
109.507
20
-104.061
11
107.307
21
-104.061
0
LINE
8
BLACK
6
CONTINUOUS
10
107.307
20
-104.061
11
107.307
21
-102.461
0
LINE
8
BLACK
6
CONTINUOUS
10
107.307
20
-102.461
11
109.507
21
-102.461
0
LINE
8
BLACK
6
CONTINUOUS
10
109.507
20
-102.461
11
109.507
21
-104.061
0
LINE
8
BLACK
6
CONTINUOUS
10
115.575
20
-103.817
11
114.051
21
-103.817
0
LINE
8
BLACK
6
CONTINUOUS
10
114.051
20
-103.817
11
114.051
21
-101.912
0
LINE
8
BLACK
6
CONTINUOUS
10
114.051
20
-101.912
11
115.575
21
-101.912
0
LINE
8
BLACK
6
CONTINUOUS
10
115.575
20
-101.912
11
115.575
21
-103.817
0
LINE
8
BLACK
6
CONTINUOUS
10
112.019
20
-103.817
11
110.495
21
-103.817
0
LINE
8
BLACK
6
CONTINUOUS
10
110.495
20
-103.817
11
110.495
21
-101.912
0
LINE
8
BLACK
6
CONTINUOUS
10
110.495
20
-101.912
11
112.019
21
-101.912
0
LINE
8
BLACK
6
CONTINUOUS
10
112.019
20
-101.912
11
112.019
21
-103.817
0
LINE
8
BLACK
6
CONTINUOUS
10
96.6187
20
-103.015
11
94.7137
21
-103.015
0
LINE
8
BLACK
6
CONTINUOUS
10
94.7137
20
-103.015
11
94.7137
21
-101.491
0
LINE
8
BLACK
6
CONTINUOUS
10
94.7137
20
-101.491
11
96.6187
21
-101.491
0
LINE
8
BLACK
6
CONTINUOUS
10
96.6187
20
-101.491
11
96.6187
21
-103.015
0
LINE
8
BLACK
6
CONTINUOUS
10
99.4508
20
-102.977
11
97.5458
21
-102.977
0
LINE
8
BLACK
6
CONTINUOUS
10
97.5458
20
-102.977
11
97.5458
21
-101.453
0
LINE
8
BLACK
6
CONTINUOUS
10
97.5458
20
-101.453
11
99.4508
21
-101.453
0
LINE
8
BLACK
6
CONTINUOUS
10
99.4508
20
-101.453
11
99.4508
21
-102.977
0
LINE
8
BLACK
6
CONTINUOUS
10
101.111
20
-102.968
11
100.211
21
-102.968
0
LINE
8
BLACK
6
CONTINUOUS
10
100.211
20
-102.968
11
100.211
21
-102.168
0
LINE
8
BLACK
6
CONTINUOUS
10
100.211
20
-102.168
11
101.111
21
-102.168
0
LINE
8
BLACK
6
CONTINUOUS
10
101.111
20
-102.168
11
101.111
21
-102.968
0
LINE
8
BLACK
6
CONTINUOUS
10
105.689
20
-102.864
11
104.439
21
-102.864
0
LINE
8
BLACK
6
CONTINUOUS
10
104.439
20
-102.864
11
104.439
21
-101.964
0
LINE
8
BLACK
6
CONTINUOUS
10
104.439
20
-101.964
11
105.689
21
-101.964
0
LINE
8
BLACK
6
CONTINUOUS
10
105.689
20
-101.964
11
105.689
21
-102.864
0
LINE
8
BLACK
6
CONTINUOUS
10
89.1409
20
-100.588
11
89.3229
21
-100.663
0
LINE
8
BLACK
6
CONTINUOUS
10
89.3229
20
-100.663
11
89.4867
21
-100.772
0
LINE
8
BLACK
6
CONTINUOUS
10
89.4867
20
-100.772
11
89.626
21
-100.912
0
LINE
8
BLACK
6
CONTINUOUS
10
89.626
20
-100.912
11
89.7354
21
-101.076
0
LINE
8
BLACK
6
CONTINUOUS
10
89.7354
20
-101.076
11
89.8108
21
-101.258
0
LINE
8
BLACK
6
CONTINUOUS
10
89.8108
20
-101.258
11
89.8492
21
-101.451
0
LINE
8
BLACK
6
CONTINUOUS
10
89.8492
20
-101.451
11
89.8492
21
-101.648
0
LINE
8
BLACK
6
CONTINUOUS
10
89.8492
20
-101.648
11
89.8108
21
-101.841
0
LINE
8
BLACK
6
CONTINUOUS
10
89.8108
20
-101.841
11
89.7354
21
-102.023
0
LINE
8
BLACK
6
CONTINUOUS
10
89.7354
20
-102.023
11
89.626
21
-102.187
0
LINE
8
BLACK
6
CONTINUOUS
10
89.626
20
-102.187
11
89.4867
21
-102.326
0
LINE
8
BLACK
6
CONTINUOUS
10
89.4867
20
-102.326
11
89.3229
21
-102.435
0
LINE
8
BLACK
6
CONTINUOUS
10
89.3229
20
-102.435
11
89.1409
21
-102.511
0
LINE
8
BLACK
6
CONTINUOUS
10
89.1409
20
-102.511
11
88.9477
21
-102.549
0
LINE
8
BLACK
6
CONTINUOUS
10
88.9477
20
-102.549
11
88.7507
21
-102.549
0
LINE
8
BLACK
6
CONTINUOUS
10
88.7507
20
-102.549
11
88.5575
21
-102.511
0
LINE
8
BLACK
6
CONTINUOUS
10
88.5575
20
-102.511
11
88.3755
21
-102.435
0
LINE
8
BLACK
6
CONTINUOUS
10
88.3755
20
-102.435
11
88.2117
21
-102.326
0
LINE
8
BLACK
6
CONTINUOUS
10
88.2117
20
-102.326
11
88.0724
21
-102.187
0
LINE
8
BLACK
6
CONTINUOUS
10
88.0724
20
-102.187
11
87.963
21
-102.023
0
LINE
8
BLACK
6
CONTINUOUS
10
87.963
20
-102.023
11
87.8876
21
-101.841
0
LINE
8
BLACK
6
CONTINUOUS
10
87.8876
20
-101.841
11
87.8492
21
-101.648
0
LINE
8
BLACK
6
CONTINUOUS
10
87.8492
20
-101.648
11
87.8492
21
-101.451
0
LINE
8
BLACK
6
CONTINUOUS
10
87.8492
20
-101.451
11
87.8876
21
-101.258
0
LINE
8
BLACK
6
CONTINUOUS
10
87.8876
20
-101.258
11
87.963
21
-101.076
0
LINE
8
BLACK
6
CONTINUOUS
10
87.963
20
-101.076
11
88.0724
21
-100.912
0
LINE
8
BLACK
6
CONTINUOUS
10
88.0724
20
-100.912
11
88.2117
21
-100.772
0
LINE
8
BLACK
6
CONTINUOUS
10
88.2117
20
-100.772
11
88.3755
21
-100.663
0
LINE
8
BLACK
6
CONTINUOUS
10
88.3755
20
-100.663
11
88.5575
21
-100.588
0
LINE
8
BLACK
6
CONTINUOUS
10
88.5575
20
-100.588
11
88.7507
21
-100.549
0
LINE
8
BLACK
6
CONTINUOUS
10
88.7507
20
-100.549
11
88.9477
21
-100.549
0
LINE
8
BLACK
6
CONTINUOUS
10
88.9477
20
-100.549
11
89.1409
21
-100.588
0
LINE
8
BLACK
6
CONTINUOUS
10
120.129
20
-100.588
11
120.311
21
-100.663
0
LINE
8
BLACK
6
CONTINUOUS
10
120.311
20
-100.663
11
120.475
21
-100.772
0
LINE
8
BLACK
6
CONTINUOUS
10
120.475
20
-100.772
11
120.614
21
-100.912
0
LINE
8
BLACK
6
CONTINUOUS
10
120.614
20
-100.912
11
120.723
21
-101.076
0
LINE
8
BLACK
6
CONTINUOUS
10
120.723
20
-101.076
11
120.799
21
-101.258
0
LINE
8
BLACK
6
CONTINUOUS
10
120.799
20
-101.258
11
120.837
21
-101.451
0
LINE
8
BLACK
6
CONTINUOUS
10
120.837
20
-101.451
11
120.837
21
-101.648
0
LINE
8
BLACK
6
CONTINUOUS
10
120.837
20
-101.648
11
120.799
21
-101.841
0
LINE
8
BLACK
6
CONTINUOUS
10
120.799
20
-101.841
11
120.723
21
-102.023
0
LINE
8
BLACK
6
CONTINUOUS
10
120.723
20
-102.023
11
120.614
21
-102.187
0
LINE
8
BLACK
6
CONTINUOUS
10
120.614
20
-102.187
11
120.475
21
-102.326
0
LINE
8
BLACK
6
CONTINUOUS
10
120.475
20
-102.326
11
120.311
21
-102.435
0
LINE
8
BLACK
6
CONTINUOUS
10
120.311
20
-102.435
11
120.129
21
-102.511
0
LINE
8
BLACK
6
CONTINUOUS
10
120.129
20
-102.511
11
119.936
21
-102.549
0
LINE
8
BLACK
6
CONTINUOUS
10
119.936
20
-102.549
11
119.739
21
-102.549
0
LINE
8
BLACK
6
CONTINUOUS
10
119.739
20
-102.549
11
119.546
21
-102.511
0
LINE
8
BLACK
6
CONTINUOUS
10
119.546
20
-102.511
11
119.364
21
-102.435
0
LINE
8
BLACK
6
CONTINUOUS
10
119.364
20
-102.435
11
119.2
21
-102.326
0
LINE
8
BLACK
6
CONTINUOUS
10
119.2
20
-102.326
11
119.06
21
-102.187
0
LINE
8
BLACK
6
CONTINUOUS
10
119.06
20
-102.187
11
118.951
21
-102.023
0
LINE
8
BLACK
6
CONTINUOUS
10
118.951
20
-102.023
11
118.876
21
-101.841
0
LINE
8
BLACK
6
CONTINUOUS
10
118.876
20
-101.841
11
118.837
21
-101.648
0
LINE
8
BLACK
6
CONTINUOUS
10
118.837
20
-101.648
11
118.837
21
-101.451
0
LINE
8
BLACK
6
CONTINUOUS
10
118.837
20
-101.451
11
118.876
21
-101.258
0
LINE
8
BLACK
6
CONTINUOUS
10
118.876
20
-101.258
11
118.951
21
-101.076
0
LINE
8
BLACK
6
CONTINUOUS
10
118.951
20
-101.076
11
119.06
21
-100.912
0
LINE
8
BLACK
6
CONTINUOUS
10
119.06
20
-100.912
11
119.2
21
-100.772
0
LINE
8
BLACK
6
CONTINUOUS
10
119.2
20
-100.772
11
119.364
21
-100.663
0
LINE
8
BLACK
6
CONTINUOUS
10
119.364
20
-100.663
11
119.546
21
-100.588
0
LINE
8
BLACK
6
CONTINUOUS
10
119.546
20
-100.588
11
119.739
21
-100.549
0
LINE
8
BLACK
6
CONTINUOUS
10
119.739
20
-100.549
11
119.936
21
-100.549
0
LINE
8
BLACK
6
CONTINUOUS
10
119.936
20
-100.549
11
120.129
21
-100.588
0
LINE
8
BLACK
6
CONTINUOUS
10
103.111
20
-102.018
11
102.211
21
-102.018
0
LINE
8
BLACK
6
CONTINUOUS
10
102.211
20
-102.018
11
102.211
21
-101.218
0
LINE
8
BLACK
6
CONTINUOUS
10
102.211
20
-101.218
11
103.111
21
-101.218
0
LINE
8
BLACK
6
CONTINUOUS
10
103.111
20
-101.218
11
103.111
21
-102.018
0
LINE
8
BLACK
6
CONTINUOUS
10
109.507
20
-101.521
11
107.307
21
-101.521
0
LINE
8
BLACK
6
CONTINUOUS
10
107.307
20
-101.521
11
107.307
21
-99.9212
0
LINE
8
BLACK
6
CONTINUOUS
10
107.307
20
-99.9212
11
109.507
21
-99.9212
0
LINE
8
BLACK
6
CONTINUOUS
10
109.507
20
-99.9212
11
109.507
21
-101.521
0
LINE
8
BLACK
6
CONTINUOUS
10
115.534
20
-101.196
11
114.01
21
-101.196
0
LINE
8
BLACK
6
CONTINUOUS
10
114.01
20
-101.196
11
114.01
21
-99.2911
0
LINE
8
BLACK
6
CONTINUOUS
10
114.01
20
-99.2911
11
115.534
21
-99.2911
0
LINE
8
BLACK
6
CONTINUOUS
10
115.534
20
-99.2911
11
115.534
21
-101.196
0
LINE
8
BLACK
6
CONTINUOUS
10
111.978
20
-101.196
11
110.454
21
-101.196
0
LINE
8
BLACK
6
CONTINUOUS
10
110.454
20
-101.196
11
110.454
21
-99.2911
0
LINE
8
BLACK
6
CONTINUOUS
10
110.454
20
-99.2911
11
111.978
21
-99.2911
0
LINE
8
BLACK
6
CONTINUOUS
10
111.978
20
-99.2911
11
111.978
21
-101.196
0
LINE
8
BLACK
6
CONTINUOUS
10
101.111
20
-101.068
11
100.211
21
-101.068
0
LINE
8
BLACK
6
CONTINUOUS
10
100.211
20
-101.068
11
100.211
21
-100.268
0
LINE
8
BLACK
6
CONTINUOUS
10
100.211
20
-100.268
11
101.111
21
-100.268
0
LINE
8
BLACK
6
CONTINUOUS
10
101.111
20
-100.268
11
101.111
21
-101.068
0
LINE
8
BLACK
6
CONTINUOUS
10
105.689
20
-100.764
11
104.439
21
-100.764
0
LINE
8
BLACK
6
CONTINUOUS
10
104.439
20
-100.764
11
104.439
21
-99.8637
0
LINE
8
BLACK
6
CONTINUOUS
10
104.439
20
-99.8637
11
105.689
21
-99.8637
0
LINE
8
BLACK
6
CONTINUOUS
10
105.689
20
-99.8637
11
105.689
21
-100.764
0
LINE
8
BLACK
6
CONTINUOUS
10
96.6187
20
-99.4587
11
94.7137
21
-99.4587
0
LINE
8
BLACK
6
CONTINUOUS
10
94.7137
20
-99.4587
11
94.7137
21
-97.9347
0
LINE
8
BLACK
6
CONTINUOUS
10
94.7137
20
-97.9347
11
96.6187
21
-97.9347
0
LINE
8
BLACK
6
CONTINUOUS
10
96.6187
20
-97.9347
11
96.6187
21
-99.4587
0
LINE
8
BLACK
6
CONTINUOUS
10
99.4508
20
-99.4206
11
97.5458
21
-99.4206
0
LINE
8
BLACK
6
CONTINUOUS
10
97.5458
20
-99.4206
11
97.5458
21
-97.8966
0
LINE
8
BLACK
6
CONTINUOUS
10
97.5458
20
-97.8966
11
99.4508
21
-97.8966
0
LINE
8
BLACK
6
CONTINUOUS
10
99.4508
20
-97.8966
11
99.4508
21
-99.4206
0
LINE
8
BLACK
6
CONTINUOUS
10
103.516
20
-99.1947
11
102.616
21
-99.1947
0
LINE
8
BLACK
6
CONTINUOUS
10
102.616
20
-99.1947
11
102.616
21
-97.9447
0
LINE
8
BLACK
6
CONTINUOUS
10
102.616
20
-97.9447
11
103.516
21
-97.9447
0
LINE
8
BLACK
6
CONTINUOUS
10
103.516
20
-97.9447
11
103.516
21
-99.1947
0
LINE
8
BLACK
6
CONTINUOUS
10
101.416
20
-99.1947
11
100.516
21
-99.1947
0
LINE
8
BLACK
6
CONTINUOUS
10
100.516
20
-99.1947
11
100.516
21
-97.9447
0
LINE
8
BLACK
6
CONTINUOUS
10
100.516
20
-97.9447
11
101.416
21
-97.9447
0
LINE
8
BLACK
6
CONTINUOUS
10
101.416
20
-97.9447
11
101.416
21
-99.1947
0
LINE
8
BLACK
6
CONTINUOUS
10
115.987
20
-98.1992
11
114.087
21
-98.1992
0
LINE
8
BLACK
6
CONTINUOUS
10
114.087
20
-98.1992
11
114.087
21
-94.0992
0
LINE
8
BLACK
6
CONTINUOUS
10
114.087
20
-94.0992
11
115.987
21
-94.0992
0
LINE
8
BLACK
6
CONTINUOUS
10
115.987
20
-94.0992
11
115.987
21
-98.1992
0
LINE
8
BLACK
6
CONTINUOUS
10
111.587
20
-98.1992
11
109.687
21
-98.1992
0
LINE
8
BLACK
6
CONTINUOUS
10
109.687
20
-98.1992
11
109.687
21
-94.0992
0
LINE
8
BLACK
6
CONTINUOUS
10
109.687
20
-94.0992
11
111.587
21
-94.0992
0
LINE
8
BLACK
6
CONTINUOUS
10
111.587
20
-94.0992
11
111.587
21
-98.1992
0
LINE
8
BLACK
6
CONTINUOUS
10
95.2959
20
-97.3139
11
94.0459
21
-97.3139
0
LINE
8
BLACK
6
CONTINUOUS
10
94.0459
20
-97.3139
11
94.0459
21
-96.4139
0
LINE
8
BLACK
6
CONTINUOUS
10
94.0459
20
-96.4139
11
95.2959
21
-96.4139
0
LINE
8
BLACK
6
CONTINUOUS
10
95.2959
20
-96.4139
11
95.2959
21
-97.3139
0
LINE
8
BLACK
6
CONTINUOUS
10
100.755
20
-96.9971
11
99.955
21
-96.9971
0
LINE
8
BLACK
6
CONTINUOUS
10
99.955
20
-96.9971
11
99.955
21
-96.0971
0
LINE
8
BLACK
6
CONTINUOUS
10
99.955
20
-96.0971
11
100.755
21
-96.0971
0
LINE
8
BLACK
6
CONTINUOUS
10
100.755
20
-96.0971
11
100.755
21
-96.9971
0
LINE
8
BLACK
6
CONTINUOUS
10
102.655
20
-96.9971
11
101.855
21
-96.9971
0
LINE
8
BLACK
6
CONTINUOUS
10
101.855
20
-96.9971
11
101.855
21
-96.0971
0
LINE
8
BLACK
6
CONTINUOUS
10
101.855
20
-96.0971
11
102.655
21
-96.0971
0
LINE
8
BLACK
6
CONTINUOUS
10
102.655
20
-96.0971
11
102.655
21
-96.9971
0
LINE
8
BLACK
6
CONTINUOUS
10
99.0841
20
-96.4054
11
98.2841
21
-96.4054
0
LINE
8
BLACK
6
CONTINUOUS
10
98.2841
20
-96.4054
11
98.2841
21
-95.5054
0
LINE
8
BLACK
6
CONTINUOUS
10
98.2841
20
-95.5054
11
99.0841
21
-95.5054
0
LINE
8
BLACK
6
CONTINUOUS
10
99.0841
20
-95.5054
11
99.0841
21
-96.4054
0
LINE
8
BLACK
6
CONTINUOUS
10
97.1841
20
-96.4054
11
96.3841
21
-96.4054
0
LINE
8
BLACK
6
CONTINUOUS
10
96.3841
20
-96.4054
11
96.3841
21
-95.5054
0
LINE
8
BLACK
6
CONTINUOUS
10
96.3841
20
-95.5054
11
97.1841
21
-95.5054
0
LINE
8
BLACK
6
CONTINUOUS
10
97.1841
20
-95.5054
11
97.1841
21
-96.4054
0
LINE
8
BLACK
6
CONTINUOUS
10
95.2959
20
-95.2139
11
94.0459
21
-95.2139
0
LINE
8
BLACK
6
CONTINUOUS
10
94.0459
20
-95.2139
11
94.0459
21
-94.3139
0
LINE
8
BLACK
6
CONTINUOUS
10
94.0459
20
-94.3139
11
95.2959
21
-94.3139
0
LINE
8
BLACK
6
CONTINUOUS
10
95.2959
20
-94.3139
11
95.2959
21
-95.2139
0
LINE
8
BLACK
6
CONTINUOUS
10
117.993
20
-95.1181
11
117.093
21
-95.1181
0
LINE
8
BLACK
6
CONTINUOUS
10
117.093
20
-95.1181
11
117.093
21
-93.8681
0
LINE
8
BLACK
6
CONTINUOUS
10
117.093
20
-93.8681
11
117.993
21
-93.8681
0
LINE
8
BLACK
6
CONTINUOUS
10
117.993
20
-93.8681
11
117.993
21
-95.1181
0
LINE
8
BLACK
6
CONTINUOUS
10
120.093
20
-95.1181
11
119.193
21
-95.1181
0
LINE
8
BLACK
6
CONTINUOUS
10
119.193
20
-95.1181
11
119.193
21
-93.8681
0
LINE
8
BLACK
6
CONTINUOUS
10
119.193
20
-93.8681
11
120.093
21
-93.8681
0
LINE
8
BLACK
6
CONTINUOUS
10
120.093
20
-93.8681
11
120.093
21
-95.1181
0
LINE
8
BLACK
6
CONTINUOUS
10
101.705
20
-94.9971
11
100.905
21
-94.9971
0
LINE
8
BLACK
6
CONTINUOUS
10
100.905
20
-94.9971
11
100.905
21
-94.0971
0
LINE
8
BLACK
6
CONTINUOUS
10
100.905
20
-94.0971
11
101.705
21
-94.0971
0
LINE
8
BLACK
6
CONTINUOUS
10
101.705
20
-94.0971
11
101.705
21
-94.9971
0
LINE
8
BLACK
6
CONTINUOUS
10
98.1341
20
-94.4054
11
97.3341
21
-94.4054
0
LINE
8
BLACK
6
CONTINUOUS
10
97.3341
20
-94.4054
11
97.3341
21
-93.5054
0
LINE
8
BLACK
6
CONTINUOUS
10
97.3341
20
-93.5054
11
98.1341
21
-93.5054
0
LINE
8
BLACK
6
CONTINUOUS
10
98.1341
20
-93.5054
11
98.1341
21
-94.4054
0
LINE
8
BLACK
6
CONTINUOUS
10
91.44
20
-93.7387
11
89.916
21
-93.7387
0
LINE
8
BLACK
6
CONTINUOUS
10
89.916
20
-93.7387
11
89.916
21
-91.8337
0
LINE
8
BLACK
6
CONTINUOUS
10
89.916
20
-91.8337
11
91.44
21
-91.8337
0
LINE
8
BLACK
6
CONTINUOUS
10
91.44
20
-91.8337
11
91.44
21
-93.7387
0
LINE
8
BLACK
6
CONTINUOUS
10
87.884
20
-93.7387
11
86.36
21
-93.7387
0
LINE
8
BLACK
6
CONTINUOUS
10
86.36
20
-93.7387
11
86.36
21
-91.8337
0
LINE
8
BLACK
6
CONTINUOUS
10
86.36
20
-91.8337
11
87.884
21
-91.8337
0
LINE
8
BLACK
6
CONTINUOUS
10
87.884
20
-91.8337
11
87.884
21
-93.7387
0
LINE
8
BLACK
6
CONTINUOUS
10
114.769
20
-92.8626
11
113.869
21
-92.8626
0
LINE
8
BLACK
6
CONTINUOUS
10
113.869
20
-92.8626
11
113.869
21
-91.6126
0
LINE
8
BLACK
6
CONTINUOUS
10
113.869
20
-91.6126
11
114.769
21
-91.6126
0
LINE
8
BLACK
6
CONTINUOUS
10
114.769
20
-91.6126
11
114.769
21
-92.8626
0
LINE
8
BLACK
6
CONTINUOUS
10
112.669
20
-92.8626
11
111.769
21
-92.8626
0
LINE
8
BLACK
6
CONTINUOUS
10
111.769
20
-92.8626
11
111.769
21
-91.6126
0
LINE
8
BLACK
6
CONTINUOUS
10
111.769
20
-91.6126
11
112.669
21
-91.6126
0
LINE
8
BLACK
6
CONTINUOUS
10
112.669
20
-91.6126
11
112.669
21
-92.8626
0
LINE
8
BLACK
6
CONTINUOUS
10
116.121
20
-92.7103
11
115.521
21
-92.7103
0
LINE
8
BLACK
6
CONTINUOUS
10
115.521
20
-92.7103
11
115.521
21
-91.1603
0
LINE
8
BLACK
6
CONTINUOUS
10
115.521
20
-91.1603
11
116.121
21
-91.1603
0
LINE
8
BLACK
6
CONTINUOUS
10
116.121
20
-91.1603
11
116.121
21
-92.7103
0
LINE
8
BLACK
6
CONTINUOUS
10
119.931
20
-92.7103
11
119.331
21
-92.7103
0
LINE
8
BLACK
6
CONTINUOUS
10
119.331
20
-92.7103
11
119.331
21
-91.1603
0
LINE
8
BLACK
6
CONTINUOUS
10
119.331
20
-91.1603
11
119.931
21
-91.1603
0
LINE
8
BLACK
6
CONTINUOUS
10
119.931
20
-91.1603
11
119.931
21
-92.7103
0
LINE
8
BLACK
6
CONTINUOUS
10
118.661
20
-92.7103
11
118.061
21
-92.7103
0
LINE
8
BLACK
6
CONTINUOUS
10
118.061
20
-92.7103
11
118.061
21
-91.1603
0
LINE
8
BLACK
6
CONTINUOUS
10
118.061
20
-91.1603
11
118.661
21
-91.1603
0
LINE
8
BLACK
6
CONTINUOUS
10
118.661
20
-91.1603
11
118.661
21
-92.7103
0
LINE
8
BLACK
6
CONTINUOUS
10
117.391
20
-92.7103
11
116.791
21
-92.7103
0
LINE
8
BLACK
6
CONTINUOUS
10
116.791
20
-92.7103
11
116.791
21
-91.1603
0
LINE
8
BLACK
6
CONTINUOUS
10
116.791
20
-91.1603
11
117.391
21
-91.1603
0
LINE
8
BLACK
6
CONTINUOUS
10
117.391
20
-91.1603
11
117.391
21
-92.7103
0
LINE
8
BLACK
6
CONTINUOUS
10
93.355
20
-91.1506
11
92.455
21
-91.1506
0
LINE
8
BLACK
6
CONTINUOUS
10
92.455
20
-91.1506
11
92.455
21
-89.9006
0
LINE
8
BLACK
6
CONTINUOUS
10
92.455
20
-89.9006
11
93.355
21
-89.9006
0
LINE
8
BLACK
6
CONTINUOUS
10
93.355
20
-89.9006
11
93.355
21
-91.1506
0
LINE
8
BLACK
6
CONTINUOUS
10
91.255
20
-91.1506
11
90.355
21
-91.1506
0
LINE
8
BLACK
6
CONTINUOUS
10
90.355
20
-91.1506
11
90.355
21
-89.9006
0
LINE
8
BLACK
6
CONTINUOUS
10
90.355
20
-89.9006
11
91.255
21
-89.9006
0
LINE
8
BLACK
6
CONTINUOUS
10
91.255
20
-89.9006
11
91.255
21
-91.1506
0
LINE
8
BLACK
6
CONTINUOUS
10
122.078
20
-91.1249
11
120.828
21
-91.1249
0
LINE
8
BLACK
6
CONTINUOUS
10
120.828
20
-91.1249
11
120.828
21
-90.2249
0
LINE
8
BLACK
6
CONTINUOUS
10
120.828
20
-90.2249
11
122.078
21
-90.2249
0
LINE
8
BLACK
6
CONTINUOUS
10
122.078
20
-90.2249
11
122.078
21
-91.1249
0
LINE
8
BLACK
6
CONTINUOUS
10
114.144
20
-90.9068
11
113.244
21
-90.9068
0
LINE
8
BLACK
6
CONTINUOUS
10
113.244
20
-90.9068
11
113.244
21
-89.6568
0
LINE
8
BLACK
6
CONTINUOUS
10
113.244
20
-89.6568
11
114.144
21
-89.6568
0
LINE
8
BLACK
6
CONTINUOUS
10
114.144
20
-89.6568
11
114.144
21
-90.9068
0
LINE
8
BLACK
6
CONTINUOUS
10
112.044
20
-90.9068
11
111.144
21
-90.9068
0
LINE
8
BLACK
6
CONTINUOUS
10
111.144
20
-90.9068
11
111.144
21
-89.6568
0
LINE
8
BLACK
6
CONTINUOUS
10
111.144
20
-89.6568
11
112.044
21
-89.6568
0
LINE
8
BLACK
6
CONTINUOUS
10
112.044
20
-89.6568
11
112.044
21
-90.9068
0
LINE
8
BLACK
6
CONTINUOUS
10
118.901
20
-90.4103
11
116.551
21
-90.4103
0
LINE
8
BLACK
6
CONTINUOUS
10
116.551
20
-90.4103
11
116.551
21
-88.0603
0
LINE
8
BLACK
6
CONTINUOUS
10
116.551
20
-88.0603
11
118.901
21
-88.0603
0
LINE
8
BLACK
6
CONTINUOUS
10
118.901
20
-88.0603
11
118.901
21
-90.4103
0
LINE
8
BLACK
6
CONTINUOUS
10
88.7857
20
-90.297
11
86.8807
21
-90.297
0
LINE
8
BLACK
6
CONTINUOUS
10
86.8807
20
-90.297
11
86.8807
21
-88.773
0
LINE
8
BLACK
6
CONTINUOUS
10
86.8807
20
-88.773
11
88.7857
21
-88.773
0
LINE
8
BLACK
6
CONTINUOUS
10
88.7857
20
-88.773
11
88.7857
21
-90.297
0
LINE
8
BLACK
6
CONTINUOUS
10
95.2146
20
-89.9428
11
93.9646
21
-89.9428
0
LINE
8
BLACK
6
CONTINUOUS
10
93.9646
20
-89.9428
11
93.9646
21
-89.0428
0
LINE
8
BLACK
6
CONTINUOUS
10
93.9646
20
-89.0428
11
95.2146
21
-89.0428
0
LINE
8
BLACK
6
CONTINUOUS
10
95.2146
20
-89.0428
11
95.2146
21
-89.9428
0
LINE
8
BLACK
6
CONTINUOUS
10
114.326
20
-89.0944
11
113.076
21
-89.0944
0
LINE
8
BLACK
6
CONTINUOUS
10
113.076
20
-89.0944
11
113.076
21
-88.1944
0
LINE
8
BLACK
6
CONTINUOUS
10
113.076
20
-88.1944
11
114.326
21
-88.1944
0
LINE
8
BLACK
6
CONTINUOUS
10
114.326
20
-88.1944
11
114.326
21
-89.0944
0
LINE
8
BLACK
6
CONTINUOUS
10
91.1448
20
-89.0424
11
90.2448
21
-89.0424
0
LINE
8
BLACK
6
CONTINUOUS
10
90.2448
20
-89.0424
11
90.2448
21
-87.7924
0
LINE
8
BLACK
6
CONTINUOUS
10
90.2448
20
-87.7924
11
91.1448
21
-87.7924
0
LINE
8
BLACK
6
CONTINUOUS
10
91.1448
20
-87.7924
11
91.1448
21
-89.0424
0
LINE
8
BLACK
6
CONTINUOUS
10
93.2448
20
-89.0424
11
92.3448
21
-89.0424
0
LINE
8
BLACK
6
CONTINUOUS
10
92.3448
20
-89.0424
11
92.3448
21
-87.7924
0
LINE
8
BLACK
6
CONTINUOUS
10
92.3448
20
-87.7924
11
93.2448
21
-87.7924
0
LINE
8
BLACK
6
CONTINUOUS
10
93.2448
20
-87.7924
11
93.2448
21
-89.0424
0
LINE
8
BLACK
6
CONTINUOUS
10
122.078
20
-89.0249
11
120.828
21
-89.0249
0
LINE
8
BLACK
6
CONTINUOUS
10
120.828
20
-89.0249
11
120.828
21
-88.1249
0
LINE
8
BLACK
6
CONTINUOUS
10
120.828
20
-88.1249
11
122.078
21
-88.1249
0
LINE
8
BLACK
6
CONTINUOUS
10
122.078
20
-88.1249
11
122.078
21
-89.0249
0
LINE
8
BLACK
6
CONTINUOUS
10
112.207
20
-89.0081
11
110.957
21
-89.0081
0
LINE
8
BLACK
6
CONTINUOUS
10
110.957
20
-89.0081
11
110.957
21
-88.1081
0
LINE
8
BLACK
6
CONTINUOUS
10
110.957
20
-88.1081
11
112.207
21
-88.1081
0
LINE
8
BLACK
6
CONTINUOUS
10
112.207
20
-88.1081
11
112.207
21
-89.0081
0
LINE
8
BLACK
6
CONTINUOUS
10
95.2146
20
-87.8428
11
93.9646
21
-87.8428
0
LINE
8
BLACK
6
CONTINUOUS
10
93.9646
20
-87.8428
11
93.9646
21
-86.9428
0
LINE
8
BLACK
6
CONTINUOUS
10
93.9646
20
-86.9428
11
95.2146
21
-86.9428
0
LINE
8
BLACK
6
CONTINUOUS
10
95.2146
20
-86.9428
11
95.2146
21
-87.8428
0
LINE
8
BLACK
6
CONTINUOUS
10
119.931
20
-87.3103
11
119.331
21
-87.3103
0
LINE
8
BLACK
6
CONTINUOUS
10
119.331
20
-87.3103
11
119.331
21
-85.7603
0
LINE
8
BLACK
6
CONTINUOUS
10
119.331
20
-85.7603
11
119.931
21
-85.7603
0
LINE
8
BLACK
6
CONTINUOUS
10
119.931
20
-85.7603
11
119.931
21
-87.3103
0
LINE
8
BLACK
6
CONTINUOUS
10
118.661
20
-87.3103
11
118.061
21
-87.3103
0
LINE
8
BLACK
6
CONTINUOUS
10
118.061
20
-87.3103
11
118.061
21
-85.7603
0
LINE
8
BLACK
6
CONTINUOUS
10
118.061
20
-85.7603
11
118.661
21
-85.7603
0
LINE
8
BLACK
6
CONTINUOUS
10
118.661
20
-85.7603
11
118.661
21
-87.3103
0
LINE
8
BLACK
6
CONTINUOUS
10
117.391
20
-87.3103
11
116.791
21
-87.3103
0
LINE
8
BLACK
6
CONTINUOUS
10
116.791
20
-87.3103
11
116.791
21
-85.7603
0
LINE
8
BLACK
6
CONTINUOUS
10
116.791
20
-85.7603
11
117.391
21
-85.7603
0
LINE
8
BLACK
6
CONTINUOUS
10
117.391
20
-85.7603
11
117.391
21
-87.3103
0
LINE
8
BLACK
6
CONTINUOUS
10
116.121
20
-87.3103
11
115.521
21
-87.3103
0
LINE
8
BLACK
6
CONTINUOUS
10
115.521
20
-87.3103
11
115.521
21
-85.7603
0
LINE
8
BLACK
6
CONTINUOUS
10
115.521
20
-85.7603
11
116.121
21
-85.7603
0
LINE
8
BLACK
6
CONTINUOUS
10
116.121
20
-85.7603
11
116.121
21
-87.3103
0
LINE
8
BLACK
6
CONTINUOUS
10
114.326
20
-86.9944
11
113.076
21
-86.9944
0
LINE
8
BLACK
6
CONTINUOUS
10
113.076
20
-86.9944
11
113.076
21
-86.0944
0
LINE
8
BLACK
6
CONTINUOUS
10
113.076
20
-86.0944
11
114.326
21
-86.0944
0
LINE
8
BLACK
6
CONTINUOUS
10
114.326
20
-86.0944
11
114.326
21
-86.9944
0
LINE
8
BLACK
6
CONTINUOUS
10
112.207
20
-86.9081
11
110.957
21
-86.9081
0
LINE
8
BLACK
6
CONTINUOUS
10
110.957
20
-86.9081
11
110.957
21
-86.0081
0
LINE
8
BLACK
6
CONTINUOUS
10
110.957
20
-86.0081
11
112.207
21
-86.0081
0
LINE
8
BLACK
6
CONTINUOUS
10
112.207
20
-86.0081
11
112.207
21
-86.9081
0
LINE
8
BLACK
6
CONTINUOUS
10
88.7857
20
-86.741
11
86.8807
21
-86.741
0
LINE
8
BLACK
6
CONTINUOUS
10
86.8807
20
-86.741
11
86.8807
21
-85.217
0
LINE
8
BLACK
6
CONTINUOUS
10
86.8807
20
-85.217
11
88.7857
21
-85.217
0
LINE
8
BLACK
6
CONTINUOUS
10
88.7857
20
-85.217
11
88.7857
21
-86.741
0
LINE
8
BLACK
6
CONTINUOUS
10
122.159
20
-86.2649
11
120.909
21
-86.2649
0
LINE
8
BLACK
6
CONTINUOUS
10
120.909
20
-86.2649
11
120.909
21
-85.3649
0
LINE
8
BLACK
6
CONTINUOUS
10
120.909
20
-85.3649
11
122.159
21
-85.3649
0
LINE
8
BLACK
6
CONTINUOUS
10
122.159
20
-85.3649
11
122.159
21
-86.2649
0
LINE
8
BLACK
6
CONTINUOUS
10
94.0133
20
-86.2028
11
93.4133
21
-86.2028
0
LINE
8
BLACK
6
CONTINUOUS
10
93.4133
20
-86.2028
11
93.4133
21
-84.6528
0
LINE
8
BLACK
6
CONTINUOUS
10
93.4133
20
-84.6528
11
94.0133
21
-84.6528
0
LINE
8
BLACK
6
CONTINUOUS
10
94.0133
20
-84.6528
11
94.0133
21
-86.2028
0
LINE
8
BLACK
6
CONTINUOUS
10
92.7433
20
-86.2028
11
92.1433
21
-86.2028
0
LINE
8
BLACK
6
CONTINUOUS
10
92.1433
20
-86.2028
11
92.1433
21
-84.6528
0
LINE
8
BLACK
6
CONTINUOUS
10
92.1433
20
-84.6528
11
92.7433
21
-84.6528
0
LINE
8
BLACK
6
CONTINUOUS
10
92.7433
20
-84.6528
11
92.7433
21
-86.2028
0
LINE
8
BLACK
6
CONTINUOUS
10
91.4733
20
-86.2028
11
90.8733
21
-86.2028
0
LINE
8
BLACK
6
CONTINUOUS
10
90.8733
20
-86.2028
11
90.8733
21
-84.6528
0
LINE
8
BLACK
6
CONTINUOUS
10
90.8733
20
-84.6528
11
91.4733
21
-84.6528
0
LINE
8
BLACK
6
CONTINUOUS
10
91.4733
20
-84.6528
11
91.4733
21
-86.2028
0
LINE
8
BLACK
6
CONTINUOUS
10
90.2033
20
-86.2028
11
89.6033
21
-86.2028
0
LINE
8
BLACK
6
CONTINUOUS
10
89.6033
20
-86.2028
11
89.6033
21
-84.6528
0
LINE
8
BLACK
6
CONTINUOUS
10
89.6033
20
-84.6528
11
90.2033
21
-84.6528
0
LINE
8
BLACK
6
CONTINUOUS
10
90.2033
20
-84.6528
11
90.2033
21
-86.2028
0
LINE
8
BLACK
6
CONTINUOUS
10
98.3056
20
-84.0828
11
98.4421
21
-84.1394
0
LINE
8
BLACK
6
CONTINUOUS
10
98.4421
20
-84.1394
11
98.5649
21
-84.2214
0
LINE
8
BLACK
6
CONTINUOUS
10
98.5649
20
-84.2214
11
98.6694
21
-84.3259
0
LINE
8
BLACK
6
CONTINUOUS
10
98.6694
20
-84.3259
11
98.7514
21
-84.4487
0
LINE
8
BLACK
6
CONTINUOUS
10
98.7514
20
-84.4487
11
98.808
21
-84.5852
0
LINE
8
BLACK
6
CONTINUOUS
10
98.808
20
-84.5852
11
98.8368
21
-84.7301
0
LINE
8
BLACK
6
CONTINUOUS
10
98.8368
20
-84.7301
11
98.8368
21
-84.8779
0
LINE
8
BLACK
6
CONTINUOUS
10
98.8368
20
-84.8779
11
98.808
21
-85.0228
0
LINE
8
BLACK
6
CONTINUOUS
10
98.808
20
-85.0228
11
98.7514
21
-85.1593
0
LINE
8
BLACK
6
CONTINUOUS
10
98.7514
20
-85.1593
11
98.6694
21
-85.2821
0
LINE
8
BLACK
6
CONTINUOUS
10
98.6694
20
-85.2821
11
98.5649
21
-85.3866
0
LINE
8
BLACK
6
CONTINUOUS
10
98.5649
20
-85.3866
11
98.4421
21
-85.4686
0
LINE
8
BLACK
6
CONTINUOUS
10
98.4421
20
-85.4686
11
98.3056
21
-85.5252
0
LINE
8
BLACK
6
CONTINUOUS
10
98.3056
20
-85.5252
11
98.1607
21
-85.554
0
LINE
8
BLACK
6
CONTINUOUS
10
98.1607
20
-85.554
11
98.0129
21
-85.554
0
LINE
8
BLACK
6
CONTINUOUS
10
98.0129
20
-85.554
11
97.868
21
-85.5252
0
LINE
8
BLACK
6
CONTINUOUS
10
97.868
20
-85.5252
11
97.7315
21
-85.4686
0
LINE
8
BLACK
6
CONTINUOUS
10
97.7315
20
-85.4686
11
97.6087
21
-85.3866
0
LINE
8
BLACK
6
CONTINUOUS
10
97.6087
20
-85.3866
11
97.5042
21
-85.2821
0
LINE
8
BLACK
6
CONTINUOUS
10
97.5042
20
-85.2821
11
97.4222
21
-85.1593
0
LINE
8
BLACK
6
CONTINUOUS
10
97.4222
20
-85.1593
11
97.3656
21
-85.0228
0
LINE
8
BLACK
6
CONTINUOUS
10
97.3656
20
-85.0228
11
97.3368
21
-84.8779
0
LINE
8
BLACK
6
CONTINUOUS
10
97.3368
20
-84.8779
11
97.3368
21
-84.7301
0
LINE
8
BLACK
6
CONTINUOUS
10
97.3368
20
-84.7301
11
97.3656
21
-84.5852
0
LINE
8
BLACK
6
CONTINUOUS
10
97.3656
20
-84.5852
11
97.4222
21
-84.4487
0
LINE
8
BLACK
6
CONTINUOUS
10
97.4222
20
-84.4487
11
97.5042
21
-84.3259
0
LINE
8
BLACK
6
CONTINUOUS
10
97.5042
20
-84.3259
11
97.6087
21
-84.2214
0
LINE
8
BLACK
6
CONTINUOUS
10
97.6087
20
-84.2214
11
97.7315
21
-84.1394
0
LINE
8
BLACK
6
CONTINUOUS
10
97.7315
20
-84.1394
11
97.868
21
-84.0828
0
LINE
8
BLACK
6
CONTINUOUS
10
97.868
20
-84.0828
11
98.0129
21
-84.054
0
LINE
8
BLACK
6
CONTINUOUS
10
98.0129
20
-84.054
11
98.1607
21
-84.054
0
LINE
8
BLACK
6
CONTINUOUS
10
98.1607
20
-84.054
11
98.3056
21
-84.0828
0
LINE
8
BLACK
6
CONTINUOUS
10
105.621
20
-84.0828
11
105.757
21
-84.1394
0
LINE
8
BLACK
6
CONTINUOUS
10
105.757
20
-84.1394
11
105.88
21
-84.2214
0
LINE
8
BLACK
6
CONTINUOUS
10
105.88
20
-84.2214
11
105.985
21
-84.3259
0
LINE
8
BLACK
6
CONTINUOUS
10
105.985
20
-84.3259
11
106.067
21
-84.4487
0
LINE
8
BLACK
6
CONTINUOUS
10
106.067
20
-84.4487
11
106.123
21
-84.5852
0
LINE
8
BLACK
6
CONTINUOUS
10
106.123
20
-84.5852
11
106.152
21
-84.7301
0
LINE
8
BLACK
6
CONTINUOUS
10
106.152
20
-84.7301
11
106.152
21
-84.8779
0
LINE
8
BLACK
6
CONTINUOUS
10
106.152
20
-84.8779
11
106.123
21
-85.0228
0
LINE
8
BLACK
6
CONTINUOUS
10
106.123
20
-85.0228
11
106.067
21
-85.1593
0
LINE
8
BLACK
6
CONTINUOUS
10
106.067
20
-85.1593
11
105.985
21
-85.2821
0
LINE
8
BLACK
6
CONTINUOUS
10
105.985
20
-85.2821
11
105.88
21
-85.3866
0
LINE
8
BLACK
6
CONTINUOUS
10
105.88
20
-85.3866
11
105.757
21
-85.4686
0
LINE
8
BLACK
6
CONTINUOUS
10
105.757
20
-85.4686
11
105.621
21
-85.5252
0
LINE
8
BLACK
6
CONTINUOUS
10
105.621
20
-85.5252
11
105.476
21
-85.554
0
LINE
8
BLACK
6
CONTINUOUS
10
105.476
20
-85.554
11
105.328
21
-85.554
0
LINE
8
BLACK
6
CONTINUOUS
10
105.328
20
-85.554
11
105.183
21
-85.5252
0
LINE
8
BLACK
6
CONTINUOUS
10
105.183
20
-85.5252
11
105.047
21
-85.4686
0
LINE
8
BLACK
6
CONTINUOUS
10
105.047
20
-85.4686
11
104.924
21
-85.3866
0
LINE
8
BLACK
6
CONTINUOUS
10
104.924
20
-85.3866
11
104.819
21
-85.2821
0
LINE
8
BLACK
6
CONTINUOUS
10
104.819
20
-85.2821
11
104.737
21
-85.1593
0
LINE
8
BLACK
6
CONTINUOUS
10
104.737
20
-85.1593
11
104.681
21
-85.0228
0
LINE
8
BLACK
6
CONTINUOUS
10
104.681
20
-85.0228
11
104.652
21
-84.8779
0
LINE
8
BLACK
6
CONTINUOUS
10
104.652
20
-84.8779
11
104.652
21
-84.7301
0
LINE
8
BLACK
6
CONTINUOUS
10
104.652
20
-84.7301
11
104.681
21
-84.5852
0
LINE
8
BLACK
6
CONTINUOUS
10
104.681
20
-84.5852
11
104.737
21
-84.4487
0
LINE
8
BLACK
6
CONTINUOUS
10
104.737
20
-84.4487
11
104.819
21
-84.3259
0
LINE
8
BLACK
6
CONTINUOUS
10
104.819
20
-84.3259
11
104.924
21
-84.2214
0
LINE
8
BLACK
6
CONTINUOUS
10
104.924
20
-84.2214
11
105.047
21
-84.1394
0
LINE
8
BLACK
6
CONTINUOUS
10
105.047
20
-84.1394
11
105.183
21
-84.0828
0
LINE
8
BLACK
6
CONTINUOUS
10
105.183
20
-84.0828
11
105.328
21
-84.054
0
LINE
8
BLACK
6
CONTINUOUS
10
105.328
20
-84.054
11
105.476
21
-84.054
0
LINE
8
BLACK
6
CONTINUOUS
10
105.476
20
-84.054
11
105.621
21
-84.0828
0
LINE
8
BLACK
6
CONTINUOUS
10
88.4201
20
-84.5326
11
87.1701
21
-84.5326
0
LINE
8
BLACK
6
CONTINUOUS
10
87.1701
20
-84.5326
11
87.1701
21
-83.6326
0
LINE
8
BLACK
6
CONTINUOUS
10
87.1701
20
-83.6326
11
88.4201
21
-83.6326
0
LINE
8
BLACK
6
CONTINUOUS
10
88.4201
20
-83.6326
11
88.4201
21
-84.5326
0
LINE
8
BLACK
6
CONTINUOUS
10
96.4592
20
-84.2532
11
95.2092
21
-84.2532
0
LINE
8
BLACK
6
CONTINUOUS
10
95.2092
20
-84.2532
11
95.2092
21
-83.3532
0
LINE
8
BLACK
6
CONTINUOUS
10
95.2092
20
-83.3532
11
96.4592
21
-83.3532
0
LINE
8
BLACK
6
CONTINUOUS
10
96.4592
20
-83.3532
11
96.4592
21
-84.2532
0
LINE
8
BLACK
6
CONTINUOUS
10
122.159
20
-84.1649
11
120.909
21
-84.1649
0
LINE
8
BLACK
6
CONTINUOUS
10
120.909
20
-84.1649
11
120.909
21
-83.2649
0
LINE
8
BLACK
6
CONTINUOUS
10
120.909
20
-83.2649
11
122.159
21
-83.2649
0
LINE
8
BLACK
6
CONTINUOUS
10
122.159
20
-83.2649
11
122.159
21
-84.1649
0
LINE
8
BLACK
6
CONTINUOUS
10
92.9833
20
-83.9028
11
90.6333
21
-83.9028
0
LINE
8
BLACK
6
CONTINUOUS
10
90.6333
20
-83.9028
11
90.6333
21
-81.5528
0
LINE
8
BLACK
6
CONTINUOUS
10
90.6333
20
-81.5528
11
92.9833
21
-81.5528
0
LINE
8
BLACK
6
CONTINUOUS
10
92.9833
20
-81.5528
11
92.9833
21
-83.9028
0
LINE
8
BLACK
6
CONTINUOUS
10
111.064
20
-82.7816
11
109.814
21
-82.7816
0
LINE
8
BLACK
6
CONTINUOUS
10
109.814
20
-82.7816
11
109.814
21
-81.8816
0
LINE
8
BLACK
6
CONTINUOUS
10
109.814
20
-81.8816
11
111.064
21
-81.8816
0
LINE
8
BLACK
6
CONTINUOUS
10
111.064
20
-81.8816
11
111.064
21
-82.7816
0
LINE
8
BLACK
6
CONTINUOUS
10
88.4201
20
-82.4326
11
87.1701
21
-82.4326
0
LINE
8
BLACK
6
CONTINUOUS
10
87.1701
20
-82.4326
11
87.1701
21
-81.5326
0
LINE
8
BLACK
6
CONTINUOUS
10
87.1701
20
-81.5326
11
88.4201
21
-81.5326
0
LINE
8
BLACK
6
CONTINUOUS
10
88.4201
20
-81.5326
11
88.4201
21
-82.4326
0
LINE
8
BLACK
6
CONTINUOUS
10
96.4592
20
-82.1532
11
95.2092
21
-82.1532
0
LINE
8
BLACK
6
CONTINUOUS
10
95.2092
20
-82.1532
11
95.2092
21
-81.2532
0
LINE
8
BLACK
6
CONTINUOUS
10
95.2092
20
-81.2532
11
96.4592
21
-81.2532
0
LINE
8
BLACK
6
CONTINUOUS
10
96.4592
20
-81.2532
11
96.4592
21
-82.1532
0
LINE
8
BLACK
6
CONTINUOUS
10
121.513
20
-82.007
11
117.913
21
-82.007
0
LINE
8
BLACK
6
CONTINUOUS
10
117.913
20
-82.007
11
117.913
21
-80.807
0
LINE
8
BLACK
6
CONTINUOUS
10
117.913
20
-80.807
11
121.513
21
-80.807
0
LINE
8
BLACK
6
CONTINUOUS
10
121.513
20
-80.807
11
121.513
21
-82.007
0
LINE
8
BLACK
6
CONTINUOUS
10
115.513
20
-82.007
11
111.913
21
-82.007
0
LINE
8
BLACK
6
CONTINUOUS
10
111.913
20
-82.007
11
111.913
21
-80.807
0
LINE
8
BLACK
6
CONTINUOUS
10
111.913
20
-80.807
11
115.513
21
-80.807
0
LINE
8
BLACK
6
CONTINUOUS
10
115.513
20
-80.807
11
115.513
21
-82.007
0
LINE
8
BLACK
6
CONTINUOUS
10
104.833
20
-81.578
11
104.533
21
-81.578
0
LINE
8
BLACK
6
CONTINUOUS
10
104.533
20
-81.578
11
104.533
21
-80.578
0
LINE
8
BLACK
6
CONTINUOUS
10
104.533
20
-80.578
11
104.833
21
-80.578
0
LINE
8
BLACK
6
CONTINUOUS
10
104.833
20
-80.578
11
104.833
21
-81.578
0
LINE
8
BLACK
6
CONTINUOUS
10
98.7528
20
-81.578
11
98.4528
21
-81.578
0
LINE
8
BLACK
6
CONTINUOUS
10
98.4528
20
-81.578
11
98.4528
21
-80.578
0
LINE
8
BLACK
6
CONTINUOUS
10
98.4528
20
-80.578
11
98.7528
21
-80.578
0
LINE
8
BLACK
6
CONTINUOUS
10
98.7528
20
-80.578
11
98.7528
21
-81.578
0
LINE
8
BLACK
6
CONTINUOUS
10
91.4733
20
-80.8028
11
90.8733
21
-80.8028
0
LINE
8
BLACK
6
CONTINUOUS
10
90.8733
20
-80.8028
11
90.8733
21
-79.2528
0
LINE
8
BLACK
6
CONTINUOUS
10
90.8733
20
-79.2528
11
91.4733
21
-79.2528
0
LINE
8
BLACK
6
CONTINUOUS
10
91.4733
20
-79.2528
11
91.4733
21
-80.8028
0
LINE
8
BLACK
6
CONTINUOUS
10
94.0133
20
-80.8028
11
93.4133
21
-80.8028
0
LINE
8
BLACK
6
CONTINUOUS
10
93.4133
20
-80.8028
11
93.4133
21
-79.2528
0
LINE
8
BLACK
6
CONTINUOUS
10
93.4133
20
-79.2528
11
94.0133
21
-79.2528
0
LINE
8
BLACK
6
CONTINUOUS
10
94.0133
20
-79.2528
11
94.0133
21
-80.8028
0
LINE
8
BLACK
6
CONTINUOUS
10
92.7433
20
-80.8028
11
92.1433
21
-80.8028
0
LINE
8
BLACK
6
CONTINUOUS
10
92.1433
20
-80.8028
11
92.1433
21
-79.2528
0
LINE
8
BLACK
6
CONTINUOUS
10
92.1433
20
-79.2528
11
92.7433
21
-79.2528
0
LINE
8
BLACK
6
CONTINUOUS
10
92.7433
20
-79.2528
11
92.7433
21
-80.8028
0
LINE
8
BLACK
6
CONTINUOUS
10
90.2033
20
-80.8028
11
89.6033
21
-80.8028
0
LINE
8
BLACK
6
CONTINUOUS
10
89.6033
20
-80.8028
11
89.6033
21
-79.2528
0
LINE
8
BLACK
6
CONTINUOUS
10
89.6033
20
-79.2528
11
90.2033
21
-79.2528
0
LINE
8
BLACK
6
CONTINUOUS
10
90.2033
20
-79.2528
11
90.2033
21
-80.8028
0
LINE
8
BLACK
6
CONTINUOUS
10
111.064
20
-80.6816
11
109.814
21
-80.6816
0
LINE
8
BLACK
6
CONTINUOUS
10
109.814
20
-80.6816
11
109.814
21
-79.7816
0
LINE
8
BLACK
6
CONTINUOUS
10
109.814
20
-79.7816
11
111.064
21
-79.7816
0
LINE
8
BLACK
6
CONTINUOUS
10
111.064
20
-79.7816
11
111.064
21
-80.6816
0
LINE
8
BLACK
6
CONTINUOUS
10
88.4074
20
-80.5194
11
87.1574
21
-80.5194
0
LINE
8
BLACK
6
CONTINUOUS
10
87.1574
20
-80.5194
11
87.1574
21
-79.6194
0
LINE
8
BLACK
6
CONTINUOUS
10
87.1574
20
-79.6194
11
88.4074
21
-79.6194
0
LINE
8
BLACK
6
CONTINUOUS
10
88.4074
20
-79.6194
11
88.4074
21
-80.5194
0
LINE
8
BLACK
6
CONTINUOUS
10
96.4846
20
-80.4559
11
95.2346
21
-80.4559
0
LINE
8
BLACK
6
CONTINUOUS
10
95.2346
20
-80.4559
11
95.2346
21
-79.5559
0
LINE
8
BLACK
6
CONTINUOUS
10
95.2346
20
-79.5559
11
96.4846
21
-79.5559
0
LINE
8
BLACK
6
CONTINUOUS
10
96.4846
20
-79.5559
11
96.4846
21
-80.4559
0
LINE
8
BLACK
6
CONTINUOUS
10
103.043
20
-78.778
11
102.743
21
-78.778
0
LINE
8
BLACK
6
CONTINUOUS
10
102.743
20
-78.778
11
102.743
21
-77.878
0
LINE
8
BLACK
6
CONTINUOUS
10
102.743
20
-77.878
11
103.043
21
-77.878
0
LINE
8
BLACK
6
CONTINUOUS
10
103.043
20
-77.878
11
103.043
21
-78.778
0
LINE
8
BLACK
6
CONTINUOUS
10
101.043
20
-78.778
11
100.743
21
-78.778
0
LINE
8
BLACK
6
CONTINUOUS
10
100.743
20
-78.778
11
100.743
21
-77.878
0
LINE
8
BLACK
6
CONTINUOUS
10
100.743
20
-77.878
11
101.043
21
-77.878
0
LINE
8
BLACK
6
CONTINUOUS
10
101.043
20
-77.878
11
101.043
21
-78.778
0
LINE
8
BLACK
6
CONTINUOUS
10
100.543
20
-78.778
11
100.243
21
-78.778
0
LINE
8
BLACK
6
CONTINUOUS
10
100.243
20
-78.778
11
100.243
21
-77.878
0
LINE
8
BLACK
6
CONTINUOUS
10
100.243
20
-77.878
11
100.543
21
-77.878
0
LINE
8
BLACK
6
CONTINUOUS
10
100.543
20
-77.878
11
100.543
21
-78.778
0
LINE
8
BLACK
6
CONTINUOUS
10
100.043
20
-78.778
11
99.7428
21
-78.778
0
LINE
8
BLACK
6
CONTINUOUS
10
99.7428
20
-78.778
11
99.7428
21
-77.878
0
LINE
8
BLACK
6
CONTINUOUS
10
99.7428
20
-77.878
11
100.043
21
-77.878
0
LINE
8
BLACK
6
CONTINUOUS
10
100.043
20
-77.878
11
100.043
21
-78.778
0
LINE
8
BLACK
6
CONTINUOUS
10
104.043
20
-78.778
11
103.743
21
-78.778
0
LINE
8
BLACK
6
CONTINUOUS
10
103.743
20
-78.778
11
103.743
21
-77.878
0
LINE
8
BLACK
6
CONTINUOUS
10
103.743
20
-77.878
11
104.043
21
-77.878
0
LINE
8
BLACK
6
CONTINUOUS
10
104.043
20
-77.878
11
104.043
21
-78.778
0
LINE
8
BLACK
6
CONTINUOUS
10
103.543
20
-78.778
11
103.243
21
-78.778
0
LINE
8
BLACK
6
CONTINUOUS
10
103.243
20
-78.778
11
103.243
21
-77.878
0
LINE
8
BLACK
6
CONTINUOUS
10
103.243
20
-77.878
11
103.543
21
-77.878
0
LINE
8
BLACK
6
CONTINUOUS
10
103.543
20
-77.878
11
103.543
21
-78.778
0
LINE
8
BLACK
6
CONTINUOUS
10
99.5428
20
-78.778
11
99.2428
21
-78.778
0
LINE
8
BLACK
6
CONTINUOUS
10
99.2428
20
-78.778
11
99.2428
21
-77.878
0
LINE
8
BLACK
6
CONTINUOUS
10
99.2428
20
-77.878
11
99.5428
21
-77.878
0
LINE
8
BLACK
6
CONTINUOUS
10
99.5428
20
-77.878
11
99.5428
21
-78.778
0
LINE
8
BLACK
6
CONTINUOUS
10
102.543
20
-78.778
11
102.243
21
-78.778
0
LINE
8
BLACK
6
CONTINUOUS
10
102.243
20
-78.778
11
102.243
21
-77.878
0
LINE
8
BLACK
6
CONTINUOUS
10
102.243
20
-77.878
11
102.543
21
-77.878
0
LINE
8
BLACK
6
CONTINUOUS
10
102.543
20
-77.878
11
102.543
21
-78.778
0
LINE
8
BLACK
6
CONTINUOUS
10
102.043
20
-78.778
11
101.743
21
-78.778
0
LINE
8
BLACK
6
CONTINUOUS
10
101.743
20
-78.778
11
101.743
21
-77.878
0
LINE
8
BLACK
6
CONTINUOUS
10
101.743
20
-77.878
11
102.043
21
-77.878
0
LINE
8
BLACK
6
CONTINUOUS
10
102.043
20
-77.878
11
102.043
21
-78.778
0
LINE
8
BLACK
6
CONTINUOUS
10
101.543
20
-78.778
11
101.243
21
-78.778
0
LINE
8
BLACK
6
CONTINUOUS
10
101.243
20
-78.778
11
101.243
21
-77.878
0
LINE
8
BLACK
6
CONTINUOUS
10
101.243
20
-77.878
11
101.543
21
-77.878
0
LINE
8
BLACK
6
CONTINUOUS
10
101.543
20
-77.878
11
101.543
21
-78.778
0
LINE
8
BLACK
6
CONTINUOUS
10
94.6208
20
-77.8018
11
93.5969
21
-78.5187
0
LINE
8
BLACK
6
CONTINUOUS
10
93.5969
20
-78.5187
11
93.0807
21
-77.7815
0
LINE
8
BLACK
6
CONTINUOUS
10
93.0807
20
-77.7815
11
94.1046
21
-77.0645
0
LINE
8
BLACK
6
CONTINUOUS
10
94.1046
20
-77.0645
11
94.6208
21
-77.8018
0
LINE
8
BLACK
6
CONTINUOUS
10
88.4074
20
-78.4194
11
87.1574
21
-78.4194
0
LINE
8
BLACK
6
CONTINUOUS
10
87.1574
20
-78.4194
11
87.1574
21
-77.5194
0
LINE
8
BLACK
6
CONTINUOUS
10
87.1574
20
-77.5194
11
88.4074
21
-77.5194
0
LINE
8
BLACK
6
CONTINUOUS
10
88.4074
20
-77.5194
11
88.4074
21
-78.4194
0
LINE
8
BLACK
6
CONTINUOUS
10
96.4846
20
-78.3559
11
95.2346
21
-78.3559
0
LINE
8
BLACK
6
CONTINUOUS
10
95.2346
20
-78.3559
11
95.2346
21
-77.4559
0
LINE
8
BLACK
6
CONTINUOUS
10
95.2346
20
-77.4559
11
96.4846
21
-77.4559
0
LINE
8
BLACK
6
CONTINUOUS
10
96.4846
20
-77.4559
11
96.4846
21
-78.3559
0
LINE
8
BLACK
6
CONTINUOUS
10
108.941
20
-77.2365
11
107.34
21
-77.2365
0
LINE
8
BLACK
6
CONTINUOUS
10
107.34
20
-77.2365
11
107.34
21
-75.0365
0
LINE
8
BLACK
6
CONTINUOUS
10
107.34
20
-75.0365
11
108.941
21
-75.0365
0
LINE
8
BLACK
6
CONTINUOUS
10
108.941
20
-75.0365
11
108.941
21
-77.2365
0
LINE
8
BLACK
6
CONTINUOUS
10
111.48
20
-77.2365
11
109.88
21
-77.2365
0
LINE
8
BLACK
6
CONTINUOUS
10
109.88
20
-77.2365
11
109.88
21
-75.0365
0
LINE
8
BLACK
6
CONTINUOUS
10
109.88
20
-75.0365
11
111.48
21
-75.0365
0
LINE
8
BLACK
6
CONTINUOUS
10
111.48
20
-75.0365
11
111.48
21
-77.2365
0
LINE
8
BLACK
6
CONTINUOUS
10
90.6198
20
-76.9976
11
86.5198
21
-76.9976
0
LINE
8
BLACK
6
CONTINUOUS
10
86.5198
20
-76.9976
11
86.5198
21
-75.0976
0
LINE
8
BLACK
6
CONTINUOUS
10
86.5198
20
-75.0976
11
90.6198
21
-75.0976
0
LINE
8
BLACK
6
CONTINUOUS
10
90.6198
20
-75.0976
11
90.6198
21
-76.9976
0
LINE
8
BLACK
6
CONTINUOUS
10
117.062
20
-76.8825
11
115.538
21
-76.8825
0
LINE
8
BLACK
6
CONTINUOUS
10
115.538
20
-76.8825
11
115.538
21
-74.8825
0
LINE
8
BLACK
6
CONTINUOUS
10
115.538
20
-74.8825
11
117.062
21
-74.8825
0
LINE
8
BLACK
6
CONTINUOUS
10
117.062
20
-74.8825
11
117.062
21
-76.8825
0
LINE
8
BLACK
6
CONTINUOUS
10
121.062
20
-76.8825
11
119.538
21
-76.8825
0
LINE
8
BLACK
6
CONTINUOUS
10
119.538
20
-76.8825
11
119.538
21
-74.8825
0
LINE
8
BLACK
6
CONTINUOUS
10
119.538
20
-74.8825
11
121.062
21
-74.8825
0
LINE
8
BLACK
6
CONTINUOUS
10
121.062
20
-74.8825
11
121.062
21
-76.8825
0
LINE
8
BLACK
6
CONTINUOUS
10
93.4163
20
-76.0815
11
92.3924
21
-76.7985
0
LINE
8
BLACK
6
CONTINUOUS
10
92.3924
20
-76.7985
11
91.8761
21
-76.0613
0
LINE
8
BLACK
6
CONTINUOUS
10
91.8761
20
-76.0613
11
92.9001
21
-75.3443
0
LINE
8
BLACK
6
CONTINUOUS
10
92.9001
20
-75.3443
11
93.4163
21
-76.0815
0
LINE
8
BLACK
6
CONTINUOUS
10
98.6727
20
-75.3169
11
97.5527
21
-75.3169
0
LINE
8
BLACK
6
CONTINUOUS
10
97.5527
20
-75.3169
11
97.5527
21
-71.9269
0
LINE
8
BLACK
6
CONTINUOUS
10
97.5527
20
-71.9269
11
98.6727
21
-71.9269
0
LINE
8
BLACK
6
CONTINUOUS
10
98.6727
20
-71.9269
11
98.6727
21
-75.3169
0
LINE
8
BLACK
6
CONTINUOUS
10
101.173
20
-75.3169
11
100.053
21
-75.3169
0
LINE
8
BLACK
6
CONTINUOUS
10
100.053
20
-75.3169
11
100.053
21
-71.9269
0
LINE
8
BLACK
6
CONTINUOUS
10
100.053
20
-71.9269
11
101.173
21
-71.9269
0
LINE
8
BLACK
6
CONTINUOUS
10
101.173
20
-71.9269
11
101.173
21
-75.3169
0
LINE
8
BLACK
6
CONTINUOUS
10
103.173
20
-75.3169
11
102.053
21
-75.3169
0
LINE
8
BLACK
6
CONTINUOUS
10
102.053
20
-75.3169
11
102.053
21
-71.9269
0
LINE
8
BLACK
6
CONTINUOUS
10
102.053
20
-71.9269
11
103.173
21
-71.9269
0
LINE
8
BLACK
6
CONTINUOUS
10
103.173
20
-71.9269
11
103.173
21
-75.3169
0
LINE
8
BLACK
6
CONTINUOUS
10
105.673
20
-75.3169
11
104.553
21
-75.3169
0
LINE
8
BLACK
6
CONTINUOUS
10
104.553
20
-75.3169
11
104.553
21
-71.9269
0
LINE
8
BLACK
6
CONTINUOUS
10
104.553
20
-71.9269
11
105.673
21
-71.9269
0
LINE
8
BLACK
6
CONTINUOUS
10
105.673
20
-71.9269
11
105.673
21
-75.3169
0
LINE
8
BLACK
6
CONTINUOUS
10
116.25
20
-73.55
11
112.15
21
-73.55
0
LINE
8
BLACK
6
CONTINUOUS
10
112.15
20
-73.55
11
112.15
21
-71.65
0
LINE
8
BLACK
6
CONTINUOUS
10
112.15
20
-71.65
11
116.25
21
-71.65
0
LINE
8
BLACK
6
CONTINUOUS
10
116.25
20
-71.65
11
116.25
21
-73.55
0
LINE
8
BLACK
6
CONTINUOUS
10
122.178
20
-73.256
11
118.622
21
-73.256
0
LINE
8
BLACK
6
CONTINUOUS
10
118.622
20
-73.256
11
118.622
21
-70.716
0
LINE
8
BLACK
6
CONTINUOUS
10
118.622
20
-70.716
11
122.178
21
-70.716
0
LINE
8
BLACK
6
CONTINUOUS
10
122.178
20
-70.716
11
122.178
21
-73.256
0
LINE
8
BLACK
6
CONTINUOUS
10
90.6198
20
-72.5976
11
86.5198
21
-72.5976
0
LINE
8
BLACK
6
CONTINUOUS
10
86.5198
20
-72.5976
11
86.5198
21
-70.6976
0
LINE
8
BLACK
6
CONTINUOUS
10
86.5198
20
-70.6976
11
90.6198
21
-70.6976
0
LINE
8
BLACK
6
CONTINUOUS
10
90.6198
20
-70.6976
11
90.6198
21
-72.5976
0
LINE
8
BLACK
6
CONTINUOUS
10
110.503
20
-71.0519
11
108.063
21
-71.0519
0
LINE
8
BLACK
6
CONTINUOUS
10
108.063
20
-71.0519
11
108.063
21
-68.8319
0
LINE
8
BLACK
6
CONTINUOUS
10
108.063
20
-68.8319
11
110.503
21
-68.8319
0
LINE
8
BLACK
6
CONTINUOUS
10
110.503
20
-68.8319
11
110.503
21
-71.0519
0
LINE
8
BLACK
6
CONTINUOUS
10
95.1627
20
-71.0519
11
92.7227
21
-71.0519
0
LINE
8
BLACK
6
CONTINUOUS
10
92.7227
20
-71.0519
11
92.7227
21
-68.8319
0
LINE
8
BLACK
6
CONTINUOUS
10
92.7227
20
-68.8319
11
95.1627
21
-68.8319
0
LINE
8
BLACK
6
CONTINUOUS
10
95.1627
20
-68.8319
11
95.1627
21
-71.0519
0
LINE
8
BLACK
6
CONTINUOUS
10
87.7824
20
-70.1929
11
86.2584
21
-70.1929
0
LINE
8
BLACK
6
CONTINUOUS
10
86.2584
20
-70.1929
11
86.2584
21
-68.2879
0
LINE
8
BLACK
6
CONTINUOUS
10
86.2584
20
-68.2879
11
87.7824
21
-68.2879
0
LINE
8
BLACK
6
CONTINUOUS
10
87.7824
20
-68.2879
11
87.7824
21
-70.1929
0
LINE
8
BLACK
6
CONTINUOUS
10
91.3384
20
-70.1929
11
89.8144
21
-70.1929
0
LINE
8
BLACK
6
CONTINUOUS
10
89.8144
20
-70.1929
11
89.8144
21
-68.2879
0
LINE
8
BLACK
6
CONTINUOUS
10
89.8144
20
-68.2879
11
91.3384
21
-68.2879
0
LINE
8
BLACK
6
CONTINUOUS
10
91.3384
20
-68.2879
11
91.3384
21
-70.1929
0
LINE
8
BLACK
6
CONTINUOUS
10
116.25
20
-69.15
11
112.15
21
-69.15
0
LINE
8
BLACK
6
CONTINUOUS
10
112.15
20
-69.15
11
112.15
21
-67.25
0
LINE
8
BLACK
6
CONTINUOUS
10
112.15
20
-67.25
11
116.25
21
-67.25
0
LINE
8
BLACK
6
CONTINUOUS
10
116.25
20
-67.25
11
116.25
21
-69.15
0
LINE
8
BLACK
6
CONTINUOUS
10
122.178
20
-68.684
11
118.622
21
-68.684
0
LINE
8
BLACK
6
CONTINUOUS
10
118.622
20
-68.684
11
118.622
21
-66.144
0
LINE
8
BLACK
6
CONTINUOUS
10
118.622
20
-66.144
11
122.178
21
-66.144
0
LINE
8
BLACK
6
CONTINUOUS
10
122.178
20
-66.144
11
122.178
21
-68.684
0
LINE
8
BLACK
6
CONTINUOUS
10
87.7824
20
-67.5767
11
86.2584
21
-67.5767
0
LINE
8
BLACK
6
CONTINUOUS
10
86.2584
20
-67.5767
11
86.2584
21
-65.6717
0
LINE
8
BLACK
6
CONTINUOUS
10
86.2584
20
-65.6717
11
87.7824
21
-65.6717
0
LINE
8
BLACK
6
CONTINUOUS
10
87.7824
20
-65.6717
11
87.7824
21
-67.5767
0
LINE
8
BLACK
6
CONTINUOUS
10
91.3384
20
-67.5767
11
89.8144
21
-67.5767
0
LINE
8
BLACK
6
CONTINUOUS
10
89.8144
20
-67.5767
11
89.8144
21
-65.6717
0
LINE
8
BLACK
6
CONTINUOUS
10
89.8144
20
-65.6717
11
91.3384
21
-65.6717
0
LINE
8
BLACK
6
CONTINUOUS
10
91.3384
20
-65.6717
11
91.3384
21
-67.5767
0
LINE
8
BLACK
6
CONTINUOUS
10
105.964
20
-64.9803
11
106.146
21
-65.0557
0
LINE
8
BLACK
6
CONTINUOUS
10
106.146
20
-65.0557
11
106.31
21
-65.1651
0
LINE
8
BLACK
6
CONTINUOUS
10
106.31
20
-65.1651
11
106.449
21
-65.3044
0
LINE
8
BLACK
6
CONTINUOUS
10
106.449
20
-65.3044
11
106.559
21
-65.4682
0
LINE
8
BLACK
6
CONTINUOUS
10
106.559
20
-65.4682
11
106.634
21
-65.6502
0
LINE
8
BLACK
6
CONTINUOUS
10
106.634
20
-65.6502
11
106.673
21
-65.8434
0
LINE
8
BLACK
6
CONTINUOUS
10
106.673
20
-65.8434
11
106.673
21
-66.0404
0
LINE
8
BLACK
6
CONTINUOUS
10
106.673
20
-66.0404
11
106.634
21
-66.2336
0
LINE
8
BLACK
6
CONTINUOUS
10
106.634
20
-66.2336
11
106.559
21
-66.4156
0
LINE
8
BLACK
6
CONTINUOUS
10
106.559
20
-66.4156
11
106.449
21
-66.5794
0
LINE
8
BLACK
6
CONTINUOUS
10
106.449
20
-66.5794
11
106.31
21
-66.7187
0
LINE
8
BLACK
6
CONTINUOUS
10
106.31
20
-66.7187
11
106.146
21
-66.8281
0
LINE
8
BLACK
6
CONTINUOUS
10
106.146
20
-66.8281
11
105.964
21
-66.9035
0
LINE
8
BLACK
6
CONTINUOUS
10
105.964
20
-66.9035
11
105.771
21
-66.9419
0
LINE
8
BLACK
6
CONTINUOUS
10
105.771
20
-66.9419
11
105.574
21
-66.9419
0
LINE
8
BLACK
6
CONTINUOUS
10
105.574
20
-66.9419
11
105.381
21
-66.9035
0
LINE
8
BLACK
6
CONTINUOUS
10
105.381
20
-66.9035
11
105.199
21
-66.8281
0
LINE
8
BLACK
6
CONTINUOUS
10
105.199
20
-66.8281
11
105.035
21
-66.7187
0
LINE
8
BLACK
6
CONTINUOUS
10
105.035
20
-66.7187
11
104.896
21
-66.5794
0
LINE
8
BLACK
6
CONTINUOUS
10
104.896
20
-66.5794
11
104.787
21
-66.4156
0
LINE
8
BLACK
6
CONTINUOUS
10
104.787
20
-66.4156
11
104.711
21
-66.2336
0
LINE
8
BLACK
6
CONTINUOUS
10
104.711
20
-66.2336
11
104.673
21
-66.0404
0
LINE
8
BLACK
6
CONTINUOUS
10
104.673
20
-66.0404
11
104.673
21
-65.8434
0
LINE
8
BLACK
6
CONTINUOUS
10
104.673
20
-65.8434
11
104.711
21
-65.6502
0
LINE
8
BLACK
6
CONTINUOUS
10
104.711
20
-65.6502
11
104.787
21
-65.4682
0
LINE
8
BLACK
6
CONTINUOUS
10
104.787
20
-65.4682
11
104.896
21
-65.3044
0
LINE
8
BLACK
6
CONTINUOUS
10
104.896
20
-65.3044
11
105.035
21
-65.1651
0
LINE
8
BLACK
6
CONTINUOUS
10
105.035
20
-65.1651
11
105.199
21
-65.0557
0
LINE
8
BLACK
6
CONTINUOUS
10
105.199
20
-65.0557
11
105.381
21
-64.9803
0
LINE
8
BLACK
6
CONTINUOUS
10
105.381
20
-64.9803
11
105.574
21
-64.9419
0
LINE
8
BLACK
6
CONTINUOUS
10
105.574
20
-64.9419
11
105.771
21
-64.9419
0
LINE
8
BLACK
6
CONTINUOUS
10
105.771
20
-64.9419
11
105.964
21
-64.9803
0
LINE
8
BLACK
6
CONTINUOUS
10
97.8444
20
-64.9803
11
98.0264
21
-65.0557
0
LINE
8
BLACK
6
CONTINUOUS
10
98.0264
20
-65.0557
11
98.1902
21
-65.1651
0
LINE
8
BLACK
6
CONTINUOUS
10
98.1902
20
-65.1651
11
98.3295
21
-65.3044
0
LINE
8
BLACK
6
CONTINUOUS
10
98.3295
20
-65.3044
11
98.4389
21
-65.4682
0
LINE
8
BLACK
6
CONTINUOUS
10
98.4389
20
-65.4682
11
98.5143
21
-65.6502
0
LINE
8
BLACK
6
CONTINUOUS
10
98.5143
20
-65.6502
11
98.5527
21
-65.8434
0
LINE
8
BLACK
6
CONTINUOUS
10
98.5527
20
-65.8434
11
98.5527
21
-66.0404
0
LINE
8
BLACK
6
CONTINUOUS
10
98.5527
20
-66.0404
11
98.5143
21
-66.2336
0
LINE
8
BLACK
6
CONTINUOUS
10
98.5143
20
-66.2336
11
98.4389
21
-66.4156
0
LINE
8
BLACK
6
CONTINUOUS
10
98.4389
20
-66.4156
11
98.3295
21
-66.5794
0
LINE
8
BLACK
6
CONTINUOUS
10
98.3295
20
-66.5794
11
98.1902
21
-66.7187
0
LINE
8
BLACK
6
CONTINUOUS
10
98.1902
20
-66.7187
11
98.0264
21
-66.8281
0
LINE
8
BLACK
6
CONTINUOUS
10
98.0264
20
-66.8281
11
97.8444
21
-66.9035
0
LINE
8
BLACK
6
CONTINUOUS
10
97.8444
20
-66.9035
11
97.6512
21
-66.9419
0
LINE
8
BLACK
6
CONTINUOUS
10
97.6512
20
-66.9419
11
97.4542
21
-66.9419
0
LINE
8
BLACK
6
CONTINUOUS
10
97.4542
20
-66.9419
11
97.261
21
-66.9035
0
LINE
8
BLACK
6
CONTINUOUS
10
97.261
20
-66.9035
11
97.079
21
-66.8281
0
LINE
8
BLACK
6
CONTINUOUS
10
97.079
20
-66.8281
11
96.9152
21
-66.7187
0
LINE
8
BLACK
6
CONTINUOUS
10
96.9152
20
-66.7187
11
96.7759
21
-66.5794
0
LINE
8
BLACK
6
CONTINUOUS
10
96.7759
20
-66.5794
11
96.6665
21
-66.4156
0
LINE
8
BLACK
6
CONTINUOUS
10
96.6665
20
-66.4156
11
96.5911
21
-66.2336
0
LINE
8
BLACK
6
CONTINUOUS
10
96.5911
20
-66.2336
11
96.5527
21
-66.0404
0
LINE
8
BLACK
6
CONTINUOUS
10
96.5527
20
-66.0404
11
96.5527
21
-65.8434
0
LINE
8
BLACK
6
CONTINUOUS
10
96.5527
20
-65.8434
11
96.5911
21
-65.6502
0
LINE
8
BLACK
6
CONTINUOUS
10
96.5911
20
-65.6502
11
96.6665
21
-65.4682
0
LINE
8
BLACK
6
CONTINUOUS
10
96.6665
20
-65.4682
11
96.7759
21
-65.3044
0
LINE
8
BLACK
6
CONTINUOUS
10
96.7759
20
-65.3044
11
96.9152
21
-65.1651
0
LINE
8
BLACK
6
CONTINUOUS
10
96.9152
20
-65.1651
11
97.079
21
-65.0557
0
LINE
8
BLACK
6
CONTINUOUS
10
97.079
20
-65.0557
11
97.261
21
-64.9803
0
LINE
8
BLACK
6
CONTINUOUS
10
97.261
20
-64.9803
11
97.4542
21
-64.9419
0
LINE
8
BLACK
6
CONTINUOUS
10
97.4542
20
-64.9419
11
97.6512
21
-64.9419
0
LINE
8
BLACK
6
CONTINUOUS
10
97.6512
20
-64.9419
11
97.8444
21
-64.9803
0
LINE
8
BLACK
6
CONTINUOUS
10
115.747
20
-64.4436
11
114.047
21
-64.4436
0
LINE
8
BLACK
6
CONTINUOUS
10
114.047
20
-64.4436
11
114.047
21
-61.7436
0
LINE
8
BLACK
6
CONTINUOUS
10
114.047
20
-61.7436
11
115.747
21
-61.7436
0
LINE
8
BLACK
6
CONTINUOUS
10
115.747
20
-61.7436
11
115.747
21
-64.4436
0
LINE
8
BLACK
6
CONTINUOUS
10
113.207
20
-64.4436
11
111.507
21
-64.4436
0
LINE
8
BLACK
6
CONTINUOUS
10
111.507
20
-64.4436
11
111.507
21
-61.7436
0
LINE
8
BLACK
6
CONTINUOUS
10
111.507
20
-61.7436
11
113.207
21
-61.7436
0
LINE
8
BLACK
6
CONTINUOUS
10
113.207
20
-61.7436
11
113.207
21
-64.4436
0
LINE
8
BLACK
6
CONTINUOUS
10
120.154
20
-61.5732
11
120.336
21
-61.6486
0
LINE
8
BLACK
6
CONTINUOUS
10
120.336
20
-61.6486
11
120.5
21
-61.758
0
LINE
8
BLACK
6
CONTINUOUS
10
120.5
20
-61.758
11
120.639
21
-61.8973
0
LINE
8
BLACK
6
CONTINUOUS
10
120.639
20
-61.8973
11
120.749
21
-62.0611
0
LINE
8
BLACK
6
CONTINUOUS
10
120.749
20
-62.0611
11
120.824
21
-62.2431
0
LINE
8
BLACK
6
CONTINUOUS
10
120.824
20
-62.2431
11
120.863
21
-62.4363
0
LINE
8
BLACK
6
CONTINUOUS
10
120.863
20
-62.4363
11
120.863
21
-62.6333
0
LINE
8
BLACK
6
CONTINUOUS
10
120.863
20
-62.6333
11
120.824
21
-62.8265
0
LINE
8
BLACK
6
CONTINUOUS
10
120.824
20
-62.8265
11
120.749
21
-63.0085
0
LINE
8
BLACK
6
CONTINUOUS
10
120.749
20
-63.0085
11
120.639
21
-63.1723
0
LINE
8
BLACK
6
CONTINUOUS
10
120.639
20
-63.1723
11
120.5
21
-63.3116
0
LINE
8
BLACK
6
CONTINUOUS
10
120.5
20
-63.3116
11
120.336
21
-63.421
0
LINE
8
BLACK
6
CONTINUOUS
10
120.336
20
-63.421
11
120.154
21
-63.4964
0
LINE
8
BLACK
6
CONTINUOUS
10
120.154
20
-63.4964
11
119.961
21
-63.5348
0
LINE
8
BLACK
6
CONTINUOUS
10
119.961
20
-63.5348
11
119.764
21
-63.5348
0
LINE
8
BLACK
6
CONTINUOUS
10
119.764
20
-63.5348
11
119.571
21
-63.4964
0
LINE
8
BLACK
6
CONTINUOUS
10
119.571
20
-63.4964
11
119.389
21
-63.421
0
LINE
8
BLACK
6
CONTINUOUS
10
119.389
20
-63.421
11
119.225
21
-63.3116
0
LINE
8
BLACK
6
CONTINUOUS
10
119.225
20
-63.3116
11
119.086
21
-63.1723
0
LINE
8
BLACK
6
CONTINUOUS
10
119.086
20
-63.1723
11
118.976
21
-63.0085
0
LINE
8
BLACK
6
CONTINUOUS
10
118.976
20
-63.0085
11
118.901
21
-62.8265
0
LINE
8
BLACK
6
CONTINUOUS
10
118.901
20
-62.8265
11
118.863
21
-62.6333
0
LINE
8
BLACK
6
CONTINUOUS
10
118.863
20
-62.6333
11
118.863
21
-62.4363
0
LINE
8
BLACK
6
CONTINUOUS
10
118.863
20
-62.4363
11
118.901
21
-62.2431
0
LINE
8
BLACK
6
CONTINUOUS
10
118.901
20
-62.2431
11
118.976
21
-62.0611
0
LINE
8
BLACK
6
CONTINUOUS
10
118.976
20
-62.0611
11
119.086
21
-61.8973
0
LINE
8
BLACK
6
CONTINUOUS
10
119.086
20
-61.8973
11
119.225
21
-61.758
0
LINE
8
BLACK
6
CONTINUOUS
10
119.225
20
-61.758
11
119.389
21
-61.6486
0
LINE
8
BLACK
6
CONTINUOUS
10
119.389
20
-61.6486
11
119.571
21
-61.5732
0
LINE
8
BLACK
6
CONTINUOUS
10
119.571
20
-61.5732
11
119.764
21
-61.5348
0
LINE
8
BLACK
6
CONTINUOUS
10
119.764
20
-61.5348
11
119.961
21
-61.5348
0
LINE
8
BLACK
6
CONTINUOUS
10
119.961
20
-61.5348
11
120.154
21
-61.5732
0
LINE
8
BLACK
6
CONTINUOUS
10
89.1409
20
-61.5732
11
89.3229
21
-61.6486
0
LINE
8
BLACK
6
CONTINUOUS
10
89.3229
20
-61.6486
11
89.4867
21
-61.758
0
LINE
8
BLACK
6
CONTINUOUS
10
89.4867
20
-61.758
11
89.626
21
-61.8973
0
LINE
8
BLACK
6
CONTINUOUS
10
89.626
20
-61.8973
11
89.7354
21
-62.0611
0
LINE
8
BLACK
6
CONTINUOUS
10
89.7354
20
-62.0611
11
89.8108
21
-62.2431
0
LINE
8
BLACK
6
CONTINUOUS
10
89.8108
20
-62.2431
11
89.8492
21
-62.4363
0
LINE
8
BLACK
6
CONTINUOUS
10
89.8492
20
-62.4363
11
89.8492
21
-62.6333
0
LINE
8
BLACK
6
CONTINUOUS
10
89.8492
20
-62.6333
11
89.8108
21
-62.8265
0
LINE
8
BLACK
6
CONTINUOUS
10
89.8108
20
-62.8265
11
89.7354
21
-63.0085
0
LINE
8
BLACK
6
CONTINUOUS
10
89.7354
20
-63.0085
11
89.626
21
-63.1723
0
LINE
8
BLACK
6
CONTINUOUS
10
89.626
20
-63.1723
11
89.4867
21
-63.3116
0
LINE
8
BLACK
6
CONTINUOUS
10
89.4867
20
-63.3116
11
89.3229
21
-63.421
0
LINE
8
BLACK
6
CONTINUOUS
10
89.3229
20
-63.421
11
89.1409
21
-63.4964
0
LINE
8
BLACK
6
CONTINUOUS
10
89.1409
20
-63.4964
11
88.9477
21
-63.5348
0
LINE
8
BLACK
6
CONTINUOUS
10
88.9477
20
-63.5348
11
88.7507
21
-63.5348
0
LINE
8
BLACK
6
CONTINUOUS
10
88.7507
20
-63.5348
11
88.5575
21
-63.4964
0
LINE
8
BLACK
6
CONTINUOUS
10
88.5575
20
-63.4964
11
88.3755
21
-63.421
0
LINE
8
BLACK
6
CONTINUOUS
10
88.3755
20
-63.421
11
88.2117
21
-63.3116
0
LINE
8
BLACK
6
CONTINUOUS
10
88.2117
20
-63.3116
11
88.0724
21
-63.1723
0
LINE
8
BLACK
6
CONTINUOUS
10
88.0724
20
-63.1723
11
87.963
21
-63.0085
0
LINE
8
BLACK
6
CONTINUOUS
10
87.963
20
-63.0085
11
87.8876
21
-62.8265
0
LINE
8
BLACK
6
CONTINUOUS
10
87.8876
20
-62.8265
11
87.8492
21
-62.6333
0
LINE
8
BLACK
6
CONTINUOUS
10
87.8492
20
-62.6333
11
87.8492
21
-62.4363
0
LINE
8
BLACK
6
CONTINUOUS
10
87.8492
20
-62.4363
11
87.8876
21
-62.2431
0
LINE
8
BLACK
6
CONTINUOUS
10
87.8876
20
-62.2431
11
87.963
21
-62.0611
0
LINE
8
BLACK
6
CONTINUOUS
10
87.963
20
-62.0611
11
88.0724
21
-61.8973
0
LINE
8
BLACK
6
CONTINUOUS
10
88.0724
20
-61.8973
11
88.2117
21
-61.758
0
LINE
8
BLACK
6
CONTINUOUS
10
88.2117
20
-61.758
11
88.3755
21
-61.6486
0
LINE
8
BLACK
6
CONTINUOUS
10
88.3755
20
-61.6486
11
88.5575
21
-61.5732
0
LINE
8
BLACK
6
CONTINUOUS
10
88.5575
20
-61.5732
11
88.7507
21
-61.5348
0
LINE
8
BLACK
6
CONTINUOUS
10
88.7507
20
-61.5348
11
88.9477
21
-61.5348
0
LINE
8
BLACK
6
CONTINUOUS
10
88.9477
20
-61.5348
11
89.1409
21
-61.5732
0
LINE
8
BLACK
6
CONTINUOUS
10
112.532
20
-60.0667
11
112.641
21
-60.1119
0
LINE
8
BLACK
6
CONTINUOUS
10
112.641
20
-60.1119
11
112.739
21
-60.1776
0
LINE
8
BLACK
6
CONTINUOUS
10
112.739
20
-60.1776
11
112.823
21
-60.2611
0
LINE
8
BLACK
6
CONTINUOUS
10
112.823
20
-60.2611
11
112.889
21
-60.3594
0
LINE
8
BLACK
6
CONTINUOUS
10
112.889
20
-60.3594
11
112.934
21
-60.4686
0
LINE
8
BLACK
6
CONTINUOUS
10
112.934
20
-60.4686
11
112.957
21
-60.5845
0
LINE
8
BLACK
6
CONTINUOUS
10
112.957
20
-60.5845
11
112.957
21
-60.7027
0
LINE
8
BLACK
6
CONTINUOUS
10
112.957
20
-60.7027
11
112.934
21
-60.8186
0
LINE
8
BLACK
6
CONTINUOUS
10
112.934
20
-60.8186
11
112.889
21
-60.9278
0
LINE
8
BLACK
6
CONTINUOUS
10
112.889
20
-60.9278
11
112.823
21
-61.0261
0
LINE
8
BLACK
6
CONTINUOUS
10
112.823
20
-61.0261
11
112.739
21
-61.1096
0
LINE
8
BLACK
6
CONTINUOUS
10
112.739
20
-61.1096
11
112.641
21
-61.1753
0
LINE
8
BLACK
6
CONTINUOUS
10
112.641
20
-61.1753
11
112.532
21
-61.2205
0
LINE
8
BLACK
6
CONTINUOUS
10
112.532
20
-61.2205
11
112.416
21
-61.2436
0
LINE
8
BLACK
6
CONTINUOUS
10
112.416
20
-61.2436
11
112.298
21
-61.2436
0
LINE
8
BLACK
6
CONTINUOUS
10
112.298
20
-61.2436
11
112.182
21
-61.2205
0
LINE
8
BLACK
6
CONTINUOUS
10
112.182
20
-61.2205
11
112.073
21
-61.1753
0
LINE
8
BLACK
6
CONTINUOUS
10
112.073
20
-61.1753
11
111.974
21
-61.1096
0
LINE
8
BLACK
6
CONTINUOUS
10
111.974
20
-61.1096
11
111.891
21
-61.0261
0
LINE
8
BLACK
6
CONTINUOUS
10
111.891
20
-61.0261
11
111.825
21
-60.9278
0
LINE
8
BLACK
6
CONTINUOUS
10
111.825
20
-60.9278
11
111.78
21
-60.8186
0
LINE
8
BLACK
6
CONTINUOUS
10
111.78
20
-60.8186
11
111.757
21
-60.7027
0
LINE
8
BLACK
6
CONTINUOUS
10
111.757
20
-60.7027
11
111.757
21
-60.5845
0
LINE
8
BLACK
6
CONTINUOUS
10
111.757
20
-60.5845
11
111.78
21
-60.4686
0
LINE
8
BLACK
6
CONTINUOUS
10
111.78
20
-60.4686
11
111.825
21
-60.3594
0
LINE
8
BLACK
6
CONTINUOUS
10
111.825
20
-60.3594
11
111.891
21
-60.2611
0
LINE
8
BLACK
6
CONTINUOUS
10
111.891
20
-60.2611
11
111.974
21
-60.1776
0
LINE
8
BLACK
6
CONTINUOUS
10
111.974
20
-60.1776
11
112.073
21
-60.1119
0
LINE
8
BLACK
6
CONTINUOUS
10
112.073
20
-60.1119
11
112.182
21
-60.0667
0
LINE
8
BLACK
6
CONTINUOUS
10
112.182
20
-60.0667
11
112.298
21
-60.0436
0
LINE
8
BLACK
6
CONTINUOUS
10
112.298
20
-60.0436
11
112.416
21
-60.0436
0
LINE
8
BLACK
6
CONTINUOUS
10
112.416
20
-60.0436
11
112.532
21
-60.0667
0
LINE
8
BLACK
6
CONTINUOUS
10
115.072
20
-60.0667
11
115.181
21
-60.1119
0
LINE
8
BLACK
6
CONTINUOUS
10
115.181
20
-60.1119
11
115.279
21
-60.1776
0
LINE
8
BLACK
6
CONTINUOUS
10
115.279
20
-60.1776
11
115.363
21
-60.2611
0
LINE
8
BLACK
6
CONTINUOUS
10
115.363
20
-60.2611
11
115.429
21
-60.3594
0
LINE
8
BLACK
6
CONTINUOUS
10
115.429
20
-60.3594
11
115.474
21
-60.4686
0
LINE
8
BLACK
6
CONTINUOUS
10
115.474
20
-60.4686
11
115.497
21
-60.5845
0
LINE
8
BLACK
6
CONTINUOUS
10
115.497
20
-60.5845
11
115.497
21
-60.7027
0
LINE
8
BLACK
6
CONTINUOUS
10
115.497
20
-60.7027
11
115.474
21
-60.8186
0
LINE
8
BLACK
6
CONTINUOUS
10
115.474
20
-60.8186
11
115.429
21
-60.9278
0
LINE
8
BLACK
6
CONTINUOUS
10
115.429
20
-60.9278
11
115.363
21
-61.0261
0
LINE
8
BLACK
6
CONTINUOUS
10
115.363
20
-61.0261
11
115.279
21
-61.1096
0
LINE
8
BLACK
6
CONTINUOUS
10
115.279
20
-61.1096
11
115.181
21
-61.1753
0
LINE
8
BLACK
6
CONTINUOUS
10
115.181
20
-61.1753
11
115.072
21
-61.2205
0
LINE
8
BLACK
6
CONTINUOUS
10
115.072
20
-61.2205
11
114.956
21
-61.2436
0
LINE
8
BLACK
6
CONTINUOUS
10
114.956
20
-61.2436
11
114.838
21
-61.2436
0
LINE
8
BLACK
6
CONTINUOUS
10
114.838
20
-61.2436
11
114.722
21
-61.2205
0
LINE
8
BLACK
6
CONTINUOUS
10
114.722
20
-61.2205
11
114.613
21
-61.1753
0
LINE
8
BLACK
6
CONTINUOUS
10
114.613
20
-61.1753
11
114.514
21
-61.1096
0
LINE
8
BLACK
6
CONTINUOUS
10
114.514
20
-61.1096
11
114.431
21
-61.0261
0
LINE
8
BLACK
6
CONTINUOUS
10
114.431
20
-61.0261
11
114.365
21
-60.9278
0
LINE
8
BLACK
6
CONTINUOUS
10
114.365
20
-60.9278
11
114.32
21
-60.8186
0
LINE
8
BLACK
6
CONTINUOUS
10
114.32
20
-60.8186
11
114.297
21
-60.7027
0
LINE
8
BLACK
6
CONTINUOUS
10
114.297
20
-60.7027
11
114.297
21
-60.5845
0
LINE
8
BLACK
6
CONTINUOUS
10
114.297
20
-60.5845
11
114.32
21
-60.4686
0
LINE
8
BLACK
6
CONTINUOUS
10
114.32
20
-60.4686
11
114.365
21
-60.3594
0
LINE
8
BLACK
6
CONTINUOUS
10
114.365
20
-60.3594
11
114.431
21
-60.2611
0
LINE
8
BLACK
6
CONTINUOUS
10
114.431
20
-60.2611
11
114.514
21
-60.1776
0
LINE
8
BLACK
6
CONTINUOUS
10
114.514
20
-60.1776
11
114.613
21
-60.1119
0
LINE
8
BLACK
6
CONTINUOUS
10
114.613
20
-60.1119
11
114.722
21
-60.0667
0
LINE
8
BLACK
6
CONTINUOUS
10
114.722
20
-60.0667
11
114.838
21
-60.0436
0
LINE
8
BLACK
6
CONTINUOUS
10
114.838
20
-60.0436
11
114.956
21
-60.0436
0
LINE
8
BLACK
6
CONTINUOUS
10
114.956
20
-60.0436
11
115.072
21
-60.0667
0
LINE
8
BLACK
6
CONTINUOUS
10
93.1249
20
-57.326
11
93.2887
21
-57.3938
0
LINE
8
BLACK
6
CONTINUOUS
10
93.2887
20
-57.3938
11
93.2887
21
-57.3938
0
LINE
8
BLACK
6
CONTINUOUS
10
93.2887
20
-57.3938
11
93.4361
21
-57.4923
0
LINE
8
BLACK
6
CONTINUOUS
10
93.4361
20
-57.4923
11
93.5615
21
-57.6177
0
LINE
8
BLACK
6
CONTINUOUS
10
93.5615
20
-57.6177
11
93.66
21
-57.7651
0
LINE
8
BLACK
6
CONTINUOUS
10
93.66
20
-57.7651
11
93.7278
21
-57.9289
0
LINE
8
BLACK
6
CONTINUOUS
10
93.7278
20
-57.9289
11
93.7624
21
-58.1028
0
LINE
8
BLACK
6
CONTINUOUS
10
93.7624
20
-58.1028
11
93.7624
21
-58.28
0
LINE
8
BLACK
6
CONTINUOUS
10
93.7624
20
-58.28
11
93.7278
21
-58.4539
0
LINE
8
BLACK
6
CONTINUOUS
10
93.7278
20
-58.4539
11
93.66
21
-58.6177
0
LINE
8
BLACK
6
CONTINUOUS
10
93.66
20
-58.6177
11
93.5615
21
-58.7651
0
LINE
8
BLACK
6
CONTINUOUS
10
93.5615
20
-58.7651
11
93.4361
21
-58.8905
0
LINE
8
BLACK
6
CONTINUOUS
10
93.4361
20
-58.8905
11
93.2887
21
-58.989
0
LINE
8
BLACK
6
CONTINUOUS
10
93.2887
20
-58.989
11
93.2887
21
-58.989
0
LINE
8
BLACK
6
CONTINUOUS
10
93.2887
20
-58.989
11
93.2887
21
-58.989
0
LINE
8
BLACK
6
CONTINUOUS
10
93.2887
20
-58.989
11
93.1249
21
-59.0568
0
LINE
8
BLACK
6
CONTINUOUS
10
93.1249
20
-59.0568
11
92.951
21
-59.0914
0
LINE
8
BLACK
6
CONTINUOUS
10
92.951
20
-59.0914
11
92.7738
21
-59.0914
0
LINE
8
BLACK
6
CONTINUOUS
10
92.7738
20
-59.0914
11
92.5999
21
-59.0568
0
LINE
8
BLACK
6
CONTINUOUS
10
92.5999
20
-59.0568
11
92.4361
21
-58.989
0
LINE
8
BLACK
6
CONTINUOUS
10
92.4361
20
-58.989
11
92.4361
21
-58.989
0
LINE
8
BLACK
6
CONTINUOUS
10
92.4361
20
-58.989
11
92.4361
21
-58.989
0
LINE
8
BLACK
6
CONTINUOUS
10
92.4361
20
-58.989
11
92.2887
21
-58.8905
0
LINE
8
BLACK
6
CONTINUOUS
10
92.2887
20
-58.8905
11
92.1633
21
-58.7651
0
LINE
8
BLACK
6
CONTINUOUS
10
92.1633
20
-58.7651
11
92.0648
21
-58.6177
0
LINE
8
BLACK
6
CONTINUOUS
10
92.0648
20
-58.6177
11
91.997
21
-58.4539
0
LINE
8
BLACK
6
CONTINUOUS
10
91.997
20
-58.4539
11
91.9624
21
-58.28
0
LINE
8
BLACK
6
CONTINUOUS
10
91.9624
20
-58.28
11
91.9624
21
-58.1028
0
LINE
8
BLACK
6
CONTINUOUS
10
91.9624
20
-58.1028
11
91.997
21
-57.9289
0
LINE
8
BLACK
6
CONTINUOUS
10
91.997
20
-57.9289
11
92.0648
21
-57.7651
0
LINE
8
BLACK
6
CONTINUOUS
10
92.0648
20
-57.7651
11
92.1633
21
-57.6177
0
LINE
8
BLACK
6
CONTINUOUS
10
92.1633
20
-57.6177
11
92.2887
21
-57.4923
0
LINE
8
BLACK
6
CONTINUOUS
10
92.2887
20
-57.4923
11
92.4361
21
-57.3938
0
LINE
8
BLACK
6
CONTINUOUS
10
92.4361
20
-57.3938
11
92.4361
21
-57.3938
0
LINE
8
BLACK
6
CONTINUOUS
10
92.4361
20
-57.3938
11
92.5999
21
-57.326
0
LINE
8
BLACK
6
CONTINUOUS
10
92.5999
20
-57.326
11
92.7738
21
-57.2914
0
LINE
8
BLACK
6
CONTINUOUS
10
92.7738
20
-57.2914
11
92.951
21
-57.2914
0
LINE
8
BLACK
6
CONTINUOUS
10
92.951
20
-57.2914
11
93.1249
21
-57.326
0
LINE
8
BLACK
6
CONTINUOUS
10
88.1211
20
-55.3194
11
88.2849
21
-55.3872
0
LINE
8
BLACK
6
CONTINUOUS
10
88.2849
20
-55.3872
11
88.2849
21
-55.3872
0
LINE
8
BLACK
6
CONTINUOUS
10
88.2849
20
-55.3872
11
88.4323
21
-55.4857
0
LINE
8
BLACK
6
CONTINUOUS
10
88.4323
20
-55.4857
11
88.5577
21
-55.6111
0
LINE
8
BLACK
6
CONTINUOUS
10
88.5577
20
-55.6111
11
88.6562
21
-55.7585
0
LINE
8
BLACK
6
CONTINUOUS
10
88.6562
20
-55.7585
11
88.724
21
-55.9223
0
LINE
8
BLACK
6
CONTINUOUS
10
88.724
20
-55.9223
11
88.7586
21
-56.0962
0
LINE
8
BLACK
6
CONTINUOUS
10
88.7586
20
-56.0962
11
88.7586
21
-56.2734
0
LINE
8
BLACK
6
CONTINUOUS
10
88.7586
20
-56.2734
11
88.724
21
-56.4473
0
LINE
8
BLACK
6
CONTINUOUS
10
88.724
20
-56.4473
11
88.6562
21
-56.6111
0
LINE
8
BLACK
6
CONTINUOUS
10
88.6562
20
-56.6111
11
88.6562
21
-56.6111
0
LINE
8
BLACK
6
CONTINUOUS
10
88.6562
20
-56.6111
11
88.5577
21
-56.7585
0
LINE
8
BLACK
6
CONTINUOUS
10
88.5577
20
-56.7585
11
88.4323
21
-56.8839
0
LINE
8
BLACK
6
CONTINUOUS
10
88.4323
20
-56.8839
11
88.2849
21
-56.9824
0
LINE
8
BLACK
6
CONTINUOUS
10
88.2849
20
-56.9824
11
88.2849
21
-56.9824
0
LINE
8
BLACK
6
CONTINUOUS
10
88.2849
20
-56.9824
11
88.2849
21
-56.9824
0
LINE
8
BLACK
6
CONTINUOUS
10
88.2849
20
-56.9824
11
88.1211
21
-57.0502
0
LINE
8
BLACK
6
CONTINUOUS
10
88.1211
20
-57.0502
11
87.9472
21
-57.0848
0
LINE
8
BLACK
6
CONTINUOUS
10
87.9472
20
-57.0848
11
87.77
21
-57.0848
0
LINE
8
BLACK
6
CONTINUOUS
10
87.77
20
-57.0848
11
87.5961
21
-57.0502
0
LINE
8
BLACK
6
CONTINUOUS
10
87.5961
20
-57.0502
11
87.4323
21
-56.9824
0
LINE
8
BLACK
6
CONTINUOUS
10
87.4323
20
-56.9824
11
87.4323
21
-56.9824
0
LINE
8
BLACK
6
CONTINUOUS
10
87.4323
20
-56.9824
11
87.4323
21
-56.9824
0
LINE
8
BLACK
6
CONTINUOUS
10
87.4323
20
-56.9824
11
87.2849
21
-56.8839
0
LINE
8
BLACK
6
CONTINUOUS
10
87.2849
20
-56.8839
11
87.1595
21
-56.7585
0
LINE
8
BLACK
6
CONTINUOUS
10
87.1595
20
-56.7585
11
87.061
21
-56.6111
0
LINE
8
BLACK
6
CONTINUOUS
10
87.061
20
-56.6111
11
87.061
21
-56.6111
0
LINE
8
BLACK
6
CONTINUOUS
10
87.061
20
-56.6111
11
86.9932
21
-56.4473
0
LINE
8
BLACK
6
CONTINUOUS
10
86.9932
20
-56.4473
11
86.9586
21
-56.2734
0
LINE
8
BLACK
6
CONTINUOUS
10
86.9586
20
-56.2734
11
86.9586
21
-56.0962
0
LINE
8
BLACK
6
CONTINUOUS
10
86.9586
20
-56.0962
11
86.9932
21
-55.9223
0
LINE
8
BLACK
6
CONTINUOUS
10
86.9932
20
-55.9223
11
87.061
21
-55.7585
0
LINE
8
BLACK
6
CONTINUOUS
10
87.061
20
-55.7585
11
87.1595
21
-55.6111
0
LINE
8
BLACK
6
CONTINUOUS
10
87.1595
20
-55.6111
11
87.2849
21
-55.4857
0
LINE
8
BLACK
6
CONTINUOUS
10
87.2849
20
-55.4857
11
87.4323
21
-55.3872
0
LINE
8
BLACK
6
CONTINUOUS
10
87.4323
20
-55.3872
11
87.4323
21
-55.3872
0
LINE
8
BLACK
6
CONTINUOUS
10
87.4323
20
-55.3872
11
87.5961
21
-55.3194
0
LINE
8
BLACK
6
CONTINUOUS
10
87.5961
20
-55.3194
11
87.77
21
-55.2848
0
LINE
8
BLACK
6
CONTINUOUS
10
87.77
20
-55.2848
11
87.9472
21
-55.2848
0
LINE
8
BLACK
6
CONTINUOUS
10
87.9472
20
-55.2848
11
88.1211
21
-55.3194
0
LINE
8
BLACK
6
CONTINUOUS
10
91.2667
20
-56.4491
11
90.3667
21
-56.4491
0
LINE
8
BLACK
6
CONTINUOUS
10
90.3667
20
-56.4491
11
90.3667
21
-55.1991
0
LINE
8
BLACK
6
CONTINUOUS
10
90.3667
20
-55.1991
11
91.2667
21
-55.1991
0
LINE
8
BLACK
6
CONTINUOUS
10
91.2667
20
-55.1991
11
91.2667
21
-56.4491
0
LINE
8
BLACK
6
CONTINUOUS
10
93.3667
20
-56.4491
11
92.4667
21
-56.4491
0
LINE
8
BLACK
6
CONTINUOUS
10
92.4667
20
-56.4491
11
92.4667
21
-55.1991
0
LINE
8
BLACK
6
CONTINUOUS
10
92.4667
20
-55.1991
11
93.3667
21
-55.1991
0
LINE
8
BLACK
6
CONTINUOUS
10
93.3667
20
-55.1991
11
93.3667
21
-56.4491
  0
ENDSEC
  0
EOF
