G04 #@! TF.GenerationSoftware,KiCad,Pcbnew,(5.0.1)-4*
G04 #@! TF.CreationDate,2018-12-06T20:38:25-05:00*
G04 #@! TF.ProjectId,TrafMasterV1,547261664D617374657256312E6B6963,V1*
G04 #@! TF.SameCoordinates,Original*
G04 #@! TF.FileFunction,Soldermask,Top*
G04 #@! TF.FilePolarity,Negative*
%FSLAX46Y46*%
G04 Gerber Fmt 4.6, Leading zero omitted, Abs format (unit mm)*
G04 Created by KiCad (PCBNEW (5.0.1)-4) date 12/6/2018 8:38:25 PM*
%MOMM*%
%LPD*%
G01*
G04 APERTURE LIST*
%ADD10C,0.150000*%
G04 APERTURE END LIST*
D10*
G36*
X109507200Y-104061160D02*
X107307200Y-104061160D01*
X107307200Y-102461160D01*
X109507200Y-102461160D01*
X109507200Y-104061160D01*
X109507200Y-104061160D01*
G37*
G36*
X120128889Y-100587629D02*
X120310878Y-100663011D01*
X120474663Y-100772449D01*
X120613951Y-100911737D01*
X120723389Y-101075522D01*
X120798771Y-101257511D01*
X120837200Y-101450709D01*
X120837200Y-101647691D01*
X120798771Y-101840889D01*
X120723389Y-102022878D01*
X120613951Y-102186663D01*
X120474663Y-102325951D01*
X120310878Y-102435389D01*
X120128889Y-102510771D01*
X119935691Y-102549200D01*
X119738709Y-102549200D01*
X119545511Y-102510771D01*
X119363522Y-102435389D01*
X119199737Y-102325951D01*
X119060449Y-102186663D01*
X118951011Y-102022878D01*
X118875629Y-101840889D01*
X118837200Y-101647691D01*
X118837200Y-101450709D01*
X118875629Y-101257511D01*
X118951011Y-101075522D01*
X119060449Y-100911737D01*
X119199737Y-100772449D01*
X119363522Y-100663011D01*
X119545511Y-100587629D01*
X119738709Y-100549200D01*
X119935691Y-100549200D01*
X120128889Y-100587629D01*
X120128889Y-100587629D01*
G37*
G36*
X89140889Y-100587629D02*
X89322878Y-100663011D01*
X89486663Y-100772449D01*
X89625951Y-100911737D01*
X89735389Y-101075522D01*
X89810771Y-101257511D01*
X89849200Y-101450709D01*
X89849200Y-101647691D01*
X89810771Y-101840889D01*
X89735389Y-102022878D01*
X89625951Y-102186663D01*
X89486663Y-102325951D01*
X89322878Y-102435389D01*
X89140889Y-102510771D01*
X88947691Y-102549200D01*
X88750709Y-102549200D01*
X88557511Y-102510771D01*
X88375522Y-102435389D01*
X88211737Y-102325951D01*
X88072449Y-102186663D01*
X87963011Y-102022878D01*
X87887629Y-101840889D01*
X87849200Y-101647691D01*
X87849200Y-101450709D01*
X87887629Y-101257511D01*
X87963011Y-101075522D01*
X88072449Y-100911737D01*
X88211737Y-100772449D01*
X88375522Y-100663011D01*
X88557511Y-100587629D01*
X88750709Y-100549200D01*
X88947691Y-100549200D01*
X89140889Y-100587629D01*
X89140889Y-100587629D01*
G37*
G36*
X109507200Y-101521160D02*
X107307200Y-101521160D01*
X107307200Y-99921160D01*
X109507200Y-99921160D01*
X109507200Y-101521160D01*
X109507200Y-101521160D01*
G37*
G36*
X105620768Y-84082822D02*
X105757256Y-84139357D01*
X105880098Y-84221438D01*
X105984562Y-84325902D01*
X106066643Y-84448744D01*
X106123178Y-84585232D01*
X106152000Y-84730131D01*
X106152000Y-84877869D01*
X106123178Y-85022768D01*
X106066643Y-85159256D01*
X105984562Y-85282098D01*
X105880098Y-85386562D01*
X105757256Y-85468643D01*
X105620768Y-85525178D01*
X105475869Y-85554000D01*
X105328131Y-85554000D01*
X105183232Y-85525178D01*
X105046744Y-85468643D01*
X104923902Y-85386562D01*
X104819438Y-85282098D01*
X104737357Y-85159256D01*
X104680822Y-85022768D01*
X104652000Y-84877869D01*
X104652000Y-84730131D01*
X104680822Y-84585232D01*
X104737357Y-84448744D01*
X104819438Y-84325902D01*
X104923902Y-84221438D01*
X105046744Y-84139357D01*
X105183232Y-84082822D01*
X105328131Y-84054000D01*
X105475869Y-84054000D01*
X105620768Y-84082822D01*
X105620768Y-84082822D01*
G37*
G36*
X98305568Y-84082822D02*
X98442056Y-84139357D01*
X98564898Y-84221438D01*
X98669362Y-84325902D01*
X98751443Y-84448744D01*
X98807978Y-84585232D01*
X98836800Y-84730131D01*
X98836800Y-84877869D01*
X98807978Y-85022768D01*
X98751443Y-85159256D01*
X98669362Y-85282098D01*
X98564898Y-85386562D01*
X98442056Y-85468643D01*
X98305568Y-85525178D01*
X98160669Y-85554000D01*
X98012931Y-85554000D01*
X97868032Y-85525178D01*
X97731544Y-85468643D01*
X97608702Y-85386562D01*
X97504238Y-85282098D01*
X97422157Y-85159256D01*
X97365622Y-85022768D01*
X97336800Y-84877869D01*
X97336800Y-84730131D01*
X97365622Y-84585232D01*
X97422157Y-84448744D01*
X97504238Y-84325902D01*
X97608702Y-84221438D01*
X97731544Y-84139357D01*
X97868032Y-84082822D01*
X98012931Y-84054000D01*
X98160669Y-84054000D01*
X98305568Y-84082822D01*
X98305568Y-84082822D01*
G37*
G36*
X111480500Y-77236500D02*
X109880500Y-77236500D01*
X109880500Y-75036500D01*
X111480500Y-75036500D01*
X111480500Y-77236500D01*
X111480500Y-77236500D01*
G37*
G36*
X108940500Y-77236500D02*
X107340500Y-77236500D01*
X107340500Y-75036500D01*
X108940500Y-75036500D01*
X108940500Y-77236500D01*
X108940500Y-77236500D01*
G37*
G36*
X97844389Y-64980329D02*
X98026378Y-65055711D01*
X98190163Y-65165149D01*
X98329451Y-65304437D01*
X98438889Y-65468222D01*
X98514271Y-65650211D01*
X98552700Y-65843409D01*
X98552700Y-66040391D01*
X98514271Y-66233589D01*
X98438889Y-66415578D01*
X98329451Y-66579363D01*
X98190163Y-66718651D01*
X98026378Y-66828089D01*
X97844389Y-66903471D01*
X97651191Y-66941900D01*
X97454209Y-66941900D01*
X97261011Y-66903471D01*
X97079022Y-66828089D01*
X96915237Y-66718651D01*
X96775949Y-66579363D01*
X96666511Y-66415578D01*
X96591129Y-66233589D01*
X96552700Y-66040391D01*
X96552700Y-65843409D01*
X96591129Y-65650211D01*
X96666511Y-65468222D01*
X96775949Y-65304437D01*
X96915237Y-65165149D01*
X97079022Y-65055711D01*
X97261011Y-64980329D01*
X97454209Y-64941900D01*
X97651191Y-64941900D01*
X97844389Y-64980329D01*
X97844389Y-64980329D01*
G37*
G36*
X105964389Y-64980329D02*
X106146378Y-65055711D01*
X106310163Y-65165149D01*
X106449451Y-65304437D01*
X106558889Y-65468222D01*
X106634271Y-65650211D01*
X106672700Y-65843409D01*
X106672700Y-66040391D01*
X106634271Y-66233589D01*
X106558889Y-66415578D01*
X106449451Y-66579363D01*
X106310163Y-66718651D01*
X106146378Y-66828089D01*
X105964389Y-66903471D01*
X105771191Y-66941900D01*
X105574209Y-66941900D01*
X105381011Y-66903471D01*
X105199022Y-66828089D01*
X105035237Y-66718651D01*
X104895949Y-66579363D01*
X104786511Y-66415578D01*
X104711129Y-66233589D01*
X104672700Y-66040391D01*
X104672700Y-65843409D01*
X104711129Y-65650211D01*
X104786511Y-65468222D01*
X104895949Y-65304437D01*
X105035237Y-65165149D01*
X105199022Y-65055711D01*
X105381011Y-64980329D01*
X105574209Y-64941900D01*
X105771191Y-64941900D01*
X105964389Y-64980329D01*
X105964389Y-64980329D01*
G37*
G36*
X113206900Y-64443600D02*
X111506900Y-64443600D01*
X111506900Y-61743600D01*
X113206900Y-61743600D01*
X113206900Y-64443600D01*
X113206900Y-64443600D01*
G37*
G36*
X115746900Y-64443600D02*
X114046900Y-64443600D01*
X114046900Y-61743600D01*
X115746900Y-61743600D01*
X115746900Y-64443600D01*
X115746900Y-64443600D01*
G37*
G36*
X89140889Y-61573229D02*
X89322878Y-61648611D01*
X89486663Y-61758049D01*
X89625951Y-61897337D01*
X89735389Y-62061122D01*
X89810771Y-62243111D01*
X89849200Y-62436309D01*
X89849200Y-62633291D01*
X89810771Y-62826489D01*
X89735389Y-63008478D01*
X89625951Y-63172263D01*
X89486663Y-63311551D01*
X89322878Y-63420989D01*
X89140889Y-63496371D01*
X88947691Y-63534800D01*
X88750709Y-63534800D01*
X88557511Y-63496371D01*
X88375522Y-63420989D01*
X88211737Y-63311551D01*
X88072449Y-63172263D01*
X87963011Y-63008478D01*
X87887629Y-62826489D01*
X87849200Y-62633291D01*
X87849200Y-62436309D01*
X87887629Y-62243111D01*
X87963011Y-62061122D01*
X88072449Y-61897337D01*
X88211737Y-61758049D01*
X88375522Y-61648611D01*
X88557511Y-61573229D01*
X88750709Y-61534800D01*
X88947691Y-61534800D01*
X89140889Y-61573229D01*
X89140889Y-61573229D01*
G37*
G36*
X120154289Y-61573229D02*
X120336278Y-61648611D01*
X120500063Y-61758049D01*
X120639351Y-61897337D01*
X120748789Y-62061122D01*
X120824171Y-62243111D01*
X120862600Y-62436309D01*
X120862600Y-62633291D01*
X120824171Y-62826489D01*
X120748789Y-63008478D01*
X120639351Y-63172263D01*
X120500063Y-63311551D01*
X120336278Y-63420989D01*
X120154289Y-63496371D01*
X119961091Y-63534800D01*
X119764109Y-63534800D01*
X119570911Y-63496371D01*
X119388922Y-63420989D01*
X119225137Y-63311551D01*
X119085849Y-63172263D01*
X118976411Y-63008478D01*
X118901029Y-62826489D01*
X118862600Y-62633291D01*
X118862600Y-62436309D01*
X118901029Y-62243111D01*
X118976411Y-62061122D01*
X119085849Y-61897337D01*
X119225137Y-61758049D01*
X119388922Y-61648611D01*
X119570911Y-61573229D01*
X119764109Y-61534800D01*
X119961091Y-61534800D01*
X120154289Y-61573229D01*
X120154289Y-61573229D01*
G37*
G36*
X112531915Y-60066658D02*
X112641104Y-60111885D01*
X112739379Y-60177551D01*
X112822949Y-60261121D01*
X112888615Y-60359396D01*
X112933842Y-60468585D01*
X112956900Y-60584506D01*
X112956900Y-60702694D01*
X112933842Y-60818615D01*
X112888615Y-60927804D01*
X112822949Y-61026079D01*
X112739379Y-61109649D01*
X112641104Y-61175315D01*
X112531915Y-61220542D01*
X112415995Y-61243600D01*
X112297805Y-61243600D01*
X112181885Y-61220542D01*
X112072696Y-61175315D01*
X111974421Y-61109649D01*
X111890851Y-61026079D01*
X111825185Y-60927804D01*
X111779958Y-60818615D01*
X111756900Y-60702694D01*
X111756900Y-60584506D01*
X111779958Y-60468585D01*
X111825185Y-60359396D01*
X111890851Y-60261121D01*
X111974421Y-60177551D01*
X112072696Y-60111885D01*
X112181885Y-60066658D01*
X112297805Y-60043600D01*
X112415995Y-60043600D01*
X112531915Y-60066658D01*
X112531915Y-60066658D01*
G37*
G36*
X115071915Y-60066658D02*
X115181104Y-60111885D01*
X115279379Y-60177551D01*
X115362949Y-60261121D01*
X115428615Y-60359396D01*
X115473842Y-60468585D01*
X115496900Y-60584506D01*
X115496900Y-60702694D01*
X115473842Y-60818615D01*
X115428615Y-60927804D01*
X115362949Y-61026079D01*
X115279379Y-61109649D01*
X115181104Y-61175315D01*
X115071915Y-61220542D01*
X114955995Y-61243600D01*
X114837805Y-61243600D01*
X114721885Y-61220542D01*
X114612696Y-61175315D01*
X114514421Y-61109649D01*
X114430851Y-61026079D01*
X114365185Y-60927804D01*
X114319958Y-60818615D01*
X114296900Y-60702694D01*
X114296900Y-60584506D01*
X114319958Y-60468585D01*
X114365185Y-60359396D01*
X114430851Y-60261121D01*
X114514421Y-60177551D01*
X114612696Y-60111885D01*
X114721885Y-60066658D01*
X114837805Y-60043600D01*
X114955995Y-60043600D01*
X115071915Y-60066658D01*
X115071915Y-60066658D01*
G37*
G36*
X93041580Y-57105491D02*
X93183260Y-57133673D01*
X93383443Y-57216591D01*
X93563610Y-57336975D01*
X93716825Y-57490190D01*
X93837209Y-57670357D01*
X93920127Y-57870540D01*
X93962400Y-58083060D01*
X93962400Y-58299740D01*
X93920127Y-58512260D01*
X93837209Y-58712443D01*
X93716825Y-58892610D01*
X93563610Y-59045825D01*
X93383443Y-59166209D01*
X93183260Y-59249127D01*
X93041580Y-59277309D01*
X92970741Y-59291400D01*
X92754059Y-59291400D01*
X92683220Y-59277309D01*
X92541540Y-59249127D01*
X92341357Y-59166209D01*
X92161190Y-59045825D01*
X92007975Y-58892610D01*
X91887591Y-58712443D01*
X91804673Y-58512260D01*
X91762400Y-58299740D01*
X91762400Y-58083060D01*
X91804673Y-57870540D01*
X91887591Y-57670357D01*
X92007975Y-57490190D01*
X92161190Y-57336975D01*
X92341357Y-57216591D01*
X92541540Y-57133673D01*
X92683220Y-57105491D01*
X92754059Y-57091400D01*
X92970741Y-57091400D01*
X93041580Y-57105491D01*
X93041580Y-57105491D01*
G37*
G36*
X88037780Y-55098891D02*
X88179460Y-55127073D01*
X88379643Y-55209991D01*
X88559810Y-55330375D01*
X88713025Y-55483590D01*
X88833409Y-55663757D01*
X88916327Y-55863940D01*
X88958600Y-56076460D01*
X88958600Y-56293140D01*
X88916327Y-56505660D01*
X88833409Y-56705843D01*
X88713025Y-56886010D01*
X88559810Y-57039225D01*
X88379643Y-57159609D01*
X88179460Y-57242527D01*
X88037780Y-57270709D01*
X87966941Y-57284800D01*
X87750259Y-57284800D01*
X87679420Y-57270709D01*
X87537740Y-57242527D01*
X87337557Y-57159609D01*
X87157390Y-57039225D01*
X87004175Y-56886010D01*
X86883791Y-56705843D01*
X86800873Y-56505660D01*
X86758600Y-56293140D01*
X86758600Y-56076460D01*
X86800873Y-55863940D01*
X86883791Y-55663757D01*
X87004175Y-55483590D01*
X87157390Y-55330375D01*
X87337557Y-55209991D01*
X87537740Y-55127073D01*
X87679420Y-55098891D01*
X87750259Y-55084800D01*
X87966941Y-55084800D01*
X88037780Y-55098891D01*
X88037780Y-55098891D01*
G37*
M02*
