G04 #@! TF.GenerationSoftware,KiCad,Pcbnew,(5.0.1)-4*
G04 #@! TF.CreationDate,2018-12-06T20:38:25-05:00*
G04 #@! TF.ProjectId,TrafMasterV1,547261664D617374657256312E6B6963,V1*
G04 #@! TF.SameCoordinates,Original*
G04 #@! TF.FileFunction,Legend,Top*
G04 #@! TF.FilePolarity,Positive*
%FSLAX46Y46*%
G04 Gerber Fmt 4.6, Leading zero omitted, Abs format (unit mm)*
G04 Created by KiCad (PCBNEW (5.0.1)-4) date 12/6/2018 8:38:25 PM*
%MOMM*%
%LPD*%
G01*
G04 APERTURE LIST*
%ADD10C,0.190500*%
%ADD11C,0.254000*%
%ADD12C,0.215900*%
%ADD13C,0.200000*%
%ADD14C,0.150000*%
%ADD15C,0.075000*%
%ADD16C,0.100000*%
G04 APERTURE END LIST*
D10*
X105146928Y-75946000D02*
X105074357Y-75909714D01*
X104965500Y-75909714D01*
X104856642Y-75946000D01*
X104784071Y-76018571D01*
X104747785Y-76091142D01*
X104711500Y-76236285D01*
X104711500Y-76345142D01*
X104747785Y-76490285D01*
X104784071Y-76562857D01*
X104856642Y-76635428D01*
X104965500Y-76671714D01*
X105038071Y-76671714D01*
X105146928Y-76635428D01*
X105183214Y-76599142D01*
X105183214Y-76345142D01*
X105038071Y-76345142D01*
X105509785Y-76671714D02*
X105509785Y-75909714D01*
X105945214Y-76671714D01*
X105945214Y-75909714D01*
X106308071Y-76671714D02*
X106308071Y-75909714D01*
X106489500Y-75909714D01*
X106598357Y-75946000D01*
X106670928Y-76018571D01*
X106707214Y-76091142D01*
X106743500Y-76236285D01*
X106743500Y-76345142D01*
X106707214Y-76490285D01*
X106670928Y-76562857D01*
X106598357Y-76635428D01*
X106489500Y-76671714D01*
X106308071Y-76671714D01*
X112268000Y-76798714D02*
X111832571Y-76798714D01*
X112050285Y-76798714D02*
X112050285Y-76036714D01*
X111977714Y-76145571D01*
X111905142Y-76218142D01*
X111832571Y-76254428D01*
X112558285Y-76109285D02*
X112594571Y-76073000D01*
X112667142Y-76036714D01*
X112848571Y-76036714D01*
X112921142Y-76073000D01*
X112957428Y-76109285D01*
X112993714Y-76181857D01*
X112993714Y-76254428D01*
X112957428Y-76363285D01*
X112522000Y-76798714D01*
X112993714Y-76798714D01*
X113211428Y-76036714D02*
X113465428Y-76798714D01*
X113719428Y-76036714D01*
X113792000Y-76871285D02*
X114372571Y-76871285D01*
X114554000Y-76290714D02*
X114554000Y-77052714D01*
X114554000Y-76327000D02*
X114626571Y-76290714D01*
X114771714Y-76290714D01*
X114844285Y-76327000D01*
X114880571Y-76363285D01*
X114916857Y-76435857D01*
X114916857Y-76653571D01*
X114880571Y-76726142D01*
X114844285Y-76762428D01*
X114771714Y-76798714D01*
X114626571Y-76798714D01*
X114554000Y-76762428D01*
X115243428Y-76798714D02*
X115243428Y-76290714D01*
X115243428Y-76435857D02*
X115279714Y-76363285D01*
X115316000Y-76327000D01*
X115388571Y-76290714D01*
X115461142Y-76290714D01*
X115824000Y-76798714D02*
X115751428Y-76762428D01*
X115715142Y-76726142D01*
X115678857Y-76653571D01*
X115678857Y-76435857D01*
X115715142Y-76363285D01*
X115751428Y-76327000D01*
X115824000Y-76290714D01*
X115932857Y-76290714D01*
X116005428Y-76327000D01*
X116041714Y-76363285D01*
X116078000Y-76435857D01*
X116078000Y-76653571D01*
X116041714Y-76726142D01*
X116005428Y-76762428D01*
X115932857Y-76798714D01*
X115824000Y-76798714D01*
X116295714Y-76290714D02*
X116586000Y-76290714D01*
X116404571Y-76036714D02*
X116404571Y-76689857D01*
X116440857Y-76762428D01*
X116513428Y-76798714D01*
X116586000Y-76798714D01*
D11*
X88513194Y-76601078D02*
X88609956Y-76649459D01*
X88803480Y-76649459D01*
X88900241Y-76601078D01*
X88948622Y-76504316D01*
X88948622Y-76455935D01*
X88900241Y-76359173D01*
X88803480Y-76310792D01*
X88658337Y-76310792D01*
X88561575Y-76262411D01*
X88513194Y-76165649D01*
X88513194Y-76117268D01*
X88561575Y-76020506D01*
X88658337Y-75972125D01*
X88803480Y-75972125D01*
X88900241Y-76020506D01*
X89771099Y-76601078D02*
X89674337Y-76649459D01*
X89480813Y-76649459D01*
X89384051Y-76601078D01*
X89335670Y-76504316D01*
X89335670Y-76117268D01*
X89384051Y-76020506D01*
X89480813Y-75972125D01*
X89674337Y-75972125D01*
X89771099Y-76020506D01*
X89819480Y-76117268D01*
X89819480Y-76214030D01*
X89335670Y-76310792D01*
X90254908Y-75972125D02*
X90254908Y-76649459D01*
X90254908Y-76068887D02*
X90303289Y-76020506D01*
X90400051Y-75972125D01*
X90545194Y-75972125D01*
X90641956Y-76020506D01*
X90690337Y-76117268D01*
X90690337Y-76649459D01*
X91125765Y-76601078D02*
X91222527Y-76649459D01*
X91416051Y-76649459D01*
X91512813Y-76601078D01*
X91561194Y-76504316D01*
X91561194Y-76455935D01*
X91512813Y-76359173D01*
X91416051Y-76310792D01*
X91270908Y-76310792D01*
X91174146Y-76262411D01*
X91125765Y-76165649D01*
X91125765Y-76117268D01*
X91174146Y-76020506D01*
X91270908Y-75972125D01*
X91416051Y-75972125D01*
X91512813Y-76020506D01*
X92141765Y-76649459D02*
X92045003Y-76601078D01*
X91996622Y-76552697D01*
X91948241Y-76455935D01*
X91948241Y-76165649D01*
X91996622Y-76068887D01*
X92045003Y-76020506D01*
X92141765Y-75972125D01*
X92286908Y-75972125D01*
X92383670Y-76020506D01*
X92432051Y-76068887D01*
X92480432Y-76165649D01*
X92480432Y-76455935D01*
X92432051Y-76552697D01*
X92383670Y-76601078D01*
X92286908Y-76649459D01*
X92141765Y-76649459D01*
X92915860Y-76649459D02*
X92915860Y-75972125D01*
X92915860Y-76165649D02*
X92964241Y-76068887D01*
X93012622Y-76020506D01*
X93109384Y-75972125D01*
X93206146Y-75972125D01*
X93980241Y-76649459D02*
X93980241Y-76117268D01*
X93931860Y-76020506D01*
X93835099Y-75972125D01*
X93641575Y-75972125D01*
X93544813Y-76020506D01*
X93980241Y-76601078D02*
X93883480Y-76649459D01*
X93641575Y-76649459D01*
X93544813Y-76601078D01*
X93496432Y-76504316D01*
X93496432Y-76407554D01*
X93544813Y-76310792D01*
X93641575Y-76262411D01*
X93883480Y-76262411D01*
X93980241Y-76214030D01*
X94464051Y-76649459D02*
X94464051Y-75633459D01*
X94464051Y-76020506D02*
X94560813Y-75972125D01*
X94754337Y-75972125D01*
X94851099Y-76020506D01*
X94899480Y-76068887D01*
X94947860Y-76165649D01*
X94947860Y-76455935D01*
X94899480Y-76552697D01*
X94851099Y-76601078D01*
X94754337Y-76649459D01*
X94560813Y-76649459D01*
X94464051Y-76601078D01*
X95528432Y-76649459D02*
X95431670Y-76601078D01*
X95383289Y-76504316D01*
X95383289Y-75633459D01*
X96302527Y-76601078D02*
X96205765Y-76649459D01*
X96012241Y-76649459D01*
X95915480Y-76601078D01*
X95867099Y-76504316D01*
X95867099Y-76117268D01*
X95915480Y-76020506D01*
X96012241Y-75972125D01*
X96205765Y-75972125D01*
X96302527Y-76020506D01*
X96350908Y-76117268D01*
X96350908Y-76214030D01*
X95867099Y-76310792D01*
X96786337Y-76552697D02*
X96834718Y-76601078D01*
X96786337Y-76649459D01*
X96737956Y-76601078D01*
X96786337Y-76552697D01*
X96786337Y-76649459D01*
X97270146Y-76649459D02*
X97270146Y-75972125D01*
X97270146Y-75633459D02*
X97221765Y-75681840D01*
X97270146Y-75730220D01*
X97318527Y-75681840D01*
X97270146Y-75633459D01*
X97270146Y-75730220D01*
X97899099Y-76649459D02*
X97802337Y-76601078D01*
X97753956Y-76552697D01*
X97705575Y-76455935D01*
X97705575Y-76165649D01*
X97753956Y-76068887D01*
X97802337Y-76020506D01*
X97899099Y-75972125D01*
X98044241Y-75972125D01*
X98141003Y-76020506D01*
X98189384Y-76068887D01*
X98237765Y-76165649D01*
X98237765Y-76455935D01*
X98189384Y-76552697D01*
X98141003Y-76601078D01*
X98044241Y-76649459D01*
X97899099Y-76649459D01*
X90182337Y-78427459D02*
X89601765Y-78427459D01*
X89892051Y-78427459D02*
X89892051Y-77411459D01*
X89795289Y-77556601D01*
X89698527Y-77653363D01*
X89601765Y-77701744D01*
X90762908Y-77846887D02*
X90666146Y-77798506D01*
X90617765Y-77750125D01*
X90569384Y-77653363D01*
X90569384Y-77604982D01*
X90617765Y-77508220D01*
X90666146Y-77459840D01*
X90762908Y-77411459D01*
X90956432Y-77411459D01*
X91053194Y-77459840D01*
X91101575Y-77508220D01*
X91149956Y-77604982D01*
X91149956Y-77653363D01*
X91101575Y-77750125D01*
X91053194Y-77798506D01*
X90956432Y-77846887D01*
X90762908Y-77846887D01*
X90666146Y-77895268D01*
X90617765Y-77943649D01*
X90569384Y-78040411D01*
X90569384Y-78233935D01*
X90617765Y-78330697D01*
X90666146Y-78379078D01*
X90762908Y-78427459D01*
X90956432Y-78427459D01*
X91053194Y-78379078D01*
X91101575Y-78330697D01*
X91149956Y-78233935D01*
X91149956Y-78040411D01*
X91101575Y-77943649D01*
X91053194Y-77895268D01*
X90956432Y-77846887D01*
X92311099Y-77363078D02*
X91440241Y-78669363D01*
X93181956Y-78427459D02*
X92601384Y-78427459D01*
X92891670Y-78427459D02*
X92891670Y-77411459D01*
X92794908Y-77556601D01*
X92698146Y-77653363D01*
X92601384Y-77701744D01*
X93569003Y-77508220D02*
X93617384Y-77459840D01*
X93714146Y-77411459D01*
X93956051Y-77411459D01*
X94052813Y-77459840D01*
X94101194Y-77508220D01*
X94149575Y-77604982D01*
X94149575Y-77701744D01*
X94101194Y-77846887D01*
X93520622Y-78427459D01*
X94149575Y-78427459D01*
X95310718Y-77363078D02*
X94439860Y-78669363D01*
X95842908Y-77411459D02*
X95939670Y-77411459D01*
X96036432Y-77459840D01*
X96084813Y-77508220D01*
X96133194Y-77604982D01*
X96181575Y-77798506D01*
X96181575Y-78040411D01*
X96133194Y-78233935D01*
X96084813Y-78330697D01*
X96036432Y-78379078D01*
X95939670Y-78427459D01*
X95842908Y-78427459D01*
X95746146Y-78379078D01*
X95697765Y-78330697D01*
X95649384Y-78233935D01*
X95601003Y-78040411D01*
X95601003Y-77798506D01*
X95649384Y-77604982D01*
X95697765Y-77508220D01*
X95746146Y-77459840D01*
X95842908Y-77411459D01*
X97100813Y-77411459D02*
X96617003Y-77411459D01*
X96568622Y-77895268D01*
X96617003Y-77846887D01*
X96713765Y-77798506D01*
X96955670Y-77798506D01*
X97052432Y-77846887D01*
X97100813Y-77895268D01*
X97149194Y-77992030D01*
X97149194Y-78233935D01*
X97100813Y-78330697D01*
X97052432Y-78379078D01*
X96955670Y-78427459D01*
X96713765Y-78427459D01*
X96617003Y-78379078D01*
X96568622Y-78330697D01*
D10*
X110659817Y-100410554D02*
X110296960Y-100410554D01*
X110260674Y-100773411D01*
X110296960Y-100737125D01*
X110369531Y-100700840D01*
X110550960Y-100700840D01*
X110623531Y-100737125D01*
X110659817Y-100773411D01*
X110696102Y-100845982D01*
X110696102Y-101027411D01*
X110659817Y-101099982D01*
X110623531Y-101136268D01*
X110550960Y-101172554D01*
X110369531Y-101172554D01*
X110296960Y-101136268D01*
X110260674Y-101099982D01*
X110913817Y-100410554D02*
X111167817Y-101172554D01*
X111421817Y-100410554D01*
X111675817Y-100410554D02*
X111675817Y-101027411D01*
X111712102Y-101099982D01*
X111748388Y-101136268D01*
X111820960Y-101172554D01*
X111966102Y-101172554D01*
X112038674Y-101136268D01*
X112074960Y-101099982D01*
X112111245Y-101027411D01*
X112111245Y-100410554D01*
X112437817Y-101136268D02*
X112546674Y-101172554D01*
X112728102Y-101172554D01*
X112800674Y-101136268D01*
X112836960Y-101099982D01*
X112873245Y-101027411D01*
X112873245Y-100954840D01*
X112836960Y-100882268D01*
X112800674Y-100845982D01*
X112728102Y-100809697D01*
X112582960Y-100773411D01*
X112510388Y-100737125D01*
X112474102Y-100700840D01*
X112437817Y-100628268D01*
X112437817Y-100555697D01*
X112474102Y-100483125D01*
X112510388Y-100446840D01*
X112582960Y-100410554D01*
X112764388Y-100410554D01*
X112873245Y-100446840D01*
X113453817Y-100773411D02*
X113562674Y-100809697D01*
X113598960Y-100845982D01*
X113635245Y-100918554D01*
X113635245Y-101027411D01*
X113598960Y-101099982D01*
X113562674Y-101136268D01*
X113490102Y-101172554D01*
X113199817Y-101172554D01*
X113199817Y-100410554D01*
X113453817Y-100410554D01*
X113526388Y-100446840D01*
X113562674Y-100483125D01*
X113598960Y-100555697D01*
X113598960Y-100628268D01*
X113562674Y-100700840D01*
X113526388Y-100737125D01*
X113453817Y-100773411D01*
X113199817Y-100773411D01*
X110986388Y-102991920D02*
X110913817Y-102955634D01*
X110804960Y-102955634D01*
X110696102Y-102991920D01*
X110623531Y-103064491D01*
X110587245Y-103137062D01*
X110550960Y-103282205D01*
X110550960Y-103391062D01*
X110587245Y-103536205D01*
X110623531Y-103608777D01*
X110696102Y-103681348D01*
X110804960Y-103717634D01*
X110877531Y-103717634D01*
X110986388Y-103681348D01*
X111022674Y-103645062D01*
X111022674Y-103391062D01*
X110877531Y-103391062D01*
X111349245Y-103717634D02*
X111349245Y-102955634D01*
X111784674Y-103717634D01*
X111784674Y-102955634D01*
X112147531Y-103717634D02*
X112147531Y-102955634D01*
X112328960Y-102955634D01*
X112437817Y-102991920D01*
X112510388Y-103064491D01*
X112546674Y-103137062D01*
X112582960Y-103282205D01*
X112582960Y-103391062D01*
X112546674Y-103536205D01*
X112510388Y-103608777D01*
X112437817Y-103681348D01*
X112328960Y-103717634D01*
X112147531Y-103717634D01*
D12*
X91417019Y-61020476D02*
X91417019Y-60156876D01*
X91622638Y-60156876D01*
X91746009Y-60198000D01*
X91828257Y-60280247D01*
X91869380Y-60362495D01*
X91910504Y-60526990D01*
X91910504Y-60650361D01*
X91869380Y-60814857D01*
X91828257Y-60897104D01*
X91746009Y-60979352D01*
X91622638Y-61020476D01*
X91417019Y-61020476D01*
X92280619Y-60568114D02*
X92568485Y-60568114D01*
X92691857Y-61020476D02*
X92280619Y-61020476D01*
X92280619Y-60156876D01*
X92691857Y-60156876D01*
X92938600Y-60156876D02*
X93226466Y-61020476D01*
X93514333Y-60156876D01*
X93802200Y-60691485D02*
X94460180Y-60691485D01*
X94131190Y-61020476D02*
X94131190Y-60362495D01*
X86768819Y-58216800D02*
X86686571Y-58175676D01*
X86563200Y-58175676D01*
X86439828Y-58216800D01*
X86357580Y-58299047D01*
X86316457Y-58381295D01*
X86275333Y-58545790D01*
X86275333Y-58669161D01*
X86316457Y-58833657D01*
X86357580Y-58915904D01*
X86439828Y-58998152D01*
X86563200Y-59039276D01*
X86645447Y-59039276D01*
X86768819Y-58998152D01*
X86809942Y-58957028D01*
X86809942Y-58669161D01*
X86645447Y-58669161D01*
X87180057Y-59039276D02*
X87180057Y-58175676D01*
X87673542Y-59039276D01*
X87673542Y-58175676D01*
X88084780Y-59039276D02*
X88084780Y-58175676D01*
X88290400Y-58175676D01*
X88413771Y-58216800D01*
X88496019Y-58299047D01*
X88537142Y-58381295D01*
X88578266Y-58545790D01*
X88578266Y-58669161D01*
X88537142Y-58833657D01*
X88496019Y-58915904D01*
X88413771Y-58998152D01*
X88290400Y-59039276D01*
X88084780Y-59039276D01*
D13*
X103886000Y-108508800D02*
X103759000Y-108381800D01*
D14*
G04 #@! TO.C,P4*
X94099332Y-58191400D02*
G75*
G03X94099332Y-58191400I-1236932J0D01*
G01*
G04 #@! TO.C,P5*
X89095532Y-56184800D02*
G75*
G03X89095532Y-56184800I-1236932J0D01*
G01*
G04 #@! TO.C,P13*
X108407200Y-99791160D02*
X108407200Y-99391160D01*
X109707200Y-99791160D02*
X107107200Y-99791160D01*
X109707200Y-104091160D02*
X109707200Y-99791160D01*
X107107200Y-104091160D02*
X109707200Y-104091160D01*
X107107200Y-99891160D02*
X107107200Y-104091160D01*
G04 #@! TO.C,P14*
X111610500Y-76136500D02*
X112010500Y-76136500D01*
X111610500Y-77436500D02*
X111610500Y-74836500D01*
X107310500Y-77436500D02*
X111610500Y-77436500D01*
X107310500Y-74836500D02*
X107310500Y-77436500D01*
X111510500Y-74836500D02*
X107310500Y-74836500D01*
G04 #@! TO.C,P4*
D15*
X92640971Y-59927114D02*
X92640971Y-59627114D01*
X92755257Y-59627114D01*
X92783828Y-59641400D01*
X92798114Y-59655685D01*
X92812400Y-59684257D01*
X92812400Y-59727114D01*
X92798114Y-59755685D01*
X92783828Y-59769971D01*
X92755257Y-59784257D01*
X92640971Y-59784257D01*
X93069542Y-59727114D02*
X93069542Y-59927114D01*
X92998114Y-59612828D02*
X92926685Y-59827114D01*
X93112400Y-59827114D01*
G04 #@! TO.C,P5*
X87637171Y-57920514D02*
X87637171Y-57620514D01*
X87751457Y-57620514D01*
X87780028Y-57634800D01*
X87794314Y-57649085D01*
X87808600Y-57677657D01*
X87808600Y-57720514D01*
X87794314Y-57749085D01*
X87780028Y-57763371D01*
X87751457Y-57777657D01*
X87637171Y-57777657D01*
X88080028Y-57620514D02*
X87937171Y-57620514D01*
X87922885Y-57763371D01*
X87937171Y-57749085D01*
X87965742Y-57734800D01*
X88037171Y-57734800D01*
X88065742Y-57749085D01*
X88080028Y-57763371D01*
X88094314Y-57791942D01*
X88094314Y-57863371D01*
X88080028Y-57891942D01*
X88065742Y-57906228D01*
X88037171Y-57920514D01*
X87965742Y-57920514D01*
X87937171Y-57906228D01*
X87922885Y-57891942D01*
G04 #@! TO.C,P13*
D16*
X107900057Y-102317350D02*
X107900057Y-101817350D01*
X108090533Y-101817350D01*
X108138152Y-101841160D01*
X108161961Y-101864969D01*
X108185771Y-101912588D01*
X108185771Y-101984017D01*
X108161961Y-102031636D01*
X108138152Y-102055445D01*
X108090533Y-102079255D01*
X107900057Y-102079255D01*
X108661961Y-102317350D02*
X108376247Y-102317350D01*
X108519104Y-102317350D02*
X108519104Y-101817350D01*
X108471485Y-101888779D01*
X108423866Y-101936398D01*
X108376247Y-101960207D01*
X108828628Y-101817350D02*
X109138152Y-101817350D01*
X108971485Y-102007826D01*
X109042914Y-102007826D01*
X109090533Y-102031636D01*
X109114342Y-102055445D01*
X109138152Y-102103064D01*
X109138152Y-102222112D01*
X109114342Y-102269731D01*
X109090533Y-102293540D01*
X109042914Y-102317350D01*
X108900057Y-102317350D01*
X108852438Y-102293540D01*
X108828628Y-102269731D01*
G04 #@! TO.C,P14*
X108729697Y-74358630D02*
X108729697Y-73858630D01*
X108920173Y-73858630D01*
X108967792Y-73882440D01*
X108991601Y-73906249D01*
X109015411Y-73953868D01*
X109015411Y-74025297D01*
X108991601Y-74072916D01*
X108967792Y-74096725D01*
X108920173Y-74120535D01*
X108729697Y-74120535D01*
X109491601Y-74358630D02*
X109205887Y-74358630D01*
X109348744Y-74358630D02*
X109348744Y-73858630D01*
X109301125Y-73930059D01*
X109253506Y-73977678D01*
X109205887Y-74001487D01*
X109920173Y-74025297D02*
X109920173Y-74358630D01*
X109801125Y-73834820D02*
X109682078Y-74191963D01*
X109991601Y-74191963D01*
G04 #@! TD*
M02*
