  0
SECTION
  2
HEADER
  9
$ANGBASE
  50
0.0
  9
$ANGDIR
  70
  1
  9
$MEASUREMENT
  70
0
  0
ENDSEC
  0
SECTION
  2
TABLES
  0
TABLE
  2
LTYPE
  70
4
  0
LTYPE
  5
40F
  2
CONTINUOUS
  70
0
  3
Solid line
  72
65
  73
0
  40
0.0
  0
LTYPE
  5
410
  2
DASHDOT
 70
0
  3
Dash Dot ____ _ ____ _
 72
65
 73
4
 40
2.0
 49
1.25
 49
-0.25
 49
0.25
 49
-0.25
  0
LTYPE
  5
411
  2
DASHED
 70
0
  3
Dashed __ __ __ __ __
 72
65
 73
2
 40
0.75
 49
0.5
 49
-0.25
  0
LTYPE
  5
43B
  2
DOTTED
 70
0
  3
Dotted .  .  .  .
 72
65
 73
2
 40
0.2
 49
0.0
 49
-0.2
  0
ENDTAB
  0
TABLE
  2
STYLE
  70
4
  0
STYLE
  2
KICAD
  70
0
  40
0
  41
1
  42
1
  50
0
  71
0
  3
isocp.shx
  0
STYLE
  2
KICADB
  70
0
  40
0
  41
1
  42
1
  50
0
  71
0
  3
isocp.shx
  0
STYLE
  2
KICADI
  70
0
  40
0
  41
1
  42
1
  50
15
  71
0
  3
isocp.shx
  0
STYLE
  2
KICADBI
  70
0
  40
0
  41
1
  42
1
  50
15
  71
0
  3
isocp.shx
  0
ENDTAB
  0
TABLE
  2
LAYER
  70
30
  0
LAYER
  2
BLACK
  70
0
  62
7
  6
CONTINUOUS
  0
LAYER
  2
GRAY1
  70
0
  62
251
  6
CONTINUOUS
  0
LAYER
  2
GRAY2
  70
0
  62
8
  6
CONTINUOUS
  0
LAYER
  2
GRAY3
  70
0
  62
9
  6
CONTINUOUS
  0
LAYER
  2
WHITE
  70
0
  62
7
  6
CONTINUOUS
  0
LAYER
  2
LYELLOW
  70
0
  62
51
  6
CONTINUOUS
  0
LAYER
  2
BLUE1
  70
0
  62
178
  6
CONTINUOUS
  0
LAYER
  2
GREEN1
  70
0
  62
98
  6
CONTINUOUS
  0
LAYER
  2
CYAN1
  70
0
  62
138
  6
CONTINUOUS
  0
LAYER
  2
RED1
  70
0
  62
18
  6
CONTINUOUS
  0
LAYER
  2
MAGENTA1
  70
0
  62
228
  6
CONTINUOUS
  0
LAYER
  2
BROWN1
  70
0
  62
58
  6
CONTINUOUS
  0
LAYER
  2
BLUE2
  70
0
  62
5
  6
CONTINUOUS
  0
LAYER
  2
GREEN2
  70
0
  62
3
  6
CONTINUOUS
  0
LAYER
  2
CYAN2
  70
0
  62
4
  6
CONTINUOUS
  0
LAYER
  2
RED2
  70
0
  62
1
  6
CONTINUOUS
  0
LAYER
  2
MAGENTA2
  70
0
  62
6
  6
CONTINUOUS
  0
LAYER
  2
BROWN2
  70
0
  62
54
  6
CONTINUOUS
  0
LAYER
  2
BLUE3
  70
0
  62
171
  6
CONTINUOUS
  0
LAYER
  2
GREEN3
  70
0
  62
91
  6
CONTINUOUS
  0
LAYER
  2
CYAN3
  70
0
  62
131
  6
CONTINUOUS
  0
LAYER
  2
RED3
  70
0
  62
11
  6
CONTINUOUS
  0
LAYER
  2
MAGENTA3
  70
0
  62
221
  6
CONTINUOUS
  0
LAYER
  2
YELLOW3
  70
0
  62
2
  6
CONTINUOUS
  0
LAYER
  2
BLUE4
  70
0
  62
5
  6
CONTINUOUS
  0
LAYER
  2
GREEN4
  70
0
  62
3
  6
CONTINUOUS
  0
LAYER
  2
CYAN4
  70
0
  62
4
  6
CONTINUOUS
  0
LAYER
  2
RED4
  70
0
  62
1
  6
CONTINUOUS
  0
LAYER
  2
MAGENTA4
  70
0
  62
6
  6
CONTINUOUS
  0
LAYER
  2
YELLOW4
  70
0
  62
2
  6
CONTINUOUS
  0
ENDTAB
  0
ENDSEC
  0
SECTION
  2
ENTITIES
0
LINE
8
BLACK
6
CONTINUOUS
10
108.445
20
-99.3252
11
108.466
21
-99.3422
0
LINE
8
BLACK
6
CONTINUOUS
10
108.466
20
-99.3422
11
108.479
21
-99.3651
0
LINE
8
BLACK
6
CONTINUOUS
10
108.479
20
-99.3651
11
108.482
21
-99.3846
0
LINE
8
BLACK
6
CONTINUOUS
10
108.482
20
-99.3846
11
108.482
21
-99.8977
0
LINE
8
BLACK
6
CONTINUOUS
10
108.482
20
-99.8977
11
108.479
21
-99.9162
0
LINE
8
BLACK
6
CONTINUOUS
10
108.479
20
-99.9162
11
109.414
21
-99.9162
0
LINE
8
BLACK
6
CONTINUOUS
10
109.414
20
-99.9162
11
109.433
21
-99.9196
0
LINE
8
BLACK
6
CONTINUOUS
10
109.433
20
-99.9196
11
109.456
21
-99.9328
0
LINE
8
BLACK
6
CONTINUOUS
10
109.456
20
-99.9328
11
109.473
21
-99.9531
0
LINE
8
BLACK
6
CONTINUOUS
10
109.473
20
-99.9531
11
109.482
21
-99.9779
0
LINE
8
BLACK
6
CONTINUOUS
10
109.482
20
-99.9779
11
109.482
21
-100.004
0
LINE
8
BLACK
6
CONTINUOUS
10
109.482
20
-100.004
11
109.473
21
-100.029
0
LINE
8
BLACK
6
CONTINUOUS
10
109.473
20
-100.029
11
109.456
21
-100.049
0
LINE
8
BLACK
6
CONTINUOUS
10
109.456
20
-100.049
11
109.433
21
-100.063
0
LINE
8
BLACK
6
CONTINUOUS
10
109.433
20
-100.063
11
109.414
21
-100.066
0
LINE
8
BLACK
6
CONTINUOUS
10
109.414
20
-100.066
11
107.282
21
-100.066
0
LINE
8
BLACK
6
CONTINUOUS
10
107.282
20
-100.066
11
107.282
21
-103.919
0
LINE
8
BLACK
6
CONTINUOUS
10
107.282
20
-103.919
11
107.301
21
-103.916
0
LINE
8
BLACK
6
CONTINUOUS
10
107.301
20
-103.916
11
109.514
21
-103.916
0
LINE
8
BLACK
6
CONTINUOUS
10
109.514
20
-103.916
11
109.532
21
-103.919
0
LINE
8
BLACK
6
CONTINUOUS
10
109.532
20
-103.919
11
109.532
21
-99.9846
0
LINE
8
BLACK
6
CONTINUOUS
10
109.532
20
-99.9846
11
109.536
21
-99.9651
0
LINE
8
BLACK
6
CONTINUOUS
10
109.536
20
-99.9651
11
109.549
21
-99.9422
0
LINE
8
BLACK
6
CONTINUOUS
10
109.549
20
-99.9422
11
109.569
21
-99.9252
0
LINE
8
BLACK
6
CONTINUOUS
10
109.569
20
-99.9252
11
109.594
21
-99.9162
0
LINE
8
BLACK
6
CONTINUOUS
10
109.594
20
-99.9162
11
109.62
21
-99.9162
0
LINE
8
BLACK
6
CONTINUOUS
10
109.62
20
-99.9162
11
109.645
21
-99.9252
0
LINE
8
BLACK
6
CONTINUOUS
10
109.645
20
-99.9252
11
109.666
21
-99.9422
0
LINE
8
BLACK
6
CONTINUOUS
10
109.666
20
-99.9422
11
109.679
21
-99.9651
0
LINE
8
BLACK
6
CONTINUOUS
10
109.679
20
-99.9651
11
109.682
21
-99.9846
0
LINE
8
BLACK
6
CONTINUOUS
10
109.682
20
-99.9846
11
109.682
21
-103.998
0
LINE
8
BLACK
6
CONTINUOUS
10
109.682
20
-103.998
11
109.679
21
-104.017
0
LINE
8
BLACK
6
CONTINUOUS
10
109.679
20
-104.017
11
109.666
21
-104.04
0
LINE
8
BLACK
6
CONTINUOUS
10
109.666
20
-104.04
11
109.645
21
-104.057
0
LINE
8
BLACK
6
CONTINUOUS
10
109.645
20
-104.057
11
109.62
21
-104.066
0
LINE
8
BLACK
6
CONTINUOUS
10
109.62
20
-104.066
11
109.594
21
-104.066
0
LINE
8
BLACK
6
CONTINUOUS
10
109.594
20
-104.066
11
109.569
21
-104.057
0
LINE
8
BLACK
6
CONTINUOUS
10
109.569
20
-104.057
11
109.558
21
-104.048
0
LINE
8
BLACK
6
CONTINUOUS
10
109.558
20
-104.048
11
109.556
21
-104.049
0
LINE
8
BLACK
6
CONTINUOUS
10
109.556
20
-104.049
11
109.533
21
-104.063
0
LINE
8
BLACK
6
CONTINUOUS
10
109.533
20
-104.063
11
109.514
21
-104.066
0
LINE
8
BLACK
6
CONTINUOUS
10
109.514
20
-104.066
11
107.301
21
-104.066
0
LINE
8
BLACK
6
CONTINUOUS
10
107.301
20
-104.066
11
107.281
21
-104.063
0
LINE
8
BLACK
6
CONTINUOUS
10
107.281
20
-104.063
11
107.258
21
-104.049
0
LINE
8
BLACK
6
CONTINUOUS
10
107.258
20
-104.049
11
107.257
21
-104.048
0
LINE
8
BLACK
6
CONTINUOUS
10
107.257
20
-104.048
11
107.245
21
-104.057
0
LINE
8
BLACK
6
CONTINUOUS
10
107.245
20
-104.057
11
107.22
21
-104.066
0
LINE
8
BLACK
6
CONTINUOUS
10
107.22
20
-104.066
11
107.194
21
-104.066
0
LINE
8
BLACK
6
CONTINUOUS
10
107.194
20
-104.066
11
107.169
21
-104.057
0
LINE
8
BLACK
6
CONTINUOUS
10
107.169
20
-104.057
11
107.149
21
-104.04
0
LINE
8
BLACK
6
CONTINUOUS
10
107.149
20
-104.04
11
107.136
21
-104.017
0
LINE
8
BLACK
6
CONTINUOUS
10
107.136
20
-104.017
11
107.132
21
-103.998
0
LINE
8
BLACK
6
CONTINUOUS
10
107.132
20
-103.998
11
107.132
21
-99.9846
0
LINE
8
BLACK
6
CONTINUOUS
10
107.132
20
-99.9846
11
107.132
21
-99.9846
0
LINE
8
BLACK
6
CONTINUOUS
10
107.132
20
-99.9846
11
107.132
21
-99.9779
0
LINE
8
BLACK
6
CONTINUOUS
10
107.132
20
-99.9779
11
107.134
21
-99.9717
0
LINE
8
BLACK
6
CONTINUOUS
10
107.134
20
-99.9717
11
107.136
21
-99.9651
0
LINE
8
BLACK
6
CONTINUOUS
10
107.136
20
-99.9651
11
107.139
21
-99.9593
0
LINE
8
BLACK
6
CONTINUOUS
10
107.139
20
-99.9593
11
107.141
21
-99.9531
0
LINE
8
BLACK
6
CONTINUOUS
10
107.141
20
-99.9531
11
107.146
21
-99.948
0
LINE
8
BLACK
6
CONTINUOUS
10
107.146
20
-99.948
11
107.149
21
-99.9422
0
LINE
8
BLACK
6
CONTINUOUS
10
107.149
20
-99.9422
11
107.154
21
-99.9379
0
LINE
8
BLACK
6
CONTINUOUS
10
107.154
20
-99.9379
11
107.158
21
-99.9328
0
LINE
8
BLACK
6
CONTINUOUS
10
107.158
20
-99.9328
11
107.164
21
-99.9295
0
LINE
8
BLACK
6
CONTINUOUS
10
107.164
20
-99.9295
11
107.169
21
-99.9252
0
LINE
8
BLACK
6
CONTINUOUS
10
107.169
20
-99.9252
11
107.175
21
-99.9229
0
LINE
8
BLACK
6
CONTINUOUS
10
107.175
20
-99.9229
11
107.181
21
-99.9196
0
LINE
8
BLACK
6
CONTINUOUS
10
107.181
20
-99.9196
11
107.188
21
-99.9184
0
LINE
8
BLACK
6
CONTINUOUS
10
107.188
20
-99.9184
11
107.194
21
-99.9162
0
LINE
8
BLACK
6
CONTINUOUS
10
107.194
20
-99.9162
11
107.201
21
-99.9162
0
LINE
8
BLACK
6
CONTINUOUS
10
107.201
20
-99.9162
11
107.201
21
-99.9162
0
LINE
8
BLACK
6
CONTINUOUS
10
107.201
20
-99.9162
11
108.335
21
-99.9162
0
LINE
8
BLACK
6
CONTINUOUS
10
108.335
20
-99.9162
11
108.332
21
-99.8977
0
LINE
8
BLACK
6
CONTINUOUS
10
108.332
20
-99.8977
11
108.332
21
-99.3846
0
LINE
8
BLACK
6
CONTINUOUS
10
108.332
20
-99.3846
11
108.336
21
-99.3651
0
LINE
8
BLACK
6
CONTINUOUS
10
108.336
20
-99.3651
11
108.349
21
-99.3422
0
LINE
8
BLACK
6
CONTINUOUS
10
108.349
20
-99.3422
11
108.369
21
-99.3252
0
LINE
8
BLACK
6
CONTINUOUS
10
108.369
20
-99.3252
11
108.394
21
-99.3162
0
LINE
8
BLACK
6
CONTINUOUS
10
108.394
20
-99.3162
11
108.42
21
-99.3162
0
LINE
8
BLACK
6
CONTINUOUS
10
108.42
20
-99.3162
11
108.445
21
-99.3252
0
LINE
8
BLACK
6
CONTINUOUS
10
108.303
20
-102.263
11
108.306
21
-102.263
0
LINE
8
BLACK
6
CONTINUOUS
10
108.306
20
-102.263
11
108.311
21
-102.265
0
LINE
8
BLACK
6
CONTINUOUS
10
108.311
20
-102.265
11
108.317
21
-102.266
0
LINE
8
BLACK
6
CONTINUOUS
10
108.317
20
-102.266
11
108.32
21
-102.267
0
LINE
8
BLACK
6
CONTINUOUS
10
108.32
20
-102.267
11
108.322
21
-102.268
0
LINE
8
BLACK
6
CONTINUOUS
10
108.322
20
-102.268
11
108.37
21
-102.292
0
LINE
8
BLACK
6
CONTINUOUS
10
108.37
20
-102.292
11
108.376
21
-102.296
0
LINE
8
BLACK
6
CONTINUOUS
10
108.376
20
-102.296
11
108.383
21
-102.301
0
LINE
8
BLACK
6
CONTINUOUS
10
108.383
20
-102.301
11
108.407
21
-102.325
0
LINE
8
BLACK
6
CONTINUOUS
10
108.407
20
-102.325
11
108.411
21
-102.331
0
LINE
8
BLACK
6
CONTINUOUS
10
108.411
20
-102.331
11
108.416
21
-102.338
0
LINE
8
BLACK
6
CONTINUOUS
10
108.416
20
-102.338
11
108.44
21
-102.385
0
LINE
8
BLACK
6
CONTINUOUS
10
108.44
20
-102.385
11
108.441
21
-102.388
0
LINE
8
BLACK
6
CONTINUOUS
10
108.441
20
-102.388
11
108.442
21
-102.391
0
LINE
8
BLACK
6
CONTINUOUS
10
108.442
20
-102.391
11
108.443
21
-102.396
0
LINE
8
BLACK
6
CONTINUOUS
10
108.443
20
-102.396
11
108.445
21
-102.402
0
LINE
8
BLACK
6
CONTINUOUS
10
108.445
20
-102.402
11
108.445
21
-102.405
0
LINE
8
BLACK
6
CONTINUOUS
10
108.445
20
-102.405
11
108.445
21
-102.408
0
LINE
8
BLACK
6
CONTINUOUS
10
108.445
20
-102.408
11
108.445
21
-102.548
0
LINE
8
BLACK
6
CONTINUOUS
10
108.445
20
-102.548
11
108.633
21
-102.548
0
LINE
8
BLACK
6
CONTINUOUS
10
108.633
20
-102.548
11
108.65
21
-102.551
0
LINE
8
BLACK
6
CONTINUOUS
10
108.65
20
-102.551
11
108.666
21
-102.56
0
LINE
8
BLACK
6
CONTINUOUS
10
108.666
20
-102.56
11
108.677
21
-102.573
0
LINE
8
BLACK
6
CONTINUOUS
10
108.677
20
-102.573
11
108.683
21
-102.59
0
LINE
8
BLACK
6
CONTINUOUS
10
108.683
20
-102.59
11
108.683
21
-102.607
0
LINE
8
BLACK
6
CONTINUOUS
10
108.683
20
-102.607
11
108.677
21
-102.623
0
LINE
8
BLACK
6
CONTINUOUS
10
108.677
20
-102.623
11
108.666
21
-102.637
0
LINE
8
BLACK
6
CONTINUOUS
10
108.666
20
-102.637
11
108.65
21
-102.645
0
LINE
8
BLACK
6
CONTINUOUS
10
108.65
20
-102.645
11
108.633
21
-102.648
0
LINE
8
BLACK
6
CONTINUOUS
10
108.633
20
-102.648
11
108.133
21
-102.648
0
LINE
8
BLACK
6
CONTINUOUS
10
108.133
20
-102.648
11
108.129
21
-102.648
0
LINE
8
BLACK
6
CONTINUOUS
10
108.129
20
-102.648
11
108.125
21
-102.648
0
LINE
8
BLACK
6
CONTINUOUS
10
108.125
20
-102.648
11
108.121
21
-102.646
0
LINE
8
BLACK
6
CONTINUOUS
10
108.121
20
-102.646
11
108.116
21
-102.645
0
LINE
8
BLACK
6
CONTINUOUS
10
108.116
20
-102.645
11
108.112
21
-102.643
0
LINE
8
BLACK
6
CONTINUOUS
10
108.112
20
-102.643
11
108.108
21
-102.642
0
LINE
8
BLACK
6
CONTINUOUS
10
108.108
20
-102.642
11
108.105
21
-102.639
0
LINE
8
BLACK
6
CONTINUOUS
10
108.105
20
-102.639
11
108.101
21
-102.637
0
LINE
8
BLACK
6
CONTINUOUS
10
108.101
20
-102.637
11
108.098
21
-102.633
0
LINE
8
BLACK
6
CONTINUOUS
10
108.098
20
-102.633
11
108.095
21
-102.63
0
LINE
8
BLACK
6
CONTINUOUS
10
108.095
20
-102.63
11
108.093
21
-102.627
0
LINE
8
BLACK
6
CONTINUOUS
10
108.093
20
-102.627
11
108.09
21
-102.623
0
LINE
8
BLACK
6
CONTINUOUS
10
108.09
20
-102.623
11
108.089
21
-102.619
0
LINE
8
BLACK
6
CONTINUOUS
10
108.089
20
-102.619
11
108.086
21
-102.615
0
LINE
8
BLACK
6
CONTINUOUS
10
108.086
20
-102.615
11
108.086
21
-102.611
0
LINE
8
BLACK
6
CONTINUOUS
10
108.086
20
-102.611
11
108.084
21
-102.607
0
LINE
8
BLACK
6
CONTINUOUS
10
108.084
20
-102.607
11
108.084
21
-102.603
0
LINE
8
BLACK
6
CONTINUOUS
10
108.084
20
-102.603
11
108.083
21
-102.598
0
LINE
8
BLACK
6
CONTINUOUS
10
108.083
20
-102.598
11
108.083
21
-102.408
0
LINE
8
BLACK
6
CONTINUOUS
10
108.083
20
-102.408
11
108.084
21
-102.405
0
LINE
8
BLACK
6
CONTINUOUS
10
108.084
20
-102.405
11
108.084
21
-102.402
0
LINE
8
BLACK
6
CONTINUOUS
10
108.084
20
-102.402
11
108.085
21
-102.396
0
LINE
8
BLACK
6
CONTINUOUS
10
108.085
20
-102.396
11
108.086
21
-102.391
0
LINE
8
BLACK
6
CONTINUOUS
10
108.086
20
-102.391
11
108.088
21
-102.388
0
LINE
8
BLACK
6
CONTINUOUS
10
108.088
20
-102.388
11
108.089
21
-102.385
0
LINE
8
BLACK
6
CONTINUOUS
10
108.089
20
-102.385
11
108.112
21
-102.338
0
LINE
8
BLACK
6
CONTINUOUS
10
108.112
20
-102.338
11
108.117
21
-102.331
0
LINE
8
BLACK
6
CONTINUOUS
10
108.117
20
-102.331
11
108.122
21
-102.325
0
LINE
8
BLACK
6
CONTINUOUS
10
108.122
20
-102.325
11
108.146
21
-102.301
0
LINE
8
BLACK
6
CONTINUOUS
10
108.146
20
-102.301
11
108.152
21
-102.296
0
LINE
8
BLACK
6
CONTINUOUS
10
108.152
20
-102.296
11
108.159
21
-102.292
0
LINE
8
BLACK
6
CONTINUOUS
10
108.159
20
-102.292
11
108.206
21
-102.268
0
LINE
8
BLACK
6
CONTINUOUS
10
108.206
20
-102.268
11
108.209
21
-102.267
0
LINE
8
BLACK
6
CONTINUOUS
10
108.209
20
-102.267
11
108.212
21
-102.266
0
LINE
8
BLACK
6
CONTINUOUS
10
108.212
20
-102.266
11
108.217
21
-102.265
0
LINE
8
BLACK
6
CONTINUOUS
10
108.217
20
-102.265
11
108.223
21
-102.263
0
LINE
8
BLACK
6
CONTINUOUS
10
108.223
20
-102.263
11
108.226
21
-102.263
0
LINE
8
BLACK
6
CONTINUOUS
10
108.226
20
-102.263
11
108.229
21
-102.263
0
LINE
8
BLACK
6
CONTINUOUS
10
108.229
20
-102.263
11
108.3
21
-102.263
0
LINE
8
BLACK
6
CONTINUOUS
10
108.3
20
-102.263
11
108.303
21
-102.263
0
LINE
8
BLACK
6
CONTINUOUS
10
108.24
20
-102.363
11
108.211
21
-102.377
0
LINE
8
BLACK
6
CONTINUOUS
10
108.211
20
-102.377
11
108.198
21
-102.39
0
LINE
8
BLACK
6
CONTINUOUS
10
108.198
20
-102.39
11
108.183
21
-102.42
0
LINE
8
BLACK
6
CONTINUOUS
10
108.183
20
-102.42
11
108.183
21
-102.548
0
LINE
8
BLACK
6
CONTINUOUS
10
108.183
20
-102.548
11
108.345
21
-102.548
0
LINE
8
BLACK
6
CONTINUOUS
10
108.345
20
-102.548
11
108.345
21
-102.42
0
LINE
8
BLACK
6
CONTINUOUS
10
108.345
20
-102.42
11
108.33
21
-102.39
0
LINE
8
BLACK
6
CONTINUOUS
10
108.33
20
-102.39
11
108.318
21
-102.377
0
LINE
8
BLACK
6
CONTINUOUS
10
108.318
20
-102.377
11
108.288
21
-102.363
0
LINE
8
BLACK
6
CONTINUOUS
10
108.288
20
-102.363
11
108.24
21
-102.363
0
LINE
8
BLACK
6
CONTINUOUS
10
108.658
20
-101.793
11
108.672
21
-101.804
0
LINE
8
BLACK
6
CONTINUOUS
10
108.672
20
-101.804
11
108.68
21
-101.819
0
LINE
8
BLACK
6
CONTINUOUS
10
108.68
20
-101.819
11
108.683
21
-101.836
0
LINE
8
BLACK
6
CONTINUOUS
10
108.683
20
-101.836
11
108.683
21
-102.122
0
LINE
8
BLACK
6
CONTINUOUS
10
108.683
20
-102.122
11
108.68
21
-102.139
0
LINE
8
BLACK
6
CONTINUOUS
10
108.68
20
-102.139
11
108.672
21
-102.154
0
LINE
8
BLACK
6
CONTINUOUS
10
108.672
20
-102.154
11
108.658
21
-102.165
0
LINE
8
BLACK
6
CONTINUOUS
10
108.658
20
-102.165
11
108.642
21
-102.171
0
LINE
8
BLACK
6
CONTINUOUS
10
108.642
20
-102.171
11
108.625
21
-102.171
0
LINE
8
BLACK
6
CONTINUOUS
10
108.625
20
-102.171
11
108.608
21
-102.165
0
LINE
8
BLACK
6
CONTINUOUS
10
108.608
20
-102.165
11
108.595
21
-102.154
0
LINE
8
BLACK
6
CONTINUOUS
10
108.595
20
-102.154
11
108.586
21
-102.139
0
LINE
8
BLACK
6
CONTINUOUS
10
108.586
20
-102.139
11
108.583
21
-102.122
0
LINE
8
BLACK
6
CONTINUOUS
10
108.583
20
-102.122
11
108.583
21
-102.029
0
LINE
8
BLACK
6
CONTINUOUS
10
108.583
20
-102.029
11
108.278
21
-102.029
0
LINE
8
BLACK
6
CONTINUOUS
10
108.278
20
-102.029
11
108.288
21
-102.039
0
LINE
8
BLACK
6
CONTINUOUS
10
108.288
20
-102.039
11
108.292
21
-102.046
0
LINE
8
BLACK
6
CONTINUOUS
10
108.292
20
-102.046
11
108.297
21
-102.052
0
LINE
8
BLACK
6
CONTINUOUS
10
108.297
20
-102.052
11
108.321
21
-102.1
0
LINE
8
BLACK
6
CONTINUOUS
10
108.321
20
-102.1
11
108.326
21
-102.116
0
LINE
8
BLACK
6
CONTINUOUS
10
108.326
20
-102.116
11
108.325
21
-102.134
0
LINE
8
BLACK
6
CONTINUOUS
10
108.325
20
-102.134
11
108.318
21
-102.15
0
LINE
8
BLACK
6
CONTINUOUS
10
108.318
20
-102.15
11
108.306
21
-102.162
0
LINE
8
BLACK
6
CONTINUOUS
10
108.306
20
-102.162
11
108.291
21
-102.17
0
LINE
8
BLACK
6
CONTINUOUS
10
108.291
20
-102.17
11
108.273
21
-102.172
0
LINE
8
BLACK
6
CONTINUOUS
10
108.273
20
-102.172
11
108.256
21
-102.168
0
LINE
8
BLACK
6
CONTINUOUS
10
108.256
20
-102.168
11
108.242
21
-102.158
0
LINE
8
BLACK
6
CONTINUOUS
10
108.242
20
-102.158
11
108.232
21
-102.144
0
LINE
8
BLACK
6
CONTINUOUS
10
108.232
20
-102.144
11
108.211
21
-102.104
0
LINE
8
BLACK
6
CONTINUOUS
10
108.211
20
-102.104
11
108.173
21
-102.066
0
LINE
8
BLACK
6
CONTINUOUS
10
108.173
20
-102.066
11
108.106
21
-102.021
0
LINE
8
BLACK
6
CONTINUOUS
10
108.106
20
-102.021
11
108.104
21
-102.019
0
LINE
8
BLACK
6
CONTINUOUS
10
108.104
20
-102.019
11
108.101
21
-102.018
0
LINE
8
BLACK
6
CONTINUOUS
10
108.101
20
-102.018
11
108.097
21
-102.013
0
LINE
8
BLACK
6
CONTINUOUS
10
108.097
20
-102.013
11
108.093
21
-102.009
0
LINE
8
BLACK
6
CONTINUOUS
10
108.093
20
-102.009
11
108.092
21
-102.006
0
LINE
8
BLACK
6
CONTINUOUS
10
108.092
20
-102.006
11
108.09
21
-102.004
0
LINE
8
BLACK
6
CONTINUOUS
10
108.09
20
-102.004
11
108.088
21
-101.999
0
LINE
8
BLACK
6
CONTINUOUS
10
108.088
20
-101.999
11
108.085
21
-101.993
0
LINE
8
BLACK
6
CONTINUOUS
10
108.085
20
-101.993
11
108.085
21
-101.991
0
LINE
8
BLACK
6
CONTINUOUS
10
108.085
20
-101.991
11
108.084
21
-101.988
0
LINE
8
BLACK
6
CONTINUOUS
10
108.084
20
-101.988
11
108.084
21
-101.982
0
LINE
8
BLACK
6
CONTINUOUS
10
108.084
20
-101.982
11
108.083
21
-101.976
0
LINE
8
BLACK
6
CONTINUOUS
10
108.083
20
-101.976
11
108.084
21
-101.973
0
LINE
8
BLACK
6
CONTINUOUS
10
108.084
20
-101.973
11
108.084
21
-101.971
0
LINE
8
BLACK
6
CONTINUOUS
10
108.084
20
-101.971
11
108.086
21
-101.965
0
LINE
8
BLACK
6
CONTINUOUS
10
108.086
20
-101.965
11
108.088
21
-101.959
0
LINE
8
BLACK
6
CONTINUOUS
10
108.088
20
-101.959
11
108.089
21
-101.957
0
LINE
8
BLACK
6
CONTINUOUS
10
108.089
20
-101.957
11
108.09
21
-101.954
0
LINE
8
BLACK
6
CONTINUOUS
10
108.09
20
-101.954
11
108.094
21
-101.95
0
LINE
8
BLACK
6
CONTINUOUS
10
108.094
20
-101.95
11
108.097
21
-101.945
0
LINE
8
BLACK
6
CONTINUOUS
10
108.097
20
-101.945
11
108.099
21
-101.943
0
LINE
8
BLACK
6
CONTINUOUS
10
108.099
20
-101.943
11
108.101
21
-101.941
0
LINE
8
BLACK
6
CONTINUOUS
10
108.101
20
-101.941
11
108.106
21
-101.938
0
LINE
8
BLACK
6
CONTINUOUS
10
108.106
20
-101.938
11
108.111
21
-101.934
0
LINE
8
BLACK
6
CONTINUOUS
10
108.111
20
-101.934
11
108.114
21
-101.934
0
LINE
8
BLACK
6
CONTINUOUS
10
108.114
20
-101.934
11
108.116
21
-101.932
0
LINE
8
BLACK
6
CONTINUOUS
10
108.116
20
-101.932
11
108.122
21
-101.931
0
LINE
8
BLACK
6
CONTINUOUS
10
108.122
20
-101.931
11
108.128
21
-101.93
0
LINE
8
BLACK
6
CONTINUOUS
10
108.128
20
-101.93
11
108.131
21
-101.93
0
LINE
8
BLACK
6
CONTINUOUS
10
108.131
20
-101.93
11
108.133
21
-101.929
0
LINE
8
BLACK
6
CONTINUOUS
10
108.133
20
-101.929
11
108.583
21
-101.929
0
LINE
8
BLACK
6
CONTINUOUS
10
108.583
20
-101.929
11
108.583
21
-101.836
0
LINE
8
BLACK
6
CONTINUOUS
10
108.583
20
-101.836
11
108.586
21
-101.819
0
LINE
8
BLACK
6
CONTINUOUS
10
108.586
20
-101.819
11
108.595
21
-101.804
0
LINE
8
BLACK
6
CONTINUOUS
10
108.595
20
-101.804
11
108.608
21
-101.793
0
LINE
8
BLACK
6
CONTINUOUS
10
108.608
20
-101.793
11
108.625
21
-101.787
0
LINE
8
BLACK
6
CONTINUOUS
10
108.625
20
-101.787
11
108.642
21
-101.787
0
LINE
8
BLACK
6
CONTINUOUS
10
108.642
20
-101.787
11
108.658
21
-101.793
0
LINE
8
BLACK
6
CONTINUOUS
10
108.541
20
-101.311
11
108.544
21
-101.311
0
LINE
8
BLACK
6
CONTINUOUS
10
108.544
20
-101.311
11
108.549
21
-101.312
0
LINE
8
BLACK
6
CONTINUOUS
10
108.549
20
-101.312
11
108.555
21
-101.313
0
LINE
8
BLACK
6
CONTINUOUS
10
108.555
20
-101.313
11
108.558
21
-101.315
0
LINE
8
BLACK
6
CONTINUOUS
10
108.558
20
-101.315
11
108.561
21
-101.315
0
LINE
8
BLACK
6
CONTINUOUS
10
108.561
20
-101.315
11
108.608
21
-101.339
0
LINE
8
BLACK
6
CONTINUOUS
10
108.608
20
-101.339
11
108.615
21
-101.344
0
LINE
8
BLACK
6
CONTINUOUS
10
108.615
20
-101.344
11
108.621
21
-101.349
0
LINE
8
BLACK
6
CONTINUOUS
10
108.621
20
-101.349
11
108.645
21
-101.372
0
LINE
8
BLACK
6
CONTINUOUS
10
108.645
20
-101.372
11
108.65
21
-101.379
0
LINE
8
BLACK
6
CONTINUOUS
10
108.65
20
-101.379
11
108.654
21
-101.385
0
LINE
8
BLACK
6
CONTINUOUS
10
108.654
20
-101.385
11
108.678
21
-101.433
0
LINE
8
BLACK
6
CONTINUOUS
10
108.678
20
-101.433
11
108.679
21
-101.436
0
LINE
8
BLACK
6
CONTINUOUS
10
108.679
20
-101.436
11
108.68
21
-101.438
0
LINE
8
BLACK
6
CONTINUOUS
10
108.68
20
-101.438
11
108.681
21
-101.444
0
LINE
8
BLACK
6
CONTINUOUS
10
108.681
20
-101.444
11
108.683
21
-101.45
0
LINE
8
BLACK
6
CONTINUOUS
10
108.683
20
-101.45
11
108.683
21
-101.453
0
LINE
8
BLACK
6
CONTINUOUS
10
108.683
20
-101.453
11
108.683
21
-101.455
0
LINE
8
BLACK
6
CONTINUOUS
10
108.683
20
-101.455
11
108.683
21
-101.598
0
LINE
8
BLACK
6
CONTINUOUS
10
108.683
20
-101.598
11
108.683
21
-101.601
0
LINE
8
BLACK
6
CONTINUOUS
10
108.683
20
-101.601
11
108.683
21
-101.604
0
LINE
8
BLACK
6
CONTINUOUS
10
108.683
20
-101.604
11
108.681
21
-101.61
0
LINE
8
BLACK
6
CONTINUOUS
10
108.681
20
-101.61
11
108.68
21
-101.615
0
LINE
8
BLACK
6
CONTINUOUS
10
108.68
20
-101.615
11
108.679
21
-101.618
0
LINE
8
BLACK
6
CONTINUOUS
10
108.679
20
-101.618
11
108.678
21
-101.621
0
LINE
8
BLACK
6
CONTINUOUS
10
108.678
20
-101.621
11
108.654
21
-101.668
0
LINE
8
BLACK
6
CONTINUOUS
10
108.654
20
-101.668
11
108.65
21
-101.675
0
LINE
8
BLACK
6
CONTINUOUS
10
108.65
20
-101.675
11
108.645
21
-101.681
0
LINE
8
BLACK
6
CONTINUOUS
10
108.645
20
-101.681
11
108.621
21
-101.705
0
LINE
8
BLACK
6
CONTINUOUS
10
108.621
20
-101.705
11
108.607
21
-101.715
0
LINE
8
BLACK
6
CONTINUOUS
10
108.607
20
-101.715
11
108.59
21
-101.72
0
LINE
8
BLACK
6
CONTINUOUS
10
108.59
20
-101.72
11
108.573
21
-101.718
0
LINE
8
BLACK
6
CONTINUOUS
10
108.573
20
-101.718
11
108.557
21
-101.711
0
LINE
8
BLACK
6
CONTINUOUS
10
108.557
20
-101.711
11
108.545
21
-101.698
0
LINE
8
BLACK
6
CONTINUOUS
10
108.545
20
-101.698
11
108.537
21
-101.683
0
LINE
8
BLACK
6
CONTINUOUS
10
108.537
20
-101.683
11
108.536
21
-101.665
0
LINE
8
BLACK
6
CONTINUOUS
10
108.536
20
-101.665
11
108.54
21
-101.649
0
LINE
8
BLACK
6
CONTINUOUS
10
108.54
20
-101.649
11
108.55
21
-101.634
0
LINE
8
BLACK
6
CONTINUOUS
10
108.55
20
-101.634
11
108.568
21
-101.616
0
LINE
8
BLACK
6
CONTINUOUS
10
108.568
20
-101.616
11
108.583
21
-101.586
0
LINE
8
BLACK
6
CONTINUOUS
10
108.583
20
-101.586
11
108.583
21
-101.467
0
LINE
8
BLACK
6
CONTINUOUS
10
108.583
20
-101.467
11
108.568
21
-101.437
0
LINE
8
BLACK
6
CONTINUOUS
10
108.568
20
-101.437
11
108.556
21
-101.425
0
LINE
8
BLACK
6
CONTINUOUS
10
108.556
20
-101.425
11
108.526
21
-101.41
0
LINE
8
BLACK
6
CONTINUOUS
10
108.526
20
-101.41
11
108.431
21
-101.41
0
LINE
8
BLACK
6
CONTINUOUS
10
108.431
20
-101.41
11
108.401
21
-101.425
0
LINE
8
BLACK
6
CONTINUOUS
10
108.401
20
-101.425
11
108.389
21
-101.437
0
LINE
8
BLACK
6
CONTINUOUS
10
108.389
20
-101.437
11
108.374
21
-101.467
0
LINE
8
BLACK
6
CONTINUOUS
10
108.374
20
-101.467
11
108.374
21
-101.527
0
LINE
8
BLACK
6
CONTINUOUS
10
108.374
20
-101.527
11
108.373
21
-101.532
0
LINE
8
BLACK
6
CONTINUOUS
10
108.373
20
-101.532
11
108.373
21
-101.537
0
LINE
8
BLACK
6
CONTINUOUS
10
108.373
20
-101.537
11
108.372
21
-101.54
0
LINE
8
BLACK
6
CONTINUOUS
10
108.372
20
-101.54
11
108.371
21
-101.544
0
LINE
8
BLACK
6
CONTINUOUS
10
108.371
20
-101.544
11
108.368
21
-101.548
0
LINE
8
BLACK
6
CONTINUOUS
10
108.368
20
-101.548
11
108.367
21
-101.553
0
LINE
8
BLACK
6
CONTINUOUS
10
108.367
20
-101.553
11
108.364
21
-101.556
0
LINE
8
BLACK
6
CONTINUOUS
10
108.364
20
-101.556
11
108.362
21
-101.559
0
LINE
8
BLACK
6
CONTINUOUS
10
108.362
20
-101.559
11
108.358
21
-101.562
0
LINE
8
BLACK
6
CONTINUOUS
10
108.358
20
-101.562
11
108.355
21
-101.566
0
LINE
8
BLACK
6
CONTINUOUS
10
108.355
20
-101.566
11
108.352
21
-101.568
0
LINE
8
BLACK
6
CONTINUOUS
10
108.352
20
-101.568
11
108.349
21
-101.57
0
LINE
8
BLACK
6
CONTINUOUS
10
108.349
20
-101.57
11
108.344
21
-101.572
0
LINE
8
BLACK
6
CONTINUOUS
10
108.344
20
-101.572
11
108.34
21
-101.574
0
LINE
8
BLACK
6
CONTINUOUS
10
108.34
20
-101.574
11
108.336
21
-101.575
0
LINE
8
BLACK
6
CONTINUOUS
10
108.336
20
-101.575
11
108.333
21
-101.576
0
LINE
8
BLACK
6
CONTINUOUS
10
108.333
20
-101.576
11
108.328
21
-101.576
0
LINE
8
BLACK
6
CONTINUOUS
10
108.328
20
-101.576
11
108.323
21
-101.577
0
LINE
8
BLACK
6
CONTINUOUS
10
108.323
20
-101.577
11
108.319
21
-101.576
0
LINE
8
BLACK
6
CONTINUOUS
10
108.319
20
-101.576
11
108.315
21
-101.576
0
LINE
8
BLACK
6
CONTINUOUS
10
108.315
20
-101.576
11
108.311
21
-101.574
0
LINE
8
BLACK
6
CONTINUOUS
10
108.311
20
-101.574
11
108.306
21
-101.573
0
LINE
8
BLACK
6
CONTINUOUS
10
108.306
20
-101.573
11
108.302
21
-101.571
0
LINE
8
BLACK
6
CONTINUOUS
10
108.302
20
-101.571
11
108.299
21
-101.57
0
LINE
8
BLACK
6
CONTINUOUS
10
108.299
20
-101.57
11
108.295
21
-101.567
0
LINE
8
BLACK
6
CONTINUOUS
10
108.295
20
-101.567
11
108.291
21
-101.565
0
LINE
8
BLACK
6
CONTINUOUS
10
108.291
20
-101.565
11
108.183
21
-101.47
0
LINE
8
BLACK
6
CONTINUOUS
10
108.183
20
-101.47
11
108.183
21
-101.67
0
LINE
8
BLACK
6
CONTINUOUS
10
108.183
20
-101.67
11
108.18
21
-101.687
0
LINE
8
BLACK
6
CONTINUOUS
10
108.18
20
-101.687
11
108.172
21
-101.702
0
LINE
8
BLACK
6
CONTINUOUS
10
108.172
20
-101.702
11
108.158
21
-101.713
0
LINE
8
BLACK
6
CONTINUOUS
10
108.158
20
-101.713
11
108.142
21
-101.719
0
LINE
8
BLACK
6
CONTINUOUS
10
108.142
20
-101.719
11
108.125
21
-101.719
0
LINE
8
BLACK
6
CONTINUOUS
10
108.125
20
-101.719
11
108.108
21
-101.713
0
LINE
8
BLACK
6
CONTINUOUS
10
108.108
20
-101.713
11
108.095
21
-101.702
0
LINE
8
BLACK
6
CONTINUOUS
10
108.095
20
-101.702
11
108.086
21
-101.687
0
LINE
8
BLACK
6
CONTINUOUS
10
108.086
20
-101.687
11
108.083
21
-101.67
0
LINE
8
BLACK
6
CONTINUOUS
10
108.083
20
-101.67
11
108.083
21
-101.36
0
LINE
8
BLACK
6
CONTINUOUS
10
108.083
20
-101.36
11
108.084
21
-101.355
0
LINE
8
BLACK
6
CONTINUOUS
10
108.084
20
-101.355
11
108.084
21
-101.351
0
LINE
8
BLACK
6
CONTINUOUS
10
108.084
20
-101.351
11
108.086
21
-101.347
0
LINE
8
BLACK
6
CONTINUOUS
10
108.086
20
-101.347
11
108.086
21
-101.343
0
LINE
8
BLACK
6
CONTINUOUS
10
108.086
20
-101.343
11
108.089
21
-101.339
0
LINE
8
BLACK
6
CONTINUOUS
10
108.089
20
-101.339
11
108.091
21
-101.334
0
LINE
8
BLACK
6
CONTINUOUS
10
108.091
20
-101.334
11
108.093
21
-101.331
0
LINE
8
BLACK
6
CONTINUOUS
10
108.093
20
-101.331
11
108.095
21
-101.328
0
LINE
8
BLACK
6
CONTINUOUS
10
108.095
20
-101.328
11
108.099
21
-101.325
0
LINE
8
BLACK
6
CONTINUOUS
10
108.099
20
-101.325
11
108.102
21
-101.321
0
LINE
8
BLACK
6
CONTINUOUS
10
108.102
20
-101.321
11
108.105
21
-101.319
0
LINE
8
BLACK
6
CONTINUOUS
10
108.105
20
-101.319
11
108.108
21
-101.317
0
LINE
8
BLACK
6
CONTINUOUS
10
108.108
20
-101.317
11
108.113
21
-101.315
0
LINE
8
BLACK
6
CONTINUOUS
10
108.113
20
-101.315
11
108.117
21
-101.313
0
LINE
8
BLACK
6
CONTINUOUS
10
108.117
20
-101.313
11
108.121
21
-101.312
0
LINE
8
BLACK
6
CONTINUOUS
10
108.121
20
-101.312
11
108.125
21
-101.311
0
LINE
8
BLACK
6
CONTINUOUS
10
108.125
20
-101.311
11
108.13
21
-101.311
0
LINE
8
BLACK
6
CONTINUOUS
10
108.13
20
-101.311
11
108.134
21
-101.31
0
LINE
8
BLACK
6
CONTINUOUS
10
108.134
20
-101.31
11
108.138
21
-101.311
0
LINE
8
BLACK
6
CONTINUOUS
10
108.138
20
-101.311
11
108.142
21
-101.311
0
LINE
8
BLACK
6
CONTINUOUS
10
108.142
20
-101.311
11
108.147
21
-101.313
0
LINE
8
BLACK
6
CONTINUOUS
10
108.147
20
-101.313
11
108.151
21
-101.314
0
LINE
8
BLACK
6
CONTINUOUS
10
108.151
20
-101.314
11
108.155
21
-101.316
0
LINE
8
BLACK
6
CONTINUOUS
10
108.155
20
-101.316
11
108.158
21
-101.317
0
LINE
8
BLACK
6
CONTINUOUS
10
108.158
20
-101.317
11
108.162
21
-101.32
0
LINE
8
BLACK
6
CONTINUOUS
10
108.162
20
-101.32
11
108.166
21
-101.323
0
LINE
8
BLACK
6
CONTINUOUS
10
108.166
20
-101.323
11
108.283
21
-101.425
0
LINE
8
BLACK
6
CONTINUOUS
10
108.283
20
-101.425
11
108.303
21
-101.385
0
LINE
8
BLACK
6
CONTINUOUS
10
108.303
20
-101.385
11
108.308
21
-101.379
0
LINE
8
BLACK
6
CONTINUOUS
10
108.308
20
-101.379
11
108.312
21
-101.372
0
LINE
8
BLACK
6
CONTINUOUS
10
108.312
20
-101.372
11
108.336
21
-101.349
0
LINE
8
BLACK
6
CONTINUOUS
10
108.336
20
-101.349
11
108.343
21
-101.344
0
LINE
8
BLACK
6
CONTINUOUS
10
108.343
20
-101.344
11
108.349
21
-101.339
0
LINE
8
BLACK
6
CONTINUOUS
10
108.349
20
-101.339
11
108.397
21
-101.315
0
LINE
8
BLACK
6
CONTINUOUS
10
108.397
20
-101.315
11
108.4
21
-101.315
0
LINE
8
BLACK
6
CONTINUOUS
10
108.4
20
-101.315
11
108.402
21
-101.313
0
LINE
8
BLACK
6
CONTINUOUS
10
108.402
20
-101.313
11
108.408
21
-101.312
0
LINE
8
BLACK
6
CONTINUOUS
10
108.408
20
-101.312
11
108.413
21
-101.311
0
LINE
8
BLACK
6
CONTINUOUS
10
108.413
20
-101.311
11
108.416
21
-101.311
0
LINE
8
BLACK
6
CONTINUOUS
10
108.416
20
-101.311
11
108.419
21
-101.31
0
LINE
8
BLACK
6
CONTINUOUS
10
108.419
20
-101.31
11
108.538
21
-101.31
0
LINE
8
BLACK
6
CONTINUOUS
10
108.538
20
-101.31
11
108.541
21
-101.311
0
LINE
8
BLACK
6
CONTINUOUS
10
111.417
20
-74.8615
11
111.424
21
-74.8615
0
LINE
8
BLACK
6
CONTINUOUS
10
111.424
20
-74.8615
11
111.43
21
-74.8638
0
LINE
8
BLACK
6
CONTINUOUS
10
111.43
20
-74.8638
11
111.437
21
-74.8649
0
LINE
8
BLACK
6
CONTINUOUS
10
111.437
20
-74.8649
11
111.442
21
-74.8683
0
LINE
8
BLACK
6
CONTINUOUS
10
111.442
20
-74.8683
11
111.449
21
-74.8705
0
LINE
8
BLACK
6
CONTINUOUS
10
111.449
20
-74.8705
11
111.454
21
-74.8748
0
LINE
8
BLACK
6
CONTINUOUS
10
111.454
20
-74.8748
11
111.459
21
-74.8782
0
LINE
8
BLACK
6
CONTINUOUS
10
111.459
20
-74.8782
11
111.464
21
-74.8833
0
LINE
8
BLACK
6
CONTINUOUS
10
111.464
20
-74.8833
11
111.469
21
-74.8875
0
LINE
8
BLACK
6
CONTINUOUS
10
111.469
20
-74.8875
11
111.472
21
-74.8933
0
LINE
8
BLACK
6
CONTINUOUS
10
111.472
20
-74.8933
11
111.476
21
-74.8984
0
LINE
8
BLACK
6
CONTINUOUS
10
111.476
20
-74.8984
11
111.479
21
-74.9047
0
LINE
8
BLACK
6
CONTINUOUS
10
111.479
20
-74.9047
11
111.482
21
-74.9105
0
LINE
8
BLACK
6
CONTINUOUS
10
111.482
20
-74.9105
11
111.483
21
-74.917
0
LINE
8
BLACK
6
CONTINUOUS
10
111.483
20
-74.917
11
111.485
21
-74.9233
0
LINE
8
BLACK
6
CONTINUOUS
10
111.485
20
-74.9233
11
111.485
21
-74.9299
0
LINE
8
BLACK
6
CONTINUOUS
10
111.485
20
-74.9299
11
111.486
21
-74.9299
0
LINE
8
BLACK
6
CONTINUOUS
10
111.486
20
-74.9299
11
111.486
21
-76.0648
0
LINE
8
BLACK
6
CONTINUOUS
10
111.486
20
-76.0648
11
111.504
21
-76.0615
0
LINE
8
BLACK
6
CONTINUOUS
10
111.504
20
-76.0615
11
112.017
21
-76.0615
0
LINE
8
BLACK
6
CONTINUOUS
10
112.017
20
-76.0615
11
112.037
21
-76.0649
0
LINE
8
BLACK
6
CONTINUOUS
10
112.037
20
-76.0649
11
112.059
21
-76.0782
0
LINE
8
BLACK
6
CONTINUOUS
10
112.059
20
-76.0782
11
112.076
21
-76.0984
0
LINE
8
BLACK
6
CONTINUOUS
10
112.076
20
-76.0984
11
112.085
21
-76.1233
0
LINE
8
BLACK
6
CONTINUOUS
10
112.085
20
-76.1233
11
112.085
21
-76.1497
0
LINE
8
BLACK
6
CONTINUOUS
10
112.085
20
-76.1497
11
112.076
21
-76.1746
0
LINE
8
BLACK
6
CONTINUOUS
10
112.076
20
-76.1746
11
112.059
21
-76.1948
0
LINE
8
BLACK
6
CONTINUOUS
10
112.059
20
-76.1948
11
112.037
21
-76.2081
0
LINE
8
BLACK
6
CONTINUOUS
10
112.037
20
-76.2081
11
112.017
21
-76.2115
0
LINE
8
BLACK
6
CONTINUOUS
10
112.017
20
-76.2115
11
111.504
21
-76.2115
0
LINE
8
BLACK
6
CONTINUOUS
10
111.504
20
-76.2115
11
111.486
21
-76.2082
0
LINE
8
BLACK
6
CONTINUOUS
10
111.486
20
-76.2082
11
111.486
21
-77.1431
0
LINE
8
BLACK
6
CONTINUOUS
10
111.486
20
-77.1431
11
111.482
21
-77.1625
0
LINE
8
BLACK
6
CONTINUOUS
10
111.482
20
-77.1625
11
111.469
21
-77.1855
0
LINE
8
BLACK
6
CONTINUOUS
10
111.469
20
-77.1855
11
111.449
21
-77.2025
0
LINE
8
BLACK
6
CONTINUOUS
10
111.449
20
-77.2025
11
111.424
21
-77.2115
0
LINE
8
BLACK
6
CONTINUOUS
10
111.424
20
-77.2115
11
111.397
21
-77.2115
0
LINE
8
BLACK
6
CONTINUOUS
10
111.397
20
-77.2115
11
111.372
21
-77.2025
0
LINE
8
BLACK
6
CONTINUOUS
10
111.372
20
-77.2025
11
111.352
21
-77.1855
0
LINE
8
BLACK
6
CONTINUOUS
10
111.352
20
-77.1855
11
111.339
21
-77.1625
0
LINE
8
BLACK
6
CONTINUOUS
10
111.339
20
-77.1625
11
111.335
21
-77.1431
0
LINE
8
BLACK
6
CONTINUOUS
10
111.335
20
-77.1431
11
111.336
21
-75.0115
0
LINE
8
BLACK
6
CONTINUOUS
10
111.336
20
-75.0115
11
107.482
21
-75.0115
0
LINE
8
BLACK
6
CONTINUOUS
10
107.482
20
-75.0115
11
107.486
21
-75.0299
0
LINE
8
BLACK
6
CONTINUOUS
10
107.486
20
-75.0299
11
107.486
21
-77.2431
0
LINE
8
BLACK
6
CONTINUOUS
10
107.486
20
-77.2431
11
107.482
21
-77.2615
0
LINE
8
BLACK
6
CONTINUOUS
10
107.482
20
-77.2615
11
111.417
21
-77.2615
0
LINE
8
BLACK
6
CONTINUOUS
10
111.417
20
-77.2615
11
111.437
21
-77.2649
0
LINE
8
BLACK
6
CONTINUOUS
10
111.437
20
-77.2649
11
111.459
21
-77.2782
0
LINE
8
BLACK
6
CONTINUOUS
10
111.459
20
-77.2782
11
111.476
21
-77.2984
0
LINE
8
BLACK
6
CONTINUOUS
10
111.476
20
-77.2984
11
111.485
21
-77.3233
0
LINE
8
BLACK
6
CONTINUOUS
10
111.485
20
-77.3233
11
111.485
21
-77.3497
0
LINE
8
BLACK
6
CONTINUOUS
10
111.485
20
-77.3497
11
111.476
21
-77.3746
0
LINE
8
BLACK
6
CONTINUOUS
10
111.476
20
-77.3746
11
111.459
21
-77.3948
0
LINE
8
BLACK
6
CONTINUOUS
10
111.459
20
-77.3948
11
111.437
21
-77.4081
0
LINE
8
BLACK
6
CONTINUOUS
10
111.437
20
-77.4081
11
111.417
21
-77.4115
0
LINE
8
BLACK
6
CONTINUOUS
10
111.417
20
-77.4115
11
107.404
21
-77.4115
0
LINE
8
BLACK
6
CONTINUOUS
10
107.404
20
-77.4115
11
107.384
21
-77.4081
0
LINE
8
BLACK
6
CONTINUOUS
10
107.384
20
-77.4081
11
107.362
21
-77.3948
0
LINE
8
BLACK
6
CONTINUOUS
10
107.362
20
-77.3948
11
107.345
21
-77.3746
0
LINE
8
BLACK
6
CONTINUOUS
10
107.345
20
-77.3746
11
107.336
21
-77.3497
0
LINE
8
BLACK
6
CONTINUOUS
10
107.336
20
-77.3497
11
107.336
21
-77.3233
0
LINE
8
BLACK
6
CONTINUOUS
10
107.336
20
-77.3233
11
107.345
21
-77.2984
0
LINE
8
BLACK
6
CONTINUOUS
10
107.345
20
-77.2984
11
107.354
21
-77.2871
0
LINE
8
BLACK
6
CONTINUOUS
10
107.354
20
-77.2871
11
107.352
21
-77.2855
0
LINE
8
BLACK
6
CONTINUOUS
10
107.352
20
-77.2855
11
107.339
21
-77.2625
0
LINE
8
BLACK
6
CONTINUOUS
10
107.339
20
-77.2625
11
107.336
21
-77.2431
0
LINE
8
BLACK
6
CONTINUOUS
10
107.336
20
-77.2431
11
107.335
21
-75.0299
0
LINE
8
BLACK
6
CONTINUOUS
10
107.335
20
-75.0299
11
107.339
21
-75.0105
0
LINE
8
BLACK
6
CONTINUOUS
10
107.339
20
-75.0105
11
107.352
21
-74.9875
0
LINE
8
BLACK
6
CONTINUOUS
10
107.352
20
-74.9875
11
107.354
21
-74.9859
0
LINE
8
BLACK
6
CONTINUOUS
10
107.354
20
-74.9859
11
107.345
21
-74.9746
0
LINE
8
BLACK
6
CONTINUOUS
10
107.345
20
-74.9746
11
107.336
21
-74.9497
0
LINE
8
BLACK
6
CONTINUOUS
10
107.336
20
-74.9497
11
107.336
21
-74.9233
0
LINE
8
BLACK
6
CONTINUOUS
10
107.336
20
-74.9233
11
107.345
21
-74.8984
0
LINE
8
BLACK
6
CONTINUOUS
10
107.345
20
-74.8984
11
107.362
21
-74.8782
0
LINE
8
BLACK
6
CONTINUOUS
10
107.362
20
-74.8782
11
107.384
21
-74.8649
0
LINE
8
BLACK
6
CONTINUOUS
10
107.384
20
-74.8649
11
107.404
21
-74.8615
0
LINE
8
BLACK
6
CONTINUOUS
10
107.404
20
-74.8615
11
111.417
21
-74.8615
0
LINE
8
BLACK
6
CONTINUOUS
10
111.417
20
-74.8615
11
111.417
21
-74.8615
0
LINE
8
BLACK
6
CONTINUOUS
10
109.428
20
-75.8135
11
109.431
21
-75.8135
0
LINE
8
BLACK
6
CONTINUOUS
10
109.431
20
-75.8135
11
109.437
21
-75.8155
0
LINE
8
BLACK
6
CONTINUOUS
10
109.437
20
-75.8155
11
109.442
21
-75.8169
0
LINE
8
BLACK
6
CONTINUOUS
10
109.442
20
-75.8169
11
109.445
21
-75.8184
0
LINE
8
BLACK
6
CONTINUOUS
10
109.445
20
-75.8184
11
109.447
21
-75.8194
0
LINE
8
BLACK
6
CONTINUOUS
10
109.447
20
-75.8194
11
109.452
21
-75.8232
0
LINE
8
BLACK
6
CONTINUOUS
10
109.452
20
-75.8232
11
109.457
21
-75.8265
0
LINE
8
BLACK
6
CONTINUOUS
10
109.457
20
-75.8265
11
109.459
21
-75.8288
0
LINE
8
BLACK
6
CONTINUOUS
10
109.459
20
-75.8288
11
109.461
21
-75.8306
0
LINE
8
BLACK
6
CONTINUOUS
10
109.461
20
-75.8306
11
109.464
21
-75.8357
0
LINE
8
BLACK
6
CONTINUOUS
10
109.464
20
-75.8357
11
109.467
21
-75.8405
0
LINE
8
BLACK
6
CONTINUOUS
10
109.467
20
-75.8405
11
109.468
21
-75.8432
0
LINE
8
BLACK
6
CONTINUOUS
10
109.468
20
-75.8432
11
109.469
21
-75.8456
0
LINE
8
BLACK
6
CONTINUOUS
10
109.469
20
-75.8456
11
109.47
21
-75.8515
0
LINE
8
BLACK
6
CONTINUOUS
10
109.47
20
-75.8515
11
109.472
21
-75.8572
0
LINE
8
BLACK
6
CONTINUOUS
10
109.472
20
-75.8572
11
109.472
21
-75.86
0
LINE
8
BLACK
6
CONTINUOUS
10
109.472
20
-75.86
11
109.472
21
-75.8627
0
LINE
8
BLACK
6
CONTINUOUS
10
109.472
20
-75.8627
11
109.472
21
-76.3127
0
LINE
8
BLACK
6
CONTINUOUS
10
109.472
20
-76.3127
11
109.565
21
-76.3127
0
LINE
8
BLACK
6
CONTINUOUS
10
109.565
20
-76.3127
11
109.582
21
-76.3157
0
LINE
8
BLACK
6
CONTINUOUS
10
109.582
20
-76.3157
11
109.597
21
-76.3244
0
LINE
8
BLACK
6
CONTINUOUS
10
109.597
20
-76.3244
11
109.609
21
-76.3377
0
LINE
8
BLACK
6
CONTINUOUS
10
109.609
20
-76.3377
11
109.615
21
-76.354
0
LINE
8
BLACK
6
CONTINUOUS
10
109.615
20
-76.354
11
109.615
21
-76.3714
0
LINE
8
BLACK
6
CONTINUOUS
10
109.615
20
-76.3714
11
109.609
21
-76.3877
0
LINE
8
BLACK
6
CONTINUOUS
10
109.609
20
-76.3877
11
109.597
21
-76.401
0
LINE
8
BLACK
6
CONTINUOUS
10
109.597
20
-76.401
11
109.582
21
-76.4097
0
LINE
8
BLACK
6
CONTINUOUS
10
109.582
20
-76.4097
11
109.565
21
-76.4127
0
LINE
8
BLACK
6
CONTINUOUS
10
109.565
20
-76.4127
11
109.28
21
-76.4127
0
LINE
8
BLACK
6
CONTINUOUS
10
109.28
20
-76.4127
11
109.262
21
-76.4097
0
LINE
8
BLACK
6
CONTINUOUS
10
109.262
20
-76.4097
11
109.247
21
-76.401
0
LINE
8
BLACK
6
CONTINUOUS
10
109.247
20
-76.401
11
109.236
21
-76.3877
0
LINE
8
BLACK
6
CONTINUOUS
10
109.236
20
-76.3877
11
109.23
21
-76.3714
0
LINE
8
BLACK
6
CONTINUOUS
10
109.23
20
-76.3714
11
109.23
21
-76.354
0
LINE
8
BLACK
6
CONTINUOUS
10
109.23
20
-76.354
11
109.236
21
-76.3377
0
LINE
8
BLACK
6
CONTINUOUS
10
109.236
20
-76.3377
11
109.247
21
-76.3244
0
LINE
8
BLACK
6
CONTINUOUS
10
109.247
20
-76.3244
11
109.262
21
-76.3157
0
LINE
8
BLACK
6
CONTINUOUS
10
109.262
20
-76.3157
11
109.28
21
-76.3127
0
LINE
8
BLACK
6
CONTINUOUS
10
109.28
20
-76.3127
11
109.372
21
-76.3127
0
LINE
8
BLACK
6
CONTINUOUS
10
109.372
20
-76.3127
11
109.372
21
-76.0072
0
LINE
8
BLACK
6
CONTINUOUS
10
109.372
20
-76.0072
11
109.363
21
-76.0171
0
LINE
8
BLACK
6
CONTINUOUS
10
109.363
20
-76.0171
11
109.356
21
-76.0217
0
LINE
8
BLACK
6
CONTINUOUS
10
109.356
20
-76.0217
11
109.35
21
-76.0265
0
LINE
8
BLACK
6
CONTINUOUS
10
109.35
20
-76.0265
11
109.302
21
-76.0503
0
LINE
8
BLACK
6
CONTINUOUS
10
109.302
20
-76.0503
11
109.285
21
-76.0552
0
LINE
8
BLACK
6
CONTINUOUS
10
109.285
20
-76.0552
11
109.268
21
-76.0542
0
LINE
8
BLACK
6
CONTINUOUS
10
109.268
20
-76.0542
11
109.252
21
-76.0473
0
LINE
8
BLACK
6
CONTINUOUS
10
109.252
20
-76.0473
11
109.239
21
-76.0353
0
LINE
8
BLACK
6
CONTINUOUS
10
109.239
20
-76.0353
11
109.232
21
-76.0198
0
LINE
8
BLACK
6
CONTINUOUS
10
109.232
20
-76.0198
11
109.23
21
-76.0026
0
LINE
8
BLACK
6
CONTINUOUS
10
109.23
20
-76.0026
11
109.234
21
-75.9857
0
LINE
8
BLACK
6
CONTINUOUS
10
109.234
20
-75.9857
11
109.243
21
-75.9712
0
LINE
8
BLACK
6
CONTINUOUS
10
109.243
20
-75.9712
11
109.257
21
-75.9608
0
LINE
8
BLACK
6
CONTINUOUS
10
109.257
20
-75.9608
11
109.298
21
-75.9406
0
LINE
8
BLACK
6
CONTINUOUS
10
109.298
20
-75.9406
11
109.336
21
-75.9023
0
LINE
8
BLACK
6
CONTINUOUS
10
109.336
20
-75.9023
11
109.381
21
-75.835
0
LINE
8
BLACK
6
CONTINUOUS
10
109.381
20
-75.835
11
109.383
21
-75.833
0
LINE
8
BLACK
6
CONTINUOUS
10
109.383
20
-75.833
11
109.384
21
-75.8306
0
LINE
8
BLACK
6
CONTINUOUS
10
109.384
20
-75.8306
11
109.389
21
-75.8267
0
LINE
8
BLACK
6
CONTINUOUS
10
109.389
20
-75.8267
11
109.393
21
-75.8224
0
LINE
8
BLACK
6
CONTINUOUS
10
109.393
20
-75.8224
11
109.395
21
-75.8212
0
LINE
8
BLACK
6
CONTINUOUS
10
109.395
20
-75.8212
11
109.397
21
-75.8194
0
LINE
8
BLACK
6
CONTINUOUS
10
109.397
20
-75.8194
11
109.403
21
-75.8173
0
LINE
8
BLACK
6
CONTINUOUS
10
109.403
20
-75.8173
11
109.408
21
-75.8147
0
LINE
8
BLACK
6
CONTINUOUS
10
109.408
20
-75.8147
11
109.411
21
-75.8144
0
LINE
8
BLACK
6
CONTINUOUS
10
109.411
20
-75.8144
11
109.414
21
-75.8135
0
LINE
8
BLACK
6
CONTINUOUS
10
109.414
20
-75.8135
11
109.42
21
-75.8135
0
LINE
8
BLACK
6
CONTINUOUS
10
109.42
20
-75.8135
11
109.426
21
-75.8128
0
LINE
8
BLACK
6
CONTINUOUS
10
109.426
20
-75.8128
11
109.428
21
-75.8135
0
LINE
8
BLACK
6
CONTINUOUS
10
108.997
20
-75.8132
11
109
21
-75.813
0
LINE
8
BLACK
6
CONTINUOUS
10
109
20
-75.813
11
109.005
21
-75.8147
0
LINE
8
BLACK
6
CONTINUOUS
10
109.005
20
-75.8147
11
109.011
21
-75.8157
0
LINE
8
BLACK
6
CONTINUOUS
10
109.011
20
-75.8157
11
109.013
21
-75.8171
0
LINE
8
BLACK
6
CONTINUOUS
10
109.013
20
-75.8171
11
109.016
21
-75.818
0
LINE
8
BLACK
6
CONTINUOUS
10
109.016
20
-75.818
11
109.064
21
-75.8418
0
LINE
8
BLACK
6
CONTINUOUS
10
109.064
20
-75.8418
11
109.07
21
-75.8466
0
LINE
8
BLACK
6
CONTINUOUS
10
109.07
20
-75.8466
11
109.077
21
-75.8511
0
LINE
8
BLACK
6
CONTINUOUS
10
109.077
20
-75.8511
11
109.101
21
-75.875
0
LINE
8
BLACK
6
CONTINUOUS
10
109.101
20
-75.875
11
109.105
21
-75.8815
0
LINE
8
BLACK
6
CONTINUOUS
10
109.105
20
-75.8815
11
109.11
21
-75.8879
0
LINE
8
BLACK
6
CONTINUOUS
10
109.11
20
-75.8879
11
109.134
21
-75.9356
0
LINE
8
BLACK
6
CONTINUOUS
10
109.134
20
-75.9356
11
109.135
21
-75.9383
0
LINE
8
BLACK
6
CONTINUOUS
10
109.135
20
-75.9383
11
109.136
21
-75.9408
0
LINE
8
BLACK
6
CONTINUOUS
10
109.136
20
-75.9408
11
109.137
21
-75.9466
0
LINE
8
BLACK
6
CONTINUOUS
10
109.137
20
-75.9466
11
109.139
21
-75.9522
0
LINE
8
BLACK
6
CONTINUOUS
10
109.139
20
-75.9522
11
109.139
21
-75.9551
0
LINE
8
BLACK
6
CONTINUOUS
10
109.139
20
-75.9551
11
109.139
21
-75.9579
0
LINE
8
BLACK
6
CONTINUOUS
10
109.139
20
-75.9579
11
109.139
21
-76.0294
0
LINE
8
BLACK
6
CONTINUOUS
10
109.139
20
-76.0294
11
109.139
21
-76.0322
0
LINE
8
BLACK
6
CONTINUOUS
10
109.139
20
-76.0322
11
109.139
21
-76.0351
0
LINE
8
BLACK
6
CONTINUOUS
10
109.139
20
-76.0351
11
109.137
21
-76.0407
0
LINE
8
BLACK
6
CONTINUOUS
10
109.137
20
-76.0407
11
109.136
21
-76.0465
0
LINE
8
BLACK
6
CONTINUOUS
10
109.136
20
-76.0465
11
109.135
21
-76.049
0
LINE
8
BLACK
6
CONTINUOUS
10
109.135
20
-76.049
11
109.134
21
-76.0517
0
LINE
8
BLACK
6
CONTINUOUS
10
109.134
20
-76.0517
11
109.11
21
-76.0993
0
LINE
8
BLACK
6
CONTINUOUS
10
109.11
20
-76.0993
11
109.105
21
-76.1058
0
LINE
8
BLACK
6
CONTINUOUS
10
109.105
20
-76.1058
11
109.101
21
-76.1123
0
LINE
8
BLACK
6
CONTINUOUS
10
109.101
20
-76.1123
11
109.077
21
-76.1361
0
LINE
8
BLACK
6
CONTINUOUS
10
109.077
20
-76.1361
11
109.07
21
-76.1407
0
LINE
8
BLACK
6
CONTINUOUS
10
109.07
20
-76.1407
11
109.064
21
-76.1455
0
LINE
8
BLACK
6
CONTINUOUS
10
109.064
20
-76.1455
11
109.016
21
-76.1693
0
LINE
8
BLACK
6
CONTINUOUS
10
109.016
20
-76.1693
11
109.013
21
-76.1701
0
LINE
8
BLACK
6
CONTINUOUS
10
109.013
20
-76.1701
11
109.011
21
-76.1716
0
LINE
8
BLACK
6
CONTINUOUS
10
109.011
20
-76.1716
11
109.005
21
-76.1726
0
LINE
8
BLACK
6
CONTINUOUS
10
109.005
20
-76.1726
11
109
21
-76.1743
0
LINE
8
BLACK
6
CONTINUOUS
10
109
20
-76.1743
11
108.997
21
-76.1741
0
LINE
8
BLACK
6
CONTINUOUS
10
108.997
20
-76.1741
11
108.994
21
-76.1746
0
LINE
8
BLACK
6
CONTINUOUS
10
108.994
20
-76.1746
11
108.853
21
-76.1746
0
LINE
8
BLACK
6
CONTINUOUS
10
108.853
20
-76.1746
11
108.853
21
-76.3627
0
LINE
8
BLACK
6
CONTINUOUS
10
108.853
20
-76.3627
11
108.85
21
-76.3798
0
LINE
8
BLACK
6
CONTINUOUS
10
108.85
20
-76.3798
11
108.842
21
-76.3948
0
LINE
8
BLACK
6
CONTINUOUS
10
108.842
20
-76.3948
11
108.828
21
-76.406
0
LINE
8
BLACK
6
CONTINUOUS
10
108.828
20
-76.406
11
108.812
21
-76.4119
0
LINE
8
BLACK
6
CONTINUOUS
10
108.812
20
-76.4119
11
108.795
21
-76.4119
0
LINE
8
BLACK
6
CONTINUOUS
10
108.795
20
-76.4119
11
108.778
21
-76.406
0
LINE
8
BLACK
6
CONTINUOUS
10
108.778
20
-76.406
11
108.765
21
-76.3948
0
LINE
8
BLACK
6
CONTINUOUS
10
108.765
20
-76.3948
11
108.756
21
-76.3798
0
LINE
8
BLACK
6
CONTINUOUS
10
108.756
20
-76.3798
11
108.753
21
-76.3627
0
LINE
8
BLACK
6
CONTINUOUS
10
108.753
20
-76.3627
11
108.753
21
-75.8627
0
LINE
8
BLACK
6
CONTINUOUS
10
108.753
20
-75.8627
11
108.754
21
-75.8584
0
LINE
8
BLACK
6
CONTINUOUS
10
108.754
20
-75.8584
11
108.754
21
-75.854
0
LINE
8
BLACK
6
CONTINUOUS
10
108.754
20
-75.854
11
108.756
21
-75.8499
0
LINE
8
BLACK
6
CONTINUOUS
10
108.756
20
-75.8499
11
108.756
21
-75.8456
0
LINE
8
BLACK
6
CONTINUOUS
10
108.756
20
-75.8456
11
108.759
21
-75.8418
0
LINE
8
BLACK
6
CONTINUOUS
10
108.759
20
-75.8418
11
108.76
21
-75.8377
0
LINE
8
BLACK
6
CONTINUOUS
10
108.76
20
-75.8377
11
108.763
21
-75.8343
0
LINE
8
BLACK
6
CONTINUOUS
10
108.763
20
-75.8343
11
108.765
21
-75.8306
0
LINE
8
BLACK
6
CONTINUOUS
10
108.765
20
-75.8306
11
108.768
21
-75.8277
0
LINE
8
BLACK
6
CONTINUOUS
10
108.768
20
-75.8277
11
108.771
21
-75.8244
0
LINE
8
BLACK
6
CONTINUOUS
10
108.771
20
-75.8244
11
108.775
21
-75.8222
0
LINE
8
BLACK
6
CONTINUOUS
10
108.775
20
-75.8222
11
108.778
21
-75.8194
0
LINE
8
BLACK
6
CONTINUOUS
10
108.778
20
-75.8194
11
108.782
21
-75.8179
0
LINE
8
BLACK
6
CONTINUOUS
10
108.782
20
-75.8179
11
108.786
21
-75.8157
0
LINE
8
BLACK
6
CONTINUOUS
10
108.786
20
-75.8157
11
108.791
21
-75.8149
0
LINE
8
BLACK
6
CONTINUOUS
10
108.791
20
-75.8149
11
108.795
21
-75.8135
0
LINE
8
BLACK
6
CONTINUOUS
10
108.795
20
-75.8135
11
108.799
21
-75.8135
0
LINE
8
BLACK
6
CONTINUOUS
10
108.799
20
-75.8135
11
108.803
21
-75.8127
0
LINE
8
BLACK
6
CONTINUOUS
10
108.803
20
-75.8127
11
108.994
21
-75.8127
0
LINE
8
BLACK
6
CONTINUOUS
10
108.994
20
-75.8127
11
108.997
21
-75.8132
0
LINE
8
BLACK
6
CONTINUOUS
10
108.853
20
-75.9127
11
108.853
21
-76.0746
0
LINE
8
BLACK
6
CONTINUOUS
10
108.853
20
-76.0746
11
108.982
21
-76.0746
0
LINE
8
BLACK
6
CONTINUOUS
10
108.982
20
-76.0746
11
109.012
21
-76.0597
0
LINE
8
BLACK
6
CONTINUOUS
10
109.012
20
-76.0597
11
109.024
21
-76.0474
0
LINE
8
BLACK
6
CONTINUOUS
10
109.024
20
-76.0474
11
109.039
21
-76.0176
0
LINE
8
BLACK
6
CONTINUOUS
10
109.039
20
-76.0176
11
109.039
21
-75.9697
0
LINE
8
BLACK
6
CONTINUOUS
10
109.039
20
-75.9697
11
109.024
21
-75.9399
0
LINE
8
BLACK
6
CONTINUOUS
10
109.024
20
-75.9399
11
109.012
21
-75.9276
0
LINE
8
BLACK
6
CONTINUOUS
10
109.012
20
-75.9276
11
108.982
21
-75.9127
0
LINE
8
BLACK
6
CONTINUOUS
10
108.982
20
-75.9127
11
108.853
21
-75.9127
0
LINE
8
BLACK
6
CONTINUOUS
10
109.899
20
-75.7949
11
109.912
21
-75.8057
0
LINE
8
BLACK
6
CONTINUOUS
10
109.912
20
-75.8057
11
109.921
21
-75.8205
0
LINE
8
BLACK
6
CONTINUOUS
10
109.921
20
-75.8205
11
109.925
21
-75.8375
0
LINE
8
BLACK
6
CONTINUOUS
10
109.925
20
-75.8375
11
109.922
21
-75.8547
0
LINE
8
BLACK
6
CONTINUOUS
10
109.922
20
-75.8547
11
109.825
21
-76.146
0
LINE
8
BLACK
6
CONTINUOUS
10
109.825
20
-76.146
11
109.944
21
-76.146
0
LINE
8
BLACK
6
CONTINUOUS
10
109.944
20
-76.146
11
109.944
21
-76.0294
0
LINE
8
BLACK
6
CONTINUOUS
10
109.944
20
-76.0294
11
109.947
21
-76.0123
0
LINE
8
BLACK
6
CONTINUOUS
10
109.947
20
-76.0123
11
109.956
21
-75.9972
0
LINE
8
BLACK
6
CONTINUOUS
10
109.956
20
-75.9972
11
109.969
21
-75.9861
0
LINE
8
BLACK
6
CONTINUOUS
10
109.969
20
-75.9861
11
109.985
21
-75.9801
0
LINE
8
BLACK
6
CONTINUOUS
10
109.985
20
-75.9801
11
110.003
21
-75.9801
0
LINE
8
BLACK
6
CONTINUOUS
10
110.003
20
-75.9801
11
110.019
21
-75.9861
0
LINE
8
BLACK
6
CONTINUOUS
10
110.019
20
-75.9861
11
110.032
21
-75.9972
0
LINE
8
BLACK
6
CONTINUOUS
10
110.032
20
-75.9972
11
110.041
21
-76.0123
0
LINE
8
BLACK
6
CONTINUOUS
10
110.041
20
-76.0123
11
110.044
21
-76.0294
0
LINE
8
BLACK
6
CONTINUOUS
10
110.044
20
-76.0294
11
110.044
21
-76.146
0
LINE
8
BLACK
6
CONTINUOUS
10
110.044
20
-76.146
11
110.065
21
-76.146
0
LINE
8
BLACK
6
CONTINUOUS
10
110.065
20
-76.146
11
110.082
21
-76.149
0
LINE
8
BLACK
6
CONTINUOUS
10
110.082
20
-76.149
11
110.097
21
-76.1577
0
LINE
8
BLACK
6
CONTINUOUS
10
110.097
20
-76.1577
11
110.109
21
-76.171
0
LINE
8
BLACK
6
CONTINUOUS
10
110.109
20
-76.171
11
110.115
21
-76.1873
0
LINE
8
BLACK
6
CONTINUOUS
10
110.115
20
-76.1873
11
110.115
21
-76.2047
0
LINE
8
BLACK
6
CONTINUOUS
10
110.115
20
-76.2047
11
110.109
21
-76.221
0
LINE
8
BLACK
6
CONTINUOUS
10
110.109
20
-76.221
11
110.097
21
-76.2343
0
LINE
8
BLACK
6
CONTINUOUS
10
110.097
20
-76.2343
11
110.082
21
-76.243
0
LINE
8
BLACK
6
CONTINUOUS
10
110.082
20
-76.243
11
110.065
21
-76.246
0
LINE
8
BLACK
6
CONTINUOUS
10
110.065
20
-76.246
11
110.044
21
-76.246
0
LINE
8
BLACK
6
CONTINUOUS
10
110.044
20
-76.246
11
110.044
21
-76.3627
0
LINE
8
BLACK
6
CONTINUOUS
10
110.044
20
-76.3627
11
110.041
21
-76.3798
0
LINE
8
BLACK
6
CONTINUOUS
10
110.041
20
-76.3798
11
110.032
21
-76.3948
0
LINE
8
BLACK
6
CONTINUOUS
10
110.032
20
-76.3948
11
110.019
21
-76.406
0
LINE
8
BLACK
6
CONTINUOUS
10
110.019
20
-76.406
11
110.003
21
-76.4119
0
LINE
8
BLACK
6
CONTINUOUS
10
110.003
20
-76.4119
11
109.985
21
-76.4119
0
LINE
8
BLACK
6
CONTINUOUS
10
109.985
20
-76.4119
11
109.969
21
-76.406
0
LINE
8
BLACK
6
CONTINUOUS
10
109.969
20
-76.406
11
109.956
21
-76.3948
0
LINE
8
BLACK
6
CONTINUOUS
10
109.956
20
-76.3948
11
109.947
21
-76.3798
0
LINE
8
BLACK
6
CONTINUOUS
10
109.947
20
-76.3798
11
109.944
21
-76.3627
0
LINE
8
BLACK
6
CONTINUOUS
10
109.944
20
-76.3627
11
109.944
21
-76.246
0
LINE
8
BLACK
6
CONTINUOUS
10
109.944
20
-76.246
11
109.756
21
-76.246
0
LINE
8
BLACK
6
CONTINUOUS
10
109.756
20
-76.246
11
109.752
21
-76.2454
0
LINE
8
BLACK
6
CONTINUOUS
10
109.752
20
-76.2454
11
109.748
21
-76.2455
0
LINE
8
BLACK
6
CONTINUOUS
10
109.748
20
-76.2455
11
109.744
21
-76.2439
0
LINE
8
BLACK
6
CONTINUOUS
10
109.744
20
-76.2439
11
109.739
21
-76.243
0
LINE
8
BLACK
6
CONTINUOUS
10
109.739
20
-76.243
11
109.735
21
-76.2412
0
LINE
8
BLACK
6
CONTINUOUS
10
109.735
20
-76.2412
11
109.732
21
-76.24
0
LINE
8
BLACK
6
CONTINUOUS
10
109.732
20
-76.24
11
109.728
21
-76.2369
0
LINE
8
BLACK
6
CONTINUOUS
10
109.728
20
-76.2369
11
109.724
21
-76.2343
0
LINE
8
BLACK
6
CONTINUOUS
10
109.724
20
-76.2343
11
109.721
21
-76.2315
0
LINE
8
BLACK
6
CONTINUOUS
10
109.721
20
-76.2315
11
109.718
21
-76.2292
0
LINE
8
BLACK
6
CONTINUOUS
10
109.718
20
-76.2292
11
109.716
21
-76.2249
0
LINE
8
BLACK
6
CONTINUOUS
10
109.716
20
-76.2249
11
109.712
21
-76.221
0
LINE
8
BLACK
6
CONTINUOUS
10
109.712
20
-76.221
11
109.711
21
-76.2176
0
LINE
8
BLACK
6
CONTINUOUS
10
109.711
20
-76.2176
11
109.709
21
-76.2144
0
LINE
8
BLACK
6
CONTINUOUS
10
109.709
20
-76.2144
11
109.708
21
-76.2094
0
LINE
8
BLACK
6
CONTINUOUS
10
109.708
20
-76.2094
11
109.706
21
-76.2047
0
LINE
8
BLACK
6
CONTINUOUS
10
109.706
20
-76.2047
11
109.706
21
-76.201
0
LINE
8
BLACK
6
CONTINUOUS
10
109.706
20
-76.201
11
109.706
21
-76.1974
0
LINE
8
BLACK
6
CONTINUOUS
10
109.706
20
-76.1974
11
109.706
21
-76.1924
0
LINE
8
BLACK
6
CONTINUOUS
10
109.706
20
-76.1924
11
109.706
21
-76.1873
0
LINE
8
BLACK
6
CONTINUOUS
10
109.706
20
-76.1873
11
109.708
21
-76.1839
0
LINE
8
BLACK
6
CONTINUOUS
10
109.708
20
-76.1839
11
109.708
21
-76.1802
0
LINE
8
BLACK
6
CONTINUOUS
10
109.708
20
-76.1802
11
109.827
21
-75.8231
0
LINE
8
BLACK
6
CONTINUOUS
10
109.827
20
-75.8231
11
109.836
21
-75.8078
0
LINE
8
BLACK
6
CONTINUOUS
10
109.836
20
-75.8078
11
109.849
21
-75.7963
0
LINE
8
BLACK
6
CONTINUOUS
10
109.849
20
-75.7963
11
109.865
21
-75.7899
0
LINE
8
BLACK
6
CONTINUOUS
10
109.865
20
-75.7899
11
109.882
21
-75.7894
0
LINE
8
BLACK
6
CONTINUOUS
10
109.882
20
-75.7894
11
109.899
21
-75.7949
0
LINE
8
BLACK
6
CONTINUOUS
10
93.7349
20
-58.9236
11
93.4319
21
-59.1778
0
LINE
8
BLACK
6
CONTINUOUS
10
93.4319
20
-59.1778
11
93.0602
21
-59.3131
0
LINE
8
BLACK
6
CONTINUOUS
10
93.0602
20
-59.3131
11
92.6646
21
-59.3131
0
LINE
8
BLACK
6
CONTINUOUS
10
92.6646
20
-59.3131
11
92.2929
21
-59.1778
0
LINE
8
BLACK
6
CONTINUOUS
10
92.2929
20
-59.1778
11
91.9899
21
-58.9236
0
LINE
8
BLACK
6
CONTINUOUS
10
91.9899
20
-58.9236
11
91.7921
21
-58.581
0
LINE
8
BLACK
6
CONTINUOUS
10
91.7921
20
-58.581
11
91.7234
21
-58.1914
0
LINE
8
BLACK
6
CONTINUOUS
10
91.7234
20
-58.1914
11
91.7921
21
-57.8018
0
LINE
8
BLACK
6
CONTINUOUS
10
91.7921
20
-57.8018
11
91.9899
21
-57.4592
0
LINE
8
BLACK
6
CONTINUOUS
10
91.9899
20
-57.4592
11
92.2929
21
-57.205
0
LINE
8
BLACK
6
CONTINUOUS
10
92.2929
20
-57.205
11
92.6646
21
-57.0697
0
LINE
8
BLACK
6
CONTINUOUS
10
92.6646
20
-57.0697
11
93.0602
21
-57.0697
0
LINE
8
BLACK
6
CONTINUOUS
10
93.0602
20
-57.0697
11
93.4319
21
-57.205
0
LINE
8
BLACK
6
CONTINUOUS
10
93.4319
20
-57.205
11
93.7349
21
-57.4592
0
LINE
8
BLACK
6
CONTINUOUS
10
93.7349
20
-57.4592
11
93.9327
21
-57.8018
0
LINE
8
BLACK
6
CONTINUOUS
10
93.9327
20
-57.8018
11
94.0014
21
-58.1914
0
LINE
8
BLACK
6
CONTINUOUS
10
94.0014
20
-58.1914
11
93.9327
21
-58.581
0
LINE
8
BLACK
6
CONTINUOUS
10
93.9327
20
-58.581
11
93.7349
21
-58.9236
0
LINE
8
BLACK
6
CONTINUOUS
10
93.6047
20
-57.5685
11
93.3469
21
-57.3522
0
LINE
8
BLACK
6
CONTINUOUS
10
93.3469
20
-57.3522
11
93.0307
21
-57.2371
0
LINE
8
BLACK
6
CONTINUOUS
10
93.0307
20
-57.2371
11
92.6941
21
-57.2371
0
LINE
8
BLACK
6
CONTINUOUS
10
92.6941
20
-57.2371
11
92.3779
21
-57.3522
0
LINE
8
BLACK
6
CONTINUOUS
10
92.3779
20
-57.3522
11
92.1201
21
-57.5685
0
LINE
8
BLACK
6
CONTINUOUS
10
92.1201
20
-57.5685
11
91.9518
21
-57.86
0
LINE
8
BLACK
6
CONTINUOUS
10
91.9518
20
-57.86
11
91.8934
21
-58.1914
0
LINE
8
BLACK
6
CONTINUOUS
10
91.8934
20
-58.1914
11
91.9518
21
-58.5228
0
LINE
8
BLACK
6
CONTINUOUS
10
91.9518
20
-58.5228
11
92.1201
21
-58.8143
0
LINE
8
BLACK
6
CONTINUOUS
10
92.1201
20
-58.8143
11
92.3779
21
-59.0306
0
LINE
8
BLACK
6
CONTINUOUS
10
92.3779
20
-59.0306
11
92.6941
21
-59.1457
0
LINE
8
BLACK
6
CONTINUOUS
10
92.6941
20
-59.1457
11
93.0307
21
-59.1457
0
LINE
8
BLACK
6
CONTINUOUS
10
93.0307
20
-59.1457
11
93.3469
21
-59.0306
0
LINE
8
BLACK
6
CONTINUOUS
10
93.3469
20
-59.0306
11
93.6047
21
-58.8143
0
LINE
8
BLACK
6
CONTINUOUS
10
93.6047
20
-58.8143
11
93.773
21
-58.5228
0
LINE
8
BLACK
6
CONTINUOUS
10
93.773
20
-58.5228
11
93.8314
21
-58.1914
0
LINE
8
BLACK
6
CONTINUOUS
10
93.8314
20
-58.1914
11
93.773
21
-57.86
0
LINE
8
BLACK
6
CONTINUOUS
10
93.773
20
-57.86
11
93.6047
21
-57.5685
0
LINE
8
BLACK
6
CONTINUOUS
10
92.7224
20
-57.9229
11
92.7253
21
-57.9227
0
LINE
8
BLACK
6
CONTINUOUS
10
92.7253
20
-57.9227
11
92.7309
21
-57.9243
0
LINE
8
BLACK
6
CONTINUOUS
10
92.7309
20
-57.9243
11
92.7366
21
-57.9254
0
LINE
8
BLACK
6
CONTINUOUS
10
92.7366
20
-57.9254
11
92.7391
21
-57.9268
0
LINE
8
BLACK
6
CONTINUOUS
10
92.7391
20
-57.9268
11
92.7419
21
-57.9276
0
LINE
8
BLACK
6
CONTINUOUS
10
92.7419
20
-57.9276
11
92.78
21
-57.9467
0
LINE
8
BLACK
6
CONTINUOUS
10
92.78
20
-57.9467
11
92.7864
21
-57.9515
0
LINE
8
BLACK
6
CONTINUOUS
10
92.7864
20
-57.9515
11
92.793
21
-57.956
0
LINE
8
BLACK
6
CONTINUOUS
10
92.793
20
-57.956
11
92.812
21
-57.9751
0
LINE
8
BLACK
6
CONTINUOUS
10
92.812
20
-57.9751
11
92.8166
21
-57.9817
0
LINE
8
BLACK
6
CONTINUOUS
10
92.8166
20
-57.9817
11
92.8214
21
-57.9881
0
LINE
8
BLACK
6
CONTINUOUS
10
92.8214
20
-57.9881
11
92.8405
21
-58.0262
0
LINE
8
BLACK
6
CONTINUOUS
10
92.8405
20
-58.0262
11
92.8413
21
-58.0289
0
LINE
8
BLACK
6
CONTINUOUS
10
92.8413
20
-58.0289
11
92.8427
21
-58.0314
0
LINE
8
BLACK
6
CONTINUOUS
10
92.8427
20
-58.0314
11
92.8437
21
-58.0372
0
LINE
8
BLACK
6
CONTINUOUS
10
92.8437
20
-58.0372
11
92.8454
21
-58.0428
0
LINE
8
BLACK
6
CONTINUOUS
10
92.8454
20
-58.0428
11
92.8452
21
-58.0457
0
LINE
8
BLACK
6
CONTINUOUS
10
92.8452
20
-58.0457
11
92.8457
21
-58.0485
0
LINE
8
BLACK
6
CONTINUOUS
10
92.8457
20
-58.0485
11
92.8457
21
-58.1057
0
LINE
8
BLACK
6
CONTINUOUS
10
92.8457
20
-58.1057
11
92.8452
21
-58.1085
0
LINE
8
BLACK
6
CONTINUOUS
10
92.8452
20
-58.1085
11
92.8454
21
-58.1114
0
LINE
8
BLACK
6
CONTINUOUS
10
92.8454
20
-58.1114
11
92.8437
21
-58.117
0
LINE
8
BLACK
6
CONTINUOUS
10
92.8437
20
-58.117
11
92.8427
21
-58.1228
0
LINE
8
BLACK
6
CONTINUOUS
10
92.8427
20
-58.1228
11
92.8413
21
-58.1253
0
LINE
8
BLACK
6
CONTINUOUS
10
92.8413
20
-58.1253
11
92.8405
21
-58.128
0
LINE
8
BLACK
6
CONTINUOUS
10
92.8405
20
-58.128
11
92.8214
21
-58.1661
0
LINE
8
BLACK
6
CONTINUOUS
10
92.8214
20
-58.1661
11
92.8166
21
-58.1726
0
LINE
8
BLACK
6
CONTINUOUS
10
92.8166
20
-58.1726
11
92.812
21
-58.1791
0
LINE
8
BLACK
6
CONTINUOUS
10
92.812
20
-58.1791
11
92.793
21
-58.1982
0
LINE
8
BLACK
6
CONTINUOUS
10
92.793
20
-58.1982
11
92.7864
21
-58.2028
0
LINE
8
BLACK
6
CONTINUOUS
10
92.7864
20
-58.2028
11
92.78
21
-58.2075
0
LINE
8
BLACK
6
CONTINUOUS
10
92.78
20
-58.2075
11
92.7419
21
-58.2266
0
LINE
8
BLACK
6
CONTINUOUS
10
92.7419
20
-58.2266
11
92.7391
21
-58.2274
0
LINE
8
BLACK
6
CONTINUOUS
10
92.7391
20
-58.2274
11
92.7366
21
-58.2289
0
LINE
8
BLACK
6
CONTINUOUS
10
92.7366
20
-58.2289
11
92.7309
21
-58.2299
0
LINE
8
BLACK
6
CONTINUOUS
10
92.7309
20
-58.2299
11
92.7253
21
-58.2315
0
LINE
8
BLACK
6
CONTINUOUS
10
92.7253
20
-58.2315
11
92.7224
21
-58.2314
0
LINE
8
BLACK
6
CONTINUOUS
10
92.7224
20
-58.2314
11
92.7195
21
-58.2319
0
LINE
8
BLACK
6
CONTINUOUS
10
92.7195
20
-58.2319
11
92.6172
21
-58.2319
0
LINE
8
BLACK
6
CONTINUOUS
10
92.6172
20
-58.2319
11
92.6172
21
-58.3724
0
LINE
8
BLACK
6
CONTINUOUS
10
92.6172
20
-58.3724
11
92.6141
21
-58.3895
0
LINE
8
BLACK
6
CONTINUOUS
10
92.6141
20
-58.3895
11
92.6055
21
-58.4045
0
LINE
8
BLACK
6
CONTINUOUS
10
92.6055
20
-58.4045
11
92.5922
21
-58.4157
0
LINE
8
BLACK
6
CONTINUOUS
10
92.5922
20
-58.4157
11
92.5758
21
-58.4216
0
LINE
8
BLACK
6
CONTINUOUS
10
92.5758
20
-58.4216
11
92.5585
21
-58.4216
0
LINE
8
BLACK
6
CONTINUOUS
10
92.5585
20
-58.4216
11
92.5422
21
-58.4157
0
LINE
8
BLACK
6
CONTINUOUS
10
92.5422
20
-58.4157
11
92.5289
21
-58.4045
0
LINE
8
BLACK
6
CONTINUOUS
10
92.5289
20
-58.4045
11
92.5202
21
-58.3895
0
LINE
8
BLACK
6
CONTINUOUS
10
92.5202
20
-58.3895
11
92.5172
21
-58.3724
0
LINE
8
BLACK
6
CONTINUOUS
10
92.5172
20
-58.3724
11
92.5172
21
-57.9724
0
LINE
8
BLACK
6
CONTINUOUS
10
92.5172
20
-57.9724
11
92.5179
21
-57.968
0
LINE
8
BLACK
6
CONTINUOUS
10
92.5179
20
-57.968
11
92.5179
21
-57.9637
0
LINE
8
BLACK
6
CONTINUOUS
10
92.5179
20
-57.9637
11
92.5194
21
-57.9596
0
LINE
8
BLACK
6
CONTINUOUS
10
92.5194
20
-57.9596
11
92.5202
21
-57.9553
0
LINE
8
BLACK
6
CONTINUOUS
10
92.5202
20
-57.9553
11
92.5224
21
-57.9515
0
LINE
8
BLACK
6
CONTINUOUS
10
92.5224
20
-57.9515
11
92.5239
21
-57.9474
0
LINE
8
BLACK
6
CONTINUOUS
10
92.5239
20
-57.9474
11
92.5267
21
-57.944
0
LINE
8
BLACK
6
CONTINUOUS
10
92.5267
20
-57.944
11
92.5289
21
-57.9402
0
LINE
8
BLACK
6
CONTINUOUS
10
92.5289
20
-57.9402
11
92.5322
21
-57.9374
0
LINE
8
BLACK
6
CONTINUOUS
10
92.5322
20
-57.9374
11
92.535
21
-57.934
0
LINE
8
BLACK
6
CONTINUOUS
10
92.535
20
-57.934
11
92.5388
21
-57.9319
0
LINE
8
BLACK
6
CONTINUOUS
10
92.5388
20
-57.9319
11
92.5422
21
-57.9291
0
LINE
8
BLACK
6
CONTINUOUS
10
92.5422
20
-57.9291
11
92.5463
21
-57.9276
0
LINE
8
BLACK
6
CONTINUOUS
10
92.5463
20
-57.9276
11
92.5501
21
-57.9254
0
LINE
8
BLACK
6
CONTINUOUS
10
92.5501
20
-57.9254
11
92.5544
21
-57.9246
0
LINE
8
BLACK
6
CONTINUOUS
10
92.5544
20
-57.9246
11
92.5585
21
-57.9231
0
LINE
8
BLACK
6
CONTINUOUS
10
92.5585
20
-57.9231
11
92.5628
21
-57.9231
0
LINE
8
BLACK
6
CONTINUOUS
10
92.5628
20
-57.9231
11
92.5672
21
-57.9224
0
LINE
8
BLACK
6
CONTINUOUS
10
92.5672
20
-57.9224
11
92.7195
21
-57.9224
0
LINE
8
BLACK
6
CONTINUOUS
10
92.7195
20
-57.9224
11
92.7224
21
-57.9229
0
LINE
8
BLACK
6
CONTINUOUS
10
92.6172
20
-58.0224
11
92.6172
21
-58.1319
0
LINE
8
BLACK
6
CONTINUOUS
10
92.6172
20
-58.1319
11
92.7077
21
-58.1319
0
LINE
8
BLACK
6
CONTINUOUS
10
92.7077
20
-58.1319
11
92.728
21
-58.1217
0
LINE
8
BLACK
6
CONTINUOUS
10
92.728
20
-58.1217
11
92.7356
21
-58.1142
0
LINE
8
BLACK
6
CONTINUOUS
10
92.7356
20
-58.1142
11
92.7457
21
-58.0939
0
LINE
8
BLACK
6
CONTINUOUS
10
92.7457
20
-58.0939
11
92.7457
21
-58.0603
0
LINE
8
BLACK
6
CONTINUOUS
10
92.7457
20
-58.0603
11
92.7356
21
-58.0401
0
LINE
8
BLACK
6
CONTINUOUS
10
92.7356
20
-58.0401
11
92.728
21
-58.0325
0
LINE
8
BLACK
6
CONTINUOUS
10
92.728
20
-58.0325
11
92.7077
21
-58.0224
0
LINE
8
BLACK
6
CONTINUOUS
10
92.7077
20
-58.0224
11
92.6172
21
-58.0224
0
LINE
8
BLACK
6
CONTINUOUS
10
93.0672
20
-57.9093
11
93.0808
21
-57.9201
0
LINE
8
BLACK
6
CONTINUOUS
10
93.0808
20
-57.9201
11
93.0899
21
-57.9349
0
LINE
8
BLACK
6
CONTINUOUS
10
93.0899
20
-57.9349
11
93.0933
21
-57.9519
0
LINE
8
BLACK
6
CONTINUOUS
10
93.0933
20
-57.9519
11
93.0908
21
-57.9691
0
LINE
8
BLACK
6
CONTINUOUS
10
93.0908
20
-57.9691
11
93.0175
21
-58.189
0
LINE
8
BLACK
6
CONTINUOUS
10
93.0175
20
-58.189
11
93.0886
21
-58.189
0
LINE
8
BLACK
6
CONTINUOUS
10
93.0886
20
-58.189
11
93.0886
21
-58.1057
0
LINE
8
BLACK
6
CONTINUOUS
10
93.0886
20
-58.1057
11
93.0916
21
-58.0886
0
LINE
8
BLACK
6
CONTINUOUS
10
93.0916
20
-58.0886
11
93.1003
21
-58.0735
0
LINE
8
BLACK
6
CONTINUOUS
10
93.1003
20
-58.0735
11
93.1136
21
-58.0624
0
LINE
8
BLACK
6
CONTINUOUS
10
93.1136
20
-58.0624
11
93.1299
21
-58.0564
0
LINE
8
BLACK
6
CONTINUOUS
10
93.1299
20
-58.0564
11
93.1473
21
-58.0564
0
LINE
8
BLACK
6
CONTINUOUS
10
93.1473
20
-58.0564
11
93.1636
21
-58.0624
0
LINE
8
BLACK
6
CONTINUOUS
10
93.1636
20
-58.0624
11
93.1769
21
-58.0735
0
LINE
8
BLACK
6
CONTINUOUS
10
93.1769
20
-58.0735
11
93.1856
21
-58.0886
0
LINE
8
BLACK
6
CONTINUOUS
10
93.1856
20
-58.0886
11
93.1886
21
-58.1057
0
LINE
8
BLACK
6
CONTINUOUS
10
93.1886
20
-58.1057
11
93.1886
21
-58.189
0
LINE
8
BLACK
6
CONTINUOUS
10
93.1886
20
-58.189
11
93.1957
21
-58.189
0
LINE
8
BLACK
6
CONTINUOUS
10
93.1957
20
-58.189
11
93.2128
21
-58.192
0
LINE
8
BLACK
6
CONTINUOUS
10
93.2128
20
-58.192
11
93.2279
21
-58.2007
0
LINE
8
BLACK
6
CONTINUOUS
10
93.2279
20
-58.2007
11
93.239
21
-58.214
0
LINE
8
BLACK
6
CONTINUOUS
10
93.239
20
-58.214
11
93.245
21
-58.2303
0
LINE
8
BLACK
6
CONTINUOUS
10
93.245
20
-58.2303
11
93.245
21
-58.2477
0
LINE
8
BLACK
6
CONTINUOUS
10
93.245
20
-58.2477
11
93.239
21
-58.264
0
LINE
8
BLACK
6
CONTINUOUS
10
93.239
20
-58.264
11
93.2279
21
-58.2773
0
LINE
8
BLACK
6
CONTINUOUS
10
93.2279
20
-58.2773
11
93.2128
21
-58.286
0
LINE
8
BLACK
6
CONTINUOUS
10
93.2128
20
-58.286
11
93.1957
21
-58.289
0
LINE
8
BLACK
6
CONTINUOUS
10
93.1957
20
-58.289
11
93.1886
21
-58.289
0
LINE
8
BLACK
6
CONTINUOUS
10
93.1886
20
-58.289
11
93.1886
21
-58.3724
0
LINE
8
BLACK
6
CONTINUOUS
10
93.1886
20
-58.3724
11
93.1856
21
-58.3895
0
LINE
8
BLACK
6
CONTINUOUS
10
93.1856
20
-58.3895
11
93.1769
21
-58.4045
0
LINE
8
BLACK
6
CONTINUOUS
10
93.1769
20
-58.4045
11
93.1636
21
-58.4157
0
LINE
8
BLACK
6
CONTINUOUS
10
93.1636
20
-58.4157
11
93.1473
21
-58.4216
0
LINE
8
BLACK
6
CONTINUOUS
10
93.1473
20
-58.4216
11
93.1299
21
-58.4216
0
LINE
8
BLACK
6
CONTINUOUS
10
93.1299
20
-58.4216
11
93.1136
21
-58.4157
0
LINE
8
BLACK
6
CONTINUOUS
10
93.1136
20
-58.4157
11
93.1003
21
-58.4045
0
LINE
8
BLACK
6
CONTINUOUS
10
93.1003
20
-58.4045
11
93.0916
21
-58.3895
0
LINE
8
BLACK
6
CONTINUOUS
10
93.0916
20
-58.3895
11
93.0886
21
-58.3724
0
LINE
8
BLACK
6
CONTINUOUS
10
93.0886
20
-58.3724
11
93.0886
21
-58.289
0
LINE
8
BLACK
6
CONTINUOUS
10
93.0886
20
-58.289
11
92.9481
21
-58.289
0
LINE
8
BLACK
6
CONTINUOUS
10
92.9481
20
-58.289
11
92.9445
21
-58.2884
0
LINE
8
BLACK
6
CONTINUOUS
10
92.9445
20
-58.2884
11
92.9408
21
-58.2885
0
LINE
8
BLACK
6
CONTINUOUS
10
92.9408
20
-58.2885
11
92.936
21
-58.2869
0
LINE
8
BLACK
6
CONTINUOUS
10
92.936
20
-58.2869
11
92.931
21
-58.286
0
LINE
8
BLACK
6
CONTINUOUS
10
92.931
20
-58.286
11
92.9278
21
-58.2842
0
LINE
8
BLACK
6
CONTINUOUS
10
92.9278
20
-58.2842
11
92.9243
21
-58.283
0
LINE
8
BLACK
6
CONTINUOUS
10
92.9243
20
-58.283
11
92.9204
21
-58.2798
0
LINE
8
BLACK
6
CONTINUOUS
10
92.9204
20
-58.2798
11
92.916
21
-58.2773
0
LINE
8
BLACK
6
CONTINUOUS
10
92.916
20
-58.2773
11
92.9136
21
-58.2745
0
LINE
8
BLACK
6
CONTINUOUS
10
92.9136
20
-58.2745
11
92.9107
21
-58.2722
0
LINE
8
BLACK
6
CONTINUOUS
10
92.9107
20
-58.2722
11
92.9081
21
-58.2679
0
LINE
8
BLACK
6
CONTINUOUS
10
92.9081
20
-58.2679
11
92.9048
21
-58.264
0
LINE
8
BLACK
6
CONTINUOUS
10
92.9048
20
-58.264
11
92.9035
21
-58.2605
0
LINE
8
BLACK
6
CONTINUOUS
10
92.9035
20
-58.2605
11
92.9016
21
-58.2574
0
LINE
8
BLACK
6
CONTINUOUS
10
92.9016
20
-58.2574
11
92.9006
21
-58.2524
0
LINE
8
BLACK
6
CONTINUOUS
10
92.9006
20
-58.2524
11
92.8989
21
-58.2477
0
LINE
8
BLACK
6
CONTINUOUS
10
92.8989
20
-58.2477
11
92.8989
21
-58.244
0
LINE
8
BLACK
6
CONTINUOUS
10
92.8989
20
-58.244
11
92.8981
21
-58.2404
0
LINE
8
BLACK
6
CONTINUOUS
10
92.8981
20
-58.2404
11
92.8989
21
-58.2354
0
LINE
8
BLACK
6
CONTINUOUS
10
92.8989
20
-58.2354
11
92.8989
21
-58.2303
0
LINE
8
BLACK
6
CONTINUOUS
10
92.8989
20
-58.2303
11
92.9001
21
-58.2269
0
LINE
8
BLACK
6
CONTINUOUS
10
92.9001
20
-58.2269
11
92.9007
21
-58.2232
0
LINE
8
BLACK
6
CONTINUOUS
10
92.9007
20
-58.2232
11
92.9959
21
-57.9375
0
LINE
8
BLACK
6
CONTINUOUS
10
92.9959
20
-57.9375
11
93.0042
21
-57.9222
0
LINE
8
BLACK
6
CONTINUOUS
10
93.0042
20
-57.9222
11
93.0172
21
-57.9107
0
LINE
8
BLACK
6
CONTINUOUS
10
93.0172
20
-57.9107
11
93.0333
21
-57.9043
0
LINE
8
BLACK
6
CONTINUOUS
10
93.0333
20
-57.9043
11
93.0507
21
-57.9038
0
LINE
8
BLACK
6
CONTINUOUS
10
93.0507
20
-57.9038
11
93.0672
21
-57.9093
0
LINE
8
BLACK
6
CONTINUOUS
10
88.7311
20
-56.917
11
88.4281
21
-57.1712
0
LINE
8
BLACK
6
CONTINUOUS
10
88.4281
20
-57.1712
11
88.0564
21
-57.3065
0
LINE
8
BLACK
6
CONTINUOUS
10
88.0564
20
-57.3065
11
87.6608
21
-57.3065
0
LINE
8
BLACK
6
CONTINUOUS
10
87.6608
20
-57.3065
11
87.2891
21
-57.1712
0
LINE
8
BLACK
6
CONTINUOUS
10
87.2891
20
-57.1712
11
86.9861
21
-56.917
0
LINE
8
BLACK
6
CONTINUOUS
10
86.9861
20
-56.917
11
86.7883
21
-56.5744
0
LINE
8
BLACK
6
CONTINUOUS
10
86.7883
20
-56.5744
11
86.7196
21
-56.1848
0
LINE
8
BLACK
6
CONTINUOUS
10
86.7196
20
-56.1848
11
86.7883
21
-55.7952
0
LINE
8
BLACK
6
CONTINUOUS
10
86.7883
20
-55.7952
11
86.9861
21
-55.4526
0
LINE
8
BLACK
6
CONTINUOUS
10
86.9861
20
-55.4526
11
87.2891
21
-55.1984
0
LINE
8
BLACK
6
CONTINUOUS
10
87.2891
20
-55.1984
11
87.6608
21
-55.0631
0
LINE
8
BLACK
6
CONTINUOUS
10
87.6608
20
-55.0631
11
88.0564
21
-55.0631
0
LINE
8
BLACK
6
CONTINUOUS
10
88.0564
20
-55.0631
11
88.4281
21
-55.1984
0
LINE
8
BLACK
6
CONTINUOUS
10
88.4281
20
-55.1984
11
88.7311
21
-55.4526
0
LINE
8
BLACK
6
CONTINUOUS
10
88.7311
20
-55.4526
11
88.9289
21
-55.7952
0
LINE
8
BLACK
6
CONTINUOUS
10
88.9289
20
-55.7952
11
88.9976
21
-56.1848
0
LINE
8
BLACK
6
CONTINUOUS
10
88.9976
20
-56.1848
11
88.9289
21
-56.5744
0
LINE
8
BLACK
6
CONTINUOUS
10
88.9289
20
-56.5744
11
88.7311
21
-56.917
0
LINE
8
BLACK
6
CONTINUOUS
10
88.6009
20
-55.5619
11
88.3431
21
-55.3456
0
LINE
8
BLACK
6
CONTINUOUS
10
88.3431
20
-55.3456
11
88.0269
21
-55.2305
0
LINE
8
BLACK
6
CONTINUOUS
10
88.0269
20
-55.2305
11
87.6903
21
-55.2305
0
LINE
8
BLACK
6
CONTINUOUS
10
87.6903
20
-55.2305
11
87.3741
21
-55.3456
0
LINE
8
BLACK
6
CONTINUOUS
10
87.3741
20
-55.3456
11
87.1163
21
-55.5619
0
LINE
8
BLACK
6
CONTINUOUS
10
87.1163
20
-55.5619
11
86.948
21
-55.8534
0
LINE
8
BLACK
6
CONTINUOUS
10
86.948
20
-55.8534
11
86.8896
21
-56.1848
0
LINE
8
BLACK
6
CONTINUOUS
10
86.8896
20
-56.1848
11
86.948
21
-56.5162
0
LINE
8
BLACK
6
CONTINUOUS
10
86.948
20
-56.5162
11
87.1163
21
-56.8077
0
LINE
8
BLACK
6
CONTINUOUS
10
87.1163
20
-56.8077
11
87.3741
21
-57.024
0
LINE
8
BLACK
6
CONTINUOUS
10
87.3741
20
-57.024
11
87.6903
21
-57.1391
0
LINE
8
BLACK
6
CONTINUOUS
10
87.6903
20
-57.1391
11
88.0269
21
-57.1391
0
LINE
8
BLACK
6
CONTINUOUS
10
88.0269
20
-57.1391
11
88.3431
21
-57.024
0
LINE
8
BLACK
6
CONTINUOUS
10
88.3431
20
-57.024
11
88.6009
21
-56.8077
0
LINE
8
BLACK
6
CONTINUOUS
10
88.6009
20
-56.8077
11
88.7692
21
-56.5162
0
LINE
8
BLACK
6
CONTINUOUS
10
88.7692
20
-56.5162
11
88.8276
21
-56.1848
0
LINE
8
BLACK
6
CONTINUOUS
10
88.8276
20
-56.1848
11
88.7692
21
-55.8534
0
LINE
8
BLACK
6
CONTINUOUS
10
88.7692
20
-55.8534
11
88.6009
21
-55.5619
0
LINE
8
BLACK
6
CONTINUOUS
10
88.1709
20
-55.9188
11
88.186
21
-55.9275
0
LINE
8
BLACK
6
CONTINUOUS
10
88.186
20
-55.9275
11
88.1971
21
-55.9408
0
LINE
8
BLACK
6
CONTINUOUS
10
88.1971
20
-55.9408
11
88.2031
21
-55.9571
0
LINE
8
BLACK
6
CONTINUOUS
10
88.2031
20
-55.9571
11
88.2031
21
-55.9744
0
LINE
8
BLACK
6
CONTINUOUS
10
88.2031
20
-55.9744
11
88.1971
21
-55.9908
0
LINE
8
BLACK
6
CONTINUOUS
10
88.1971
20
-55.9908
11
88.186
21
-56.0041
0
LINE
8
BLACK
6
CONTINUOUS
10
88.186
20
-56.0041
11
88.1709
21
-56.0127
0
LINE
8
BLACK
6
CONTINUOUS
10
88.1709
20
-56.0127
11
88.1538
21
-56.0158
0
LINE
8
BLACK
6
CONTINUOUS
10
88.1538
20
-56.0158
11
88.0086
21
-56.0158
0
LINE
8
BLACK
6
CONTINUOUS
10
88.0086
20
-56.0158
11
88.0034
21
-56.0681
0
LINE
8
BLACK
6
CONTINUOUS
10
88.0034
20
-56.0681
11
88.0967
21
-56.0681
0
LINE
8
BLACK
6
CONTINUOUS
10
88.0967
20
-56.0681
11
88.0995
21
-56.0686
0
LINE
8
BLACK
6
CONTINUOUS
10
88.0995
20
-56.0686
11
88.1024
21
-56.0685
0
LINE
8
BLACK
6
CONTINUOUS
10
88.1024
20
-56.0685
11
88.108
21
-56.0701
0
LINE
8
BLACK
6
CONTINUOUS
10
88.108
20
-56.0701
11
88.1138
21
-56.0711
0
LINE
8
BLACK
6
CONTINUOUS
10
88.1138
20
-56.0711
11
88.1163
21
-56.0726
0
LINE
8
BLACK
6
CONTINUOUS
10
88.1163
20
-56.0726
11
88.1191
21
-56.0734
0
LINE
8
BLACK
6
CONTINUOUS
10
88.1191
20
-56.0734
11
88.1572
21
-56.0925
0
LINE
8
BLACK
6
CONTINUOUS
10
88.1572
20
-56.0925
11
88.1636
21
-56.0972
0
LINE
8
BLACK
6
CONTINUOUS
10
88.1636
20
-56.0972
11
88.1701
21
-56.1018
0
LINE
8
BLACK
6
CONTINUOUS
10
88.1701
20
-56.1018
11
88.1892
21
-56.1209
0
LINE
8
BLACK
6
CONTINUOUS
10
88.1892
20
-56.1209
11
88.1938
21
-56.1274
0
LINE
8
BLACK
6
CONTINUOUS
10
88.1938
20
-56.1274
11
88.1986
21
-56.1339
0
LINE
8
BLACK
6
CONTINUOUS
10
88.1986
20
-56.1339
11
88.2176
21
-56.172
0
LINE
8
BLACK
6
CONTINUOUS
10
88.2176
20
-56.172
11
88.2184
21
-56.1747
0
LINE
8
BLACK
6
CONTINUOUS
10
88.2184
20
-56.1747
11
88.2199
21
-56.1772
0
LINE
8
BLACK
6
CONTINUOUS
10
88.2199
20
-56.1772
11
88.2209
21
-56.183
0
LINE
8
BLACK
6
CONTINUOUS
10
88.2209
20
-56.183
11
88.2226
21
-56.1886
0
LINE
8
BLACK
6
CONTINUOUS
10
88.2226
20
-56.1886
11
88.2224
21
-56.1915
0
LINE
8
BLACK
6
CONTINUOUS
10
88.2224
20
-56.1915
11
88.2229
21
-56.1943
0
LINE
8
BLACK
6
CONTINUOUS
10
88.2229
20
-56.1943
11
88.2229
21
-56.2896
0
LINE
8
BLACK
6
CONTINUOUS
10
88.2229
20
-56.2896
11
88.2224
21
-56.2924
0
LINE
8
BLACK
6
CONTINUOUS
10
88.2224
20
-56.2924
11
88.2226
21
-56.2953
0
LINE
8
BLACK
6
CONTINUOUS
10
88.2226
20
-56.2953
11
88.2209
21
-56.3009
0
LINE
8
BLACK
6
CONTINUOUS
10
88.2209
20
-56.3009
11
88.2199
21
-56.3067
0
LINE
8
BLACK
6
CONTINUOUS
10
88.2199
20
-56.3067
11
88.2184
21
-56.3092
0
LINE
8
BLACK
6
CONTINUOUS
10
88.2184
20
-56.3092
11
88.2176
21
-56.3119
0
LINE
8
BLACK
6
CONTINUOUS
10
88.2176
20
-56.3119
11
88.1986
21
-56.35
0
LINE
8
BLACK
6
CONTINUOUS
10
88.1986
20
-56.35
11
88.1938
21
-56.3565
0
LINE
8
BLACK
6
CONTINUOUS
10
88.1938
20
-56.3565
11
88.1892
21
-56.363
0
LINE
8
BLACK
6
CONTINUOUS
10
88.1892
20
-56.363
11
88.1701
21
-56.3821
0
LINE
8
BLACK
6
CONTINUOUS
10
88.1701
20
-56.3821
11
88.1636
21
-56.3866
0
LINE
8
BLACK
6
CONTINUOUS
10
88.1636
20
-56.3866
11
88.1572
21
-56.3914
0
LINE
8
BLACK
6
CONTINUOUS
10
88.1572
20
-56.3914
11
88.1191
21
-56.4105
0
LINE
8
BLACK
6
CONTINUOUS
10
88.1191
20
-56.4105
11
88.1163
21
-56.4113
0
LINE
8
BLACK
6
CONTINUOUS
10
88.1163
20
-56.4113
11
88.1138
21
-56.4127
0
LINE
8
BLACK
6
CONTINUOUS
10
88.1138
20
-56.4127
11
88.108
21
-56.4138
0
LINE
8
BLACK
6
CONTINUOUS
10
88.108
20
-56.4138
11
88.1024
21
-56.4154
0
LINE
8
BLACK
6
CONTINUOUS
10
88.1024
20
-56.4154
11
88.0995
21
-56.4153
0
LINE
8
BLACK
6
CONTINUOUS
10
88.0995
20
-56.4153
11
88.0967
21
-56.4158
0
LINE
8
BLACK
6
CONTINUOUS
10
88.0967
20
-56.4158
11
88.0015
21
-56.4158
0
LINE
8
BLACK
6
CONTINUOUS
10
88.0015
20
-56.4158
11
87.9986
21
-56.4153
0
LINE
8
BLACK
6
CONTINUOUS
10
87.9986
20
-56.4153
11
87.9957
21
-56.4154
0
LINE
8
BLACK
6
CONTINUOUS
10
87.9957
20
-56.4154
11
87.9901
21
-56.4138
0
LINE
8
BLACK
6
CONTINUOUS
10
87.9901
20
-56.4138
11
87.9844
21
-56.4127
0
LINE
8
BLACK
6
CONTINUOUS
10
87.9844
20
-56.4127
11
87.9819
21
-56.4113
0
LINE
8
BLACK
6
CONTINUOUS
10
87.9819
20
-56.4113
11
87.9791
21
-56.4105
0
LINE
8
BLACK
6
CONTINUOUS
10
87.9791
20
-56.4105
11
87.941
21
-56.3914
0
LINE
8
BLACK
6
CONTINUOUS
10
87.941
20
-56.3914
11
87.9346
21
-56.3867
0
LINE
8
BLACK
6
CONTINUOUS
10
87.9346
20
-56.3867
11
87.928
21
-56.3821
0
LINE
8
BLACK
6
CONTINUOUS
10
87.928
20
-56.3821
11
87.909
21
-56.363
0
LINE
8
BLACK
6
CONTINUOUS
10
87.909
20
-56.363
11
87.899
21
-56.3488
0
LINE
8
BLACK
6
CONTINUOUS
10
87.899
20
-56.3488
11
87.8945
21
-56.332
0
LINE
8
BLACK
6
CONTINUOUS
10
87.8945
20
-56.332
11
87.896
21
-56.3147
0
LINE
8
BLACK
6
CONTINUOUS
10
87.896
20
-56.3147
11
87.9034
21
-56.299
0
LINE
8
BLACK
6
CONTINUOUS
10
87.9034
20
-56.299
11
87.9156
21
-56.2867
0
LINE
8
BLACK
6
CONTINUOUS
10
87.9156
20
-56.2867
11
87.9314
21
-56.2794
0
LINE
8
BLACK
6
CONTINUOUS
10
87.9314
20
-56.2794
11
87.9487
21
-56.2778
0
LINE
8
BLACK
6
CONTINUOUS
10
87.9487
20
-56.2778
11
87.9654
21
-56.2823
0
LINE
8
BLACK
6
CONTINUOUS
10
87.9654
20
-56.2823
11
87.9797
21
-56.2923
0
LINE
8
BLACK
6
CONTINUOUS
10
87.9797
20
-56.2923
11
87.993
21
-56.3056
0
LINE
8
BLACK
6
CONTINUOUS
10
87.993
20
-56.3056
11
88.0133
21
-56.3158
0
LINE
8
BLACK
6
CONTINUOUS
10
88.0133
20
-56.3158
11
88.0849
21
-56.3158
0
LINE
8
BLACK
6
CONTINUOUS
10
88.0849
20
-56.3158
11
88.1052
21
-56.3056
0
LINE
8
BLACK
6
CONTINUOUS
10
88.1052
20
-56.3056
11
88.1127
21
-56.298
0
LINE
8
BLACK
6
CONTINUOUS
10
88.1127
20
-56.298
11
88.1229
21
-56.2778
0
LINE
8
BLACK
6
CONTINUOUS
10
88.1229
20
-56.2778
11
88.1229
21
-56.2061
0
LINE
8
BLACK
6
CONTINUOUS
10
88.1229
20
-56.2061
11
88.1127
21
-56.1858
0
LINE
8
BLACK
6
CONTINUOUS
10
88.1127
20
-56.1858
11
88.1052
21
-56.1783
0
LINE
8
BLACK
6
CONTINUOUS
10
88.1052
20
-56.1783
11
88.0849
21
-56.1681
0
LINE
8
BLACK
6
CONTINUOUS
10
88.0849
20
-56.1681
11
88.0133
21
-56.1681
0
LINE
8
BLACK
6
CONTINUOUS
10
88.0133
20
-56.1681
11
87.993
21
-56.1783
0
LINE
8
BLACK
6
CONTINUOUS
10
87.993
20
-56.1783
11
87.9797
21
-56.1916
0
LINE
8
BLACK
6
CONTINUOUS
10
87.9797
20
-56.1916
11
87.9794
21
-56.1918
0
LINE
8
BLACK
6
CONTINUOUS
10
87.9794
20
-56.1918
11
87.9792
21
-56.192
0
LINE
8
BLACK
6
CONTINUOUS
10
87.9792
20
-56.192
11
87.9723
21
-56.1967
0
LINE
8
BLACK
6
CONTINUOUS
10
87.9723
20
-56.1967
11
87.9654
21
-56.2015
0
LINE
8
BLACK
6
CONTINUOUS
10
87.9654
20
-56.2015
11
87.9651
21
-56.2016
0
LINE
8
BLACK
6
CONTINUOUS
10
87.9651
20
-56.2016
11
87.9649
21
-56.2018
0
LINE
8
BLACK
6
CONTINUOUS
10
87.9649
20
-56.2018
11
87.9567
21
-56.2039
0
LINE
8
BLACK
6
CONTINUOUS
10
87.9567
20
-56.2039
11
87.9487
21
-56.206
0
LINE
8
BLACK
6
CONTINUOUS
10
87.9487
20
-56.206
11
87.9484
21
-56.206
0
LINE
8
BLACK
6
CONTINUOUS
10
87.9484
20
-56.206
11
87.9481
21
-56.2061
0
LINE
8
BLACK
6
CONTINUOUS
10
87.9481
20
-56.2061
11
87.9397
21
-56.2052
0
LINE
8
BLACK
6
CONTINUOUS
10
87.9397
20
-56.2052
11
87.9314
21
-56.2045
0
LINE
8
BLACK
6
CONTINUOUS
10
87.9314
20
-56.2045
11
87.9311
21
-56.2044
0
LINE
8
BLACK
6
CONTINUOUS
10
87.9311
20
-56.2044
11
87.9308
21
-56.2044
0
LINE
8
BLACK
6
CONTINUOUS
10
87.9308
20
-56.2044
11
87.9232
21
-56.2007
0
LINE
8
BLACK
6
CONTINUOUS
10
87.9232
20
-56.2007
11
87.9156
21
-56.1972
0
LINE
8
BLACK
6
CONTINUOUS
10
87.9156
20
-56.1972
11
87.9154
21
-56.197
0
LINE
8
BLACK
6
CONTINUOUS
10
87.9154
20
-56.197
11
87.9151
21
-56.1968
0
LINE
8
BLACK
6
CONTINUOUS
10
87.9151
20
-56.1968
11
87.9093
21
-56.1908
0
LINE
8
BLACK
6
CONTINUOUS
10
87.9093
20
-56.1908
11
87.9034
21
-56.1849
0
LINE
8
BLACK
6
CONTINUOUS
10
87.9034
20
-56.1849
11
87.9032
21
-56.1846
0
LINE
8
BLACK
6
CONTINUOUS
10
87.9032
20
-56.1846
11
87.903
21
-56.1844
0
LINE
8
BLACK
6
CONTINUOUS
10
87.903
20
-56.1844
11
87.8996
21
-56.1768
0
LINE
8
BLACK
6
CONTINUOUS
10
87.8996
20
-56.1768
11
87.896
21
-56.1692
0
LINE
8
BLACK
6
CONTINUOUS
10
87.896
20
-56.1692
11
87.896
21
-56.1689
0
LINE
8
BLACK
6
CONTINUOUS
10
87.896
20
-56.1689
11
87.8959
21
-56.1686
0
LINE
8
BLACK
6
CONTINUOUS
10
87.8959
20
-56.1686
11
87.8952
21
-56.1602
0
LINE
8
BLACK
6
CONTINUOUS
10
87.8952
20
-56.1602
11
87.8945
21
-56.1519
0
LINE
8
BLACK
6
CONTINUOUS
10
87.8945
20
-56.1519
11
87.8946
21
-56.1516
0
LINE
8
BLACK
6
CONTINUOUS
10
87.8946
20
-56.1516
11
87.8946
21
-56.1513
0
LINE
8
BLACK
6
CONTINUOUS
10
87.8946
20
-56.1513
11
87.9136
21
-55.9608
0
LINE
8
BLACK
6
CONTINUOUS
10
87.9136
20
-55.9608
11
87.9141
21
-55.959
0
LINE
8
BLACK
6
CONTINUOUS
10
87.9141
20
-55.959
11
87.9141
21
-55.9571
0
LINE
8
BLACK
6
CONTINUOUS
10
87.9141
20
-55.9571
11
87.9165
21
-55.9506
0
LINE
8
BLACK
6
CONTINUOUS
10
87.9165
20
-55.9506
11
87.9183
21
-55.9441
0
LINE
8
BLACK
6
CONTINUOUS
10
87.9183
20
-55.9441
11
87.9194
21
-55.9425
0
LINE
8
BLACK
6
CONTINUOUS
10
87.9194
20
-55.9425
11
87.9201
21
-55.9408
0
LINE
8
BLACK
6
CONTINUOUS
10
87.9201
20
-55.9408
11
87.9245
21
-55.9355
0
LINE
8
BLACK
6
CONTINUOUS
10
87.9245
20
-55.9355
11
87.9284
21
-55.93
0
LINE
8
BLACK
6
CONTINUOUS
10
87.9284
20
-55.93
11
87.93
21
-55.9289
0
LINE
8
BLACK
6
CONTINUOUS
10
87.93
20
-55.9289
11
87.9312
21
-55.9275
0
LINE
8
BLACK
6
CONTINUOUS
10
87.9312
20
-55.9275
11
87.9371
21
-55.924
0
LINE
8
BLACK
6
CONTINUOUS
10
87.9371
20
-55.924
11
87.9428
21
-55.9202
0
LINE
8
BLACK
6
CONTINUOUS
10
87.9428
20
-55.9202
11
87.9446
21
-55.9197
0
LINE
8
BLACK
6
CONTINUOUS
10
87.9446
20
-55.9197
11
87.9463
21
-55.9188
0
LINE
8
BLACK
6
CONTINUOUS
10
87.9463
20
-55.9188
11
87.953
21
-55.9176
0
LINE
8
BLACK
6
CONTINUOUS
10
87.953
20
-55.9176
11
87.9596
21
-55.9159
0
LINE
8
BLACK
6
CONTINUOUS
10
87.9596
20
-55.9159
11
87.9615
21
-55.9161
0
LINE
8
BLACK
6
CONTINUOUS
10
87.9615
20
-55.9161
11
87.9634
21
-55.9158
0
LINE
8
BLACK
6
CONTINUOUS
10
87.9634
20
-55.9158
11
88.1538
21
-55.9158
0
LINE
8
BLACK
6
CONTINUOUS
10
88.1538
20
-55.9158
11
88.1709
21
-55.9188
0
LINE
8
BLACK
6
CONTINUOUS
10
87.7186
20
-55.9163
11
87.7215
21
-55.9161
0
LINE
8
BLACK
6
CONTINUOUS
10
87.7215
20
-55.9161
11
87.7271
21
-55.9177
0
LINE
8
BLACK
6
CONTINUOUS
10
87.7271
20
-55.9177
11
87.7328
21
-55.9188
0
LINE
8
BLACK
6
CONTINUOUS
10
87.7328
20
-55.9188
11
87.7353
21
-55.9202
0
LINE
8
BLACK
6
CONTINUOUS
10
87.7353
20
-55.9202
11
87.7381
21
-55.921
0
LINE
8
BLACK
6
CONTINUOUS
10
87.7381
20
-55.921
11
87.7762
21
-55.9401
0
LINE
8
BLACK
6
CONTINUOUS
10
87.7762
20
-55.9401
11
87.7826
21
-55.9449
0
LINE
8
BLACK
6
CONTINUOUS
10
87.7826
20
-55.9449
11
87.7892
21
-55.9494
0
LINE
8
BLACK
6
CONTINUOUS
10
87.7892
20
-55.9494
11
87.8082
21
-55.9685
0
LINE
8
BLACK
6
CONTINUOUS
10
87.8082
20
-55.9685
11
87.8128
21
-55.9751
0
LINE
8
BLACK
6
CONTINUOUS
10
87.8128
20
-55.9751
11
87.8176
21
-55.9815
0
LINE
8
BLACK
6
CONTINUOUS
10
87.8176
20
-55.9815
11
87.8367
21
-56.0196
0
LINE
8
BLACK
6
CONTINUOUS
10
87.8367
20
-56.0196
11
87.8375
21
-56.0223
0
LINE
8
BLACK
6
CONTINUOUS
10
87.8375
20
-56.0223
11
87.8389
21
-56.0248
0
LINE
8
BLACK
6
CONTINUOUS
10
87.8389
20
-56.0248
11
87.8399
21
-56.0306
0
LINE
8
BLACK
6
CONTINUOUS
10
87.8399
20
-56.0306
11
87.8416
21
-56.0362
0
LINE
8
BLACK
6
CONTINUOUS
10
87.8416
20
-56.0362
11
87.8414
21
-56.0391
0
LINE
8
BLACK
6
CONTINUOUS
10
87.8414
20
-56.0391
11
87.8419
21
-56.0419
0
LINE
8
BLACK
6
CONTINUOUS
10
87.8419
20
-56.0419
11
87.8419
21
-56.0991
0
LINE
8
BLACK
6
CONTINUOUS
10
87.8419
20
-56.0991
11
87.8414
21
-56.1019
0
LINE
8
BLACK
6
CONTINUOUS
10
87.8414
20
-56.1019
11
87.8416
21
-56.1048
0
LINE
8
BLACK
6
CONTINUOUS
10
87.8416
20
-56.1048
11
87.8399
21
-56.1104
0
LINE
8
BLACK
6
CONTINUOUS
10
87.8399
20
-56.1104
11
87.8389
21
-56.1162
0
LINE
8
BLACK
6
CONTINUOUS
10
87.8389
20
-56.1162
11
87.8375
21
-56.1187
0
LINE
8
BLACK
6
CONTINUOUS
10
87.8375
20
-56.1187
11
87.8367
21
-56.1214
0
LINE
8
BLACK
6
CONTINUOUS
10
87.8367
20
-56.1214
11
87.8176
21
-56.1595
0
LINE
8
BLACK
6
CONTINUOUS
10
87.8176
20
-56.1595
11
87.8128
21
-56.166
0
LINE
8
BLACK
6
CONTINUOUS
10
87.8128
20
-56.166
11
87.8082
21
-56.1725
0
LINE
8
BLACK
6
CONTINUOUS
10
87.8082
20
-56.1725
11
87.7892
21
-56.1916
0
LINE
8
BLACK
6
CONTINUOUS
10
87.7892
20
-56.1916
11
87.7826
21
-56.1962
0
LINE
8
BLACK
6
CONTINUOUS
10
87.7826
20
-56.1962
11
87.7762
21
-56.2009
0
LINE
8
BLACK
6
CONTINUOUS
10
87.7762
20
-56.2009
11
87.7381
21
-56.22
0
LINE
8
BLACK
6
CONTINUOUS
10
87.7381
20
-56.22
11
87.7353
21
-56.2208
0
LINE
8
BLACK
6
CONTINUOUS
10
87.7353
20
-56.2208
11
87.7328
21
-56.2223
0
LINE
8
BLACK
6
CONTINUOUS
10
87.7328
20
-56.2223
11
87.7271
21
-56.2233
0
LINE
8
BLACK
6
CONTINUOUS
10
87.7271
20
-56.2233
11
87.7215
21
-56.2249
0
LINE
8
BLACK
6
CONTINUOUS
10
87.7215
20
-56.2249
11
87.7186
21
-56.2248
0
LINE
8
BLACK
6
CONTINUOUS
10
87.7186
20
-56.2248
11
87.7157
21
-56.2253
0
LINE
8
BLACK
6
CONTINUOUS
10
87.7157
20
-56.2253
11
87.6134
21
-56.2253
0
LINE
8
BLACK
6
CONTINUOUS
10
87.6134
20
-56.2253
11
87.6134
21
-56.3658
0
LINE
8
BLACK
6
CONTINUOUS
10
87.6134
20
-56.3658
11
87.6103
21
-56.3829
0
LINE
8
BLACK
6
CONTINUOUS
10
87.6103
20
-56.3829
11
87.6017
21
-56.3979
0
LINE
8
BLACK
6
CONTINUOUS
10
87.6017
20
-56.3979
11
87.5884
21
-56.4091
0
LINE
8
BLACK
6
CONTINUOUS
10
87.5884
20
-56.4091
11
87.572
21
-56.415
0
LINE
8
BLACK
6
CONTINUOUS
10
87.572
20
-56.415
11
87.5547
21
-56.415
0
LINE
8
BLACK
6
CONTINUOUS
10
87.5547
20
-56.415
11
87.5384
21
-56.4091
0
LINE
8
BLACK
6
CONTINUOUS
10
87.5384
20
-56.4091
11
87.5251
21
-56.3979
0
LINE
8
BLACK
6
CONTINUOUS
10
87.5251
20
-56.3979
11
87.5164
21
-56.3829
0
LINE
8
BLACK
6
CONTINUOUS
10
87.5164
20
-56.3829
11
87.5134
21
-56.3658
0
LINE
8
BLACK
6
CONTINUOUS
10
87.5134
20
-56.3658
11
87.5134
21
-55.9658
0
LINE
8
BLACK
6
CONTINUOUS
10
87.5134
20
-55.9658
11
87.5141
21
-55.9614
0
LINE
8
BLACK
6
CONTINUOUS
10
87.5141
20
-55.9614
11
87.5141
21
-55.9571
0
LINE
8
BLACK
6
CONTINUOUS
10
87.5141
20
-55.9571
11
87.5156
21
-55.953
0
LINE
8
BLACK
6
CONTINUOUS
10
87.5156
20
-55.953
11
87.5164
21
-55.9487
0
LINE
8
BLACK
6
CONTINUOUS
10
87.5164
20
-55.9487
11
87.5186
21
-55.9449
0
LINE
8
BLACK
6
CONTINUOUS
10
87.5186
20
-55.9449
11
87.5201
21
-55.9408
0
LINE
8
BLACK
6
CONTINUOUS
10
87.5201
20
-55.9408
11
87.5229
21
-55.9374
0
LINE
8
BLACK
6
CONTINUOUS
10
87.5229
20
-55.9374
11
87.5251
21
-55.9336
0
LINE
8
BLACK
6
CONTINUOUS
10
87.5251
20
-55.9336
11
87.5284
21
-55.9308
0
LINE
8
BLACK
6
CONTINUOUS
10
87.5284
20
-55.9308
11
87.5312
21
-55.9275
0
LINE
8
BLACK
6
CONTINUOUS
10
87.5312
20
-55.9275
11
87.535
21
-55.9253
0
LINE
8
BLACK
6
CONTINUOUS
10
87.535
20
-55.9253
11
87.5384
21
-55.9225
0
LINE
8
BLACK
6
CONTINUOUS
10
87.5384
20
-55.9225
11
87.5425
21
-55.921
0
LINE
8
BLACK
6
CONTINUOUS
10
87.5425
20
-55.921
11
87.5463
21
-55.9188
0
LINE
8
BLACK
6
CONTINUOUS
10
87.5463
20
-55.9188
11
87.5506
21
-55.918
0
LINE
8
BLACK
6
CONTINUOUS
10
87.5506
20
-55.918
11
87.5547
21
-55.9165
0
LINE
8
BLACK
6
CONTINUOUS
10
87.5547
20
-55.9165
11
87.559
21
-55.9165
0
LINE
8
BLACK
6
CONTINUOUS
10
87.559
20
-55.9165
11
87.5634
21
-55.9158
0
LINE
8
BLACK
6
CONTINUOUS
10
87.5634
20
-55.9158
11
87.7157
21
-55.9158
0
LINE
8
BLACK
6
CONTINUOUS
10
87.7157
20
-55.9158
11
87.7186
21
-55.9163
0
LINE
8
BLACK
6
CONTINUOUS
10
87.6134
20
-56.0158
11
87.6134
21
-56.1253
0
LINE
8
BLACK
6
CONTINUOUS
10
87.6134
20
-56.1253
11
87.7039
21
-56.1253
0
LINE
8
BLACK
6
CONTINUOUS
10
87.7039
20
-56.1253
11
87.7242
21
-56.1151
0
LINE
8
BLACK
6
CONTINUOUS
10
87.7242
20
-56.1151
11
87.7318
21
-56.1076
0
LINE
8
BLACK
6
CONTINUOUS
10
87.7318
20
-56.1076
11
87.7419
21
-56.0873
0
LINE
8
BLACK
6
CONTINUOUS
10
87.7419
20
-56.0873
11
87.7419
21
-56.0537
0
LINE
8
BLACK
6
CONTINUOUS
10
87.7419
20
-56.0537
11
87.7318
21
-56.0335
0
LINE
8
BLACK
6
CONTINUOUS
10
87.7318
20
-56.0335
11
87.7242
21
-56.0259
0
LINE
8
BLACK
6
CONTINUOUS
10
87.7242
20
-56.0259
11
87.7039
21
-56.0158
0
LINE
8
BLACK
6
CONTINUOUS
10
87.7039
20
-56.0158
11
87.6134
21
-56.0158
  0
ENDSEC
  0
EOF
