  0
SECTION
  2
HEADER
  9
$ANGBASE
  50
0.0
  9
$ANGDIR
  70
  1
  9
$MEASUREMENT
  70
0
  0
ENDSEC
  0
SECTION
  2
TABLES
  0
TABLE
  2
LTYPE
  70
4
  0
LTYPE
  5
40F
  2
CONTINUOUS
  70
0
  3
Solid line
  72
65
  73
0
  40
0.0
  0
LTYPE
  5
410
  2
DASHDOT
 70
0
  3
Dash Dot ____ _ ____ _
 72
65
 73
4
 40
2.0
 49
1.25
 49
-0.25
 49
0.25
 49
-0.25
  0
LTYPE
  5
411
  2
DASHED
 70
0
  3
Dashed __ __ __ __ __
 72
65
 73
2
 40
0.75
 49
0.5
 49
-0.25
  0
LTYPE
  5
43B
  2
DOTTED
 70
0
  3
Dotted .  .  .  .
 72
65
 73
2
 40
0.2
 49
0.0
 49
-0.2
  0
ENDTAB
  0
TABLE
  2
STYLE
  70
4
  0
STYLE
  2
KICAD
  70
0
  40
0
  41
1
  42
1
  50
0
  71
0
  3
isocp.shx
  0
STYLE
  2
KICADB
  70
0
  40
0
  41
1
  42
1
  50
0
  71
0
  3
isocp.shx
  0
STYLE
  2
KICADI
  70
0
  40
0
  41
1
  42
1
  50
15
  71
0
  3
isocp.shx
  0
STYLE
  2
KICADBI
  70
0
  40
0
  41
1
  42
1
  50
15
  71
0
  3
isocp.shx
  0
ENDTAB
  0
TABLE
  2
LAYER
  70
30
  0
LAYER
  2
BLACK
  70
0
  62
7
  6
CONTINUOUS
  0
LAYER
  2
GRAY1
  70
0
  62
251
  6
CONTINUOUS
  0
LAYER
  2
GRAY2
  70
0
  62
8
  6
CONTINUOUS
  0
LAYER
  2
GRAY3
  70
0
  62
9
  6
CONTINUOUS
  0
LAYER
  2
WHITE
  70
0
  62
7
  6
CONTINUOUS
  0
LAYER
  2
LYELLOW
  70
0
  62
51
  6
CONTINUOUS
  0
LAYER
  2
BLUE1
  70
0
  62
178
  6
CONTINUOUS
  0
LAYER
  2
GREEN1
  70
0
  62
98
  6
CONTINUOUS
  0
LAYER
  2
CYAN1
  70
0
  62
138
  6
CONTINUOUS
  0
LAYER
  2
RED1
  70
0
  62
18
  6
CONTINUOUS
  0
LAYER
  2
MAGENTA1
  70
0
  62
228
  6
CONTINUOUS
  0
LAYER
  2
BROWN1
  70
0
  62
58
  6
CONTINUOUS
  0
LAYER
  2
BLUE2
  70
0
  62
5
  6
CONTINUOUS
  0
LAYER
  2
GREEN2
  70
0
  62
3
  6
CONTINUOUS
  0
LAYER
  2
CYAN2
  70
0
  62
4
  6
CONTINUOUS
  0
LAYER
  2
RED2
  70
0
  62
1
  6
CONTINUOUS
  0
LAYER
  2
MAGENTA2
  70
0
  62
6
  6
CONTINUOUS
  0
LAYER
  2
BROWN2
  70
0
  62
54
  6
CONTINUOUS
  0
LAYER
  2
BLUE3
  70
0
  62
171
  6
CONTINUOUS
  0
LAYER
  2
GREEN3
  70
0
  62
91
  6
CONTINUOUS
  0
LAYER
  2
CYAN3
  70
0
  62
131
  6
CONTINUOUS
  0
LAYER
  2
RED3
  70
0
  62
11
  6
CONTINUOUS
  0
LAYER
  2
MAGENTA3
  70
0
  62
221
  6
CONTINUOUS
  0
LAYER
  2
YELLOW3
  70
0
  62
2
  6
CONTINUOUS
  0
LAYER
  2
BLUE4
  70
0
  62
5
  6
CONTINUOUS
  0
LAYER
  2
GREEN4
  70
0
  62
3
  6
CONTINUOUS
  0
LAYER
  2
CYAN4
  70
0
  62
4
  6
CONTINUOUS
  0
LAYER
  2
RED4
  70
0
  62
1
  6
CONTINUOUS
  0
LAYER
  2
MAGENTA4
  70
0
  62
6
  6
CONTINUOUS
  0
LAYER
  2
YELLOW4
  70
0
  62
2
  6
CONTINUOUS
  0
ENDTAB
  0
ENDSEC
  0
SECTION
  2
ENTITIES
0
LINE
8
BLACK
6
CONTINUOUS
10
109.507
20
-104.061
11
107.307
21
-104.061
0
LINE
8
BLACK
6
CONTINUOUS
10
107.307
20
-104.061
11
107.307
21
-102.461
0
LINE
8
BLACK
6
CONTINUOUS
10
107.307
20
-102.461
11
109.507
21
-102.461
0
LINE
8
BLACK
6
CONTINUOUS
10
109.507
20
-102.461
11
109.507
21
-104.061
0
LINE
8
BLACK
6
CONTINUOUS
10
120.129
20
-100.588
11
120.311
21
-100.663
0
LINE
8
BLACK
6
CONTINUOUS
10
120.311
20
-100.663
11
120.475
21
-100.772
0
LINE
8
BLACK
6
CONTINUOUS
10
120.475
20
-100.772
11
120.614
21
-100.912
0
LINE
8
BLACK
6
CONTINUOUS
10
120.614
20
-100.912
11
120.723
21
-101.076
0
LINE
8
BLACK
6
CONTINUOUS
10
120.723
20
-101.076
11
120.799
21
-101.258
0
LINE
8
BLACK
6
CONTINUOUS
10
120.799
20
-101.258
11
120.837
21
-101.451
0
LINE
8
BLACK
6
CONTINUOUS
10
120.837
20
-101.451
11
120.837
21
-101.648
0
LINE
8
BLACK
6
CONTINUOUS
10
120.837
20
-101.648
11
120.799
21
-101.841
0
LINE
8
BLACK
6
CONTINUOUS
10
120.799
20
-101.841
11
120.723
21
-102.023
0
LINE
8
BLACK
6
CONTINUOUS
10
120.723
20
-102.023
11
120.614
21
-102.187
0
LINE
8
BLACK
6
CONTINUOUS
10
120.614
20
-102.187
11
120.475
21
-102.326
0
LINE
8
BLACK
6
CONTINUOUS
10
120.475
20
-102.326
11
120.311
21
-102.435
0
LINE
8
BLACK
6
CONTINUOUS
10
120.311
20
-102.435
11
120.129
21
-102.511
0
LINE
8
BLACK
6
CONTINUOUS
10
120.129
20
-102.511
11
119.936
21
-102.549
0
LINE
8
BLACK
6
CONTINUOUS
10
119.936
20
-102.549
11
119.739
21
-102.549
0
LINE
8
BLACK
6
CONTINUOUS
10
119.739
20
-102.549
11
119.546
21
-102.511
0
LINE
8
BLACK
6
CONTINUOUS
10
119.546
20
-102.511
11
119.364
21
-102.435
0
LINE
8
BLACK
6
CONTINUOUS
10
119.364
20
-102.435
11
119.2
21
-102.326
0
LINE
8
BLACK
6
CONTINUOUS
10
119.2
20
-102.326
11
119.06
21
-102.187
0
LINE
8
BLACK
6
CONTINUOUS
10
119.06
20
-102.187
11
118.951
21
-102.023
0
LINE
8
BLACK
6
CONTINUOUS
10
118.951
20
-102.023
11
118.876
21
-101.841
0
LINE
8
BLACK
6
CONTINUOUS
10
118.876
20
-101.841
11
118.837
21
-101.648
0
LINE
8
BLACK
6
CONTINUOUS
10
118.837
20
-101.648
11
118.837
21
-101.451
0
LINE
8
BLACK
6
CONTINUOUS
10
118.837
20
-101.451
11
118.876
21
-101.258
0
LINE
8
BLACK
6
CONTINUOUS
10
118.876
20
-101.258
11
118.951
21
-101.076
0
LINE
8
BLACK
6
CONTINUOUS
10
118.951
20
-101.076
11
119.06
21
-100.912
0
LINE
8
BLACK
6
CONTINUOUS
10
119.06
20
-100.912
11
119.2
21
-100.772
0
LINE
8
BLACK
6
CONTINUOUS
10
119.2
20
-100.772
11
119.364
21
-100.663
0
LINE
8
BLACK
6
CONTINUOUS
10
119.364
20
-100.663
11
119.546
21
-100.588
0
LINE
8
BLACK
6
CONTINUOUS
10
119.546
20
-100.588
11
119.739
21
-100.549
0
LINE
8
BLACK
6
CONTINUOUS
10
119.739
20
-100.549
11
119.936
21
-100.549
0
LINE
8
BLACK
6
CONTINUOUS
10
119.936
20
-100.549
11
120.129
21
-100.588
0
LINE
8
BLACK
6
CONTINUOUS
10
89.1409
20
-100.588
11
89.3229
21
-100.663
0
LINE
8
BLACK
6
CONTINUOUS
10
89.3229
20
-100.663
11
89.4867
21
-100.772
0
LINE
8
BLACK
6
CONTINUOUS
10
89.4867
20
-100.772
11
89.626
21
-100.912
0
LINE
8
BLACK
6
CONTINUOUS
10
89.626
20
-100.912
11
89.7354
21
-101.076
0
LINE
8
BLACK
6
CONTINUOUS
10
89.7354
20
-101.076
11
89.8108
21
-101.258
0
LINE
8
BLACK
6
CONTINUOUS
10
89.8108
20
-101.258
11
89.8492
21
-101.451
0
LINE
8
BLACK
6
CONTINUOUS
10
89.8492
20
-101.451
11
89.8492
21
-101.648
0
LINE
8
BLACK
6
CONTINUOUS
10
89.8492
20
-101.648
11
89.8108
21
-101.841
0
LINE
8
BLACK
6
CONTINUOUS
10
89.8108
20
-101.841
11
89.7354
21
-102.023
0
LINE
8
BLACK
6
CONTINUOUS
10
89.7354
20
-102.023
11
89.626
21
-102.187
0
LINE
8
BLACK
6
CONTINUOUS
10
89.626
20
-102.187
11
89.4867
21
-102.326
0
LINE
8
BLACK
6
CONTINUOUS
10
89.4867
20
-102.326
11
89.3229
21
-102.435
0
LINE
8
BLACK
6
CONTINUOUS
10
89.3229
20
-102.435
11
89.1409
21
-102.511
0
LINE
8
BLACK
6
CONTINUOUS
10
89.1409
20
-102.511
11
88.9477
21
-102.549
0
LINE
8
BLACK
6
CONTINUOUS
10
88.9477
20
-102.549
11
88.7507
21
-102.549
0
LINE
8
BLACK
6
CONTINUOUS
10
88.7507
20
-102.549
11
88.5575
21
-102.511
0
LINE
8
BLACK
6
CONTINUOUS
10
88.5575
20
-102.511
11
88.3755
21
-102.435
0
LINE
8
BLACK
6
CONTINUOUS
10
88.3755
20
-102.435
11
88.2117
21
-102.326
0
LINE
8
BLACK
6
CONTINUOUS
10
88.2117
20
-102.326
11
88.0724
21
-102.187
0
LINE
8
BLACK
6
CONTINUOUS
10
88.0724
20
-102.187
11
87.963
21
-102.023
0
LINE
8
BLACK
6
CONTINUOUS
10
87.963
20
-102.023
11
87.8876
21
-101.841
0
LINE
8
BLACK
6
CONTINUOUS
10
87.8876
20
-101.841
11
87.8492
21
-101.648
0
LINE
8
BLACK
6
CONTINUOUS
10
87.8492
20
-101.648
11
87.8492
21
-101.451
0
LINE
8
BLACK
6
CONTINUOUS
10
87.8492
20
-101.451
11
87.8876
21
-101.258
0
LINE
8
BLACK
6
CONTINUOUS
10
87.8876
20
-101.258
11
87.963
21
-101.076
0
LINE
8
BLACK
6
CONTINUOUS
10
87.963
20
-101.076
11
88.0724
21
-100.912
0
LINE
8
BLACK
6
CONTINUOUS
10
88.0724
20
-100.912
11
88.2117
21
-100.772
0
LINE
8
BLACK
6
CONTINUOUS
10
88.2117
20
-100.772
11
88.3755
21
-100.663
0
LINE
8
BLACK
6
CONTINUOUS
10
88.3755
20
-100.663
11
88.5575
21
-100.588
0
LINE
8
BLACK
6
CONTINUOUS
10
88.5575
20
-100.588
11
88.7507
21
-100.549
0
LINE
8
BLACK
6
CONTINUOUS
10
88.7507
20
-100.549
11
88.9477
21
-100.549
0
LINE
8
BLACK
6
CONTINUOUS
10
88.9477
20
-100.549
11
89.1409
21
-100.588
0
LINE
8
BLACK
6
CONTINUOUS
10
109.507
20
-101.521
11
107.307
21
-101.521
0
LINE
8
BLACK
6
CONTINUOUS
10
107.307
20
-101.521
11
107.307
21
-99.9212
0
LINE
8
BLACK
6
CONTINUOUS
10
107.307
20
-99.9212
11
109.507
21
-99.9212
0
LINE
8
BLACK
6
CONTINUOUS
10
109.507
20
-99.9212
11
109.507
21
-101.521
0
LINE
8
BLACK
6
CONTINUOUS
10
105.621
20
-84.0828
11
105.757
21
-84.1394
0
LINE
8
BLACK
6
CONTINUOUS
10
105.757
20
-84.1394
11
105.88
21
-84.2214
0
LINE
8
BLACK
6
CONTINUOUS
10
105.88
20
-84.2214
11
105.985
21
-84.3259
0
LINE
8
BLACK
6
CONTINUOUS
10
105.985
20
-84.3259
11
106.067
21
-84.4487
0
LINE
8
BLACK
6
CONTINUOUS
10
106.067
20
-84.4487
11
106.123
21
-84.5852
0
LINE
8
BLACK
6
CONTINUOUS
10
106.123
20
-84.5852
11
106.152
21
-84.7301
0
LINE
8
BLACK
6
CONTINUOUS
10
106.152
20
-84.7301
11
106.152
21
-84.8779
0
LINE
8
BLACK
6
CONTINUOUS
10
106.152
20
-84.8779
11
106.123
21
-85.0228
0
LINE
8
BLACK
6
CONTINUOUS
10
106.123
20
-85.0228
11
106.067
21
-85.1593
0
LINE
8
BLACK
6
CONTINUOUS
10
106.067
20
-85.1593
11
105.985
21
-85.2821
0
LINE
8
BLACK
6
CONTINUOUS
10
105.985
20
-85.2821
11
105.88
21
-85.3866
0
LINE
8
BLACK
6
CONTINUOUS
10
105.88
20
-85.3866
11
105.757
21
-85.4686
0
LINE
8
BLACK
6
CONTINUOUS
10
105.757
20
-85.4686
11
105.621
21
-85.5252
0
LINE
8
BLACK
6
CONTINUOUS
10
105.621
20
-85.5252
11
105.476
21
-85.554
0
LINE
8
BLACK
6
CONTINUOUS
10
105.476
20
-85.554
11
105.328
21
-85.554
0
LINE
8
BLACK
6
CONTINUOUS
10
105.328
20
-85.554
11
105.183
21
-85.5252
0
LINE
8
BLACK
6
CONTINUOUS
10
105.183
20
-85.5252
11
105.047
21
-85.4686
0
LINE
8
BLACK
6
CONTINUOUS
10
105.047
20
-85.4686
11
104.924
21
-85.3866
0
LINE
8
BLACK
6
CONTINUOUS
10
104.924
20
-85.3866
11
104.819
21
-85.2821
0
LINE
8
BLACK
6
CONTINUOUS
10
104.819
20
-85.2821
11
104.737
21
-85.1593
0
LINE
8
BLACK
6
CONTINUOUS
10
104.737
20
-85.1593
11
104.681
21
-85.0228
0
LINE
8
BLACK
6
CONTINUOUS
10
104.681
20
-85.0228
11
104.652
21
-84.8779
0
LINE
8
BLACK
6
CONTINUOUS
10
104.652
20
-84.8779
11
104.652
21
-84.7301
0
LINE
8
BLACK
6
CONTINUOUS
10
104.652
20
-84.7301
11
104.681
21
-84.5852
0
LINE
8
BLACK
6
CONTINUOUS
10
104.681
20
-84.5852
11
104.737
21
-84.4487
0
LINE
8
BLACK
6
CONTINUOUS
10
104.737
20
-84.4487
11
104.819
21
-84.3259
0
LINE
8
BLACK
6
CONTINUOUS
10
104.819
20
-84.3259
11
104.924
21
-84.2214
0
LINE
8
BLACK
6
CONTINUOUS
10
104.924
20
-84.2214
11
105.047
21
-84.1394
0
LINE
8
BLACK
6
CONTINUOUS
10
105.047
20
-84.1394
11
105.183
21
-84.0828
0
LINE
8
BLACK
6
CONTINUOUS
10
105.183
20
-84.0828
11
105.328
21
-84.054
0
LINE
8
BLACK
6
CONTINUOUS
10
105.328
20
-84.054
11
105.476
21
-84.054
0
LINE
8
BLACK
6
CONTINUOUS
10
105.476
20
-84.054
11
105.621
21
-84.0828
0
LINE
8
BLACK
6
CONTINUOUS
10
98.3056
20
-84.0828
11
98.4421
21
-84.1394
0
LINE
8
BLACK
6
CONTINUOUS
10
98.4421
20
-84.1394
11
98.5649
21
-84.2214
0
LINE
8
BLACK
6
CONTINUOUS
10
98.5649
20
-84.2214
11
98.6694
21
-84.3259
0
LINE
8
BLACK
6
CONTINUOUS
10
98.6694
20
-84.3259
11
98.7514
21
-84.4487
0
LINE
8
BLACK
6
CONTINUOUS
10
98.7514
20
-84.4487
11
98.808
21
-84.5852
0
LINE
8
BLACK
6
CONTINUOUS
10
98.808
20
-84.5852
11
98.8368
21
-84.7301
0
LINE
8
BLACK
6
CONTINUOUS
10
98.8368
20
-84.7301
11
98.8368
21
-84.8779
0
LINE
8
BLACK
6
CONTINUOUS
10
98.8368
20
-84.8779
11
98.808
21
-85.0228
0
LINE
8
BLACK
6
CONTINUOUS
10
98.808
20
-85.0228
11
98.7514
21
-85.1593
0
LINE
8
BLACK
6
CONTINUOUS
10
98.7514
20
-85.1593
11
98.6694
21
-85.2821
0
LINE
8
BLACK
6
CONTINUOUS
10
98.6694
20
-85.2821
11
98.5649
21
-85.3866
0
LINE
8
BLACK
6
CONTINUOUS
10
98.5649
20
-85.3866
11
98.4421
21
-85.4686
0
LINE
8
BLACK
6
CONTINUOUS
10
98.4421
20
-85.4686
11
98.3056
21
-85.5252
0
LINE
8
BLACK
6
CONTINUOUS
10
98.3056
20
-85.5252
11
98.1607
21
-85.554
0
LINE
8
BLACK
6
CONTINUOUS
10
98.1607
20
-85.554
11
98.0129
21
-85.554
0
LINE
8
BLACK
6
CONTINUOUS
10
98.0129
20
-85.554
11
97.868
21
-85.5252
0
LINE
8
BLACK
6
CONTINUOUS
10
97.868
20
-85.5252
11
97.7315
21
-85.4686
0
LINE
8
BLACK
6
CONTINUOUS
10
97.7315
20
-85.4686
11
97.6087
21
-85.3866
0
LINE
8
BLACK
6
CONTINUOUS
10
97.6087
20
-85.3866
11
97.5042
21
-85.2821
0
LINE
8
BLACK
6
CONTINUOUS
10
97.5042
20
-85.2821
11
97.4222
21
-85.1593
0
LINE
8
BLACK
6
CONTINUOUS
10
97.4222
20
-85.1593
11
97.3656
21
-85.0228
0
LINE
8
BLACK
6
CONTINUOUS
10
97.3656
20
-85.0228
11
97.3368
21
-84.8779
0
LINE
8
BLACK
6
CONTINUOUS
10
97.3368
20
-84.8779
11
97.3368
21
-84.7301
0
LINE
8
BLACK
6
CONTINUOUS
10
97.3368
20
-84.7301
11
97.3656
21
-84.5852
0
LINE
8
BLACK
6
CONTINUOUS
10
97.3656
20
-84.5852
11
97.4222
21
-84.4487
0
LINE
8
BLACK
6
CONTINUOUS
10
97.4222
20
-84.4487
11
97.5042
21
-84.3259
0
LINE
8
BLACK
6
CONTINUOUS
10
97.5042
20
-84.3259
11
97.6087
21
-84.2214
0
LINE
8
BLACK
6
CONTINUOUS
10
97.6087
20
-84.2214
11
97.7315
21
-84.1394
0
LINE
8
BLACK
6
CONTINUOUS
10
97.7315
20
-84.1394
11
97.868
21
-84.0828
0
LINE
8
BLACK
6
CONTINUOUS
10
97.868
20
-84.0828
11
98.0129
21
-84.054
0
LINE
8
BLACK
6
CONTINUOUS
10
98.0129
20
-84.054
11
98.1607
21
-84.054
0
LINE
8
BLACK
6
CONTINUOUS
10
98.1607
20
-84.054
11
98.3056
21
-84.0828
0
LINE
8
BLACK
6
CONTINUOUS
10
111.48
20
-77.2365
11
109.88
21
-77.2365
0
LINE
8
BLACK
6
CONTINUOUS
10
109.88
20
-77.2365
11
109.88
21
-75.0365
0
LINE
8
BLACK
6
CONTINUOUS
10
109.88
20
-75.0365
11
111.48
21
-75.0365
0
LINE
8
BLACK
6
CONTINUOUS
10
111.48
20
-75.0365
11
111.48
21
-77.2365
0
LINE
8
BLACK
6
CONTINUOUS
10
108.941
20
-77.2365
11
107.34
21
-77.2365
0
LINE
8
BLACK
6
CONTINUOUS
10
107.34
20
-77.2365
11
107.34
21
-75.0365
0
LINE
8
BLACK
6
CONTINUOUS
10
107.34
20
-75.0365
11
108.941
21
-75.0365
0
LINE
8
BLACK
6
CONTINUOUS
10
108.941
20
-75.0365
11
108.941
21
-77.2365
0
LINE
8
BLACK
6
CONTINUOUS
10
97.8444
20
-64.9803
11
98.0264
21
-65.0557
0
LINE
8
BLACK
6
CONTINUOUS
10
98.0264
20
-65.0557
11
98.1902
21
-65.1651
0
LINE
8
BLACK
6
CONTINUOUS
10
98.1902
20
-65.1651
11
98.3295
21
-65.3044
0
LINE
8
BLACK
6
CONTINUOUS
10
98.3295
20
-65.3044
11
98.4389
21
-65.4682
0
LINE
8
BLACK
6
CONTINUOUS
10
98.4389
20
-65.4682
11
98.5143
21
-65.6502
0
LINE
8
BLACK
6
CONTINUOUS
10
98.5143
20
-65.6502
11
98.5527
21
-65.8434
0
LINE
8
BLACK
6
CONTINUOUS
10
98.5527
20
-65.8434
11
98.5527
21
-66.0404
0
LINE
8
BLACK
6
CONTINUOUS
10
98.5527
20
-66.0404
11
98.5143
21
-66.2336
0
LINE
8
BLACK
6
CONTINUOUS
10
98.5143
20
-66.2336
11
98.4389
21
-66.4156
0
LINE
8
BLACK
6
CONTINUOUS
10
98.4389
20
-66.4156
11
98.3295
21
-66.5794
0
LINE
8
BLACK
6
CONTINUOUS
10
98.3295
20
-66.5794
11
98.1902
21
-66.7187
0
LINE
8
BLACK
6
CONTINUOUS
10
98.1902
20
-66.7187
11
98.0264
21
-66.8281
0
LINE
8
BLACK
6
CONTINUOUS
10
98.0264
20
-66.8281
11
97.8444
21
-66.9035
0
LINE
8
BLACK
6
CONTINUOUS
10
97.8444
20
-66.9035
11
97.6512
21
-66.9419
0
LINE
8
BLACK
6
CONTINUOUS
10
97.6512
20
-66.9419
11
97.4542
21
-66.9419
0
LINE
8
BLACK
6
CONTINUOUS
10
97.4542
20
-66.9419
11
97.261
21
-66.9035
0
LINE
8
BLACK
6
CONTINUOUS
10
97.261
20
-66.9035
11
97.079
21
-66.8281
0
LINE
8
BLACK
6
CONTINUOUS
10
97.079
20
-66.8281
11
96.9152
21
-66.7187
0
LINE
8
BLACK
6
CONTINUOUS
10
96.9152
20
-66.7187
11
96.7759
21
-66.5794
0
LINE
8
BLACK
6
CONTINUOUS
10
96.7759
20
-66.5794
11
96.6665
21
-66.4156
0
LINE
8
BLACK
6
CONTINUOUS
10
96.6665
20
-66.4156
11
96.5911
21
-66.2336
0
LINE
8
BLACK
6
CONTINUOUS
10
96.5911
20
-66.2336
11
96.5527
21
-66.0404
0
LINE
8
BLACK
6
CONTINUOUS
10
96.5527
20
-66.0404
11
96.5527
21
-65.8434
0
LINE
8
BLACK
6
CONTINUOUS
10
96.5527
20
-65.8434
11
96.5911
21
-65.6502
0
LINE
8
BLACK
6
CONTINUOUS
10
96.5911
20
-65.6502
11
96.6665
21
-65.4682
0
LINE
8
BLACK
6
CONTINUOUS
10
96.6665
20
-65.4682
11
96.7759
21
-65.3044
0
LINE
8
BLACK
6
CONTINUOUS
10
96.7759
20
-65.3044
11
96.9152
21
-65.1651
0
LINE
8
BLACK
6
CONTINUOUS
10
96.9152
20
-65.1651
11
97.079
21
-65.0557
0
LINE
8
BLACK
6
CONTINUOUS
10
97.079
20
-65.0557
11
97.261
21
-64.9803
0
LINE
8
BLACK
6
CONTINUOUS
10
97.261
20
-64.9803
11
97.4542
21
-64.9419
0
LINE
8
BLACK
6
CONTINUOUS
10
97.4542
20
-64.9419
11
97.6512
21
-64.9419
0
LINE
8
BLACK
6
CONTINUOUS
10
97.6512
20
-64.9419
11
97.8444
21
-64.9803
0
LINE
8
BLACK
6
CONTINUOUS
10
105.964
20
-64.9803
11
106.146
21
-65.0557
0
LINE
8
BLACK
6
CONTINUOUS
10
106.146
20
-65.0557
11
106.31
21
-65.1651
0
LINE
8
BLACK
6
CONTINUOUS
10
106.31
20
-65.1651
11
106.449
21
-65.3044
0
LINE
8
BLACK
6
CONTINUOUS
10
106.449
20
-65.3044
11
106.559
21
-65.4682
0
LINE
8
BLACK
6
CONTINUOUS
10
106.559
20
-65.4682
11
106.634
21
-65.6502
0
LINE
8
BLACK
6
CONTINUOUS
10
106.634
20
-65.6502
11
106.673
21
-65.8434
0
LINE
8
BLACK
6
CONTINUOUS
10
106.673
20
-65.8434
11
106.673
21
-66.0404
0
LINE
8
BLACK
6
CONTINUOUS
10
106.673
20
-66.0404
11
106.634
21
-66.2336
0
LINE
8
BLACK
6
CONTINUOUS
10
106.634
20
-66.2336
11
106.559
21
-66.4156
0
LINE
8
BLACK
6
CONTINUOUS
10
106.559
20
-66.4156
11
106.449
21
-66.5794
0
LINE
8
BLACK
6
CONTINUOUS
10
106.449
20
-66.5794
11
106.31
21
-66.7187
0
LINE
8
BLACK
6
CONTINUOUS
10
106.31
20
-66.7187
11
106.146
21
-66.8281
0
LINE
8
BLACK
6
CONTINUOUS
10
106.146
20
-66.8281
11
105.964
21
-66.9035
0
LINE
8
BLACK
6
CONTINUOUS
10
105.964
20
-66.9035
11
105.771
21
-66.9419
0
LINE
8
BLACK
6
CONTINUOUS
10
105.771
20
-66.9419
11
105.574
21
-66.9419
0
LINE
8
BLACK
6
CONTINUOUS
10
105.574
20
-66.9419
11
105.381
21
-66.9035
0
LINE
8
BLACK
6
CONTINUOUS
10
105.381
20
-66.9035
11
105.199
21
-66.8281
0
LINE
8
BLACK
6
CONTINUOUS
10
105.199
20
-66.8281
11
105.035
21
-66.7187
0
LINE
8
BLACK
6
CONTINUOUS
10
105.035
20
-66.7187
11
104.896
21
-66.5794
0
LINE
8
BLACK
6
CONTINUOUS
10
104.896
20
-66.5794
11
104.787
21
-66.4156
0
LINE
8
BLACK
6
CONTINUOUS
10
104.787
20
-66.4156
11
104.711
21
-66.2336
0
LINE
8
BLACK
6
CONTINUOUS
10
104.711
20
-66.2336
11
104.673
21
-66.0404
0
LINE
8
BLACK
6
CONTINUOUS
10
104.673
20
-66.0404
11
104.673
21
-65.8434
0
LINE
8
BLACK
6
CONTINUOUS
10
104.673
20
-65.8434
11
104.711
21
-65.6502
0
LINE
8
BLACK
6
CONTINUOUS
10
104.711
20
-65.6502
11
104.787
21
-65.4682
0
LINE
8
BLACK
6
CONTINUOUS
10
104.787
20
-65.4682
11
104.896
21
-65.3044
0
LINE
8
BLACK
6
CONTINUOUS
10
104.896
20
-65.3044
11
105.035
21
-65.1651
0
LINE
8
BLACK
6
CONTINUOUS
10
105.035
20
-65.1651
11
105.199
21
-65.0557
0
LINE
8
BLACK
6
CONTINUOUS
10
105.199
20
-65.0557
11
105.381
21
-64.9803
0
LINE
8
BLACK
6
CONTINUOUS
10
105.381
20
-64.9803
11
105.574
21
-64.9419
0
LINE
8
BLACK
6
CONTINUOUS
10
105.574
20
-64.9419
11
105.771
21
-64.9419
0
LINE
8
BLACK
6
CONTINUOUS
10
105.771
20
-64.9419
11
105.964
21
-64.9803
0
LINE
8
BLACK
6
CONTINUOUS
10
113.207
20
-64.4436
11
111.507
21
-64.4436
0
LINE
8
BLACK
6
CONTINUOUS
10
111.507
20
-64.4436
11
111.507
21
-61.7436
0
LINE
8
BLACK
6
CONTINUOUS
10
111.507
20
-61.7436
11
113.207
21
-61.7436
0
LINE
8
BLACK
6
CONTINUOUS
10
113.207
20
-61.7436
11
113.207
21
-64.4436
0
LINE
8
BLACK
6
CONTINUOUS
10
115.747
20
-64.4436
11
114.047
21
-64.4436
0
LINE
8
BLACK
6
CONTINUOUS
10
114.047
20
-64.4436
11
114.047
21
-61.7436
0
LINE
8
BLACK
6
CONTINUOUS
10
114.047
20
-61.7436
11
115.747
21
-61.7436
0
LINE
8
BLACK
6
CONTINUOUS
10
115.747
20
-61.7436
11
115.747
21
-64.4436
0
LINE
8
BLACK
6
CONTINUOUS
10
89.1409
20
-61.5732
11
89.3229
21
-61.6486
0
LINE
8
BLACK
6
CONTINUOUS
10
89.3229
20
-61.6486
11
89.4867
21
-61.758
0
LINE
8
BLACK
6
CONTINUOUS
10
89.4867
20
-61.758
11
89.626
21
-61.8973
0
LINE
8
BLACK
6
CONTINUOUS
10
89.626
20
-61.8973
11
89.7354
21
-62.0611
0
LINE
8
BLACK
6
CONTINUOUS
10
89.7354
20
-62.0611
11
89.8108
21
-62.2431
0
LINE
8
BLACK
6
CONTINUOUS
10
89.8108
20
-62.2431
11
89.8492
21
-62.4363
0
LINE
8
BLACK
6
CONTINUOUS
10
89.8492
20
-62.4363
11
89.8492
21
-62.6333
0
LINE
8
BLACK
6
CONTINUOUS
10
89.8492
20
-62.6333
11
89.8108
21
-62.8265
0
LINE
8
BLACK
6
CONTINUOUS
10
89.8108
20
-62.8265
11
89.7354
21
-63.0085
0
LINE
8
BLACK
6
CONTINUOUS
10
89.7354
20
-63.0085
11
89.626
21
-63.1723
0
LINE
8
BLACK
6
CONTINUOUS
10
89.626
20
-63.1723
11
89.4867
21
-63.3116
0
LINE
8
BLACK
6
CONTINUOUS
10
89.4867
20
-63.3116
11
89.3229
21
-63.421
0
LINE
8
BLACK
6
CONTINUOUS
10
89.3229
20
-63.421
11
89.1409
21
-63.4964
0
LINE
8
BLACK
6
CONTINUOUS
10
89.1409
20
-63.4964
11
88.9477
21
-63.5348
0
LINE
8
BLACK
6
CONTINUOUS
10
88.9477
20
-63.5348
11
88.7507
21
-63.5348
0
LINE
8
BLACK
6
CONTINUOUS
10
88.7507
20
-63.5348
11
88.5575
21
-63.4964
0
LINE
8
BLACK
6
CONTINUOUS
10
88.5575
20
-63.4964
11
88.3755
21
-63.421
0
LINE
8
BLACK
6
CONTINUOUS
10
88.3755
20
-63.421
11
88.2117
21
-63.3116
0
LINE
8
BLACK
6
CONTINUOUS
10
88.2117
20
-63.3116
11
88.0724
21
-63.1723
0
LINE
8
BLACK
6
CONTINUOUS
10
88.0724
20
-63.1723
11
87.963
21
-63.0085
0
LINE
8
BLACK
6
CONTINUOUS
10
87.963
20
-63.0085
11
87.8876
21
-62.8265
0
LINE
8
BLACK
6
CONTINUOUS
10
87.8876
20
-62.8265
11
87.8492
21
-62.6333
0
LINE
8
BLACK
6
CONTINUOUS
10
87.8492
20
-62.6333
11
87.8492
21
-62.4363
0
LINE
8
BLACK
6
CONTINUOUS
10
87.8492
20
-62.4363
11
87.8876
21
-62.2431
0
LINE
8
BLACK
6
CONTINUOUS
10
87.8876
20
-62.2431
11
87.963
21
-62.0611
0
LINE
8
BLACK
6
CONTINUOUS
10
87.963
20
-62.0611
11
88.0724
21
-61.8973
0
LINE
8
BLACK
6
CONTINUOUS
10
88.0724
20
-61.8973
11
88.2117
21
-61.758
0
LINE
8
BLACK
6
CONTINUOUS
10
88.2117
20
-61.758
11
88.3755
21
-61.6486
0
LINE
8
BLACK
6
CONTINUOUS
10
88.3755
20
-61.6486
11
88.5575
21
-61.5732
0
LINE
8
BLACK
6
CONTINUOUS
10
88.5575
20
-61.5732
11
88.7507
21
-61.5348
0
LINE
8
BLACK
6
CONTINUOUS
10
88.7507
20
-61.5348
11
88.9477
21
-61.5348
0
LINE
8
BLACK
6
CONTINUOUS
10
88.9477
20
-61.5348
11
89.1409
21
-61.5732
0
LINE
8
BLACK
6
CONTINUOUS
10
120.154
20
-61.5732
11
120.336
21
-61.6486
0
LINE
8
BLACK
6
CONTINUOUS
10
120.336
20
-61.6486
11
120.5
21
-61.758
0
LINE
8
BLACK
6
CONTINUOUS
10
120.5
20
-61.758
11
120.639
21
-61.8973
0
LINE
8
BLACK
6
CONTINUOUS
10
120.639
20
-61.8973
11
120.749
21
-62.0611
0
LINE
8
BLACK
6
CONTINUOUS
10
120.749
20
-62.0611
11
120.824
21
-62.2431
0
LINE
8
BLACK
6
CONTINUOUS
10
120.824
20
-62.2431
11
120.863
21
-62.4363
0
LINE
8
BLACK
6
CONTINUOUS
10
120.863
20
-62.4363
11
120.863
21
-62.6333
0
LINE
8
BLACK
6
CONTINUOUS
10
120.863
20
-62.6333
11
120.824
21
-62.8265
0
LINE
8
BLACK
6
CONTINUOUS
10
120.824
20
-62.8265
11
120.749
21
-63.0085
0
LINE
8
BLACK
6
CONTINUOUS
10
120.749
20
-63.0085
11
120.639
21
-63.1723
0
LINE
8
BLACK
6
CONTINUOUS
10
120.639
20
-63.1723
11
120.5
21
-63.3116
0
LINE
8
BLACK
6
CONTINUOUS
10
120.5
20
-63.3116
11
120.336
21
-63.421
0
LINE
8
BLACK
6
CONTINUOUS
10
120.336
20
-63.421
11
120.154
21
-63.4964
0
LINE
8
BLACK
6
CONTINUOUS
10
120.154
20
-63.4964
11
119.961
21
-63.5348
0
LINE
8
BLACK
6
CONTINUOUS
10
119.961
20
-63.5348
11
119.764
21
-63.5348
0
LINE
8
BLACK
6
CONTINUOUS
10
119.764
20
-63.5348
11
119.571
21
-63.4964
0
LINE
8
BLACK
6
CONTINUOUS
10
119.571
20
-63.4964
11
119.389
21
-63.421
0
LINE
8
BLACK
6
CONTINUOUS
10
119.389
20
-63.421
11
119.225
21
-63.3116
0
LINE
8
BLACK
6
CONTINUOUS
10
119.225
20
-63.3116
11
119.086
21
-63.1723
0
LINE
8
BLACK
6
CONTINUOUS
10
119.086
20
-63.1723
11
118.976
21
-63.0085
0
LINE
8
BLACK
6
CONTINUOUS
10
118.976
20
-63.0085
11
118.901
21
-62.8265
0
LINE
8
BLACK
6
CONTINUOUS
10
118.901
20
-62.8265
11
118.863
21
-62.6333
0
LINE
8
BLACK
6
CONTINUOUS
10
118.863
20
-62.6333
11
118.863
21
-62.4363
0
LINE
8
BLACK
6
CONTINUOUS
10
118.863
20
-62.4363
11
118.901
21
-62.2431
0
LINE
8
BLACK
6
CONTINUOUS
10
118.901
20
-62.2431
11
118.976
21
-62.0611
0
LINE
8
BLACK
6
CONTINUOUS
10
118.976
20
-62.0611
11
119.086
21
-61.8973
0
LINE
8
BLACK
6
CONTINUOUS
10
119.086
20
-61.8973
11
119.225
21
-61.758
0
LINE
8
BLACK
6
CONTINUOUS
10
119.225
20
-61.758
11
119.389
21
-61.6486
0
LINE
8
BLACK
6
CONTINUOUS
10
119.389
20
-61.6486
11
119.571
21
-61.5732
0
LINE
8
BLACK
6
CONTINUOUS
10
119.571
20
-61.5732
11
119.764
21
-61.5348
0
LINE
8
BLACK
6
CONTINUOUS
10
119.764
20
-61.5348
11
119.961
21
-61.5348
0
LINE
8
BLACK
6
CONTINUOUS
10
119.961
20
-61.5348
11
120.154
21
-61.5732
0
LINE
8
BLACK
6
CONTINUOUS
10
112.532
20
-60.0667
11
112.641
21
-60.1119
0
LINE
8
BLACK
6
CONTINUOUS
10
112.641
20
-60.1119
11
112.739
21
-60.1776
0
LINE
8
BLACK
6
CONTINUOUS
10
112.739
20
-60.1776
11
112.823
21
-60.2611
0
LINE
8
BLACK
6
CONTINUOUS
10
112.823
20
-60.2611
11
112.889
21
-60.3594
0
LINE
8
BLACK
6
CONTINUOUS
10
112.889
20
-60.3594
11
112.934
21
-60.4686
0
LINE
8
BLACK
6
CONTINUOUS
10
112.934
20
-60.4686
11
112.957
21
-60.5845
0
LINE
8
BLACK
6
CONTINUOUS
10
112.957
20
-60.5845
11
112.957
21
-60.7027
0
LINE
8
BLACK
6
CONTINUOUS
10
112.957
20
-60.7027
11
112.934
21
-60.8186
0
LINE
8
BLACK
6
CONTINUOUS
10
112.934
20
-60.8186
11
112.889
21
-60.9278
0
LINE
8
BLACK
6
CONTINUOUS
10
112.889
20
-60.9278
11
112.823
21
-61.0261
0
LINE
8
BLACK
6
CONTINUOUS
10
112.823
20
-61.0261
11
112.739
21
-61.1096
0
LINE
8
BLACK
6
CONTINUOUS
10
112.739
20
-61.1096
11
112.641
21
-61.1753
0
LINE
8
BLACK
6
CONTINUOUS
10
112.641
20
-61.1753
11
112.532
21
-61.2205
0
LINE
8
BLACK
6
CONTINUOUS
10
112.532
20
-61.2205
11
112.416
21
-61.2436
0
LINE
8
BLACK
6
CONTINUOUS
10
112.416
20
-61.2436
11
112.298
21
-61.2436
0
LINE
8
BLACK
6
CONTINUOUS
10
112.298
20
-61.2436
11
112.182
21
-61.2205
0
LINE
8
BLACK
6
CONTINUOUS
10
112.182
20
-61.2205
11
112.073
21
-61.1753
0
LINE
8
BLACK
6
CONTINUOUS
10
112.073
20
-61.1753
11
111.974
21
-61.1096
0
LINE
8
BLACK
6
CONTINUOUS
10
111.974
20
-61.1096
11
111.891
21
-61.0261
0
LINE
8
BLACK
6
CONTINUOUS
10
111.891
20
-61.0261
11
111.825
21
-60.9278
0
LINE
8
BLACK
6
CONTINUOUS
10
111.825
20
-60.9278
11
111.78
21
-60.8186
0
LINE
8
BLACK
6
CONTINUOUS
10
111.78
20
-60.8186
11
111.757
21
-60.7027
0
LINE
8
BLACK
6
CONTINUOUS
10
111.757
20
-60.7027
11
111.757
21
-60.5845
0
LINE
8
BLACK
6
CONTINUOUS
10
111.757
20
-60.5845
11
111.78
21
-60.4686
0
LINE
8
BLACK
6
CONTINUOUS
10
111.78
20
-60.4686
11
111.825
21
-60.3594
0
LINE
8
BLACK
6
CONTINUOUS
10
111.825
20
-60.3594
11
111.891
21
-60.2611
0
LINE
8
BLACK
6
CONTINUOUS
10
111.891
20
-60.2611
11
111.974
21
-60.1776
0
LINE
8
BLACK
6
CONTINUOUS
10
111.974
20
-60.1776
11
112.073
21
-60.1119
0
LINE
8
BLACK
6
CONTINUOUS
10
112.073
20
-60.1119
11
112.182
21
-60.0667
0
LINE
8
BLACK
6
CONTINUOUS
10
112.182
20
-60.0667
11
112.298
21
-60.0436
0
LINE
8
BLACK
6
CONTINUOUS
10
112.298
20
-60.0436
11
112.416
21
-60.0436
0
LINE
8
BLACK
6
CONTINUOUS
10
112.416
20
-60.0436
11
112.532
21
-60.0667
0
LINE
8
BLACK
6
CONTINUOUS
10
115.072
20
-60.0667
11
115.181
21
-60.1119
0
LINE
8
BLACK
6
CONTINUOUS
10
115.181
20
-60.1119
11
115.279
21
-60.1776
0
LINE
8
BLACK
6
CONTINUOUS
10
115.279
20
-60.1776
11
115.363
21
-60.2611
0
LINE
8
BLACK
6
CONTINUOUS
10
115.363
20
-60.2611
11
115.429
21
-60.3594
0
LINE
8
BLACK
6
CONTINUOUS
10
115.429
20
-60.3594
11
115.474
21
-60.4686
0
LINE
8
BLACK
6
CONTINUOUS
10
115.474
20
-60.4686
11
115.497
21
-60.5845
0
LINE
8
BLACK
6
CONTINUOUS
10
115.497
20
-60.5845
11
115.497
21
-60.7027
0
LINE
8
BLACK
6
CONTINUOUS
10
115.497
20
-60.7027
11
115.474
21
-60.8186
0
LINE
8
BLACK
6
CONTINUOUS
10
115.474
20
-60.8186
11
115.429
21
-60.9278
0
LINE
8
BLACK
6
CONTINUOUS
10
115.429
20
-60.9278
11
115.363
21
-61.0261
0
LINE
8
BLACK
6
CONTINUOUS
10
115.363
20
-61.0261
11
115.279
21
-61.1096
0
LINE
8
BLACK
6
CONTINUOUS
10
115.279
20
-61.1096
11
115.181
21
-61.1753
0
LINE
8
BLACK
6
CONTINUOUS
10
115.181
20
-61.1753
11
115.072
21
-61.2205
0
LINE
8
BLACK
6
CONTINUOUS
10
115.072
20
-61.2205
11
114.956
21
-61.2436
0
LINE
8
BLACK
6
CONTINUOUS
10
114.956
20
-61.2436
11
114.838
21
-61.2436
0
LINE
8
BLACK
6
CONTINUOUS
10
114.838
20
-61.2436
11
114.722
21
-61.2205
0
LINE
8
BLACK
6
CONTINUOUS
10
114.722
20
-61.2205
11
114.613
21
-61.1753
0
LINE
8
BLACK
6
CONTINUOUS
10
114.613
20
-61.1753
11
114.514
21
-61.1096
0
LINE
8
BLACK
6
CONTINUOUS
10
114.514
20
-61.1096
11
114.431
21
-61.0261
0
LINE
8
BLACK
6
CONTINUOUS
10
114.431
20
-61.0261
11
114.365
21
-60.9278
0
LINE
8
BLACK
6
CONTINUOUS
10
114.365
20
-60.9278
11
114.32
21
-60.8186
0
LINE
8
BLACK
6
CONTINUOUS
10
114.32
20
-60.8186
11
114.297
21
-60.7027
0
LINE
8
BLACK
6
CONTINUOUS
10
114.297
20
-60.7027
11
114.297
21
-60.5845
0
LINE
8
BLACK
6
CONTINUOUS
10
114.297
20
-60.5845
11
114.32
21
-60.4686
0
LINE
8
BLACK
6
CONTINUOUS
10
114.32
20
-60.4686
11
114.365
21
-60.3594
0
LINE
8
BLACK
6
CONTINUOUS
10
114.365
20
-60.3594
11
114.431
21
-60.2611
0
LINE
8
BLACK
6
CONTINUOUS
10
114.431
20
-60.2611
11
114.514
21
-60.1776
0
LINE
8
BLACK
6
CONTINUOUS
10
114.514
20
-60.1776
11
114.613
21
-60.1119
0
LINE
8
BLACK
6
CONTINUOUS
10
114.613
20
-60.1119
11
114.722
21
-60.0667
0
LINE
8
BLACK
6
CONTINUOUS
10
114.722
20
-60.0667
11
114.838
21
-60.0436
0
LINE
8
BLACK
6
CONTINUOUS
10
114.838
20
-60.0436
11
114.956
21
-60.0436
0
LINE
8
BLACK
6
CONTINUOUS
10
114.956
20
-60.0436
11
115.072
21
-60.0667
0
LINE
8
BLACK
6
CONTINUOUS
10
93.0416
20
-57.1055
11
93.1833
21
-57.1337
0
LINE
8
BLACK
6
CONTINUOUS
10
93.1833
20
-57.1337
11
93.3834
21
-57.2166
0
LINE
8
BLACK
6
CONTINUOUS
10
93.3834
20
-57.2166
11
93.5636
21
-57.337
0
LINE
8
BLACK
6
CONTINUOUS
10
93.5636
20
-57.337
11
93.7168
21
-57.4902
0
LINE
8
BLACK
6
CONTINUOUS
10
93.7168
20
-57.4902
11
93.8372
21
-57.6704
0
LINE
8
BLACK
6
CONTINUOUS
10
93.8372
20
-57.6704
11
93.9201
21
-57.8705
0
LINE
8
BLACK
6
CONTINUOUS
10
93.9201
20
-57.8705
11
93.9624
21
-58.0831
0
LINE
8
BLACK
6
CONTINUOUS
10
93.9624
20
-58.0831
11
93.9624
21
-58.2997
0
LINE
8
BLACK
6
CONTINUOUS
10
93.9624
20
-58.2997
11
93.9201
21
-58.5123
0
LINE
8
BLACK
6
CONTINUOUS
10
93.9201
20
-58.5123
11
93.8372
21
-58.7124
0
LINE
8
BLACK
6
CONTINUOUS
10
93.8372
20
-58.7124
11
93.7168
21
-58.8926
0
LINE
8
BLACK
6
CONTINUOUS
10
93.7168
20
-58.8926
11
93.5636
21
-59.0458
0
LINE
8
BLACK
6
CONTINUOUS
10
93.5636
20
-59.0458
11
93.3834
21
-59.1662
0
LINE
8
BLACK
6
CONTINUOUS
10
93.3834
20
-59.1662
11
93.1833
21
-59.2491
0
LINE
8
BLACK
6
CONTINUOUS
10
93.1833
20
-59.2491
11
93.0416
21
-59.2773
0
LINE
8
BLACK
6
CONTINUOUS
10
93.0416
20
-59.2773
11
92.9707
21
-59.2914
0
LINE
8
BLACK
6
CONTINUOUS
10
92.9707
20
-59.2914
11
92.7541
21
-59.2914
0
LINE
8
BLACK
6
CONTINUOUS
10
92.7541
20
-59.2914
11
92.6832
21
-59.2773
0
LINE
8
BLACK
6
CONTINUOUS
10
92.6832
20
-59.2773
11
92.5415
21
-59.2491
0
LINE
8
BLACK
6
CONTINUOUS
10
92.5415
20
-59.2491
11
92.3414
21
-59.1662
0
LINE
8
BLACK
6
CONTINUOUS
10
92.3414
20
-59.1662
11
92.1612
21
-59.0458
0
LINE
8
BLACK
6
CONTINUOUS
10
92.1612
20
-59.0458
11
92.008
21
-58.8926
0
LINE
8
BLACK
6
CONTINUOUS
10
92.008
20
-58.8926
11
91.8876
21
-58.7124
0
LINE
8
BLACK
6
CONTINUOUS
10
91.8876
20
-58.7124
11
91.8047
21
-58.5123
0
LINE
8
BLACK
6
CONTINUOUS
10
91.8047
20
-58.5123
11
91.7624
21
-58.2997
0
LINE
8
BLACK
6
CONTINUOUS
10
91.7624
20
-58.2997
11
91.7624
21
-58.0831
0
LINE
8
BLACK
6
CONTINUOUS
10
91.7624
20
-58.0831
11
91.8047
21
-57.8705
0
LINE
8
BLACK
6
CONTINUOUS
10
91.8047
20
-57.8705
11
91.8876
21
-57.6704
0
LINE
8
BLACK
6
CONTINUOUS
10
91.8876
20
-57.6704
11
92.008
21
-57.4902
0
LINE
8
BLACK
6
CONTINUOUS
10
92.008
20
-57.4902
11
92.1612
21
-57.337
0
LINE
8
BLACK
6
CONTINUOUS
10
92.1612
20
-57.337
11
92.3414
21
-57.2166
0
LINE
8
BLACK
6
CONTINUOUS
10
92.3414
20
-57.2166
11
92.5415
21
-57.1337
0
LINE
8
BLACK
6
CONTINUOUS
10
92.5415
20
-57.1337
11
92.6832
21
-57.1055
0
LINE
8
BLACK
6
CONTINUOUS
10
92.6832
20
-57.1055
11
92.7541
21
-57.0914
0
LINE
8
BLACK
6
CONTINUOUS
10
92.7541
20
-57.0914
11
92.9707
21
-57.0914
0
LINE
8
BLACK
6
CONTINUOUS
10
92.9707
20
-57.0914
11
93.0416
21
-57.1055
0
LINE
8
BLACK
6
CONTINUOUS
10
88.0378
20
-55.0989
11
88.1795
21
-55.1271
0
LINE
8
BLACK
6
CONTINUOUS
10
88.1795
20
-55.1271
11
88.3796
21
-55.21
0
LINE
8
BLACK
6
CONTINUOUS
10
88.3796
20
-55.21
11
88.5598
21
-55.3304
0
LINE
8
BLACK
6
CONTINUOUS
10
88.5598
20
-55.3304
11
88.713
21
-55.4836
0
LINE
8
BLACK
6
CONTINUOUS
10
88.713
20
-55.4836
11
88.8334
21
-55.6638
0
LINE
8
BLACK
6
CONTINUOUS
10
88.8334
20
-55.6638
11
88.9163
21
-55.8639
0
LINE
8
BLACK
6
CONTINUOUS
10
88.9163
20
-55.8639
11
88.9586
21
-56.0765
0
LINE
8
BLACK
6
CONTINUOUS
10
88.9586
20
-56.0765
11
88.9586
21
-56.2931
0
LINE
8
BLACK
6
CONTINUOUS
10
88.9586
20
-56.2931
11
88.9163
21
-56.5057
0
LINE
8
BLACK
6
CONTINUOUS
10
88.9163
20
-56.5057
11
88.8334
21
-56.7058
0
LINE
8
BLACK
6
CONTINUOUS
10
88.8334
20
-56.7058
11
88.713
21
-56.886
0
LINE
8
BLACK
6
CONTINUOUS
10
88.713
20
-56.886
11
88.5598
21
-57.0392
0
LINE
8
BLACK
6
CONTINUOUS
10
88.5598
20
-57.0392
11
88.3796
21
-57.1596
0
LINE
8
BLACK
6
CONTINUOUS
10
88.3796
20
-57.1596
11
88.1795
21
-57.2425
0
LINE
8
BLACK
6
CONTINUOUS
10
88.1795
20
-57.2425
11
88.0378
21
-57.2707
0
LINE
8
BLACK
6
CONTINUOUS
10
88.0378
20
-57.2707
11
87.9669
21
-57.2848
0
LINE
8
BLACK
6
CONTINUOUS
10
87.9669
20
-57.2848
11
87.7503
21
-57.2848
0
LINE
8
BLACK
6
CONTINUOUS
10
87.7503
20
-57.2848
11
87.6794
21
-57.2707
0
LINE
8
BLACK
6
CONTINUOUS
10
87.6794
20
-57.2707
11
87.5377
21
-57.2425
0
LINE
8
BLACK
6
CONTINUOUS
10
87.5377
20
-57.2425
11
87.3376
21
-57.1596
0
LINE
8
BLACK
6
CONTINUOUS
10
87.3376
20
-57.1596
11
87.1574
21
-57.0392
0
LINE
8
BLACK
6
CONTINUOUS
10
87.1574
20
-57.0392
11
87.0042
21
-56.886
0
LINE
8
BLACK
6
CONTINUOUS
10
87.0042
20
-56.886
11
86.8838
21
-56.7058
0
LINE
8
BLACK
6
CONTINUOUS
10
86.8838
20
-56.7058
11
86.8009
21
-56.5057
0
LINE
8
BLACK
6
CONTINUOUS
10
86.8009
20
-56.5057
11
86.7586
21
-56.2931
0
LINE
8
BLACK
6
CONTINUOUS
10
86.7586
20
-56.2931
11
86.7586
21
-56.0765
0
LINE
8
BLACK
6
CONTINUOUS
10
86.7586
20
-56.0765
11
86.8009
21
-55.8639
0
LINE
8
BLACK
6
CONTINUOUS
10
86.8009
20
-55.8639
11
86.8838
21
-55.6638
0
LINE
8
BLACK
6
CONTINUOUS
10
86.8838
20
-55.6638
11
87.0042
21
-55.4836
0
LINE
8
BLACK
6
CONTINUOUS
10
87.0042
20
-55.4836
11
87.1574
21
-55.3304
0
LINE
8
BLACK
6
CONTINUOUS
10
87.1574
20
-55.3304
11
87.3376
21
-55.21
0
LINE
8
BLACK
6
CONTINUOUS
10
87.3376
20
-55.21
11
87.5377
21
-55.1271
0
LINE
8
BLACK
6
CONTINUOUS
10
87.5377
20
-55.1271
11
87.6794
21
-55.0989
0
LINE
8
BLACK
6
CONTINUOUS
10
87.6794
20
-55.0989
11
87.7503
21
-55.0848
0
LINE
8
BLACK
6
CONTINUOUS
10
87.7503
20
-55.0848
11
87.9669
21
-55.0848
0
LINE
8
BLACK
6
CONTINUOUS
10
87.9669
20
-55.0848
11
88.0378
21
-55.0989
  0
ENDSEC
  0
EOF
