M48
INCH,TZ
T1C0.0120
T2C0.0180
T3C0.0217
T4C0.0394
T5C0.0433
T6C0.0472
T7C0.0591
T8C0.0787
%
G90
G05
T1
X8450Y-19850
X9114Y-17339
X9114Y-17801
X9576Y-17339
X9576Y-17801
X10310Y-20680
X11987Y-20038
X12259Y-21655
X12310Y-14390
X12556Y-23867
X12926Y-19912
X13062Y-23241
X13474Y-15390
X14049Y-15496
X14059Y-25320
X14072Y-14396
X15466Y-12556
X15526Y-22970
X16230Y-21046
X16388Y-9600
X16686Y-17988
X17702Y-23962
X17800Y-14924
X18402Y-25022
X19318Y-19901
X19318Y-20363
X19780Y-19901
X19780Y-20363
X20562Y-16336
X20802Y-23034
X21068Y-19214
X21126Y-15854
T2
X7508Y-22484
X7950Y-11050
X10180Y-13320
X11479Y-20465
X13296Y-20450
T3
X7790Y-7120
X9760Y-7910
T4
X15775Y-14975
X16775Y-14975
X15880Y-24654
X15880Y-25654
T5
X11607Y-10961
X14803Y-10961
T6
X17435Y-8875
X17435Y-9840
X18435Y-8875
X18435Y-9840
T7
X15275Y-19625
X11423Y-19569
T8
X8180Y-9620
X20390Y-9620
X8180Y-24980
X20380Y-24980
T0
M30
