G04 #@! TF.GenerationSoftware,KiCad,Pcbnew,(5.0.2)-1*
G04 #@! TF.CreationDate,2019-05-03T15:30:51-04:00*
G04 #@! TF.ProjectId,TrafMasterV1,54726166-4d61-4737-9465-7256312e6b69,V1*
G04 #@! TF.SameCoordinates,Original*
G04 #@! TF.FileFunction,Legend,Bot*
G04 #@! TF.FilePolarity,Positive*
%FSLAX46Y46*%
G04 Gerber Fmt 4.6, Leading zero omitted, Abs format (unit mm)*
G04 Created by KiCad (PCBNEW (5.0.2)-1) date 5/3/2019 3:30:51 PM*
%MOMM*%
%LPD*%
G01*
G04 APERTURE LIST*
%ADD10C,0.254000*%
%ADD11C,0.200000*%
%ADD12C,0.175000*%
%ADD13C,0.222250*%
%ADD14C,0.150000*%
%ADD15C,0.100000*%
%ADD16C,0.125000*%
%ADD17C,0.127000*%
%ADD18C,0.107950*%
G04 APERTURE END LIST*
D10*
X40330361Y-60945485D02*
X40281980Y-60848723D01*
X40281980Y-60655200D01*
X40330361Y-60558438D01*
X40427123Y-60510057D01*
X40475504Y-60510057D01*
X40572266Y-60558438D01*
X40620647Y-60655200D01*
X40620647Y-60800342D01*
X40669028Y-60897104D01*
X40765790Y-60945485D01*
X40814171Y-60945485D01*
X40910933Y-60897104D01*
X40959314Y-60800342D01*
X40959314Y-60655200D01*
X40910933Y-60558438D01*
X40330361Y-59687580D02*
X40281980Y-59784342D01*
X40281980Y-59977866D01*
X40330361Y-60074628D01*
X40427123Y-60123009D01*
X40814171Y-60123009D01*
X40910933Y-60074628D01*
X40959314Y-59977866D01*
X40959314Y-59784342D01*
X40910933Y-59687580D01*
X40814171Y-59639200D01*
X40717409Y-59639200D01*
X40620647Y-60123009D01*
X40959314Y-59203771D02*
X40281980Y-59203771D01*
X40862552Y-59203771D02*
X40910933Y-59155390D01*
X40959314Y-59058628D01*
X40959314Y-58913485D01*
X40910933Y-58816723D01*
X40814171Y-58768342D01*
X40281980Y-58768342D01*
X40330361Y-58332914D02*
X40281980Y-58236152D01*
X40281980Y-58042628D01*
X40330361Y-57945866D01*
X40427123Y-57897485D01*
X40475504Y-57897485D01*
X40572266Y-57945866D01*
X40620647Y-58042628D01*
X40620647Y-58187771D01*
X40669028Y-58284533D01*
X40765790Y-58332914D01*
X40814171Y-58332914D01*
X40910933Y-58284533D01*
X40959314Y-58187771D01*
X40959314Y-58042628D01*
X40910933Y-57945866D01*
X40281980Y-57316914D02*
X40330361Y-57413676D01*
X40378742Y-57462057D01*
X40475504Y-57510438D01*
X40765790Y-57510438D01*
X40862552Y-57462057D01*
X40910933Y-57413676D01*
X40959314Y-57316914D01*
X40959314Y-57171771D01*
X40910933Y-57075009D01*
X40862552Y-57026628D01*
X40765790Y-56978247D01*
X40475504Y-56978247D01*
X40378742Y-57026628D01*
X40330361Y-57075009D01*
X40281980Y-57171771D01*
X40281980Y-57316914D01*
X40281980Y-56542819D02*
X40959314Y-56542819D01*
X40765790Y-56542819D02*
X40862552Y-56494438D01*
X40910933Y-56446057D01*
X40959314Y-56349295D01*
X40959314Y-56252533D01*
X40281980Y-55478438D02*
X40814171Y-55478438D01*
X40910933Y-55526819D01*
X40959314Y-55623580D01*
X40959314Y-55817104D01*
X40910933Y-55913866D01*
X40330361Y-55478438D02*
X40281980Y-55575200D01*
X40281980Y-55817104D01*
X40330361Y-55913866D01*
X40427123Y-55962247D01*
X40523885Y-55962247D01*
X40620647Y-55913866D01*
X40669028Y-55817104D01*
X40669028Y-55575200D01*
X40717409Y-55478438D01*
X40281980Y-54994628D02*
X41297980Y-54994628D01*
X40910933Y-54994628D02*
X40959314Y-54897866D01*
X40959314Y-54704342D01*
X40910933Y-54607580D01*
X40862552Y-54559200D01*
X40765790Y-54510819D01*
X40475504Y-54510819D01*
X40378742Y-54559200D01*
X40330361Y-54607580D01*
X40281980Y-54704342D01*
X40281980Y-54897866D01*
X40330361Y-54994628D01*
X40281980Y-53930247D02*
X40330361Y-54027009D01*
X40427123Y-54075390D01*
X41297980Y-54075390D01*
X40330361Y-53156152D02*
X40281980Y-53252914D01*
X40281980Y-53446438D01*
X40330361Y-53543200D01*
X40427123Y-53591580D01*
X40814171Y-53591580D01*
X40910933Y-53543200D01*
X40959314Y-53446438D01*
X40959314Y-53252914D01*
X40910933Y-53156152D01*
X40814171Y-53107771D01*
X40717409Y-53107771D01*
X40620647Y-53591580D01*
X40378742Y-52672342D02*
X40330361Y-52623961D01*
X40281980Y-52672342D01*
X40330361Y-52720723D01*
X40378742Y-52672342D01*
X40281980Y-52672342D01*
X40281980Y-52188533D02*
X40959314Y-52188533D01*
X41297980Y-52188533D02*
X41249600Y-52236914D01*
X41201219Y-52188533D01*
X41249600Y-52140152D01*
X41297980Y-52188533D01*
X41201219Y-52188533D01*
X40281980Y-51559580D02*
X40330361Y-51656342D01*
X40378742Y-51704723D01*
X40475504Y-51753104D01*
X40765790Y-51753104D01*
X40862552Y-51704723D01*
X40910933Y-51656342D01*
X40959314Y-51559580D01*
X40959314Y-51414438D01*
X40910933Y-51317676D01*
X40862552Y-51269295D01*
X40765790Y-51220914D01*
X40475504Y-51220914D01*
X40378742Y-51269295D01*
X40330361Y-51317676D01*
X40281980Y-51414438D01*
X40281980Y-51559580D01*
D11*
X50901523Y-26524000D02*
X50977714Y-26485904D01*
X51092000Y-26485904D01*
X51206285Y-26524000D01*
X51282476Y-26600190D01*
X51320571Y-26676380D01*
X51358666Y-26828761D01*
X51358666Y-26943047D01*
X51320571Y-27095428D01*
X51282476Y-27171619D01*
X51206285Y-27247809D01*
X51092000Y-27285904D01*
X51015809Y-27285904D01*
X50901523Y-27247809D01*
X50863428Y-27209714D01*
X50863428Y-26943047D01*
X51015809Y-26943047D01*
X50520571Y-27285904D02*
X50520571Y-26485904D01*
X50063428Y-27285904D01*
X50063428Y-26485904D01*
X49682476Y-27285904D02*
X49682476Y-26485904D01*
X49492000Y-26485904D01*
X49377714Y-26524000D01*
X49301523Y-26600190D01*
X49263428Y-26676380D01*
X49225333Y-26828761D01*
X49225333Y-26943047D01*
X49263428Y-27095428D01*
X49301523Y-27171619D01*
X49377714Y-27247809D01*
X49492000Y-27285904D01*
X49682476Y-27285904D01*
D12*
X41706000Y-23658666D02*
X41706000Y-24192000D01*
X41972666Y-23925333D02*
X41439333Y-23925333D01*
X41972666Y-24892000D02*
X41972666Y-24492000D01*
X41972666Y-24692000D02*
X41272666Y-24692000D01*
X41372666Y-24625333D01*
X41439333Y-24558666D01*
X41472666Y-24492000D01*
X41339333Y-25158666D02*
X41306000Y-25192000D01*
X41272666Y-25258666D01*
X41272666Y-25425333D01*
X41306000Y-25492000D01*
X41339333Y-25525333D01*
X41406000Y-25558666D01*
X41472666Y-25558666D01*
X41572666Y-25525333D01*
X41972666Y-25125333D01*
X41972666Y-25558666D01*
X41272666Y-25758666D02*
X41972666Y-25992000D01*
X41272666Y-26225333D01*
D13*
X40889766Y-49555400D02*
X40932100Y-49513066D01*
X40974433Y-49428400D01*
X40974433Y-49216733D01*
X40932100Y-49132066D01*
X40889766Y-49089733D01*
X40805100Y-49047400D01*
X40720433Y-49047400D01*
X40593433Y-49089733D01*
X40085433Y-49597733D01*
X40085433Y-49047400D01*
X40974433Y-48497066D02*
X40974433Y-48412400D01*
X40932100Y-48327733D01*
X40889766Y-48285400D01*
X40805100Y-48243066D01*
X40635766Y-48200733D01*
X40424100Y-48200733D01*
X40254766Y-48243066D01*
X40170100Y-48285400D01*
X40127766Y-48327733D01*
X40085433Y-48412400D01*
X40085433Y-48497066D01*
X40127766Y-48581733D01*
X40170100Y-48624066D01*
X40254766Y-48666400D01*
X40424100Y-48708733D01*
X40635766Y-48708733D01*
X40805100Y-48666400D01*
X40889766Y-48624066D01*
X40932100Y-48581733D01*
X40974433Y-48497066D01*
X40085433Y-47354066D02*
X40085433Y-47862066D01*
X40085433Y-47608066D02*
X40974433Y-47608066D01*
X40847433Y-47692733D01*
X40762766Y-47777400D01*
X40720433Y-47862066D01*
X40085433Y-46930733D02*
X40085433Y-46761400D01*
X40127766Y-46676733D01*
X40170100Y-46634400D01*
X40297100Y-46549733D01*
X40466433Y-46507400D01*
X40805100Y-46507400D01*
X40889766Y-46549733D01*
X40932100Y-46592066D01*
X40974433Y-46676733D01*
X40974433Y-46846066D01*
X40932100Y-46930733D01*
X40889766Y-46973066D01*
X40805100Y-47015400D01*
X40593433Y-47015400D01*
X40508766Y-46973066D01*
X40466433Y-46930733D01*
X40424100Y-46846066D01*
X40424100Y-46676733D01*
X40466433Y-46592066D01*
X40508766Y-46549733D01*
X40593433Y-46507400D01*
X40424100Y-46126399D02*
X40424100Y-45449066D01*
X40974433Y-44856399D02*
X40974433Y-44771733D01*
X40932100Y-44687066D01*
X40889766Y-44644733D01*
X40805100Y-44602399D01*
X40635766Y-44560066D01*
X40424100Y-44560066D01*
X40254766Y-44602399D01*
X40170100Y-44644733D01*
X40127766Y-44687066D01*
X40085433Y-44771733D01*
X40085433Y-44856399D01*
X40127766Y-44941066D01*
X40170100Y-44983399D01*
X40254766Y-45025733D01*
X40424100Y-45068066D01*
X40635766Y-45068066D01*
X40805100Y-45025733D01*
X40889766Y-44983399D01*
X40932100Y-44941066D01*
X40974433Y-44856399D01*
X40974433Y-43755733D02*
X40974433Y-44179066D01*
X40551100Y-44221399D01*
X40593433Y-44179066D01*
X40635766Y-44094399D01*
X40635766Y-43882733D01*
X40593433Y-43798066D01*
X40551100Y-43755733D01*
X40466433Y-43713399D01*
X40254766Y-43713399D01*
X40170100Y-43755733D01*
X40127766Y-43798066D01*
X40085433Y-43882733D01*
X40085433Y-44094399D01*
X40127766Y-44179066D01*
X40170100Y-44221399D01*
X40424100Y-43332399D02*
X40424100Y-42655066D01*
X40974433Y-42062399D02*
X40974433Y-41977733D01*
X40932100Y-41893066D01*
X40889766Y-41850733D01*
X40805100Y-41808399D01*
X40635766Y-41766066D01*
X40424100Y-41766066D01*
X40254766Y-41808399D01*
X40170100Y-41850733D01*
X40127766Y-41893066D01*
X40085433Y-41977733D01*
X40085433Y-42062399D01*
X40127766Y-42147066D01*
X40170100Y-42189399D01*
X40254766Y-42231733D01*
X40424100Y-42274066D01*
X40635766Y-42274066D01*
X40805100Y-42231733D01*
X40889766Y-42189399D01*
X40932100Y-42147066D01*
X40974433Y-42062399D01*
X40974433Y-41469733D02*
X40974433Y-40919399D01*
X40635766Y-41215733D01*
X40635766Y-41088733D01*
X40593433Y-41004066D01*
X40551100Y-40961733D01*
X40466433Y-40919399D01*
X40254766Y-40919399D01*
X40170100Y-40961733D01*
X40127766Y-41004066D01*
X40085433Y-41088733D01*
X40085433Y-41342733D01*
X40127766Y-41427399D01*
X40170100Y-41469733D01*
D14*
G04 #@! TO.C,C14*
X46746760Y-53387560D02*
X46746760Y-54887560D01*
X43646760Y-53387560D02*
X46746760Y-53387560D01*
X43646760Y-54887560D02*
X43646760Y-53387560D01*
X46746760Y-54887560D02*
X43646760Y-54887560D01*
G04 #@! TO.C,U2*
X52179460Y-53210280D02*
X52179460Y-54610280D01*
X47079460Y-53210280D02*
X47079460Y-49060280D01*
X52229460Y-53210280D02*
X52229460Y-49060280D01*
X47079460Y-53210280D02*
X47224460Y-53210280D01*
X47079460Y-49060280D02*
X47224460Y-49060280D01*
X52229460Y-49060280D02*
X52084460Y-49060280D01*
X52229460Y-53210280D02*
X52179460Y-53210280D01*
G04 #@! TO.C,D1*
X47343060Y-36913820D02*
X47343060Y-38635940D01*
X47078500Y-39382500D02*
X47078500Y-36132500D01*
X53428500Y-39432500D02*
X47073820Y-39433500D01*
X53428500Y-36182500D02*
X53428500Y-39432500D01*
X47078500Y-36132500D02*
X53428500Y-36182500D01*
G04 #@! TO.C,C19*
X44241000Y-41007000D02*
X44241000Y-41807000D01*
X43841000Y-41407000D02*
X44641000Y-41407000D01*
X45741000Y-39707000D02*
X52141000Y-39707000D01*
X45041000Y-40407000D02*
X45741000Y-39707000D01*
X45041000Y-46107000D02*
X45041000Y-40407000D01*
X45741000Y-46807000D02*
X45041000Y-46107000D01*
X52141000Y-46807000D02*
X45741000Y-46807000D01*
X52141000Y-39807000D02*
X52141000Y-46807000D01*
G04 #@! TO.C,P9*
X37540700Y-23521900D02*
X39040700Y-28021900D01*
X36040700Y-28021900D02*
X37540700Y-23521900D01*
X29540700Y-23521900D02*
X31040700Y-28021900D01*
X28040700Y-28021900D02*
X29540700Y-23521900D01*
X26290700Y-22771900D02*
X26290700Y-36021900D01*
X25540700Y-22771900D02*
X26290700Y-22771900D01*
X25540700Y-20771900D02*
X25540700Y-22771900D01*
X41540700Y-20771900D02*
X25540700Y-20771900D01*
X41540700Y-22771900D02*
X41540700Y-20771900D01*
X40790700Y-22771900D02*
X41540700Y-22771900D01*
X40790700Y-36021900D02*
X40790700Y-22771900D01*
X26290700Y-36021900D02*
X40790700Y-36021900D01*
G04 #@! TO.C,C16*
X52711920Y-45114880D02*
X54211920Y-45114880D01*
X52711920Y-48214880D02*
X52711920Y-45114880D01*
X54211920Y-48214880D02*
X52711920Y-48214880D01*
X54211920Y-45114880D02*
X54211920Y-48214880D01*
G04 #@! TO.C,C13*
X48970600Y-57143080D02*
X48970600Y-55643080D01*
X52070600Y-57143080D02*
X48970600Y-57143080D01*
X52070600Y-55643080D02*
X52070600Y-57143080D01*
X48970600Y-55643080D02*
X52070600Y-55643080D01*
G04 #@! TO.C,C12*
X52630640Y-49974880D02*
X54130640Y-49974880D01*
X52630640Y-53074880D02*
X52630640Y-49974880D01*
X54130640Y-53074880D02*
X52630640Y-53074880D01*
X54130640Y-49974880D02*
X54130640Y-53074880D01*
G04 #@! TO.C,C17*
X44878560Y-47944440D02*
X46378560Y-47944440D01*
X44878560Y-51044440D02*
X44878560Y-47944440D01*
X46378560Y-51044440D02*
X44878560Y-51044440D01*
X46378560Y-47944440D02*
X46378560Y-51044440D01*
G04 #@! TO.C,R9*
X46121920Y-51431760D02*
X46121920Y-52931760D01*
X43021920Y-51431760D02*
X46121920Y-51431760D01*
X43021920Y-52931760D02*
X43021920Y-51431760D01*
X46121920Y-52931760D02*
X43021920Y-52931760D01*
G04 #@! TO.C,L2*
X41764960Y-55449160D02*
G75*
G03X41764960Y-55449160I-200000J0D01*
G01*
X41964960Y-55249160D02*
X47564960Y-55249160D01*
X41964960Y-60849160D02*
X41964960Y-55249160D01*
X47564960Y-60849160D02*
X41964960Y-60849160D01*
X47564960Y-55249160D02*
X47564960Y-60849160D01*
G04 #@! TO.C,R8*
X44260200Y-50958080D02*
X42760200Y-50958080D01*
X44260200Y-47858080D02*
X44260200Y-50958080D01*
X42760200Y-47858080D02*
X44260200Y-47858080D01*
X42760200Y-50958080D02*
X42760200Y-47858080D01*
G04 #@! TO.C,C18*
X47622440Y-63243640D02*
X42222440Y-63243640D01*
X42222440Y-63243640D02*
X42222440Y-61043640D01*
X42222440Y-61043640D02*
X47622440Y-61043640D01*
X47622440Y-61043640D02*
X47622440Y-63193640D01*
G04 #@! TO.C,C15*
X47663080Y-65864920D02*
X42263080Y-65864920D01*
X42263080Y-65864920D02*
X42263080Y-63664920D01*
X42263080Y-63664920D02*
X47663080Y-63664920D01*
X47663080Y-63664920D02*
X47663080Y-65814920D01*
G04 #@! TO.C,C11*
X18128000Y-53586200D02*
X23528000Y-53586200D01*
X23528000Y-53586200D02*
X23528000Y-55786200D01*
X23528000Y-55786200D02*
X18128000Y-55786200D01*
X18128000Y-55786200D02*
X18128000Y-53636200D01*
G04 #@! TO.C,U1*
X21211300Y-42552800D02*
X21211300Y-41152800D01*
X26311300Y-42552800D02*
X26311300Y-46702800D01*
X21161300Y-42552800D02*
X21161300Y-46702800D01*
X26311300Y-42552800D02*
X26166300Y-42552800D01*
X26311300Y-46702800D02*
X26166300Y-46702800D01*
X21161300Y-46702800D02*
X21306300Y-46702800D01*
X21161300Y-42552800D02*
X21211300Y-42552800D01*
G04 #@! TO.C,C5*
X26679888Y-39671023D02*
X25451159Y-40531388D01*
X24901801Y-37131652D02*
X26679888Y-39671023D01*
X23673072Y-37992017D02*
X24901801Y-37131652D01*
X25451159Y-40531388D02*
X23673072Y-37992017D01*
G04 #@! TO.C,R1*
X35494180Y-59719700D02*
X35494180Y-61219700D01*
X32394180Y-59719700D02*
X35494180Y-59719700D01*
X32394180Y-61219700D02*
X32394180Y-59719700D01*
X35494180Y-61219700D02*
X32394180Y-61219700D01*
G04 #@! TO.C,P1*
X36370800Y-39778000D02*
X37070800Y-39778000D01*
X36370800Y-41028000D02*
X36370800Y-39778000D01*
X30770800Y-41028000D02*
X36370800Y-41028000D01*
X30770800Y-39828000D02*
X30770800Y-41028000D01*
X30020800Y-39828000D02*
X30770800Y-39828000D01*
X30020800Y-43728000D02*
X30020800Y-39828000D01*
X30120800Y-43728000D02*
X30020800Y-43728000D01*
X37070800Y-43728000D02*
X30120800Y-43728000D01*
X37070800Y-39828000D02*
X37070800Y-43728000D01*
G04 #@! TO.C,C1*
X26494180Y-65074700D02*
X26494180Y-59674700D01*
X26494180Y-59674700D02*
X28694180Y-59674700D01*
X28694180Y-59674700D02*
X28694180Y-65074700D01*
X28694180Y-65074700D02*
X26544180Y-65074700D01*
G04 #@! TO.C,C2*
X18661200Y-52357000D02*
X18661200Y-46957000D01*
X18661200Y-46957000D02*
X20861200Y-46957000D01*
X20861200Y-46957000D02*
X20861200Y-52357000D01*
X20861200Y-52357000D02*
X18711200Y-52357000D01*
G04 #@! TO.C,Q1*
X31112120Y-55305360D02*
X31112120Y-58405360D01*
X31112120Y-58405360D02*
X28212120Y-58405360D01*
X28212120Y-58405360D02*
X28212120Y-55305360D01*
X28212120Y-55305360D02*
X31112120Y-55305360D01*
X30112120Y-58305360D02*
X30112120Y-57955360D01*
G04 #@! TO.C,Q2*
X35138580Y-64967700D02*
X32038580Y-64967700D01*
X32038580Y-64967700D02*
X32038580Y-62067700D01*
X32038580Y-62067700D02*
X35138580Y-62067700D01*
X35138580Y-62067700D02*
X35138580Y-64967700D01*
X32138580Y-63967700D02*
X32488580Y-63967700D01*
G04 #@! TO.C,Q3*
X34682980Y-55897100D02*
X34682980Y-58997100D01*
X34682980Y-58997100D02*
X31782980Y-58997100D01*
X31782980Y-58997100D02*
X31782980Y-55897100D01*
X31782980Y-55897100D02*
X34682980Y-55897100D01*
X33682980Y-58897100D02*
X33682980Y-58547100D01*
G04 #@! TO.C,R2*
X25848880Y-56163880D02*
X27348880Y-56163880D01*
X25848880Y-59263880D02*
X25848880Y-56163880D01*
X27348880Y-59263880D02*
X25848880Y-59263880D01*
X27348880Y-56163880D02*
X27348880Y-59263880D01*
G04 #@! TO.C,R3*
X36242180Y-61713700D02*
X37742180Y-61713700D01*
X36242180Y-64813700D02*
X36242180Y-61713700D01*
X37742180Y-64813700D02*
X36242180Y-64813700D01*
X37742180Y-61713700D02*
X37742180Y-64813700D01*
G04 #@! TO.C,P8*
X41954900Y-21593600D02*
X41954900Y-22593600D01*
X41954900Y-22593600D02*
X42154900Y-22393600D01*
X41954900Y-22593600D02*
X41754900Y-22393600D01*
X49154900Y-22593600D02*
X49354900Y-22393600D01*
X49154900Y-22593600D02*
X48954900Y-22393600D01*
X49154900Y-21593600D02*
X49154900Y-22593600D01*
X48754900Y-21593600D02*
X42354900Y-21593600D01*
X48754900Y-28393600D02*
X48754900Y-21593600D01*
X42354900Y-28393600D02*
X48754900Y-28393600D01*
X42354900Y-21593600D02*
X42354900Y-28393600D01*
G04 #@! TO.C,C6*
X18026400Y-30040400D02*
X23426400Y-30040400D01*
X23426400Y-30040400D02*
X23426400Y-32240400D01*
X23426400Y-32240400D02*
X18026400Y-32240400D01*
X18026400Y-32240400D02*
X18026400Y-30090400D01*
G04 #@! TO.C,C9*
X18026400Y-27424200D02*
X23426400Y-27424200D01*
X23426400Y-27424200D02*
X23426400Y-29624200D01*
X23426400Y-29624200D02*
X18026400Y-29624200D01*
X18026400Y-29624200D02*
X18026400Y-27474200D01*
G04 #@! TO.C,C10*
X31526280Y-59636600D02*
X31526280Y-65036600D01*
X31526280Y-65036600D02*
X29326280Y-65036600D01*
X29326280Y-65036600D02*
X29326280Y-59636600D01*
X29326280Y-59636600D02*
X31476280Y-59636600D01*
G04 #@! TO.C,L1*
X23297800Y-32547600D02*
G75*
G03X23297800Y-32547600I-200000J0D01*
G01*
X23297800Y-32947600D02*
X23297800Y-38547600D01*
X17697800Y-32947600D02*
X23297800Y-32947600D01*
X17697800Y-38547600D02*
X17697800Y-32947600D01*
X23297800Y-38547600D02*
X17697800Y-38547600D01*
G04 #@! TO.C,R4*
X25222800Y-49567400D02*
X25222800Y-51067400D01*
X22122800Y-49567400D02*
X25222800Y-49567400D01*
X22122800Y-51067400D02*
X22122800Y-49567400D01*
X25222800Y-51067400D02*
X22122800Y-51067400D01*
G04 #@! TO.C,R5*
X27267600Y-51892800D02*
X25767600Y-51892800D01*
X27267600Y-48792800D02*
X27267600Y-51892800D01*
X25767600Y-48792800D02*
X27267600Y-48792800D01*
X25767600Y-51892800D02*
X25767600Y-48792800D01*
G04 #@! TO.C,C3*
X20473100Y-46482600D02*
X18973100Y-46482600D01*
X20473100Y-43382600D02*
X20473100Y-46482600D01*
X18973100Y-43382600D02*
X20473100Y-43382600D01*
X18973100Y-46482600D02*
X18973100Y-43382600D01*
G04 #@! TO.C,C4*
X18960400Y-39369400D02*
X20460400Y-39369400D01*
X18960400Y-42469400D02*
X18960400Y-39369400D01*
X20460400Y-42469400D02*
X18960400Y-42469400D01*
X20460400Y-39369400D02*
X20460400Y-42469400D01*
G04 #@! TO.C,C7*
X22233000Y-53175600D02*
X22233000Y-51675600D01*
X25333000Y-53175600D02*
X22233000Y-53175600D01*
X25333000Y-51675600D02*
X25333000Y-53175600D01*
X22233000Y-51675600D02*
X25333000Y-51675600D01*
G04 #@! TO.C,C8*
X28512200Y-46203200D02*
X27012200Y-46203200D01*
X28512200Y-43103200D02*
X28512200Y-46203200D01*
X27012200Y-43103200D02*
X28512200Y-43103200D01*
X27012200Y-46203200D02*
X27012200Y-43103200D01*
G04 #@! TO.C,R6*
X28537600Y-42405900D02*
X27037600Y-42405900D01*
X28537600Y-39305900D02*
X28537600Y-42405900D01*
X27037600Y-39305900D02*
X28537600Y-39305900D01*
X27037600Y-42405900D02*
X27037600Y-39305900D01*
G04 #@! TO.C,F1*
X50428000Y-35300000D02*
X50428000Y-27900000D01*
X50428000Y-27900000D02*
X54278000Y-27900000D01*
X54278000Y-27900000D02*
X54278000Y-35300000D01*
X54278000Y-35300000D02*
X50428000Y-35300000D01*
G04 #@! TO.C,L3*
X43728000Y-35500000D02*
G75*
G03X43728000Y-35500000I-200000J0D01*
G01*
X43328000Y-35100000D02*
X43328000Y-29500000D01*
X48928000Y-35100000D02*
X43328000Y-35100000D01*
X48928000Y-29500000D02*
X48928000Y-35100000D01*
X43328000Y-29500000D02*
X48928000Y-29500000D01*
G04 #@! TO.C,R10*
X25344720Y-16974120D02*
X25344720Y-18474120D01*
X22244720Y-16974120D02*
X25344720Y-16974120D01*
X22244720Y-18474120D02*
X22244720Y-16974120D01*
X25344720Y-18474120D02*
X22244720Y-18474120D01*
G04 #@! TO.C,C20*
X41617200Y-41631560D02*
X43117200Y-41631560D01*
X41617200Y-44731560D02*
X41617200Y-41631560D01*
X43117200Y-44731560D02*
X41617200Y-44731560D01*
X43117200Y-41631560D02*
X43117200Y-44731560D01*
G04 #@! TO.C,C14*
D15*
X42785148Y-54559971D02*
X42808958Y-54583780D01*
X42880386Y-54607590D01*
X42928005Y-54607590D01*
X42999434Y-54583780D01*
X43047053Y-54536161D01*
X43070862Y-54488542D01*
X43094672Y-54393304D01*
X43094672Y-54321876D01*
X43070862Y-54226638D01*
X43047053Y-54179019D01*
X42999434Y-54131400D01*
X42928005Y-54107590D01*
X42880386Y-54107590D01*
X42808958Y-54131400D01*
X42785148Y-54155209D01*
X42308958Y-54607590D02*
X42594672Y-54607590D01*
X42451815Y-54607590D02*
X42451815Y-54107590D01*
X42499434Y-54179019D01*
X42547053Y-54226638D01*
X42594672Y-54250447D01*
X41880386Y-54274257D02*
X41880386Y-54607590D01*
X41999434Y-54083780D02*
X42118481Y-54440923D01*
X41808958Y-54440923D01*
G04 #@! TO.C,U2*
D14*
X53979984Y-53640740D02*
X53979984Y-54450264D01*
X53932365Y-54545502D01*
X53884746Y-54593121D01*
X53789508Y-54640740D01*
X53599032Y-54640740D01*
X53503794Y-54593121D01*
X53456175Y-54545502D01*
X53408556Y-54450264D01*
X53408556Y-53640740D01*
X52979984Y-53735979D02*
X52932365Y-53688360D01*
X52837127Y-53640740D01*
X52599032Y-53640740D01*
X52503794Y-53688360D01*
X52456175Y-53735979D01*
X52408556Y-53831217D01*
X52408556Y-53926455D01*
X52456175Y-54069312D01*
X53027603Y-54640740D01*
X52408556Y-54640740D01*
G04 #@! TO.C,D1*
D15*
X46774230Y-37034992D02*
X46274230Y-37034992D01*
X46274230Y-37154040D01*
X46298040Y-37225468D01*
X46345659Y-37273087D01*
X46393278Y-37296897D01*
X46488516Y-37320706D01*
X46559944Y-37320706D01*
X46655182Y-37296897D01*
X46702801Y-37273087D01*
X46750420Y-37225468D01*
X46774230Y-37154040D01*
X46774230Y-37034992D01*
X46774230Y-37796897D02*
X46774230Y-37511182D01*
X46774230Y-37654040D02*
X46274230Y-37654040D01*
X46345659Y-37606420D01*
X46393278Y-37558801D01*
X46417087Y-37511182D01*
G04 #@! TO.C,C19*
D16*
X44608251Y-44753411D02*
X44632060Y-44729601D01*
X44655870Y-44658173D01*
X44655870Y-44610554D01*
X44632060Y-44539125D01*
X44584441Y-44491506D01*
X44536822Y-44467697D01*
X44441584Y-44443887D01*
X44370156Y-44443887D01*
X44274918Y-44467697D01*
X44227299Y-44491506D01*
X44179680Y-44539125D01*
X44155870Y-44610554D01*
X44155870Y-44658173D01*
X44179680Y-44729601D01*
X44203489Y-44753411D01*
X44655870Y-45229601D02*
X44655870Y-44943887D01*
X44655870Y-45086744D02*
X44155870Y-45086744D01*
X44227299Y-45039125D01*
X44274918Y-44991506D01*
X44298727Y-44943887D01*
X44655870Y-45467697D02*
X44655870Y-45562935D01*
X44632060Y-45610554D01*
X44608251Y-45634363D01*
X44536822Y-45681982D01*
X44441584Y-45705792D01*
X44251108Y-45705792D01*
X44203489Y-45681982D01*
X44179680Y-45658173D01*
X44155870Y-45610554D01*
X44155870Y-45515316D01*
X44179680Y-45467697D01*
X44203489Y-45443887D01*
X44251108Y-45420078D01*
X44370156Y-45420078D01*
X44417775Y-45443887D01*
X44441584Y-45467697D01*
X44465394Y-45515316D01*
X44465394Y-45610554D01*
X44441584Y-45658173D01*
X44417775Y-45681982D01*
X44370156Y-45705792D01*
G04 #@! TO.C,P9*
D15*
X25269271Y-26214757D02*
X25869271Y-26214757D01*
X25869271Y-25986185D01*
X25840700Y-25929042D01*
X25812128Y-25900471D01*
X25754985Y-25871900D01*
X25669271Y-25871900D01*
X25612128Y-25900471D01*
X25583557Y-25929042D01*
X25554985Y-25986185D01*
X25554985Y-26214757D01*
X25269271Y-25586185D02*
X25269271Y-25471900D01*
X25297842Y-25414757D01*
X25326414Y-25386185D01*
X25412128Y-25329042D01*
X25526414Y-25300471D01*
X25754985Y-25300471D01*
X25812128Y-25329042D01*
X25840700Y-25357614D01*
X25869271Y-25414757D01*
X25869271Y-25529042D01*
X25840700Y-25586185D01*
X25812128Y-25614757D01*
X25754985Y-25643328D01*
X25612128Y-25643328D01*
X25554985Y-25614757D01*
X25526414Y-25586185D01*
X25497842Y-25529042D01*
X25497842Y-25414757D01*
X25526414Y-25357614D01*
X25554985Y-25329042D01*
X25612128Y-25300471D01*
G04 #@! TO.C,C16*
X53514108Y-48931331D02*
X53537918Y-48955140D01*
X53609346Y-48978950D01*
X53656965Y-48978950D01*
X53728394Y-48955140D01*
X53776013Y-48907521D01*
X53799822Y-48859902D01*
X53823632Y-48764664D01*
X53823632Y-48693236D01*
X53799822Y-48597998D01*
X53776013Y-48550379D01*
X53728394Y-48502760D01*
X53656965Y-48478950D01*
X53609346Y-48478950D01*
X53537918Y-48502760D01*
X53514108Y-48526569D01*
X53037918Y-48978950D02*
X53323632Y-48978950D01*
X53180775Y-48978950D02*
X53180775Y-48478950D01*
X53228394Y-48550379D01*
X53276013Y-48597998D01*
X53323632Y-48621807D01*
X52609346Y-48478950D02*
X52704584Y-48478950D01*
X52752203Y-48502760D01*
X52776013Y-48526569D01*
X52823632Y-48597998D01*
X52847441Y-48693236D01*
X52847441Y-48883712D01*
X52823632Y-48931331D01*
X52799822Y-48955140D01*
X52752203Y-48978950D01*
X52656965Y-48978950D01*
X52609346Y-48955140D01*
X52585537Y-48931331D01*
X52561727Y-48883712D01*
X52561727Y-48764664D01*
X52585537Y-48717045D01*
X52609346Y-48693236D01*
X52656965Y-48669426D01*
X52752203Y-48669426D01*
X52799822Y-48693236D01*
X52823632Y-48717045D01*
X52847441Y-48764664D01*
G04 #@! TO.C,C13*
X50847108Y-58115971D02*
X50870918Y-58139780D01*
X50942346Y-58163590D01*
X50989965Y-58163590D01*
X51061394Y-58139780D01*
X51109013Y-58092161D01*
X51132822Y-58044542D01*
X51156632Y-57949304D01*
X51156632Y-57877876D01*
X51132822Y-57782638D01*
X51109013Y-57735019D01*
X51061394Y-57687400D01*
X50989965Y-57663590D01*
X50942346Y-57663590D01*
X50870918Y-57687400D01*
X50847108Y-57711209D01*
X50370918Y-58163590D02*
X50656632Y-58163590D01*
X50513775Y-58163590D02*
X50513775Y-57663590D01*
X50561394Y-57735019D01*
X50609013Y-57782638D01*
X50656632Y-57806447D01*
X50204251Y-57663590D02*
X49894727Y-57663590D01*
X50061394Y-57854066D01*
X49989965Y-57854066D01*
X49942346Y-57877876D01*
X49918537Y-57901685D01*
X49894727Y-57949304D01*
X49894727Y-58068352D01*
X49918537Y-58115971D01*
X49942346Y-58139780D01*
X49989965Y-58163590D01*
X50132822Y-58163590D01*
X50180441Y-58139780D01*
X50204251Y-58115971D01*
G04 #@! TO.C,C12*
X55116231Y-51190751D02*
X55140040Y-51166941D01*
X55163850Y-51095513D01*
X55163850Y-51047894D01*
X55140040Y-50976465D01*
X55092421Y-50928846D01*
X55044802Y-50905037D01*
X54949564Y-50881227D01*
X54878136Y-50881227D01*
X54782898Y-50905037D01*
X54735279Y-50928846D01*
X54687660Y-50976465D01*
X54663850Y-51047894D01*
X54663850Y-51095513D01*
X54687660Y-51166941D01*
X54711469Y-51190751D01*
X55163850Y-51666941D02*
X55163850Y-51381227D01*
X55163850Y-51524084D02*
X54663850Y-51524084D01*
X54735279Y-51476465D01*
X54782898Y-51428846D01*
X54806707Y-51381227D01*
X54711469Y-51857418D02*
X54687660Y-51881227D01*
X54663850Y-51928846D01*
X54663850Y-52047894D01*
X54687660Y-52095513D01*
X54711469Y-52119322D01*
X54759088Y-52143132D01*
X54806707Y-52143132D01*
X54878136Y-52119322D01*
X55163850Y-51833608D01*
X55163850Y-52143132D01*
G04 #@! TO.C,C17*
X45807748Y-47707051D02*
X45831558Y-47730860D01*
X45902986Y-47754670D01*
X45950605Y-47754670D01*
X46022034Y-47730860D01*
X46069653Y-47683241D01*
X46093462Y-47635622D01*
X46117272Y-47540384D01*
X46117272Y-47468956D01*
X46093462Y-47373718D01*
X46069653Y-47326099D01*
X46022034Y-47278480D01*
X45950605Y-47254670D01*
X45902986Y-47254670D01*
X45831558Y-47278480D01*
X45807748Y-47302289D01*
X45331558Y-47754670D02*
X45617272Y-47754670D01*
X45474415Y-47754670D02*
X45474415Y-47254670D01*
X45522034Y-47326099D01*
X45569653Y-47373718D01*
X45617272Y-47397527D01*
X45164891Y-47254670D02*
X44831558Y-47254670D01*
X45045843Y-47754670D01*
G04 #@! TO.C,R9*
X42267653Y-52463830D02*
X42434320Y-52225735D01*
X42553367Y-52463830D02*
X42553367Y-51963830D01*
X42362891Y-51963830D01*
X42315272Y-51987640D01*
X42291462Y-52011449D01*
X42267653Y-52059068D01*
X42267653Y-52130497D01*
X42291462Y-52178116D01*
X42315272Y-52201925D01*
X42362891Y-52225735D01*
X42553367Y-52225735D01*
X42029558Y-52463830D02*
X41934320Y-52463830D01*
X41886700Y-52440020D01*
X41862891Y-52416211D01*
X41815272Y-52344782D01*
X41791462Y-52249544D01*
X41791462Y-52059068D01*
X41815272Y-52011449D01*
X41839081Y-51987640D01*
X41886700Y-51963830D01*
X41981939Y-51963830D01*
X42029558Y-51987640D01*
X42053367Y-52011449D01*
X42077177Y-52059068D01*
X42077177Y-52178116D01*
X42053367Y-52225735D01*
X42029558Y-52249544D01*
X41981939Y-52273354D01*
X41886700Y-52273354D01*
X41839081Y-52249544D01*
X41815272Y-52225735D01*
X41791462Y-52178116D01*
G04 #@! TO.C,L2*
D16*
X41282750Y-59553326D02*
X41282750Y-59315231D01*
X40782750Y-59315231D01*
X40830369Y-59696183D02*
X40806560Y-59719993D01*
X40782750Y-59767612D01*
X40782750Y-59886660D01*
X40806560Y-59934279D01*
X40830369Y-59958088D01*
X40877988Y-59981898D01*
X40925607Y-59981898D01*
X40997036Y-59958088D01*
X41282750Y-59672374D01*
X41282750Y-59981898D01*
G04 #@! TO.C,R8*
D15*
X42052109Y-49466013D02*
X42290204Y-49632680D01*
X42052109Y-49751727D02*
X42552109Y-49751727D01*
X42552109Y-49561251D01*
X42528300Y-49513632D01*
X42504490Y-49489822D01*
X42456871Y-49466013D01*
X42385442Y-49466013D01*
X42337823Y-49489822D01*
X42314014Y-49513632D01*
X42290204Y-49561251D01*
X42290204Y-49751727D01*
X42337823Y-49180299D02*
X42361633Y-49227918D01*
X42385442Y-49251727D01*
X42433061Y-49275537D01*
X42456871Y-49275537D01*
X42504490Y-49251727D01*
X42528300Y-49227918D01*
X42552109Y-49180299D01*
X42552109Y-49085060D01*
X42528300Y-49037441D01*
X42504490Y-49013632D01*
X42456871Y-48989822D01*
X42433061Y-48989822D01*
X42385442Y-49013632D01*
X42361633Y-49037441D01*
X42337823Y-49085060D01*
X42337823Y-49180299D01*
X42314014Y-49227918D01*
X42290204Y-49251727D01*
X42242585Y-49275537D01*
X42147347Y-49275537D01*
X42099728Y-49251727D01*
X42075919Y-49227918D01*
X42052109Y-49180299D01*
X42052109Y-49085060D01*
X42075919Y-49037441D01*
X42099728Y-49013632D01*
X42147347Y-48989822D01*
X42242585Y-48989822D01*
X42290204Y-49013632D01*
X42314014Y-49037441D01*
X42337823Y-49085060D01*
G04 #@! TO.C,C18*
D17*
X49000228Y-61862788D02*
X49024419Y-61838598D01*
X49048609Y-61766026D01*
X49048609Y-61717645D01*
X49024419Y-61645074D01*
X48976038Y-61596693D01*
X48927657Y-61572502D01*
X48830895Y-61548312D01*
X48758323Y-61548312D01*
X48661561Y-61572502D01*
X48613180Y-61596693D01*
X48564800Y-61645074D01*
X48540609Y-61717645D01*
X48540609Y-61766026D01*
X48564800Y-61838598D01*
X48588990Y-61862788D01*
X49048609Y-62346598D02*
X49048609Y-62056312D01*
X49048609Y-62201455D02*
X48540609Y-62201455D01*
X48613180Y-62153074D01*
X48661561Y-62104693D01*
X48685752Y-62056312D01*
X48758323Y-62636883D02*
X48734133Y-62588502D01*
X48709942Y-62564312D01*
X48661561Y-62540121D01*
X48637371Y-62540121D01*
X48588990Y-62564312D01*
X48564800Y-62588502D01*
X48540609Y-62636883D01*
X48540609Y-62733645D01*
X48564800Y-62782026D01*
X48588990Y-62806217D01*
X48637371Y-62830407D01*
X48661561Y-62830407D01*
X48709942Y-62806217D01*
X48734133Y-62782026D01*
X48758323Y-62733645D01*
X48758323Y-62636883D01*
X48782514Y-62588502D01*
X48806704Y-62564312D01*
X48855085Y-62540121D01*
X48951847Y-62540121D01*
X49000228Y-62564312D01*
X49024419Y-62588502D01*
X49048609Y-62636883D01*
X49048609Y-62733645D01*
X49024419Y-62782026D01*
X49000228Y-62806217D01*
X48951847Y-62830407D01*
X48855085Y-62830407D01*
X48806704Y-62806217D01*
X48782514Y-62782026D01*
X48758323Y-62733645D01*
G04 #@! TO.C,C15*
X48659868Y-64153868D02*
X48684059Y-64129678D01*
X48708249Y-64057106D01*
X48708249Y-64008725D01*
X48684059Y-63936154D01*
X48635678Y-63887773D01*
X48587297Y-63863582D01*
X48490535Y-63839392D01*
X48417963Y-63839392D01*
X48321201Y-63863582D01*
X48272820Y-63887773D01*
X48224440Y-63936154D01*
X48200249Y-64008725D01*
X48200249Y-64057106D01*
X48224440Y-64129678D01*
X48248630Y-64153868D01*
X48708249Y-64637678D02*
X48708249Y-64347392D01*
X48708249Y-64492535D02*
X48200249Y-64492535D01*
X48272820Y-64444154D01*
X48321201Y-64395773D01*
X48345392Y-64347392D01*
X48200249Y-65097297D02*
X48200249Y-64855392D01*
X48442154Y-64831201D01*
X48417963Y-64855392D01*
X48393773Y-64903773D01*
X48393773Y-65024725D01*
X48417963Y-65073106D01*
X48442154Y-65097297D01*
X48490535Y-65121487D01*
X48611487Y-65121487D01*
X48659868Y-65097297D01*
X48684059Y-65073106D01*
X48708249Y-65024725D01*
X48708249Y-64903773D01*
X48684059Y-64855392D01*
X48659868Y-64831201D01*
G04 #@! TO.C,C11*
X24705491Y-55528028D02*
X24729681Y-55552219D01*
X24802253Y-55576409D01*
X24850634Y-55576409D01*
X24923205Y-55552219D01*
X24971586Y-55503838D01*
X24995777Y-55455457D01*
X25019967Y-55358695D01*
X25019967Y-55286123D01*
X24995777Y-55189361D01*
X24971586Y-55140980D01*
X24923205Y-55092600D01*
X24850634Y-55068409D01*
X24802253Y-55068409D01*
X24729681Y-55092600D01*
X24705491Y-55116790D01*
X24221681Y-55576409D02*
X24511967Y-55576409D01*
X24366824Y-55576409D02*
X24366824Y-55068409D01*
X24415205Y-55140980D01*
X24463586Y-55189361D01*
X24511967Y-55213552D01*
X23737872Y-55576409D02*
X24028158Y-55576409D01*
X23883015Y-55576409D02*
X23883015Y-55068409D01*
X23931396Y-55140980D01*
X23979777Y-55189361D01*
X24028158Y-55213552D01*
G04 #@! TO.C,U1*
D14*
X27950064Y-46681140D02*
X27950064Y-47490664D01*
X27902445Y-47585902D01*
X27854826Y-47633521D01*
X27759588Y-47681140D01*
X27569112Y-47681140D01*
X27473874Y-47633521D01*
X27426255Y-47585902D01*
X27378636Y-47490664D01*
X27378636Y-46681140D01*
X26378636Y-47681140D02*
X26950064Y-47681140D01*
X26664350Y-47681140D02*
X26664350Y-46681140D01*
X26759588Y-46823998D01*
X26854826Y-46919236D01*
X26950064Y-46966855D01*
G04 #@! TO.C,C5*
D15*
X24176933Y-39633141D02*
X24171086Y-39666301D01*
X24192552Y-39738468D01*
X24219866Y-39777475D01*
X24280339Y-39822330D01*
X24346659Y-39834024D01*
X24399323Y-39826214D01*
X24490994Y-39791092D01*
X24549505Y-39750122D01*
X24613863Y-39675992D01*
X24639214Y-39629175D01*
X24650908Y-39562855D01*
X24629442Y-39490687D01*
X24602128Y-39451680D01*
X24541655Y-39406826D01*
X24508495Y-39400979D01*
X24288027Y-39003097D02*
X24424593Y-39198133D01*
X24243213Y-39354202D01*
X24249060Y-39321042D01*
X24241251Y-39268378D01*
X24172968Y-39170860D01*
X24126151Y-39145510D01*
X24092991Y-39139663D01*
X24040327Y-39147472D01*
X23942809Y-39215755D01*
X23917458Y-39262572D01*
X23911611Y-39295732D01*
X23919421Y-39348396D01*
X23987704Y-39445914D01*
X24034521Y-39471265D01*
X24067681Y-39477112D01*
G04 #@! TO.C,R1*
X36431350Y-60312786D02*
X36193255Y-60146120D01*
X36431350Y-60027072D02*
X35931350Y-60027072D01*
X35931350Y-60217548D01*
X35955160Y-60265167D01*
X35978969Y-60288977D01*
X36026588Y-60312786D01*
X36098017Y-60312786D01*
X36145636Y-60288977D01*
X36169445Y-60265167D01*
X36193255Y-60217548D01*
X36193255Y-60027072D01*
X36431350Y-60788977D02*
X36431350Y-60503262D01*
X36431350Y-60646120D02*
X35931350Y-60646120D01*
X36002779Y-60598500D01*
X36050398Y-60550881D01*
X36074207Y-60503262D01*
G04 #@! TO.C,P1*
D17*
X33945752Y-44507809D02*
X33945752Y-43999809D01*
X33752228Y-43999809D01*
X33703847Y-44024000D01*
X33679657Y-44048190D01*
X33655466Y-44096571D01*
X33655466Y-44169142D01*
X33679657Y-44217523D01*
X33703847Y-44241714D01*
X33752228Y-44265904D01*
X33945752Y-44265904D01*
X33171657Y-44507809D02*
X33461942Y-44507809D01*
X33316800Y-44507809D02*
X33316800Y-43999809D01*
X33365180Y-44072380D01*
X33413561Y-44120761D01*
X33461942Y-44144952D01*
G04 #@! TO.C,C1*
X27397891Y-65860506D02*
X27373700Y-65884697D01*
X27349510Y-65957268D01*
X27349510Y-66005649D01*
X27373700Y-66078220D01*
X27422081Y-66126601D01*
X27470462Y-66150792D01*
X27567224Y-66174982D01*
X27639796Y-66174982D01*
X27736558Y-66150792D01*
X27784939Y-66126601D01*
X27833320Y-66078220D01*
X27857510Y-66005649D01*
X27857510Y-65957268D01*
X27833320Y-65884697D01*
X27809129Y-65860506D01*
X27349510Y-65376697D02*
X27349510Y-65666982D01*
X27349510Y-65521840D02*
X27857510Y-65521840D01*
X27784939Y-65570220D01*
X27736558Y-65618601D01*
X27712367Y-65666982D01*
G04 #@! TO.C,C2*
X17979771Y-49741666D02*
X17955580Y-49765857D01*
X17931390Y-49838428D01*
X17931390Y-49886809D01*
X17955580Y-49959380D01*
X18003961Y-50007761D01*
X18052342Y-50031952D01*
X18149104Y-50056142D01*
X18221676Y-50056142D01*
X18318438Y-50031952D01*
X18366819Y-50007761D01*
X18415200Y-49959380D01*
X18439390Y-49886809D01*
X18439390Y-49838428D01*
X18415200Y-49765857D01*
X18391009Y-49741666D01*
X18391009Y-49548142D02*
X18415200Y-49523952D01*
X18439390Y-49475571D01*
X18439390Y-49354619D01*
X18415200Y-49306238D01*
X18391009Y-49282047D01*
X18342628Y-49257857D01*
X18294247Y-49257857D01*
X18221676Y-49282047D01*
X17931390Y-49572333D01*
X17931390Y-49257857D01*
G04 #@! TO.C,Q1*
D15*
X28035929Y-56557740D02*
X28012120Y-56510121D01*
X27964500Y-56462502D01*
X27893072Y-56391074D01*
X27869262Y-56343455D01*
X27869262Y-56295836D01*
X27988310Y-56319645D02*
X27964500Y-56272026D01*
X27916881Y-56224407D01*
X27821643Y-56200598D01*
X27654977Y-56200598D01*
X27559739Y-56224407D01*
X27512120Y-56272026D01*
X27488310Y-56319645D01*
X27488310Y-56414883D01*
X27512120Y-56462502D01*
X27559739Y-56510121D01*
X27654977Y-56533931D01*
X27821643Y-56533931D01*
X27916881Y-56510121D01*
X27964500Y-56462502D01*
X27988310Y-56414883D01*
X27988310Y-56319645D01*
X27988310Y-57010121D02*
X27988310Y-56724407D01*
X27988310Y-56867264D02*
X27488310Y-56867264D01*
X27559739Y-56819645D01*
X27607358Y-56772026D01*
X27631167Y-56724407D01*
G04 #@! TO.C,Q2*
X33707699Y-66120769D02*
X33755318Y-66096960D01*
X33802937Y-66049340D01*
X33874365Y-65977912D01*
X33921984Y-65954102D01*
X33969603Y-65954102D01*
X33945794Y-66073150D02*
X33993413Y-66049340D01*
X34041032Y-66001721D01*
X34064841Y-65906483D01*
X34064841Y-65739817D01*
X34041032Y-65644579D01*
X33993413Y-65596960D01*
X33945794Y-65573150D01*
X33850556Y-65573150D01*
X33802937Y-65596960D01*
X33755318Y-65644579D01*
X33731508Y-65739817D01*
X33731508Y-65906483D01*
X33755318Y-66001721D01*
X33802937Y-66049340D01*
X33850556Y-66073150D01*
X33945794Y-66073150D01*
X33541032Y-65620769D02*
X33517222Y-65596960D01*
X33469603Y-65573150D01*
X33350556Y-65573150D01*
X33302937Y-65596960D01*
X33279127Y-65620769D01*
X33255318Y-65668388D01*
X33255318Y-65716007D01*
X33279127Y-65787436D01*
X33564841Y-66073150D01*
X33255318Y-66073150D01*
G04 #@! TO.C,Q3*
X35503609Y-57234460D02*
X35479800Y-57186841D01*
X35432180Y-57139222D01*
X35360752Y-57067794D01*
X35336942Y-57020175D01*
X35336942Y-56972556D01*
X35455990Y-56996365D02*
X35432180Y-56948746D01*
X35384561Y-56901127D01*
X35289323Y-56877318D01*
X35122657Y-56877318D01*
X35027419Y-56901127D01*
X34979800Y-56948746D01*
X34955990Y-56996365D01*
X34955990Y-57091603D01*
X34979800Y-57139222D01*
X35027419Y-57186841D01*
X35122657Y-57210651D01*
X35289323Y-57210651D01*
X35384561Y-57186841D01*
X35432180Y-57139222D01*
X35455990Y-57091603D01*
X35455990Y-56996365D01*
X34955990Y-57377318D02*
X34955990Y-57686841D01*
X35146466Y-57520175D01*
X35146466Y-57591603D01*
X35170276Y-57639222D01*
X35194085Y-57663032D01*
X35241704Y-57686841D01*
X35360752Y-57686841D01*
X35408371Y-57663032D01*
X35432180Y-57639222D01*
X35455990Y-57591603D01*
X35455990Y-57448746D01*
X35432180Y-57401127D01*
X35408371Y-57377318D01*
G04 #@! TO.C,R2*
X25646890Y-57668726D02*
X25408795Y-57502060D01*
X25646890Y-57383012D02*
X25146890Y-57383012D01*
X25146890Y-57573488D01*
X25170700Y-57621107D01*
X25194509Y-57644917D01*
X25242128Y-57668726D01*
X25313557Y-57668726D01*
X25361176Y-57644917D01*
X25384985Y-57621107D01*
X25408795Y-57573488D01*
X25408795Y-57383012D01*
X25194509Y-57859202D02*
X25170700Y-57883012D01*
X25146890Y-57930631D01*
X25146890Y-58049679D01*
X25170700Y-58097298D01*
X25194509Y-58121107D01*
X25242128Y-58144917D01*
X25289747Y-58144917D01*
X25361176Y-58121107D01*
X25646890Y-57835393D01*
X25646890Y-58144917D01*
G04 #@! TO.C,R3*
X38318370Y-63180366D02*
X38080275Y-63013700D01*
X38318370Y-62894652D02*
X37818370Y-62894652D01*
X37818370Y-63085128D01*
X37842180Y-63132747D01*
X37865989Y-63156557D01*
X37913608Y-63180366D01*
X37985037Y-63180366D01*
X38032656Y-63156557D01*
X38056465Y-63132747D01*
X38080275Y-63085128D01*
X38080275Y-62894652D01*
X37818370Y-63347033D02*
X37818370Y-63656557D01*
X38008846Y-63489890D01*
X38008846Y-63561319D01*
X38032656Y-63608938D01*
X38056465Y-63632747D01*
X38104084Y-63656557D01*
X38223132Y-63656557D01*
X38270751Y-63632747D01*
X38294560Y-63608938D01*
X38318370Y-63561319D01*
X38318370Y-63418461D01*
X38294560Y-63370842D01*
X38270751Y-63347033D01*
G04 #@! TO.C,P8*
X46797857Y-29227428D02*
X46797857Y-28627428D01*
X46569285Y-28627428D01*
X46512142Y-28656000D01*
X46483571Y-28684571D01*
X46455000Y-28741714D01*
X46455000Y-28827428D01*
X46483571Y-28884571D01*
X46512142Y-28913142D01*
X46569285Y-28941714D01*
X46797857Y-28941714D01*
X46112142Y-28884571D02*
X46169285Y-28856000D01*
X46197857Y-28827428D01*
X46226428Y-28770285D01*
X46226428Y-28741714D01*
X46197857Y-28684571D01*
X46169285Y-28656000D01*
X46112142Y-28627428D01*
X45997857Y-28627428D01*
X45940714Y-28656000D01*
X45912142Y-28684571D01*
X45883571Y-28741714D01*
X45883571Y-28770285D01*
X45912142Y-28827428D01*
X45940714Y-28856000D01*
X45997857Y-28884571D01*
X46112142Y-28884571D01*
X46169285Y-28913142D01*
X46197857Y-28941714D01*
X46226428Y-28998857D01*
X46226428Y-29113142D01*
X46197857Y-29170285D01*
X46169285Y-29198857D01*
X46112142Y-29227428D01*
X45997857Y-29227428D01*
X45940714Y-29198857D01*
X45912142Y-29170285D01*
X45883571Y-29113142D01*
X45883571Y-28998857D01*
X45912142Y-28941714D01*
X45940714Y-28913142D01*
X45997857Y-28884571D01*
G04 #@! TO.C,C6*
D17*
X17417626Y-32226068D02*
X17441817Y-32250259D01*
X17514388Y-32274449D01*
X17562769Y-32274449D01*
X17635340Y-32250259D01*
X17683721Y-32201878D01*
X17707912Y-32153497D01*
X17732102Y-32056735D01*
X17732102Y-31984163D01*
X17707912Y-31887401D01*
X17683721Y-31839020D01*
X17635340Y-31790640D01*
X17562769Y-31766449D01*
X17514388Y-31766449D01*
X17441817Y-31790640D01*
X17417626Y-31814830D01*
X16982198Y-31766449D02*
X17078960Y-31766449D01*
X17127340Y-31790640D01*
X17151531Y-31814830D01*
X17199912Y-31887401D01*
X17224102Y-31984163D01*
X17224102Y-32177687D01*
X17199912Y-32226068D01*
X17175721Y-32250259D01*
X17127340Y-32274449D01*
X17030579Y-32274449D01*
X16982198Y-32250259D01*
X16958007Y-32226068D01*
X16933817Y-32177687D01*
X16933817Y-32056735D01*
X16958007Y-32008354D01*
X16982198Y-31984163D01*
X17030579Y-31959973D01*
X17127340Y-31959973D01*
X17175721Y-31984163D01*
X17199912Y-32008354D01*
X17224102Y-32056735D01*
G04 #@! TO.C,C9*
X22782106Y-30341388D02*
X22806297Y-30365579D01*
X22878868Y-30389769D01*
X22927249Y-30389769D01*
X22999820Y-30365579D01*
X23048201Y-30317198D01*
X23072392Y-30268817D01*
X23096582Y-30172055D01*
X23096582Y-30099483D01*
X23072392Y-30002721D01*
X23048201Y-29954340D01*
X22999820Y-29905960D01*
X22927249Y-29881769D01*
X22878868Y-29881769D01*
X22806297Y-29905960D01*
X22782106Y-29930150D01*
X22540201Y-30389769D02*
X22443440Y-30389769D01*
X22395059Y-30365579D01*
X22370868Y-30341388D01*
X22322487Y-30268817D01*
X22298297Y-30172055D01*
X22298297Y-29978531D01*
X22322487Y-29930150D01*
X22346678Y-29905960D01*
X22395059Y-29881769D01*
X22491820Y-29881769D01*
X22540201Y-29905960D01*
X22564392Y-29930150D01*
X22588582Y-29978531D01*
X22588582Y-30099483D01*
X22564392Y-30147864D01*
X22540201Y-30172055D01*
X22491820Y-30196245D01*
X22395059Y-30196245D01*
X22346678Y-30172055D01*
X22322487Y-30147864D01*
X22298297Y-30099483D01*
G04 #@! TO.C,C10*
D18*
X30405614Y-65569374D02*
X30426176Y-65548812D01*
X30446738Y-65487126D01*
X30446738Y-65446002D01*
X30426176Y-65384317D01*
X30385052Y-65343193D01*
X30343928Y-65322631D01*
X30261680Y-65302069D01*
X30199995Y-65302069D01*
X30117747Y-65322631D01*
X30076623Y-65343193D01*
X30035500Y-65384317D01*
X30014938Y-65446002D01*
X30014938Y-65487126D01*
X30035500Y-65548812D01*
X30056061Y-65569374D01*
X30446738Y-65980612D02*
X30446738Y-65733869D01*
X30446738Y-65857240D02*
X30014938Y-65857240D01*
X30076623Y-65816117D01*
X30117747Y-65774993D01*
X30138309Y-65733869D01*
X30014938Y-66247917D02*
X30014938Y-66289040D01*
X30035500Y-66330164D01*
X30056061Y-66350726D01*
X30097185Y-66371288D01*
X30179433Y-66391850D01*
X30282242Y-66391850D01*
X30364490Y-66371288D01*
X30405614Y-66350726D01*
X30426176Y-66330164D01*
X30446738Y-66289040D01*
X30446738Y-66247917D01*
X30426176Y-66206793D01*
X30405614Y-66186231D01*
X30364490Y-66165669D01*
X30282242Y-66145107D01*
X30179433Y-66145107D01*
X30097185Y-66165669D01*
X30056061Y-66186231D01*
X30035500Y-66206793D01*
X30014938Y-66247917D01*
G04 #@! TO.C,L1*
D16*
X23984733Y-34490790D02*
X24222828Y-34490790D01*
X24222828Y-33990790D01*
X23556161Y-34490790D02*
X23841876Y-34490790D01*
X23699019Y-34490790D02*
X23699019Y-33990790D01*
X23746638Y-34062219D01*
X23794257Y-34109838D01*
X23841876Y-34133647D01*
G04 #@! TO.C,R4*
D15*
X25153133Y-49187230D02*
X25319800Y-48949135D01*
X25438847Y-49187230D02*
X25438847Y-48687230D01*
X25248371Y-48687230D01*
X25200752Y-48711040D01*
X25176942Y-48734849D01*
X25153133Y-48782468D01*
X25153133Y-48853897D01*
X25176942Y-48901516D01*
X25200752Y-48925325D01*
X25248371Y-48949135D01*
X25438847Y-48949135D01*
X24724561Y-48853897D02*
X24724561Y-49187230D01*
X24843609Y-48663420D02*
X24962657Y-49020563D01*
X24653133Y-49020563D01*
G04 #@! TO.C,R5*
X26824809Y-52915333D02*
X27062904Y-53082000D01*
X26824809Y-53201047D02*
X27324809Y-53201047D01*
X27324809Y-53010571D01*
X27301000Y-52962952D01*
X27277190Y-52939142D01*
X27229571Y-52915333D01*
X27158142Y-52915333D01*
X27110523Y-52939142D01*
X27086714Y-52962952D01*
X27062904Y-53010571D01*
X27062904Y-53201047D01*
X27324809Y-52462952D02*
X27324809Y-52701047D01*
X27086714Y-52724857D01*
X27110523Y-52701047D01*
X27134333Y-52653428D01*
X27134333Y-52534380D01*
X27110523Y-52486761D01*
X27086714Y-52462952D01*
X27039095Y-52439142D01*
X26920047Y-52439142D01*
X26872428Y-52462952D01*
X26848619Y-52486761D01*
X26824809Y-52534380D01*
X26824809Y-52653428D01*
X26848619Y-52701047D01*
X26872428Y-52724857D01*
G04 #@! TO.C,C3*
X18261828Y-45028633D02*
X18238019Y-45052442D01*
X18214209Y-45123871D01*
X18214209Y-45171490D01*
X18238019Y-45242919D01*
X18285638Y-45290538D01*
X18333257Y-45314347D01*
X18428495Y-45338157D01*
X18499923Y-45338157D01*
X18595161Y-45314347D01*
X18642780Y-45290538D01*
X18690400Y-45242919D01*
X18714209Y-45171490D01*
X18714209Y-45123871D01*
X18690400Y-45052442D01*
X18666590Y-45028633D01*
X18714209Y-44861966D02*
X18714209Y-44552442D01*
X18523733Y-44719109D01*
X18523733Y-44647680D01*
X18499923Y-44600061D01*
X18476114Y-44576252D01*
X18428495Y-44552442D01*
X18309447Y-44552442D01*
X18261828Y-44576252D01*
X18238019Y-44600061D01*
X18214209Y-44647680D01*
X18214209Y-44790538D01*
X18238019Y-44838157D01*
X18261828Y-44861966D01*
G04 #@! TO.C,C4*
X18631671Y-41712366D02*
X18655480Y-41688557D01*
X18679290Y-41617128D01*
X18679290Y-41569509D01*
X18655480Y-41498080D01*
X18607861Y-41450461D01*
X18560242Y-41426652D01*
X18465004Y-41402842D01*
X18393576Y-41402842D01*
X18298338Y-41426652D01*
X18250719Y-41450461D01*
X18203100Y-41498080D01*
X18179290Y-41569509D01*
X18179290Y-41617128D01*
X18203100Y-41688557D01*
X18226909Y-41712366D01*
X18345957Y-42140938D02*
X18679290Y-42140938D01*
X18155480Y-42021890D02*
X18512623Y-41902842D01*
X18512623Y-42212366D01*
G04 #@! TO.C,C7*
X26016733Y-53452531D02*
X26040542Y-53476340D01*
X26111971Y-53500150D01*
X26159590Y-53500150D01*
X26231019Y-53476340D01*
X26278638Y-53428721D01*
X26302447Y-53381102D01*
X26326257Y-53285864D01*
X26326257Y-53214436D01*
X26302447Y-53119198D01*
X26278638Y-53071579D01*
X26231019Y-53023960D01*
X26159590Y-53000150D01*
X26111971Y-53000150D01*
X26040542Y-53023960D01*
X26016733Y-53047769D01*
X25850066Y-53000150D02*
X25516733Y-53000150D01*
X25731019Y-53500150D01*
G04 #@! TO.C,C8*
X28879028Y-44495233D02*
X28855219Y-44519042D01*
X28831409Y-44590471D01*
X28831409Y-44638090D01*
X28855219Y-44709519D01*
X28902838Y-44757138D01*
X28950457Y-44780947D01*
X29045695Y-44804757D01*
X29117123Y-44804757D01*
X29212361Y-44780947D01*
X29259980Y-44757138D01*
X29307600Y-44709519D01*
X29331409Y-44638090D01*
X29331409Y-44590471D01*
X29307600Y-44519042D01*
X29283790Y-44495233D01*
X29117123Y-44209519D02*
X29140933Y-44257138D01*
X29164742Y-44280947D01*
X29212361Y-44304757D01*
X29236171Y-44304757D01*
X29283790Y-44280947D01*
X29307600Y-44257138D01*
X29331409Y-44209519D01*
X29331409Y-44114280D01*
X29307600Y-44066661D01*
X29283790Y-44042852D01*
X29236171Y-44019042D01*
X29212361Y-44019042D01*
X29164742Y-44042852D01*
X29140933Y-44066661D01*
X29117123Y-44114280D01*
X29117123Y-44209519D01*
X29093314Y-44257138D01*
X29069504Y-44280947D01*
X29021885Y-44304757D01*
X28926647Y-44304757D01*
X28879028Y-44280947D01*
X28855219Y-44257138D01*
X28831409Y-44209519D01*
X28831409Y-44114280D01*
X28855219Y-44066661D01*
X28879028Y-44042852D01*
X28926647Y-44019042D01*
X29021885Y-44019042D01*
X29069504Y-44042852D01*
X29093314Y-44066661D01*
X29117123Y-44114280D01*
G04 #@! TO.C,R6*
X26316809Y-40926533D02*
X26554904Y-41093200D01*
X26316809Y-41212247D02*
X26816809Y-41212247D01*
X26816809Y-41021771D01*
X26793000Y-40974152D01*
X26769190Y-40950342D01*
X26721571Y-40926533D01*
X26650142Y-40926533D01*
X26602523Y-40950342D01*
X26578714Y-40974152D01*
X26554904Y-41021771D01*
X26554904Y-41212247D01*
X26816809Y-40497961D02*
X26816809Y-40593200D01*
X26793000Y-40640819D01*
X26769190Y-40664628D01*
X26697761Y-40712247D01*
X26602523Y-40736057D01*
X26412047Y-40736057D01*
X26364428Y-40712247D01*
X26340619Y-40688438D01*
X26316809Y-40640819D01*
X26316809Y-40545580D01*
X26340619Y-40497961D01*
X26364428Y-40474152D01*
X26412047Y-40450342D01*
X26531095Y-40450342D01*
X26578714Y-40474152D01*
X26602523Y-40497961D01*
X26626333Y-40545580D01*
X26626333Y-40640819D01*
X26602523Y-40688438D01*
X26578714Y-40712247D01*
X26531095Y-40736057D01*
G04 #@! TO.C,F1*
D17*
X49714285Y-31919333D02*
X49714285Y-32088666D01*
X49448190Y-32088666D02*
X49956190Y-32088666D01*
X49956190Y-31846761D01*
X49448190Y-31387142D02*
X49448190Y-31677428D01*
X49448190Y-31532285D02*
X49956190Y-31532285D01*
X49883619Y-31580666D01*
X49835238Y-31629047D01*
X49811047Y-31677428D01*
G04 #@! TO.C,L3*
D16*
X42795973Y-30172790D02*
X43034068Y-30172790D01*
X43034068Y-29672790D01*
X42676925Y-29672790D02*
X42367401Y-29672790D01*
X42534068Y-29863266D01*
X42462640Y-29863266D01*
X42415020Y-29887076D01*
X42391211Y-29910885D01*
X42367401Y-29958504D01*
X42367401Y-30077552D01*
X42391211Y-30125171D01*
X42415020Y-30148980D01*
X42462640Y-30172790D01*
X42605497Y-30172790D01*
X42653116Y-30148980D01*
X42676925Y-30125171D01*
G04 #@! TO.C,R10*
D15*
X24116148Y-19050310D02*
X24282815Y-18812215D01*
X24401862Y-19050310D02*
X24401862Y-18550310D01*
X24211386Y-18550310D01*
X24163767Y-18574120D01*
X24139958Y-18597929D01*
X24116148Y-18645548D01*
X24116148Y-18716977D01*
X24139958Y-18764596D01*
X24163767Y-18788405D01*
X24211386Y-18812215D01*
X24401862Y-18812215D01*
X23639958Y-19050310D02*
X23925672Y-19050310D01*
X23782815Y-19050310D02*
X23782815Y-18550310D01*
X23830434Y-18621739D01*
X23878053Y-18669358D01*
X23925672Y-18693167D01*
X23330434Y-18550310D02*
X23282815Y-18550310D01*
X23235196Y-18574120D01*
X23211386Y-18597929D01*
X23187577Y-18645548D01*
X23163767Y-18740786D01*
X23163767Y-18859834D01*
X23187577Y-18955072D01*
X23211386Y-19002691D01*
X23235196Y-19026500D01*
X23282815Y-19050310D01*
X23330434Y-19050310D01*
X23378053Y-19026500D01*
X23401862Y-19002691D01*
X23425672Y-18955072D01*
X23449481Y-18859834D01*
X23449481Y-18740786D01*
X23425672Y-18645548D01*
X23401862Y-18597929D01*
X23378053Y-18574120D01*
X23330434Y-18550310D01*
G04 #@! TO.C,C20*
X43645771Y-42860131D02*
X43669580Y-42836321D01*
X43693390Y-42764893D01*
X43693390Y-42717274D01*
X43669580Y-42645845D01*
X43621961Y-42598226D01*
X43574342Y-42574417D01*
X43479104Y-42550607D01*
X43407676Y-42550607D01*
X43312438Y-42574417D01*
X43264819Y-42598226D01*
X43217200Y-42645845D01*
X43193390Y-42717274D01*
X43193390Y-42764893D01*
X43217200Y-42836321D01*
X43241009Y-42860131D01*
X43241009Y-43050607D02*
X43217200Y-43074417D01*
X43193390Y-43122036D01*
X43193390Y-43241083D01*
X43217200Y-43288702D01*
X43241009Y-43312512D01*
X43288628Y-43336321D01*
X43336247Y-43336321D01*
X43407676Y-43312512D01*
X43693390Y-43026798D01*
X43693390Y-43336321D01*
X43193390Y-43645845D02*
X43193390Y-43693464D01*
X43217200Y-43741083D01*
X43241009Y-43764893D01*
X43288628Y-43788702D01*
X43383866Y-43812512D01*
X43502914Y-43812512D01*
X43598152Y-43788702D01*
X43645771Y-43764893D01*
X43669580Y-43741083D01*
X43693390Y-43693464D01*
X43693390Y-43645845D01*
X43669580Y-43598226D01*
X43645771Y-43574417D01*
X43598152Y-43550607D01*
X43502914Y-43526798D01*
X43383866Y-43526798D01*
X43288628Y-43550607D01*
X43241009Y-43574417D01*
X43217200Y-43598226D01*
X43193390Y-43645845D01*
G04 #@! TD*
M02*
