G04 #@! TF.GenerationSoftware,KiCad,Pcbnew,(5.0.2)-1*
G04 #@! TF.CreationDate,2019-05-03T13:45:30-04:00*
G04 #@! TF.ProjectId,PowConnV1,506f7743-6f6e-46e5-9631-2e6b69636164,V2*
G04 #@! TF.SameCoordinates,Original*
G04 #@! TF.FileFunction,Soldermask,Top*
G04 #@! TF.FilePolarity,Negative*
%FSLAX46Y46*%
G04 Gerber Fmt 4.6, Leading zero omitted, Abs format (unit mm)*
G04 Created by KiCad (PCBNEW (5.0.2)-1) date 5/3/2019 1:45:30 PM*
%MOMM*%
%LPD*%
G01*
G04 APERTURE LIST*
%ADD10C,0.150000*%
G04 APERTURE END LIST*
D10*
G36*
X40498088Y-112649182D02*
X40634576Y-112705717D01*
X40757418Y-112787798D01*
X40861882Y-112892262D01*
X40943963Y-113015104D01*
X41000498Y-113151592D01*
X41029320Y-113296491D01*
X41029320Y-113444229D01*
X41000498Y-113589128D01*
X40943963Y-113725616D01*
X40861882Y-113848458D01*
X40757418Y-113952922D01*
X40634576Y-114035003D01*
X40498088Y-114091538D01*
X40353189Y-114120360D01*
X40205451Y-114120360D01*
X40060552Y-114091538D01*
X39924064Y-114035003D01*
X39801222Y-113952922D01*
X39696758Y-113848458D01*
X39614677Y-113725616D01*
X39558142Y-113589128D01*
X39529320Y-113444229D01*
X39529320Y-113296491D01*
X39558142Y-113151592D01*
X39614677Y-113015104D01*
X39696758Y-112892262D01*
X39801222Y-112787798D01*
X39924064Y-112705717D01*
X40060552Y-112649182D01*
X40205451Y-112620360D01*
X40353189Y-112620360D01*
X40498088Y-112649182D01*
X40498088Y-112649182D01*
G37*
G36*
X50556488Y-111628102D02*
X50692976Y-111684637D01*
X50815818Y-111766718D01*
X50920282Y-111871182D01*
X51002363Y-111994024D01*
X51058898Y-112130512D01*
X51087720Y-112275411D01*
X51087720Y-112423149D01*
X51058898Y-112568048D01*
X51002363Y-112704536D01*
X50920282Y-112827378D01*
X50815818Y-112931842D01*
X50692976Y-113013923D01*
X50556488Y-113070458D01*
X50411589Y-113099280D01*
X50263851Y-113099280D01*
X50118952Y-113070458D01*
X49982464Y-113013923D01*
X49859622Y-112931842D01*
X49755158Y-112827378D01*
X49673077Y-112704536D01*
X49616542Y-112568048D01*
X49587720Y-112423149D01*
X49587720Y-112275411D01*
X49616542Y-112130512D01*
X49673077Y-111994024D01*
X49755158Y-111871182D01*
X49859622Y-111766718D01*
X49982464Y-111684637D01*
X50118952Y-111628102D01*
X50263851Y-111599280D01*
X50411589Y-111599280D01*
X50556488Y-111628102D01*
X50556488Y-111628102D01*
G37*
M02*
