G04 #@! TF.GenerationSoftware,KiCad,Pcbnew,(5.0.2)-1*
G04 #@! TF.CreationDate,2019-05-03T13:45:30-04:00*
G04 #@! TF.ProjectId,PowConnV1,506f7743-6f6e-46e5-9631-2e6b69636164,V2*
G04 #@! TF.SameCoordinates,Original*
G04 #@! TF.FileFunction,Copper,L1,Top*
G04 #@! TF.FilePolarity,Positive*
%FSLAX46Y46*%
G04 Gerber Fmt 4.6, Leading zero omitted, Abs format (unit mm)*
G04 Created by KiCad (PCBNEW (5.0.2)-1) date 5/3/2019 1:45:30 PM*
%MOMM*%
%LPD*%
G01*
G04 APERTURE LIST*
G04 #@! TA.AperFunction,ComponentPad*
%ADD10C,1.500000*%
G04 #@! TD*
G04 #@! TA.AperFunction,ViaPad*
%ADD11C,0.889000*%
G04 #@! TD*
G04 #@! TA.AperFunction,ViaPad*
%ADD12C,0.635000*%
G04 #@! TD*
G04 #@! TA.AperFunction,Conductor*
%ADD13C,0.152400*%
G04 #@! TD*
G04 APERTURE END LIST*
D10*
G04 #@! TO.P,P2,*
G04 #@! TO.N,*
X40279320Y-113370360D03*
G04 #@! TD*
G04 #@! TO.P,P3,*
G04 #@! TO.N,*
X50337720Y-112349280D03*
G04 #@! TD*
D11*
G04 #@! TO.N,Dev+*
X53279040Y-112232440D03*
D12*
X42519600Y-95246555D03*
X42519600Y-96078040D03*
X42575480Y-97033080D03*
X42722800Y-97845880D03*
X49702720Y-115041680D03*
G04 #@! TD*
D13*
G04 #@! TO.N,Dev+*
G36*
X43130800Y-109970037D02*
X43123368Y-110007400D01*
X43152814Y-110155434D01*
X43185857Y-110204887D01*
X43236668Y-110280932D01*
X43362166Y-110364786D01*
X43510200Y-110394232D01*
X43547563Y-110386800D01*
X54052801Y-110386800D01*
X54052800Y-115342445D01*
X37463400Y-115318155D01*
X37463400Y-113003924D01*
X38437120Y-113003924D01*
X38437120Y-113736796D01*
X38717578Y-114413883D01*
X39235797Y-114932102D01*
X39912884Y-115212560D01*
X40645756Y-115212560D01*
X41322843Y-114932102D01*
X41841062Y-114413883D01*
X42121520Y-113736796D01*
X42121520Y-113003924D01*
X41841062Y-112326837D01*
X41497069Y-111982844D01*
X48495520Y-111982844D01*
X48495520Y-112715716D01*
X48775978Y-113392803D01*
X49294197Y-113911022D01*
X49971284Y-114191480D01*
X50704156Y-114191480D01*
X51381243Y-113911022D01*
X51899462Y-113392803D01*
X52179920Y-112715716D01*
X52179920Y-111982844D01*
X51899462Y-111305757D01*
X51381243Y-110787538D01*
X50704156Y-110507080D01*
X49971284Y-110507080D01*
X49294197Y-110787538D01*
X48775978Y-111305757D01*
X48495520Y-111982844D01*
X41497069Y-111982844D01*
X41322843Y-111808618D01*
X40645756Y-111528160D01*
X39912884Y-111528160D01*
X39235797Y-111808618D01*
X38717578Y-112326837D01*
X38437120Y-113003924D01*
X37463400Y-113003924D01*
X37463400Y-110361418D01*
X37717771Y-110321812D01*
X37763738Y-110307758D01*
X37809933Y-110294250D01*
X37813863Y-110292433D01*
X38322340Y-110053704D01*
X38362565Y-110027281D01*
X38403062Y-110001383D01*
X38406325Y-109998537D01*
X38827361Y-109626690D01*
X38858522Y-109590076D01*
X38890154Y-109553816D01*
X38892486Y-109550168D01*
X39192233Y-109075097D01*
X39211883Y-109031168D01*
X39232048Y-108987529D01*
X39233263Y-108983373D01*
X39387626Y-108443269D01*
X39394148Y-108395656D01*
X39401264Y-108348044D01*
X39401263Y-108343714D01*
X39397831Y-107781995D01*
X39390726Y-107734451D01*
X39384195Y-107686772D01*
X39382979Y-107682616D01*
X39222030Y-107144438D01*
X39201874Y-107100817D01*
X39182216Y-107056869D01*
X39179882Y-107053222D01*
X38874353Y-106581848D01*
X38842744Y-106545614D01*
X38811561Y-106508973D01*
X38808298Y-106506127D01*
X38382751Y-106139452D01*
X38342239Y-106113544D01*
X38302029Y-106087130D01*
X38298098Y-106085314D01*
X37786742Y-105852815D01*
X37740560Y-105839310D01*
X37694581Y-105825253D01*
X37690298Y-105824613D01*
X37463400Y-105792118D01*
X37463400Y-98629640D01*
X37933578Y-98629640D01*
X37940520Y-98664480D01*
X37940521Y-100982275D01*
X37933578Y-101017240D01*
X37947597Y-101087599D01*
X37961084Y-101155400D01*
X37961117Y-101155449D01*
X37961129Y-101155510D01*
X38000748Y-101214762D01*
X38039413Y-101272628D01*
X38039463Y-101272662D01*
X38039497Y-101272712D01*
X38097473Y-101311422D01*
X38156641Y-101350957D01*
X38156702Y-101350969D01*
X38156751Y-101351002D01*
X38223883Y-101364333D01*
X38294920Y-101378463D01*
X38329886Y-101371508D01*
X42230372Y-101370211D01*
X42264830Y-101377142D01*
X42300182Y-101370188D01*
X42300621Y-101370188D01*
X42334311Y-101363475D01*
X42403167Y-101349931D01*
X42403545Y-101349680D01*
X42403990Y-101349591D01*
X42462224Y-101310652D01*
X42520562Y-101271852D01*
X42520815Y-101271475D01*
X42521192Y-101271223D01*
X42560056Y-101213017D01*
X42599141Y-101154791D01*
X42599231Y-101154346D01*
X42599482Y-101153969D01*
X42613115Y-101085313D01*
X42619924Y-101051459D01*
X42619925Y-101051018D01*
X42626942Y-101015680D01*
X42620074Y-100981212D01*
X42625071Y-98637501D01*
X42626942Y-98628080D01*
X42625111Y-98618890D01*
X42625153Y-98599133D01*
X42604811Y-98495713D01*
X42526732Y-98378318D01*
X42523299Y-98376014D01*
X42521022Y-98372608D01*
X42403768Y-98294318D01*
X42300385Y-98273789D01*
X42280680Y-98273796D01*
X42271450Y-98271939D01*
X42261980Y-98273802D01*
X38329768Y-98275109D01*
X38294920Y-98268177D01*
X38259955Y-98275132D01*
X38259899Y-98275132D01*
X38227098Y-98281668D01*
X38156640Y-98295683D01*
X38156589Y-98295717D01*
X38156530Y-98295729D01*
X38098323Y-98334650D01*
X38039412Y-98374013D01*
X38039378Y-98374063D01*
X38039328Y-98374097D01*
X38000618Y-98432073D01*
X37961083Y-98491241D01*
X37961071Y-98491302D01*
X37961038Y-98491351D01*
X37947731Y-98558368D01*
X37940520Y-98594617D01*
X37940520Y-98594680D01*
X37933578Y-98629640D01*
X37463400Y-98629640D01*
X37463400Y-94562600D01*
X43130801Y-94562600D01*
X43130800Y-109970037D01*
X43130800Y-109970037D01*
G37*
X43130800Y-109970037D02*
X43123368Y-110007400D01*
X43152814Y-110155434D01*
X43185857Y-110204887D01*
X43236668Y-110280932D01*
X43362166Y-110364786D01*
X43510200Y-110394232D01*
X43547563Y-110386800D01*
X54052801Y-110386800D01*
X54052800Y-115342445D01*
X37463400Y-115318155D01*
X37463400Y-113003924D01*
X38437120Y-113003924D01*
X38437120Y-113736796D01*
X38717578Y-114413883D01*
X39235797Y-114932102D01*
X39912884Y-115212560D01*
X40645756Y-115212560D01*
X41322843Y-114932102D01*
X41841062Y-114413883D01*
X42121520Y-113736796D01*
X42121520Y-113003924D01*
X41841062Y-112326837D01*
X41497069Y-111982844D01*
X48495520Y-111982844D01*
X48495520Y-112715716D01*
X48775978Y-113392803D01*
X49294197Y-113911022D01*
X49971284Y-114191480D01*
X50704156Y-114191480D01*
X51381243Y-113911022D01*
X51899462Y-113392803D01*
X52179920Y-112715716D01*
X52179920Y-111982844D01*
X51899462Y-111305757D01*
X51381243Y-110787538D01*
X50704156Y-110507080D01*
X49971284Y-110507080D01*
X49294197Y-110787538D01*
X48775978Y-111305757D01*
X48495520Y-111982844D01*
X41497069Y-111982844D01*
X41322843Y-111808618D01*
X40645756Y-111528160D01*
X39912884Y-111528160D01*
X39235797Y-111808618D01*
X38717578Y-112326837D01*
X38437120Y-113003924D01*
X37463400Y-113003924D01*
X37463400Y-110361418D01*
X37717771Y-110321812D01*
X37763738Y-110307758D01*
X37809933Y-110294250D01*
X37813863Y-110292433D01*
X38322340Y-110053704D01*
X38362565Y-110027281D01*
X38403062Y-110001383D01*
X38406325Y-109998537D01*
X38827361Y-109626690D01*
X38858522Y-109590076D01*
X38890154Y-109553816D01*
X38892486Y-109550168D01*
X39192233Y-109075097D01*
X39211883Y-109031168D01*
X39232048Y-108987529D01*
X39233263Y-108983373D01*
X39387626Y-108443269D01*
X39394148Y-108395656D01*
X39401264Y-108348044D01*
X39401263Y-108343714D01*
X39397831Y-107781995D01*
X39390726Y-107734451D01*
X39384195Y-107686772D01*
X39382979Y-107682616D01*
X39222030Y-107144438D01*
X39201874Y-107100817D01*
X39182216Y-107056869D01*
X39179882Y-107053222D01*
X38874353Y-106581848D01*
X38842744Y-106545614D01*
X38811561Y-106508973D01*
X38808298Y-106506127D01*
X38382751Y-106139452D01*
X38342239Y-106113544D01*
X38302029Y-106087130D01*
X38298098Y-106085314D01*
X37786742Y-105852815D01*
X37740560Y-105839310D01*
X37694581Y-105825253D01*
X37690298Y-105824613D01*
X37463400Y-105792118D01*
X37463400Y-98629640D01*
X37933578Y-98629640D01*
X37940520Y-98664480D01*
X37940521Y-100982275D01*
X37933578Y-101017240D01*
X37947597Y-101087599D01*
X37961084Y-101155400D01*
X37961117Y-101155449D01*
X37961129Y-101155510D01*
X38000748Y-101214762D01*
X38039413Y-101272628D01*
X38039463Y-101272662D01*
X38039497Y-101272712D01*
X38097473Y-101311422D01*
X38156641Y-101350957D01*
X38156702Y-101350969D01*
X38156751Y-101351002D01*
X38223883Y-101364333D01*
X38294920Y-101378463D01*
X38329886Y-101371508D01*
X42230372Y-101370211D01*
X42264830Y-101377142D01*
X42300182Y-101370188D01*
X42300621Y-101370188D01*
X42334311Y-101363475D01*
X42403167Y-101349931D01*
X42403545Y-101349680D01*
X42403990Y-101349591D01*
X42462224Y-101310652D01*
X42520562Y-101271852D01*
X42520815Y-101271475D01*
X42521192Y-101271223D01*
X42560056Y-101213017D01*
X42599141Y-101154791D01*
X42599231Y-101154346D01*
X42599482Y-101153969D01*
X42613115Y-101085313D01*
X42619924Y-101051459D01*
X42619925Y-101051018D01*
X42626942Y-101015680D01*
X42620074Y-100981212D01*
X42625071Y-98637501D01*
X42626942Y-98628080D01*
X42625111Y-98618890D01*
X42625153Y-98599133D01*
X42604811Y-98495713D01*
X42526732Y-98378318D01*
X42523299Y-98376014D01*
X42521022Y-98372608D01*
X42403768Y-98294318D01*
X42300385Y-98273789D01*
X42280680Y-98273796D01*
X42271450Y-98271939D01*
X42261980Y-98273802D01*
X38329768Y-98275109D01*
X38294920Y-98268177D01*
X38259955Y-98275132D01*
X38259899Y-98275132D01*
X38227098Y-98281668D01*
X38156640Y-98295683D01*
X38156589Y-98295717D01*
X38156530Y-98295729D01*
X38098323Y-98334650D01*
X38039412Y-98374013D01*
X38039378Y-98374063D01*
X38039328Y-98374097D01*
X38000618Y-98432073D01*
X37961083Y-98491241D01*
X37961071Y-98491302D01*
X37961038Y-98491351D01*
X37947731Y-98558368D01*
X37940520Y-98594617D01*
X37940520Y-98594680D01*
X37933578Y-98629640D01*
X37463400Y-98629640D01*
X37463400Y-94562600D01*
X43130801Y-94562600D01*
X43130800Y-109970037D01*
G04 #@! TD*
M02*
