G04 #@! TF.GenerationSoftware,KiCad,Pcbnew,(5.0.2)-1*
G04 #@! TF.CreationDate,2019-05-16T23:08:13-04:00*
G04 #@! TF.ProjectId,g935f-pwr,67393335-662d-4707-9772-2e6b69636164,V2*
G04 #@! TF.SameCoordinates,Original*
G04 #@! TF.FileFunction,Copper,L2,Bot*
G04 #@! TF.FilePolarity,Positive*
%FSLAX46Y46*%
G04 Gerber Fmt 4.6, Leading zero omitted, Abs format (unit mm)*
G04 Created by KiCad (PCBNEW (5.0.2)-1) date 5/16/2019 11:08:13 PM*
%MOMM*%
%LPD*%
G01*
G04 APERTURE LIST*
G04 #@! TA.AperFunction,SMDPad,CuDef*
%ADD10R,0.520000X0.580000*%
G04 #@! TD*
G04 #@! TA.AperFunction,SMDPad,CuDef*
%ADD11R,0.520000X0.270000*%
G04 #@! TD*
G04 #@! TA.AperFunction,SMDPad,CuDef*
%ADD12R,0.330000X0.480000*%
G04 #@! TD*
G04 #@! TA.AperFunction,ComponentPad*
%ADD13C,1.500000*%
G04 #@! TD*
G04 #@! TA.AperFunction,BGAPad,CuDef*
%ADD14C,2.100000*%
G04 #@! TD*
G04 #@! TA.AperFunction,ViaPad*
%ADD15C,0.889000*%
G04 #@! TD*
G04 #@! TA.AperFunction,ViaPad*
%ADD16C,0.635000*%
G04 #@! TD*
G04 #@! TA.AperFunction,Conductor*
%ADD17C,0.152400*%
G04 #@! TD*
G04 #@! TA.AperFunction,Conductor*
%ADD18C,0.508000*%
G04 #@! TD*
G04 #@! TA.AperFunction,Conductor*
%ADD19C,0.381000*%
G04 #@! TD*
G04 #@! TA.AperFunction,Conductor*
%ADD20C,0.762000*%
G04 #@! TD*
G04 #@! TA.AperFunction,Conductor*
%ADD21C,0.254000*%
G04 #@! TD*
G04 APERTURE END LIST*
D10*
G04 #@! TO.P,P1,5*
G04 #@! TO.N,N/C*
X41539480Y-95631480D03*
D11*
G04 #@! TO.P,P1,7*
G04 #@! TO.N,Dev+*
X41539480Y-96643480D03*
G04 #@! TO.P,P1,6*
G04 #@! TO.N,N/C*
X41539480Y-96219480D03*
D12*
G04 #@! TO.P,P1,*
G04 #@! TO.N,*
X41504480Y-97961480D03*
D10*
G04 #@! TO.P,P1,4*
G04 #@! TO.N,GND1*
X39039480Y-95631480D03*
D11*
G04 #@! TO.P,P1,3*
X39039480Y-96219480D03*
G04 #@! TO.P,P1,2*
G04 #@! TO.N,N/C*
X39039480Y-96643480D03*
D10*
G04 #@! TO.P,P1,1*
X39039480Y-97231480D03*
G04 #@! TO.P,P1,8*
G04 #@! TO.N,Dev+*
X41539480Y-97231480D03*
D12*
G04 #@! TO.P,P1,*
G04 #@! TO.N,*
X41504480Y-94901480D03*
X39074480Y-97961480D03*
X39074480Y-94901480D03*
G04 #@! TD*
D13*
G04 #@! TO.P,P2,*
G04 #@! TO.N,*
X40279320Y-113370360D03*
G04 #@! TD*
G04 #@! TO.P,P3,*
G04 #@! TO.N,*
X50337720Y-112349280D03*
G04 #@! TD*
D14*
G04 #@! TO.P,P4,1*
G04 #@! TO.N,Dev+*
X52400200Y-114360960D03*
G04 #@! TD*
G04 #@! TO.P,P5,1*
G04 #@! TO.N,GND1*
X47411640Y-112354360D03*
G04 #@! TD*
D15*
G04 #@! TO.N,Dev+*
X53279040Y-112232440D03*
D16*
X42519600Y-95246555D03*
X42519600Y-96078040D03*
X42575480Y-97033080D03*
X42722800Y-97845880D03*
X49702720Y-115041680D03*
G04 #@! TD*
D17*
G04 #@! TO.N,Dev+*
X53450199Y-112403599D02*
X53279040Y-112232440D01*
X52400200Y-114360960D02*
X53450199Y-113310961D01*
X53450199Y-113310961D02*
X53450199Y-112403599D01*
X41615370Y-97099120D02*
X41615370Y-97143480D01*
X42362120Y-95404035D02*
X42519600Y-95246555D01*
X42362120Y-96606360D02*
X42362120Y-95404035D01*
X42362120Y-96606360D02*
X42362120Y-96768920D01*
X42362120Y-96276160D02*
X42362120Y-96606360D01*
X42362120Y-96235520D02*
X42519600Y-96078040D01*
X42362120Y-96819720D02*
X42575480Y-97033080D01*
X42362120Y-96509840D02*
X42362120Y-96819720D01*
X42362120Y-96509840D02*
X42362120Y-96235520D01*
X42362120Y-96768920D02*
X42362120Y-96509840D01*
X42031920Y-97099120D02*
X42031920Y-97155000D01*
X42468800Y-97591880D02*
X42722800Y-97845880D01*
D18*
X42722800Y-95449755D02*
X42519600Y-95246555D01*
X42722800Y-97845880D02*
X42722800Y-95449755D01*
X42575480Y-95302435D02*
X42519600Y-95246555D01*
X42575480Y-97033080D02*
X42575480Y-95302435D01*
X42575480Y-97033080D02*
X42575480Y-97068640D01*
X42575480Y-97068640D02*
X42346880Y-97297240D01*
D19*
X42227499Y-97350579D02*
X42138600Y-97261680D01*
X42257981Y-97350579D02*
X42227499Y-97350579D01*
X42575480Y-97033080D02*
X42257981Y-97350579D01*
D17*
X42031920Y-97155000D02*
X42138600Y-97261680D01*
D19*
X42575480Y-97033080D02*
X42126468Y-97033080D01*
D20*
X49702720Y-115041680D02*
X51719480Y-115041680D01*
X51719480Y-115041680D02*
X52400200Y-114360960D01*
X52400200Y-114360960D02*
X53492400Y-113268760D01*
X53279040Y-113055400D02*
X53279040Y-112232440D01*
X53492400Y-113268760D02*
X53279040Y-113055400D01*
D17*
X41615370Y-96715581D02*
X41615370Y-96643480D01*
X42575480Y-97033080D02*
X42257981Y-96715581D01*
X41986200Y-96715581D02*
X41615370Y-96715581D01*
X42257981Y-96715581D02*
X41986200Y-96715581D01*
D19*
X42575480Y-97033080D02*
X42239781Y-96697381D01*
X42239781Y-96697381D02*
X42073801Y-96697381D01*
D21*
X41666200Y-97358200D02*
X41630610Y-97322610D01*
X42235120Y-97358200D02*
X41666200Y-97358200D01*
D17*
X42138600Y-97261680D02*
X42235120Y-97358200D01*
X42235120Y-97358200D02*
X42468800Y-97591880D01*
G04 #@! TD*
G04 #@! TO.N,GND1*
G36*
X38624607Y-94661480D02*
X38624607Y-95103210D01*
X38621213Y-95104616D01*
X38542616Y-95183213D01*
X38500080Y-95285904D01*
X38500080Y-95523530D01*
X38569930Y-95593380D01*
X39001380Y-95593380D01*
X39001380Y-95573380D01*
X39077580Y-95573380D01*
X39077580Y-95593380D01*
X39097580Y-95593380D01*
X39097580Y-95669580D01*
X39077580Y-95669580D01*
X39077580Y-96181380D01*
X39097580Y-96181380D01*
X39097580Y-96223607D01*
X38779480Y-96223607D01*
X38670464Y-96245292D01*
X38652073Y-96257580D01*
X38569930Y-96257580D01*
X38500080Y-96327430D01*
X38500080Y-96410056D01*
X38509609Y-96433061D01*
X38494607Y-96508480D01*
X38494607Y-96778480D01*
X38510819Y-96859980D01*
X38494607Y-96941480D01*
X38494607Y-97521480D01*
X38516292Y-97630496D01*
X38578044Y-97722916D01*
X38624607Y-97754028D01*
X38624607Y-98201480D01*
X38646292Y-98310496D01*
X38705324Y-98398846D01*
X38683078Y-98432169D01*
X38643608Y-98491241D01*
X38643593Y-98491317D01*
X38643551Y-98491380D01*
X38630147Y-98558911D01*
X38623045Y-98594617D01*
X38623045Y-98594695D01*
X38616103Y-98629671D01*
X38623045Y-98664495D01*
X38623046Y-100982290D01*
X38616103Y-101017271D01*
X38630063Y-101087298D01*
X38643609Y-101155400D01*
X38643651Y-101155462D01*
X38643666Y-101155539D01*
X38683243Y-101214716D01*
X38721938Y-101272628D01*
X38722001Y-101272670D01*
X38722044Y-101272734D01*
X38780094Y-101311487D01*
X38839166Y-101350957D01*
X38839242Y-101350972D01*
X38839305Y-101351014D01*
X38906734Y-101364397D01*
X38977445Y-101378463D01*
X39012425Y-101371505D01*
X42100212Y-101370214D01*
X42135045Y-101377143D01*
X42170024Y-101370185D01*
X42170096Y-101370185D01*
X42203237Y-101363579D01*
X42273324Y-101349637D01*
X42273388Y-101349594D01*
X42273464Y-101349579D01*
X42332094Y-101310368D01*
X42390552Y-101271308D01*
X42390595Y-101271244D01*
X42390659Y-101271201D01*
X42429233Y-101213418D01*
X42468882Y-101154080D01*
X42468897Y-101154002D01*
X42468939Y-101153940D01*
X42482252Y-101086866D01*
X42489445Y-101050704D01*
X42489445Y-101050625D01*
X42496387Y-101015649D01*
X42489445Y-100980826D01*
X42489445Y-98663025D01*
X42496387Y-98628049D01*
X42468823Y-98489781D01*
X42390445Y-98372586D01*
X42273185Y-98294306D01*
X42169800Y-98273786D01*
X42144394Y-98273797D01*
X42135045Y-98271937D01*
X42125657Y-98273804D01*
X41939951Y-98273882D01*
X41954353Y-98201480D01*
X41954353Y-97764600D01*
X42001329Y-97764600D01*
X42044153Y-97793214D01*
X42125900Y-97809475D01*
X42125900Y-97964611D01*
X42216773Y-98183997D01*
X42384683Y-98351907D01*
X42604069Y-98442780D01*
X42841531Y-98442780D01*
X43060917Y-98351907D01*
X43130801Y-98282023D01*
X43130800Y-109970037D01*
X43123368Y-110007400D01*
X43152814Y-110155434D01*
X43185857Y-110204887D01*
X43236668Y-110280932D01*
X43362166Y-110364786D01*
X43510200Y-110394232D01*
X43547563Y-110386800D01*
X54052801Y-110386800D01*
X54052800Y-112918772D01*
X54005365Y-112847780D01*
X53968521Y-112792639D01*
X53939440Y-112773208D01*
X53939440Y-112529735D01*
X54002940Y-112376433D01*
X54002940Y-112088447D01*
X53892733Y-111822384D01*
X53689096Y-111618747D01*
X53423033Y-111508540D01*
X53135047Y-111508540D01*
X52868984Y-111618747D01*
X52665347Y-111822384D01*
X52555140Y-112088447D01*
X52555140Y-112376433D01*
X52618640Y-112529735D01*
X52618640Y-112990358D01*
X52610444Y-113031560D01*
X52135766Y-113031560D01*
X52031143Y-113074897D01*
X52179920Y-112715716D01*
X52179920Y-111982844D01*
X51899462Y-111305757D01*
X51381243Y-110787538D01*
X50704156Y-110507080D01*
X49971284Y-110507080D01*
X49294197Y-110787538D01*
X48775978Y-111305757D01*
X48495520Y-111982844D01*
X48495520Y-112715716D01*
X48775978Y-113392803D01*
X49294197Y-113911022D01*
X49971284Y-114191480D01*
X50704156Y-114191480D01*
X51099257Y-114027824D01*
X51070800Y-114096526D01*
X51070800Y-114381280D01*
X49637677Y-114381280D01*
X49445045Y-114419597D01*
X49226598Y-114565558D01*
X49080637Y-114784005D01*
X49029382Y-115041680D01*
X49080637Y-115299355D01*
X49104588Y-115335200D01*
X37463400Y-115318155D01*
X37463400Y-113003924D01*
X38437120Y-113003924D01*
X38437120Y-113736796D01*
X38717578Y-114413883D01*
X39235797Y-114932102D01*
X39912884Y-115212560D01*
X40645756Y-115212560D01*
X41322843Y-114932102D01*
X41841062Y-114413883D01*
X42121520Y-113736796D01*
X42121520Y-113003924D01*
X41841062Y-112326837D01*
X41322843Y-111808618D01*
X40645756Y-111528160D01*
X39912884Y-111528160D01*
X39235797Y-111808618D01*
X38717578Y-112326837D01*
X38437120Y-113003924D01*
X37463400Y-113003924D01*
X37463400Y-110361418D01*
X37717771Y-110321812D01*
X37763738Y-110307758D01*
X37809933Y-110294250D01*
X37813863Y-110292433D01*
X38322340Y-110053704D01*
X38362565Y-110027281D01*
X38403062Y-110001383D01*
X38406325Y-109998537D01*
X38827361Y-109626690D01*
X38858522Y-109590076D01*
X38890154Y-109553816D01*
X38892486Y-109550168D01*
X39192233Y-109075097D01*
X39211883Y-109031168D01*
X39232048Y-108987529D01*
X39233263Y-108983373D01*
X39387626Y-108443269D01*
X39394148Y-108395656D01*
X39401264Y-108348044D01*
X39401263Y-108343714D01*
X39397831Y-107781995D01*
X39390726Y-107734451D01*
X39384195Y-107686772D01*
X39382979Y-107682616D01*
X39222030Y-107144438D01*
X39201874Y-107100817D01*
X39182216Y-107056869D01*
X39179882Y-107053222D01*
X38874353Y-106581848D01*
X38842744Y-106545614D01*
X38811561Y-106508973D01*
X38808298Y-106506127D01*
X38382751Y-106139452D01*
X38342239Y-106113544D01*
X38302029Y-106087130D01*
X38298098Y-106085314D01*
X37786742Y-105852815D01*
X37740560Y-105839310D01*
X37694581Y-105825253D01*
X37690298Y-105824613D01*
X37463400Y-105792118D01*
X37463400Y-95739430D01*
X38500080Y-95739430D01*
X38500080Y-95977056D01*
X38510818Y-96002980D01*
X38500080Y-96028904D01*
X38500080Y-96111530D01*
X38569930Y-96181380D01*
X38676827Y-96181380D01*
X38723904Y-96200880D01*
X38931530Y-96200880D01*
X38951030Y-96181380D01*
X39001380Y-96181380D01*
X39001380Y-95669580D01*
X38569930Y-95669580D01*
X38500080Y-95739430D01*
X37463400Y-95739430D01*
X37463400Y-94562600D01*
X38644276Y-94562600D01*
X38624607Y-94661480D01*
X38624607Y-94661480D01*
G37*
X38624607Y-94661480D02*
X38624607Y-95103210D01*
X38621213Y-95104616D01*
X38542616Y-95183213D01*
X38500080Y-95285904D01*
X38500080Y-95523530D01*
X38569930Y-95593380D01*
X39001380Y-95593380D01*
X39001380Y-95573380D01*
X39077580Y-95573380D01*
X39077580Y-95593380D01*
X39097580Y-95593380D01*
X39097580Y-95669580D01*
X39077580Y-95669580D01*
X39077580Y-96181380D01*
X39097580Y-96181380D01*
X39097580Y-96223607D01*
X38779480Y-96223607D01*
X38670464Y-96245292D01*
X38652073Y-96257580D01*
X38569930Y-96257580D01*
X38500080Y-96327430D01*
X38500080Y-96410056D01*
X38509609Y-96433061D01*
X38494607Y-96508480D01*
X38494607Y-96778480D01*
X38510819Y-96859980D01*
X38494607Y-96941480D01*
X38494607Y-97521480D01*
X38516292Y-97630496D01*
X38578044Y-97722916D01*
X38624607Y-97754028D01*
X38624607Y-98201480D01*
X38646292Y-98310496D01*
X38705324Y-98398846D01*
X38683078Y-98432169D01*
X38643608Y-98491241D01*
X38643593Y-98491317D01*
X38643551Y-98491380D01*
X38630147Y-98558911D01*
X38623045Y-98594617D01*
X38623045Y-98594695D01*
X38616103Y-98629671D01*
X38623045Y-98664495D01*
X38623046Y-100982290D01*
X38616103Y-101017271D01*
X38630063Y-101087298D01*
X38643609Y-101155400D01*
X38643651Y-101155462D01*
X38643666Y-101155539D01*
X38683243Y-101214716D01*
X38721938Y-101272628D01*
X38722001Y-101272670D01*
X38722044Y-101272734D01*
X38780094Y-101311487D01*
X38839166Y-101350957D01*
X38839242Y-101350972D01*
X38839305Y-101351014D01*
X38906734Y-101364397D01*
X38977445Y-101378463D01*
X39012425Y-101371505D01*
X42100212Y-101370214D01*
X42135045Y-101377143D01*
X42170024Y-101370185D01*
X42170096Y-101370185D01*
X42203237Y-101363579D01*
X42273324Y-101349637D01*
X42273388Y-101349594D01*
X42273464Y-101349579D01*
X42332094Y-101310368D01*
X42390552Y-101271308D01*
X42390595Y-101271244D01*
X42390659Y-101271201D01*
X42429233Y-101213418D01*
X42468882Y-101154080D01*
X42468897Y-101154002D01*
X42468939Y-101153940D01*
X42482252Y-101086866D01*
X42489445Y-101050704D01*
X42489445Y-101050625D01*
X42496387Y-101015649D01*
X42489445Y-100980826D01*
X42489445Y-98663025D01*
X42496387Y-98628049D01*
X42468823Y-98489781D01*
X42390445Y-98372586D01*
X42273185Y-98294306D01*
X42169800Y-98273786D01*
X42144394Y-98273797D01*
X42135045Y-98271937D01*
X42125657Y-98273804D01*
X41939951Y-98273882D01*
X41954353Y-98201480D01*
X41954353Y-97764600D01*
X42001329Y-97764600D01*
X42044153Y-97793214D01*
X42125900Y-97809475D01*
X42125900Y-97964611D01*
X42216773Y-98183997D01*
X42384683Y-98351907D01*
X42604069Y-98442780D01*
X42841531Y-98442780D01*
X43060917Y-98351907D01*
X43130801Y-98282023D01*
X43130800Y-109970037D01*
X43123368Y-110007400D01*
X43152814Y-110155434D01*
X43185857Y-110204887D01*
X43236668Y-110280932D01*
X43362166Y-110364786D01*
X43510200Y-110394232D01*
X43547563Y-110386800D01*
X54052801Y-110386800D01*
X54052800Y-112918772D01*
X54005365Y-112847780D01*
X53968521Y-112792639D01*
X53939440Y-112773208D01*
X53939440Y-112529735D01*
X54002940Y-112376433D01*
X54002940Y-112088447D01*
X53892733Y-111822384D01*
X53689096Y-111618747D01*
X53423033Y-111508540D01*
X53135047Y-111508540D01*
X52868984Y-111618747D01*
X52665347Y-111822384D01*
X52555140Y-112088447D01*
X52555140Y-112376433D01*
X52618640Y-112529735D01*
X52618640Y-112990358D01*
X52610444Y-113031560D01*
X52135766Y-113031560D01*
X52031143Y-113074897D01*
X52179920Y-112715716D01*
X52179920Y-111982844D01*
X51899462Y-111305757D01*
X51381243Y-110787538D01*
X50704156Y-110507080D01*
X49971284Y-110507080D01*
X49294197Y-110787538D01*
X48775978Y-111305757D01*
X48495520Y-111982844D01*
X48495520Y-112715716D01*
X48775978Y-113392803D01*
X49294197Y-113911022D01*
X49971284Y-114191480D01*
X50704156Y-114191480D01*
X51099257Y-114027824D01*
X51070800Y-114096526D01*
X51070800Y-114381280D01*
X49637677Y-114381280D01*
X49445045Y-114419597D01*
X49226598Y-114565558D01*
X49080637Y-114784005D01*
X49029382Y-115041680D01*
X49080637Y-115299355D01*
X49104588Y-115335200D01*
X37463400Y-115318155D01*
X37463400Y-113003924D01*
X38437120Y-113003924D01*
X38437120Y-113736796D01*
X38717578Y-114413883D01*
X39235797Y-114932102D01*
X39912884Y-115212560D01*
X40645756Y-115212560D01*
X41322843Y-114932102D01*
X41841062Y-114413883D01*
X42121520Y-113736796D01*
X42121520Y-113003924D01*
X41841062Y-112326837D01*
X41322843Y-111808618D01*
X40645756Y-111528160D01*
X39912884Y-111528160D01*
X39235797Y-111808618D01*
X38717578Y-112326837D01*
X38437120Y-113003924D01*
X37463400Y-113003924D01*
X37463400Y-110361418D01*
X37717771Y-110321812D01*
X37763738Y-110307758D01*
X37809933Y-110294250D01*
X37813863Y-110292433D01*
X38322340Y-110053704D01*
X38362565Y-110027281D01*
X38403062Y-110001383D01*
X38406325Y-109998537D01*
X38827361Y-109626690D01*
X38858522Y-109590076D01*
X38890154Y-109553816D01*
X38892486Y-109550168D01*
X39192233Y-109075097D01*
X39211883Y-109031168D01*
X39232048Y-108987529D01*
X39233263Y-108983373D01*
X39387626Y-108443269D01*
X39394148Y-108395656D01*
X39401264Y-108348044D01*
X39401263Y-108343714D01*
X39397831Y-107781995D01*
X39390726Y-107734451D01*
X39384195Y-107686772D01*
X39382979Y-107682616D01*
X39222030Y-107144438D01*
X39201874Y-107100817D01*
X39182216Y-107056869D01*
X39179882Y-107053222D01*
X38874353Y-106581848D01*
X38842744Y-106545614D01*
X38811561Y-106508973D01*
X38808298Y-106506127D01*
X38382751Y-106139452D01*
X38342239Y-106113544D01*
X38302029Y-106087130D01*
X38298098Y-106085314D01*
X37786742Y-105852815D01*
X37740560Y-105839310D01*
X37694581Y-105825253D01*
X37690298Y-105824613D01*
X37463400Y-105792118D01*
X37463400Y-95739430D01*
X38500080Y-95739430D01*
X38500080Y-95977056D01*
X38510818Y-96002980D01*
X38500080Y-96028904D01*
X38500080Y-96111530D01*
X38569930Y-96181380D01*
X38676827Y-96181380D01*
X38723904Y-96200880D01*
X38931530Y-96200880D01*
X38951030Y-96181380D01*
X39001380Y-96181380D01*
X39001380Y-95669580D01*
X38569930Y-95669580D01*
X38500080Y-95739430D01*
X37463400Y-95739430D01*
X37463400Y-94562600D01*
X38644276Y-94562600D01*
X38624607Y-94661480D01*
G04 #@! TD*
M02*
