G04 #@! TF.GenerationSoftware,KiCad,Pcbnew,(5.0.2)-1*
G04 #@! TF.CreationDate,2019-05-03T13:45:30-04:00*
G04 #@! TF.ProjectId,PowConnV1,506f7743-6f6e-46e5-9631-2e6b69636164,V2*
G04 #@! TF.SameCoordinates,Original*
G04 #@! TF.FileFunction,Soldermask,Bot*
G04 #@! TF.FilePolarity,Negative*
%FSLAX46Y46*%
G04 Gerber Fmt 4.6, Leading zero omitted, Abs format (unit mm)*
G04 Created by KiCad (PCBNEW (5.0.2)-1) date 5/3/2019 1:45:30 PM*
%MOMM*%
%LPD*%
G01*
G04 APERTURE LIST*
%ADD10C,0.150000*%
G04 APERTURE END LIST*
D10*
G36*
X52706474Y-113351310D02*
X52897562Y-113430462D01*
X53069536Y-113545371D01*
X53215789Y-113691624D01*
X53330698Y-113863598D01*
X53409850Y-114054686D01*
X53450200Y-114257544D01*
X53450200Y-114464376D01*
X53409850Y-114667234D01*
X53330698Y-114858322D01*
X53215789Y-115030296D01*
X53069536Y-115176549D01*
X52897562Y-115291458D01*
X52706474Y-115370610D01*
X52503616Y-115410960D01*
X52296784Y-115410960D01*
X52093926Y-115370610D01*
X51902838Y-115291458D01*
X51730864Y-115176549D01*
X51584611Y-115030296D01*
X51469702Y-114858322D01*
X51390550Y-114667234D01*
X51350200Y-114464376D01*
X51350200Y-114257544D01*
X51390550Y-114054686D01*
X51469702Y-113863598D01*
X51584611Y-113691624D01*
X51730864Y-113545371D01*
X51902838Y-113430462D01*
X52093926Y-113351310D01*
X52296784Y-113310960D01*
X52503616Y-113310960D01*
X52706474Y-113351310D01*
X52706474Y-113351310D01*
G37*
G36*
X40498088Y-112649182D02*
X40634576Y-112705717D01*
X40757418Y-112787798D01*
X40861882Y-112892262D01*
X40943963Y-113015104D01*
X41000498Y-113151592D01*
X41029320Y-113296491D01*
X41029320Y-113444229D01*
X41000498Y-113589128D01*
X40943963Y-113725616D01*
X40861882Y-113848458D01*
X40757418Y-113952922D01*
X40634576Y-114035003D01*
X40498088Y-114091538D01*
X40353189Y-114120360D01*
X40205451Y-114120360D01*
X40060552Y-114091538D01*
X39924064Y-114035003D01*
X39801222Y-113952922D01*
X39696758Y-113848458D01*
X39614677Y-113725616D01*
X39558142Y-113589128D01*
X39529320Y-113444229D01*
X39529320Y-113296491D01*
X39558142Y-113151592D01*
X39614677Y-113015104D01*
X39696758Y-112892262D01*
X39801222Y-112787798D01*
X39924064Y-112705717D01*
X40060552Y-112649182D01*
X40205451Y-112620360D01*
X40353189Y-112620360D01*
X40498088Y-112649182D01*
X40498088Y-112649182D01*
G37*
G36*
X47717914Y-111344710D02*
X47909002Y-111423862D01*
X48080976Y-111538771D01*
X48227229Y-111685024D01*
X48342138Y-111856998D01*
X48421290Y-112048086D01*
X48461640Y-112250944D01*
X48461640Y-112457776D01*
X48421290Y-112660634D01*
X48342138Y-112851722D01*
X48227229Y-113023696D01*
X48080976Y-113169949D01*
X47909002Y-113284858D01*
X47717914Y-113364010D01*
X47515056Y-113404360D01*
X47308224Y-113404360D01*
X47105366Y-113364010D01*
X46914278Y-113284858D01*
X46742304Y-113169949D01*
X46596051Y-113023696D01*
X46481142Y-112851722D01*
X46401990Y-112660634D01*
X46361640Y-112457776D01*
X46361640Y-112250944D01*
X46401990Y-112048086D01*
X46481142Y-111856998D01*
X46596051Y-111685024D01*
X46742304Y-111538771D01*
X46914278Y-111423862D01*
X47105366Y-111344710D01*
X47308224Y-111304360D01*
X47515056Y-111304360D01*
X47717914Y-111344710D01*
X47717914Y-111344710D01*
G37*
G36*
X50556488Y-111628102D02*
X50692976Y-111684637D01*
X50815818Y-111766718D01*
X50920282Y-111871182D01*
X51002363Y-111994024D01*
X51058898Y-112130512D01*
X51087720Y-112275411D01*
X51087720Y-112423149D01*
X51058898Y-112568048D01*
X51002363Y-112704536D01*
X50920282Y-112827378D01*
X50815818Y-112931842D01*
X50692976Y-113013923D01*
X50556488Y-113070458D01*
X50411589Y-113099280D01*
X50263851Y-113099280D01*
X50118952Y-113070458D01*
X49982464Y-113013923D01*
X49859622Y-112931842D01*
X49755158Y-112827378D01*
X49673077Y-112704536D01*
X49616542Y-112568048D01*
X49587720Y-112423149D01*
X49587720Y-112275411D01*
X49616542Y-112130512D01*
X49673077Y-111994024D01*
X49755158Y-111871182D01*
X49859622Y-111766718D01*
X49982464Y-111684637D01*
X50118952Y-111628102D01*
X50263851Y-111599280D01*
X50411589Y-111599280D01*
X50556488Y-111628102D01*
X50556488Y-111628102D01*
G37*
G36*
X39239480Y-98201480D02*
X38909480Y-98201480D01*
X38909480Y-97721480D01*
X39239480Y-97721480D01*
X39239480Y-98201480D01*
X39239480Y-98201480D01*
G37*
G36*
X41669480Y-98201480D02*
X41339480Y-98201480D01*
X41339480Y-97721480D01*
X41669480Y-97721480D01*
X41669480Y-98201480D01*
X41669480Y-98201480D01*
G37*
G36*
X41799480Y-97521480D02*
X41279480Y-97521480D01*
X41279480Y-96941480D01*
X41799480Y-96941480D01*
X41799480Y-97521480D01*
X41799480Y-97521480D01*
G37*
G36*
X39299480Y-97521480D02*
X38779480Y-97521480D01*
X38779480Y-96941480D01*
X39299480Y-96941480D01*
X39299480Y-97521480D01*
X39299480Y-97521480D01*
G37*
G36*
X41799480Y-96778480D02*
X41279480Y-96778480D01*
X41279480Y-96508480D01*
X41799480Y-96508480D01*
X41799480Y-96778480D01*
X41799480Y-96778480D01*
G37*
G36*
X39299480Y-96778480D02*
X38779480Y-96778480D01*
X38779480Y-96508480D01*
X39299480Y-96508480D01*
X39299480Y-96778480D01*
X39299480Y-96778480D01*
G37*
G36*
X41799480Y-96354480D02*
X41279480Y-96354480D01*
X41279480Y-96084480D01*
X41799480Y-96084480D01*
X41799480Y-96354480D01*
X41799480Y-96354480D01*
G37*
G36*
X39299480Y-96354480D02*
X38779480Y-96354480D01*
X38779480Y-96084480D01*
X39299480Y-96084480D01*
X39299480Y-96354480D01*
X39299480Y-96354480D01*
G37*
G36*
X39299480Y-95921480D02*
X38779480Y-95921480D01*
X38779480Y-95341480D01*
X39299480Y-95341480D01*
X39299480Y-95921480D01*
X39299480Y-95921480D01*
G37*
G36*
X41799480Y-95921480D02*
X41279480Y-95921480D01*
X41279480Y-95341480D01*
X41799480Y-95341480D01*
X41799480Y-95921480D01*
X41799480Y-95921480D01*
G37*
G36*
X41669480Y-95141480D02*
X41339480Y-95141480D01*
X41339480Y-94661480D01*
X41669480Y-94661480D01*
X41669480Y-95141480D01*
X41669480Y-95141480D01*
G37*
G36*
X39239480Y-95141480D02*
X38909480Y-95141480D01*
X38909480Y-94661480D01*
X39239480Y-94661480D01*
X39239480Y-95141480D01*
X39239480Y-95141480D01*
G37*
M02*
